<?xml version="1.0" encoding="utf-8"?>
<!-- Generator: Adobe Illustrator 27.2.0, SVG Export Plug-In . SVG Version: 6.00 Build 0)  -->
<svg version="1.1" id="Layer_1" xmlns="http://www.w3.org/2000/svg" xmlns:xlink="http://www.w3.org/1999/xlink" x="0px" y="0px"
	 viewBox="0 0 171.51 171.51" style="enable-background:new 0 0 171.51 171.51;" xml:space="preserve">
<style type="text/css">
	.st0{fill:#F7F2DA;}
	.st1{fill:#FBA479;}
	.st2{fill:#FFFFFF;}
	.st3{fill:#E1DFEA;}
	.st4{fill:#261411;}
	.st5{fill:#60312B;}
	.st6{fill:#EF7950;}
	.st7{fill:#60281F;}
	.st8{fill:#E8E6E6;}
	.st9{fill:#3A2827;}
	.st10{fill:#CCCCCC;}
	.st11{fill:#595857;}
	.st12{fill:#F28C5F;}
	.st13{fill:#E26939;}
	.st14{fill:#56413D;}
	.st15{fill:#44322E;}
	.st16{fill:#873421;}
	.st17{fill:#EA6CA0;}
	.st18{fill:#DB5290;}
	.st19{fill:#F48656;}
	.st20{fill:#82112F;}
	.st21{fill:#D85039;}
	.st22{fill:#574984;}
	.st23{fill:#291C51;}
	.st24{fill:#FC5135;}
	.st25{fill:#FFCC7B;}
	.st26{fill:#E8A749;}
	.st27{fill:#6D4A44;}
	.st28{fill:#D1E3E8;}
	.st29{fill:#FCFBFA;}
	.st30{fill:#4C4C4B;}
	.st31{fill:#686868;}
	.st32{fill:#FFB884;}
	.st33{fill:#EF9C62;}
	.st34{fill:#874410;}
	.st35{fill:#6D340D;}
	.st36{fill:#E89258;}
	.st37{fill:#3A2E26;}
	.st38{fill:#4C3F35;}
	.st39{opacity:0.1;}
	.st40{fill:#60120F;}
	.st41{fill:#F4F0ED;}
	.st42{fill:#E0312D;}
	.st43{fill:#F42F2F;}
	.st44{fill:#D31111;}
	.st45{fill:#DB9B19;}
	.st46{fill:#AF740B;}
	.st47{fill:#CC2121;}
	.st48{fill:#F74B4B;}
	.st49{fill:#FCF9E8;}
	.st50{opacity:0.5;fill:#827571;}
	.st51{fill:#665D5C;}
	.st52{fill:#4F4746;}
	.st53{fill:#5E3B2F;}
	.st54{fill:#492E27;}
	.st55{opacity:0.4;}
	.st56{fill:#443A36;}
	.st57{fill:#51415E;}
	.st58{fill:#066FB7;}
	.st59{fill:#066396;}
	.st60{fill:#0D8FD6;}
	.st61{fill:#FEAC74;}
	.st62{fill:#E3784C;}
	.st63{fill:#580801;}
	.st64{fill:#440502;}
	.st65{fill:#00ABB2;}
	.st66{fill:#008C8C;}
	.st67{fill:#914E34;}
	.st68{fill:#5B2E1D;}
	.st69{fill:#6A3221;}
	.st70{fill:#FAFAFC;}
	.st71{fill:#2B3B3F;}
	.st72{fill:#3F565B;}
	.st73{fill:#EF7348;}
	.st74{fill:#6F3D26;}
	.st75{fill:#BBBEBF;}
	.st76{fill:#D3D3D3;}
	.st77{fill:#939A9E;}
	.st78{fill:#F79C5E;}
	.st79{fill:#E07832;}
	.st80{fill:#604135;}
	.st81{fill:#EFEAE8;}
	.st82{fill:#4F3229;}
	.st83{fill:#1A3D3A;}
	.st84{fill:#E8E8E8;}
	.st85{fill:#0C83C4;}
	.st86{fill:#1B96EA;}
	.st87{fill:#B50F0F;}
	.st88{opacity:0.4;fill:#E89258;}
	.st89{fill:#26ACF7;}
	.st90{fill:#F45347;}
	.st91{fill:#FF3939;}
	.st92{fill:#686766;}
	.st93{fill:#5E5D5B;}
	.st94{fill:#424140;}
	.st95{fill:#E7E1CB;}
	.st96{fill:#D6CFBA;}
	.st97{fill:#CE5C37;}
	.st98{fill:#B74D30;}
	.st99{fill:#1B313D;}
	.st100{fill:#36474F;}
	.st101{fill:#29526D;}
	.st102{fill:#FCBD88;}
	.st103{fill:#FCA265;}
	.st104{fill:#496B7A;}
	.st105{fill:#B76049;}
	.st106{fill:#EDEDED;}
	.st107{fill:#7C7979;}
	.st108{fill:#EFE6E8;}
	.st109{fill:#B20D28;}
	.st110{fill:#346682;}
	.st111{fill:#AA0E28;}
	.st112{fill:#FF5050;}
	.st113{fill:#781A0E;}
	.st114{fill:#560904;}
	.st115{fill:#FF0B40;}
	.st116{fill:#BC0000;}
	.st117{fill:#FFD731;}
	.st118{fill:#EA6453;}
	.st119{fill:#602618;}
	.st120{fill:#A14F2A;}
	.st121{fill:#3A4E66;}
	.st122{fill:#EAE9EE;}
	.st123{opacity:0.3;fill:#3A4E66;}
	.st124{fill:#5E2701;}
	.st125{fill:#773000;}
	.st126{fill:#EA2F4A;}
	.st127{fill:#C41234;}
	.st128{fill:#F7F0F1;}
	.st129{fill:#F7A76F;}
	.st130{fill:#B24800;}
	.st131{fill:#8C3B03;}
	.st132{fill:#567391;}
	.st133{fill:#FF7271;}
	.st134{fill:#F75E5E;}
	.st135{fill:#700F28;}
	.st136{fill:#9E1533;}
	.st137{fill:#871231;}
	.st138{fill:#211B3A;}
	.st139{fill:#2E2951;}
	.st140{fill:#F28670;}
	.st141{fill:#F46060;}
	.st142{fill:#EBBF44;}
	.st143{fill:#E0A91E;}
	.st144{fill:#FFA992;}
	.st145{fill:#2C363F;}
	.st146{fill:#1D262D;}
	.st147{fill-rule:evenodd;clip-rule:evenodd;fill:#FFF5F5;}
	.st148{opacity:0.2;}
	.st149{fill:#7C4949;}
	.st150{fill:#F9AE7A;}
	.st151{fill:#FFF5F5;}
	.st152{fill:#C92727;}
	.st153{fill:#4C1B05;}
	.st154{fill:#592009;}
	.st155{opacity:0.4;fill:#592009;}
	.st156{fill:#3F1307;}
	.st157{fill:#664472;}
	.st158{fill:#473051;}
	.st159{fill:#352020;}
	.st160{opacity:0.3;fill:#7C4949;}
</style>
<g>
	<path class="st0" d="M163.74,85.75c0,22.1-9.2,42.05-23.97,56.24c-0.13,0.13-0.27,0.26-0.4,0.39c-0.82,0.77-1.65,1.53-2.51,2.26
		c-1.3,1.13-2.63,2.22-4,3.25c-0.38,0.3-0.75,0.58-1.13,0.85c-1.08,0.79-2.17,1.55-3.29,2.28c-0.04,0.02-0.06,0.04-0.1,0.06
		c-0.17,0.12-0.35,0.23-0.53,0.34c-0.14,0.09-0.28,0.19-0.43,0.27c-0.01,0.01-0.02,0.01-0.04,0.02c-0.44,0.28-0.88,0.55-1.32,0.82
		c-1.17,0.71-2.36,1.39-3.57,2.03c-0.25,0.14-0.51,0.27-0.77,0.4c-0.82,0.43-1.65,0.84-2.48,1.23c-0.27,0.13-0.55,0.26-0.82,0.38
		c-1.65,0.77-3.33,1.47-5.03,2.12c-0.27,0.1-0.53,0.2-0.81,0.3c-1,0.36-2,0.71-3.01,1.03c-3.16,1.01-6.41,1.83-9.74,2.43
		c-2.66,0.48-5.37,0.83-8.12,1.03c-0.03,0.01-0.06,0.01-0.1,0.01c-0.79,0.06-1.57,0.11-2.37,0.14c-0.38,0.02-0.77,0.04-1.16,0.04
		c-0.06,0-0.13,0.01-0.19,0.01c-0.15,0.01-0.31,0.01-0.46,0.01c-0.09,0.01-0.17,0.01-0.26,0.01c-0.45,0.01-0.91,0.01-1.36,0.01
		c-0.57,0-1.13-0.01-1.7-0.03h-0.07c-0.25,0-0.51,0-0.76-0.02c-0.35,0-0.7-0.01-1.05-0.04c-1.21-0.05-2.4-0.13-3.59-0.25
		c-5.6-0.51-11.02-1.6-16.2-3.23c-0.01-0.01-0.04-0.01-0.05-0.01c-1.52-0.48-3.01-1-4.48-1.57c-0.02,0-0.04-0.01-0.06-0.01
		c-0.2-0.08-0.4-0.16-0.61-0.24c-0.14-0.06-0.28-0.11-0.42-0.17c-0.95-0.38-1.91-0.79-2.84-1.2c-1.76-0.79-3.49-1.64-5.17-2.55
		c-1.78-0.96-3.52-1.99-5.21-3.08c-1.88-1.21-3.7-2.5-5.47-3.87c-0.66-0.51-1.32-1.03-1.96-1.57c-0.48-0.4-0.97-0.8-1.44-1.21
		c-0.07-0.07-0.14-0.12-0.21-0.19c-0.18-0.16-0.36-0.31-0.54-0.48c-0.48-0.42-0.95-0.84-1.41-1.28c-0.01-0.01-0.03-0.03-0.04-0.04
		C17.27,128.47,7.77,108.23,7.77,85.75c0-43.07,34.91-77.99,77.99-77.99S163.74,42.68,163.74,85.75z"/>
	<g>
		<g>
			<g>
				<path class="st85" d="M112.54,159.02c-1,0.36-2,0.71-3.01,1.03c0.11-3.1,0.34-6.2,0.63-9.22c0.25-2.61,0.99-5.21,1.04-7.84
					l2.6-6.54c3.73,1.5,6.53,3.21,8.64,5.04v0.01c3.49,3.01,5.12,6.33,6,9.53c-0.04,0.02-0.06,0.04-0.1,0.06
					c-0.17,0.12-0.35,0.23-0.53,0.34c-0.14,0.09-0.28,0.19-0.43,0.27c-0.01,0.01-0.02,0.01-0.04,0.02
					c-0.44,0.28-0.88,0.55-1.32,0.82c-1.17,0.71-2.36,1.39-3.57,2.03c-0.25,0.14-0.51,0.27-0.77,0.4c-0.82,0.43-1.65,0.84-2.48,1.23
					c-0.27,0.13-0.55,0.26-0.82,0.38c-1.65,0.77-3.33,1.47-5.03,2.12C113.08,158.82,112.81,158.92,112.54,159.02z"/>
			</g>
		</g>
		<path class="st86" d="M43.55,151.34c-1.88-1.21-3.7-2.5-5.47-3.87c-0.66-0.51-1.32-1.03-1.96-1.57
			c-0.35-5.47,1.63-12.62,15.61-16.35c0.2-0.06,0.45-0.12,0.73-0.2c2.43-0.64,7.55-1.96,12.98-3.47c0.27-0.07,0.55-0.15,0.82-0.23
			c0.24-0.07,0.47-0.13,0.71-0.19c2.35-0.66,4.73-1.35,6.92-2.01c0.43-0.13,0.87-0.26,1.29-0.38c2.64-0.82,4.95-1.6,6.58-2.25
			c1.3-0.52,2.17-0.97,2.41-1.3c0,0,2.92,1.42,7.15,3.54c0.05,0.03,0.1,0.06,0.16,0.09c0.22,0.11,0.45,0.22,0.69,0.35
			c0.38,0.19,0.77,0.38,1.16,0.58c1.31,0.66,2.7,1.37,4.14,2.12c10.77,5.55,24.26,12.91,24.98,15.29v0.01
			c0.61,2.07-2.02,9.47-4.06,15.1c-1.65,0.77-3.33,1.47-5.03,2.12c-0.27,0.1-0.53,0.2-0.81,0.3c-1,0.36-2,0.71-3.01,1.03
			c-3.16,1.01-6.41,1.83-9.74,2.43c-2.66,0.48-5.37,0.83-8.12,1.03c-0.03,0.01-0.06,0.01-0.1,0.01c-0.79,0.06-1.57,0.11-2.37,0.14
			c-0.38,0.02-0.77,0.04-1.16,0.04c-0.06,0-0.13,0.01-0.19,0.01c-0.15,0.01-0.31,0.01-0.46,0.01c-0.09,0.01-0.17,0.01-0.26,0.01
			c-0.45,0.01-0.91,0.01-1.36,0.01c-0.57,0-1.13-0.01-1.7-0.03h-0.07c-0.25,0-0.51,0-0.76-0.02c-0.35,0-0.7-0.01-1.05-0.04
			c-1.21-0.05-2.4-0.13-3.59-0.25c-5.6-0.51-11.02-1.6-16.2-3.23c-0.01-0.01-0.04-0.01-0.05-0.01c-1.52-0.48-3.01-1-4.48-1.57
			c-0.02,0-0.04-0.01-0.06-0.01c-0.2-0.08-0.4-0.16-0.61-0.24c-0.14-0.06-0.28-0.11-0.42-0.17c-0.95-0.38-1.91-0.79-2.84-1.2
			c-1.76-0.79-3.49-1.64-5.17-2.55C46.98,153.46,45.24,152.43,43.55,151.34z"/>
		<g>
			<path class="st86" d="M57.85,158.59c-0.02,0-0.04-0.01-0.06-0.01c-0.2-0.08-0.4-0.16-0.61-0.24c-0.14-0.06-0.28-0.11-0.42-0.17
				c-0.95-0.38-1.91-0.79-2.84-1.2c-1.76-0.79-3.49-1.64-5.17-2.55c-1.78-0.96-3.52-1.99-5.21-3.08c-1.88-1.21-3.7-2.5-5.47-3.87
				c-0.66-0.51-1.32-1.03-1.96-1.57c-0.48-0.4-0.97-0.8-1.44-1.21c-0.07-0.07-0.14-0.12-0.21-0.19c-0.18-0.16-0.36-0.31-0.54-0.48
				c-0.48-0.42-0.95-0.84-1.41-1.28c1.68-5.09,6-10.48,19.94-13.39c0.04-0.01,0.06-0.01,0.1-0.02l1.78,8.28
				c0.2,2.65,1.4,5.29,1.9,7.91c0.77,4.17,1.41,8.44,1.6,12.69C57.85,158.34,57.85,158.46,57.85,158.59z"/>
			<g>
				<g>
					<g>
						<path class="st85" d="M57.85,158.59c-0.02,0-0.04-0.01-0.06-0.01c0.01-0.14,0.03-0.26,0.04-0.36
							C57.85,158.34,57.85,158.46,57.85,158.59z"/>
					</g>
				</g>
			</g>
		</g>
		<g>
			<path class="st85" d="M89.2,163.66c-0.38,0.02-0.77,0.04-1.16,0.04c-0.06,0-0.13,0.01-0.19,0.01c0.01-0.32,0-0.64,0-0.97
				c-0.01-4.9-0.08-9.81-0.28-14.7c-0.02-0.58-0.05-1.18-0.07-1.77c-0.01-0.4-0.04-0.79-0.06-1.18c-0.11-2.28-0.29-4.58-0.75-6.79
				c-0.18-0.85,1.13-1.21,1.31-0.36c0.43,2.05,0.61,4.16,0.73,6.25c0.04,0.69,0.08,1.36,0.12,2.04v0.07
				c0.22,4.22,0.3,8.46,0.34,12.69C89.18,160.55,89.2,162.1,89.2,163.66z"/>
			<g>
				<path class="st85" d="M81.1,155.05c0,1.21,0.98,2.18,2.18,2.18c1.21,0,2.18-0.98,2.18-2.18c0-1.21-0.98-2.18-2.18-2.18
					C82.08,152.87,81.1,153.85,81.1,155.05z"/>
			</g>
		</g>
		<g>
			<path class="st87" d="M51.67,60.3c0.52-1.68,6.8-6.83,8.16-7.88l11.5,0.43c-2.93,4.48-2.89,9.32-3.18,14.5
				c-4.25-1.32-8.82-1.47-13.03-2.88C52.77,63.68,50.82,63.06,51.67,60.3z"/>
			<g>
				<g>
					<path class="st78" d="M72.85,137.13c0,0,0.82,4.48,1.7,6.79c1.15,3.01,2.79,5.6,4.66,7.53c0.44-0.4,0.89-0.77,1.34-1.11
						c3.31-2.54,6.82-3.79,7.3-4.32c0.41,0.48,3.1,0.2,5.95,1.4c0.14-1.01,0.18-2.09,0.13-3.21c-0.03-0.7-0.11-1.43-0.22-2.16
						c-0.02-0.15-0.04-0.29-0.07-0.44c-0.03-0.17-0.06-0.34-0.09-0.51c-0.03-0.16-0.06-0.32-0.1-0.47
						c-0.09-0.42-0.19-0.83-0.31-1.25c-0.03-0.11-0.06-0.23-0.1-0.34c-0.01-0.02-0.01-0.04-0.02-0.07
						c-0.04-0.12-0.07-0.25-0.11-0.38c-0.06-0.19-0.12-0.38-0.18-0.57c-0.1-0.3-0.21-0.6-0.33-0.91c-0.02-0.04-0.03-0.08-0.05-0.13
						c-0.1-0.27-0.21-0.53-0.33-0.8c-0.05-0.13-0.11-0.26-0.17-0.39c-0.05-0.12-0.11-0.23-0.16-0.35c-0.01-0.02-0.01-0.03-0.02-0.05
						c-0.04-0.09-0.09-0.18-0.13-0.27c-0.2-0.41-0.41-0.81-0.62-1.2c-0.04-0.07-0.08-0.14-0.12-0.21c-0.04-0.07-0.08-0.14-0.12-0.21
						l0.99-13.02c0.01-0.09,0.01-0.17,0.02-0.25l1.47-19.4l1.09-14.34l-17.46-1.32l-0.36,4.76l-1.16,15.21v0l-1.07,14.02l-0.35,4.61
						L72.85,137.13z"/>
					<path class="st79" d="M92.4,137.1c0.92,2.42,1.43,4.85,1.53,7.1c-0.32-1.47-0.75-2.91-1.27-4.22
						c-0.78-1.96-2.23-3.37-3.08-5.15c-0.86-1.8,0.01-3.87-0.61-5.92c-1.16-3.81-6.72-6.65-9-10.23c-2.63-4.12-3.78-8.3-4.63-13.13
						c-0.03-0.14-0.05-0.29-0.07-0.43c-0.82-5.44,0.94-10.15,0.82-15.43l0.34,0.22l16.73,10.9l-2.49,32.67
						C91.33,134.61,91.91,135.81,92.4,137.1z"/>
					<path class="st33" d="M72.85,137.13c0,0,0.82,4.48,1.7,6.79c1.15,3.01,2.79,5.6,4.66,7.53c0.44-0.4,0.89-0.77,1.34-1.11
						c-1.18-1.85-2.11-3.96-2.87-5.69c-2.16-4.93-2.77-10.44-3.34-15.71c-0.18-1.71-0.35-3.43-0.48-5.17L72.85,137.13z"/>
				</g>
				<g>
					<g>
						<g>
							<path class="st78" d="M61.49,75.51c0.8-1.08,2.27-0.89,3.5-0.96c1.3-0.08,3.23-0.2,4.05,1.77c0.64,1.54,0.89,3.68,1.33,5.34
								l2.14,10.5c-0.44,0.49-2.13,0.95-2.82,0.6c-0.9-0.47-6.09-9.28-7.67-12.96C61.27,78.09,60.48,76.87,61.49,75.51z"/>
							<path class="st79" d="M62.27,76.77c-0.01-1.04,1.27-0.99,2.13-1.12c0.85-0.12,2.29-0.5,3.09,0.01
								c0.79,0.5,1.04,2.56,1.23,3.53c-2.26-0.02-1.38,3.23,0.38,2.57l0.16,0.6c0.21,0.8,0.4,1.79,0.31,2.38
								c-0.17-0.62-0.27-1.91-0.81-2.28c-0.52-0.36-1.4,0-1.98-0.33c-1.53-0.85-0.3-2.57,0.82-3.19c-0.16-0.43-0.35-1.53-0.67-1.84
								c-0.37-0.35-1.35-0.21-1.89-0.24c-0.79-0.04-1.36-0.23-1.57,0.5c-0.14,0.49,0.21,1.22,0.35,1.71
								C63.31,78.58,62.27,77.49,62.27,76.77z"/>
						</g>
						<path class="st78" d="M66.24,85.34c0.52,11.57,10.2,22.46,10,22.91c-3.53,7.94,4.41,10.43,7.33,10.79
							c4.8,0.6,19.45-0.48,21.32-21.28c0.32-3.55-1.21-9.49-1.43-13.9c-0.01-0.21-0.02-0.42-0.02-0.65
							c-0.01-2.42,0.46-5.49,0.59-8.44c0.05-1.32,0.03-2.61-0.13-3.81c-0.21-1.47,0.26-7.61-0.95-14.07
							c-1.4-7.52-5.06-15.47-14.66-16.97c-10.05-1.56-15.91,5.51-18.93,13.11c-2.46,6.17-3.05,12.7-2.49,15.22
							c0.04,0.17,0.08,0.33,0.13,0.46C71.68,81.62,65.82,76.05,66.24,85.34z"/>
						<g>
							<path class="st79" d="M76.33,75.51c-0.31-0.25-3.91,0.32-5.24,0.74c-0.39,0.12-0.84,0.17-1.03,0.67
								c-0.18,0.5-0.38,1.49-0.44,2.01c-0.02,0.22,0.05,0.88,0.05,0.88c1.57-0.54,3.85-1.45,5.56-1.01
								c0.74,0.19,2.12,2.21,2.24,2.24C77.45,80.86,76.64,75.77,76.33,75.51z"/>
							<g>
								<path class="st2" d="M70.25,81.39c0,0,0.79,1.6,3.45,1.45c2.66-0.15,3.26-1.83,3.26-1.83s0.29,0.16,0.35,0.04
									c0.06-0.12-0.3-0.37-0.36-0.73c-0.06-0.36-0.81-3.16-1.5-3.39c-0.69-0.23-4.9,0.02-5.47,1.28
									C69.41,79.46,70.25,81.39,70.25,81.39z"/>
								<g>
									<g>
										<g>
											<path class="st37" d="M75.59,79.35c0.08,1.38-0.72,2.54-1.78,2.6c-1.06,0.06-1.99-1.01-2.07-2.38
												c-0.08-1.38,0.72-2.54,1.78-2.6C74.59,76.91,75.52,77.97,75.59,79.35z"/>
										</g>
									</g>
									<path class="st38" d="M74.15,79.09c0.03,0.58-0.3,1.06-0.75,1.09c-0.44,0.03-0.83-0.42-0.86-1
										c-0.03-0.57,0.3-1.06,0.75-1.09C73.73,78.07,74.12,78.52,74.15,79.09z"/>
									<path class="st2" d="M74.03,79.1c0.01,0.19-0.1,0.36-0.25,0.37c-0.15,0.01-0.28-0.14-0.29-0.34
										c-0.01-0.19,0.1-0.36,0.25-0.37C73.88,78.76,74.01,78.91,74.03,79.1z"/>
								</g>
								<path class="st36" d="M77.45,80.91c0-0.01-0.01-0.02-0.01-0.03c0-0.01,0-0.01,0-0.01c-0.03-0.07-0.08-0.14-0.13-0.2
									c-0.08-0.12-0.19-0.25-0.21-0.38c-0.01-0.07-0.06-0.32-0.17-0.67c-0.27-0.98-0.83-2.67-1.44-2.87
									c-0.06-0.02-0.14-0.04-0.25-0.05c-0.06-0.01-0.14-0.02-0.22-0.02c0,0,0,0-0.01,0c-0.28-0.02-0.64-0.01-1.05,0.01
									c-0.59,0.04-3.57,0.27-4.1,1.43c-0.04,0.09-0.07,0.18-0.1,0.27c-0.02,0.07-0.04,0.14-0.06,0.22v0.02
									c-0.01,0.01-0.01,0.03-0.01,0.04c-0.02,0.09-0.03,0.19-0.04,0.29c-0.01,0.09-0.01,0.19-0.01,0.29
									c0,0.11,0.01,0.21,0.01,0.32c0,0.04,0,0.08,0.01,0.12v0.01c0,0.01,0,0.02,0.01,0.04v0.04c0.01,0.01,0.01,0.04,0.01,0.05
									c0.02,0.2,0.06,0.38,0.1,0.55c0.04,0.2,0.09,0.39,0.14,0.56c0.1,0.32,0.2,0.55,0.21,0.57c0.01,0.02,0.09,0.18,0.27,0.39
									c0.43,0.49,1.41,1.26,3.31,1.16c2.28-0.14,3.1-1.36,3.32-1.8c0.06,0.03,0.14,0.05,0.21,0.04c0.11-0.01,0.17-0.07,0.19-0.12
									c0.01-0.03,0.03-0.06,0.03-0.09c0-0.01,0-0.01,0-0.01c0.01-0.01,0.01-0.01,0.01-0.02c0-0.01,0-0.01,0-0.01
									C77.47,80.99,77.46,80.95,77.45,80.91z M76.83,80.92c-0.01,0.01-0.61,1.58-3.13,1.73c-2.53,0.14-3.31-1.34-3.31-1.35
									c-0.01-0.01-0.16-0.37-0.28-0.86c-0.06-0.22-0.11-0.47-0.14-0.73c-0.06-0.48-0.04-0.99,0.15-1.41
									c0.09-0.22,0.34-0.4,0.67-0.56l0.01-0.01c0.55-0.26,1.32-0.45,2.14-0.56h0.01c0.35-0.05,0.7-0.09,1.04-0.11
									c0.77-0.04,1.28-0.01,1.44,0.05c0.35,0.12,0.8,1.23,1.09,2.14c0.12,0.38,0.22,0.74,0.27,0.95c0.01,0.06,0.03,0.11,0.03,0.14
									c0.03,0.19,0.12,0.35,0.21,0.48l-0.12-0.07L76.83,80.92z"/>
								<path class="st39" d="M76.93,79.61c-0.12-0.12-0.26-0.24-0.42-0.36c-0.73-0.56-1.86-1.14-3.37-1.05
									c-1.78,0.1-2.64,1.33-3.04,2.24c-0.07,0.17-0.13,0.34-0.18,0.48c-0.22-0.7-0.48-1.9-0.07-2.81c0.53-1.16,3.51-1.39,4.1-1.43
									c0.71-0.04,1.29-0.02,1.53,0.06C76.1,76.94,76.66,78.64,76.93,79.61z"/>
							</g>
						</g>
						<g>
							<path class="st79" d="M90.17,75.38c0.32-0.29,4.53-0.16,6.11,0.09c0.46,0.07,0.99,0.06,1.26,0.54
								c0.27,0.48,0.62,1.44,0.75,1.94c0.05,0.21,0.05,0.88,0.05,0.88c-1.87-0.34-4.6-0.96-6.51-0.32c-0.83,0.28-2.16,2.46-2.3,2.5
								C89.54,80.84,89.84,75.68,90.17,75.38z"/>
							<g>
								<path class="st2" d="M97.87,80.48c0,0-0.72,1.69-3.79,1.86c-3.07,0.18-3.97-1.42-3.97-1.42s-0.31,0.19-0.4,0.08
									c-0.09-0.11,0.3-0.4,0.33-0.77c0.02-0.36,0.54-3.24,1.3-3.55c0.76-0.31,5.63-0.59,6.44,0.59
									C98.59,78.46,97.87,80.48,97.87,80.48z"/>
								<g>
									<g>
										<g>
											<path class="st37" d="M91.8,78.91c0.08,1.38,1.14,2.44,2.37,2.37c1.23-0.07,2.16-1.24,2.08-2.62
												c-0.08-1.38-1.14-2.44-2.37-2.37C92.66,76.37,91.72,77.54,91.8,78.91z"/>
										</g>
									</g>
									<path class="st38" d="M92.03,78.75c0.03,0.58,0.48,1.02,0.99,0.99c0.51-0.03,0.9-0.52,0.87-1.09
										c-0.03-0.58-0.48-1.02-0.99-0.99C92.38,77.69,91.99,78.18,92.03,78.75z"/>
									<path class="st2" d="M93.57,78.47c0.01,0.19,0.16,0.34,0.33,0.33c0.17-0.01,0.31-0.18,0.29-0.37
										c-0.01-0.19-0.16-0.34-0.33-0.33C93.69,78.11,93.56,78.28,93.57,78.47z"/>
								</g>
								<path class="st36" d="M98.33,78.48c0.01-0.01,0.01-0.04,0-0.05c0-0.02,0-0.05-0.01-0.07v-0.03
									c-0.01-0.07-0.02-0.15-0.04-0.22c-0.01-0.07-0.01-0.12-0.04-0.18c-0.01-0.05-0.02-0.09-0.04-0.14
									c-0.01-0.04-0.03-0.09-0.04-0.13c-0.06-0.17-0.14-0.33-0.25-0.48c-0.75-1.08-4.2-0.95-4.89-0.9
									c-0.09,0.01-0.17,0.01-0.25,0.01c-0.07,0.01-0.15,0.01-0.22,0.01h-0.01c-0.02,0-0.04,0.01-0.06,0.01
									c-0.01,0-0.03,0-0.04,0.01c-0.02,0-0.04,0-0.07,0.01c-0.09,0.01-0.17,0.01-0.25,0.03h-0.01c0,0-0.01,0-0.01,0
									c-0.09,0.01-0.19,0.02-0.27,0.04c-0.09,0.01-0.17,0.03-0.24,0.04c-0.14,0.03-0.25,0.06-0.33,0.09
									c-0.67,0.27-1.11,2.03-1.3,3.03c-0.07,0.35-0.11,0.61-0.11,0.69c-0.01,0.14-0.12,0.29-0.19,0.4
									c-0.05,0.07-0.1,0.15-0.13,0.23c-0.01,0.01-0.01,0.01-0.01,0.01c-0.01,0.04-0.01,0.07-0.01,0.1v0.04
									c0.01,0.04,0.03,0.08,0.06,0.12c0.04,0.04,0.11,0.1,0.23,0.09c0.08,0,0.17-0.04,0.24-0.07c0.3,0.4,1.39,1.52,4.03,1.36
									c3.14-0.17,3.91-1.89,3.94-1.96c0.01-0.04,0.09-0.26,0.17-0.6c0.02-0.09,0.04-0.17,0.06-0.27c0.03-0.17,0.06-0.35,0.07-0.55
									c0.01-0.1,0.01-0.2,0.01-0.31c0,0,0-0.03,0-0.07v-0.21C98.33,78.53,98.33,78.5,98.33,78.48z M97.93,79.51
									c-0.09,0.51-0.22,0.89-0.22,0.9c0,0.01-0.72,1.57-3.64,1.75c-2.91,0.17-3.81-1.31-3.81-1.33l-0.09-0.16l-0.14,0.09
									c0.09-0.14,0.18-0.3,0.19-0.5c0-0.04,0.01-0.09,0.01-0.14c0.03-0.2,0.09-0.53,0.17-0.89c0-0.01,0.01-0.02,0.01-0.03
									c0.01-0.02,0.01-0.04,0.01-0.06c0.22-0.93,0.6-2.09,0.99-2.26c0.19-0.08,0.77-0.18,1.65-0.23c0.19-0.01,0.4-0.01,0.59-0.02
									c0.01,0,0.01,0,0.01,0c1.73-0.04,3.57,0.18,3.99,0.78c0.27,0.4,0.35,0.9,0.35,1.38C97.99,79.03,97.97,79.28,97.93,79.51z"/>
								<path class="st39" d="M89.98,79.54c0.12-0.13,0.27-0.27,0.44-0.41c0.76-0.65,1.99-1.36,3.75-1.46
									c2.06-0.12,3.2,0.99,3.77,1.85c0.11,0.17,0.19,0.32,0.26,0.45c0.17-0.72,0.32-1.94-0.27-2.8c-0.75-1.09-4.2-0.95-4.89-0.91
									c-0.82,0.05-1.49,0.14-1.75,0.25C90.61,76.78,90.17,78.53,89.98,79.54z"/>
							</g>
						</g>
						<g>
							<g>
								<g>
									<path class="st80" d="M74.89,69.7c-1.52-1.15-5.38-1.46-6.54-1.52c-0.21-0.01-0.34-0.02-0.34-0.02
										c0.17-0.31,0.48-1.6,0.8-2.01c0.35-0.45,1.08-0.64,1.55-0.8c1.33-0.47,2.83-0.82,4.15-1.03c0.27,1.02,0.29,2.16,0.3,3.28
										C74.82,68.33,74.83,69.03,74.89,69.7z"/>
								</g>
							</g>
						</g>
						<g>
							<path class="st80" d="M90.07,72.38c2.22-1.1,7.64-1.27,9.26-1.29c0.3,0,0.47,0,0.47,0c-0.21-0.32-0.53-1.62-0.94-2.03
								c-0.46-0.46-1.45-0.68-2.09-0.86c-1.81-0.52-3.88-0.92-5.71-1.18c-0.47,1.02-0.6,2.15-0.71,3.27
								C90.28,71,90.22,71.71,90.07,72.38z"/>
						</g>
						<g>
							<path class="st40" d="M93.37,99.32c-0.2-0.75-0.32-1.61-0.4-2.41c1.24,0.73,2.5,3.23,2.51,4.98c-0.51-0.53-1.06-1-1.66-1.33
								c-2.8,4.21-7.13,6.57-12.76,5.12c-0.56-1.74-1.78-3.58-2.75-4.96C88.09,105.71,93.37,99.32,93.37,99.32z"/>
							<g>
								<g>
									<path class="st81" d="M78.73,100.89c0.24,0.26,0.47,0.51,0.69,0.78c0.03,0.03,0.06,0.07,0.08,0.1
										c0.44,0.53,0.84,1.09,1.22,1.69c0.19,0.3,0.36,0.6,0.53,0.89c0.02,0.03,0.02,0.1,0.06,0.1c7.18,0.89,10.16-2.39,10.53-3.33
										c0-0.06-0.01-0.1-0.04-0.13c-0.25-0.33-1.71,0.87-1.72,0.24c-1.21,0.56-2.77,1.02-4.65,1.01c-0.14,0-0.29,0-0.43-0.01
										c-1.12-0.05-2.28-0.25-3.46-0.6c-0.63-0.12-1.27-0.27-1.92-0.46C79.33,101.08,79.03,100.99,78.73,100.89z"/>
								</g>
								<g>
									<path class="st2" d="M79.62,101.17c0.02,0.02,0.04,0.05,0.06,0.07c0.44,0.53,0.84,1.09,1.22,1.69
										c0.19,0.3,0.36,0.6,0.53,0.89c0.02,0.03,0.02,0.09,0.06,0.1c6.38,0.79,9.44-1.71,10.3-2.93c-0.25-0.33-1.71,0.87-1.72,0.24
										c-1.21,0.56-2.77,1.02-4.65,1.01c-0.14,0-0.29,0-0.43-0.01c-1.12-0.05-2.28-0.25-3.46-0.6
										C80.91,101.51,80.27,101.36,79.62,101.17z"/>
								</g>
								<path class="st79" d="M93.68,99.2c-0.11-0.4-0.2-0.87-0.28-1.43l-0.09,1.25c0.02,0.1,0.04,0.2,0.07,0.3
									c0,0-0.04,0.04-0.1,0.12l-0.04,0.56c0.22-0.22,0.35-0.37,0.37-0.4l0.14-0.17L93.68,99.2z M95.81,101.89
									c-0.01-1.73-1.12-4.07-2.34-5.08c-0.12-0.1-0.24-0.18-0.35-0.25l-0.53-0.31l0.06,0.71c0.09,0.92,0.2,1.64,0.35,2.25
									c-0.18,0.19-0.51,0.51-1,0.87c-0.22,0.16-0.45,0.33-0.72,0.5c-0.22,0.14-0.47,0.29-0.74,0.43h-0.01
									c-0.14,0.08-0.3,0.15-0.46,0.22c-0.14,0.07-0.3,0.14-0.46,0.2c-0.05,0.02-0.09,0.04-0.14,0.06
									c-0.07,0.03-0.15,0.06-0.23,0.09c-0.04,0.01-0.07,0.02-0.09,0.03c-0.01,0.01-0.02,0.01-0.03,0.01
									c-0.02,0.01-0.04,0.02-0.07,0.03c-0.07,0.02-0.13,0.04-0.19,0.06c-0.09,0.03-0.17,0.06-0.27,0.08
									c-0.19,0.06-0.38,0.11-0.58,0.16c-0.18,0.04-0.38,0.09-0.57,0.12c-0.01,0.01-0.04,0.01-0.06,0.01
									c-0.15,0.02-0.3,0.05-0.46,0.06c-0.04,0.01-0.09,0.01-0.13,0.01c-0.04,0.01-0.09,0.01-0.14,0.02c-0.01,0-0.03,0-0.05,0.01
									c-0.09,0.01-0.18,0.01-0.28,0.02c-0.04,0-0.09,0.01-0.14,0.01c-0.1,0.01-0.2,0.01-0.31,0.01c-0.11,0.01-0.23,0.01-0.35,0.01
									h-0.07c-0.14,0-0.29-0.01-0.43-0.01c-0.25-0.01-0.5-0.03-0.75-0.06c-0.23-0.02-0.45-0.05-0.69-0.09
									c-0.02,0-0.05,0-0.07-0.01h-0.01c-0.64-0.11-1.29-0.25-1.95-0.45c-0.09-0.03-0.17-0.06-0.27-0.09
									c-0.56-0.17-1.14-0.4-1.72-0.65c-0.36-0.15-0.74-0.33-1.1-0.52l-1.24-0.64l0.87,1.25c1.04,1.48,2.17,3.22,2.69,4.85
									l0.06,0.19l0.17,0.04c1.11,0.28,2.2,0.43,3.25,0.43c1.86,0.01,3.6-0.43,5.18-1.29c0.84-0.45,1.63-1.03,2.38-1.72
									c0.43-0.4,0.85-0.84,1.25-1.32c0.3-0.35,0.58-0.73,0.85-1.13c0.43,0.27,0.87,0.64,1.36,1.15l0.53,0.55L95.81,101.89z
									 M93.96,100.2l-0.22-0.12l-0.16,0.23c-0.14,0.21-0.27,0.41-0.42,0.61c-0.47,0.64-0.97,1.22-1.5,1.73
									c-0.22,0.22-0.46,0.43-0.7,0.64c-1.94,1.61-4.2,2.44-6.7,2.43c-0.69-0.01-1.4-0.07-2.12-0.2c-0.27-0.05-0.55-0.11-0.82-0.17
									c-0.43-1.26-1.17-2.53-1.94-3.71c0.01,0.01,0.03,0.01,0.05,0.02c0.29,0.13,0.58,0.25,0.86,0.35h0.01
									c0.01,0.01,0.03,0.01,0.04,0.01c1.75,0.66,3.46,0.99,5.11,0.99c2.18,0.01,3.94-0.56,5.25-1.23c0.01,0,0.03-0.01,0.04-0.02
									c0.25-0.12,0.49-0.26,0.71-0.39c0.04-0.02,0.07-0.04,0.11-0.06c0.01-0.01,0.01-0.01,0.02-0.01
									c0.09-0.07,0.19-0.12,0.27-0.18c0.32-0.22,0.59-0.43,0.83-0.62c0.23-0.19,0.42-0.36,0.56-0.51c0.22-0.22,0.35-0.37,0.37-0.4
									l0.14-0.17l-0.07-0.23c-0.11-0.4-0.2-0.87-0.28-1.43v-0.01c0-0.01,0-0.03-0.01-0.04c0.01,0.01,0.01,0.01,0.01,0.01
									c0.72,0.76,1.39,2.08,1.65,3.25C94.67,100.66,94.32,100.41,93.96,100.2z"/>
							</g>
						</g>
						<path class="st79" d="M86.51,109.88c0,0-2.02,3.27-2.26,4.57c-1.32-1.11-3.49-3.47-3.62-5.23
							C82.18,110.36,83.56,111.27,86.51,109.88z"/>
						<g>
							<g>
								<path class="st78" d="M112.8,73.71c-0.98-0.99-2.55-0.65-3.87-0.61c-1.41,0.05-3.5,0.13-4.17,2.16
									c-0.53,1.6-0.56,3.75-0.85,5.44l-1.16,10.66c0.53,0.44,2.4,0.74,3.11,0.32c0.92-0.55,5.56-9.84,6.87-13.66
									C113.32,76.25,114.04,74.96,112.8,73.71z"/>
								<path class="st79" d="M112.1,75.04c-0.11-1.04-1.48-0.86-2.42-0.9c-0.93-0.04-2.52-0.27-3.33,0.32
									c-0.8,0.57-0.85,2.65-0.95,3.63c2.44-0.25,1.84,3.08-0.13,2.6l-0.11,0.61c-0.14,0.82-0.24,1.83-0.08,2.4
									c0.11-0.64,0.09-1.93,0.62-2.35c0.52-0.41,1.51-0.14,2.1-0.52c1.56-1,0.05-2.59-1.23-3.1c0.12-0.44,0.21-1.56,0.53-1.89
									c0.37-0.38,1.44-0.35,2.01-0.43c0.85-0.12,1.44-0.37,1.75,0.34c0.2,0.48-0.09,1.24-0.19,1.73
									C111.17,76.94,112.18,75.75,112.1,75.04z"/>
							</g>
						</g>
						<g>
							<g>
								<path class="st36" d="M80.27,93.43l-0.23-0.01C80.12,93.4,80.2,93.41,80.27,93.43z"/>
								<g>
									<path class="st79" d="M80.27,93.43l1.26,0.06c1.65,2.47,1.26,6.08,2.01,8.83c-0.7,0.29-1.67-0.29-2.43-0.28
										C81.7,101.06,81.56,93.69,80.27,93.43z"/>
								</g>
							</g>
						</g>
						<path class="st79" d="M76.33,75.51c0,0,4.98,5.84,2.99,16.19c3.47,0.29,9.33,1.41,8.77-2.1c2.95,4.03-6.18,5.78-11.44,3.7
							C79.45,79.81,75.61,76.97,76.33,75.51z"/>
						<path class="st80" d="M69.81,54.94c1.87,1.18,5.14,2.8,7.12,2.43c3.61-0.67,9.32-2.32,14.56-6.14
							c12.82-9.36,4,22.23,11.92,22.23c0.67,0.05-0.7,7.98,0.04,11.38c0.82,3.75,1.47,1.49,1.47,1.49s0.43-1.62,1.09-4.14
							c2.1-8.08,6.47-25.41,6.09-28.11c-0.81-5.72-8.7-7.62-13.19-11.63c-5.85-5.21-15.19-4.91-21.99-0.49
							c-1.94,1.26-7.43,1.46-10.53,3.73c-1,0.73-1.77,1.44-2.14,2.1C63.12,49.81,67.29,53.35,69.81,54.94z"/>
						<path class="st80" d="M72.01,45.73c1.02-0.98,1.98-1.93,2.33-2.66C74.98,41.71,71.17,46.03,72.01,45.73z"/>
						<path class="st80" d="M66.2,65.51c0.04,4.77,2.05,13.52,2.03,14.15c0.96-1.9,0.17-7.59,0.37-13.99
							c0.13-4.23,0.69-8.77,2.47-12.73c0.1-0.22,0.2-0.44,0.31-0.66l0.79-6.63c-0.06,0.04-0.12,0.07-0.16,0.08
							c-1.34,1.28-2.78,2.62-3.1,3.63c-0.26,0.81-0.56,2.07-0.87,3.55c-0.83,3.98-1.71,9.5-1.83,11.75
							C66.2,64.92,66.19,65.21,66.2,65.51z"/>
					</g>
					<g>
						<g>
							<path class="st82" d="M69.81,54.94c1.87,1.18,5.14,2.8,7.12,2.43c3.61-0.67,9.32-2.32,14.56-6.14
								c12.82-9.36,4,22.23,11.92,22.23c0.67,0.05-0.7,7.98,0.04,11.38c0.82,3.75,1.47,1.49,1.47,1.49s0.43-1.62,1.09-4.14
								c-1.53-2.87-1.27-10.33-0.9-11.93c-5.95,1.21-3.74-19.8-7.89-22.62c-2.6-1.77-5.58,1.34-7.83,2.52
								c-2.27,1.18-5.15,2.48-7.75,1.87c-3.89-0.93-7.51-3.26-11.23-4.68c-1.32-0.51-2.67-1.06-4.01-1.65
								c-1,0.73-1.77,1.44-2.14,2.1C63.12,49.81,67.29,53.35,69.81,54.94z"/>
							<path class="st82" d="M102.8,92.1c-0.01,0.02-0.01,0.03-0.03,0.05L102.8,92.1z"/>
						</g>
					</g>
					<path class="st88" d="M66.2,65.51c0.77,0.05,1.58,0.1,2.41,0.15c4.47,0.31,9.49,0.77,12.64,1.24
						c5.6,0.84,11.02,2.17,16.26,4.33c2.09,0.86,4.15,1.83,6.22,2.75c0.11,0.05,0.21,0.09,0.31,0.14c0.02-1.09-0.01-2.17-0.15-3.17
						c-0.21-1.47,0.26-7.61-0.95-14.07c-0.09-0.04-0.18-0.08-0.26-0.12c-2.16-0.99-4.22-1.3-6.53-1.73
						c-4.91-0.91-9.4-1.72-14.37-1.94c-3.54-0.16-7.14-0.3-10.69-0.17h-0.01c-0.27,0.01-1.6-0.01-3.03-0.03
						c-0.83,3.98-1.71,9.5-1.83,11.75C66.2,64.92,66.19,65.21,66.2,65.51z"/>
				</g>
				<g>
					<path class="st85" d="M66.53,124.87c1.6,2.38,3.95,4.59,5.93,6.75c0.89,0.97,5.84,5.73,5.58,6.44l5.25,8.99
						c-0.09-0.01-0.02-0.26-0.27-0.13c-1.49,2.37-3.28,4.66-4.67,7.2c-1.36,2.48-1.8,4.87-2.29,7.57
						C72.85,160.08,60.94,139.85,66.53,124.87z"/>
					<path class="st89" d="M65.88,138.22c1.91,8.48,4.47,12.48,9.18,19.39c0.83-2.54,2.39-4.55,4.15-6.16
						c0.44-0.4,0.89-0.77,1.34-1.11c3.31-2.54,6.82-3.79,7.3-4.32c0.19-0.21,0.29-0.32,0.29-0.32c-0.09-0.06-0.19-0.13-0.29-0.21
						c-3.66-2.94-13.73-21.97-13.64-26.33c-2.48,2.03-8.77,6.53-8.77,6.53S65.28,135.53,65.88,138.22z"/>
					<path class="st85" d="M89.98,146.45c0,0,1.23-9.14,1.31-10.04c0,0,0,0,0,0c0.51-5.17,0.69-10.61,0.87-13.23
						c0.01-0.09,0.01-0.17,0.02-0.25c2.48,2.03,6.06,9.1,6.06,9.1s3.58,14.64,1.54,23.34C96.31,147.49,89.98,146.45,89.98,146.45z"
						/>
					<path class="st89" d="M87.58,145.69c0,0,0.1,0.11,0.27,0.32c0.41,0.48,3.1,0.2,5.95,1.4c1.98,0.83,4.04,2.37,5.46,5.36
						c2.09-8.69-1.82-26.58-1.82-26.58s-3.28-3.94-5.76-5.97c-0.01,0.08,0.15-0.38-0.02,0.25c-0.68,2.54-0.37,8.06-0.87,13.23
						c0,0,0,0,0,0c-0.09,0.91-0.19,1.81-0.3,2.68c-0.54,4.25-1.35,7.91-2.65,9.09C87.77,145.56,87.67,145.63,87.58,145.69z"/>
				</g>
			</g>
			<g>
				<path class="st90" d="M59.95,51.52c7.71,0.85,19.27,0.91,26.37,4.24c4.36,2.04,10.24,5.48,14.58,9.49
					c1.9,1.75,3.49,3.61,4.55,5.51l3.39,1.94c7.65-9.35,7.62-22.66,0.58-30.52c-5.98-6.69-17.03-9.43-32.71-2.45
					C72.81,41.46,61.61,47.42,59.95,51.52z"/>
				<g>
					<path class="st44" d="M100.9,65.25c1.9,1.75,3.49,3.61,4.55,5.51l3.39,1.94c7.65-9.35,7.62-22.66,0.58-30.52
						c0.39,3.31,0.32,7.04-0.46,10.07c-0.73,2.81-1.78,5.48-3.38,7.86C104.25,62.07,102.71,63.84,100.9,65.25z"/>
				</g>
			</g>
			<path class="st44" d="M52.17,59.05c2.14-1.85,5.18-3.92,7.76-4.75c4.14-1.33,8.37,1.13,12.28,2.66
				c5.98,2.34,36.62,15.74,36.62,15.74c-1.81-1.96-3.85-3.96-5.95-5.91c-6.87-6.38-14.44-12.24-17.18-14.37
				c-7.39-5.74-12.57-8.09-17.7-8.64c-3.94-0.42-9.02,3.9-11.33,7.02c-1.01,1.36-1.61,2.67-2.2,3.97
				C53.85,56.19,53.24,57.6,52.17,59.05z"/>
			<path class="st91" d="M54.49,54.77c1.91-1.44,4.18-2.83,6.17-3.47c4.14-1.33,8.37,1.13,12.28,2.66
				c4.2,1.65,20.58,8.75,29.95,12.83c-6.87-6.38-14.44-12.24-17.18-14.37c-7.39-5.74-12.57-8.09-17.7-8.64
				c-3.94-0.42-9.02,3.9-11.33,7.02C55.68,52.16,55.07,53.47,54.49,54.77z"/>
		</g>
	</g>
</g>
</svg>
