<?xml version="1.0" encoding="utf-8"?>
<!-- Generator: Adobe Illustrator 27.2.0, SVG Export Plug-In . SVG Version: 6.00 Build 0)  -->
<svg version="1.1" id="Layer_1" xmlns="http://www.w3.org/2000/svg" xmlns:xlink="http://www.w3.org/1999/xlink" x="0px" y="0px"
	 viewBox="0 0 171.51 171.51" style="enable-background:new 0 0 171.51 171.51;" xml:space="preserve">
<style type="text/css">
	.st0{fill:#F7F2DA;}
	.st1{fill:#FBA479;}
	.st2{fill:#FFFFFF;}
	.st3{fill:#E1DFEA;}
	.st4{fill:#261411;}
	.st5{fill:#60312B;}
	.st6{fill:#EF7950;}
	.st7{fill:#60281F;}
	.st8{fill:#E8E6E6;}
	.st9{fill:#3A2827;}
	.st10{fill:#CCCCCC;}
	.st11{fill:#595857;}
	.st12{fill:#F28C5F;}
	.st13{fill:#E26939;}
	.st14{fill:#56413D;}
	.st15{fill:#44322E;}
	.st16{fill:#873421;}
	.st17{fill:#EA6CA0;}
	.st18{fill:#DB5290;}
	.st19{fill:#F48656;}
	.st20{fill:#82112F;}
	.st21{fill:#D85039;}
	.st22{fill:#574984;}
	.st23{fill:#291C51;}
	.st24{fill:#FC5135;}
	.st25{fill:#FFCC7B;}
	.st26{fill:#E8A749;}
	.st27{fill:#6D4A44;}
	.st28{fill:#D1E3E8;}
	.st29{fill:#FCFBFA;}
	.st30{fill:#4C4C4B;}
	.st31{fill:#686868;}
	.st32{fill:#FFB884;}
	.st33{fill:#EF9C62;}
	.st34{fill:#874410;}
	.st35{fill:#6D340D;}
	.st36{fill:#E89258;}
	.st37{fill:#3A2E26;}
	.st38{fill:#4C3F35;}
	.st39{opacity:0.1;}
	.st40{fill:#60120F;}
	.st41{fill:#F4F0ED;}
	.st42{fill:#E0312D;}
	.st43{fill:#F42F2F;}
	.st44{fill:#D31111;}
	.st45{fill:#DB9B19;}
	.st46{fill:#AF740B;}
	.st47{fill:#CC2121;}
	.st48{fill:#F74B4B;}
	.st49{fill:#FCF9E8;}
	.st50{opacity:0.5;fill:#827571;}
	.st51{fill:#665D5C;}
	.st52{fill:#4F4746;}
	.st53{fill:#5E3B2F;}
	.st54{fill:#492E27;}
	.st55{opacity:0.4;}
	.st56{fill:#443A36;}
	.st57{fill:#51415E;}
	.st58{fill:#066FB7;}
	.st59{fill:#066396;}
	.st60{fill:#0D8FD6;}
	.st61{fill:#FEAC74;}
	.st62{fill:#E3784C;}
	.st63{fill:#580801;}
	.st64{fill:#440502;}
	.st65{fill:#00ABB2;}
	.st66{fill:#008C8C;}
	.st67{fill:#914E34;}
	.st68{fill:#5B2E1D;}
	.st69{fill:#6A3221;}
	.st70{fill:#FAFAFC;}
	.st71{fill:#2B3B3F;}
	.st72{fill:#3F565B;}
	.st73{fill:#EF7348;}
	.st74{fill:#6F3D26;}
	.st75{fill:#BBBEBF;}
	.st76{fill:#D3D3D3;}
	.st77{fill:#939A9E;}
	.st78{fill:#F79C5E;}
	.st79{fill:#E07832;}
	.st80{fill:#604135;}
	.st81{fill:#EFEAE8;}
	.st82{fill:#4F3229;}
	.st83{fill:#1A3D3A;}
	.st84{fill:#E8E8E8;}
	.st85{fill:#0C83C4;}
	.st86{fill:#1B96EA;}
	.st87{fill:#B50F0F;}
	.st88{opacity:0.4;fill:#E89258;}
	.st89{fill:#26ACF7;}
	.st90{fill:#F45347;}
	.st91{fill:#FF3939;}
	.st92{fill:#686766;}
	.st93{fill:#5E5D5B;}
	.st94{fill:#424140;}
	.st95{fill:#E7E1CB;}
	.st96{fill:#D6CFBA;}
	.st97{fill:#CE5C37;}
	.st98{fill:#B74D30;}
	.st99{fill:#1B313D;}
	.st100{fill:#36474F;}
	.st101{fill:#29526D;}
	.st102{fill:#FCBD88;}
	.st103{fill:#FCA265;}
	.st104{fill:#496B7A;}
	.st105{fill:#B76049;}
	.st106{fill:#EDEDED;}
	.st107{fill:#7C7979;}
	.st108{fill:#EFE6E8;}
	.st109{fill:#B20D28;}
	.st110{fill:#346682;}
	.st111{fill:#AA0E28;}
	.st112{fill:#FF5050;}
	.st113{fill:#781A0E;}
	.st114{fill:#560904;}
	.st115{fill:#FF0B40;}
	.st116{fill:#BC0000;}
	.st117{fill:#FFD731;}
	.st118{fill:#EA6453;}
	.st119{fill:#602618;}
	.st120{fill:#A14F2A;}
	.st121{fill:#3A4E66;}
	.st122{fill:#EAE9EE;}
	.st123{opacity:0.3;fill:#3A4E66;}
	.st124{fill:#5E2701;}
	.st125{fill:#773000;}
	.st126{fill:#EA2F4A;}
	.st127{fill:#C41234;}
	.st128{fill:#F7F0F1;}
	.st129{fill:#F7A76F;}
	.st130{fill:#B24800;}
	.st131{fill:#8C3B03;}
	.st132{fill:#567391;}
	.st133{fill:#FF7271;}
	.st134{fill:#F75E5E;}
	.st135{fill:#700F28;}
	.st136{fill:#9E1533;}
	.st137{fill:#871231;}
	.st138{fill:#211B3A;}
	.st139{fill:#2E2951;}
	.st140{fill:#F28670;}
	.st141{fill:#F46060;}
	.st142{fill:#EBBF44;}
	.st143{fill:#E0A91E;}
	.st144{fill:#FFA992;}
	.st145{fill:#2C363F;}
	.st146{fill:#1D262D;}
	.st147{fill-rule:evenodd;clip-rule:evenodd;fill:#FFF5F5;}
	.st148{opacity:0.2;}
	.st149{fill:#7C4949;}
	.st150{fill:#F9AE7A;}
	.st151{fill:#FFF5F5;}
	.st152{fill:#C92727;}
	.st153{fill:#4C1B05;}
	.st154{fill:#592009;}
	.st155{opacity:0.4;fill:#592009;}
	.st156{fill:#3F1307;}
	.st157{fill:#664472;}
	.st158{fill:#473051;}
	.st159{fill:#352020;}
	.st160{opacity:0.3;fill:#7C4949;}
</style>
<g>
	<path class="st0" d="M155.23,121.18c-3.27,6.41-7.3,12.16-11.91,17.21c-0.05,0.05-0.09,0.1-0.13,0.15
		c-0.36,0.39-0.73,0.78-1.09,1.16c-0.57,0.59-1.14,1.17-1.73,1.74c-0.37,0.37-0.74,0.73-1.12,1.09c-0.01,0-0.01,0.01-0.02,0.02
		c-1.15,1.09-2.34,2.14-3.55,3.15c-2.1,1.74-4.27,3.37-6.52,4.87c-0.29,0.19-0.58,0.39-0.89,0.58c-0.03,0.02-0.06,0.04-0.1,0.06
		c-1.57,1.02-3.19,1.99-4.84,2.89c-1.13,0.63-2.27,1.21-3.43,1.77c-0.23,0.13-0.49,0.24-0.73,0.36c-1.33,0.64-2.69,1.23-4.06,1.79
		c-0.08,0.04-0.15,0.06-0.22,0.09c-2.32,0.93-4.69,1.75-7.09,2.47c-2.73,0.8-5.5,1.46-8.3,1.95c-0.47,0.09-0.93,0.17-1.4,0.24
		c-0.46,0.09-0.93,0.15-1.39,0.21c-0.74,0.12-1.48,0.2-2.23,0.29c-0.16,0.02-0.32,0.04-0.47,0.05c-0.07,0.01-0.14,0.02-0.21,0.03
		c-0.14,0.02-0.28,0.03-0.42,0.04c-0.16,0.02-0.33,0.04-0.5,0.06c-0.33,0.03-0.67,0.05-1,0.08c-1.04,0.08-2.08,0.14-3.12,0.18
		c-0.82,0.04-1.63,0.06-2.44,0.07c-2.62,0.02-5.24-0.09-7.87-0.34c-0.35-0.03-0.71-0.07-1.07-0.1c-0.06-0.01-0.13-0.02-0.18-0.03
		c-0.29-0.03-0.56-0.06-0.86-0.1c-1.86-0.23-3.73-0.52-5.59-0.88c-1.4-0.28-2.8-0.59-4.19-0.95c-0.79-0.2-1.59-0.42-2.38-0.65
		c-0.59-0.17-1.18-0.35-1.77-0.53c-0.01-0.01-0.03-0.01-0.05-0.02c-0.44-0.13-0.87-0.27-1.32-0.42c-0.1-0.03-0.2-0.07-0.3-0.11
		c-0.64-0.22-1.28-0.44-1.92-0.66c-0.65-0.25-1.3-0.5-1.95-0.76c-0.05-0.02-0.11-0.04-0.17-0.06c-0.34-0.13-0.68-0.28-1.01-0.41
		c-0.03,0-0.07-0.02-0.1-0.04c-0.05-0.02-0.1-0.04-0.14-0.07c-0.35-0.14-0.7-0.29-1.05-0.44c-0.2-0.09-0.41-0.18-0.61-0.28
		c-0.47-0.21-0.95-0.43-1.42-0.65c-0.2-0.1-0.4-0.19-0.6-0.29c-0.08-0.03-0.15-0.07-0.23-0.11c-0.29-0.14-0.58-0.28-0.86-0.42
		c-0.12-0.06-0.24-0.12-0.37-0.18c-0.51-0.26-1.01-0.52-1.5-0.8l-0.07-0.04c-0.23-0.11-0.45-0.23-0.66-0.37
		c-0.28-0.14-0.56-0.29-0.83-0.45c-0.03-0.01-0.06-0.04-0.09-0.05c-0.12-0.07-0.22-0.13-0.33-0.19c-0.28-0.16-0.54-0.31-0.81-0.46
		c-0.02-0.01-0.04-0.03-0.05-0.04c-0.64-0.38-1.27-0.76-1.89-1.16c-0.41-0.25-0.81-0.51-1.21-0.77c-0.48-0.32-0.97-0.64-1.44-0.97
		c-0.07-0.05-0.15-0.1-0.22-0.15c-0.67-0.45-1.33-0.93-1.97-1.42c-0.51-0.37-1.02-0.76-1.52-1.16c-1.33-1.02-2.61-2.09-3.85-3.19
		c-0.01-0.01-0.03-0.02-0.04-0.04c-0.95-0.84-1.86-1.7-2.76-2.58c-1.29-1.28-2.55-2.59-3.75-3.95c-0.17-0.19-0.34-0.39-0.51-0.58
		c-0.8-0.93-1.59-1.87-2.34-2.83c-0.02-0.03-0.03-0.04-0.04-0.06c-0.99-1.25-1.94-2.53-2.83-3.84c-0.11-0.14-0.22-0.31-0.31-0.47
		c-0.63-0.91-1.23-1.84-1.81-2.78c-0.38-0.62-0.76-1.24-1.13-1.86c-1.27-2.2-2.43-4.44-3.49-6.73c-0.48-1.07-0.95-2.13-1.39-3.22
		c-0.04-0.08-0.07-0.17-0.1-0.26c-0.09-0.22-0.18-0.44-0.27-0.67c-0.24-0.61-0.47-1.23-0.69-1.84c-7.08-19.59-6.35-41.94,3.86-61.96
		c19.56-38.37,66.53-53.62,104.9-34.05C159.55,35.84,174.8,82.81,155.23,121.18z"/>
	<g>
		<path class="st95" d="M143.43,138.51c-0.08,0-0.16,0.01-0.24,0.04c-0.36,0.39-0.73,0.78-1.09,1.16c-0.57,0.59-1.14,1.17-1.73,1.74
			c-0.37,0.37-0.74,0.73-1.12,1.09c-0.01,0-0.01,0.01-0.02,0.02c-1.15,1.09-2.34,2.14-3.55,3.15c-2.1,1.74-4.27,3.37-6.52,4.87
			c-0.29,0.19-0.58,0.39-0.89,0.58c-0.03,0.02-0.06,0.04-0.1,0.06c-1.57,1.02-3.19,1.99-4.84,2.89c-1.13,0.63-2.27,1.21-3.43,1.77
			c-0.23,0.13-0.49,0.24-0.73,0.36c-1.33,0.64-2.69,1.23-4.06,1.79c-0.08,0.04-0.15,0.06-0.22,0.09c-2.32,0.93-4.69,1.75-7.09,2.47
			c-2.73,0.8-5.5,1.46-8.3,1.95c-0.47,0.09-0.93,0.17-1.4,0.24c-0.46,0.09-0.93,0.15-1.39,0.21c-0.74,0.12-1.48,0.2-2.23,0.29
			c-0.16,0.02-0.32,0.04-0.47,0.05c-0.07,0.01-0.14,0.02-0.21,0.03c-0.14,0.02-0.28,0.03-0.42,0.04c-0.16,0.02-0.33,0.04-0.5,0.06
			c-0.33,0.03-0.67,0.05-1,0.08c-1.04,0.08-2.08,0.14-3.12,0.18c-0.82,0.04-1.63,0.06-2.44,0.07c-2.62,0.02-5.24-0.09-7.87-0.34
			c-0.35-0.03-0.71-0.07-1.07-0.1c-0.06-0.01-0.13-0.02-0.18-0.03c-0.29-0.03-0.56-0.06-0.86-0.1c-1.86-0.23-3.73-0.52-5.59-0.88
			c-1.4-0.28-2.8-0.59-4.19-0.95c-0.79-0.2-1.59-0.42-2.38-0.65c-0.59-0.17-1.18-0.35-1.77-0.53c-0.01-0.01-0.03-0.01-0.05-0.02
			c-0.44-0.13-0.87-0.27-1.32-0.42c-0.1-0.03-0.2-0.07-0.3-0.11c-0.64-0.22-1.28-0.44-1.92-0.66c-0.65-0.25-1.3-0.5-1.95-0.76
			c-0.05-0.02-0.11-0.04-0.17-0.06c-0.34-0.13-0.68-0.28-1.01-0.41c-0.03,0-0.07-0.02-0.1-0.04c-0.05-0.02-0.1-0.04-0.14-0.07
			c-0.35-0.14-0.7-0.29-1.05-0.44c-0.2-0.09-0.41-0.18-0.61-0.28c-0.47-0.21-0.95-0.43-1.42-0.65c-0.2-0.1-0.4-0.19-0.6-0.29
			c-0.08-0.03-0.15-0.07-0.23-0.11c-0.29-0.14-0.58-0.28-0.86-0.42c-0.12-0.06-0.24-0.12-0.37-0.18c-0.51-0.26-1.01-0.52-1.5-0.8
			l-0.07-0.04c-0.23-0.11-0.45-0.23-0.66-0.37c-0.28-0.14-0.56-0.29-0.83-0.45c-0.03-0.01-0.06-0.04-0.09-0.05
			c-0.12-0.07-0.22-0.13-0.33-0.19c-0.28-0.16-0.54-0.31-0.81-0.46c-0.02-0.01-0.04-0.03-0.05-0.04c-0.64-0.38-1.27-0.76-1.89-1.16
			c-0.41-0.25-0.81-0.51-1.21-0.77c-0.48-0.32-0.97-0.64-1.44-0.97c-0.07-0.05-0.15-0.1-0.22-0.15c-0.67-0.45-1.33-0.93-1.97-1.42
			c-0.51-0.37-1.02-0.76-1.52-1.16c-1.33-1.02-2.61-2.09-3.85-3.19c-0.01-0.01-0.03-0.02-0.04-0.04c-0.95-0.84-1.86-1.7-2.76-2.58
			c-1.29-1.28-2.55-2.59-3.75-3.95c-0.17-0.19-0.34-0.39-0.51-0.58c-0.04-0.74-0.04-1.46-0.01-2.18c0.05-1.11,14.85-5.26,22.36-6.6
			c1.81-0.32,3.77-0.63,5.87-0.93c2.09-0.29,4.31-0.58,6.65-0.83c4.13-0.45,8.58-0.82,13.23-1.08c1.93-0.11,3.88-0.19,5.86-0.25
			c6.89-0.22,14.04-0.16,20.99,0.32c2.18,0.15,4.34,0.34,6.47,0.58c1.36,0.14,2.71,0.31,4.05,0.5c13.1,1.84,24.57,5.51,31.02,12.01
			C143.36,138.43,143.39,138.47,143.43,138.51z"/>
		<path class="st96" d="M108.25,125.89c1.36,0.14,2.71,0.31,4.05,0.5c-1.18,4.83-3.4,9.75-4.93,13.17
			c-3.2,7.19-6.55,14.24-11.13,20.57c-0.79,1.1-1.62,2.17-2.45,3.21c-0.14,0.02-0.28,0.03-0.42,0.04c-0.16,0.02-0.33,0.04-0.5,0.06
			c-0.33,0.03-0.67,0.05-1,0.08c-1.04,0.08-2.08,0.14-3.12,0.18c-0.82,0.04-1.63,0.06-2.44,0.07c-2.62,0.02-5.24-0.09-7.87-0.34
			c-0.35-0.03-0.71-0.07-1.07-0.1c-0.06-0.01-0.13-0.02-0.18-0.03c-0.29-0.03-0.56-0.06-0.86-0.1c-1.86-0.23-3.73-0.52-5.59-0.88
			c-1.4-0.28-2.8-0.59-4.19-0.95c-0.79-0.2-1.59-0.42-2.38-0.65c-3.31-5.68-6.23-11.64-8.99-17.45c-2.28-4.79-4.32-9.99-6-15.18
			c1.81-0.32,3.77-0.63,5.87-0.93c2.09-0.29,4.31-0.58,6.65-0.83c4.17,9.56,9.91,19.17,15.89,27.09
			c7.73-4.93,12.94-12.49,17.78-20.07c1.57-2.46,4.13-5.21,6.41-8.02C103.96,125.45,106.12,125.65,108.25,125.89z"/>
		<g>
			<g>
				<path class="st97" d="M108.25,125.89c0.85,8.01-9.43,28.58-19.49,37.8c-0.82,0.04-1.63,0.06-2.44,0.07
					c-2.62,0.02-5.24-0.09-7.87-0.34c-0.35-0.03-0.71-0.07-1.07-0.1c-0.06-0.01-0.13-0.02-0.18-0.03c-0.29-0.03-0.56-0.06-0.86-0.1
					c-1.86-0.23-3.73-0.52-5.59-0.88c-7.95-9.64-14.61-28.25-15.7-35.16c-0.02-0.2,13.13-1.33,13.1-3.41
					c-0.03-1.91-0.36-4.11-0.85-6.31c-1.44-6.58-4.22-13.3-4.22-13.3l3.32-0.52l0.49-0.07l0.01,0l1.26-0.2l1.78-0.28l15.22-2.4
					l0.01,0l0.07-0.01l3.84-0.6l1.65-0.26c0,0-0.01,0.07-0.01,0.19c-0.01,0.15-0.03,0.41-0.05,0.74l0,0.01
					c-0.02,0.23-0.03,0.49-0.05,0.79c-0.14,2.77-0.3,8.4,0.33,13.45c0.16,1.31,0.37,2.59,0.65,3.76c0.62,2.6,1.57,4.69,3,5.62
					c1.48,0.96,13.58,1.2,13.58,1.2C108.22,125.64,108.24,125.76,108.25,125.89z"/>
				<path class="st98" d="M91.61,118.7c-2.49,2.08-5.33,3.82-8.35,5.29c-1.33,0.64-2.64,1.1-3.95,1.4
					c-1.33,0.11-2.73,0.08-4.19-0.12c-2.39-0.34-4.73-0.84-6.98-1.54c-0.11-7.62-5.06-19.61-5.06-19.61l27.66-4.36
					C90.74,99.76,89.84,111.28,91.61,118.7z"/>
			</g>
			<g>
				<path class="st97" d="M98.65,96.6c-0.96-12.36-2.9-24.8-3.82-36.7c0,0-10.87-7.03-12.59-7.56c-1.08-0.34-2.19-0.57-3.31-0.69
					c-1.13,0.04-2.25,0.2-3.35,0.46c-1.75,0.42-13.09,6.67-13.09,6.67c-1.75,11.8-4.93,24.43-6.75,36.69
					c-0.74,5,0.18,10.5,3.32,14.73c3.5,4.72,8.4,7.79,13.78,9.84c1.25,0.48,2.47,0.77,3.66,0.9c1.2-0.05,2.44-0.26,3.72-0.64
					c5.51-1.67,10.61-4.39,14.43-8.86C98.08,107.43,99.04,101.64,98.65,96.6z"/>
				<g>
					<path class="st98" d="M68.49,73.22c-3.44-1.7-6.49,5.71-7.81,9.49c0,0,2.53,5.93,11.53,3.48
						C72.38,81.29,71.21,74.56,68.49,73.22z"/>
					<path class="st98" d="M68.62,80.06c-3.44-1.7-6.22,0.36-7.94,2.65c0,0,0.9,9.07,11.53,3.48C70.7,83.24,71.34,81.4,68.62,80.06z
						"/>
					<path class="st2" d="M72.21,86.18c-1.02,0.28-1.96,0.45-2.82,0.53c-0.35,0.03-0.68,0.05-1,0.06c-1.6,0.03-2.89-0.25-3.93-0.67
						c-0.41-0.17-0.78-0.36-1.11-0.56c-1.97-1.2-2.67-2.83-2.67-2.83c1.72-2.29,4.55-5.66,7.99-3.96
						C71.38,80.09,70.7,83.24,72.21,86.18z"/>
					<g>
						<path class="st15" d="M69.95,84.67c-0.03,0.76-0.23,1.46-0.56,2.05c-0.35,0.03-0.68,0.05-1,0.06
							c-1.6,0.03-2.89-0.25-3.93-0.67c-0.41-0.17-0.78-0.36-1.11-0.56c-0.07-0.35-0.11-0.72-0.09-1.11
							c0.02-0.56,0.14-1.09,0.33-1.57c0.22-0.56,0.56-1.05,0.97-1.43c0.6-0.56,1.36-0.89,2.19-0.86
							C68.59,80.64,70.02,82.47,69.95,84.67z"/>
						<path class="st14" d="M68.79,85.37c-0.02,0.53-0.16,1.01-0.4,1.41c-1.6,0.03-2.89-0.25-3.93-0.67
							c-0.08-0.28-0.11-0.58-0.1-0.89c0.02-0.65,0.24-1.24,0.58-1.68c0.17-0.22,0.37-0.41,0.6-0.56c0.34-0.22,0.72-0.34,1.13-0.33
							C67.89,82.69,68.84,83.91,68.79,85.37z"/>
						<path class="st2" d="M63.02,82.23c-0.09-0.44,1.12-1.43,1.12-1.43l2.01,3.15C66.16,83.95,63.2,83.1,63.02,82.23z"/>
					</g>
				</g>
				<g>
					<path class="st98" d="M86.72,74.34c3.55-1.46,6.08,6.14,7.13,10.01c0,0-2.94,5.74-11.75,2.67
						C82.28,82.13,83.92,75.5,86.72,74.34z"/>
					<path class="st98" d="M86.12,81.16c3.55-1.46,6.18,0.79,7.74,3.2c0,0-1.53,8.98-11.75,2.67
						C83.82,84.19,83.31,82.31,86.12,81.16z"/>
					<path class="st2" d="M82.11,87.02c1,0.35,1.92,0.59,2.78,0.73c0.34,0.06,0.67,0.1,0.99,0.13c1.59,0.14,2.9-0.04,3.97-0.4
						c0.42-0.14,0.8-0.3,1.14-0.48c2.05-1.06,2.86-2.64,2.86-2.64c-1.56-2.4-4.15-5.97-7.69-4.51C83.36,81,83.82,84.19,82.11,87.02z
						"/>
					<g>
						<path class="st15" d="M84.47,85.67c-0.03,0.76,0.13,1.47,0.41,2.08c0.34,0.06,0.67,0.1,0.99,0.13c1.59,0.14,2.9-0.04,3.97-0.4
							c0.42-0.14,0.8-0.3,1.14-0.48c0.1-0.35,0.16-0.71,0.17-1.1c0.02-0.56-0.06-1.1-0.22-1.59c-0.18-0.58-0.48-1.09-0.86-1.49
							c-0.56-0.6-1.3-0.98-2.12-1.01C86.11,81.74,84.55,83.47,84.47,85.67z"/>
						<path class="st14" d="M85.57,86.45c-0.02,0.53,0.09,1.01,0.3,1.43c1.59,0.14,2.9-0.04,3.97-0.4c0.1-0.27,0.15-0.57,0.16-0.88
							c0.02-0.65-0.15-1.25-0.46-1.72c-0.15-0.24-0.34-0.44-0.56-0.6c-0.32-0.24-0.7-0.39-1.11-0.4
							C86.66,83.84,85.63,84.99,85.57,86.45z"/>
						<path class="st2" d="M91.55,83.71c0.12-0.44-1.02-1.51-1.02-1.51l-2.22,3C88.3,85.21,91.31,84.57,91.55,83.71z"/>
					</g>
				</g>
				<g>
					<path class="st98" d="M72.14,94.31c-1.11,0.17-1.99,0.85-1.9,2.07c0.16,2.11,3.7,2.07,5.37,2.3c3.14,0.42,7.18-0.78,9.22-3.23
						C77.45,98.18,72.14,94.31,72.14,94.31z"/>
					<path class="st98" d="M69.94,75.4c0,0,4.13,10.73,1.9,21.36c0.96,0.53,2.68,0.13,3.66,0.6C76.97,91.81,72.88,78.38,69.94,75.4z
						"/>
				</g>
				<g>
					<path class="st16" d="M91.26,99.81c-1.9,3.35-9.29,10.59-15.07,10.39c-4.46-0.16-9.98-7.38-11.77-9.89
						c1.74,0.22,4.88,0.35,6.43,0.41C72.59,100.78,86.68,101.22,91.26,99.81z"/>
					<g>
						<path class="st2" d="M86.36,104.2c-0.46,0.89-1.12,1.83-1.86,2.54c-0.19,0.19-0.39,0.38-0.59,0.58
							c-0.49,0.48-0.98,0.98-1.5,1.44c-2.06,1.18-4.22,1.94-6.23,1.87c-1.88-0.07-3.92-1.3-5.79-2.91l-0.12-0.32
							c-0.21-0.23-0.37-0.48-0.51-0.76c-0.35-0.72-0.51-1.56-0.78-2.28C70.03,104.42,85.61,104.17,86.36,104.2z"/>
						<g>
							<path class="st2" d="M89.18,99.82c-0.74,1.78-1.64,3.94-2.91,4.67c-0.29,0.16-1.82,0.35-3.87,0.49
								c-4.6,0.31-11.79,0.37-13.18-0.6c-1.07-0.76-1.98-2.38-2.66-3.95c-0.05-0.12-0.1-0.24-0.15-0.36
								c0.17,0.01,0.36,0.03,0.55,0.04c0.67,0.05,1.42,0.08,2.23,0.12C75.19,100.5,84.37,100.54,89.18,99.82z"/>
							<path class="st8" d="M86.27,104.49c-1.02,0.35-15.66,0.86-17.05-0.11c-1.07-0.76-1.98-2.38-2.66-3.95l0.4-0.32
								c0.67,0.05,1.42,0.08,2.23,0.12c0.17,0.98,0.46,2.01,0.78,2.88c0.18,0.46,0.14,0.46,0.52,0.65
								C71.06,104.04,84.57,104.41,86.27,104.49z"/>
						</g>
					</g>
					<path class="st98" d="M89.18,99.82c-0.16,0.02-0.32,0.04-0.47,0.07c-0.16,0.02-0.32,0.04-0.49,0.06
						c-0.16,0.02-0.34,0.05-0.52,0.06c-0.09,0.02-0.17,0.02-0.26,0.03l-0.81,0.07c-0.14,0.01-0.3,0.02-0.45,0.03l-0.04,0
						c-0.15,0.01-0.31,0.02-0.46,0.03c-0.13,0.01-0.26,0.02-0.39,0.03c-0.25,0.02-0.51,0.03-0.77,0.04c-0.05,0-0.09,0.01-0.14,0.01
						c-0.1,0.01-0.21,0.01-0.32,0.01c-0.18,0.01-0.36,0.02-0.54,0.03c-0.08,0-0.17,0.01-0.25,0.01c-0.12,0-0.25,0.01-0.38,0.01
						c-0.26,0.02-0.51,0.03-0.77,0.03c-0.26,0.01-0.51,0.02-0.78,0.02c-0.04,0-0.09,0-0.14,0.01c-0.22,0.01-0.43,0.01-0.65,0.02
						c-0.17,0-0.33,0-0.51,0c-0.36,0-0.72,0.01-1.09,0.01c-0.22,0-0.44,0-0.66,0c-0.42,0-0.83,0-1.25,0c-0.09,0-0.17,0.01-0.25,0
						c-0.09,0-0.17,0-0.25,0c-0.27,0-0.54,0-0.81-0.01c-0.16,0-0.32,0-0.47-0.01c-0.38,0-0.77-0.01-1.15-0.02
						c-0.38,0-0.75-0.01-1.12-0.02c-0.21,0-0.41-0.01-0.63-0.02c-0.04,0-0.09,0-0.14,0c-0.33-0.01-0.65-0.02-0.97-0.03
						c-0.36-0.01-0.71-0.02-1.06-0.04c-0.09,0-0.19,0-0.28-0.01c-0.25-0.01-0.49-0.01-0.72-0.03l-0.01,0
						c-0.2-0.01-0.4-0.02-0.6-0.03c-0.1-0.01-0.2-0.01-0.29-0.02c-0.12,0-0.23-0.01-0.34-0.02c-0.08-0.01-0.16-0.01-0.24-0.01
						c-0.26-0.01-0.52-0.03-0.76-0.05c-0.19-0.01-0.37-0.02-0.55-0.03c-1.63-0.13-2.71-0.26-2.94-0.38c0,0,1.16,1.78,2.93,3.91
						c1.13,1.36,2.5,2.86,3.98,4.12c1.87,1.61,3.91,2.84,5.79,2.91c2.01,0.07,4.16-0.69,6.23-1.87c3.36-1.92,6.47-4.94,8.23-7.26
						c0.78-1.02,1.3-1.92,1.45-2.51C91.62,99.33,90.59,99.61,89.18,99.82z M90.91,100.38c-0.07,0.1-0.14,0.21-0.22,0.32l0,0.01
						l-0.01,0.01c-0.67,0.96-1.63,2.09-2.78,3.22c-0.12,0.12-0.24,0.23-0.36,0.35c-0.38,0.37-0.78,0.73-1.2,1.09
						c-0.24,0.21-0.48,0.41-0.73,0.62c-0.01,0.01-0.03,0.02-0.05,0.03c-0.17,0.14-0.34,0.27-0.51,0.4c-0.17,0.13-0.35,0.26-0.52,0.4
						c-0.17,0.13-0.35,0.26-0.52,0.38c0,0-0.01,0-0.01,0.01l-0.01,0c-0.02,0.02-0.04,0.03-0.06,0.05c-0.25,0.18-0.51,0.34-0.77,0.51
						c-0.14,0.09-0.29,0.19-0.43,0.27c-0.14,0.09-0.28,0.17-0.43,0.26c-0.29,0.17-0.58,0.33-0.87,0.48
						c-0.14,0.07-0.28,0.14-0.44,0.21c-0.09,0.04-0.19,0.09-0.28,0.14c-0.2,0.1-0.41,0.18-0.61,0.27c-0.14,0.06-0.27,0.11-0.41,0.16
						c-0.29,0.11-0.58,0.2-0.87,0.28c-0.9,0.26-1.79,0.39-2.64,0.36c-0.25-0.01-0.52-0.04-0.78-0.1c-0.07-0.02-0.14-0.03-0.21-0.05
						c-0.06-0.02-0.12-0.03-0.18-0.05c-0.07-0.01-0.15-0.04-0.22-0.07c-0.21-0.07-0.42-0.14-0.62-0.23
						c-0.1-0.03-0.19-0.08-0.28-0.12c-0.02-0.01-0.05-0.02-0.08-0.04c-0.08-0.04-0.17-0.09-0.27-0.14
						c-0.13-0.06-0.26-0.14-0.39-0.21c-0.29-0.16-0.58-0.35-0.88-0.56c-0.14-0.09-0.29-0.19-0.43-0.29
						c-0.3-0.22-0.59-0.45-0.88-0.69c-0.14-0.11-0.28-0.23-0.42-0.36c-0.28-0.25-0.56-0.5-0.84-0.76l-0.01-0.01
						c-0.41-0.4-0.82-0.8-1.21-1.22c-0.13-0.13-0.25-0.27-0.37-0.4c-0.22-0.23-0.43-0.47-0.63-0.7c-0.15-0.17-0.31-0.35-0.45-0.52
						c-0.05-0.05-0.09-0.12-0.14-0.17c-0.07-0.08-0.13-0.15-0.2-0.23c-0.22-0.27-0.43-0.53-0.63-0.78c-0.3-0.38-0.58-0.74-0.82-1.06
						c-0.17-0.22-0.32-0.43-0.46-0.62c-0.13-0.19-0.26-0.37-0.37-0.52c0.25,0.03,0.53,0.06,0.82,0.09c0.15,0.01,0.31,0.02,0.47,0.04
						c0.21,0.02,0.43,0.03,0.66,0.06c0.07,0,0.15,0,0.23,0.01c0.07,0.01,0.14,0.01,0.21,0.02c0.44,0.02,0.9,0.05,1.34,0.08
						c0.3,0.02,0.59,0.03,0.87,0.04c0.08,0.01,0.17,0.01,0.25,0.01l0.01,0c0.33,0.01,0.64,0.03,0.92,0.04
						c0.24,0.01,0.46,0.02,0.65,0.03c0.07,0,0.17,0.01,0.3,0.01c0.01,0,0.03,0,0.04,0c0.11,0,0.24,0.01,0.39,0.01
						c0.59,0.02,1.43,0.04,2.45,0.06c0.26,0,0.53,0.01,0.81,0.01c0.31,0.01,0.62,0.01,0.95,0.01c0.1,0.01,0.21,0,0.31,0
						c0.56,0.01,1.15,0.01,1.75,0.01c0.38-0.01,0.75,0,1.15,0c0.65,0,1.31-0.01,1.98-0.03c0.22-0.01,0.43-0.01,0.64-0.02
						c0.22-0.01,0.44-0.01,0.66-0.02c0.42-0.01,0.84-0.03,1.25-0.04c0.21,0,0.42-0.02,0.63-0.03c0.17-0.01,0.35-0.01,0.52-0.03
						c0.17-0.01,0.35-0.02,0.51-0.03l0.2-0.02c0.2-0.01,0.4-0.02,0.6-0.04c0.2-0.01,0.4-0.03,0.59-0.05
						c0.41-0.02,0.81-0.06,1.19-0.11c0.18-0.02,0.35-0.03,0.52-0.06c0.24-0.02,0.47-0.06,0.7-0.09c0.16-0.02,0.31-0.05,0.47-0.07
						c0.17-0.03,0.34-0.06,0.51-0.09c0.16-0.03,0.32-0.06,0.47-0.09c0.1-0.02,0.2-0.05,0.3-0.07l0.01,0
						c0.19-0.04,0.36-0.09,0.52-0.14l0.01,0c-0.06,0.1-0.12,0.2-0.19,0.31C91.03,100.2,90.97,100.29,90.91,100.38z"/>
				</g>
				<path class="st98" d="M81.59,112.44c-3.04-2.29-8.66,0.62-8.66,0.62c1.26-0.37,7.17,0.11,8.17,0.55
					C81.25,113.3,81.93,112.7,81.59,112.44z"/>
				<path class="st15" d="M73.04,65.36c-0.46-0.04-1.32-0.05-1.32-0.05l-1.15,1.59c0,0-0.04-1.46-0.28-1.44
					c-6.56,0.47-8.33,5.03-8.33,5.03c1.82-0.79,3.7-1.31,5.52-1.45c2.5-0.19,3.94,0.29,5.11,1.48
					C72.88,68.82,73.08,67.09,73.04,65.36z"/>
				<path class="st15" d="M82.99,68.47c0.46,0,1.32,0.04,1.32,0.04l1.04,1.67c0,0,0.14-1.45,0.38-1.42c6.51,0.93,7.96,5.6,7.96,5.6
					c-1.76-0.91-3.6-1.57-5.41-1.83c-2.48-0.36-3.95,0.01-5.2,1.12C82.91,71.94,82.83,70.2,82.99,68.47z"/>
				<g>
					<path class="st97" d="M57.74,81.65c-1.25-2.02-5.52-2.34-7.14-0.63c-1.81,1.9,1.65,11.69,3.85,11.66
						C59.54,92.61,57.74,81.65,57.74,81.65z"/>
					<path class="st98" d="M57.3,86.86c0.07-0.74,0.13-1.57,0.09-2.31c-0.02-0.4-0.12-0.83-0.19-1.21c-0.04-0.21-0.1-0.47-0.17-0.61
						c-0.68-1.34-2.26-1.36-3.36-1.46c-0.46-0.04-1.25-0.1-1.65,0.14c-0.32,0.19-0.47,0.68-0.65,0.98c0.88-0.92,2.86-0.46,3.83,0.16
						c1.01,0.65,1.38,2.49,1.02,3.62c-0.94-0.09-1.77,0.97-1.65,1.85c0.12,0.88,1.85,1.36,2.12,0.5C55.19,88.22,56.42,87,57.3,86.86
						z"/>
				</g>
				<g>
					<path class="st97" d="M97.56,82.62c1.39-1.93,5.67-1.95,7.17-0.13c1.67,2.02-2.46,11.55-4.65,11.36
						C95,93.42,97.56,82.62,97.56,82.62z"/>
					<path class="st98" d="M97.63,87.84c-0.02-0.74-0.03-1.57,0.07-2.31c0.05-0.4,0.18-0.82,0.27-1.19c0.05-0.21,0.14-0.46,0.22-0.6
						c0.78-1.29,2.35-1.2,3.45-1.22c0.46-0.01,1.25-0.01,1.63,0.25c0.3,0.21,0.42,0.71,0.58,1.02c-0.82-0.98-2.82-0.66-3.83-0.11
						c-1.05,0.58-1.55,2.39-1.27,3.54c0.94-0.03,1.7,1.09,1.52,1.96c-0.18,0.87-1.95,1.22-2.15,0.35
						C99.64,89.35,98.5,88.05,97.63,87.84z"/>
				</g>
				<path class="st15" d="M96.86,55.32c-0.13-2.37-7.31-14.76-10.18-7.57c-0.78-1.19-1.88-3.31-2.91-4.3
					c-1.4-1.34-3.69-0.76-5.64-0.92c-3.99-0.32-8.45,1.78-6.71,2.83c-4.06,0.02-13.32,1.12-8.33,5.35c0.67,0.57-0.36,1.63-0.66,2.4
					c-0.74,1.91-1.37,3.88-1.62,5.83c-0.42,3.18-0.86,13.82-0.05,10.94c0.71-2.52,2.36-5.71,2.32-8.33
					c4.38,0.48,8.83-2.08,10.59-5.99c-0.03,0.7-0.7,3.26-0.29,3.78c0.45,0.56,2.83,0.06,3.58,0.11c2.52,0.17,4.73,0.86,7.08,1.5
					c0.06-0.56,0.33-1.04,0.49-1.59c1.65,2.59,2.83,2.62,5.68,3.65c1.79,0.65,2.71,0.97,4.33,1.62c1.06,3.14,1.6,8.72,1.97,11.69
					C96.95,73.11,97.14,60.25,96.86,55.32z"/>
			</g>
		</g>
		<g>
			<path class="st96" d="M143.19,138.54c-0.36,0.39-0.73,0.78-1.09,1.16c-0.57,0.59-1.14,1.17-1.73,1.74
				c-0.37,0.37-0.74,0.73-1.12,1.09C140.9,140.25,142.31,138.77,143.19,138.54z"/>
		</g>
	</g>
</g>
</svg>
