<?xml version="1.0" encoding="utf-8"?>
<!-- Generator: Adobe Illustrator 27.2.0, SVG Export Plug-In . SVG Version: 6.00 Build 0)  -->
<svg version="1.1" id="Layer_1" xmlns="http://www.w3.org/2000/svg" xmlns:xlink="http://www.w3.org/1999/xlink" x="0px" y="0px"
	 viewBox="0 0 171.51 171.51" style="enable-background:new 0 0 171.51 171.51;" xml:space="preserve">
<style type="text/css">
	.st0{fill:#F7F2DA;}
	.st1{fill:#FBA479;}
	.st2{fill:#FFFFFF;}
	.st3{fill:#E1DFEA;}
	.st4{fill:#261411;}
	.st5{fill:#60312B;}
	.st6{fill:#EF7950;}
	.st7{fill:#60281F;}
	.st8{fill:#E8E6E6;}
	.st9{fill:#3A2827;}
	.st10{fill:#CCCCCC;}
	.st11{fill:#595857;}
	.st12{fill:#F28C5F;}
	.st13{fill:#E26939;}
	.st14{fill:#56413D;}
	.st15{fill:#44322E;}
	.st16{fill:#873421;}
	.st17{fill:#EA6CA0;}
	.st18{fill:#DB5290;}
	.st19{fill:#F48656;}
	.st20{fill:#82112F;}
	.st21{fill:#D85039;}
	.st22{fill:#574984;}
	.st23{fill:#291C51;}
	.st24{fill:#FC5135;}
	.st25{fill:#FFCC7B;}
	.st26{fill:#E8A749;}
	.st27{fill:#6D4A44;}
	.st28{fill:#D1E3E8;}
	.st29{fill:#FCFBFA;}
	.st30{fill:#4C4C4B;}
	.st31{fill:#686868;}
	.st32{fill:#FFB884;}
	.st33{fill:#EF9C62;}
	.st34{fill:#874410;}
	.st35{fill:#6D340D;}
	.st36{fill:#E89258;}
	.st37{fill:#3A2E26;}
	.st38{fill:#4C3F35;}
	.st39{opacity:0.1;}
	.st40{fill:#60120F;}
	.st41{fill:#F4F0ED;}
	.st42{fill:#E0312D;}
	.st43{fill:#F42F2F;}
	.st44{fill:#D31111;}
	.st45{fill:#DB9B19;}
	.st46{fill:#AF740B;}
	.st47{fill:#CC2121;}
	.st48{fill:#F74B4B;}
	.st49{fill:#FCF9E8;}
	.st50{opacity:0.5;fill:#827571;}
	.st51{fill:#665D5C;}
	.st52{fill:#4F4746;}
	.st53{fill:#5E3B2F;}
	.st54{fill:#492E27;}
	.st55{opacity:0.4;}
	.st56{fill:#443A36;}
	.st57{fill:#51415E;}
	.st58{fill:#066FB7;}
	.st59{fill:#066396;}
	.st60{fill:#0D8FD6;}
	.st61{fill:#FEAC74;}
	.st62{fill:#E3784C;}
	.st63{fill:#580801;}
	.st64{fill:#440502;}
	.st65{fill:#00ABB2;}
	.st66{fill:#008C8C;}
	.st67{fill:#914E34;}
	.st68{fill:#5B2E1D;}
	.st69{fill:#6A3221;}
	.st70{fill:#FAFAFC;}
	.st71{fill:#2B3B3F;}
	.st72{fill:#3F565B;}
	.st73{fill:#EF7348;}
	.st74{fill:#6F3D26;}
	.st75{fill:#BBBEBF;}
	.st76{fill:#D3D3D3;}
	.st77{fill:#939A9E;}
	.st78{fill:#F79C5E;}
	.st79{fill:#E07832;}
	.st80{fill:#604135;}
	.st81{fill:#EFEAE8;}
	.st82{fill:#4F3229;}
	.st83{fill:#1A3D3A;}
	.st84{fill:#E8E8E8;}
	.st85{fill:#0C83C4;}
	.st86{fill:#1B96EA;}
	.st87{fill:#B50F0F;}
	.st88{opacity:0.4;fill:#E89258;}
	.st89{fill:#26ACF7;}
	.st90{fill:#F45347;}
	.st91{fill:#FF3939;}
	.st92{fill:#686766;}
	.st93{fill:#5E5D5B;}
	.st94{fill:#424140;}
	.st95{fill:#E7E1CB;}
	.st96{fill:#D6CFBA;}
	.st97{fill:#CE5C37;}
	.st98{fill:#B74D30;}
	.st99{fill:#1B313D;}
	.st100{fill:#36474F;}
	.st101{fill:#29526D;}
	.st102{fill:#FCBD88;}
	.st103{fill:#FCA265;}
	.st104{fill:#496B7A;}
	.st105{fill:#B76049;}
	.st106{fill:#EDEDED;}
	.st107{fill:#7C7979;}
	.st108{fill:#EFE6E8;}
	.st109{fill:#B20D28;}
	.st110{fill:#346682;}
	.st111{fill:#AA0E28;}
	.st112{fill:#FF5050;}
	.st113{fill:#781A0E;}
	.st114{fill:#560904;}
	.st115{fill:#FF0B40;}
	.st116{fill:#BC0000;}
	.st117{fill:#FFD731;}
	.st118{fill:#EA6453;}
	.st119{fill:#602618;}
	.st120{fill:#A14F2A;}
	.st121{fill:#3A4E66;}
	.st122{fill:#EAE9EE;}
	.st123{opacity:0.3;fill:#3A4E66;}
	.st124{fill:#5E2701;}
	.st125{fill:#773000;}
	.st126{fill:#EA2F4A;}
	.st127{fill:#C41234;}
	.st128{fill:#F7F0F1;}
	.st129{fill:#F7A76F;}
	.st130{fill:#B24800;}
	.st131{fill:#8C3B03;}
	.st132{fill:#567391;}
	.st133{fill:#FF7271;}
	.st134{fill:#F75E5E;}
	.st135{fill:#700F28;}
	.st136{fill:#9E1533;}
	.st137{fill:#871231;}
	.st138{fill:#211B3A;}
	.st139{fill:#2E2951;}
	.st140{fill:#F28670;}
	.st141{fill:#F46060;}
	.st142{fill:#EBBF44;}
	.st143{fill:#E0A91E;}
	.st144{fill:#FFA992;}
	.st145{fill:#2C363F;}
	.st146{fill:#1D262D;}
	.st147{fill-rule:evenodd;clip-rule:evenodd;fill:#FFF5F5;}
	.st148{opacity:0.2;}
	.st149{fill:#7C4949;}
	.st150{fill:#F9AE7A;}
	.st151{fill:#FFF5F5;}
	.st152{fill:#C92727;}
	.st153{fill:#4C1B05;}
	.st154{fill:#592009;}
	.st155{opacity:0.4;fill:#592009;}
	.st156{fill:#3F1307;}
	.st157{fill:#664472;}
	.st158{fill:#473051;}
	.st159{fill:#352020;}
	.st160{opacity:0.3;fill:#7C4949;}
</style>
<g>
	<path class="st0" d="M151.68,127.41c-4.17,6.61-9.18,12.36-14.78,17.24c-0.35,0.3-0.71,0.61-1.06,0.9
		c-0.27,0.22-0.54,0.45-0.82,0.67c-0.27,0.22-0.53,0.43-0.8,0.64c-1.39,1.11-2.82,2.17-4.27,3.16c-0.23,0.16-0.47,0.32-0.71,0.47
		c-0.97,0.66-1.95,1.29-2.95,1.89c-1.08,0.66-2.17,1.29-3.29,1.89c-0.3,0.17-0.61,0.33-0.94,0.49c-0.03,0.01-0.06,0.04-0.1,0.05
		c-1.66,0.87-3.36,1.69-5.08,2.43c-0.06,0.03-0.14,0.06-0.2,0.09c-0.87,0.38-1.73,0.73-2.61,1.07c-0.26,0.09-0.51,0.19-0.77,0.29
		c-0.04,0.02-0.09,0.04-0.13,0.05c-0.2,0.09-0.42,0.16-0.63,0.24c-0.14,0.05-0.27,0.1-0.42,0.15c-0.09,0.04-0.19,0.07-0.29,0.11
		c-0.08,0.03-0.17,0.06-0.25,0.09c-1.07,0.38-2.15,0.73-3.24,1.05c-0.01,0-0.01,0.01-0.02,0.01c-0.08,0.03-0.15,0.04-0.23,0.07
		c-0.19,0.06-0.38,0.11-0.56,0.17c-0.51,0.14-1.02,0.29-1.54,0.43c-0.66,0.17-1.32,0.35-1.99,0.51c-1.05,0.25-2.1,0.49-3.16,0.7
		c-0.01,0-0.03,0.01-0.04,0.01c-2.79,0.55-5.61,0.95-8.44,1.18c-0.48,0.05-0.94,0.08-1.42,0.11c-0.47,0.04-0.94,0.07-1.41,0.08
		c-0.75,0.05-1.49,0.07-2.25,0.08c-0.16,0.01-0.32,0.01-0.47,0.01c-0.21,0.01-0.42,0.01-0.63,0.01c-0.17,0.01-0.33,0.01-0.51,0.01
		c-0.33,0-0.67-0.01-1-0.01c-1.86-0.02-3.71-0.12-5.56-0.27c-0.22-0.02-0.44-0.04-0.66-0.07c-2.39-0.22-4.77-0.55-7.15-1
		c-0.18-0.04-0.37-0.07-0.56-0.11c-0.17-0.03-0.33-0.06-0.5-0.09c-0.06-0.01-0.12-0.04-0.18-0.04c-0.28-0.06-0.56-0.12-0.85-0.18
		c-0.08-0.01-0.16-0.04-0.24-0.05c-0.33-0.07-0.66-0.14-0.99-0.22c-2.8-0.65-5.59-1.47-8.34-2.45c-0.2-0.07-0.4-0.14-0.6-0.22
		c-0.29-0.1-0.57-0.21-0.85-0.32c-0.86-0.33-1.72-0.66-2.57-1.03c-0.01-0.01-0.03-0.01-0.04-0.02c-0.43-0.17-0.84-0.35-1.27-0.54
		c-0.1-0.04-0.19-0.09-0.29-0.14c-0.24-0.11-0.48-0.21-0.71-0.32c-0.38-0.17-0.77-0.34-1.14-0.51c-0.35-0.17-0.69-0.34-1.03-0.51
		c-0.28-0.14-0.56-0.29-0.84-0.43c-0.05-0.02-0.11-0.05-0.16-0.08c-0.33-0.16-0.65-0.34-0.97-0.51c-0.03-0.01-0.07-0.03-0.09-0.05
		c-0.05-0.02-0.09-0.05-0.14-0.08c-0.34-0.17-0.67-0.35-1-0.53c-0.19-0.11-0.39-0.22-0.58-0.33c-0.45-0.25-0.9-0.51-1.35-0.78
		c-0.19-0.12-0.38-0.22-0.57-0.35c-0.07-0.04-0.14-0.08-0.22-0.13c-0.27-0.17-0.55-0.33-0.82-0.5c-0.12-0.07-0.23-0.14-0.35-0.22
		c-0.12-0.07-0.24-0.15-0.35-0.22c-0.28-0.18-0.57-0.37-0.84-0.56c-0.07-0.05-0.15-0.1-0.22-0.15l-0.07-0.04
		c-0.01-0.01-0.02-0.01-0.03-0.01c-0.21-0.13-0.4-0.26-0.6-0.41c-0.25-0.15-0.49-0.32-0.73-0.49c-0.01-0.01-0.04-0.02-0.05-0.04
		c-0.03-0.01-0.06-0.04-0.09-0.06c-0.11-0.08-0.21-0.15-0.31-0.22c-0.1-0.07-0.2-0.14-0.3-0.2c-0.16-0.12-0.32-0.22-0.47-0.33
		c-0.02-0.01-0.04-0.03-0.05-0.04c-0.61-0.43-1.2-0.87-1.78-1.33c-0.38-0.29-0.76-0.58-1.13-0.87c-0.45-0.36-0.9-0.73-1.34-1.1
		c-0.06-0.06-0.14-0.12-0.21-0.17c-0.62-0.51-1.23-1.05-1.83-1.6c-0.48-0.42-0.95-0.85-1.41-1.29c-1.23-1.14-2.4-2.32-3.54-3.53
		c-0.01-0.01-0.03-0.02-0.04-0.04c-0.87-0.92-1.7-1.86-2.51-2.82c-1.17-1.39-2.3-2.82-3.37-4.28c-0.6-0.82-1.18-1.65-1.75-2.5
		c-0.1-0.14-0.19-0.29-0.3-0.43c-0.16-0.24-0.32-0.48-0.48-0.73c-0.01-0.03-0.02-0.04-0.04-0.07c-0.87-1.34-1.7-2.7-2.47-4.09
		c-0.09-0.15-0.19-0.32-0.27-0.5c-0.55-0.96-1.05-1.94-1.55-2.93c-0.32-0.66-0.64-1.3-0.95-1.96c-1.06-2.3-2.01-4.64-2.85-7.03
		c-0.38-1.1-0.75-2.21-1.08-3.34c-0.03-0.09-0.06-0.17-0.08-0.27c-0.07-0.23-0.14-0.45-0.21-0.69c-0.18-0.63-0.35-1.26-0.52-1.89
		c-5.25-20.15-2.47-42.35,9.54-61.34C42.84,7.68,91.01-3.18,127.41,19.83C163.83,42.83,174.69,91,151.68,127.41z"/>
	<g>
		<g>
			<g>
				<g>
					<path class="st25" d="M135.84,145.55c-0.27,0.22-0.54,0.45-0.82,0.67c-0.27,0.22-0.53,0.43-0.8,0.64
						c-1.39,1.11-2.82,2.17-4.27,3.16c-0.23,0.16-0.47,0.32-0.71,0.47c-0.97,0.66-1.95,1.29-2.95,1.89
						c-1.08,0.66-2.17,1.29-3.29,1.89c-0.3,0.17-0.61,0.33-0.94,0.49c-0.03,0.01-0.06,0.04-0.1,0.05c-1.66,0.87-3.36,1.69-5.08,2.43
						c-0.06,0.03-0.14,0.06-0.2,0.09c-0.87,0.38-1.73,0.73-2.61,1.07c-0.26,0.09-0.51,0.19-0.77,0.29
						c-0.04,0.02-0.09,0.04-0.13,0.05c-0.2,0.09-0.42,0.16-0.63,0.24c-0.14,0.05-0.27,0.1-0.42,0.15c-0.09,0.04-0.19,0.07-0.29,0.11
						c-0.08,0.03-0.17,0.06-0.25,0.09c-1.07,0.38-2.15,0.73-3.24,1.05c-0.01,0-0.01,0.01-0.02,0.01c-0.08,0.03-0.15,0.04-0.23,0.07
						c-0.19,0.06-0.38,0.11-0.56,0.17c-2.69-3.24-5.29-6.61-7.32-10.04c-4.02-6.82-5.75-13.89-1.27-20.67
						c0.13-0.19,0.26-0.39,0.4-0.58c0,0,6.66-4.21,9.13-3.91c0.98,0.12,1.89,0.34,2.77,0.65c6.56,2.34,10.54,9.82,19.29,17.42
						C130.55,143.52,134.66,145.09,135.84,145.55z"/>
					<path class="st26" d="M101.01,142.57c-0.08,8.15,3.03,13.56,7.35,17.81c-0.01,0-0.01,0.01-0.02,0.01
						c-0.08,0.03-0.15,0.04-0.23,0.07c-0.19,0.06-0.38,0.11-0.56,0.17c-0.51,0.14-1.02,0.29-1.54,0.43
						c-0.66,0.17-1.32,0.35-1.99,0.51c-2.25-2.97-3.64-6.4-3.8-10.98C100.15,148.25,100.39,145.61,101.01,142.57z"/>
					<path class="st26" d="M136.14,145.66c-0.01-0.01-0.04-0.01-0.07-0.03c0.01-0.01,0.01-0.01,0.02-0.02
						C136.11,145.63,136.12,145.64,136.14,145.66z"/>
				</g>
				<g>
					<path class="st25" d="M111.6,159.33c-1.07,0.38-2.15,0.73-3.24,1.05c-0.01,0-0.01,0.01-0.02,0.01
						c-0.08,0.03-0.15,0.04-0.23,0.07c-0.19,0.06-0.38,0.11-0.56,0.17c-0.51,0.14-1.02,0.29-1.54,0.43
						c-0.66,0.17-1.32,0.35-1.99,0.51c-1.05,0.25-2.1,0.49-3.16,0.7c-0.01,0-0.03,0.01-0.04,0.01c-2.79,0.55-5.61,0.95-8.44,1.18
						c-0.48,0.05-0.94,0.08-1.42,0.11c-0.47,0.04-0.94,0.07-1.41,0.08c-0.75,0.05-1.49,0.07-2.25,0.08
						c-0.16,0.01-0.32,0.01-0.47,0.01c-0.21,0.01-0.42,0.01-0.63,0.01c-0.17,0.01-0.33,0.01-0.51,0.01c-0.33,0-0.67-0.01-1-0.01
						c-1.86-0.02-3.71-0.12-5.56-0.27c-0.22-0.02-0.44-0.04-0.66-0.07c-2.39-0.22-4.77-0.55-7.15-1c-0.18-0.04-0.37-0.07-0.56-0.11
						c-0.17-0.03-0.33-0.06-0.5-0.09c-0.06-0.01-0.12-0.04-0.18-0.04c-0.28-0.06-0.56-0.12-0.85-0.18
						c-0.08-0.01-0.16-0.04-0.24-0.05c-0.33-0.07-0.66-0.14-0.99-0.22c-2.8-0.65-5.59-1.47-8.34-2.45c-0.2-0.07-0.4-0.14-0.6-0.22
						c-0.29-0.1-0.57-0.21-0.85-0.32c-0.86-0.33-1.72-0.66-2.57-1.03c-0.01-0.01-0.03-0.01-0.04-0.02
						c-0.43-0.17-0.84-0.35-1.27-0.54c-0.1-0.04-0.19-0.09-0.29-0.14c-0.24-0.11-0.48-0.21-0.71-0.32
						c-0.38-0.17-0.77-0.34-1.14-0.51c-0.35-0.17-0.69-0.34-1.03-0.51c-0.28-0.14-0.56-0.29-0.84-0.43
						c-0.05-0.02-0.11-0.05-0.16-0.08c-0.33-0.16-0.65-0.34-0.97-0.51c-0.03-0.01-0.07-0.03-0.09-0.05
						c-0.05-0.02-0.09-0.05-0.14-0.08c-0.34-0.17-0.67-0.35-1-0.53c-0.19-0.11-0.39-0.22-0.58-0.33c-0.45-0.25-0.9-0.51-1.35-0.78
						c-0.19-0.12-0.38-0.22-0.57-0.35c-0.07-0.04-0.14-0.08-0.22-0.13c-0.27-0.17-0.55-0.33-0.82-0.5
						c-0.12-0.07-0.23-0.14-0.35-0.22c-0.12-0.07-0.24-0.15-0.35-0.22c-0.28-0.18-0.57-0.37-0.84-0.56
						c-0.07-0.05-0.15-0.1-0.22-0.15l-0.07-0.04c-0.01-0.01-0.02-0.01-0.03-0.01c-0.21-0.13-0.4-0.26-0.6-0.41
						c-0.25-0.15-0.49-0.32-0.73-0.49c-0.01-0.01-0.04-0.02-0.05-0.04c-0.03-0.01-0.06-0.04-0.09-0.06
						c-0.11-0.08-0.21-0.15-0.31-0.22c-0.1-0.07-0.2-0.14-0.3-0.2c-0.16-0.12-0.32-0.22-0.47-0.33c-0.02-0.01-0.04-0.03-0.05-0.04
						c-0.61-0.43-1.2-0.87-1.78-1.33c-0.38-0.29-0.76-0.58-1.13-0.87c-0.45-0.36-0.9-0.73-1.34-1.1c-0.06-0.06-0.14-0.12-0.21-0.17
						c-0.62-0.51-1.23-1.05-1.83-1.6c-0.48-0.42-0.95-0.85-1.41-1.29c-1.23-1.14-2.4-2.32-3.54-3.53c-0.01-0.01-0.03-0.02-0.04-0.04
						c-0.87-0.92-1.7-1.86-2.51-2.82c-1.17-1.39-2.3-2.82-3.37-4.28c-0.6-0.82-1.18-1.65-1.75-2.5c0.9-1.11,1.99-2.14,3.28-3.05
						c3.62-2.61,8.85-4.4,16.24-4.92c7.81-0.56,13.08-4.24,19.53-6.03c0.33-0.09,0.66-0.19,1-0.26c1.14-0.28,2.32-0.49,3.57-0.61
						c1.24-0.13,2.55-0.16,3.94-0.07l16.95,4.04l0.01,0.01c0.3,0.19,0.62,0.37,0.96,0.53c0.41,0.22,0.84,0.41,1.31,0.6
						c6.38,2.57,17.11,3.08,23.38,6.49c1.33,0.71,2.46,1.56,3.3,2.58C120,135.28,113.75,151.69,111.6,159.33z"/>
				</g>
				<g>
					<g>
						<path class="st2" d="M85.7,117.16l-14.8-2.85c-4.19-1.9-5.31-3.04-8.82-0.69c-13,8.71,11.74,29.91,18.2,31.23
							C91.58,147.16,94.3,124.15,85.7,117.16z"/>
						<path class="st1" d="M85.7,117.16l-14.8-6.32c-4.19-1.9-9.72,1.91-10.4,6.08c-1.34,8.14,13.32,23.14,19.78,24.46
							C91.58,143.69,89.09,123,85.7,117.16z"/>
						<g>
							<path class="st1" d="M87.94,93.6l-2.63,27.65l-23.23-7.63c0,0,2.48-16.27,5.97-30.7C69.39,77.39,87.94,93.6,87.94,93.6z"/>
							<path class="st6" d="M87.4,99.3l-1.54,16.16c-10.22,2.65-17.6-11.45-19.37-16.09c-2.11-5.51,0.08-10.4,0.08-10.4l15.85,6.97
								L87.4,99.3z"/>
						</g>
					</g>
					<g>
						<g>
							<path class="st1" d="M101.54,75.85c1.3-1.83,5.34-1.88,6.77-0.18c1.59,1.89-2.24,10.92-4.31,10.77
								C99.19,86.07,101.54,75.85,101.54,75.85z"/>
							<path class="st6" d="M101.64,80.78c-0.02-0.7-0.04-1.49,0.05-2.18c0.04-0.37,0.16-0.77,0.25-1.13
								c0.05-0.19,0.12-0.44,0.2-0.57c0.72-1.22,2.21-1.15,3.25-1.18c0.43-0.01,1.18-0.02,1.54,0.23c0.29,0.19,0.4,0.67,0.55,0.96
								c-0.78-0.92-2.67-0.61-3.62-0.08c-0.99,0.55-1.44,2.27-1.17,3.35c0.89-0.03,1.61,1.02,1.45,1.84
								c-0.16,0.82-1.83,1.17-2.03,0.35C103.55,82.19,102.46,80.97,101.64,80.78z"/>
						</g>
						<path class="st4" d="M100.11,50.81c0.68-0.3,3.21-2.47,3.67-1.65c0.54,0.96-1.01,17.62-1.3,22.36
							c-1.51-6.78-4.49-13.38-5.84-20.11L100.11,50.81z"/>
						<path class="st1" d="M63.4,88.33c1.63-11.6,5.1-24.26,6.66-35.42c0,0,10.66-5.99,12.31-6.39c1.03-0.25,2.09-0.41,3.16-0.46
							c1.06,0.11,2.11,0.32,3.13,0.63c1.63,0.5,11.95,7.05,11.95,7.05c0.95,11.23,3.22,23.31,4.21,34.98
							c0.4,4.76-0.24,10.43-4,13.69c-5.41,4.7-2.08,11.17-10.44,10.94c-12.3-0.34-19.42-10.48-22.76-14.91
							C64.63,94.48,62.74,93.06,63.4,88.33z"/>
						<path class="st6" d="M72.24,76.21l0,0.02c0,0,0,0,0,0.01c0.04,0.08,0.09,0.16,0.13,0.23c1.59,2.43,7.64,2.13,9.3,0.44
							c-2.18-1.85-1.72-4.96-4.14-4.98C74.87,71.9,72.79,73.71,72.24,76.21z"/>
						<path class="st6" d="M72.24,76.23c0,0,3.51,7.22,9.51,0.91c-2.38-1.83-2.81-3.59-5.26-3.63c-2.59-0.04-3.74,0.1-4.11,1.64
							c0,0,0,0.01,0,0.01c-0.07,0.28-0.11,0.6-0.12,0.98C72.24,76.17,72.24,76.2,72.24,76.23z"/>
						<path class="st6" d="M93.59,77.64c0.7,0.67,2.09,1,3.52,0.95c1.2-0.04,2.43-0.35,3.32-0.96c0.54-0.37,0.95-0.86,1.14-1.45
							c0-0.01,0.01-0.03,0.02-0.04c-0.25-0.84-0.65-1.58-1.16-2.18c-0.83-0.99-1.95-1.6-3.19-1.65c-0.22-0.01-0.43-0.01-0.66,0.02
							C94.51,72.56,95.25,75.61,93.59,77.64z"/>
						<path class="st6" d="M101.58,76.13c0,0-2.21,7.49-8.03,1.73c1.84-2.03,2.01-3.82,4.1-4.07c2.21-0.27,3.21-0.22,3.7,1.27
							c0,0,0,0.01,0,0.01c0.09,0.27,0.16,0.59,0.21,0.96C101.58,76.07,101.58,76.1,101.58,76.13z"/>
						<g>
							<g>
								<g>
									<path class="st6" d="M94.99,85.55c0.76-0.07,1.46,0.24,1.6,1.06c0.24,1.42-2.11,1.98-3.18,2.41
										c-2.01,0.8-4.89,0.66-6.64-0.62C92.11,88.99,94.99,85.55,94.99,85.55z"/>
								</g>
							</g>
						</g>
						<g>
							<path class="st7" d="M75.21,88.12c0.55,3.23,4.36,11.15,9.03,12.65c3.6,1.16,10.1-3.01,12.26-4.5
								c-1.46-0.33-4-1.13-5.25-1.53C89.84,94.29,78.46,90.57,75.21,88.12z"/>
							<g>
								<g>
									<path class="st2" d="M94.98,95.51c-0.08,0.08-0.15,0.16-0.23,0.24c-0.12,0.13-0.25,0.26-0.38,0.39
										c-0.92,0.91-1.95,1.74-2.88,1.99c-0.04,0.01-0.08,0.02-0.12,0.03c-1.57,0.24-7.09-1.82-10.58-3.35
										c-1.39-0.61-2.47-1.14-2.83-1.41c0,0-0.01-0.01-0.02-0.01c-0.04-0.03-0.08-0.06-0.1-0.09c-0.8-0.95-0.9-2.94-0.97-4.57
										c3.63,1.97,10.98,4.59,15.85,6.1c0.66,0.2,1.27,0.39,1.82,0.55C94.69,95.43,94.84,95.47,94.98,95.51z"/>
									<path class="st8" d="M94.76,95.76c-0.12,0.13-0.25,0.26-0.38,0.39c-0.91,0.92-1.93,1.78-2.88,1.99
										c-0.04,0.01-0.08,0.02-0.12,0.03c-1.57,0.24-7.09-1.82-10.58-3.35c-1.39-0.61-2.47-1.14-2.83-1.41c0,0-0.01-0.01-0.02-0.01
										c-0.04-0.04-0.07-0.07-0.1-0.09c1.38,0.43,12.27,4.03,12.81,3.97c0.36-0.04,0.33-0.05,0.6-0.37
										c0.51-0.6,1.04-1.34,1.46-2.07c0.66,0.2,1.27,0.39,1.82,0.55L94.76,95.76z"/>
								</g>
							</g>
							<path class="st6" d="M94.98,95.51c-0.14-0.04-0.28-0.08-0.43-0.12c-0.01,0-0.01-0.01-0.01-0.01
								c-0.15-0.04-0.3-0.09-0.45-0.14c-0.03-0.01-0.05-0.01-0.08-0.02c-0.05-0.01-0.11-0.03-0.16-0.04
								c-0.06-0.02-0.12-0.04-0.18-0.06c-0.15-0.04-0.3-0.09-0.46-0.14c-0.16-0.05-0.32-0.1-0.48-0.15c-0.3-0.09-0.62-0.2-0.95-0.3
								c-0.16-0.05-0.32-0.1-0.48-0.16c-0.33-0.1-0.66-0.22-1.01-0.33c-0.01,0-0.01,0-0.01,0c-0.17-0.06-0.34-0.12-0.51-0.17
								c-0.04-0.01-0.09-0.03-0.13-0.04c-0.13-0.04-0.26-0.09-0.39-0.14c-0.04-0.01-0.08-0.02-0.12-0.04
								c-0.14-0.04-0.27-0.09-0.42-0.14c-0.18-0.07-0.35-0.12-0.53-0.19c-0.18-0.07-0.36-0.12-0.54-0.19
								c-0.06-0.02-0.12-0.04-0.17-0.06c-0.06-0.02-0.12-0.04-0.17-0.07h-0.01c0,0,0,0-0.01-0.01c-0.06-0.02-0.12-0.04-0.19-0.06
								c-0.3-0.1-0.61-0.22-0.91-0.32c-0.11-0.04-0.21-0.08-0.32-0.12c-0.13-0.04-0.26-0.09-0.39-0.14
								c-0.19-0.07-0.38-0.14-0.58-0.21c-0.11-0.04-0.22-0.08-0.32-0.12c-0.07-0.02-0.14-0.05-0.2-0.07
								c-0.14-0.05-0.27-0.1-0.4-0.15c-0.01,0-0.01,0-0.01,0c-0.14-0.06-0.29-0.11-0.43-0.17c-0.09-0.03-0.18-0.06-0.27-0.1
								c-0.09-0.04-0.17-0.07-0.27-0.11c-0.62-0.24-1.23-0.48-1.81-0.72c-0.08-0.04-0.16-0.06-0.25-0.1
								c-0.08-0.04-0.17-0.07-0.25-0.1c-0.32-0.14-0.64-0.27-0.94-0.4c-0.32-0.14-0.63-0.27-0.92-0.41
								c-0.15-0.06-0.29-0.13-0.43-0.19c-0.12-0.06-0.24-0.12-0.35-0.17c-0.02-0.01-0.04-0.02-0.07-0.04
								c-0.02-0.01-0.04-0.01-0.06-0.03c-0.38-0.18-0.73-0.36-1.05-0.53c-1.07-0.58-1.81-1.1-2.09-1.52
								c-0.03,0.33,0.02,0.79,0.14,1.35c0.28,1.28,0.94,3.07,1.89,4.91c0.78,1.5,1.75,3.03,2.87,4.35c1.31,1.54,2.81,2.77,4.43,3.3
								c0.18,0.06,0.37,0.1,0.57,0.14c0.3,0.05,0.61,0.08,0.94,0.08c0.51,0,1.03-0.06,1.58-0.17h0.01c0,0,0,0,0-0.01
								c0.77-0.14,1.57-0.39,2.38-0.69c3.95-1.5,7.84-4.41,7.84-4.41C97.22,96.09,96.32,95.88,94.98,95.51z M94.71,97.46
								c-0.06,0.04-0.12,0.07-0.19,0.11c-0.1,0.07-0.21,0.13-0.32,0.19c-0.64,0.38-1.34,0.78-2.09,1.17
								c-0.2,0.11-0.41,0.21-0.62,0.31c-0.17,0.09-0.35,0.17-0.52,0.25c-0.2,0.09-0.4,0.19-0.61,0.27
								c-0.17,0.08-0.35,0.15-0.52,0.22c-0.03,0.01-0.06,0.02-0.09,0.04c-0.01,0.01-0.03,0.01-0.04,0.02
								c-0.17,0.06-0.35,0.13-0.52,0.19c-0.19,0.07-0.38,0.13-0.56,0.19c-0.04,0.01-0.08,0.02-0.12,0.04
								c-0.43,0.13-0.84,0.25-1.26,0.32c-0.01,0-0.01,0-0.01,0c-0.14,0.03-0.28,0.06-0.43,0.08c-0.2,0.04-0.4,0.07-0.6,0.08
								c-0.2,0.02-0.39,0.03-0.58,0.03c-0.13,0-0.25-0.01-0.38-0.01h-0.05c-0.07-0.01-0.13-0.01-0.19-0.02
								c-0.01,0-0.02-0.01-0.04-0.01c-0.04,0-0.07-0.01-0.11-0.01h-0.02c-0.02,0-0.04,0-0.05-0.01h-0.01
								c-0.08-0.01-0.16-0.03-0.24-0.05c-0.01,0-0.04,0-0.05-0.01c-0.09-0.03-0.19-0.05-0.28-0.08c-0.16-0.06-0.32-0.12-0.48-0.18
								c-0.01-0.01-0.02-0.01-0.04-0.01c-0.03-0.01-0.06-0.02-0.09-0.04c-0.03-0.02-0.06-0.04-0.09-0.04
								c-0.04-0.01-0.06-0.03-0.09-0.04c-0.01,0-0.01-0.01-0.01-0.01c-0.06-0.04-0.14-0.06-0.2-0.1c-0.07-0.04-0.13-0.07-0.19-0.11
								c-0.07-0.04-0.13-0.07-0.19-0.11c-0.07-0.05-0.14-0.09-0.21-0.14c-0.06-0.04-0.12-0.07-0.17-0.12
								c-0.13-0.09-0.26-0.17-0.38-0.27c-0.01-0.01-0.02-0.01-0.04-0.03c-0.02-0.02-0.04-0.04-0.07-0.05
								c-0.03-0.02-0.06-0.04-0.08-0.06c-0.06-0.05-0.12-0.1-0.17-0.14c-0.01-0.01-0.03-0.02-0.04-0.04
								c-0.18-0.14-0.35-0.3-0.51-0.46c-0.01-0.01-0.03-0.03-0.04-0.04c-0.07-0.06-0.14-0.13-0.21-0.2c-0.07-0.07-0.14-0.13-0.2-0.2
								c-0.03-0.03-0.06-0.06-0.09-0.09c-0.05-0.06-0.1-0.12-0.16-0.17c-0.12-0.12-0.23-0.25-0.34-0.38
								c-0.06-0.06-0.12-0.13-0.17-0.2c-0.52-0.61-1-1.28-1.46-1.96c-0.08-0.12-0.16-0.25-0.23-0.37c-0.08-0.12-0.15-0.25-0.23-0.37
								c-0.08-0.12-0.15-0.25-0.22-0.38c-0.14-0.25-0.28-0.49-0.41-0.74c-0.01,0-0.01-0.01-0.01-0.01h-0.01
								c-0.28-0.51-0.53-1.03-0.77-1.53c-0.07-0.16-0.14-0.31-0.2-0.47c-0.04-0.07-0.06-0.15-0.1-0.22c0-0.01-0.01-0.01-0.01-0.01
								c-0.04-0.07-0.07-0.15-0.09-0.23c-0.04-0.07-0.06-0.14-0.09-0.22c-0.05-0.12-0.09-0.22-0.13-0.33
								c-0.04-0.11-0.08-0.22-0.12-0.33c0-0.01,0-0.01,0-0.01c-0.09-0.24-0.17-0.47-0.24-0.71c-0.03-0.1-0.08-0.22-0.11-0.32
								c-0.01-0.06-0.04-0.13-0.05-0.19c-0.02-0.07-0.04-0.12-0.06-0.18c-0.01-0.02-0.01-0.04-0.01-0.06
								c-0.02-0.09-0.05-0.19-0.07-0.28c-0.02-0.09-0.04-0.18-0.06-0.27c-0.01-0.08-0.03-0.16-0.04-0.23v-0.01h0.01v0.01
								c0.05,0.04,0.1,0.07,0.16,0.11c0.05,0.04,0.1,0.08,0.16,0.12h0.01c0.06,0.04,0.12,0.08,0.18,0.12
								c0.12,0.08,0.25,0.16,0.4,0.25c0.12,0.07,0.25,0.14,0.38,0.22c0.12,0.07,0.26,0.15,0.4,0.22h0.01
								c0.05,0.03,0.11,0.06,0.16,0.08c0.15,0.08,0.3,0.16,0.46,0.23c0.09,0.06,0.19,0.11,0.3,0.15c0.09,0.04,0.17,0.08,0.25,0.12
								c0.09,0.04,0.17,0.08,0.25,0.12c0.09,0.05,0.19,0.09,0.28,0.14c0.19,0.09,0.38,0.17,0.58,0.26c0.1,0.04,0.2,0.09,0.3,0.13
								c0.2,0.09,0.4,0.17,0.61,0.27c0.51,0.21,1.03,0.43,1.55,0.64c0.25,0.1,0.5,0.19,0.74,0.3c0.3,0.12,0.6,0.24,0.9,0.35
								c0.18,0.06,0.36,0.14,0.54,0.2c0.18,0.07,0.37,0.14,0.54,0.2c0.07,0.03,0.14,0.05,0.2,0.08c0.24,0.09,0.47,0.17,0.71,0.26
								c0.1,0.04,0.19,0.07,0.3,0.11c0.09,0.04,0.19,0.07,0.28,0.1c0.01,0.01,0.02,0.01,0.03,0.01c0.14,0.06,0.28,0.1,0.42,0.15
								c0.04,0.01,0.08,0.03,0.12,0.04c0.2,0.07,0.4,0.14,0.58,0.21c0.01,0,0.02,0.01,0.29,0.1c0.09,0.03,0.17,0.06,0.25,0.09
								c0.01,0,0.01,0.01,0.02,0.01c0.14,0.04,0.26,0.09,0.38,0.14h0.01c0.06,0.02,0.11,0.04,0.15,0.05
								c0.17,0.06,0.35,0.12,0.51,0.18c0.08,0.03,0.16,0.05,0.24,0.08c0.08,0.03,0.16,0.05,0.23,0.08c0.05,0.01,0.09,0.04,0.14,0.05
								c0.03,0.01,0.07,0.01,0.09,0.03c0.07,0.02,0.14,0.05,0.21,0.07c0.11,0.04,0.21,0.07,0.3,0.1c0.69,0.23,1.19,0.4,1.42,0.47
								c0.19,0.06,0.4,0.13,0.64,0.2c0.12,0.04,0.25,0.08,0.38,0.12c0.02,0.01,0.05,0.01,0.08,0.02c0.06,0.02,0.12,0.04,0.19,0.06
								h0.01c0.45,0.14,0.95,0.3,1.45,0.45c0.18,0.05,0.37,0.11,0.55,0.16c0.06,0.02,0.11,0.04,0.17,0.05h0.01
								c0.06,0.02,0.12,0.04,0.19,0.05c0.06,0.01,0.12,0.04,0.17,0.05c0.18,0.05,0.36,0.1,0.53,0.14c0.2,0.06,0.4,0.11,0.58,0.15
								c0.12,0.02,0.22,0.05,0.32,0.07c-0.42,0.29-0.99,0.67-1.68,1.1C94.78,97.41,94.75,97.44,94.71,97.46z"/>
						</g>
						<path class="st4" d="M91.16,62.34c0.43-0.01,1.25,0.03,1.25,0.03l0.99,1.57c0,0,0.12-1.37,0.35-1.34
							c6.15,0.83,7.55,5.23,7.55,5.23c-1.67-0.85-3.41-1.46-5.12-1.69c-2.35-0.32-3.73,0.04-4.9,1.1
							C91.11,65.61,91.03,63.97,91.16,62.34z"/>
						<path class="st4" d="M80.35,57.7c-0.43,0.07-1.22,0.25-1.22,0.25l-0.7,1.72c0,0-0.36-1.33-0.58-1.26
							c-5.91,1.91-6.51,6.49-6.51,6.49c1.49-1.13,3.1-2.04,4.74-2.57c2.25-0.73,3.68-0.62,5.02,0.21
							C80.98,60.92,80.77,59.28,80.35,57.7z"/>
						<g>
							<path class="st2" d="M72.23,76.24C72.24,76.24,72.24,76.24,72.23,76.24c0.05,0.09,0.11,0.17,0.16,0.24
								c1.83,2.43,8.78,2.13,10.68,0.44c-2.5-1.85-1.98-4.96-4.75-4.98c-3.06-0.03-5.45,1.78-6.09,4.28
								C72.24,76.22,72.23,76.23,72.23,76.24z"/>
							<g>
								<g>
									<path class="st27" d="M74.14,75.38c0.05,1.94,1.28,3.48,2.74,3.45c1.46-0.03,2.59-1.63,2.54-3.56
										c-0.05-1.94-1.28-3.48-2.74-3.45C75.23,71.85,74.09,73.44,74.14,75.38z"/>
									<path class="st15" d="M75,75.56c0.03,1.24,0.82,2.23,1.76,2.21c0.94-0.02,1.66-1.04,1.63-2.29
										c-0.04-1.24-0.82-2.23-1.76-2.21C75.7,73.3,74.97,74.32,75,75.56z"/>
								</g>
								<path class="st2" d="M77.04,74.21l2.99-1.24c0,0,0.8,1.46,0.44,1.78C79.87,75.29,77.04,74.21,77.04,74.21z"/>
							</g>
							<path class="st6" d="M72.39,76.48c0.79,1.21,4.65,6.27,10.77,0.66c-0.4-4.53-2.34-9.88-5.15-9.92
								c-2.6-0.04-4.93,4.21-5.61,7.93c0,0,0,0.01,0,0.01c-0.06,0.33-0.11,0.66-0.14,0.98c0,0.02-0.01,0.05-0.01,0.08
								c0.64-2.5,3.03-4.31,6.09-4.28c2.77,0.02,2.25,3.14,4.75,4.98C81.17,78.61,74.22,78.91,72.39,76.48z"/>
						</g>
						<g>
							<path class="st6" d="M93.88,68.77c0,0-0.93,5.82-1.32,7.75c-0.2,1.01-0.94,3.47-0.42,7.18
								C90.21,81.53,89.76,73.98,93.88,68.77z"/>
							<path class="st2" d="M93.06,77.53c0.7,0.67,2.09,1,3.52,0.95c1.2-0.04,2.43-0.35,3.32-0.96c0.54-0.37,0.95-0.86,1.14-1.45
								c0-0.01,0.01-0.03,0.02-0.04c-0.25-0.84-0.65-1.58-1.16-2.18c-0.83-0.99-1.95-1.6-3.19-1.65c-0.22-0.01-0.43-0.01-0.66,0.02
								C93.99,72.45,94.72,75.5,93.06,77.53z"/>
							<g>
								<g>
									<path class="st27" d="M94.12,75.24c0.14,2.03,1.32,3.6,2.65,3.51c1.33-0.09,2.29-1.81,2.16-3.83
										c-0.14-2.03-1.32-3.6-2.65-3.51C94.95,71.5,93.99,73.22,94.12,75.24z"/>
									<path class="st15" d="M94.98,75.06c0.09,1.3,0.85,2.31,1.7,2.25c0.85-0.06,1.47-1.16,1.38-2.46
										c-0.09-1.3-0.85-2.31-1.7-2.25C95.52,72.65,94.9,73.76,94.98,75.06z"/>
								</g>
								<path class="st2" d="M96.82,73.81l2.9-0.89c0,0,0.5,1.62,0.12,1.91C99.21,75.31,96.82,73.81,96.82,73.81z"/>
							</g>
							<path class="st6" d="M93.03,77.75c5.56,5.49,7.82-1.08,8.01-1.69c-0.2,0.6-0.6,1.08-1.14,1.45
								c-0.89,0.61-2.12,0.92-3.32,0.96c-1.43,0.05-2.81-0.29-3.52-0.95c1.66-2.03,0.92-5.08,2.99-5.32
								c0.22-0.02,0.44-0.03,0.66-0.02c1.24,0.05,2.36,0.66,3.19,1.65c0.51,0.6,0.9,1.34,1.16,2.18c0-0.03-0.01-0.07-0.01-0.1
								c-0.06-0.31-0.13-0.63-0.21-0.96c0,0,0-0.01-0.01-0.01c-0.36-4.06-3.87-7.27-5.81-7.03C92.93,68.18,92.83,73.22,93.03,77.75z
								"/>
						</g>
						<path class="st4" d="M67.53,50.15c0.53-0.91,14.21-13.23,39.96-10.63c2.9,0.29-2.66,8.64-2.66,8.64
							c-2.57,5.37-7.86,9.18-8.73,9.07c-0.7-0.09-14.95-7.06-15.65-7.29c-10.58,4.07-14.77,29.32-15.43,29.97
							C65.14,77.1,62.08,59.54,67.53,50.15z"/>
						<g>
							<path class="st1" d="M64.61,72.48c-1.73-1.72-6.09-1.02-7.3,1.07c-1.36,2.33,4.45,11.32,6.64,10.76
								C69.04,83.02,64.61,72.48,64.61,72.48z"/>
							<path class="st6" d="M65.42,77.8c-0.11-0.76-0.24-1.6-0.46-2.34c-0.12-0.39-0.32-0.8-0.48-1.17
								c-0.09-0.2-0.21-0.45-0.32-0.57c-1.01-1.18-2.58-0.82-3.71-0.65c-0.47,0.07-1.27,0.2-1.61,0.53
								c-0.27,0.26-0.31,0.8-0.42,1.13c0.67-1.13,2.76-1.15,3.88-0.76c1.17,0.41,1.97,2.17,1.89,3.38
								c-0.96,0.13-1.54,1.39-1.21,2.25c0.33,0.85,2.18,0.91,2.24-0.01C63.63,79.67,64.57,78.15,65.42,77.8z"/>
						</g>
						<path class="st6" d="M79.55,101.01c2.13,0.69,5.27,1.96,6.25,3.99l0.44-2.12C84.38,101.64,81.75,101.46,79.55,101.01z"/>
					</g>
				</g>
				<g>
					<g>
						<path class="st25" d="M42.11,144.11c-0.18,1.86-0.48,3.76-0.86,5.68c-0.01-0.01-0.04-0.02-0.05-0.04
							c-0.03-0.01-0.06-0.04-0.09-0.06c-0.11-0.08-0.21-0.15-0.31-0.22c-0.1-0.07-0.2-0.14-0.3-0.2c-0.16-0.12-0.32-0.22-0.47-0.33
							c-0.02-0.01-0.04-0.03-0.05-0.04c-0.61-0.43-1.2-0.87-1.78-1.33c-0.38-0.29-0.76-0.58-1.13-0.87c-0.45-0.36-0.9-0.73-1.34-1.1
							c-0.06-0.06-0.14-0.12-0.21-0.17c-0.62-0.51-1.23-1.05-1.83-1.6c-0.48-0.42-0.95-0.85-1.41-1.29
							c-1.23-1.14-2.4-2.32-3.54-3.53c-0.01-0.01-0.03-0.02-0.04-0.04c-0.87-0.92-1.7-1.86-2.51-2.82c-1.17-1.39-2.3-2.82-3.37-4.28
							c-0.6-0.82-1.18-1.65-1.75-2.5c-0.1-0.14-0.19-0.29-0.3-0.43c1.16-1,2.35-1.88,3.57-2.62c1.21-0.74,2.44-1.36,3.68-1.81h5.86
							c0.21,0.12,0.41,0.23,0.61,0.35C41.43,129.08,42.86,136.22,42.11,144.11z"/>
						<path class="st26" d="M43.74,151.46c-0.28-0.18-0.57-0.37-0.84-0.56c-0.07-0.05-0.15-0.1-0.22-0.15l-0.07-0.04
							c-0.01-0.01-0.02-0.01-0.03-0.01c-0.21-0.13-0.4-0.26-0.6-0.41c-0.25-0.15-0.49-0.32-0.73-0.49
							c-0.01-0.01-0.04-0.02-0.05-0.04c-0.03-0.01-0.06-0.04-0.09-0.06c-0.11-0.08-0.21-0.15-0.31-0.22c-0.1-0.07-0.2-0.14-0.3-0.2
							c0.26-3.71-0.4-7.7-2.51-12.1c1.85,2.48,3.19,4.78,4.12,6.94C43.22,146.72,43.72,149.13,43.74,151.46z"/>
					</g>
				</g>
			</g>
		</g>
	</g>
</g>
</svg>
