<?xml version="1.0" encoding="utf-8"?>
<!-- Generator: Adobe Illustrator 27.2.0, SVG Export Plug-In . SVG Version: 6.00 Build 0)  -->
<svg version="1.1" id="Layer_1" xmlns="http://www.w3.org/2000/svg" xmlns:xlink="http://www.w3.org/1999/xlink" x="0px" y="0px"
	 viewBox="0 0 171.51 171.51" style="enable-background:new 0 0 171.51 171.51;" xml:space="preserve">
<style type="text/css">
	.st0{fill:#F7F2DA;}
	.st1{fill:#FBA479;}
	.st2{fill:#FFFFFF;}
	.st3{fill:#E1DFEA;}
	.st4{fill:#261411;}
	.st5{fill:#60312B;}
	.st6{fill:#EF7950;}
	.st7{fill:#60281F;}
	.st8{fill:#E8E6E6;}
	.st9{fill:#3A2827;}
	.st10{fill:#CCCCCC;}
	.st11{fill:#595857;}
	.st12{fill:#F28C5F;}
	.st13{fill:#E26939;}
	.st14{fill:#56413D;}
	.st15{fill:#44322E;}
	.st16{fill:#873421;}
	.st17{fill:#EA6CA0;}
	.st18{fill:#DB5290;}
	.st19{fill:#F48656;}
	.st20{fill:#82112F;}
	.st21{fill:#D85039;}
	.st22{fill:#574984;}
	.st23{fill:#291C51;}
	.st24{fill:#FC5135;}
	.st25{fill:#FFCC7B;}
	.st26{fill:#E8A749;}
	.st27{fill:#6D4A44;}
	.st28{fill:#D1E3E8;}
	.st29{fill:#FCFBFA;}
	.st30{fill:#4C4C4B;}
	.st31{fill:#686868;}
	.st32{fill:#FFB884;}
	.st33{fill:#EF9C62;}
	.st34{fill:#874410;}
	.st35{fill:#6D340D;}
	.st36{fill:#E89258;}
	.st37{fill:#3A2E26;}
	.st38{fill:#4C3F35;}
	.st39{opacity:0.1;}
	.st40{fill:#60120F;}
	.st41{fill:#F4F0ED;}
	.st42{fill:#E0312D;}
	.st43{fill:#F42F2F;}
	.st44{fill:#D31111;}
	.st45{fill:#DB9B19;}
	.st46{fill:#AF740B;}
	.st47{fill:#CC2121;}
	.st48{fill:#F74B4B;}
	.st49{fill:#FCF9E8;}
	.st50{opacity:0.5;fill:#827571;}
	.st51{fill:#665D5C;}
	.st52{fill:#4F4746;}
	.st53{fill:#5E3B2F;}
	.st54{fill:#492E27;}
	.st55{opacity:0.4;}
	.st56{fill:#443A36;}
	.st57{fill:#51415E;}
	.st58{fill:#066FB7;}
	.st59{fill:#066396;}
	.st60{fill:#0D8FD6;}
	.st61{fill:#FEAC74;}
	.st62{fill:#E3784C;}
	.st63{fill:#580801;}
	.st64{fill:#440502;}
	.st65{fill:#00ABB2;}
	.st66{fill:#008C8C;}
	.st67{fill:#914E34;}
	.st68{fill:#5B2E1D;}
	.st69{fill:#6A3221;}
	.st70{fill:#FAFAFC;}
	.st71{fill:#2B3B3F;}
	.st72{fill:#3F565B;}
	.st73{fill:#EF7348;}
	.st74{fill:#6F3D26;}
	.st75{fill:#BBBEBF;}
	.st76{fill:#D3D3D3;}
	.st77{fill:#939A9E;}
	.st78{fill:#F79C5E;}
	.st79{fill:#E07832;}
	.st80{fill:#604135;}
	.st81{fill:#EFEAE8;}
	.st82{fill:#4F3229;}
	.st83{fill:#1A3D3A;}
	.st84{fill:#E8E8E8;}
	.st85{fill:#0C83C4;}
	.st86{fill:#1B96EA;}
	.st87{fill:#B50F0F;}
	.st88{opacity:0.4;fill:#E89258;}
	.st89{fill:#26ACF7;}
	.st90{fill:#F45347;}
	.st91{fill:#FF3939;}
	.st92{fill:#686766;}
	.st93{fill:#5E5D5B;}
	.st94{fill:#424140;}
	.st95{fill:#E7E1CB;}
	.st96{fill:#D6CFBA;}
	.st97{fill:#CE5C37;}
	.st98{fill:#B74D30;}
	.st99{fill:#1B313D;}
	.st100{fill:#36474F;}
	.st101{fill:#29526D;}
	.st102{fill:#FCBD88;}
	.st103{fill:#FCA265;}
	.st104{fill:#496B7A;}
	.st105{fill:#B76049;}
	.st106{fill:#EDEDED;}
	.st107{fill:#7C7979;}
	.st108{fill:#EFE6E8;}
	.st109{fill:#B20D28;}
	.st110{fill:#346682;}
	.st111{fill:#AA0E28;}
	.st112{fill:#FF5050;}
	.st113{fill:#781A0E;}
	.st114{fill:#560904;}
	.st115{fill:#FF0B40;}
	.st116{fill:#BC0000;}
	.st117{fill:#FFD731;}
	.st118{fill:#EA6453;}
	.st119{fill:#602618;}
	.st120{fill:#A14F2A;}
	.st121{fill:#3A4E66;}
	.st122{fill:#EAE9EE;}
	.st123{opacity:0.3;fill:#3A4E66;}
	.st124{fill:#5E2701;}
	.st125{fill:#773000;}
	.st126{fill:#EA2F4A;}
	.st127{fill:#C41234;}
	.st128{fill:#F7F0F1;}
	.st129{fill:#F7A76F;}
	.st130{fill:#B24800;}
	.st131{fill:#8C3B03;}
	.st132{fill:#567391;}
	.st133{fill:#FF7271;}
	.st134{fill:#F75E5E;}
	.st135{fill:#700F28;}
	.st136{fill:#9E1533;}
	.st137{fill:#871231;}
	.st138{fill:#211B3A;}
	.st139{fill:#2E2951;}
	.st140{fill:#F28670;}
	.st141{fill:#F46060;}
	.st142{fill:#EBBF44;}
	.st143{fill:#E0A91E;}
	.st144{fill:#FFA992;}
	.st145{fill:#2C363F;}
	.st146{fill:#1D262D;}
	.st147{fill-rule:evenodd;clip-rule:evenodd;fill:#FFF5F5;}
	.st148{opacity:0.2;}
	.st149{fill:#7C4949;}
	.st150{fill:#F9AE7A;}
	.st151{fill:#FFF5F5;}
	.st152{fill:#C92727;}
	.st153{fill:#4C1B05;}
	.st154{fill:#592009;}
	.st155{opacity:0.4;fill:#592009;}
	.st156{fill:#3F1307;}
	.st157{fill:#664472;}
	.st158{fill:#473051;}
	.st159{fill:#352020;}
	.st160{opacity:0.3;fill:#7C4949;}
</style>
<g>
	<path class="st0" d="M151.68,127.41c-4.17,6.61-9.18,12.36-14.78,17.24c-0.62,0.53-1.24,1.06-1.88,1.57
		c-0.27,0.22-0.53,0.43-0.8,0.64c-1.39,1.11-2.82,2.17-4.27,3.16c-0.23,0.16-0.47,0.32-0.71,0.47c-0.97,0.66-1.95,1.29-2.95,1.89
		c-1.08,0.66-2.17,1.29-3.29,1.89c-0.3,0.17-0.61,0.33-0.94,0.49c-0.03,0.01-0.06,0.04-0.1,0.05c-1.66,0.87-3.36,1.69-5.08,2.43
		c-0.06,0.03-0.14,0.06-0.2,0.09c-0.87,0.38-1.73,0.73-2.61,1.07c-0.26,0.09-0.51,0.19-0.77,0.29c-0.04,0.02-0.09,0.04-0.13,0.05
		c-0.2,0.09-0.42,0.16-0.63,0.24c-0.14,0.05-0.27,0.1-0.42,0.15c-0.09,0.04-0.19,0.07-0.29,0.11c-1.16,0.41-2.33,0.79-3.5,1.15
		c-0.08,0.03-0.15,0.04-0.23,0.07c-0.7,0.21-1.39,0.4-2.1,0.59c-1.7,0.45-3.42,0.86-5.14,1.21c-0.01,0-0.03,0.01-0.04,0.01
		c-2.79,0.55-5.61,0.95-8.44,1.18c-0.48,0.05-0.94,0.08-1.42,0.11c-0.47,0.04-0.94,0.07-1.41,0.08c-0.75,0.05-1.49,0.07-2.25,0.08
		c-0.16,0.01-0.32,0.01-0.47,0.01c-0.21,0.01-0.42,0.01-0.63,0.01c-0.17,0.01-0.33,0.01-0.51,0.01c-0.33,0-0.67-0.01-1-0.01
		c-1.86-0.02-3.71-0.12-5.56-0.27c-0.22-0.02-0.44-0.04-0.66-0.07c-2.39-0.22-4.77-0.55-7.15-1c-0.18-0.04-0.37-0.07-0.56-0.11
		c-0.17-0.03-0.33-0.06-0.5-0.09c-0.06-0.01-0.12-0.04-0.18-0.04c-0.28-0.06-0.56-0.12-0.85-0.18c-0.08-0.01-0.16-0.04-0.24-0.05
		c-0.33-0.07-0.66-0.14-0.99-0.22c-2.8-0.65-5.59-1.47-8.34-2.45c-0.2-0.07-0.4-0.14-0.6-0.22c-0.29-0.1-0.57-0.21-0.85-0.32
		c-0.86-0.33-1.72-0.66-2.57-1.03c-0.01-0.01-0.03-0.01-0.04-0.02c-0.43-0.17-0.84-0.35-1.27-0.54c-0.1-0.04-0.19-0.09-0.29-0.14
		c-0.24-0.11-0.48-0.21-0.71-0.32c-0.38-0.17-0.77-0.34-1.14-0.51c-0.35-0.17-0.69-0.34-1.03-0.51c-0.28-0.14-0.56-0.29-0.84-0.43
		c-0.05-0.02-0.11-0.05-0.16-0.08c-0.33-0.16-0.65-0.34-0.97-0.51c-0.03-0.01-0.07-0.03-0.09-0.05c-0.05-0.02-0.09-0.05-0.14-0.08
		c-0.34-0.17-0.67-0.35-1-0.53c-0.19-0.11-0.39-0.22-0.58-0.33c-0.45-0.25-0.9-0.51-1.35-0.78c-0.19-0.12-0.38-0.22-0.57-0.35
		c-0.07-0.04-0.14-0.08-0.22-0.13c-0.27-0.17-0.55-0.33-0.82-0.5c-0.12-0.07-0.23-0.14-0.35-0.22c-0.4-0.25-0.81-0.51-1.2-0.78
		c-0.07-0.05-0.15-0.1-0.22-0.15l-0.06-0.04c-0.01-0.01-0.02-0.01-0.03-0.01c-0.21-0.13-0.4-0.26-0.6-0.41
		c-0.27-0.17-0.53-0.34-0.78-0.53c-0.03-0.01-0.06-0.04-0.09-0.06c-0.11-0.08-0.21-0.15-0.31-0.22c-0.26-0.18-0.51-0.35-0.77-0.53
		c-0.02-0.01-0.04-0.03-0.05-0.04c-0.61-0.43-1.2-0.87-1.78-1.33c-0.38-0.29-0.76-0.58-1.13-0.87c-0.45-0.36-0.9-0.73-1.34-1.1
		c-0.06-0.06-0.14-0.12-0.21-0.17c-0.62-0.51-1.23-1.05-1.83-1.6c-0.48-0.42-0.95-0.85-1.41-1.29c-1.23-1.14-2.4-2.32-3.54-3.53
		c-0.01-0.01-0.03-0.02-0.04-0.04c-0.87-0.92-1.7-1.86-2.51-2.82c-1.17-1.39-2.3-2.82-3.37-4.28c-0.87-1.2-1.73-2.42-2.53-3.66
		c-0.01-0.03-0.02-0.04-0.04-0.07c-0.87-1.34-1.7-2.7-2.47-4.09c-0.09-0.15-0.19-0.32-0.27-0.5c-0.55-0.96-1.05-1.94-1.55-2.93
		c-0.32-0.66-0.64-1.3-0.95-1.96c-1.06-2.3-2.01-4.64-2.85-7.03c-0.38-1.1-0.75-2.21-1.08-3.34c-0.03-0.09-0.06-0.17-0.08-0.27
		c-0.07-0.23-0.14-0.45-0.21-0.69c-0.18-0.63-0.35-1.26-0.52-1.89c-5.25-20.15-2.47-42.35,9.54-61.34
		C42.84,7.68,91.01-3.18,127.41,19.83C163.83,42.83,174.69,91,151.68,127.41z"/>
	<g>
		<g>
			<g>
				<g>
					<path class="st17" d="M69.02,161.94c-0.33-0.07-0.66-0.14-0.99-0.22c-2.8-0.65-5.59-1.47-8.34-2.45
						c-0.2-0.07-0.4-0.14-0.6-0.22c-0.29-0.1-0.57-0.21-0.85-0.32c-0.86-0.33-1.72-0.66-2.57-1.03c-0.01-0.01-0.03-0.01-0.04-0.02
						c-0.43-0.17-0.84-0.35-1.27-0.54c-0.1-0.04-0.19-0.09-0.29-0.14c-0.24-0.11-0.48-0.21-0.71-0.32
						c0.66-7.91,1.26-15.61,1.7-22.13h8.09L70,147.17C70.34,149.78,69.9,155.27,69.02,161.94z"/>
				</g>
				<path class="st18" d="M68.08,157.19c-0.02,1.5-0.04,3.01-0.05,4.53c-2.8-0.65-5.59-1.47-8.34-2.45c-0.2-0.07-0.4-0.14-0.6-0.22
					c-0.56-3.08-1.16-6.2-1.68-9.37L68.08,157.19z"/>
			</g>
		</g>
		<g>
			<path class="st17" d="M84.71,163.74c-1.86-0.02-3.71-0.12-5.56-0.27c-0.22-0.02-0.44-0.04-0.66-0.07c-2.39-0.22-4.77-0.55-7.15-1
				c-0.18-0.04-0.37-0.07-0.56-0.11c-0.17-0.03-0.33-0.06-0.5-0.09c-0.06-0.01-0.12-0.04-0.18-0.04c-0.28-0.06-0.56-0.12-0.85-0.18
				c-0.08-0.01-0.16-0.04-0.24-0.05c-0.33-0.07-0.66-0.14-0.99-0.22c-2.8-0.65-5.59-1.47-8.34-2.45c-0.2-0.07-0.4-0.14-0.6-0.22
				c-0.29-0.1-0.57-0.21-0.85-0.32c-0.86-0.33-1.72-0.66-2.57-1.03c-0.01-0.01-0.03-0.01-0.04-0.02c-0.43-0.17-0.84-0.35-1.27-0.54
				c-0.1-0.04-0.19-0.09-0.29-0.14c-0.24-0.11-0.48-0.21-0.71-0.32c-0.38-0.17-0.77-0.34-1.14-0.51c-0.35-0.17-0.69-0.34-1.03-0.51
				c-1.31-2.53-2.34-4.8-2.53-6.62c-0.09-0.83,10.97-33.33,13.15-33.89c4.02-1.03,9.55-2,15.56-2.75c5.54-0.69,11.49-1.2,17.04-1.39
				c0.92-0.03,1.82-0.06,2.71-0.07c1.19-0.02,2.35-0.03,3.47-0.01c5.91,0.07,10.88,0.61,13.68,1.83c0.01,0,0.01,0.01,0.03,0.01
				c1.43,0.63,2.28,1.43,2.4,2.43c0.29,2.52-0.9,9.34-2.41,19.77c0,0-0.01,0,0,0.01l-0.13,0.91c-0.14,0.95-0.27,1.88-0.41,2.77
				c-0.63,4.15-1.24,7.49-1.74,8.95c-0.06,0.18-0.12,0.33-0.17,0.46c-0.09,0.2-0.2,0.43-0.32,0.69l-0.01,0.01
				c0,0.01,0,0.01-0.01,0.03c-0.06,0.15-0.15,0.32-0.23,0.49c-0.04,0.09-0.09,0.19-0.14,0.29c-0.1,0.19-0.19,0.4-0.3,0.62
				c0,0.01,0,0.01,0,0.01c-0.74,1.54-1.69,3.55-2.75,5.98c-0.51,1.16-1.05,2.42-1.6,3.77c-0.15,0.37-0.3,0.74-0.44,1.12
				c-1.7,0.45-3.42,0.86-5.14,1.21c-0.01,0-0.03,0.01-0.04,0.01c-2.79,0.55-5.61,0.95-8.44,1.18c-0.48,0.05-0.94,0.08-1.42,0.11
				c-0.47,0.04-0.94,0.07-1.41,0.08c-0.75,0.05-1.49,0.07-2.25,0.08c-0.16,0.01-0.32,0.01-0.47,0.01c-0.21,0.01-0.42,0.01-0.63,0.01
				c-0.17,0.01-0.33,0.01-0.51,0.01C85.38,163.75,85.04,163.75,84.71,163.74z"/>
			<path class="st18" d="M114.15,135.88c-0.13,0.95-0.27,1.88-0.41,2.76c-0.71,4.66-1.39,8.29-1.92,9.41
				c-0.7,1.5-2.1,4.31-3.77,8.11c-0.51,1.17-1.05,2.42-1.6,3.77c-3.17,1.49-6.75,2.53-10.67,2.35c-5.06-0.24-9.1-1.87-13.08-5.02
				c4.3,1.98,32.04,1.37,30.46-24.42L114.15,135.88z"/>
		</g>
		<g>
			<g>
				<path class="st18" d="M96.31,111.17l-1.93-0.04l-18.56,1.56c0,0-2.22,10.95-2.69,14.64c-0.68,5.44-1.49,21.88-1.49,21.88
					S99.77,112.51,96.31,111.17z"/>
				<path class="st1" d="M73.13,145.03c0,0,2.08-27.53,4.2-32.3l0.19-2.4l-0.09-4.96l-0.23-12.65l20.16-6.47L96.7,96.93l-2.32,14.2
					C97.84,112.47,73.13,145.03,73.13,145.03z"/>
				<path class="st19" d="M97.73,95.57c0,0-1.32,8.92-20.28,11.29l-0.09-4.96l-0.23-12.65l13.23-3.67l3.78,8.54l0.8,1.8
					C94.65,96.13,98.04,95.36,97.73,95.57z"/>
			</g>
			<g>
				<path class="st6" d="M71.18,89.3L71,89.23C71.06,89.26,71.12,89.28,71.18,89.3z"/>
			</g>
			<g>
				<path class="st6" d="M71.53,89.51l-0.2-0.01C71.31,89.57,71.41,89.55,71.53,89.51z"/>
			</g>
			<g>
				<g>
					<path class="st6" d="M73.37,88.48l-0.08-0.04C73.31,88.46,73.34,88.47,73.37,88.48z"/>
				</g>
			</g>
			<g>
				<path class="st20" d="M80.16,77.08c1.44-7.84,3.4-15.65,6.54-22.94l-6.81-1.99c0.67,0.1,5.18-4.05,6.32-5.01
					c1.25-1.05,6.88-4.38,8.11-5.38c-2.13-2.36-8.26-2.83-11.29-2.57c-5.26,0.45-10.92,5.2-13.79,9.49
					c-5.55,8.29-8.86,18.52-11.72,28.01c-1.45,4.82-2.9,9.66-4.65,14.37c-0.89,2.38,5.35,7.56,7.68,8.4c0.41-1,1.67-2.7,2.08-3.72
					c-0.29,1.26,0.51,2.87,0.52,4.15c2.59,0.68,12.45,2.6,13.67,1.78c1.44-0.96,0.95-7.25,1.18-9.01
					C78.66,87.45,79.21,82.24,80.16,77.08z"/>
				<path class="st1" d="M106.3,82.9c-1.86,4.37-11.09,14.25-11.41,14.46c-4.54,2.94-12.13,4.36-17.45,4.72
					c-0.63,0.04-1.24,0.06-1.82,0.06c-4.17-0.04-15.64-16.17-10.24-29.91c3.2-8.12,4.16-17.48,10.33-23.66
					c7.23-7.24,24.09-1.48,26.79,2.22C108.49,58.96,110.08,73.99,106.3,82.9z"/>
				<g>
					<g>
						<g>
							<path class="st19" d="M76.01,77c-0.87,0.47-1.71,0.79-1.03,2.02c0.95,1.71,3.43,1.79,4.44,1.75
								c-0.57-0.22-3.1-1.36-3.75-2.16C75.23,78.06,78.9,75.44,76.01,77z"/>
						</g>
					</g>
				</g>
				<path class="st20" d="M70.53,60.12l-0.26,0.29c1.03-0.98,5.52-0.94,6.15,0.42C77.96,55.6,72,58.33,70.53,60.12z"/>
				<path class="st20" d="M99.3,68.49l0.11,0.41c-0.53-1.52-5.46-4.72-6.96-4.07C93.93,59.54,98.79,66,99.3,68.49z"/>
				<path class="st21" d="M71.75,84.57l-0.11-0.03c0.03,0.13,3.12,4.67,3.84,6.65c0.51,1.4,7.94,5.28,11.95-4.49
					C86.64,88.63,74.24,85.37,71.75,84.57z"/>
				<g>
					<path class="st2" d="M81.49,92.85c-1.89,0.63-4.18-0.09-5.28-1.81c0,0-1.21-1.91-0.49-2.32c0.09-0.05,0.22-0.08,0.38-0.08
						c1.31,0.03,7.2,0.34,8.7,0.55C84.1,92.44,83.23,92.27,81.49,92.85z"/>
				</g>
				<path class="st2" d="M85.93,87.41c-0.5,0.96-0.91,1.92-2.04,2.21c-1.61,0.42-3.43,0.42-5.09,0.09
					c-1.09-0.21-2.11-0.43-2.98-0.94c-0.55-0.32-1.03-0.75-1.42-1.36c-0.52-0.8-1.06-1.9-1.27-2.99l11.6,2.7L85.93,87.41z"/>
				<path class="st8" d="M86.23,86.96c-0.5,0.96-1.21,2.37-2.35,2.66c-1.61,0.42-3.43,0.42-5.09,0.09
					c-1.09-0.21-2.11-0.43-2.98-0.94c0.43,0.13,0.87,0.23,1.34,0.26c1.23,0.09,2.42,0.21,3.67,0.19c0.96-0.02,1.89-0.12,2.75-0.55
					c0.76-0.37,0.98-0.93,1.15-1.55L86.23,86.96z"/>
				<g>
					<path class="st2" d="M98.28,77.88c0.05-3.59-1.58-9.44-8.68-6.18c-2.2,0.73-4.14,2.03-4.59,2.34
						c-0.03,0.02-0.06,0.04-0.07,0.05c-0.02,0.01-0.03,0.01-0.03,0.01c0.1,0.07,0.2,0.14,0.3,0.21c0.42,0.3,0.84,0.6,1.26,0.89
						c0.31,0.21,0.63,0.42,0.95,0.63c0.11,0.07,0.21,0.14,0.32,0.21c0.11,0.07,0.21,0.13,0.32,0.2c0.13,0.08,0.26,0.16,0.39,0.24
						l0.46,0.27c0.25,0.15,0.51,0.29,0.77,0.43c0.05,0.03,0.1,0.06,0.16,0.08c0.15,0.08,0.31,0.16,0.46,0.24
						c0.01,0.01,0.03,0.02,0.04,0.02c0.14,0.07,0.28,0.15,0.43,0.21c0.09,0.05,0.18,0.09,0.28,0.13c0.1,0.05,0.2,0.1,0.3,0.14
						c0.12,0.06,0.25,0.11,0.37,0.17c0.13,0.06,0.27,0.12,0.41,0.18c0.02,0.01,0.05,0.02,0.07,0.03c0.06,0.02,0.11,0.05,0.17,0.07
						c0.11,0.05,0.23,0.09,0.34,0.14c0.23,0.09,0.47,0.18,0.7,0.26c0.12,0.04,0.24,0.08,0.35,0.12c0.12,0.04,0.24,0.08,0.36,0.11
						c0.11,0.03,0.21,0.06,0.32,0.09c0.03,0.01,0.05,0.01,0.08,0.02c0.23,0.06,0.46,0.12,0.69,0.18c0.5,0.12,1.02,0.22,1.54,0.3
						c0.21,0.03,0.42,0.06,0.63,0.08l0.01,0c0.21,0.03,0.42,0.05,0.63,0.06c0.02-0.06,0.03-0.11,0.05-0.17
						C98.24,79.08,98.31,78.48,98.28,77.88z"/>
					<g>
						<g>
							<path class="st22" d="M96.48,75.48c-0.49,2.24-2.11,3.8-3.61,3.47c-1.5-0.33-2.33-2.42-1.84-4.66
								c0.49-2.24,2.11-3.8,3.61-3.47C96.15,71.16,96.97,73.24,96.48,75.48z"/>
							<path class="st23" d="M95.55,75.12c-0.34,1.56-1.4,2.66-2.37,2.45c-0.97-0.21-1.48-1.65-1.14-3.21
								c0.34-1.56,1.4-2.66,2.37-2.44C95.38,72.12,95.89,73.56,95.55,75.12z"/>
							<path class="st2" d="M97.58,74.05l-3.19-0.09c0,0,1.96,1.85,2.69,1.58C97.44,75.41,97.58,74.05,97.58,74.05z"/>
						</g>
						<path class="st6" d="M98.03,79.83c0.14-0.45,0.24-1.14,0.25-1.95c0.05-3.59-1.58-9.44-8.68-6.18
							c-2.25,1.03-4.4,2.24-4.67,2.39c-0.02,0.01-0.03,0.01-0.03,0.01s7.23-10.09,13.28-5.99C101.24,70.16,99.79,77.29,98.03,79.83z
							"/>
						<path class="st6" d="M97.39,79.77c-6.15,0.8-10.51-3.16-12.18-5.45c0.42,0.3,0.84,0.6,1.26,0.89
							c0.31,0.21,0.63,0.42,0.95,0.63c0.11,0.07,0.21,0.14,0.32,0.21c0.11,0.07,0.21,0.13,0.32,0.2c0.13,0.08,0.26,0.16,0.39,0.24
							l0.46,0.27c0.25,0.15,0.51,0.29,0.77,0.43c0.05,0.03,0.1,0.06,0.16,0.08c0.15,0.08,0.31,0.16,0.46,0.24
							c0.01,0.01,0.03,0.02,0.04,0.02c0.14,0.07,0.28,0.15,0.43,0.21c0.09,0.05,0.18,0.09,0.28,0.13c0.1,0.05,0.2,0.1,0.3,0.14
							c0.12,0.06,0.25,0.11,0.37,0.17c0.13,0.06,0.27,0.12,0.41,0.18c0.02,0.01,0.05,0.02,0.07,0.03c0.06,0.02,0.11,0.05,0.17,0.07
							c0.11,0.05,0.23,0.09,0.34,0.14c0.23,0.09,0.47,0.18,0.7,0.26c0.12,0.04,0.24,0.08,0.35,0.12c0.12,0.04,0.24,0.08,0.36,0.11
							c0.11,0.03,0.21,0.06,0.32,0.09c0.03,0.01,0.05,0.01,0.08,0.02c0.23,0.06,0.46,0.12,0.69,0.18c0.5,0.12,1.02,0.22,1.54,0.3
							C96.97,79.72,97.18,79.75,97.39,79.77z"/>
					</g>
				</g>
				<g>
					<path class="st2" d="M67.85,66.94c2-2.24,6.24-4.93,8.38,0.96c0.82,1.65,1.18,3.52,1.26,3.96c0.01,0.03,0.01,0.05,0.01,0.07
						c0,0.02,0.01,0.02,0.01,0.02c-0.1-0.01-0.19-0.02-0.29-0.03c-0.41-0.04-0.81-0.09-1.21-0.15c-0.3-0.04-0.59-0.08-0.89-0.13
						c-0.1-0.02-0.2-0.03-0.3-0.05c-0.1-0.02-0.2-0.03-0.29-0.05c-0.12-0.02-0.24-0.05-0.36-0.07l-0.41-0.08
						c-0.23-0.05-0.45-0.1-0.68-0.15c-0.05-0.01-0.09-0.02-0.14-0.03c-0.13-0.03-0.27-0.07-0.4-0.1c-0.01,0-0.02-0.01-0.04-0.01
						c-0.12-0.03-0.24-0.07-0.36-0.1c-0.08-0.02-0.15-0.04-0.23-0.07c-0.08-0.03-0.17-0.05-0.25-0.08c-0.1-0.03-0.2-0.06-0.31-0.1
						c-0.11-0.04-0.22-0.08-0.33-0.12c-0.02-0.01-0.04-0.01-0.05-0.02c-0.05-0.02-0.09-0.03-0.14-0.05
						c-0.09-0.03-0.18-0.07-0.27-0.11c-0.18-0.07-0.36-0.15-0.54-0.23c-0.09-0.04-0.18-0.08-0.27-0.12
						c-0.09-0.04-0.18-0.08-0.26-0.13c-0.08-0.04-0.15-0.08-0.23-0.12c-0.02-0.01-0.04-0.02-0.05-0.03
						c-0.16-0.09-0.33-0.18-0.49-0.27c-0.35-0.2-0.7-0.42-1.04-0.66c-0.13-0.1-0.27-0.19-0.4-0.3l-0.01,0
						c-0.13-0.1-0.26-0.2-0.39-0.31c0.02-0.04,0.04-0.09,0.07-0.13C67.2,67.7,67.5,67.29,67.85,66.94z"/>
					<g>
						<path class="st22" d="M76.24,68.1c-0.49,2.24-2.11,3.8-3.61,3.47c-1.5-0.33-2.33-2.41-1.84-4.66c0.49-2.24,2.11-3.8,3.61-3.47
							C75.91,63.77,76.73,65.85,76.24,68.1z"/>
						<path class="st23" d="M75.31,67.74c-0.34,1.56-1.4,2.66-2.37,2.45c-0.97-0.21-1.48-1.65-1.14-3.21
							c0.34-1.56,1.4-2.66,2.37-2.45C75.14,64.73,75.65,66.17,75.31,67.74z"/>
						<path class="st2" d="M77.34,66.66l-3.19-0.09c0,0,1.96,1.85,2.69,1.58C77.2,68.02,77.34,66.66,77.34,66.66z"/>
					</g>
					<path class="st6" d="M66.89,68.28c0.18-0.35,0.51-0.83,0.96-1.34c2-2.24,6.24-4.93,8.38,0.96c0.68,1.87,1.21,3.79,1.27,4.03
						c0,0.02,0.01,0.02,0.01,0.02s1.65-10.16-4.08-10.97C70.56,60.57,67.34,65.75,66.89,68.28z"/>
					<path class="st6" d="M67.29,68.59c3.01,3.86,7.7,3.82,9.93,3.33c-0.41-0.04-0.81-0.09-1.21-0.15c-0.3-0.04-0.59-0.08-0.89-0.13
						c-0.1-0.02-0.2-0.03-0.3-0.05c-0.1-0.02-0.2-0.03-0.29-0.05c-0.12-0.02-0.24-0.05-0.36-0.07l-0.41-0.08
						c-0.23-0.05-0.45-0.1-0.68-0.15c-0.05-0.01-0.09-0.02-0.14-0.03c-0.13-0.03-0.27-0.07-0.4-0.1c-0.01,0-0.02-0.01-0.04-0.01
						c-0.12-0.03-0.24-0.07-0.36-0.1c-0.08-0.02-0.15-0.04-0.23-0.07c-0.08-0.03-0.17-0.05-0.25-0.08c-0.1-0.03-0.2-0.06-0.31-0.1
						c-0.11-0.04-0.22-0.08-0.33-0.12c-0.02-0.01-0.04-0.01-0.05-0.02c-0.05-0.02-0.09-0.03-0.14-0.05
						c-0.09-0.03-0.18-0.07-0.27-0.11c-0.18-0.07-0.36-0.15-0.54-0.23c-0.09-0.04-0.18-0.08-0.27-0.12
						c-0.09-0.04-0.18-0.08-0.26-0.13c-0.08-0.04-0.15-0.08-0.23-0.12c-0.02-0.01-0.04-0.02-0.05-0.03
						c-0.16-0.09-0.33-0.18-0.49-0.27c-0.35-0.2-0.7-0.42-1.04-0.66C67.56,68.79,67.42,68.69,67.29,68.59z"/>
				</g>
				<path class="st24" d="M79.03,84.42c-0.01-0.01-0.03-0.02-0.05-0.03c-0.51,0.18-1.15,0.49-1.71,0.51
					c-0.56,0.02-1.06-0.41-1.48-0.73c-0.74-0.57-0.74-0.64-1.59-0.32c-0.43,0.15-1.29,0.5-1.94,0.5c-0.71-0.19-1.18-0.32-1.18-0.32
					s3.33,5.88,3.99,7.29c0.53,1.14,1.31,1.94,2.14,2.48c0.01,0.01,0.01,0.01,0.02,0.01c0.22,0.15,0.45,0.27,0.69,0.38
					c1.5,0.73,3.01,0.74,3.49,0.58c2.3-0.81,4.13-3.06,5.38-5.11c0.97-1.59,1.6-3.04,1.81-3.58c0.06-0.15,0.09-0.23,0.09-0.23
					C87.21,85.49,83.14,87.28,79.03,84.42z M85.35,87.3c0.04-0.01,0.07-0.01,0.1-0.01c0.23-0.01,0.44-0.02,0.62-0.04h0.01
					c0.11-0.01,0.21-0.01,0.3-0.02c0.01,0,0.01,0,0.01,0c0.03,0,0.06-0.01,0.09-0.01c-0.04,0.06-0.23,0.45-0.55,1.02
					c-0.33,0.57-0.79,1.31-1.35,2.1c-0.01,0-0.01,0.01-0.01,0.01c-0.04,0.06-0.09,0.11-0.13,0.17l-0.01,0.01
					c-0.09,0.12-0.17,0.25-0.27,0.37c-0.42,0.54-3.21,2.22-5.79,1.44h-0.01c-0.12-0.03-0.22-0.06-0.32-0.11
					c-0.3-0.12-0.58-0.26-0.87-0.45c-0.4-0.27-0.78-0.61-1.14-1.05c0,0,0-0.01-0.01-0.01c-0.5-0.62-1.13-1.63-1.75-2.66
					c-0.62-1.04-1.23-2.1-1.7-2.84c0.26,0.08,0.55,0.16,0.86,0.24c0.07,0.02,0.14,0.04,0.21,0.07c1.04,0.28,2.3,0.61,3.6,0.91
					c0.09,0.02,0.16,0.04,0.25,0.06c0.43,0.09,0.84,0.18,1.24,0.26c1.42,0.27,2.69,0.41,3.78,0.48c0.48,0.04,0.92,0.06,1.32,0.06
					h0.27c0.21,0.01,0.4,0.01,0.58,0h0.01c0.22,0,0.4,0,0.59-0.01H85.35z"/>
				<path class="st19" d="M76.9,95.59c0.18,0.49,0.46,1.02,0.66,1.53c1.06-1.37,2.57-1.18,4.17-1.33
					C81.73,95.78,77.88,94.89,76.9,95.59z"/>
				<g>
					<path class="st20" d="M122.08,75.66c-7.29-36.89-20.36-37.15-31.65-32.59c-4.76,1.92-8.03,10.25-8.03,10.25
						s14.06,1.83,16.16,14.45c1.56,9.38,7.58,8.98,5.56,13.4c-4.95,10.84-9.28,20.35-18.71,25.12c0.53,0.12,11.46,6.11,15.14,4.66
						c1.6-0.63,3.41-5.96,3.41-5.96l-0.45,5.49c0,0,12.74,0.8,18.87-7.9C123.91,100.4,123.26,81.66,122.08,75.66z"/>
					<path class="st20" d="M84.38,43.2c-2.28-0.33-4.98,0.06-7.21,0.6c-1.42,0.35-4.26,1.65-4.84,2.9l-2.13,4.75
						c1.8-1.05,4.58-0.68,6.56-0.25c1.51,0.33,3.28,0.73,4.47,1.73c0.52-1.91,2.47-3.85,3.83-5.22c1.32-1.34,2.66-2.3,4.18-3.28
						C87.64,43.99,86.05,43.44,84.38,43.2z"/>
				</g>
				<g>
					<g>
						<path class="st1" d="M109.73,77.45c-1.47-1-3.81-0.24-5.05,0.59c-1.82,1.23-4.8,6.4-3.42,8.09c2.21,2.71,8.03-1.04,9.26-4.16
							C111.03,80.67,111.06,78.35,109.73,77.45z"/>
						<path class="st19" d="M110.06,80.52c0.21-3.95-5.49-3.21-6.28-0.1c1.29-0.41,1.8,1.44,1.23,2.32
							c-0.63,0.97-2.16,0.84-2.52-0.27c-0.29,1.73,2.26,1.91,3.26,1.1c1.25-1.02,0.95-3.18-0.5-3.86c1.48-1.87,4.96-0.72,4.5,1.75
							L110.06,80.52z"/>
					</g>
				</g>
			</g>
		</g>
		<path class="st18" d="M106.01,161.06c-1.7,0.45-3.42,0.86-5.14,1.21c0.08-0.16,0.16-0.31,0.25-0.46c0.5-0.94,1.05-1.81,1.65-2.62
			l8.04-9c0,0.01,0,0.01,0,0.01c-0.74,1.54-1.69,3.55-2.75,5.98c-0.51,1.16-1.05,2.42-1.6,3.77
			C106.3,160.31,106.16,160.68,106.01,161.06z"/>
	</g>
	<g>
		<g>
			<path class="st17" d="M121.98,154.82c-1.66,0.87-3.36,1.69-5.08,2.43c-0.06,0.03-0.14,0.06-0.2,0.09
				c-0.87,0.38-1.73,0.73-2.61,1.07c-0.69-3.59-1.39-7.22-2.09-10.81c-0.01-0.09-0.04-0.18-0.05-0.27c-0.14-0.74-0.29-1.47-0.43-2.2
				c-0.03-0.18-0.07-0.36-0.1-0.55c-2.63-13.41-5.17-25.81-6.74-32.27c0,0,4.75-0.97,9.59,0.45c0.01,0,0.01,0.01,0.03,0.01
				c2.05,0.61,4.12,1.65,5.84,3.37c4.16,4.16,7.17,18.59,9.11,34.36c-0.97,0.66-1.95,1.29-2.95,1.89c-1.08,0.66-2.17,1.29-3.29,1.89
				c-0.3,0.17-0.61,0.33-0.94,0.49C122.05,154.78,122.01,154.81,121.98,154.82z"/>
			<path class="st18" d="M114.28,134.97c0.5,5.44,1.31,13.59,2.41,22.37c-0.87,0.38-1.73,0.73-2.61,1.07
				c-0.26,0.09-0.51,0.19-0.77,0.29c-0.04,0.02-0.09,0.04-0.13,0.05c-0.58-2.91-1.15-5.78-1.69-8.56v-1.44l0.01-0.01
				c-0.01-1.2,0-2.4,0.01-3.61c0.01-0.28,0.01-0.56,0.01-0.84c0.1-5.86,0.52-11.66,2.16-16.1
				C113.69,128.19,113.89,130.77,114.28,134.97C114.28,134.96,114.27,134.96,114.28,134.97z"/>
		</g>
	</g>
</g>
</svg>
