<?xml version="1.0" encoding="utf-8"?>
<!-- Generator: Adobe Illustrator 27.2.0, SVG Export Plug-In . SVG Version: 6.00 Build 0)  -->
<svg version="1.1" id="Layer_1" xmlns="http://www.w3.org/2000/svg" xmlns:xlink="http://www.w3.org/1999/xlink" x="0px" y="0px"
	 viewBox="0 0 171.51 171.51" style="enable-background:new 0 0 171.51 171.51;" xml:space="preserve">
<style type="text/css">
	.st0{fill:#F7F2DA;}
	.st1{fill:#FBA479;}
	.st2{fill:#FFFFFF;}
	.st3{fill:#E1DFEA;}
	.st4{fill:#261411;}
	.st5{fill:#60312B;}
	.st6{fill:#EF7950;}
	.st7{fill:#60281F;}
	.st8{fill:#E8E6E6;}
	.st9{fill:#3A2827;}
	.st10{fill:#CCCCCC;}
	.st11{fill:#595857;}
	.st12{fill:#F28C5F;}
	.st13{fill:#E26939;}
	.st14{fill:#56413D;}
	.st15{fill:#44322E;}
	.st16{fill:#873421;}
	.st17{fill:#EA6CA0;}
	.st18{fill:#DB5290;}
	.st19{fill:#F48656;}
	.st20{fill:#82112F;}
	.st21{fill:#D85039;}
	.st22{fill:#574984;}
	.st23{fill:#291C51;}
	.st24{fill:#FC5135;}
	.st25{fill:#FFCC7B;}
	.st26{fill:#E8A749;}
	.st27{fill:#6D4A44;}
	.st28{fill:#D1E3E8;}
	.st29{fill:#FCFBFA;}
	.st30{fill:#4C4C4B;}
	.st31{fill:#686868;}
	.st32{fill:#FFB884;}
	.st33{fill:#EF9C62;}
	.st34{fill:#874410;}
	.st35{fill:#6D340D;}
	.st36{fill:#E89258;}
	.st37{fill:#3A2E26;}
	.st38{fill:#4C3F35;}
	.st39{opacity:0.1;}
	.st40{fill:#60120F;}
	.st41{fill:#F4F0ED;}
	.st42{fill:#E0312D;}
	.st43{fill:#F42F2F;}
	.st44{fill:#D31111;}
	.st45{fill:#DB9B19;}
	.st46{fill:#AF740B;}
	.st47{fill:#CC2121;}
	.st48{fill:#F74B4B;}
	.st49{fill:#FCF9E8;}
	.st50{opacity:0.5;fill:#827571;}
	.st51{fill:#665D5C;}
	.st52{fill:#4F4746;}
	.st53{fill:#5E3B2F;}
	.st54{fill:#492E27;}
	.st55{opacity:0.4;}
	.st56{fill:#443A36;}
	.st57{fill:#51415E;}
	.st58{fill:#066FB7;}
	.st59{fill:#066396;}
	.st60{fill:#0D8FD6;}
	.st61{fill:#FEAC74;}
	.st62{fill:#E3784C;}
	.st63{fill:#580801;}
	.st64{fill:#440502;}
	.st65{fill:#00ABB2;}
	.st66{fill:#008C8C;}
	.st67{fill:#914E34;}
	.st68{fill:#5B2E1D;}
	.st69{fill:#6A3221;}
	.st70{fill:#FAFAFC;}
	.st71{fill:#2B3B3F;}
	.st72{fill:#3F565B;}
	.st73{fill:#EF7348;}
	.st74{fill:#6F3D26;}
	.st75{fill:#BBBEBF;}
	.st76{fill:#D3D3D3;}
	.st77{fill:#939A9E;}
	.st78{fill:#F79C5E;}
	.st79{fill:#E07832;}
	.st80{fill:#604135;}
	.st81{fill:#EFEAE8;}
	.st82{fill:#4F3229;}
	.st83{fill:#1A3D3A;}
	.st84{fill:#E8E8E8;}
	.st85{fill:#0C83C4;}
	.st86{fill:#1B96EA;}
	.st87{fill:#B50F0F;}
	.st88{opacity:0.4;fill:#E89258;}
	.st89{fill:#26ACF7;}
	.st90{fill:#F45347;}
	.st91{fill:#FF3939;}
	.st92{fill:#686766;}
	.st93{fill:#5E5D5B;}
	.st94{fill:#424140;}
	.st95{fill:#E7E1CB;}
	.st96{fill:#D6CFBA;}
	.st97{fill:#CE5C37;}
	.st98{fill:#B74D30;}
	.st99{fill:#1B313D;}
	.st100{fill:#36474F;}
	.st101{fill:#29526D;}
	.st102{fill:#FCBD88;}
	.st103{fill:#FCA265;}
	.st104{fill:#496B7A;}
	.st105{fill:#B76049;}
	.st106{fill:#EDEDED;}
	.st107{fill:#7C7979;}
	.st108{fill:#EFE6E8;}
	.st109{fill:#B20D28;}
	.st110{fill:#346682;}
	.st111{fill:#AA0E28;}
	.st112{fill:#FF5050;}
	.st113{fill:#781A0E;}
	.st114{fill:#560904;}
	.st115{fill:#FF0B40;}
	.st116{fill:#BC0000;}
	.st117{fill:#FFD731;}
	.st118{fill:#EA6453;}
	.st119{fill:#602618;}
	.st120{fill:#A14F2A;}
	.st121{fill:#3A4E66;}
	.st122{fill:#EAE9EE;}
	.st123{opacity:0.3;fill:#3A4E66;}
	.st124{fill:#5E2701;}
	.st125{fill:#773000;}
	.st126{fill:#EA2F4A;}
	.st127{fill:#C41234;}
	.st128{fill:#F7F0F1;}
	.st129{fill:#F7A76F;}
	.st130{fill:#B24800;}
	.st131{fill:#8C3B03;}
	.st132{fill:#567391;}
	.st133{fill:#FF7271;}
	.st134{fill:#F75E5E;}
	.st135{fill:#700F28;}
	.st136{fill:#9E1533;}
	.st137{fill:#871231;}
	.st138{fill:#211B3A;}
	.st139{fill:#2E2951;}
	.st140{fill:#F28670;}
	.st141{fill:#F46060;}
	.st142{fill:#EBBF44;}
	.st143{fill:#E0A91E;}
	.st144{fill:#FFA992;}
	.st145{fill:#2C363F;}
	.st146{fill:#1D262D;}
	.st147{fill-rule:evenodd;clip-rule:evenodd;fill:#FFF5F5;}
	.st148{opacity:0.2;}
	.st149{fill:#7C4949;}
	.st150{fill:#F9AE7A;}
	.st151{fill:#FFF5F5;}
	.st152{fill:#C92727;}
	.st153{fill:#4C1B05;}
	.st154{fill:#592009;}
	.st155{opacity:0.4;fill:#592009;}
	.st156{fill:#3F1307;}
	.st157{fill:#664472;}
	.st158{fill:#473051;}
	.st159{fill:#352020;}
	.st160{opacity:0.3;fill:#7C4949;}
</style>
<g>
	<path class="st49" d="M163.74,85.75c0,27.18-13.91,51.12-34.99,65.07c-0.1,0.07-0.19,0.14-0.3,0.2c-0.14,0.09-0.27,0.19-0.41,0.27
		c-1,0.65-2.03,1.28-3.07,1.88c-0.01,0.01-0.01,0.01-0.01,0.01c-3.24,1.9-6.64,3.56-10.16,4.98c-6.61,2.66-13.66,4.43-21.02,5.18
		c-2.64,0.27-5.31,0.41-8.02,0.41c-0.64,0-1.28-0.01-1.92-0.03c-1.53-0.03-3.05-0.12-4.56-0.24c-5.21-0.43-10.28-1.37-15.16-2.78
		c-1.9-0.54-3.76-1.16-5.6-1.84C28.88,147.8,7.77,119.25,7.77,85.75c0-43.07,34.91-77.99,77.99-77.99S163.74,42.68,163.74,85.75z"/>
	<g>
		<path class="st50" d="M104.59,139.9L104.59,139.9c-0.01,2.69-0.53,5.36-1,7.65c-0.75,3.68-2.24,7.24-4.46,10.29
			c-1.37,1.88-2.97,4.09-5.34,5.49c-2.64,0.27-5.31,0.41-8.02,0.41c-0.64,0-1.28-0.01-1.92-0.03c-2.01-1.07-3.29-2.83-3.77-4.64
			c-2.14-8.03-0.64-10.8,0.57-14.72c0.46-1.46,1.63-3.88,2.48-6.2c0.04-0.11,0.09-0.22,0.12-0.33c0.28-0.04,0.56-0.07,0.83-0.11
			c0.01,0,0.01,0,0.01,0c0.56-0.07,1.08-0.14,1.58-0.19c2.26-0.27,3.93-0.45,4.4-0.44c2.69,0.06,5.03,0.33,7.38,0.82
			c0.33,0.07,0.66,0.14,1,0.22c0.38,0.09,0.77,0.18,1.16,0.28c0.01,0.01,0.01,0.01,0.02,0.01c0.45,0.12,0.9,0.24,1.35,0.36
			c0.06,0.02,0.13,0.04,0.19,0.06c0.53,0.15,1.06,0.31,1.61,0.48c0.27,0.09,0.54,0.17,0.81,0.26
			C103.92,139.68,104.25,139.79,104.59,139.9z"/>
		<g>
			<g>
				<path class="st51" d="M79.27,163.47c-5.21-0.43-10.28-1.37-15.16-2.78c-1.9-0.54-3.76-1.16-5.6-1.84
					c0.41-5.51,1.13-9.93,2.43-12.54c1.13-2.26,2.57-3.5,4.14-4.01c3.96-1.29,8.67,2.07,10.9,5.57
					C77.23,149.81,78.44,155.6,79.27,163.47z"/>
				<path class="st52" d="M128.44,151.59c0-0.23-0.14-0.33-0.4-0.3c-1,0.65-2.03,1.28-3.07,1.88c-0.01,0.01-0.01,0.01-0.01,0.01
					c-3.24,1.9-6.64,3.56-10.16,4.98c-6.61,2.66-13.66,4.43-21.02,5.18c-2.64,0.27-5.31,0.41-8.02,0.41c-0.64,0-1.28-0.01-1.92-0.03
					c-1.53-0.03-3.05-0.12-4.56-0.24c-5.21-0.43-10.28-1.37-15.16-2.78c-0.56-5.93-0.68-11.83,0.97-18.39
					c0.09-0.39,0.2-0.78,0.31-1.17c0,0,9.69-1.68,16.95-2.85c0.26-0.04,0.52-0.08,0.77-0.12c0.01,0,0.02-0.01,0.04-0.01
					c0.32-0.05,0.64-0.1,0.94-0.14h0.01c0.55-0.09,1.07-0.17,1.56-0.25c2.25-0.34,3.9-0.56,4.37-0.56c2.7,0.01,5.06,0.25,7.41,0.71
					c0.33,0.07,0.66,0.14,1,0.22c0.38,0.09,0.77,0.18,1.16,0.28c0.01,0.01,0.01,0.01,0.02,0.01c0.45,0.12,0.9,0.24,1.35,0.36v0.01
					c0.06,0.01,0.13,0.04,0.19,0.05c0.53,0.15,1.06,0.32,1.61,0.49c0.27,0.08,0.54,0.17,0.81,0.25c0.34,0.11,0.67,0.22,1,0.33h0.01
					c5.02,1.63,9.57,3.34,14.36,5.44c0.97,0.43,1.94,0.86,2.93,1.31c1.95,0.9,5.73,1.68,6.46,3.84c0.05,0.17,0.09,0.34,0.11,0.52
					C128.47,151.2,128.47,151.39,128.44,151.59z"/>
				<g>
					<g>
						<path class="st32" d="M81.85,108.95l2.42,31.28c-0.62,1.06-1.18,2.22-1.64,3.45c-0.88,2.32-1.36,4.64-1.46,6.8
							c-0.13,2.8,0.37,5.32,1.43,7.2c0.8,1.43,1.92,2.49,3.34,3.02c4.72,1.8,10.89-2.91,13.79-10.52c0.84-2.21,1.62-6.5,1.62-6.5
							l-0.99-12.8l-1.38-17.83L97.86,98.5l-0.35-4.56L80.8,95.23L81.85,108.95z"/>
						<path class="st33" d="M82.63,143.68c-0.88,2.32-1.36,4.64-1.46,6.8c0.3-1.41,0.71-2.79,1.21-4.04
							c0.75-1.88,2.13-3.23,2.94-4.93c0.82-1.73-0.01-3.7,0.58-5.67c1.1-3.65,6.43-6.38,8.61-9.8c2.52-3.94,3.61-7.95,4.41-12.57
							c0.02-0.14,0.05-0.27,0.07-0.41c0.78-5.21-0.91-9.71-0.8-14.77l-0.32,0.21l-16,10.46l2.42,31.28
							C83.65,141.3,83.1,142.45,82.63,143.68z"/>
						<path class="st33" d="M82.6,157.68c0.8,1.43,1.92,2.49,3.34,3.02c4.72,1.8,10.89-2.91,13.79-10.52
							c0.84-2.21,1.62-6.5,1.62-6.5l-0.99-12.8c-0.12,1.66-0.28,3.31-0.46,4.95c-0.54,5.05-1.12,10.32-3.18,15.05
							c-1.27,2.92-3.04,6.94-5.76,8.82C88.27,161.56,84.36,160.56,82.6,157.68z"/>
					</g>
					<g>
						<g>
							<path class="st32" d="M57.96,83c0.83-0.98,2.23-0.7,3.4-0.7c1.25,0.01,3.1,0.02,3.75,1.95c0.52,1.51,0.61,3.57,0.93,5.18
								l1.37,10.17c-0.45,0.44-2.1,0.78-2.73,0.39c-0.83-0.5-5.23-9.25-6.51-12.87C57.59,85.45,56.91,84.23,57.96,83z"/>
							<path class="st33" d="M58.62,84.25c0.06-1,1.28-0.87,2.11-0.93c0.82-0.06,2.22-0.33,2.95,0.2c0.72,0.52,0.83,2.51,0.96,3.45
								c-2.16-0.17-1.53,3,0.2,2.48l0.11,0.58c0.15,0.78,0.27,1.74,0.15,2.3c-0.12-0.61-0.14-1.84-0.63-2.23
								c-0.48-0.38-1.34-0.09-1.87-0.44c-1.41-0.91-0.13-2.47,0.98-3c-0.12-0.42-0.24-1.49-0.53-1.8c-0.34-0.35-1.28-0.29-1.79-0.35
								c-0.76-0.09-1.28-0.31-1.53,0.38c-0.17,0.46,0.12,1.18,0.22,1.65C59.51,86.05,58.58,84.93,58.62,84.25z"/>
						</g>
						<path class="st32" d="M62.62,93.15c0.29,2.3,4.89,14.25,5.18,22.87c0.02,0.57,0.02,1.12,0,1.66c-0.02,0.5-0.01,0.99-0.11,1.45
							c-2.44,11.27,25.5,23.76,31.05-11.66c0.53-3.37-0.56-9.15-0.49-13.37c0-0.2,0.01-0.41,0.03-0.62
							c0.2-3.35,1.48-7.93,1.21-11.67c-0.22-3.06,3.94-26.86-12.94-30.64C68.82,47.19,63.11,72.9,64.39,77.31
							C68.06,89.95,61.49,84.32,62.62,93.15z"/>
						<g>
							<path class="st36" d="M73.34,83.05c-0.31-0.26-4.2,0.05-5.65,0.37c-0.43,0.09-0.91,0.1-1.14,0.58
								c-0.23,0.47-0.51,1.4-0.61,1.89c-0.04,0.21-0.01,0.84-0.01,0.84c1.72-0.41,4.22-1.13,6.02-0.61
								c0.78,0.23,2.11,2.25,2.24,2.29C74.16,88.24,73.65,83.31,73.34,83.05z"/>
							<g>
								<path class="st2" d="M66.43,88.27c0,0,0.74,1.58,3.59,1.6c2.85,0.03,3.62-1.54,3.62-1.54s0.29,0.17,0.37,0.06
									c0.08-0.11-0.3-0.37-0.34-0.72c-0.04-0.35-0.64-3.07-1.36-3.33c-0.72-0.26-5.25-0.3-5.94,0.87
									C65.67,86.38,66.43,88.27,66.43,88.27z"/>
								<g>
									<g>
										<g>
											<path class="st37" d="M72.12,87.14c-0.01,1.32-0.95,2.38-2.09,2.37c-1.14-0.01-2.06-1.09-2.05-2.41
												c0.01-1.32,0.95-2.38,2.09-2.37C71.22,84.75,72.13,85.82,72.12,87.14z"/>
										</g>
									</g>
									<path class="st38" d="M70.39,86.87c-0.01,0.55-0.4,1-0.87,0.99c-0.48,0-0.86-0.45-0.86-1.01c0.01-0.55,0.4-0.99,0.87-0.99
										C70.01,85.86,70.39,86.32,70.39,86.87z"/>
									<path class="st2" d="M70.66,87.1c0,0.19-0.13,0.34-0.29,0.33c-0.16,0-0.29-0.15-0.29-0.34c0-0.19,0.13-0.34,0.3-0.33
										C70.53,86.76,70.66,86.91,70.66,87.1z"/>
								</g>
								<path class="st36" d="M74.16,88.32c0.01-0.01,0.01-0.03,0-0.04l-0.01-0.01c-0.02-0.09-0.08-0.16-0.13-0.22
									c-0.08-0.11-0.19-0.25-0.2-0.38c-0.01-0.06-0.04-0.31-0.13-0.65c-0.06-0.25-0.13-0.53-0.22-0.82
									c-0.04-0.14-0.09-0.29-0.14-0.43c-0.05-0.16-0.11-0.31-0.17-0.46c-0.05-0.12-0.1-0.22-0.14-0.32
									c-0.01-0.03-0.02-0.05-0.04-0.08c-0.03-0.06-0.05-0.11-0.08-0.15c-0.12-0.2-0.25-0.37-0.38-0.47
									c-0.03-0.03-0.07-0.05-0.11-0.07c-0.02-0.01-0.04-0.02-0.06-0.03c-0.08-0.03-0.19-0.05-0.34-0.07
									c-0.03-0.01-0.06-0.01-0.09-0.01c-0.06-0.01-0.13-0.02-0.19-0.02c-0.07-0.01-0.12-0.01-0.19-0.01
									c-0.07-0.01-0.14-0.01-0.21-0.01c-0.02-0.01-0.05-0.01-0.07-0.01c-0.17-0.01-0.35-0.02-0.54-0.02
									c-0.09,0-0.22,0.01-0.4,0.01c-0.04,0-0.09,0-0.14,0.01c-0.08,0-0.17,0-0.26,0.01h-0.08c-0.07,0.01-0.14,0.01-0.21,0.01
									c-0.66,0.04-1.48,0.13-2.16,0.32c-0.07,0.02-0.14,0.04-0.2,0.07c-0.08,0.02-0.15,0.05-0.22,0.08
									c-0.02,0.01-0.04,0.01-0.07,0.02c-0.04,0.02-0.09,0.04-0.13,0.06c-0.09,0.04-0.17,0.09-0.24,0.13
									c-0.03,0.02-0.06,0.04-0.09,0.07c-0.03,0.01-0.06,0.04-0.08,0.07c-0.04,0.03-0.07,0.06-0.11,0.1
									c-0.04,0.05-0.09,0.1-0.12,0.15c-0.04,0.07-0.09,0.15-0.11,0.23c-0.02,0.04-0.04,0.07-0.05,0.12
									c-0.04,0.08-0.06,0.17-0.08,0.26c-0.02,0.09-0.04,0.18-0.05,0.27c-0.01,0.09-0.02,0.19-0.03,0.28
									c-0.01,0.02-0.01,0.04,0,0.06l-0.01,0.01v0.11c0,0.06,0.01,0.12,0.01,0.18c0,0.01,0,0.01,0,0.01c0,0.03,0.01,0.06,0.01,0.09
									v0.01c0.01,0.09,0.01,0.18,0.03,0.27c0.04,0.3,0.1,0.57,0.16,0.79c0.09,0.32,0.17,0.53,0.18,0.56
									c0.04,0.07,0.82,1.68,3.73,1.7c2.45,0.02,3.42-1.09,3.68-1.49c0.07,0.03,0.15,0.06,0.23,0.06c0.11-0.01,0.18-0.06,0.21-0.11
									c0.03-0.04,0.04-0.07,0.04-0.11c0,0,0,0,0-0.01C74.18,88.37,74.17,88.35,74.16,88.32z M73.49,88.25
									c0,0.01-0.77,1.47-3.47,1.45c-0.19,0-0.36-0.01-0.52-0.03c-0.34-0.02-0.64-0.08-0.9-0.15h-0.01c-0.01,0.01-0.02,0-0.03,0
									c-0.01,0-0.01,0-0.01,0c-0.01,0-0.01,0-0.01,0s-0.01,0-0.01-0.01c-0.58-0.16-1-0.39-1.3-0.62c-0.01,0-0.01,0-0.01-0.01
									c-0.01-0.01-0.03-0.02-0.04-0.04c-0.01-0.01-0.02-0.01-0.03-0.02h-0.01c-0.4-0.32-0.56-0.62-0.56-0.62
									c0-0.01-0.14-0.37-0.24-0.85c-0.04-0.22-0.08-0.45-0.09-0.7v-0.01c-0.03-0.46,0.02-0.94,0.26-1.32
									c0.4-0.67,2.47-0.96,4.22-0.94c0.82,0.01,1.36,0.07,1.55,0.14c0.37,0.13,0.77,1.23,1.02,2.11v0.01
									c0.1,0.38,0.18,0.71,0.22,0.92v0.01c0.01,0.05,0.01,0.09,0.02,0.13c0.01,0.19,0.11,0.34,0.19,0.47l-0.14-0.08L73.49,88.25z"
									/>
								<path class="st39" d="M73.7,87.01c-0.12-0.12-0.26-0.24-0.43-0.37c-0.74-0.58-1.91-1.21-3.54-1.22
									c-1.91-0.02-2.92,1.1-3.41,1.94c-0.09,0.16-0.17,0.31-0.22,0.44c-0.19-0.68-0.38-1.84,0.13-2.69
									c0.64-1.08,3.85-1.1,4.49-1.1c0.76,0.01,1.38,0.07,1.63,0.16C72.99,84.4,73.48,86.06,73.7,87.01z"/>
							</g>
						</g>
						<g>
							<path class="st36" d="M84.96,84.08c0.36-0.26,4.85,0.14,6.52,0.48c0.49,0.1,1.05,0.12,1.31,0.6c0.25,0.47,0.57,1.41,0.67,1.9
								c0.04,0.21-0.01,0.84-0.01,0.84c-1.98-0.45-4.85-1.21-6.94-0.73c-0.91,0.21-2.48,2.21-2.63,2.24
								C83.91,89.25,84.59,84.34,84.96,84.08z"/>
							<g>
								<path class="st2" d="M92.84,89.44c0,0-0.88,1.56-4.18,1.53c-3.3-0.03-4.15-1.61-4.15-1.61s-0.34,0.16-0.43,0.05
									c-0.09-0.11,0.35-0.36,0.4-0.71c0.05-0.35,0.8-3.06,1.64-3.31c0.84-0.25,6.06-0.2,6.85,0.98
									C93.76,87.56,92.84,89.44,92.84,89.44z"/>
								<g>
									<g>
										<g>
											<path class="st37" d="M86.63,88.15c-0.01,1.32,1.05,2.4,2.37,2.41c1.32,0.01,2.4-1.05,2.41-2.37
												c0.01-1.32-1.05-2.4-2.37-2.41C87.72,85.77,86.64,86.83,86.63,88.15z"/>
										</g>
									</g>
									<path class="st38" d="M86.87,87.96c-0.01,0.55,0.44,1,0.99,1.01c0.55,0.01,1-0.44,1.01-0.99c0.01-0.55-0.44-1-0.99-1.01
										C87.33,86.96,86.88,87.41,86.87,87.96z"/>
									<path class="st2" d="M88.53,88.12c0,0.19,0.15,0.34,0.33,0.34c0.19,0,0.34-0.15,0.34-0.33c0-0.19-0.15-0.34-0.33-0.34
										C88.68,87.79,88.53,87.94,88.53,88.12z"/>
								</g>
								<path class="st36" d="M93.47,87.55v-0.03c0-0.04,0-0.08-0.01-0.12c0-0.07-0.01-0.13-0.01-0.19
									c-0.02-0.19-0.06-0.38-0.14-0.56c-0.04-0.07-0.06-0.14-0.1-0.2c-0.02-0.05-0.05-0.1-0.08-0.15
									c-0.02-0.04-0.05-0.07-0.09-0.1c-0.13-0.15-0.32-0.28-0.56-0.39c-0.07-0.03-0.13-0.06-0.19-0.09
									c-0.16-0.07-0.33-0.12-0.51-0.17c-0.01-0.01-0.01-0.01-0.02-0.01c-0.1-0.03-0.21-0.06-0.32-0.09
									c-0.42-0.09-0.87-0.17-1.3-0.21c-0.14-0.02-0.27-0.04-0.4-0.04c-0.17-0.02-0.35-0.04-0.51-0.04
									c-0.09-0.01-0.17-0.01-0.25-0.01c-0.46-0.03-0.83-0.04-1.02-0.04c-0.19,0-0.38,0-0.56,0.01c-0.1,0-0.19,0-0.28,0.01
									c-0.22,0.01-0.42,0.02-0.58,0.04c-0.14,0.01-0.25,0.03-0.34,0.05c-0.04,0.01-0.08,0.01-0.12,0.02
									c-0.04,0.01-0.09,0.04-0.14,0.07c-0.12,0.06-0.22,0.15-0.32,0.27c-0.04,0.04-0.07,0.08-0.1,0.12
									c-0.06,0.09-0.13,0.18-0.19,0.28c-0.17,0.26-0.31,0.57-0.44,0.88c-0.05,0.12-0.09,0.23-0.14,0.35
									c-0.12,0.31-0.21,0.61-0.28,0.86c-0.09,0.34-0.16,0.58-0.16,0.65c-0.02,0.13-0.14,0.27-0.24,0.38
									c-0.06,0.07-0.12,0.14-0.16,0.23v0.01c-0.01,0.01-0.01,0.02-0.01,0.03c-0.01,0.04-0.01,0.06-0.01,0.09
									c0.01,0.04,0.01,0.08,0.05,0.12c0.04,0.04,0.12,0.1,0.24,0.1c0.09,0,0.19-0.02,0.27-0.04c0.3,0.4,1.39,1.54,4.22,1.57
									c3.36,0.03,4.3-1.56,4.33-1.63c0.01-0.03,0.12-0.24,0.22-0.56c0.08-0.24,0.17-0.53,0.2-0.85c0.01-0.07,0.02-0.14,0.03-0.21
									l0.01-0.01v-0.03c0,0,0,0,0-0.01l0.01-0.01c0-0.01,0-0.01,0-0.01c0-0.01-0.01-0.01-0.01-0.01s0,0,0-0.01
									c0.01-0.01,0.01-0.01,0-0.01c0,0,0.01,0,0-0.01c0.01,0,0.01-0.01,0.01-0.01s0-0.01-0.01-0.01c0.01,0,0.01-0.01,0.01-0.01
									v-0.01c0-0.01,0-0.01,0-0.01v-0.04c0.01-0.04,0.01-0.07,0.01-0.1c0-0.02,0-0.04,0.01-0.06
									C93.47,87.55,93.47,87.55,93.47,87.55z M93.1,87.82L93.1,87.82c-0.02,0.25-0.07,0.49-0.12,0.7v0.01
									c-0.13,0.48-0.3,0.83-0.3,0.84c-0.01,0-0.88,1.45-4.01,1.42c0,0-0.01,0.01-0.01,0.01c-0.91-0.01-1.64-0.14-2.2-0.33
									c-1.35-0.44-1.78-1.18-1.78-1.19l-0.09-0.15l-0.16,0.07c0.11-0.12,0.21-0.27,0.24-0.45c0-0.04,0.01-0.08,0.02-0.14v-0.01
									c0.05-0.22,0.15-0.54,0.27-0.92c0.3-0.87,0.78-1.96,1.21-2.09c0.21-0.07,0.84-0.12,1.78-0.11c2.03,0.01,4.42,0.35,4.87,1.03
									C93.08,86.87,93.13,87.36,93.1,87.82z"/>
								<path class="st39" d="M84.47,88.03c0.14-0.12,0.31-0.24,0.5-0.36c0.86-0.57,2.22-1.17,4.11-1.15
									c2.21,0.02,3.35,1.15,3.9,2.01c0.1,0.16,0.19,0.32,0.25,0.45c0.23-0.68,0.47-1.84-0.09-2.69c-0.72-1.09-4.43-1.18-5.16-1.18
									c-0.87-0.01-1.6,0.04-1.89,0.13C85.34,85.44,84.74,87.09,84.47,88.03z"/>
							</g>
						</g>
						<g>
							<g>
								<g>
									<path class="st53" d="M72.8,79.16c-2.32-0.49-7.38,0.66-8.9,1.02c-0.28,0.07-0.44,0.11-0.44,0.11
										c0.12-0.35,0.1-1.62,0.38-2.11c0.31-0.54,1.18-0.97,1.74-1.3c1.56-0.92,3.37-1.78,5.01-2.46c0.68,0.83,1.07,1.85,1.44,2.86
										C72.27,77.93,72.5,78.57,72.8,79.16z"/>
								</g>
							</g>
						</g>
						<g>
							<path class="st53" d="M84.54,75.07c2.36-0.19,7.24,1.58,8.7,2.13c0.27,0.1,0.42,0.16,0.42,0.16
								c-0.08-0.36,0.11-1.62-0.11-2.14c-0.24-0.57-1.05-1.12-1.56-1.5c-1.43-1.1-3.12-2.19-4.66-3.07
								c-0.78,0.74-1.29,1.7-1.79,2.66C85.21,73.93,84.9,74.53,84.54,75.07z"/>
						</g>
						<path class="st33" d="M75.62,84.04c0,0,1.45,12.73-0.45,18.23c3.3,0.54,8.81,2.13,8.53-1.74c2.52,4.57-6.32,5.91-11.2,3.31
							C75.13,100.89,74.84,85.58,75.62,84.04z"/>
						<g>
							<path class="st40" d="M86.52,108.52c-0.16-0.6-0.22-1.29-0.26-1.92c1.14,0.65,2.22,2.7,2.15,4.08
								c-0.46-0.45-0.96-0.86-1.51-1.15c-2.89,3.13-7.15,4.7-12.45,3.21c-0.44-1.4-1.51-2.93-2.37-4.07
								C81.14,113.2,86.52,108.52,86.52,108.52z"/>
							<g>
								<g>
									<path class="st2" d="M72.45,108.81c0.24,0.31,0.46,0.62,0.68,0.94c0.38,0.57,0.73,1.16,1.05,1.81
										c0.16,0.32,0.3,0.64,0.45,0.95c0.02,0.04,0.03,0.07,0.05,0.11c0.06,0.13,0.12,0.26,0.19,0.39c1.53,0.2,3.16,0.43,4.68,0.11
										c0.16-0.03,1.12-0.15,2.12-0.27c0.83-0.3,1.61-0.7,2.36-1.19L84,111.48l-0.08-0.51l-0.1-0.68l-0.05-0.33l-0.05-0.3
										c-0.13,0.05-0.26,0.09-0.4,0.13c-1.19,0.37-2.72,0.64-4.55,0.51c-0.14-0.01-0.27-0.02-0.41-0.03
										c-0.12,0-0.25-0.01-0.38-0.02C76.21,110.12,74.35,109.64,72.45,108.81z"/>
									<g>
										<path class="st41" d="M74.62,112.51c0.02,0.04,0.03,0.07,0.05,0.11c0.06,0.13,0.12,0.26,0.19,0.39
											c1.53,0.2,3.16,0.43,4.68,0.11c0.16-0.03,1.12-0.15,2.12-0.27c0.83-0.3,1.61-0.7,2.36-1.19L84,111.48l-0.08-0.51
											l-0.1-0.68l-0.05-0.33l-0.05-0.3c-0.13,0.05-0.26,0.09-0.4,0.13c-0.04,0.5,0,1.06-0.22,1.46
											C81.96,113.33,75.43,112.67,74.62,112.51z"/>
									</g>
								</g>
								<path class="st33" d="M86.42,106.33l-0.29-0.17h-0.01l-0.19-0.12l0.01,0.24l-0.01,0.01l0.02,0.32
									c0.04,0.72,0.11,1.3,0.22,1.79c-0.26,0.19-0.83,0.58-1.7,0.97c-0.23,0.1-0.48,0.19-0.74,0.29
									c-0.08,0.03-0.16,0.05-0.24,0.08c-0.05,0.01-0.11,0.03-0.16,0.05c-0.09,0.03-0.19,0.06-0.29,0.09
									c-0.02,0.01-0.04,0.01-0.07,0.02c-0.07,0.01-0.14,0.04-0.22,0.06c-0.19,0.05-0.4,0.09-0.61,0.14
									c-0.07,0.01-0.14,0.03-0.21,0.04h-0.01c-0.09,0.01-0.17,0.03-0.26,0.04c-0.03,0.01-0.06,0.01-0.1,0.02h-0.05
									c-0.01,0-0.01,0-0.01,0c-0.09,0.02-0.19,0.03-0.29,0.04c-0.1,0.01-0.21,0.02-0.32,0.04h-0.07
									c-0.08,0.01-0.15,0.01-0.23,0.02c-0.08,0.01-0.17,0.01-0.25,0.01c-0.08,0.01-0.15,0.01-0.24,0.01
									c-0.43,0.01-0.87,0.01-1.35-0.03c-0.13-0.01-0.27-0.01-0.4-0.03c-1.67-0.17-3.39-0.64-5.14-1.4
									c-0.33-0.14-0.67-0.31-1.02-0.48l-1.16-0.58l0.77,1.03c0.92,1.23,1.91,2.66,2.33,3.99l0.05,0.16l0.16,0.04
									c1.05,0.29,2.08,0.48,3.08,0.55c1.67,0.12,3.26-0.08,4.73-0.58c0.1-0.04,0.19-0.07,0.29-0.11c0.83-0.3,1.62-0.7,2.36-1.18
									c0.75-0.51,1.47-1.1,2.14-1.79c0.39,0.23,0.79,0.54,1.24,0.97l0.48,0.48l0.04-0.68C88.79,109.19,87.66,107.03,86.42,106.33z
									 M87.03,109.24l-0.21-0.1l-0.16,0.17c-0.61,0.65-1.26,1.23-1.95,1.7c-0.23,0.17-0.48,0.32-0.71,0.45
									c-0.61,0.36-1.23,0.66-1.88,0.89c-1.44,0.51-2.99,0.71-4.64,0.59c-0.66-0.04-1.34-0.14-2.02-0.29
									c-0.12-0.02-0.25-0.05-0.36-0.09l-0.04-0.01l-0.03-0.01c-0.12-0.03-0.23-0.05-0.35-0.09c-0.34-1.01-0.97-2.06-1.66-3.04
									c0.3,0.13,0.6,0.25,0.9,0.37c1.64,0.62,3.25,1,4.82,1.1c1.21,0.09,2.3,0.01,3.25-0.16c0.46-0.08,0.89-0.18,1.3-0.3h0.01
									c0.18-0.05,0.35-0.11,0.53-0.17c0.26-0.09,0.51-0.18,0.74-0.27c1.36-0.58,2.1-1.21,2.16-1.26l0.14-0.12l-0.05-0.19
									c-0.09-0.34-0.15-0.71-0.19-1.18c0.66,0.64,1.23,1.73,1.42,2.66C87.7,109.65,87.36,109.42,87.03,109.24z"/>
							</g>
						</g>
						<path class="st33" d="M81.16,116.07c0,0-2.13,2.99-2.45,4.22c-1.19-1.14-3.11-3.54-3.13-5.22
							C77,116.24,78.26,117.2,81.16,116.07z"/>
						<g>
							<g>
								<path class="st32" d="M108.46,84.97c-0.87-1.01-2.39-0.79-3.66-0.83c-1.35-0.04-3.35-0.1-4.12,1.8
									c-0.6,1.49-0.77,3.54-1.16,5.14l-1.79,10.11c0.48,0.45,2.25,0.86,2.95,0.5c0.91-0.47,5.94-9.05,7.43-12.62
									C108.79,87.43,109.56,86.25,108.46,84.97z"/>
								<path class="st33" d="M107.71,86.2c-0.04-1-1.36-0.92-2.26-1.01c-0.88-0.1-2.39-0.42-3.2,0.09c-0.8,0.5-0.98,2.47-1.14,3.41
									c2.34-0.08,1.56,3.06-0.29,2.47l-0.14,0.58c-0.19,0.77-0.34,1.73-0.23,2.29c0.15-0.6,0.21-1.84,0.75-2.21
									c0.53-0.36,1.45-0.04,2.04-0.37c1.55-0.85,0.21-2.47-0.98-3.03c0.14-0.41,0.3-1.48,0.63-1.78c0.37-0.34,1.4-0.24,1.94-0.28
									c0.82-0.06,1.4-0.26,1.65,0.43c0.17,0.47-0.17,1.18-0.29,1.64C106.7,87.96,107.73,86.88,107.71,86.2z"/>
							</g>
						</g>
						<path class="st53" d="M64.22,75.62c0.38-5.37,2.07-11.38,5.67-15.6c-2.98,7.67,9.89,10.75,25.45,0.84
							c4.14,2.17,4.18,10.5,3.89,14.44c-0.27,3.79-0.32,7.56-0.59,11.38c-0.01,0.17-0.03,0.35-0.04,0.54
							c-0.23,2.66-0.77,5.81-0.71,8.63c0.02,0.93,0.11,1.83,0.29,2.66c0.05,0.21,0.1,0.42,0.16,0.62c0.04-0.23,0.08-0.47,0.12-0.7
							c0.05-0.28,0.12-0.56,0.18-0.84c0.63-2.59,1.8-5.23,2.7-7.76c0.82-2.32,3.45-5.78,2.25-8.24c1.37-0.78,2.99,0,4.33-1.18
							c1.19-1.05,1.2-2.39,1.04-3.8c-0.29-2.52-2.18-4.61-2.52-6.93c10.1-3.53-4.07-16.39-8.62-18.17c0.62-3.43-4.37-5.84-6.99-6.58
							c-2.5-0.71-4.98-0.11-7.53-0.37c6.55,0.39,5.18-5.03,2-8.53c-3.23-3.56-7.84-3.52-11.9-1.43c-2.21,1.14-5.72,3-6.67,5.51
							c-1.01,2.68,0.32,5.27,0.67,7.87c0.15,1.1,0.04,2.28-0.16,3.44c-0.16,0.92-0.38,1.83-0.57,2.68
							c-0.63,2.75-1.69,5.46-2.34,8.28C63.39,66.5,63.92,71.49,64.22,75.62z"/>
						<g>
							<g>
								<g>
									<path class="st54" d="M64.22,75.62c0.38-5.37,2.07-11.38,5.67-15.6c-2.98,7.67,9.89,10.75,25.45,0.84
										c4.14,2.17,4.18,10.5,3.89,14.44c-0.27,3.79-0.32,7.56-0.59,11.38c-0.01,0.17-0.03,0.35-0.04,0.54
										c-0.19,2.34-0.61,5.66-0.71,8.63c0.02,0.93,0.11,1.83,0.29,2.66c0.05,0.21,0.1,0.42,0.16,0.62
										c0.04-0.23,0.08-0.47,0.12-0.7c0.05-0.28,0.12-0.56,0.18-0.84c-0.5-4.66,1.36-9.69,2.18-14.21c0.54-3.01,0.7-6.05,1.06-9.1
										c1.23,0.11,2.3,0.14,2.06-1.6c-0.11-0.79-0.96-1.57-1.42-2.18c-0.52-0.7-0.87-1.54-1.45-2.18
										c0.85-1.88,1.85-3.04,0.65-5.05c-1.46-2.44-7.04-6.78-9.07-8.73c-2.21,1.45-10.91,10.77-17.49,6.02
										c-0.94-0.68-1.65-1.48-2.2-2.52c-0.49-0.94-0.52-2.07-0.92-2.94c-1.32,1.89-3.77,3.29-5.52,4.82
										c0.02-2.19,1.15-4.21,1.05-6.48c-0.03-0.66-0.15-1.35-0.32-2.03c-0.16,0.92-0.38,1.83-0.57,2.68
										c-0.63,2.75-1.69,5.46-2.34,8.28C63.39,66.5,63.92,71.49,64.22,75.62z"/>
								</g>
							</g>
						</g>
						<path class="st54" d="M66.78,119.8c-2.44,11.27,26.85,24.02,32.41-11.4c0.53-3.37-1-10.08-0.92-14.3
							c0-0.2,0.01-0.41,0.03-0.62c-0.58,2.01-0.89,4.19-1.3,6.19c-0.34,1.68-0.71,3.18-0.83,4.88c-0.13,1.88-0.59,3.38-1.08,5.19
							c-3.1,11.47-14.99,12.41-15.66,10.83c-0.35-0.82-0.3-3.03-1.23-2.32c-0.81,0.62-0.56,2.63-1.47,2.81
							c-1.46,0.3-7.36-0.37-10.11-13.39c0.02,0.57,0.46,9.26,0.44,9.8C67.03,117.98,66.88,119.34,66.78,119.8z"/>
						<g class="st55">
							<g>
								<path class="st56" d="M70.46,50.24c-0.01,0.17-0.02,0.34-0.02,0.51C70.44,50.58,70.44,50.41,70.46,50.24z"/>
								<path class="st56" d="M70.2,45.2c-0.26-1.46-0.02-3.01,0.43-4.5c2.55-8.37,10.52-3.18,10.52-3.18
									c-1.64-1.6-11.3,1.06-5.94,8.32c-2.4-0.27-5.21,2.88-5.42,5.3C69.89,49.46,70.52,46.95,70.2,45.2z"/>
							</g>
						</g>
					</g>
				</g>
				<path class="st50" d="M128.04,151.29c-1,0.65-2.03,1.28-3.07,1.88C126.39,151.99,127.48,151.34,128.04,151.29z"/>
				<path class="st51" d="M128.45,151.02c0.02,0.19,0.02,0.38-0.01,0.58c0-0.23-0.14-0.33-0.4-0.3c-1,0.65-2.03,1.28-3.07,1.88
					c-0.01,0.01-0.01,0.01-0.01,0.01c-3.24,1.9-6.64,3.56-10.16,4.98c0.06-1.61,0.23-3,0.52-4.12c2.09-8.04,8.67-6.9,13.03-3.53
					c0.14,0.11,0.27,0.22,0.4,0.32C128.65,150.89,128.55,150.96,128.45,151.02z"/>
			</g>
		</g>
	</g>
</g>
</svg>
