<?xml version="1.0" encoding="utf-8"?>
<!-- Generator: Adobe Illustrator 27.2.0, SVG Export Plug-In . SVG Version: 6.00 Build 0)  -->
<svg version="1.1" id="Layer_1" xmlns="http://www.w3.org/2000/svg" xmlns:xlink="http://www.w3.org/1999/xlink" x="0px" y="0px"
	 viewBox="0 0 171.51 171.51" style="enable-background:new 0 0 171.51 171.51;" xml:space="preserve">
<style type="text/css">
	.st0{fill:#F7F2DA;}
	.st1{fill:#FBA479;}
	.st2{fill:#FFFFFF;}
	.st3{fill:#E1DFEA;}
	.st4{fill:#261411;}
	.st5{fill:#60312B;}
	.st6{fill:#EF7950;}
	.st7{fill:#60281F;}
	.st8{fill:#E8E6E6;}
	.st9{fill:#3A2827;}
	.st10{fill:#CCCCCC;}
	.st11{fill:#595857;}
	.st12{fill:#F28C5F;}
	.st13{fill:#E26939;}
	.st14{fill:#56413D;}
	.st15{fill:#44322E;}
	.st16{fill:#873421;}
	.st17{fill:#EA6CA0;}
	.st18{fill:#DB5290;}
	.st19{fill:#F48656;}
	.st20{fill:#82112F;}
	.st21{fill:#D85039;}
	.st22{fill:#574984;}
	.st23{fill:#291C51;}
	.st24{fill:#FC5135;}
	.st25{fill:#FFCC7B;}
	.st26{fill:#E8A749;}
	.st27{fill:#6D4A44;}
	.st28{fill:#D1E3E8;}
	.st29{fill:#FCFBFA;}
	.st30{fill:#4C4C4B;}
	.st31{fill:#686868;}
	.st32{fill:#FFB884;}
	.st33{fill:#EF9C62;}
	.st34{fill:#874410;}
	.st35{fill:#6D340D;}
	.st36{fill:#E89258;}
	.st37{fill:#3A2E26;}
	.st38{fill:#4C3F35;}
	.st39{opacity:0.1;}
	.st40{fill:#60120F;}
	.st41{fill:#F4F0ED;}
	.st42{fill:#E0312D;}
	.st43{fill:#F42F2F;}
	.st44{fill:#D31111;}
	.st45{fill:#DB9B19;}
	.st46{fill:#AF740B;}
	.st47{fill:#CC2121;}
	.st48{fill:#F74B4B;}
	.st49{fill:#FCF9E8;}
	.st50{opacity:0.5;fill:#827571;}
	.st51{fill:#665D5C;}
	.st52{fill:#4F4746;}
	.st53{fill:#5E3B2F;}
	.st54{fill:#492E27;}
	.st55{opacity:0.4;}
	.st56{fill:#443A36;}
	.st57{fill:#51415E;}
	.st58{fill:#066FB7;}
	.st59{fill:#066396;}
	.st60{fill:#0D8FD6;}
	.st61{fill:#FEAC74;}
	.st62{fill:#E3784C;}
	.st63{fill:#580801;}
	.st64{fill:#440502;}
	.st65{fill:#00ABB2;}
	.st66{fill:#008C8C;}
	.st67{fill:#914E34;}
	.st68{fill:#5B2E1D;}
	.st69{fill:#6A3221;}
	.st70{fill:#FAFAFC;}
	.st71{fill:#2B3B3F;}
	.st72{fill:#3F565B;}
	.st73{fill:#EF7348;}
	.st74{fill:#6F3D26;}
	.st75{fill:#BBBEBF;}
	.st76{fill:#D3D3D3;}
	.st77{fill:#939A9E;}
	.st78{fill:#F79C5E;}
	.st79{fill:#E07832;}
	.st80{fill:#604135;}
	.st81{fill:#EFEAE8;}
	.st82{fill:#4F3229;}
	.st83{fill:#1A3D3A;}
	.st84{fill:#E8E8E8;}
	.st85{fill:#0C83C4;}
	.st86{fill:#1B96EA;}
	.st87{fill:#B50F0F;}
	.st88{opacity:0.4;fill:#E89258;}
	.st89{fill:#26ACF7;}
	.st90{fill:#F45347;}
	.st91{fill:#FF3939;}
	.st92{fill:#686766;}
	.st93{fill:#5E5D5B;}
	.st94{fill:#424140;}
	.st95{fill:#E7E1CB;}
	.st96{fill:#D6CFBA;}
	.st97{fill:#CE5C37;}
	.st98{fill:#B74D30;}
	.st99{fill:#1B313D;}
	.st100{fill:#36474F;}
	.st101{fill:#29526D;}
	.st102{fill:#FCBD88;}
	.st103{fill:#FCA265;}
	.st104{fill:#496B7A;}
	.st105{fill:#B76049;}
	.st106{fill:#EDEDED;}
	.st107{fill:#7C7979;}
	.st108{fill:#EFE6E8;}
	.st109{fill:#B20D28;}
	.st110{fill:#346682;}
	.st111{fill:#AA0E28;}
	.st112{fill:#FF5050;}
	.st113{fill:#781A0E;}
	.st114{fill:#560904;}
	.st115{fill:#FF0B40;}
	.st116{fill:#BC0000;}
	.st117{fill:#FFD731;}
	.st118{fill:#EA6453;}
	.st119{fill:#602618;}
	.st120{fill:#A14F2A;}
	.st121{fill:#3A4E66;}
	.st122{fill:#EAE9EE;}
	.st123{opacity:0.3;fill:#3A4E66;}
	.st124{fill:#5E2701;}
	.st125{fill:#773000;}
	.st126{fill:#EA2F4A;}
	.st127{fill:#C41234;}
	.st128{fill:#F7F0F1;}
	.st129{fill:#F7A76F;}
	.st130{fill:#B24800;}
	.st131{fill:#8C3B03;}
	.st132{fill:#567391;}
	.st133{fill:#FF7271;}
	.st134{fill:#F75E5E;}
	.st135{fill:#700F28;}
	.st136{fill:#9E1533;}
	.st137{fill:#871231;}
	.st138{fill:#211B3A;}
	.st139{fill:#2E2951;}
	.st140{fill:#F28670;}
	.st141{fill:#F46060;}
	.st142{fill:#EBBF44;}
	.st143{fill:#E0A91E;}
	.st144{fill:#FFA992;}
	.st145{fill:#2C363F;}
	.st146{fill:#1D262D;}
	.st147{fill-rule:evenodd;clip-rule:evenodd;fill:#FFF5F5;}
	.st148{opacity:0.2;}
	.st149{fill:#7C4949;}
	.st150{fill:#F9AE7A;}
	.st151{fill:#FFF5F5;}
	.st152{fill:#C92727;}
	.st153{fill:#4C1B05;}
	.st154{fill:#592009;}
	.st155{opacity:0.4;fill:#592009;}
	.st156{fill:#3F1307;}
	.st157{fill:#664472;}
	.st158{fill:#473051;}
	.st159{fill:#352020;}
	.st160{opacity:0.3;fill:#7C4949;}
</style>
<g>
	<path class="st0" d="M163.74,85.75c0,30.56-17.58,57.02-43.17,69.8c-0.61,0.31-1.22,0.61-1.83,0.89
		c-6.17,2.89-12.79,4.99-19.71,6.17c-2.68,0.46-5.4,0.79-8.16,0.96c-1.69,0.11-3.39,0.17-5.11,0.17c-2.07,0-4.12-0.08-6.15-0.24
		c-3.67-0.29-7.27-0.83-10.78-1.61c-13.63-3.01-25.92-9.6-35.84-18.72c-0.52-0.48-1.04-0.97-1.55-1.47
		c-14.6-14.17-23.67-34-23.67-55.95c0-43.07,34.91-77.99,77.99-77.99C128.83,7.77,163.74,42.68,163.74,85.75z"/>
	<g>
		<g>
			<g>
				<path class="st42" d="M118.73,156.44c-6.17,2.89-12.79,4.99-19.71,6.17c-2.68,0.46-5.4,0.79-8.16,0.96
					c-0.2-1.33-0.4-2.69-0.59-4.07c-0.88-6.34-1.68-13.24-2.57-20.67c11.66,1.44,18.57-12.07,30.26-1.06l0.01,0.01
					c1.17,4.4,2,10.68,2.61,17.78C119.96,155.86,119.35,156.16,118.73,156.44z"/>
			</g>
			<path class="st43" d="M118.73,156.44c-6.17,2.89-12.79,4.99-19.71,6.17c-2.68,0.46-5.4,0.79-8.16,0.96
				c-1.69,0.11-3.39,0.17-5.11,0.17c-2.07,0-4.12-0.08-6.15-0.24c-3.67-0.29-7.27-0.83-10.78-1.61
				c-13.63-3.01-25.92-9.6-35.84-18.72c-0.11-1.9-0.19-3.71-0.32-5.56c0.01-0.04,0.03-0.08,0.05-0.12c0.33-0.66,2.19-4.01,6.1-7.79
				c4.85-4.68,12.87-10.02,25.06-11.72c0.14-0.02,0.27-0.04,0.42-0.06c0.31-0.04,0.64-0.08,0.96-0.12
				c4.42-0.51,9.54-0.61,15.36-0.58c6.83,0.03,12.56,0.59,17.34,1.61h0.01c0.32,0.07,0.63,0.14,0.94,0.21
				c12.29,2.83,17.21,10.61,19.05,18.72c0.38,1.65,0.63,3.31,0.78,4.95C118.88,144.37,119.18,148.99,118.73,156.44z"/>
			<g>
				<g>
					<path class="st44" d="M62.87,120.42c0.32-0.59,0.66-1.42,1.01-2.43c4.75-0.49,10.31-0.79,16.74-0.76
						c7.28,0.03,13.32,0.67,18.29,1.82c0.2,0.83,0.42,1.53,0.67,2.06C109.45,141.96,53.92,136.67,62.87,120.42z"/>
					<path class="st32" d="M82.24,132.14c-11.05-0.48-22.64-5.58-18.35-13.37c0.34-0.62,0.7-1.52,1.07-2.65
						c1.32-4.02,2.74-10.86,3.81-17.65c0.32-2,0.61-4,0.89-5.91v0c0-0.02,0-0.03,0.01-0.05c0.41-2.92,0.77-5.62,1.05-7.84
						c0.44-3.46,0.68-5.72,0.68-5.72L71.57,79l20.75,4.67c0,0,0,0.03,0.01,0.09c0.13,1.1,1.41,11.86,2.93,21.48
						c0.18,1.12,0.36,2.23,0.54,3.3c0.23,1.34,0.46,2.63,0.7,3.84c0.11,0.58,0.22,1.14,0.33,1.67c0.48,2.31,0.83,4.24,1.36,5.36
						C102.69,128.89,92.71,132.59,82.24,132.14z"/>
					<path class="st33" d="M96.84,114.06c-3.37,0.35-7.93-0.05-12.19-2.79c-3.82-2.46-12.8-8.7-14.99-18.7v0
						c0-0.02,0-0.03,0.01-0.05c0.79-4.97,1.44-9.87,1.91-13.51l20.75,4.67c0,0,0,0.03,0.01,0.09c0.13,1.1,1.41,11.86,2.93,21.48
						c0.18,1.12,0.36,2.23,0.54,3.3c0.23,1.34,0.46,2.63,0.7,3.84C96.61,112.96,96.73,113.52,96.84,114.06z"/>
					<path class="st33" d="M82.24,132.14c-11.05-0.48-22.64-5.58-18.35-13.37c0.34-0.62,0.7-1.52,1.07-2.65
						c0.53,4.29,2.47,8.28,6.06,10.91c3.14,2.3,6.48,3.97,10.26,4.88C81.6,131.98,81.92,132.06,82.24,132.14z"/>
				</g>
				<g>
					<path class="st32" d="M112.98,65.68c-1.14-0.41-2.43,0.22-3.59,0.6c-1.23,0.4-3.05,0.99-3.08,2.53
						c-0.02,1.21,0.54,2.65,0.75,3.86l1.92,7.43c0.59,0.16,2.33-0.13,2.83-0.59c0.66-0.61,2.19-8.02,2.28-10.91
						C114.13,67.25,114.41,66.2,112.98,65.68z"/>
					<path class="st33" d="M112.82,67.28c-0.43-0.95-1.58-0.37-2.41-0.13c-0.82,0.24-2.29,0.51-2.81,1.3
						c-0.51,0.78,0.12,2.77,0.35,3.73c2.05-0.97,2.61,2.37,0.73,2.5l0.11,0.61c0.14,0.82,0.38,1.81,0.72,2.3
						c-0.11-0.64-0.55-1.86-0.22-2.42c0.32-0.55,1.27-0.59,1.67-1.13c1.04-1.41-0.8-2.47-2.08-2.57c-0.04-0.46-0.32-1.55-0.15-1.96
						c0.2-0.47,1.14-0.76,1.62-1.01c0.71-0.37,1.14-0.78,1.64-0.2c0.33,0.39,0.32,1.2,0.4,1.7
						C112.63,69.37,113.11,67.93,112.82,67.28z"/>
				</g>
				<path class="st32" d="M71.07,62.97c-1.25-3.25-1.63-7.26,0.37-10.67c0.11-0.2,0.43-0.52,0.91-0.93
					c2.03-1.76,7.07-5.14,12.62-7.36l-0.01-0.03c0.03,0,0.05,0,0.08,0c0.02-0.01,0.05-0.02,0.07-0.03l0.01,0.03
					c5.97,0.27,11.84,1.81,14.34,2.8c0.59,0.23,0.99,0.43,1.16,0.58c3.01,2.57,9.11,6.03,7.88,10.68
					c-3.53,13.32,5.77,22.83,4.8,31.66c-0.3,2.72-6.45,10.21-9.93,18.19c-0.74,1.7-5.05,2.99-6.95,3.38c-0.03,0-6.3,0.35-7.67-0.9
					c-7.57-6.9-14.18-11.44-15.36-13.91C69.58,88.43,72.95,67.86,71.07,62.97z"/>
				<g>
					<path class="st36" d="M99.23,71.28c0.37-0.28,5.09-0.07,6.85,0.21c0.52,0.08,1.11,0.08,1.4,0.57c0.29,0.49,0.65,1.45,0.79,1.96
						c0.05,0.21,0.03,0.88,0.03,0.88c-2.09-0.38-5.13-1.06-7.29-0.46c-0.94,0.26-2.5,2.42-2.65,2.46
						C98.36,76.74,98.85,71.57,99.23,71.28z"/>
					<g>
						<path class="st2" d="M107.71,76.54c0,0-0.86,1.68-4.31,1.79c-3.45,0.11-4.41-1.5-4.41-1.5s-0.35,0.18-0.45,0.07
							c-0.1-0.11,0.35-0.4,0.39-0.76c0.04-0.36,0.71-3.23,1.57-3.53c0.87-0.3,6.34-0.47,7.21,0.73
							C108.58,74.54,107.71,76.54,107.71,76.54z"/>
						<g>
							<g>
								<g>
									<path class="st37" d="M100.34,75.45c0.04,1.38,1.2,2.47,2.58,2.42c1.38-0.05,2.47-1.2,2.42-2.58
										c-0.05-1.38-1.2-2.47-2.58-2.42C101.38,72.91,100.3,74.07,100.34,75.45z"/>
								</g>
							</g>
							<path class="st38" d="M102.49,75.4c0.02,0.58,0.5,1.03,1.08,1.01c0.58-0.02,1.03-0.5,1.01-1.08
								c-0.02-0.58-0.5-1.03-1.08-1.01C102.93,74.34,102.48,74.83,102.49,75.4z"/>
							<path class="st2" d="M102.14,75.4c0.01,0.19,0.17,0.35,0.36,0.34c0.2-0.01,0.35-0.17,0.34-0.36
								c-0.01-0.19-0.17-0.35-0.36-0.34C102.29,75.04,102.13,75.2,102.14,75.4z"/>
						</g>
						<path class="st36" d="M108.28,74.5c-0.01-0.13-0.02-0.27-0.04-0.4c-0.01-0.06-0.03-0.12-0.04-0.17
							c-0.03-0.12-0.07-0.25-0.13-0.36c-0.02-0.05-0.04-0.09-0.07-0.14c-0.04-0.06-0.08-0.13-0.12-0.19
							c-0.05-0.06-0.11-0.13-0.17-0.18c-0.05-0.04-0.1-0.08-0.16-0.12c-0.07-0.05-0.15-0.09-0.24-0.14
							c-0.07-0.04-0.15-0.07-0.23-0.1c-0.56-0.22-1.3-0.34-2.03-0.4c-0.17-0.02-0.35-0.04-0.53-0.04c-0.04,0-0.09-0.01-0.14-0.01
							c-0.18-0.01-0.36-0.02-0.53-0.02c-0.45-0.02-0.85-0.01-1.13-0.01c-0.12,0-0.22,0-0.3,0.01c-0.22,0.01-0.45,0.01-0.65,0.03
							c-0.61,0.04-1.09,0.11-1.32,0.18c-0.77,0.27-1.31,2.01-1.56,3.01c-0.09,0.36-0.14,0.62-0.14,0.69
							c-0.01,0.14-0.13,0.29-0.22,0.4c-0.07,0.07-0.13,0.17-0.16,0.26c-0.01,0.01-0.01,0.03-0.01,0.04c0,0.04-0.01,0.07-0.01,0.08
							v0.01c0.01,0.04,0.02,0.07,0.05,0.12c0.04,0.04,0.13,0.1,0.27,0.1c0.09,0,0.19-0.04,0.27-0.07c0.32,0.41,1.52,1.55,4.48,1.46
							c3.52-0.12,4.43-1.82,4.47-1.89c0.01-0.02,0.06-0.14,0.13-0.34c0.02-0.07,0.06-0.17,0.09-0.26c0.05-0.18,0.1-0.39,0.14-0.62
							c0.02-0.12,0.04-0.23,0.04-0.35c0.01-0.05,0.01-0.1,0.01-0.15c0,0,0.01-0.09,0.01-0.22v-0.14
							C108.29,74.53,108.28,74.51,108.28,74.5z M106.87,77.14c-0.1,0.07-0.21,0.14-0.34,0.22c-0.29,0.17-0.66,0.34-1.11,0.48
							c-0.01,0-0.01,0-0.01,0.01c-0.39,0.12-0.84,0.21-1.37,0.26c-0.2,0.02-0.41,0.04-0.64,0.04c-3.28,0.11-4.23-1.39-4.24-1.41
							l-0.09-0.16l-0.17,0.08c0.11-0.14,0.21-0.3,0.22-0.5c0.01-0.04,0.01-0.07,0.02-0.13c0,0,0-0.01,0-0.01
							c0.04-0.22,0.13-0.58,0.25-0.97c0.28-0.93,0.74-2.09,1.18-2.25c0.22-0.08,0.87-0.17,1.86-0.19c1.8-0.06,3.86,0.1,4.77,0.56
							c0.17,0.09,0.29,0.19,0.37,0.29c0.29,0.4,0.36,0.9,0.34,1.39c-0.01,0.25-0.04,0.49-0.09,0.71v0.04
							c-0.12,0.51-0.27,0.88-0.27,0.89C107.53,76.47,107.35,76.79,106.87,77.14z"/>
						<path class="st39" d="M98.88,75.44c0.14-0.13,0.31-0.26,0.51-0.4c0.88-0.63,2.28-1.32,4.25-1.39
							c2.31-0.08,3.56,1.06,4.17,1.93c0.12,0.17,0.21,0.32,0.28,0.46c0.21-0.72,0.41-1.94-0.22-2.81c-0.81-1.11-4.68-1.04-5.45-1.01
							c-0.92,0.03-1.67,0.11-1.97,0.22C99.68,72.69,99.13,74.44,98.88,75.44z"/>
					</g>
				</g>
				<g>
					<path class="st36" d="M86.93,72.65c-0.39-0.26-5.08,0.26-6.82,0.66c-0.51,0.12-1.1,0.15-1.36,0.66
						c-0.25,0.5-0.56,1.49-0.65,2.01c-0.04,0.22,0.03,0.88,0.03,0.88c2.06-0.52,5.05-1.39,7.25-0.93c0.96,0.2,2.66,2.25,2.81,2.28
						C88.16,78.04,87.33,72.92,86.93,72.65z"/>
					<g>
						<path class="st2" d="M78.82,78.46c0,0,0.96,1.62,4.41,1.5c3.45-0.11,4.3-1.79,4.3-1.79s0.36,0.16,0.45,0.04
							c0.09-0.12-0.38-0.37-0.44-0.73c-0.06-0.36-0.92-3.18-1.8-3.42c-0.88-0.24-6.36-0.06-7.15,1.2
							C77.81,76.52,78.82,78.46,78.82,78.46z"/>
						<g>
							<g>
								<g>
									<path class="st37" d="M84.81,76.89c0.05,1.38-1.04,2.54-2.42,2.58c-1.38,0.05-2.54-1.04-2.58-2.42
										c-0.05-1.38,1.04-2.54,2.42-2.58C83.61,74.42,84.77,75.51,84.81,76.89z"/>
								</g>
							</g>
							<path class="st38" d="M84.07,76.94c0.02,0.58-0.43,1.06-1.01,1.08c-0.58,0.02-1.06-0.43-1.08-1.01
								c-0.02-0.58,0.43-1.06,1.01-1.08C83.56,75.91,84.05,76.36,84.07,76.94z"/>
							<path class="st2" d="M82.31,77.04c0.01,0.2-0.15,0.36-0.34,0.37c-0.2,0.01-0.36-0.15-0.36-0.34
								c-0.01-0.19,0.15-0.36,0.34-0.36C82.14,76.69,82.3,76.85,82.31,77.04z"/>
						</g>
						<path class="st36" d="M88.17,78.09C88.17,78.09,88.17,78.09,88.17,78.09c-0.04-0.09-0.12-0.18-0.17-0.25
							c-0.11-0.12-0.24-0.25-0.26-0.39c-0.01-0.07-0.08-0.33-0.19-0.68c-0.25-0.79-0.74-2.07-1.32-2.64
							c-0.03-0.03-0.06-0.05-0.09-0.08c-0.08-0.06-0.15-0.12-0.23-0.14c-0.04-0.01-0.08-0.03-0.12-0.04
							c-0.06-0.01-0.13-0.03-0.22-0.04c-0.04-0.01-0.09-0.01-0.13-0.01c-0.04-0.01-0.07-0.01-0.11-0.01
							c-0.25-0.02-0.56-0.03-0.92-0.03c-0.19,0-0.4,0.01-0.61,0.01c-0.08,0-0.2,0.01-0.35,0.01c-0.15,0.01-0.33,0.01-0.53,0.03
							c-0.99,0.07-2.48,0.24-3.5,0.64c-0.07,0.03-0.14,0.06-0.2,0.09c-0.16,0.07-0.31,0.15-0.43,0.25
							c-0.04,0.03-0.08,0.06-0.12,0.09c-0.05,0.04-0.1,0.09-0.14,0.13c-0.04,0.04-0.08,0.09-0.11,0.14
							c-0.27,0.43-0.35,0.94-0.32,1.42c0,0.1,0.01,0.19,0.02,0.28c0.04,0.32,0.12,0.61,0.19,0.87c0.02,0.09,0.05,0.17,0.08,0.25
							c0.12,0.33,0.23,0.56,0.25,0.58c0.04,0.07,1.06,1.71,4.59,1.6c2.96-0.1,4.08-1.31,4.38-1.75c0.08,0.02,0.18,0.05,0.27,0.04
							c0.14,0,0.22-0.06,0.25-0.12c0.03-0.04,0.04-0.08,0.05-0.12c0,0,0,0,0-0.01C88.19,78.17,88.18,78.13,88.17,78.09z
							 M87.36,78.09c-0.01,0.01-0.44,0.79-1.84,1.29c-0.58,0.21-1.34,0.36-2.3,0.4h-0.01c-3.27,0.1-4.22-1.4-4.22-1.4
							c-0.01-0.01-0.19-0.37-0.33-0.87c-0.06-0.22-0.12-0.47-0.14-0.73c-0.06-0.48-0.01-0.99,0.25-1.41
							c0.45-0.71,2.94-1.12,5.05-1.18c0.99-0.04,1.65,0.01,1.87,0.07c0.46,0.12,0.99,1.25,1.33,2.16c0.14,0.39,0.25,0.74,0.31,0.96
							v0.01c0.01,0.06,0.02,0.1,0.03,0.14c0.03,0.19,0.14,0.35,0.25,0.48l-0.17-0.07L87.36,78.09z"/>
						<path class="st39" d="M87.55,76.78c-0.15-0.12-0.33-0.24-0.53-0.37c-0.92-0.57-2.36-1.17-4.33-1.11
							c-2.31,0.08-3.48,1.29-4.03,2.2c-0.1,0.17-0.19,0.34-0.25,0.48c-0.26-0.71-0.54-1.91,0.03-2.82c0.73-1.16,4.61-1.34,5.38-1.37
							c0.92-0.03,1.68,0,1.98,0.09C86.57,74.09,87.24,75.8,87.55,76.78z"/>
					</g>
				</g>
				<g>
					<path class="st45" d="M121.02,42.89c0.33,4.12-9.37,9.6-10.69,13.48c-0.5,1.46-1.11,5.16-1.56,8.21
						c-0.37,2.5-0.63,4.57-0.63,4.57c-1.74-3.37,0.58-9.54-2.59-12.52c-1.68-1.57-6.26,1.13-9.59,1.27
						c-7.3,0.31-13.8-1.93-16.8,0.68c-0.04,0.03-0.07,0.06-0.11,0.1c-4.49,3.97-5.2,9.54-5.48,13.65c-0.04,0.63-0.07,1.23-0.11,1.78
						c-0.05,0.84-0.11,1.58-0.21,2.16c-0.03-0.02-0.07-0.06-0.1-0.11c-0.37-0.51-1.11-2.39-1.78-4.44
						c-0.22-0.65-0.43-1.32-0.62-1.96c-0.25-0.83-0.46-1.63-0.62-2.3c-1.4-6.02-5.28-14.03-3.65-18.29
						c1.64-4.3,47.96-16.49,53.94-8.01C120.75,41.66,120.96,42.23,121.02,42.89z"/>
					<g>
						<g>
							<path class="st46" d="M121.02,42.89c0.33,4.12-9.37,9.6-10.69,13.48c-0.5,1.46-1.11,5.16-1.56,8.21
								c-0.37,2.5-0.63,4.57-0.63,4.57c-1.74-3.37,0.58-9.54-2.59-12.52c-1.68-1.57-6.26,1.13-9.59,1.27
								c-7.3,0.31-13.8-1.93-16.8,0.68c-0.04,0.03-0.07,0.06-0.11,0.1c-4.49,3.97-5.2,9.54-5.48,13.65
								c-0.04,0.63-0.07,1.23-0.11,1.78c-0.12,0.71-0.22,1.39-0.32,2.05c-0.37-0.51-1.11-2.39-1.78-4.44l-0.79-0.22
								c0.04-0.58,0.1-1.16,0.17-1.74c0.58-4.46,2.21-8.79,4.57-12.55c1.25-2,9.88-13.4,10.62-13.42c1.13-0.03-1.93,4.63-1.92,7.46
								c0.02,3.4,9.9-9.09,10.7-8.56c0.66,0.43-2.79,10.08-1.6,10.71c2.58,1.39,5.41-12.9,7.6-11.56c1.58,0.96-2.06,9.98-1,11.11
								c2.63,2.81,8.44-13.32,10.25-12.25c1.25,0.74-3.82,10.08-3.27,10.68c0.61,0.68,2.35-0.11,3.04-0.26
								c4.05-0.9,7.84-4.02,9.77-7.67c0.35-0.66,0.67-1.45,0.91-2.29C120.75,41.66,120.96,42.23,121.02,42.89z"/>
						</g>
					</g>
				</g>
				<g>
					<path class="st45" d="M98.01,68.17c2.24-1.09,7.67-1.2,9.3-1.21c0.3,0,0.47,0,0.47,0c-0.21-0.32-0.51-1.62-0.92-2.05
						c-0.45-0.47-1.45-0.69-2.09-0.88c-1.81-0.54-3.88-0.96-5.71-1.23c-0.48,1.01-0.62,2.15-0.74,3.28
						C98.23,66.79,98.16,67.5,98.01,68.17z"/>
					<g>
						<g>
							<path class="st46" d="M98.01,68.17c2.24-1.09,7.67-1.2,9.3-1.21c-0.6-0.17-1.19-0.28-1.59-0.37
								c-1.11-0.25-2.51-0.77-3.65-0.7c-0.12-0.43-0.16-0.87-0.29-1.28c-0.36,0.44-0.66,0.93-0.97,1.41
								c-0.06-0.46-0.16-0.97-0.42-1.29c-0.34,0.49-0.6,1-0.83,1.54c0-0.11-0.09-0.33-0.1-0.47c-0.36,0-0.75,0.11-1.15,0.28
								C98.23,66.79,98.16,67.5,98.01,68.17z"/>
						</g>
					</g>
				</g>
				<g>
					<path class="st45" d="M86.71,69.05c-2.3-0.94-7.73-0.7-9.36-0.6c-0.3,0.02-0.47,0.03-0.47,0.03c0.19-0.34,0.41-1.65,0.79-2.1
						c0.42-0.49,1.4-0.78,2.03-1.01c1.78-0.65,3.81-1.21,5.62-1.6c0.55,0.98,0.76,2.11,0.96,3.22
						C86.4,67.69,86.52,68.39,86.71,69.05z"/>
					<g>
						<g>
							<path class="st46" d="M86.71,69.05c-2.3-0.94-7.73-0.7-9.36-0.6c0.59-0.21,1.17-0.36,1.56-0.47
								c1.09-0.32,2.46-0.93,3.59-0.94c0.09-0.44,0.1-0.87,0.2-1.3c0.39,0.42,0.72,0.89,1.06,1.35c0.03-0.47,0.09-0.98,0.34-1.31
								c0.37,0.46,0.66,0.96,0.93,1.48c0-0.11,0.07-0.33,0.07-0.47c0.36-0.02,0.76,0.06,1.16,0.2
								C86.4,67.69,86.52,68.39,86.71,69.05z"/>
						</g>
					</g>
				</g>
				<path class="st33" d="M91.21,90.88c2.01-0.02,11.17,2.93,6.54-4.29c-1.01-1.58-1.98-8.07-1.86-10.13
					c0.08-1.39-0.17-2.91,0.07-4.27c0,0,0.6,7.96,2.04,11.23c0.75,1.69,1.54,3.35,2.42,4.98c0.45,0.83,0.65,1.05,0.29,1.94
					c-1.19,2.94-5.85,3.71-8.11,1.93c-0.36,0.35-0.89,0.58-1.35,0.82C90.69,92.56,90.84,91.51,91.21,90.88z"/>
				<g>
					<path class="st32" d="M65.65,68.63c1.03-0.63,2.42-0.28,3.63-0.15c1.29,0.14,3.19,0.35,3.53,1.85c0.27,1.17,0.01,2.7,0.05,3.93
						l-0.37,7.67c-0.54,0.27-2.3,0.34-2.89-0.01c-0.77-0.46-3.77-7.41-4.45-10.22C64.83,70.39,64.35,69.42,65.65,68.63z"/>
					<path class="st33" d="M66.13,70.16c0.23-1.02,1.47-0.68,2.34-0.61c0.86,0.07,2.35,0.03,3.02,0.7c0.66,0.66,0.45,2.73,0.41,3.73
						c-2.2-0.53-2.08,2.85-0.2,2.6l0.02,0.62c0.03,0.83-0.01,1.84-0.23,2.4c-0.02-0.65,0.16-1.93-0.28-2.41
						c-0.43-0.47-1.37-0.32-1.87-0.76c-1.3-1.17,0.28-2.58,1.51-2.94c-0.06-0.45,0-1.58-0.25-1.95c-0.29-0.42-1.28-0.51-1.79-0.66
						c-0.77-0.21-1.28-0.53-1.64,0.13c-0.25,0.45-0.07,1.24-0.04,1.75C66.74,72.16,65.97,70.86,66.13,70.16z"/>
				</g>
				<path class="st33" d="M89.49,97.21c-1.37-0.76-7.79-4.55-4.83-6.32c-1.1-0.31-3.06,0.95-3.34,2.06L80.55,94
					c1.78-0.89,2.55,0.87,3.83,1.8c1.35,0.98,2.81,1.99,4.29,2.73c1.67,0.84,3.68,1.45,5.56,1.63c1.32,0.13,3.53,0.26,4.7-0.43
					C95.92,100.31,92.1,98.65,89.49,97.21z"/>
				<path class="st33" d="M92.12,103.03c0,0,2.7,2.56,3.71,3.64c0.39-1.12,1.22-2.55,1.41-3.73
					C95.62,103.92,93.57,102.93,92.12,103.03z"/>
			</g>
			<g>
				<path class="st44" d="M99.02,162.61c-2.68,0.46-5.4,0.79-8.16,0.96c-1.69,0.11-3.39,0.17-5.11,0.17c-2.07,0-4.12-0.08-6.15-0.24
					c2.04-2.09,5.23-3.59,8.91-3.94c0.59-0.06,1.18-0.08,1.75-0.06C93.81,159.54,96.97,160.72,99.02,162.61z"/>
			</g>
			<g>
				<g>
					<path class="st47" d="M42.48,150.55l0.07-0.07C42.51,150.49,42.49,150.52,42.48,150.55z"/>
				</g>
			</g>
			<g>
				<g>
					<path class="st48" d="M67.27,150.27c-0.07,2.64,0.62,6.98,1.55,11.62c-13.63-3.01-25.92-9.6-35.84-18.72
						c-0.52-0.48-1.04-0.97-1.55-1.47c0.34-1.51,0.75-2.87,1.22-4.09c0.01-0.04,0.03-0.08,0.05-0.12c1.52-3.94,3.65-6.43,6.1-7.79
						C49.85,123.58,67.51,140.28,67.27,150.27z"/>
				</g>
			</g>
		</g>
	</g>
</g>
</svg>
