<?xml version="1.0" encoding="utf-8"?>
<!-- Generator: Adobe Illustrator 27.2.0, SVG Export Plug-In . SVG Version: 6.00 Build 0)  -->
<svg version="1.1" id="Layer_1" xmlns="http://www.w3.org/2000/svg" xmlns:xlink="http://www.w3.org/1999/xlink" x="0px" y="0px"
	 viewBox="0 0 171.51 171.51" style="enable-background:new 0 0 171.51 171.51;" xml:space="preserve">
<style type="text/css">
	.st0{fill:#F7F2DA;}
	.st1{fill:#FBA479;}
	.st2{fill:#FFFFFF;}
	.st3{fill:#E1DFEA;}
	.st4{fill:#261411;}
	.st5{fill:#60312B;}
	.st6{fill:#EF7950;}
	.st7{fill:#60281F;}
	.st8{fill:#E8E6E6;}
	.st9{fill:#3A2827;}
	.st10{fill:#CCCCCC;}
	.st11{fill:#595857;}
	.st12{fill:#F28C5F;}
	.st13{fill:#E26939;}
	.st14{fill:#56413D;}
	.st15{fill:#44322E;}
	.st16{fill:#873421;}
	.st17{fill:#EA6CA0;}
	.st18{fill:#DB5290;}
	.st19{fill:#F48656;}
	.st20{fill:#82112F;}
	.st21{fill:#D85039;}
	.st22{fill:#574984;}
	.st23{fill:#291C51;}
	.st24{fill:#FC5135;}
	.st25{fill:#FFCC7B;}
	.st26{fill:#E8A749;}
	.st27{fill:#6D4A44;}
	.st28{fill:#D1E3E8;}
	.st29{fill:#FCFBFA;}
	.st30{fill:#4C4C4B;}
	.st31{fill:#686868;}
	.st32{fill:#FFB884;}
	.st33{fill:#EF9C62;}
	.st34{fill:#874410;}
	.st35{fill:#6D340D;}
	.st36{fill:#E89258;}
	.st37{fill:#3A2E26;}
	.st38{fill:#4C3F35;}
	.st39{opacity:0.1;}
	.st40{fill:#60120F;}
	.st41{fill:#F4F0ED;}
	.st42{fill:#E0312D;}
	.st43{fill:#F42F2F;}
	.st44{fill:#D31111;}
	.st45{fill:#DB9B19;}
	.st46{fill:#AF740B;}
	.st47{fill:#CC2121;}
	.st48{fill:#F74B4B;}
	.st49{fill:#FCF9E8;}
	.st50{opacity:0.5;fill:#827571;}
	.st51{fill:#665D5C;}
	.st52{fill:#4F4746;}
	.st53{fill:#5E3B2F;}
	.st54{fill:#492E27;}
	.st55{opacity:0.4;}
	.st56{fill:#443A36;}
	.st57{fill:#51415E;}
	.st58{fill:#066FB7;}
	.st59{fill:#066396;}
	.st60{fill:#0D8FD6;}
	.st61{fill:#FEAC74;}
	.st62{fill:#E3784C;}
	.st63{fill:#580801;}
	.st64{fill:#440502;}
	.st65{fill:#00ABB2;}
	.st66{fill:#008C8C;}
	.st67{fill:#914E34;}
	.st68{fill:#5B2E1D;}
	.st69{fill:#6A3221;}
	.st70{fill:#FAFAFC;}
	.st71{fill:#2B3B3F;}
	.st72{fill:#3F565B;}
	.st73{fill:#EF7348;}
	.st74{fill:#6F3D26;}
	.st75{fill:#BBBEBF;}
	.st76{fill:#D3D3D3;}
	.st77{fill:#939A9E;}
	.st78{fill:#F79C5E;}
	.st79{fill:#E07832;}
	.st80{fill:#604135;}
	.st81{fill:#EFEAE8;}
	.st82{fill:#4F3229;}
	.st83{fill:#1A3D3A;}
	.st84{fill:#E8E8E8;}
	.st85{fill:#0C83C4;}
	.st86{fill:#1B96EA;}
	.st87{fill:#B50F0F;}
	.st88{opacity:0.4;fill:#E89258;}
	.st89{fill:#26ACF7;}
	.st90{fill:#F45347;}
	.st91{fill:#FF3939;}
	.st92{fill:#686766;}
	.st93{fill:#5E5D5B;}
	.st94{fill:#424140;}
	.st95{fill:#E7E1CB;}
	.st96{fill:#D6CFBA;}
	.st97{fill:#CE5C37;}
	.st98{fill:#B74D30;}
	.st99{fill:#1B313D;}
	.st100{fill:#36474F;}
	.st101{fill:#29526D;}
	.st102{fill:#FCBD88;}
	.st103{fill:#FCA265;}
	.st104{fill:#496B7A;}
	.st105{fill:#B76049;}
	.st106{fill:#EDEDED;}
	.st107{fill:#7C7979;}
	.st108{fill:#EFE6E8;}
	.st109{fill:#B20D28;}
	.st110{fill:#346682;}
	.st111{fill:#AA0E28;}
	.st112{fill:#FF5050;}
	.st113{fill:#781A0E;}
	.st114{fill:#560904;}
	.st115{fill:#FF0B40;}
	.st116{fill:#BC0000;}
	.st117{fill:#FFD731;}
	.st118{fill:#EA6453;}
	.st119{fill:#602618;}
	.st120{fill:#A14F2A;}
	.st121{fill:#3A4E66;}
	.st122{fill:#EAE9EE;}
	.st123{opacity:0.3;fill:#3A4E66;}
	.st124{fill:#5E2701;}
	.st125{fill:#773000;}
	.st126{fill:#EA2F4A;}
	.st127{fill:#C41234;}
	.st128{fill:#F7F0F1;}
	.st129{fill:#F7A76F;}
	.st130{fill:#B24800;}
	.st131{fill:#8C3B03;}
	.st132{fill:#567391;}
	.st133{fill:#FF7271;}
	.st134{fill:#F75E5E;}
	.st135{fill:#700F28;}
	.st136{fill:#9E1533;}
	.st137{fill:#871231;}
	.st138{fill:#211B3A;}
	.st139{fill:#2E2951;}
	.st140{fill:#F28670;}
	.st141{fill:#F46060;}
	.st142{fill:#EBBF44;}
	.st143{fill:#E0A91E;}
	.st144{fill:#FFA992;}
	.st145{fill:#2C363F;}
	.st146{fill:#1D262D;}
	.st147{fill-rule:evenodd;clip-rule:evenodd;fill:#FFF5F5;}
	.st148{opacity:0.2;}
	.st149{fill:#7C4949;}
	.st150{fill:#F9AE7A;}
	.st151{fill:#FFF5F5;}
	.st152{fill:#C92727;}
	.st153{fill:#4C1B05;}
	.st154{fill:#592009;}
	.st155{opacity:0.4;fill:#592009;}
	.st156{fill:#3F1307;}
	.st157{fill:#664472;}
	.st158{fill:#473051;}
	.st159{fill:#352020;}
	.st160{opacity:0.3;fill:#7C4949;}
</style>
<g>
	<path class="st0" d="M151.68,127.41c-2.36,3.73-4.98,7.19-7.83,10.38c-0.64,0.71-1.29,1.42-1.96,2.11
		c-1.43,1.49-2.92,2.92-4.46,4.29c-0.17,0.15-0.35,0.31-0.53,0.46c-0.35,0.3-0.71,0.61-1.06,0.9c-0.27,0.22-0.54,0.45-0.82,0.67
		c-0.26,0.21-0.52,0.42-0.78,0.63c-0.01,0-0.01,0.01-0.02,0.01c-1.39,1.11-2.82,2.17-4.27,3.16c-0.23,0.16-0.47,0.32-0.71,0.47
		c-0.24,0.16-0.48,0.32-0.71,0.47c-0.24,0.17-0.48,0.32-0.73,0.48c-0.5,0.32-1,0.63-1.5,0.94c-0.02,0.01-0.04,0.03-0.06,0.04
		c-0.24,0.15-0.48,0.29-0.71,0.43c-0.4,0.25-0.82,0.49-1.23,0.72c-0.01,0.01-0.02,0.01-0.04,0.02c-0.4,0.23-0.82,0.46-1.23,0.69
		c-0.3,0.17-0.61,0.33-0.94,0.49c-0.03,0.01-0.07,0.04-0.1,0.05c-0.9,0.47-1.8,0.92-2.71,1.35c-0.36,0.18-0.73,0.35-1.1,0.51
		c-0.25,0.12-0.49,0.22-0.74,0.33c-0.17,0.08-0.35,0.16-0.53,0.24c-0.07,0.03-0.14,0.06-0.2,0.09c-0.08,0.04-0.16,0.07-0.24,0.1
		c-0.12,0.05-0.23,0.1-0.35,0.15c-0.07,0.03-0.13,0.05-0.19,0.08c-0.03,0.01-0.07,0.03-0.09,0.04c-0.5,0.21-0.98,0.41-1.49,0.6
		c-0.08,0.04-0.17,0.07-0.25,0.1c-0.22,0.08-0.44,0.17-0.66,0.25c-0.04,0.01-0.07,0.03-0.11,0.04c-0.04,0.02-0.09,0.04-0.13,0.05
		c-0.2,0.09-0.42,0.16-0.63,0.24c-0.14,0.05-0.27,0.1-0.42,0.15c-0.09,0.04-0.19,0.07-0.29,0.11c-0.08,0.03-0.17,0.06-0.25,0.09
		c-0.45,0.16-0.9,0.31-1.35,0.46c-0.63,0.2-1.26,0.4-1.88,0.59c-0.01,0-0.01,0.01-0.02,0.01c-0.08,0.03-0.15,0.04-0.23,0.07
		c-0.14,0.04-0.27,0.08-0.41,0.12c-0.05,0.01-0.1,0.03-0.15,0.04c-0.3,0.09-0.59,0.17-0.89,0.25c-0.07,0.01-0.14,0.04-0.2,0.05
		c-0.14,0.04-0.3,0.08-0.45,0.12c-0.15,0.04-0.3,0.08-0.45,0.12c-0.33,0.09-0.67,0.17-1,0.26c-0.1,0.02-0.2,0.05-0.3,0.07
		c-0.08,0.02-0.15,0.04-0.23,0.06c-0.46,0.11-0.92,0.22-1.37,0.33c-0.18,0.04-0.36,0.08-0.55,0.12c-0.41,0.09-0.82,0.18-1.23,0.26
		c-0.01,0-0.03,0.01-0.04,0.01c-0.07,0.01-0.15,0.03-0.22,0.04c-0.63,0.12-1.26,0.24-1.89,0.34c-1.14,0.2-2.28,0.36-3.43,0.5
		c-0.23,0.04-0.45,0.06-0.69,0.09c-0.02,0-0.05,0.01-0.07,0.01c-0.44,0.05-0.87,0.09-1.31,0.13c-0.03,0-0.07,0.01-0.09,0.01
		c-0.25,0.03-0.48,0.05-0.73,0.07c-0.48,0.05-0.94,0.08-1.42,0.11c-0.47,0.04-0.94,0.07-1.41,0.08c-0.75,0.05-1.49,0.07-2.25,0.08
		c-0.01,0-0.01,0-0.01,0c-0.15,0.01-0.31,0.01-0.46,0.01c-0.04,0-0.07,0.01-0.11,0.01c-0.17,0.01-0.35,0.01-0.52,0
		c-0.17,0.01-0.33,0.01-0.51,0.01c-0.2,0-0.4,0-0.61-0.01c-0.13,0-0.27-0.01-0.4-0.01c-0.35-0.01-0.69-0.01-1.04-0.01
		c-0.3-0.01-0.58-0.02-0.88-0.04c-0.04-0.01-0.06-0.01-0.1-0.01c-1.18-0.04-2.36-0.12-3.54-0.21c-0.22-0.02-0.44-0.04-0.66-0.07
		c-0.3-0.03-0.6-0.06-0.9-0.09c-1.51-0.14-3.01-0.35-4.51-0.59c-0.58-0.1-1.16-0.2-1.74-0.31c-0.18-0.04-0.37-0.07-0.56-0.11
		c-0.17-0.03-0.33-0.06-0.5-0.09c-0.06-0.01-0.12-0.04-0.18-0.04c-0.28-0.06-0.56-0.12-0.85-0.18c-0.08-0.01-0.16-0.04-0.24-0.05
		c-0.33-0.07-0.65-0.14-0.98-0.22h-0.01c-1.21-0.28-2.41-0.59-3.61-0.93c-0.11-0.03-0.2-0.07-0.3-0.09
		c-0.01-0.01-0.04-0.01-0.05-0.01c-0.04-0.01-0.08-0.02-0.12-0.04c-0.04-0.01-0.09-0.03-0.14-0.04c-1.38-0.4-2.75-0.84-4.12-1.34
		c-0.2-0.07-0.4-0.14-0.6-0.22c-0.29-0.1-0.57-0.21-0.85-0.32c-0.36-0.14-0.72-0.27-1.08-0.42c-0.24-0.09-0.47-0.19-0.7-0.28
		c-0.17-0.07-0.33-0.13-0.49-0.2c-0.1-0.04-0.19-0.08-0.3-0.12c-0.01-0.01-0.03-0.01-0.04-0.02c-0.06-0.02-0.12-0.04-0.17-0.07
		c-0.05-0.02-0.11-0.04-0.16-0.07c-0.06-0.03-0.13-0.05-0.19-0.08c-0.03-0.01-0.06-0.03-0.09-0.04c-0.12-0.04-0.25-0.1-0.37-0.16
		c-0.09-0.04-0.19-0.08-0.28-0.12c-0.09-0.04-0.19-0.08-0.27-0.13c-0.01,0-0.01-0.01-0.01-0.01c-0.24-0.11-0.48-0.21-0.71-0.32
		c-0.22-0.09-0.43-0.19-0.64-0.29c-0.17-0.07-0.33-0.15-0.5-0.22c-0.35-0.17-0.69-0.34-1.03-0.51c-0.28-0.14-0.56-0.29-0.84-0.43
		c-0.05-0.02-0.11-0.05-0.16-0.08c-0.32-0.16-0.65-0.34-0.97-0.51c-0.03-0.01-0.06-0.03-0.09-0.05c-0.05-0.02-0.09-0.05-0.14-0.08
		c-0.34-0.17-0.67-0.35-1-0.53c-0.03-0.01-0.05-0.03-0.08-0.05c-0.13-0.06-0.26-0.14-0.39-0.22c-0.04-0.02-0.08-0.04-0.12-0.07
		c-0.2-0.12-0.4-0.23-0.61-0.35c-0.04-0.01-0.09-0.04-0.14-0.08c-0.2-0.11-0.4-0.22-0.61-0.35c-0.19-0.12-0.38-0.22-0.57-0.35
		c-0.01-0.01-0.02-0.01-0.03-0.02c-0.06-0.03-0.12-0.06-0.19-0.11c-0.09-0.06-0.19-0.12-0.28-0.17c-0.18-0.11-0.36-0.22-0.53-0.32
		c-0.12-0.07-0.23-0.14-0.35-0.22c-0.12-0.07-0.24-0.15-0.35-0.22c-0.24-0.15-0.48-0.31-0.71-0.46c-0.04-0.03-0.09-0.06-0.14-0.09
		c-0.04-0.02-0.07-0.05-0.11-0.07c-0.04-0.03-0.08-0.05-0.12-0.08l-0.06-0.04c-0.01-0.01-0.02-0.01-0.03-0.01
		c-0.21-0.13-0.4-0.26-0.6-0.41c-0.25-0.15-0.49-0.32-0.73-0.49c-0.01-0.01-0.04-0.02-0.05-0.04c-0.03-0.01-0.06-0.04-0.09-0.06
		c-0.11-0.08-0.21-0.15-0.31-0.22c-0.1-0.07-0.2-0.14-0.3-0.2c-0.16-0.12-0.32-0.22-0.47-0.33c-0.02-0.01-0.04-0.03-0.05-0.04
		c-0.61-0.43-1.2-0.87-1.78-1.33c-0.38-0.29-0.76-0.58-1.13-0.87c-0.45-0.36-0.9-0.73-1.34-1.1c-0.06-0.06-0.14-0.12-0.21-0.17
		c-0.62-0.51-1.23-1.05-1.83-1.6c-0.48-0.42-0.95-0.85-1.41-1.29c-0.14-0.12-0.27-0.25-0.4-0.38c-0.36-0.33-0.71-0.67-1.05-1.02
		c-0.22-0.2-0.43-0.41-0.64-0.63l-0.01-0.01c-0.43-0.43-0.84-0.87-1.26-1.31c-0.07-0.07-0.13-0.13-0.19-0.2
		c-0.01-0.01-0.03-0.02-0.04-0.04c-0.25-0.27-0.51-0.53-0.74-0.81c-0.46-0.51-0.91-1.01-1.34-1.53c-0.15-0.16-0.29-0.32-0.43-0.48
		c-1.17-1.39-2.3-2.82-3.37-4.28c-0.6-0.82-1.18-1.65-1.75-2.5c-0.1-0.14-0.19-0.29-0.3-0.43c-0.16-0.24-0.32-0.48-0.48-0.73
		c-0.01-0.03-0.02-0.04-0.04-0.07c-0.87-1.34-1.7-2.7-2.47-4.09c-0.09-0.15-0.19-0.32-0.27-0.5c-0.55-0.96-1.05-1.94-1.55-2.93
		c-0.32-0.66-0.64-1.3-0.95-1.96c-1.06-2.3-2.01-4.64-2.85-7.03c-0.38-1.1-0.75-2.21-1.08-3.34c-0.03-0.09-0.06-0.17-0.08-0.27
		c-0.07-0.23-0.14-0.45-0.21-0.69c-0.18-0.63-0.35-1.26-0.52-1.89C5.04,85.28,7.82,63.09,19.83,44.1
		C42.84,7.68,91.01-3.18,127.41,19.83C163.83,42.83,174.69,91,151.68,127.41z"/>
	<g>
		<path class="st57" d="M126.24,152.42c-0.24,0.15-0.48,0.29-0.71,0.43c-0.4,0.25-0.82,0.49-1.23,0.72
			c-0.01,0.01-0.02,0.01-0.04,0.02c-0.4,0.23-0.82,0.46-1.23,0.69c-0.3,0.17-0.61,0.33-0.94,0.49c-0.03,0.01-0.07,0.04-0.1,0.05
			c-0.9,0.47-1.8,0.92-2.71,1.35c-0.36,0.18-0.73,0.35-1.1,0.51c-0.25,0.12-0.49,0.22-0.74,0.33c-0.17,0.08-0.35,0.16-0.53,0.24
			c-0.07,0.03-0.14,0.06-0.2,0.09c-0.08,0.04-0.16,0.07-0.24,0.1c-0.12,0.05-0.23,0.1-0.35,0.15c-0.07,0.03-0.13,0.05-0.19,0.08
			c-0.03,0.01-0.07,0.03-0.09,0.04c-0.5,0.21-0.98,0.41-1.49,0.6c-0.08,0.04-0.17,0.07-0.25,0.1c-0.22,0.08-0.44,0.17-0.66,0.25
			c-0.04,0.01-0.07,0.03-0.11,0.04c-0.04,0.02-0.09,0.04-0.13,0.05c-0.2,0.09-0.42,0.16-0.63,0.24c-0.14,0.05-0.27,0.1-0.42,0.15
			c-0.09,0.04-0.19,0.07-0.29,0.11c-0.08,0.03-0.17,0.06-0.25,0.09c-0.45,0.16-0.9,0.31-1.35,0.46c-0.63,0.2-1.26,0.4-1.88,0.59
			c-0.01,0-0.01,0.01-0.02,0.01c-0.08,0.03-0.15,0.04-0.23,0.07c-0.14,0.04-0.27,0.08-0.41,0.12c-0.05,0.01-0.1,0.03-0.15,0.04
			c-0.3,0.09-0.59,0.17-0.89,0.25c-0.07,0.01-0.14,0.04-0.2,0.05c-0.14,0.04-0.3,0.08-0.45,0.12c-0.15,0.04-0.3,0.08-0.45,0.12
			c-0.33,0.09-0.67,0.17-1,0.26c-0.1,0.02-0.2,0.05-0.3,0.07c-0.08,0.02-0.15,0.04-0.23,0.06c-0.46,0.11-0.92,0.22-1.37,0.33
			c-0.18,0.04-0.36,0.08-0.55,0.12c-0.41,0.09-0.82,0.18-1.23,0.26c-0.01,0-0.03,0.01-0.04,0.01c-0.07,0.01-0.15,0.03-0.22,0.04
			c-0.63,0.12-1.26,0.24-1.89,0.34c-1.14,0.2-2.28,0.36-3.43,0.5c-0.23,0.04-0.45,0.06-0.69,0.09c-0.02,0-0.05,0.01-0.07,0.01
			c-0.44,0.05-0.87,0.09-1.31,0.13c-0.03,0-0.07,0.01-0.09,0.01c-0.25,0.03-0.48,0.05-0.73,0.07c-0.48,0.05-0.94,0.08-1.42,0.11
			c-0.47,0.04-0.94,0.07-1.41,0.08c-0.75,0.05-1.49,0.07-2.25,0.08c-0.01,0-0.01,0-0.01,0c-0.15,0.01-0.31,0.01-0.46,0.01
			c-0.04,0-0.07,0.01-0.11,0.01c-0.17,0.01-0.35,0.01-0.52,0c-0.17,0.01-0.33,0.01-0.51,0.01c-0.2,0-0.4,0-0.61-0.01
			c-0.13,0-0.27-0.01-0.4-0.01c-0.35-0.01-0.69-0.01-1.04-0.01c-0.3-0.01-0.58-0.02-0.88-0.04c-0.04-0.01-0.06-0.01-0.1-0.01
			c-1.18-0.04-2.36-0.12-3.54-0.21c-0.22-0.02-0.44-0.04-0.66-0.07c-0.3-0.03-0.6-0.06-0.9-0.09c-1.51-0.14-3.01-0.35-4.51-0.59
			c-0.58-0.1-1.16-0.2-1.74-0.31c-0.18-0.04-0.37-0.07-0.56-0.11c-0.17-0.03-0.33-0.06-0.5-0.09c-0.06-0.01-0.12-0.04-0.18-0.04
			c-0.28-0.06-0.56-0.12-0.85-0.18c-0.08-0.01-0.16-0.04-0.24-0.05c-0.33-0.07-0.65-0.14-0.98-0.22h-0.01
			c-1.21-0.28-2.41-0.59-3.61-0.93c-0.11-0.03-0.2-0.07-0.3-0.09c-0.01-0.01-0.04-0.01-0.05-0.01c-0.04-0.01-0.08-0.02-0.12-0.04
			c-0.04-0.01-0.09-0.03-0.14-0.04c-1.38-0.4-2.75-0.84-4.12-1.34c-0.2-0.07-0.4-0.14-0.6-0.22c-0.29-0.1-0.57-0.21-0.85-0.32
			c-0.36-0.14-0.72-0.27-1.08-0.42c-0.24-0.09-0.47-0.19-0.7-0.28c-0.17-0.07-0.33-0.13-0.49-0.2c-0.1-0.04-0.19-0.08-0.3-0.12
			c-0.01-0.01-0.03-0.01-0.04-0.02c-0.06-0.02-0.12-0.04-0.17-0.07c-0.05-0.02-0.11-0.04-0.16-0.07c-0.06-0.03-0.13-0.05-0.19-0.08
			c-0.03-0.01-0.06-0.03-0.09-0.04c-0.12-0.04-0.25-0.1-0.37-0.16c-0.09-0.04-0.19-0.08-0.28-0.12c-0.09-0.04-0.19-0.08-0.27-0.13
			c0.59-17.03,4.47-27.2,10.12-35.53c0-0.01,0.01-0.02,0.01-0.03c0.03-0.01,0.06-0.01,0.09-0.01c1.29-0.19,4.74-1.29,8.8-2.69
			c0.06-0.02,0.12-0.04,0.18-0.06c1.94-0.66,4.02-1.4,6.07-2.13c0.52-0.19,1.04-0.38,1.56-0.56c5.45-1.96,10.36-3.79,11.47-4.21
			c0.15-0.05,0.23-0.08,0.23-0.08c1.1,1.06,6.28,0.83,9.9,1.18c0.45,0.05,0.87,0.1,1.26,0.17c0.3,0.05,0.64,0.12,1.01,0.22
			c0.26,0.07,0.54,0.14,0.84,0.24c2.57,0.78,6.16,2.35,9.92,4.27c0.81,0.41,1.62,0.84,2.44,1.29c4.35,2.35,8.68,5.06,11.7,7.48
			c2.12,1.7,3.6,3.26,3.96,4.46C135.6,137.46,130.03,144,126.24,152.42z"/>
		<path class="st58" d="M128.91,150.16c-0.12,0.27-0.25,0.54-0.38,0.81c-0.24,0.17-0.48,0.32-0.73,0.48c-0.5,0.32-1,0.63-1.5,0.94
			c-0.02,0.01-0.04,0.03-0.06,0.04c-0.24,0.15-0.48,0.29-0.71,0.43c-0.4,0.25-0.82,0.49-1.23,0.72c-0.01,0.01-0.02,0.01-0.04,0.02
			c-0.4,0.23-0.82,0.46-1.23,0.69c-0.3,0.17-0.61,0.33-0.94,0.49c-0.03,0.01-0.07,0.04-0.1,0.05c-0.9,0.47-1.8,0.92-2.71,1.35
			c-0.36,0.18-0.73,0.35-1.1,0.51c-0.25,0.12-0.49,0.22-0.74,0.33c-0.17,0.08-0.35,0.16-0.53,0.24c-0.07,0.03-0.14,0.06-0.2,0.09
			c-0.08,0.04-0.16,0.07-0.24,0.1c-0.12,0.05-0.23,0.1-0.35,0.15c-0.07,0.03-0.13,0.05-0.19,0.08c-0.03,0.01-0.07,0.03-0.09,0.04
			c-0.5,0.21-0.98,0.41-1.49,0.6c-0.08,0.04-0.17,0.07-0.25,0.1c-0.22,0.08-0.44,0.17-0.66,0.25c-0.04,0.01-0.07,0.03-0.11,0.04
			c-0.04,0.02-0.09,0.04-0.13,0.05c-0.2,0.09-0.42,0.16-0.63,0.24c-0.14,0.05-0.27,0.1-0.42,0.15c-0.09,0.04-0.19,0.07-0.29,0.11
			c-0.08,0.03-0.17,0.06-0.25,0.09c-0.45,0.16-0.9,0.31-1.35,0.46c-0.63,0.2-1.26,0.4-1.88,0.59c-0.01,0-0.01,0.01-0.02,0.01
			c-0.08,0.03-0.15,0.04-0.23,0.07c-0.14,0.04-0.27,0.08-0.41,0.12c-0.05,0.01-0.1,0.03-0.15,0.04c-0.3,0.09-0.59,0.17-0.89,0.25
			c-0.07,0.01-0.14,0.04-0.2,0.05c-0.14,0.04-0.3,0.08-0.45,0.12c-0.15,0.04-0.3,0.08-0.45,0.12c-0.33,0.09-0.67,0.17-1,0.26
			c-0.1,0.02-0.2,0.05-0.3,0.07c-0.08,0.02-0.15,0.04-0.23,0.06c-0.46,0.11-0.92,0.22-1.37,0.33c-0.18,0.04-0.36,0.08-0.55,0.12
			c-0.41,0.09-0.82,0.18-1.23,0.26c-0.01,0-0.03,0.01-0.04,0.01c-0.07,0.01-0.15,0.03-0.22,0.04c-0.63,0.12-1.26,0.24-1.89,0.34
			c-1.14,0.2-2.28,0.36-3.43,0.5c-0.23,0.04-0.45,0.06-0.69,0.09c-0.02,0-0.05,0.01-0.07,0.01c-0.44,0.05-0.87,0.09-1.31,0.13
			c-0.03,0-0.07,0.01-0.09,0.01c-0.25,0.03-0.48,0.05-0.73,0.07c-0.48,0.05-0.94,0.08-1.42,0.11c-0.47,0.04-0.94,0.07-1.41,0.08
			c-0.75,0.05-1.49,0.07-2.25,0.08c-0.01,0-0.01,0-0.01,0c-0.15,0.01-0.31,0.01-0.46,0.01c-0.04,0-0.07,0.01-0.11,0.01
			c-0.17,0.01-0.35,0.01-0.52,0c-0.17,0.01-0.33,0.01-0.51,0.01c-0.2,0-0.4,0-0.61-0.01c-0.13,0-0.27-0.01-0.4-0.01
			c-0.35-0.01-0.69-0.01-1.04-0.01c-0.3-0.01-0.58-0.02-0.88-0.04c1.48-3.75,2.94-7.52,4.34-11.32c2.5-6.78,13.91-30.88,18.27-38.47
			c0.08-0.14,0.15-0.27,0.22-0.39c0.07-0.12,0.14-0.25,0.22-0.36c0,0,5.89,2.31,12.47,5.68c4.7,2.4,9.76,5.34,13.32,8.37
			c0.09,0.07,0.18,0.15,0.27,0.23C139.11,133.74,131.96,143.44,128.91,150.16z"/>
		<path class="st59" d="M106.79,141.93l0.48,1.42l-12.67,19.89c-0.02,0-0.05,0.01-0.07,0.01c-0.44,0.05-0.87,0.09-1.31,0.13
			c-0.03,0-0.07,0.01-0.09,0.01c-0.25,0.03-0.48,0.05-0.73,0.07c-0.48,0.05-0.94,0.08-1.42,0.11c-0.47,0.04-0.94,0.07-1.41,0.08
			c-0.75,0.05-1.49,0.07-2.25,0.08c-0.01,0-0.01,0-0.01,0c-0.15,0.01-0.31,0.01-0.46,0.01c-0.04,0-0.07,0.01-0.11,0.01
			c-0.17,0.01-0.35,0.01-0.52,0c-0.17,0.01-0.33,0.01-0.51,0.01c-0.2,0-0.4,0-0.61-0.01c-0.13,0-0.27-0.01-0.4-0.01
			c-0.35-0.01-0.69-0.01-1.04-0.01c1.21-3.11,2.41-6.22,3.57-9.35c2.5-6.78,13.91-30.88,18.27-38.46l11,4.2l1.91,0.73l-14.68,10.39
			l-0.47,0.33L106.79,141.93z"/>
		<path class="st60" d="M118.31,118.84l-0.33,0.23l-1.47,1.04l-13.34,9.45l0.57,1.67l3.43,10.11l-0.38,0.59l-13.68,21.45
			c-0.25,0.03-0.48,0.05-0.73,0.07c-0.48,0.05-0.94,0.08-1.42,0.11c-0.47,0.04-0.94,0.07-1.41,0.08c-0.75,0.05-1.49,0.07-2.25,0.08
			c-0.01,0-0.01,0-0.01,0c-0.15,0.01-0.31,0.01-0.46,0.01c-0.04,0-0.07,0.01-0.11,0.01c-0.17,0.01-0.35,0.01-0.52,0
			c-0.17,0.01-0.33,0.01-0.51,0.01c-0.2,0-0.4,0-0.61-0.01c-0.13,0-0.27-0.01-0.4-0.01c-0.35-0.01-0.69-0.01-1.04-0.01
			c-0.3-0.01-0.58-0.02-0.88-0.04c1.48-3.75,2.94-7.52,4.34-11.32c2.5-6.78,13.91-30.88,18.27-38.47l10.15,3.88L118.31,118.84z"/>
		<g>
			<path class="st58" d="M73.3,118.62c0,0-0.01,0.02-0.01,0.07C73,120,68.46,141.08,64.12,160.7c-0.01-0.01-0.04-0.01-0.05-0.01
				c-0.04-0.01-0.08-0.02-0.12-0.04c-0.04-0.01-0.09-0.03-0.14-0.04c-1.38-0.4-2.75-0.84-4.12-1.34c-0.2-0.07-0.4-0.14-0.6-0.22
				c-0.29-0.1-0.57-0.21-0.85-0.32c-0.36-0.14-0.72-0.27-1.08-0.42c-0.24-0.09-0.47-0.19-0.7-0.28c-0.17-0.07-0.33-0.13-0.49-0.2
				c-0.1-0.04-0.19-0.08-0.3-0.12c-0.01-0.01-0.03-0.01-0.04-0.02c-0.06-0.02-0.12-0.04-0.17-0.07c-0.05-0.02-0.11-0.04-0.16-0.07
				c-0.06-0.03-0.13-0.05-0.19-0.08c-0.03-0.01-0.06-0.03-0.09-0.04c-0.12-0.04-0.25-0.1-0.37-0.16c-0.09-0.04-0.19-0.08-0.28-0.12
				c-0.09-0.04-0.19-0.08-0.27-0.13c-0.01,0-0.01-0.01-0.01-0.01c-0.24-0.11-0.48-0.21-0.71-0.32c-0.22-0.09-0.43-0.19-0.64-0.29
				c-0.17-0.07-0.33-0.15-0.5-0.22c-0.35-0.17-0.69-0.34-1.03-0.51c-0.28-0.14-0.56-0.29-0.84-0.43c-0.05-0.02-0.11-0.05-0.16-0.08
				c-0.32-0.16-0.65-0.34-0.97-0.51c-0.03-0.01-0.06-0.03-0.09-0.05c-0.05-0.02-0.09-0.05-0.14-0.08c-0.34-0.17-0.67-0.35-1-0.53
				c-0.03-0.01-0.05-0.03-0.08-0.05c0.46-3.26,0.95-6.51,1.47-9.76c0.85-5.3,1.47-11.65,3.81-16.49c1.87-3.88,7.32-4.82,11.01-6.2
				c0.04-0.01,0.07-0.03,0.11-0.04c0.06-0.02,0.12-0.04,0.17-0.06L73.3,118.62z"/>
			<path class="st59" d="M72.84,119.88c0,0-4.5,20.89-8.9,40.77c-0.04-0.01-0.09-0.03-0.14-0.04c-1.38-0.4-2.75-0.84-4.12-1.34
				c-0.2-0.07-0.4-0.14-0.6-0.22c-0.29-0.1-0.57-0.21-0.85-0.32c-0.36-0.14-0.72-0.27-1.08-0.42c-0.24-0.09-0.47-0.19-0.7-0.28
				c-0.17-0.07-0.33-0.13-0.49-0.2c-0.1-0.04-0.19-0.08-0.3-0.12c-0.01-0.01-0.03-0.01-0.04-0.02c-0.06-0.02-0.12-0.04-0.17-0.07
				c-0.05-0.02-0.11-0.04-0.16-0.07c-0.06-0.03-0.13-0.05-0.19-0.08c-0.03-0.01-0.06-0.03-0.09-0.04c-0.12-0.04-0.25-0.1-0.37-0.16
				l0.66-10.89l0.4-0.26l9.08-6.01l-0.27-0.78l-3.85-11.34l0.72-0.48L72.84,119.88z"/>
			<path class="st60" d="M73.3,118.62c0,0-0.01,0.02-0.01,0.07C73,120,68.46,141.08,64.12,160.7c-0.01-0.01-0.04-0.01-0.05-0.01
				c-0.04-0.01-0.08-0.02-0.12-0.04c-0.04-0.01-0.09-0.03-0.14-0.04c-1.38-0.4-2.75-0.84-4.12-1.34c-0.2-0.07-0.4-0.14-0.6-0.22
				c-0.29-0.1-0.57-0.21-0.85-0.32c-0.36-0.14-0.72-0.27-1.08-0.42c-0.24-0.09-0.47-0.19-0.7-0.28c-0.17-0.07-0.33-0.13-0.49-0.2
				c-0.1-0.04-0.19-0.08-0.3-0.12c-0.01-0.01-0.03-0.01-0.04-0.02c-0.06-0.02-0.12-0.04-0.17-0.07c-0.05-0.02-0.11-0.04-0.16-0.07
				c-0.06-0.03-0.13-0.05-0.19-0.08c-0.03-0.01-0.06-0.03-0.09-0.04l0.69-11.31l0.06-1l8.75-5.79l0.72-0.48l-3.85-11.35l-0.26-0.77
				l11.99-7.98L73.3,118.62z"/>
		</g>
	</g>
	<g>
		<path class="st60" d="M141.88,139.89c-1.43,1.49-2.92,2.92-4.46,4.29c-0.17,0.15-0.35,0.31-0.53,0.46
			c-0.35,0.3-0.71,0.61-1.06,0.9c-0.27,0.22-0.54,0.45-0.82,0.67c-0.26,0.21-0.52,0.42-0.78,0.63c-0.01,0-0.01,0.01-0.02,0.01
			c-1.39,1.11-2.82,2.17-4.27,3.16c-0.23,0.16-0.47,0.32-0.71,0.47c-0.24,0.16-0.48,0.32-0.71,0.47c-0.24,0.17-0.48,0.32-0.73,0.48
			c-0.5,0.32-1,0.63-1.5,0.94c-0.02,0.01-0.04,0.03-0.06,0.04c-0.24,0.15-0.48,0.29-0.71,0.43c-0.4,0.25-0.82,0.49-1.23,0.72
			c-0.01,0.01-0.02,0.01-0.04,0.02c-0.4,0.23-0.82,0.46-1.23,0.69c-0.3,0.17-0.61,0.33-0.94,0.49c-0.03,0.01-0.07,0.04-0.1,0.05
			c-0.9,0.47-1.8,0.92-2.71,1.35c-0.36,0.18-0.73,0.35-1.1,0.51c-0.25,0.12-0.49,0.22-0.74,0.33c-0.17,0.08-0.35,0.16-0.53,0.24
			c-0.07,0.03-0.14,0.06-0.2,0.09c-0.08,0.04-0.16,0.07-0.24,0.1c-0.12,0.05-0.23,0.1-0.35,0.15c0.32-1.52,0.64-2.98,0.93-4.34
			c0.88-4.03,1.64-7.24,2.19-9.08c0.12-0.43,0.25-0.84,0.38-1.26c0.01-0.03,0.01-0.05,0.02-0.08c0.28-0.93,0.56-1.83,0.85-2.71
			c0.02-0.07,0.04-0.14,0.07-0.22c0-0.01,0-0.01,0-0.01c2.79-8.48,5.61-13.64,9.13-13.34c0.48,0.03,0.96,0.17,1.46,0.41
			c0.17,0.08,0.32,0.16,0.48,0.25C136.92,129.93,140.17,134.36,141.88,139.89z"/>
		<path class="st59" d="M120.55,139.91c-0.11,1.03-1.09,7.78-2.38,16.77c-0.25,0.12-0.49,0.22-0.74,0.33
			c-0.17,0.08-0.35,0.16-0.53,0.24c-0.07,0.03-0.14,0.06-0.2,0.09c-0.08,0.04-0.16,0.07-0.24,0.1c-0.12,0.05-0.23,0.1-0.35,0.15
			c-0.07,0.03-0.13,0.05-0.19,0.08c-0.03,0.01-0.07,0.03-0.09,0.04c1.57-6.94,3.16-13.18,4.66-17.58
			C120.5,140.05,120.52,139.98,120.55,139.91z"/>
	</g>
	<g>
		<g>
			<path class="st2" d="M84.64,133.36c6.02-0.86,16.59-14.56,20.35-20.39c-0.82-0.26-1.6-0.5-2.35-0.71
				c-0.01-0.01-0.02-0.01-0.04-0.01l-0.01,0c-0.29-0.09-0.58-0.17-0.85-0.24c-0.35-0.17-0.67-0.41-0.97-0.7
				c-1.15-0.14-2.36-0.23-3.64-0.29l-9.78,0.18c-0.81,0.04-1.64,0.15-2.48,0.32c-1.07,0.21-2.16,0.51-3.26,0.86
				c-0.56,0.18-1.12,0.37-1.69,0.57C78.69,122.65,74,134.88,84.64,133.36z"/>
			<path class="st61" d="M83.91,130.55c-5.02,0.51-4.1-6.17-2.97-13.6l0-0.02c0.21-1.57-1.73-9.96-1.83-12.09
				c-0.15-2.96-1.34-7.02-2.28-9.85c-0.65-1.95-1.19-3.31-1.19-3.31l22.09-1.29c0,0-1.01,7.52-0.11,12.45
				c0.25,1.38,1.05,6.36,3.15,8.47c0.3,0.3,0.62,0.54,0.97,0.7c0.27,0.13,0.55,0.21,0.86,0.24l0.01,0c0.02,0,0.03,0.01,0.04,0.01
				C103.43,112.83,91.54,129.77,83.91,130.55z"/>
			<path class="st62" d="M97.62,102.83c-4.79,12.77-12.85,14.21-16.68,14.12l0-0.02c0.21-1.57-1.73-9.96-1.83-12.09
				c-0.15-2.96-1.34-7.02-2.28-9.85c1.4-1.64,2.62-2.74,2.62-2.74l18.28-1.86C97.73,90.38,96.72,97.9,97.62,102.83z"/>
		</g>
		<g>
			<path class="st61" d="M100.45,95.32c1.48-10.59-0.78-21.69,0.65-31.88c0,0-7.86-7.93-9.21-8.7c-0.84-0.48-1.74-0.88-2.66-1.19
				c-0.96-0.17-1.94-0.25-2.91-0.23c-1.55,0.03-12.26,3.19-12.26,3.19c-1.83,4.81-3.06,6.86-4.54,14.42
				c-1.17,5.98,1.13-0.72-1.63,9.06c-1.18,4.2-7.15,9.26-4.81,18.13c1.28,4.87-2.77,24.5,28.34,8.71
				C95.47,104.76,99.85,99.63,100.45,95.32z"/>
			<g>
				<g>
					<path class="st62" d="M80.86,82.99c0.13,0.05,0.26,0.1,0.39,0.15c0.13,0.05,0.26,0.09,0.38,0.14c0.11,0.04,0.23,0.08,0.34,0.12
						c0.09,0.03,0.19,0.06,0.27,0.09c0.1,0.03,0.2,0.06,0.29,0.09c0.19,0.06,0.38,0.11,0.56,0.16c0.23,0.06,0.47,0.11,0.69,0.16
						c0.11,0.02,0.22,0.05,0.33,0.07c0.11,0.02,0.22,0.04,0.33,0.06c0.02,0,0.04,0.01,0.06,0.01c0.29,0.05,0.58,0.08,0.85,0.11
						c0.01,0,0.02,0,0.03,0c0.2,0.02,0.4,0.03,0.59,0.04c0.29,0.01,0.57,0.01,0.83,0.01c0.09,0,0.18-0.01,0.27-0.01
						c0.09,0,0.17-0.01,0.26-0.02c0.25-0.02,0.5-0.05,0.73-0.09c0.08-0.01,0.15-0.03,0.23-0.04c0.07-0.01,0.15-0.03,0.22-0.04
						c0.07-0.01,0.15-0.03,0.22-0.05c0.07-0.02,0.14-0.04,0.21-0.05c0.23-0.06,0.46-0.13,0.67-0.21c0.04-0.01,0.08-0.03,0.12-0.04
						c0.06-0.02,0.12-0.05,0.18-0.07c0.12-0.04,0.23-0.1,0.34-0.15c0.11-0.05,0.21-0.1,0.32-0.15c0.05-0.02,0.1-0.05,0.15-0.08
						c0.05-0.03,0.1-0.05,0.15-0.08c0.08-0.05,0.17-0.1,0.25-0.15c0.01-0.01,0.01-0.01,0.02-0.01c0.13-0.08,0.25-0.16,0.36-0.24
						c0.08-0.06,0.15-0.11,0.21-0.16c0.07-0.05,0.13-0.1,0.19-0.15c0.06-0.05,0.12-0.1,0.17-0.15c0.03-0.02,0.05-0.04,0.07-0.07
						c0.34-0.32,0.5-0.54,0.5-0.54c-1.37-2.19-3.68-5.45-7.28-4.48C82.52,77.91,82.75,80.7,80.86,82.99z"/>
					<path class="st62" d="M92.64,81.63c0,0-0.16,0.23-0.49,0.54c-0.02,0.02-0.05,0.04-0.07,0.07c-0.05,0.05-0.11,0.1-0.17,0.15
						c-0.06,0.05-0.12,0.1-0.19,0.15c-0.07,0.06-0.14,0.11-0.21,0.16c-0.11,0.08-0.23,0.16-0.36,0.24
						c-0.01,0.01-0.01,0.01-0.02,0.01c-0.08,0.05-0.16,0.1-0.25,0.15c-0.05,0.03-0.1,0.05-0.15,0.08c-0.05,0.03-0.09,0.05-0.15,0.08
						c-0.11,0.05-0.21,0.11-0.32,0.16c-0.11,0.05-0.22,0.1-0.34,0.15c-0.06,0.03-0.12,0.05-0.18,0.07
						c-0.04,0.01-0.07,0.03-0.12,0.04c-0.21,0.07-0.43,0.14-0.67,0.21c-0.07,0.02-0.14,0.04-0.21,0.05
						c-0.08,0.02-0.15,0.03-0.22,0.05c-0.02,0.01-0.04,0.01-0.07,0.02c-0.05,0.01-0.1,0.02-0.16,0.03
						c-0.08,0.01-0.15,0.03-0.23,0.04c-0.24,0.04-0.48,0.07-0.73,0.09c-0.08,0.01-0.17,0.01-0.26,0.02c-0.09,0-0.18,0.01-0.27,0.01
						c-0.27,0.01-0.54,0.01-0.83,0c-0.19-0.01-0.39-0.02-0.59-0.04c-0.01,0-0.02,0-0.03,0c-0.28-0.03-0.56-0.06-0.85-0.11
						c-0.02,0-0.04-0.01-0.06-0.01c-0.11-0.02-0.22-0.04-0.33-0.06c-0.11-0.02-0.22-0.04-0.34-0.07c-0.08-0.02-0.16-0.04-0.25-0.05
						c-0.15-0.03-0.29-0.07-0.44-0.11c-0.18-0.05-0.37-0.1-0.56-0.16c-0.1-0.03-0.19-0.06-0.29-0.09c-0.09-0.03-0.18-0.06-0.27-0.09
						c-0.11-0.04-0.23-0.08-0.34-0.12c-0.13-0.04-0.26-0.09-0.38-0.14c-0.13-0.05-0.26-0.1-0.4-0.15c1.89-2.3,1.52-3.95,4.37-4.72
						c3.55-0.96,5.97,1.11,7.35,3.26c0.01,0.01,0.01,0.01,0.01,0.02C92.61,81.57,92.63,81.6,92.64,81.63z"/>
					<path class="st2" d="M92.64,81.63c0,0-0.16,0.23-0.49,0.54c-0.02,0.02-0.05,0.04-0.07,0.07c-0.05,0.05-0.11,0.1-0.17,0.15
						c-0.06,0.05-0.12,0.1-0.19,0.15c-0.07,0.06-0.14,0.11-0.21,0.16c-0.11,0.08-0.23,0.16-0.36,0.24
						c-0.01,0.01-0.01,0.01-0.02,0.01c-0.08,0.05-0.16,0.1-0.25,0.15c-0.05,0.03-0.1,0.05-0.15,0.08c-0.05,0.03-0.09,0.05-0.15,0.08
						c-0.11,0.05-0.21,0.11-0.32,0.16c-0.11,0.05-0.22,0.1-0.34,0.15c-0.06,0.03-0.12,0.05-0.18,0.07
						c-0.04,0.01-0.07,0.03-0.12,0.04c-0.21,0.07-0.43,0.14-0.67,0.21c-0.07,0.02-0.14,0.04-0.21,0.05
						c-0.08,0.02-0.15,0.03-0.22,0.05c-0.02,0.01-0.04,0.01-0.07,0.02c-0.05,0.01-0.1,0.02-0.16,0.03
						c-0.08,0.01-0.15,0.03-0.23,0.04c-0.24,0.04-0.48,0.07-0.73,0.09c-0.08,0.01-0.17,0.01-0.26,0.02c-0.09,0-0.18,0.01-0.27,0.01
						c-0.27,0.01-0.54,0.01-0.83,0c-0.19-0.01-0.39-0.02-0.59-0.04c-0.01,0-0.02,0-0.03,0c-0.28-0.03-0.56-0.06-0.85-0.11
						c-0.02,0-0.04-0.01-0.06-0.01c-0.11-0.02-0.22-0.04-0.33-0.06c-0.11-0.02-0.22-0.04-0.34-0.07c-0.08-0.02-0.16-0.04-0.25-0.05
						c-0.15-0.03-0.29-0.07-0.44-0.11c-0.18-0.05-0.37-0.1-0.56-0.16c-0.1-0.03-0.19-0.06-0.29-0.09c-0.09-0.03-0.18-0.06-0.27-0.09
						c-0.11-0.04-0.23-0.08-0.34-0.12c-0.13-0.04-0.26-0.09-0.38-0.14c-0.13-0.05-0.26-0.1-0.4-0.15c1.89-2.3,2.95-7.48,5.79-8.25
						c3.55-0.96,4.58,4.54,5.93,6.79c0.01,0.01,0.01,0.01,0.01,0.02C92.61,81.57,92.63,81.6,92.64,81.63z"/>
					<g>
						<path class="st63" d="M83.83,80.46c-0.4,2.21,0.66,4.3,2.35,4.66c1.7,0.36,3.4-1.14,3.79-3.36c0.4-2.21-0.66-4.3-2.35-4.66
							C85.92,76.74,84.22,78.24,83.83,80.46z"/>
						<path class="st64" d="M84.66,81.89c-0.21,1.2,0.39,2.33,1.34,2.53c0.96,0.2,1.91-0.6,2.12-1.8c0.22-1.2-0.39-2.33-1.34-2.53
							C85.83,79.89,84.88,80.69,84.66,81.89z"/>
						<path class="st2" d="M90.73,82.06c0.39-0.35-0.01-1.83-0.01-1.83l-4.01,1.83C86.71,82.07,89.95,82.76,90.73,82.06z"/>
					</g>
					<path class="st63" d="M80.86,82.99c1.96-2.12,3.85-6.79,6.83-6.56c2.91,0.22,3.44,3.19,4.95,5.2
						c-0.09-3.77-1.56-9.43-5.16-8.46C84.63,73.94,81.37,78.8,80.86,82.99z"/>
					<path class="st62" d="M80.86,82.99c1.89-2.3,3.85-7.11,6.83-6.88c2.91,0.22,3.57,3.32,4.95,5.51
						c-0.09-3.77-1.56-9.74-5.16-8.77C84.63,73.63,81.37,78.8,80.86,82.99z"/>
					<path class="st62" d="M92.64,81.63c0,0-2.13,7.6-11.78,1.37c0.13,0.05,0.26,0.1,0.4,0.15c0.13,0.04,0.26,0.09,0.38,0.14
						c0.12,0.04,0.23,0.08,0.34,0.12c0.09,0.03,0.19,0.06,0.27,0.09c0.1,0.03,0.2,0.06,0.29,0.09c0.19,0.06,0.38,0.11,0.56,0.16
						c0.15,0.04,0.3,0.08,0.44,0.11c0.09,0.02,0.17,0.04,0.25,0.05c0.11,0.03,0.23,0.05,0.34,0.07c0.11,0.02,0.22,0.04,0.33,0.06
						c0.02,0,0.04,0.01,0.06,0.01c0.3,0.05,0.58,0.08,0.85,0.11c0.01,0,0.02,0,0.03,0c0.2,0.01,0.4,0.03,0.59,0.04
						c0.29,0.01,0.57,0.02,0.83,0c0.09,0,0.18-0.01,0.27-0.01c0.09,0,0.17-0.01,0.26-0.02c0.25-0.02,0.5-0.05,0.73-0.09
						c0.08-0.01,0.15-0.03,0.23-0.04c0.05-0.01,0.1-0.02,0.16-0.03c0.02-0.01,0.05-0.01,0.07-0.02c0.07-0.02,0.15-0.03,0.22-0.05
						c0.07-0.01,0.14-0.03,0.21-0.05c0.24-0.06,0.46-0.13,0.67-0.21c0.04-0.01,0.08-0.03,0.12-0.04c0.06-0.02,0.12-0.04,0.18-0.07
						c0.12-0.04,0.23-0.1,0.34-0.15c0.11-0.05,0.21-0.1,0.32-0.16c0.05-0.02,0.1-0.05,0.15-0.08c0.05-0.03,0.1-0.05,0.15-0.08
						c0.09-0.05,0.17-0.1,0.25-0.15c0.01-0.01,0.01-0.01,0.02-0.01c0.13-0.08,0.25-0.16,0.36-0.24c0.08-0.05,0.15-0.11,0.21-0.16
						c0.07-0.05,0.13-0.11,0.19-0.15c0.06-0.05,0.11-0.1,0.17-0.15c0.03-0.03,0.05-0.05,0.07-0.07
						C92.49,81.85,92.64,81.63,92.64,81.63c-0.02-0.02-0.03-0.05-0.05-0.08C92.61,81.57,92.63,81.6,92.64,81.63z"/>
				</g>
				<g>
					<path class="st62" d="M75.08,80.17c-0.09,0.03-0.18,0.07-0.27,0.1c-0.09,0.03-0.17,0.06-0.26,0.09
						c-0.08,0.03-0.16,0.05-0.23,0.07c-0.06,0.02-0.12,0.03-0.18,0.05c-0.07,0.02-0.13,0.03-0.19,0.05
						c-0.13,0.03-0.25,0.06-0.37,0.08c-0.15,0.03-0.31,0.05-0.45,0.07c-0.07,0.01-0.15,0.02-0.22,0.02
						c-0.07,0.01-0.14,0.01-0.21,0.02c-0.02,0-0.03,0-0.04,0c-0.19,0.01-0.37,0.01-0.55,0c0,0-0.01,0-0.02,0
						c-0.13-0.01-0.26-0.02-0.38-0.04c-0.18-0.03-0.36-0.06-0.52-0.1c-0.05-0.02-0.11-0.03-0.17-0.05
						c-0.05-0.02-0.11-0.03-0.16-0.05c-0.16-0.05-0.31-0.11-0.45-0.18c-0.05-0.02-0.09-0.05-0.14-0.07
						c-0.05-0.02-0.09-0.05-0.14-0.07c-0.04-0.02-0.09-0.05-0.13-0.08c-0.04-0.03-0.08-0.05-0.13-0.08
						c-0.14-0.09-0.27-0.19-0.39-0.29c-0.02-0.02-0.05-0.04-0.07-0.06c-0.04-0.03-0.07-0.06-0.1-0.09c-0.07-0.06-0.14-0.13-0.2-0.19
						c-0.06-0.06-0.12-0.13-0.18-0.19c-0.03-0.03-0.06-0.07-0.08-0.1c-0.03-0.03-0.05-0.07-0.08-0.1c-0.05-0.06-0.09-0.12-0.14-0.18
						c-0.01-0.01-0.01-0.01-0.01-0.02c-0.07-0.1-0.14-0.19-0.2-0.29c-0.04-0.07-0.08-0.13-0.11-0.19c-0.04-0.06-0.07-0.12-0.1-0.18
						c-0.03-0.06-0.06-0.11-0.09-0.17c-0.01-0.03-0.03-0.05-0.04-0.08c-0.17-0.36-0.25-0.6-0.25-0.6c1.12-1.99,2.96-4.92,5.11-3.49
						C74.64,74.92,74.16,77.65,75.08,80.17z"/>
					<path class="st62" d="M75.08,80.17c-0.09,0.03-0.18,0.07-0.26,0.1c-0.09,0.03-0.17,0.06-0.26,0.09
						c-0.08,0.02-0.15,0.05-0.23,0.07c-0.06,0.02-0.13,0.03-0.18,0.05c-0.07,0.02-0.13,0.04-0.2,0.05
						c-0.13,0.03-0.25,0.06-0.37,0.08c-0.1,0.02-0.2,0.03-0.29,0.05c-0.05,0.01-0.11,0.01-0.16,0.02c-0.07,0.01-0.15,0.02-0.22,0.02
						c-0.07,0.01-0.14,0.01-0.21,0.02c-0.01,0-0.03,0-0.04,0c-0.19,0.01-0.37,0-0.55,0c0,0-0.01,0-0.02,0
						c-0.13-0.01-0.26-0.02-0.38-0.04c-0.18-0.03-0.36-0.06-0.53-0.1c-0.05-0.02-0.11-0.03-0.16-0.05
						c-0.05-0.02-0.11-0.03-0.16-0.05c-0.16-0.05-0.31-0.11-0.45-0.18c-0.05-0.02-0.09-0.05-0.14-0.07
						c-0.03-0.01-0.06-0.03-0.1-0.05c-0.01-0.01-0.03-0.02-0.04-0.02c-0.04-0.02-0.09-0.05-0.13-0.08
						c-0.04-0.03-0.08-0.05-0.13-0.08c-0.14-0.09-0.27-0.19-0.39-0.29c-0.02-0.02-0.05-0.04-0.07-0.06
						c-0.03-0.03-0.07-0.06-0.1-0.09c-0.07-0.06-0.14-0.13-0.2-0.19c-0.06-0.07-0.12-0.13-0.18-0.2c-0.03-0.03-0.06-0.07-0.08-0.1
						c-0.03-0.04-0.06-0.07-0.08-0.1c-0.05-0.06-0.1-0.12-0.14-0.18c-0.01-0.01-0.01-0.01-0.01-0.02c-0.07-0.1-0.14-0.19-0.2-0.29
						c-0.04-0.07-0.08-0.13-0.11-0.19c-0.03-0.06-0.07-0.12-0.1-0.18c-0.03-0.06-0.06-0.11-0.09-0.17
						c-0.01-0.03-0.03-0.05-0.04-0.08c-0.17-0.36-0.25-0.6-0.25-0.6c1.12-1.99,2.91-3.79,5.06-2.36c1.64,1.09,1.29,2.62,2.1,5
						C75.02,80.01,75.05,80.09,75.08,80.17z"/>
					<path class="st2" d="M75.08,80.17c-0.09,0.03-0.18,0.07-0.26,0.1c-0.09,0.03-0.17,0.06-0.26,0.09
						c-0.08,0.02-0.15,0.05-0.23,0.07c-0.06,0.02-0.13,0.03-0.18,0.05c-0.07,0.02-0.13,0.04-0.2,0.05
						c-0.13,0.03-0.25,0.06-0.37,0.08c-0.1,0.02-0.2,0.03-0.29,0.05c-0.05,0.01-0.11,0.01-0.16,0.02c-0.07,0.01-0.15,0.02-0.22,0.02
						c-0.07,0.01-0.14,0.01-0.21,0.02c-0.01,0-0.03,0-0.04,0c-0.19,0.01-0.37,0-0.55,0c0,0-0.01,0-0.02,0
						c-0.13-0.01-0.26-0.02-0.38-0.04c-0.18-0.03-0.36-0.06-0.53-0.1c-0.05-0.02-0.11-0.03-0.16-0.05
						c-0.05-0.02-0.11-0.03-0.16-0.05c-0.16-0.05-0.31-0.11-0.45-0.18c-0.05-0.02-0.09-0.05-0.14-0.07
						c-0.03-0.01-0.06-0.03-0.1-0.05c-0.01-0.01-0.03-0.02-0.04-0.02c-0.04-0.02-0.09-0.05-0.13-0.08
						c-0.04-0.03-0.08-0.05-0.13-0.08c-0.14-0.09-0.27-0.19-0.39-0.29c-0.02-0.02-0.05-0.04-0.07-0.06
						c-0.03-0.03-0.07-0.06-0.1-0.09c-0.07-0.06-0.14-0.13-0.2-0.19c-0.06-0.07-0.12-0.13-0.18-0.2c-0.03-0.03-0.06-0.07-0.08-0.1
						c-0.03-0.04-0.06-0.07-0.08-0.1c-0.05-0.06-0.1-0.12-0.14-0.18c-0.01-0.01-0.01-0.01-0.01-0.02c-0.07-0.1-0.14-0.19-0.2-0.29
						c-0.04-0.07-0.08-0.13-0.11-0.19c-0.03-0.06-0.07-0.12-0.1-0.18c-0.03-0.06-0.06-0.11-0.09-0.17
						c-0.01-0.03-0.03-0.05-0.04-0.08c-0.17-0.36-0.25-0.6-0.25-0.6c1.12-1.99,2.43-7.47,4.58-6.04c1.65,1.09,1.75,6.07,2.58,8.68
						C75.02,80.01,75.05,80.09,75.08,80.17z"/>
					<g>
						<path class="st63" d="M73.01,77.73c0.03,2.04-0.83,3.76-1.93,3.84c-1.1,0.08-2.01-1.51-2.04-3.55
							c-0.03-2.04,0.83-3.76,1.93-3.84C72.06,74.09,72.97,75.68,73.01,77.73z"/>
						<path class="st64" d="M71.94,78.64c0.02,1.1-0.47,2.04-1.09,2.08c-0.62,0.05-1.13-0.81-1.15-1.92
							c-0.02-1.1,0.47-2.04,1.09-2.08C71.41,76.68,71.92,77.53,71.94,78.64z"/>
						<path class="st2" d="M68.96,76.12c-0.07,0.17-0.14,0.34-0.22,0.5c-0.05,0.14-0.1,0.27-0.15,0.41
							c-0.05,0.12-0.1,0.27-0.15,0.43c0.68,0.47,2.29,0.35,2.29,0.35L68.96,76.12z"/>
					</g>
					<path class="st63" d="M75.08,80.38c-0.91-2.52-1.71-7.24-3.61-7.4c-1.85-0.16-2.43,2.44-3.63,4.31
						c0.02-0.11,0.03-0.22,0.05-0.34c0.01-0.08,0.03-0.17,0.04-0.25c0.02-0.13,0.04-0.25,0.06-0.38C68,76.21,68.02,76.1,68.04,76
						c0-0.01,0-0.01,0-0.02c0.67-3.56,2.17-7.75,4.07-6.48c1.59,1.06,2.95,5.98,2.97,10.06C75.09,79.83,75.09,80.11,75.08,80.38z"/>
					<path class="st62" d="M75.09,79.55c0,0.21,0,0.42-0.01,0.62c-0.91-2.52-1.71-7.39-3.62-7.55c-1.85-0.16-2.5,2.68-3.63,4.66
						c0.02-0.11,0.03-0.22,0.05-0.34c0.01-0.08,0.03-0.17,0.04-0.25c0.02-0.13,0.04-0.25,0.06-0.38C68,76.21,68.02,76.1,68.04,76
						c0-0.01,0-0.01,0-0.02c0.67-3.56,2.17-7.75,4.07-6.48C73.7,70.55,75.07,75.47,75.09,79.55z"/>
					<path class="st62" d="M75.08,80.17c-6.8,4.92-7.24-2.88-7.24-2.88s0.07,0.24,0.25,0.6c0.01,0.03,0.03,0.05,0.04,0.08
						c0.03,0.06,0.06,0.11,0.09,0.17c0.03,0.06,0.07,0.12,0.1,0.18c0.03,0.06,0.07,0.12,0.11,0.19c0.06,0.09,0.13,0.19,0.2,0.29
						c0,0,0,0.01,0.01,0.02c0.04,0.06,0.09,0.12,0.14,0.18c0.03,0.03,0.05,0.07,0.08,0.1c0.03,0.03,0.05,0.06,0.08,0.1
						c0.06,0.07,0.12,0.13,0.18,0.2c0.06,0.06,0.13,0.13,0.2,0.19c0.04,0.03,0.07,0.06,0.1,0.09c0.02,0.02,0.05,0.04,0.07,0.06
						c0.12,0.1,0.26,0.2,0.39,0.29c0.04,0.03,0.08,0.06,0.13,0.08c0.04,0.03,0.09,0.05,0.13,0.08c0.01,0.01,0.03,0.02,0.04,0.02
						c0.03,0.02,0.06,0.03,0.1,0.05c0.05,0.02,0.09,0.05,0.14,0.07c0.14,0.07,0.29,0.13,0.45,0.18c0.05,0.02,0.11,0.04,0.16,0.05
						c0.05,0.02,0.11,0.03,0.16,0.05c0.17,0.04,0.34,0.08,0.53,0.1c0.12,0.02,0.25,0.03,0.38,0.04c0.01,0,0.01,0,0.02,0
						c0.18,0.01,0.36,0.01,0.55,0c0.01,0,0.03,0,0.04,0c0.07,0,0.14-0.01,0.21-0.02c0.07,0,0.15-0.01,0.22-0.02
						c0.05,0,0.11-0.01,0.16-0.02c0.1-0.02,0.19-0.03,0.29-0.05c0.12-0.03,0.25-0.05,0.37-0.08c0.06-0.02,0.13-0.03,0.2-0.05
						c0.06-0.02,0.12-0.03,0.18-0.05c0.07-0.02,0.15-0.05,0.23-0.07c0.09-0.03,0.17-0.06,0.26-0.09
						C74.9,80.23,74.99,80.2,75.08,80.17z"/>
				</g>
				<path class="st64" d="M75.37,65.23c-0.39,0.07-1.11,0.25-1.11,0.25l-0.61,1.58c0,0-0.35-1.21-0.55-1.14
					c-5.36,1.84-5.83,6.04-5.83,6.04c1.34-1.06,2.79-1.91,4.28-2.43c2.04-0.71,3.34-0.63,4.58,0.11
					C76.01,68.15,75.79,66.66,75.37,65.23z"/>
				<path class="st64" d="M87.06,64.05c0.38,0.09,1.1,0.31,1.1,0.31l0.53,1.61c0,0,0.41-1.19,0.62-1.11
					c5.26,2.12,5.51,6.33,5.51,6.33c-1.29-1.13-2.69-2.05-4.15-2.65c-2-0.81-3.31-0.8-4.59-0.13
					C86.28,66.94,86.57,65.47,87.06,64.05z"/>
				<g>
					<g>
						<g>
							<path class="st62" d="M74.29,106.55c-2.94-1.52-4.41,0.88-4.41,0.88c0.19-0.67,0.3-1.61,1-1.99
								C71.96,104.84,73.71,105.57,74.29,106.55z"/>
						</g>
						<g>
							<path class="st16" d="M65.13,91.47c0,0,2.42,13.68,7.91,12.83c7.9-1.23,10.24-6.3,10.36-8.81
								C79.62,94.57,67.07,91.93,65.13,91.47z"/>
							<g>
								<g>
									<path class="st2" d="M83.46,95.71c-0.05,0.33-0.12,0.7-0.2,1.09c-0.24,1.14-0.62,2.37-1.04,2.58
										c-0.02,0.01-0.04,0.02-0.07,0.03c-0.1,0.04-0.22,0.08-0.37,0.1c-2.59,0.56-12.39-0.17-13.48-0.22
										c-0.18-0.64-0.36-1.29-0.52-1.93c-0.41-1.62-0.74-3.26-0.82-4.95c-0.02-0.3-0.02-0.61-0.02-0.92
										c0.18,0.05,0.36,0.09,0.56,0.14c0.93,0.24,2.05,0.51,3.25,0.81c4.5,1.12,10.09,2.52,12.42,3.18L83.46,95.71z"/>
								</g>
								<path class="st8" d="M83.26,96.8c-0.24,1.14-0.62,2.37-1.04,2.58c-0.02,0.01-0.04,0.02-0.07,0.03
									c-0.1,0.04-0.22,0.08-0.37,0.1c-2.59,0.56-12.39-0.17-13.48-0.22c-0.18-0.64-0.36-1.29-0.52-1.93
									c0.41,0.52,0.94,0.3,1.53,0.58c-0.32-1.45-0.36-3.36,0.17-4.77c-0.33,6.23,3.06,5.33,4.3,5.49
									c0.07-0.75,0.11-2.21,0.24-2.94c0.02,0.56,0.02,2.18,0.23,2.69c0.25,0.6,3.61,0.36,4.8,0.22
									C80.52,98.46,82.05,97.89,83.26,96.8z"/>
							</g>
							<g>
								<g>
									<path class="st2" d="M82.19,99.67c-0.34,0.48-0.74,0.95-1.22,1.41c-1.61,1.56-4.03,2.93-7.57,3.53
										c-0.1,0.02-0.21,0.04-0.31,0.05c-0.24,0.04-0.47,0.05-0.7,0.04c0,0,0,0,0,0c-0.44-0.02-0.87-0.13-1.27-0.31
										c-0.15-0.07-0.3-0.14-0.44-0.23c-0.51-0.31-0.99-0.73-1.43-1.24c-0.06-0.11-0.12-0.23-0.17-0.35c0,0,0,0,0-0.01
										c-0.27-0.6-0.47-1.26-0.52-1.95c-0.02-0.19-0.02-0.38-0.02-0.57c0.01-0.12,0.02-0.24,0.03-0.36
										c4.26-0.04,8.58,0.02,12.79-0.14c0.15,0,0.3-0.01,0.45-0.02c0.13-0.01,0.25-0.01,0.38-0.02c0,0.02,0.01,0.05,0.01,0.07
										C82.18,99.62,82.19,99.64,82.19,99.67z"/>
								</g>
								<g>
									<path class="st8" d="M82.19,99.67c-0.34,0.48-0.74,0.95-1.22,1.41c-1.61,1.56-4.03,2.93-7.57,3.53
										c0.68-0.23,1.29-0.5,1.63-0.69c0.39-0.21,0.78-0.48,1.11-0.79c0.6-0.56,1.03-1.28,1.03-2.1c-0.76-0.64-8.32-0.98-8.64-0.98
										c0.01-0.12,0.02-0.24,0.03-0.36c4.26-0.04,8.58,0.02,12.79-0.14c0.15,0,0.3-0.01,0.45-0.02c0.13-0.01,0.25-0.01,0.38-0.02
										c0,0.02,0.01,0.05,0.01,0.07C82.18,99.62,82.19,99.64,82.19,99.67z"/>
								</g>
							</g>
							<path class="st62" d="M83.76,95.2l-0.28-0.07c-1.21-0.3-3.29-0.76-5.64-1.27c-0.5-0.11-1-0.22-1.52-0.33
								c-1.43-0.32-2.91-0.64-4.33-0.95c-0.13-0.02-0.25-0.05-0.38-0.08c-0.27-0.06-0.53-0.11-0.78-0.17
								c-1.23-0.26-2.37-0.51-3.31-0.71c-0.09-0.01-0.16-0.03-0.24-0.04c-0.07-0.02-0.14-0.04-0.22-0.05
								c-0.02-0.01-0.04-0.01-0.06-0.01c-0.01-0.01-0.03-0.01-0.05-0.01c-0.82-0.18-1.43-0.31-1.74-0.39l-0.56-0.13l0.09,0.56
								c0.01,0.03,0.02,0.1,0.04,0.2c0.24,1.29,1.62,7.96,4.44,11.2c0.44,0.51,0.92,0.93,1.43,1.23c0.15,0.09,0.3,0.16,0.45,0.23
								c0.08,0.04,0.16,0.06,0.24,0.09c0.07,0.03,0.14,0.05,0.22,0.07c0.08,0.02,0.16,0.04,0.24,0.06c0.08,0.01,0.16,0.03,0.24,0.04
								c0.11,0.01,0.22,0.02,0.33,0.03c0.05,0.01,0.11,0.01,0.16,0.01c0.18,0,0.36-0.01,0.55-0.04c0.1-0.02,0.2-0.04,0.31-0.06
								c0.28-0.05,0.56-0.1,0.83-0.16c0.14-0.04,0.29-0.06,0.43-0.1c0.06-0.01,0.12-0.03,0.17-0.04c0.15-0.04,0.3-0.07,0.43-0.12
								c0.39-0.1,0.77-0.22,1.13-0.35c0.18-0.06,0.35-0.13,0.53-0.2c0.14-0.05,0.28-0.12,0.42-0.17c0.06-0.02,0.12-0.04,0.17-0.07
								c0.13-0.07,0.26-0.12,0.39-0.19c0.33-0.16,0.65-0.33,0.95-0.51c0.11-0.07,0.21-0.12,0.31-0.19c0.01-0.01,0.02-0.01,0.03-0.02
								c0.01,0,0.02-0.01,0.03-0.01c0.12-0.08,0.24-0.16,0.35-0.24c0.03-0.02,0.06-0.04,0.09-0.07c0.02-0.01,0.04-0.03,0.06-0.04
								c0.08-0.06,0.16-0.12,0.24-0.18c0.08-0.06,0.15-0.12,0.23-0.18c0.12-0.1,0.25-0.19,0.35-0.3c0.01-0.01,0.02-0.02,0.04-0.03
								c0.13-0.12,0.25-0.23,0.38-0.35c0.47-0.45,0.87-0.93,1.21-1.41c1.09-1.53,1.53-3.08,1.58-4.17v-0.06l0.01-0.25H83.76z
								 M78.72,101.9c-0.74,0.47-1.6,0.89-2.58,1.24c-0.93,0.33-1.99,0.61-3.17,0.79c-0.18,0.03-0.37,0.04-0.55,0.03
								c-0.01,0-0.01,0-0.01,0c-0.66-0.03-1.28-0.3-1.85-0.75c-0.63-0.49-1.21-1.21-1.72-2.04c0-0.01,0-0.01,0-0.01
								c-0.11-0.17-0.21-0.35-0.3-0.53c-1.66-2.99-2.62-7.14-2.94-8.64c0-0.01,0-0.01,0-0.01c0-0.01,0-0.01,0-0.01
								c0.35,0.08,0.82,0.18,1.36,0.3c0.01,0,0.01,0,0.01,0c0.25,0.06,0.53,0.12,0.83,0.19c0.83,0.18,1.81,0.39,2.86,0.61
								c0.01,0,0.03,0.01,0.04,0.01h0.01c0.01,0,0.01,0,0.01,0c0.57,0.12,1.16,0.25,1.76,0.38h0.01c1.36,0.29,2.75,0.59,4.1,0.89
								c0.22,0.04,0.43,0.09,0.64,0.14c0.47,0.11,0.93,0.2,1.38,0.31c0.03,0,0.06,0.01,0.09,0.01c1.73,0.38,3.24,0.72,4.26,0.97
								c-0.05,0.45-0.17,0.97-0.38,1.52c-0.12,0.33-0.27,0.68-0.47,1.03c-0.01,0.02-0.03,0.05-0.04,0.07
								c-0.06,0.12-0.12,0.22-0.19,0.33c-0.17,0.27-0.36,0.54-0.56,0.82c-0.01,0.01-0.02,0.02-0.03,0.03l-0.01,0.01
								C80.68,100.4,79.83,101.21,78.72,101.9z"/>
						</g>
						<g>
							<g>
								<path class="st64" d="M59.93,91.05c1.03-0.73,6.1,1.12,7.68,1.54c0.9,0.24,2.26,0.78,3.29,0.44
									c1.01-0.33,1.22-1.62,1.48-2.5C72.38,90.53,60.26,88.05,59.93,91.05z"/>
								<path class="st64" d="M87.46,96.7c-0.75-1.28-8.32-1.78-10.57-2.1c-1.28-0.18-3.35-0.27-4.38-1.13
									c-1.01-0.85-0.36-2.32-0.07-3.39C72.44,90.08,89.16,93.34,87.46,96.7z"/>
							</g>
						</g>
					</g>
					<g>
						<path class="st62" d="M77.84,90.36c-1.94,1.11-4.9,0.9-6.86-0.15c-0.17-0.09-0.38-0.19-0.61-0.31
							c-0.73-0.36-1.64-0.81-2.1-1.41c-0.26-0.33-0.37-0.7-0.25-1.12c0.24-0.82,0.99-1.05,1.76-0.89c0,0,0.01,0.01,0.02,0.02
							c0.09,0.13,0.57,0.8,1.48,1.55C72.57,89.12,74.73,90.35,77.84,90.36z"/>
						<path class="st62" d="M71.06,88.15c-0.6,0.49-1.14,0.95-1.64,1.24c-0.49-0.65-1.1-1.47-1.24-2.21
							c0.84-0.33,1.59-0.69,2.26-1.09c7.19-4.26,4.96-14.06,4.96-14.06C77.93,76.22,75.81,84.26,71.06,88.15z"/>
					</g>
				</g>
			</g>
			<g>
				<path class="st63" d="M99.08,88.21c-0.01-0.02-0.01-0.05-0.02-0.07c-2.33-9.12,0.23-20.84-1.45-20.32
					c-3.65,1.12-3.2-2.86-4.29-5.62c-1.77,1.53-5.38,1.82-6.06-0.29c-0.11-0.02-0.23-0.04-0.34-0.05c-0.73,1.79-2.55,2.86-4.41,2.35
					c-1.56-0.43-3.72-1.81-3.14-3.72c-1.84,1.71-5.05,2.64-7.25,1c-1.69-1.26-0.86-2.84,0.34-4.07c-3.63-0.8-9.09-1.1-9.94-5.69
					c-1.1-6.04,7.8-4.11,10.95-2.95c-0.89-0.47-1.75-2.16-2.11-3.52c-0.12-0.46-0.18-0.88-0.17-1.2c0.09-2.14,2.62-3.19,4.44-2.79
					c2.53,0.55,3.8,2.56,5.18,4.44c0.68-5.09,13.08-4.84,16.11,1.42c1.81-0.62,3.74-0.56,5.32,0.89c0.28,0.25,0.52,0.54,0.74,0.86
					c5.43,0.74,9.38,8.18,9.22,12.67C111.72,75.67,99.63,86.59,99.08,88.21z"/>
				<g>
					<path class="st64" d="M106.91,63.62c-1.8,1.41-2.78,4.29-3.47,6.47c-0.85,2.68-2.01,5.3-2.53,8.09
						c-0.53,2.85-0.84,5.72-1.48,8.57c-0.1,0.46-0.23,0.92-0.37,1.39c-2.33-9.12,0.23-20.84-1.45-20.32
						c-3.65,1.12-3.2-2.86-4.29-5.62c-1.77,1.53-5.38,1.82-6.06-0.29c-0.11-0.02-0.23-0.04-0.34-0.05
						c-0.73,1.79-2.55,2.86-4.41,2.35c-1.56-0.43-3.72-1.81-3.14-3.72c-1.84,1.71-5.05,2.64-7.25,1c-1.69-1.26-0.86-2.84,0.34-4.07
						c-3.63-0.8-9.09-1.1-9.94-5.69c-1.1-6.04,7.8-4.11,10.95-2.95c-0.89-0.47-1.75-2.16-2.11-3.52c0,0,17.02,17.3,21.65,7.49
						c2.05,1.29,4.26,8.62,5.28,9.16c1.54,0.82,4.44-3.04,5.23-4.18c-0.35,1.34-1.88,3.75-1.06,5.06
						C103.23,64.02,105.76,63.79,106.91,63.62z"/>
					<path class="st15" d="M82.62,52.68c-0.01-0.11-0.02-0.22-0.04-0.33C82.58,52.46,82.59,52.57,82.62,52.68z"/>
				</g>
			</g>
			<g>
				<path class="st61" d="M99.6,80.69c1.31-2.19,5.89-2.61,7.67-0.8c1.98,2.01-1.57,12.6-3.93,12.61
					C97.85,92.5,99.6,80.69,99.6,80.69z"/>
				<path class="st62" d="M100.16,86.28c-0.09-0.79-0.17-1.68-0.14-2.48c0.02-0.43,0.12-0.89,0.18-1.3c0.04-0.23,0.1-0.51,0.18-0.66
					c0.71-1.46,2.4-1.5,3.59-1.62c0.49-0.05,1.34-0.13,1.77,0.12c0.34,0.2,0.52,0.73,0.71,1.04c-0.97-0.97-3.09-0.45-4.12,0.24
					c-1.08,0.71-1.43,2.71-1.04,3.91c1.01-0.12,1.92,1.01,1.81,1.96c-0.11,0.95-1.97,1.49-2.27,0.57
					C102.45,87.71,101.11,86.42,100.16,86.28z"/>
			</g>
		</g>
	</g>
</g>
</svg>
