<?xml version="1.0" encoding="utf-8"?>
<!-- Generator: Adobe Illustrator 27.2.0, SVG Export Plug-In . SVG Version: 6.00 Build 0)  -->
<svg version="1.1" id="Layer_1" xmlns="http://www.w3.org/2000/svg" xmlns:xlink="http://www.w3.org/1999/xlink" x="0px" y="0px"
	 viewBox="0 0 171.51 171.51" style="enable-background:new 0 0 171.51 171.51;" xml:space="preserve">
<style type="text/css">
	.st0{fill:#F7F2DA;}
	.st1{fill:#FBA479;}
	.st2{fill:#FFFFFF;}
	.st3{fill:#E1DFEA;}
	.st4{fill:#261411;}
	.st5{fill:#60312B;}
	.st6{fill:#EF7950;}
	.st7{fill:#60281F;}
	.st8{fill:#E8E6E6;}
	.st9{fill:#3A2827;}
	.st10{fill:#CCCCCC;}
	.st11{fill:#595857;}
	.st12{fill:#F28C5F;}
	.st13{fill:#E26939;}
	.st14{fill:#56413D;}
	.st15{fill:#44322E;}
	.st16{fill:#873421;}
	.st17{fill:#EA6CA0;}
	.st18{fill:#DB5290;}
	.st19{fill:#F48656;}
	.st20{fill:#82112F;}
	.st21{fill:#D85039;}
	.st22{fill:#574984;}
	.st23{fill:#291C51;}
	.st24{fill:#FC5135;}
	.st25{fill:#FFCC7B;}
	.st26{fill:#E8A749;}
	.st27{fill:#6D4A44;}
	.st28{fill:#D1E3E8;}
	.st29{fill:#FCFBFA;}
	.st30{fill:#4C4C4B;}
	.st31{fill:#686868;}
	.st32{fill:#FFB884;}
	.st33{fill:#EF9C62;}
	.st34{fill:#874410;}
	.st35{fill:#6D340D;}
	.st36{fill:#E89258;}
	.st37{fill:#3A2E26;}
	.st38{fill:#4C3F35;}
	.st39{opacity:0.1;}
	.st40{fill:#60120F;}
	.st41{fill:#F4F0ED;}
	.st42{fill:#E0312D;}
	.st43{fill:#F42F2F;}
	.st44{fill:#D31111;}
	.st45{fill:#DB9B19;}
	.st46{fill:#AF740B;}
	.st47{fill:#CC2121;}
	.st48{fill:#F74B4B;}
	.st49{fill:#FCF9E8;}
	.st50{opacity:0.5;fill:#827571;}
	.st51{fill:#665D5C;}
	.st52{fill:#4F4746;}
	.st53{fill:#5E3B2F;}
	.st54{fill:#492E27;}
	.st55{opacity:0.4;}
	.st56{fill:#443A36;}
	.st57{fill:#51415E;}
	.st58{fill:#066FB7;}
	.st59{fill:#066396;}
	.st60{fill:#0D8FD6;}
	.st61{fill:#FEAC74;}
	.st62{fill:#E3784C;}
	.st63{fill:#580801;}
	.st64{fill:#440502;}
	.st65{fill:#00ABB2;}
	.st66{fill:#008C8C;}
	.st67{fill:#914E34;}
	.st68{fill:#5B2E1D;}
	.st69{fill:#6A3221;}
	.st70{fill:#FAFAFC;}
	.st71{fill:#2B3B3F;}
	.st72{fill:#3F565B;}
	.st73{fill:#EF7348;}
	.st74{fill:#6F3D26;}
	.st75{fill:#BBBEBF;}
	.st76{fill:#D3D3D3;}
	.st77{fill:#939A9E;}
	.st78{fill:#F79C5E;}
	.st79{fill:#E07832;}
	.st80{fill:#604135;}
	.st81{fill:#EFEAE8;}
	.st82{fill:#4F3229;}
	.st83{fill:#1A3D3A;}
	.st84{fill:#E8E8E8;}
	.st85{fill:#0C83C4;}
	.st86{fill:#1B96EA;}
	.st87{fill:#B50F0F;}
	.st88{opacity:0.4;fill:#E89258;}
	.st89{fill:#26ACF7;}
	.st90{fill:#F45347;}
	.st91{fill:#FF3939;}
	.st92{fill:#686766;}
	.st93{fill:#5E5D5B;}
	.st94{fill:#424140;}
	.st95{fill:#E7E1CB;}
	.st96{fill:#D6CFBA;}
	.st97{fill:#CE5C37;}
	.st98{fill:#B74D30;}
	.st99{fill:#1B313D;}
	.st100{fill:#36474F;}
	.st101{fill:#29526D;}
	.st102{fill:#FCBD88;}
	.st103{fill:#FCA265;}
	.st104{fill:#496B7A;}
	.st105{fill:#B76049;}
	.st106{fill:#EDEDED;}
	.st107{fill:#7C7979;}
	.st108{fill:#EFE6E8;}
	.st109{fill:#B20D28;}
	.st110{fill:#346682;}
	.st111{fill:#AA0E28;}
	.st112{fill:#FF5050;}
	.st113{fill:#781A0E;}
	.st114{fill:#560904;}
	.st115{fill:#FF0B40;}
	.st116{fill:#BC0000;}
	.st117{fill:#FFD731;}
	.st118{fill:#EA6453;}
	.st119{fill:#602618;}
	.st120{fill:#A14F2A;}
	.st121{fill:#3A4E66;}
	.st122{fill:#EAE9EE;}
	.st123{opacity:0.3;fill:#3A4E66;}
	.st124{fill:#5E2701;}
	.st125{fill:#773000;}
	.st126{fill:#EA2F4A;}
	.st127{fill:#C41234;}
	.st128{fill:#F7F0F1;}
	.st129{fill:#F7A76F;}
	.st130{fill:#B24800;}
	.st131{fill:#8C3B03;}
	.st132{fill:#567391;}
	.st133{fill:#FF7271;}
	.st134{fill:#F75E5E;}
	.st135{fill:#700F28;}
	.st136{fill:#9E1533;}
	.st137{fill:#871231;}
	.st138{fill:#211B3A;}
	.st139{fill:#2E2951;}
	.st140{fill:#F28670;}
	.st141{fill:#F46060;}
	.st142{fill:#EBBF44;}
	.st143{fill:#E0A91E;}
	.st144{fill:#FFA992;}
	.st145{fill:#2C363F;}
	.st146{fill:#1D262D;}
	.st147{fill-rule:evenodd;clip-rule:evenodd;fill:#FFF5F5;}
	.st148{opacity:0.2;}
	.st149{fill:#7C4949;}
	.st150{fill:#F9AE7A;}
	.st151{fill:#FFF5F5;}
	.st152{fill:#C92727;}
	.st153{fill:#4C1B05;}
	.st154{fill:#592009;}
	.st155{opacity:0.4;fill:#592009;}
	.st156{fill:#3F1307;}
	.st157{fill:#664472;}
	.st158{fill:#473051;}
	.st159{fill:#352020;}
	.st160{opacity:0.3;fill:#7C4949;}
</style>
<g>
	<path class="st0" d="M151.68,127.41c-4.17,6.61-9.18,12.36-14.78,17.24c-0.35,0.3-0.71,0.61-1.06,0.9
		c-0.27,0.22-0.54,0.45-0.82,0.67c-0.26,0.21-0.52,0.42-0.78,0.63c-0.01,0-0.01,0.01-0.02,0.01c-1.39,1.11-2.82,2.17-4.27,3.16
		c-0.23,0.16-0.47,0.32-0.71,0.47c-0.48,0.33-0.96,0.64-1.44,0.95c-0.5,0.32-1,0.63-1.5,0.94c-0.66,0.4-1.34,0.8-2.01,1.18
		c-0.01,0.01-0.02,0.01-0.04,0.02c-0.4,0.23-0.82,0.46-1.23,0.69c-0.3,0.17-0.61,0.33-0.94,0.49c-0.03,0.01-0.07,0.04-0.1,0.05
		c-1.49,0.78-3,1.52-4.55,2.2c-0.17,0.08-0.35,0.16-0.53,0.24c-0.06,0.03-0.14,0.06-0.2,0.09c-0.08,0.04-0.16,0.07-0.24,0.1
		c-0.18,0.08-0.36,0.16-0.54,0.23c-0.53,0.22-1.05,0.43-1.58,0.64c-0.08,0.04-0.17,0.07-0.25,0.1c-0.22,0.08-0.44,0.17-0.66,0.25
		c-0.04,0.01-0.07,0.03-0.11,0.04c-0.04,0.02-0.09,0.04-0.13,0.05c-0.2,0.09-0.42,0.16-0.63,0.24c-0.14,0.05-0.27,0.1-0.42,0.15
		c-0.09,0.04-0.19,0.07-0.29,0.11c-0.08,0.03-0.17,0.06-0.25,0.09c-0.45,0.16-0.9,0.31-1.35,0.46c-0.63,0.2-1.26,0.4-1.88,0.59
		c-0.01,0-0.01,0.01-0.02,0.01c-0.08,0.03-0.15,0.04-0.23,0.07c-0.14,0.04-0.27,0.08-0.41,0.12c-0.05,0.01-0.1,0.03-0.15,0.04
		c-0.3,0.09-0.59,0.17-0.89,0.25c-0.06,0.01-0.14,0.04-0.2,0.05c-0.14,0.04-0.3,0.08-0.45,0.12c-0.15,0.04-0.3,0.08-0.45,0.12
		c-0.33,0.09-0.67,0.17-1,0.26c-0.1,0.02-0.2,0.05-0.3,0.07c-0.08,0.02-0.15,0.04-0.23,0.06c-0.46,0.11-0.92,0.22-1.37,0.32
		c-0.18,0.04-0.36,0.08-0.55,0.12c-0.41,0.09-0.82,0.18-1.23,0.26c-0.01,0-0.03,0.01-0.04,0.01c-0.07,0.01-0.15,0.03-0.22,0.04
		c-0.63,0.12-1.26,0.24-1.89,0.34c-1.14,0.19-2.28,0.36-3.43,0.5c-0.25,0.04-0.51,0.07-0.76,0.09c-0.44,0.05-0.87,0.09-1.31,0.13
		c-0.27,0.03-0.55,0.06-0.82,0.08c-0.48,0.05-0.94,0.08-1.42,0.11c-0.47,0.04-0.94,0.06-1.41,0.08c-0.75,0.05-1.49,0.07-2.25,0.08
		c-0.16,0.01-0.32,0.01-0.47,0.01c-0.04,0-0.07,0.01-0.11,0.01c-0.17,0.01-0.35,0.01-0.52,0c-0.17,0.01-0.33,0.01-0.51,0.01
		c-0.33,0-0.67-0.01-1-0.01c-0.67-0.01-1.35-0.02-2.02-0.06c-1.18-0.04-2.36-0.12-3.54-0.21c-0.22-0.02-0.44-0.04-0.66-0.07
		c-0.3-0.03-0.6-0.06-0.9-0.09c-1.51-0.14-3.01-0.35-4.51-0.59c-0.58-0.1-1.16-0.2-1.74-0.31c-0.18-0.04-0.37-0.07-0.56-0.11
		c-0.17-0.03-0.33-0.06-0.5-0.09c-0.06-0.01-0.12-0.04-0.18-0.04c-0.28-0.06-0.56-0.12-0.85-0.18c-0.08-0.01-0.16-0.04-0.24-0.05
		c-0.33-0.07-0.65-0.14-0.98-0.22h-0.01c-1.21-0.28-2.41-0.59-3.61-0.93c-0.12-0.04-0.24-0.07-0.35-0.1
		c-0.09-0.02-0.17-0.05-0.26-0.08c-1.38-0.4-2.75-0.84-4.12-1.34c-0.2-0.07-0.4-0.14-0.6-0.22c-0.29-0.1-0.57-0.21-0.85-0.32
		c-0.36-0.14-0.72-0.27-1.08-0.42c-0.24-0.09-0.47-0.19-0.7-0.28c-0.17-0.07-0.33-0.13-0.49-0.2c-0.1-0.04-0.19-0.08-0.3-0.12
		c-0.01-0.01-0.03-0.01-0.04-0.02c-0.06-0.02-0.12-0.04-0.17-0.07c-0.05-0.02-0.11-0.04-0.16-0.07c-0.07-0.03-0.13-0.05-0.19-0.08
		c-0.25-0.1-0.49-0.21-0.74-0.33c-0.1-0.04-0.19-0.09-0.29-0.14c-0.24-0.11-0.48-0.21-0.71-0.32c-0.22-0.09-0.43-0.19-0.64-0.29
		c-0.17-0.07-0.33-0.15-0.5-0.22c-0.35-0.17-0.69-0.34-1.03-0.51c-0.28-0.14-0.56-0.29-0.84-0.43c-0.05-0.02-0.11-0.05-0.16-0.08
		c-0.33-0.16-0.65-0.34-0.97-0.51c-0.03-0.01-0.06-0.03-0.09-0.05c-0.05-0.02-0.09-0.05-0.14-0.08c-0.34-0.17-0.67-0.35-1-0.53
		c-0.16-0.09-0.31-0.17-0.47-0.27c-0.04-0.02-0.08-0.04-0.12-0.07c-0.45-0.25-0.9-0.51-1.35-0.78c-0.19-0.12-0.38-0.22-0.57-0.35
		c-0.01-0.01-0.02-0.01-0.03-0.02c-0.06-0.03-0.12-0.07-0.19-0.11c-0.09-0.06-0.19-0.12-0.28-0.17c-0.18-0.11-0.36-0.22-0.53-0.32
		c-0.12-0.07-0.23-0.14-0.35-0.22c-0.12-0.07-0.24-0.15-0.35-0.22c-0.24-0.15-0.48-0.31-0.71-0.46c-0.04-0.03-0.09-0.07-0.14-0.09
		c-0.04-0.02-0.07-0.05-0.11-0.07c-0.04-0.03-0.08-0.05-0.12-0.08l-0.07-0.04c-0.01-0.01-0.02-0.01-0.03-0.01
		c-0.21-0.13-0.4-0.26-0.6-0.41c-0.25-0.15-0.49-0.32-0.73-0.49c-0.01-0.01-0.04-0.02-0.05-0.04c-0.03-0.01-0.06-0.04-0.09-0.06
		c-0.11-0.08-0.21-0.15-0.31-0.22c-0.1-0.07-0.2-0.14-0.3-0.2c-0.16-0.12-0.32-0.22-0.47-0.33c-0.02-0.01-0.04-0.03-0.05-0.04
		c-0.61-0.43-1.2-0.87-1.78-1.33c-0.38-0.29-0.76-0.58-1.13-0.87c-0.45-0.36-0.9-0.73-1.34-1.1c-0.07-0.06-0.14-0.12-0.21-0.17
		c-0.62-0.51-1.23-1.05-1.83-1.6c-0.48-0.42-0.95-0.85-1.41-1.29c-0.71-0.66-1.42-1.34-2.09-2.03c-0.49-0.49-0.97-1-1.44-1.5
		c-0.01-0.01-0.03-0.02-0.04-0.04c-0.72-0.77-1.42-1.55-2.09-2.34c-0.15-0.16-0.29-0.32-0.43-0.48c-1.17-1.39-2.3-2.82-3.37-4.28
		c-0.6-0.82-1.18-1.65-1.75-2.5c-0.1-0.14-0.2-0.29-0.3-0.43c-0.16-0.24-0.32-0.48-0.48-0.73c-0.01-0.03-0.02-0.04-0.04-0.07
		c-0.87-1.34-1.7-2.7-2.47-4.09c-0.09-0.15-0.19-0.33-0.27-0.5c-0.55-0.96-1.05-1.94-1.55-2.93c-0.32-0.66-0.64-1.3-0.95-1.96
		c-1.06-2.3-2.01-4.64-2.85-7.03c-0.38-1.1-0.75-2.21-1.08-3.34c-0.03-0.09-0.06-0.17-0.08-0.27c-0.07-0.23-0.14-0.45-0.21-0.69
		c-0.18-0.63-0.35-1.26-0.52-1.89c-5.25-20.15-2.47-42.35,9.54-61.34C42.84,7.68,91.01-3.18,127.41,19.83
		C163.83,42.83,174.69,91,151.68,127.41z"/>
	<g>
		<g>
			<path class="st112" d="M68.96,120.56c0,0.85-0.02,1.72-0.06,2.59c-0.16,4.14-0.69,8.46-1.38,12.9
				c-1.22,7.99-2.9,16.33-3.72,24.56c-1.38-0.4-2.75-0.84-4.12-1.34c-0.2-0.07-0.4-0.14-0.6-0.22c-0.29-0.1-0.57-0.21-0.85-0.32
				c-0.36-0.14-0.72-0.27-1.08-0.42c-0.24-0.09-0.47-0.19-0.7-0.28c-0.17-0.07-0.33-0.13-0.49-0.2c0.01-7.52,0.16-14.43,0.61-20.09
				v-0.02c0.3-3.65,0.72-6.77,1.33-9.21c0-0.02,0-0.04,0.01-0.07c0.38-1.52,0.84-2.77,1.37-3.7c0.76-1.33,2.75-2.3,4.74-2.97
				c0.01,0,0.01,0,0.01,0c1.6-0.54,3.2-0.89,4.12-1.07C68.66,120.61,68.96,120.56,68.96,120.56z"/>
		</g>
		<path class="st113" d="M84.38,117.49c-0.24,2.1,0.05,4.66-1.77,5.53c-3.49,1.67-9.68,1.12-13.04,0.3
			c-3.74-0.92-7.77-2.13-11.56-3.79c0.76-2,1.41-4.05,1.92-6.14c-0.94,1.67-2.03,2.77-3.48,4.02c0.02-1.56,1.12-3.58,1.62-5.07
			c0.71-2.11,1.08-4.33,1.44-6.53c-0.88,2.18-1.67,4.45-2.74,6.59c-0.91,1.84-2.13,3.32-3.42,4.74c-1.97-1.17-3.78-2.51-5.35-4.05
			c3.29-5.2,7.89-13.45,8.55-19.65c0.57-5.36,0.3-10.87,1.37-16.14c0.68-3.33,1.78-6.58,2.48-9.79c1.6-7.38,4.27-19.14,12.9-21.48
			l3.96,19.26c0.38,11.86,7.32,22.79,7.77,34.59c0.12,3.18,0.98,6.63,0.77,9.79C85.62,112.26,84.67,114.86,84.38,117.49z"/>
		<g>
			<path class="st114" d="M130.8,135.57c-0.25,0.53-0.49,1.06-0.72,1.6c-2.3,5.16-4.21,10.65-5.79,16.4
				c-0.01,0.01-0.02,0.01-0.04,0.02c-0.4,0.23-0.82,0.46-1.23,0.69c-0.3,0.17-0.61,0.33-0.94,0.49c-0.03,0.01-0.07,0.04-0.1,0.05
				c-1.49,0.78-3,1.52-4.55,2.2c-0.17,0.08-0.35,0.16-0.53,0.24c-0.06,0.03-0.14,0.06-0.2,0.09c-0.08,0.04-0.16,0.07-0.24,0.1
				c-0.18,0.08-0.36,0.16-0.54,0.23c-0.53,0.22-1.05,0.43-1.58,0.64c-0.08,0.04-0.17,0.07-0.25,0.1c-0.22,0.08-0.44,0.17-0.66,0.25
				c-0.04,0.01-0.07,0.03-0.11,0.04c-0.04,0.02-0.09,0.04-0.13,0.05c-0.2,0.09-0.42,0.16-0.63,0.24c-0.14,0.05-0.27,0.1-0.42,0.15
				c-0.09,0.04-0.19,0.07-0.29,0.11c-0.08,0.03-0.17,0.06-0.25,0.09c-0.45,0.16-0.9,0.31-1.35,0.46c-0.63,0.2-1.26,0.4-1.88,0.59
				c-0.01,0-0.01,0.01-0.02,0.01c-0.08,0.03-0.15,0.04-0.23,0.07c-0.14,0.04-0.27,0.08-0.41,0.12c-0.05,0.01-0.1,0.03-0.15,0.04
				c-0.3,0.09-0.59,0.17-0.89,0.25c-0.06,0.01-0.14,0.04-0.2,0.05c-0.14,0.04-0.3,0.08-0.45,0.12c-0.15,0.04-0.3,0.08-0.45,0.12
				c-0.33,0.09-0.67,0.17-1,0.26c-0.1,0.02-0.2,0.05-0.3,0.07c-0.08,0.02-0.15,0.04-0.23,0.06c-0.46,0.11-0.92,0.22-1.37,0.32
				c-0.18,0.04-0.36,0.08-0.55,0.12c-0.41,0.09-0.82,0.18-1.23,0.26c-0.01,0-0.03,0.01-0.04,0.01c-0.07,0.01-0.15,0.03-0.22,0.04
				c-0.63,0.12-1.26,0.24-1.89,0.34c-1.14,0.19-2.28,0.36-3.43,0.5c-0.25,0.04-0.51,0.07-0.76,0.09c-0.44,0.05-0.87,0.09-1.31,0.13
				c-0.27,0.03-0.55,0.06-0.82,0.08c-0.48,0.05-0.94,0.08-1.42,0.11c-0.47,0.04-0.94,0.06-1.41,0.08c-0.75,0.05-1.49,0.07-2.25,0.08
				c-0.16,0.01-0.32,0.01-0.47,0.01c-0.04,0-0.07,0.01-0.11,0.01c-0.17,0.01-0.35,0.01-0.52,0c-0.17,0.01-0.33,0.01-0.51,0.01
				c-0.33,0-0.67-0.01-1-0.01c-0.67-0.01-1.35-0.02-2.02-0.06c-1.18-0.04-2.36-0.12-3.54-0.21c-0.22-0.02-0.44-0.04-0.66-0.07
				c-0.3-0.03-0.6-0.06-0.9-0.09c-1.51-0.14-3.01-0.35-4.51-0.59c-0.58-0.1-1.16-0.2-1.74-0.31c-0.18-0.04-0.37-0.07-0.56-0.11
				c-0.17-0.03-0.33-0.06-0.5-0.09c-0.06-0.01-0.12-0.04-0.18-0.04c-0.28-0.06-0.56-0.12-0.85-0.18c-0.08-0.01-0.16-0.04-0.24-0.05
				c-0.33-0.07-0.65-0.14-0.98-0.22h-0.01c-1.21-0.28-2.41-0.59-3.61-0.93c-0.12-0.04-0.24-0.07-0.35-0.1
				c-0.09-0.02-0.17-0.05-0.26-0.08c-1.38-0.4-2.75-0.84-4.12-1.34c-0.2-0.07-0.4-0.14-0.6-0.22c-0.29-0.1-0.57-0.21-0.85-0.32
				c-0.36-0.14-0.72-0.27-1.08-0.42c-0.24-0.09-0.47-0.19-0.7-0.28c0.95-3.11,1.88-6.24,2.2-8.35c2.14-14.81,2.27-25.45,3.2-26.08
				c1-0.67,1.94-1.19,2.87-1.62h0.01c1.18-0.54,2.32-0.93,3.44-1.28c2.22-0.68,4.4-1.17,6.74-2.28c0.01-0.01,0.02-0.01,0.02-0.01
				c0.87-0.41,1.78-0.91,2.71-1.54c0.27-0.18,0.55-0.38,0.84-0.59c0.1-0.07,0.2-0.14,0.3-0.22l0.27-0.01l1-0.05h0.01l4.61-0.23
				l1.19-0.06l2.09-0.11l2.18-0.11l3.36-0.17h0.01l2.27-0.12l0.12-0.01c3.73,0.64,7.85,2.16,11.99,4.2
				c0.08,0.03,0.15,0.06,0.22,0.11c0.4,0.2,0.82,0.4,1.22,0.62c0.83,0.42,1.66,0.87,2.48,1.34c1.23,0.69,2.46,1.42,3.65,2.17
				c0.94,0.58,1.86,1.19,2.77,1.8c1.69,1.14,3.33,2.32,4.87,3.5v0.01c2.66,2.03,5.07,4.09,7.08,6.04
				C130.4,135.17,130.6,135.37,130.8,135.57z"/>
		</g>
		<path class="st2" d="M97.54,117.18c-0.28-0.03-0.58-0.05-0.87-0.08c-0.3-0.03-0.61-0.06-0.92-0.08h-0.01
			c-0.05-0.01-0.12-0.01-0.17-0.01h-0.01c-0.15-0.02-0.3-0.03-0.46-0.04c-0.06-0.01-0.12-0.01-0.17-0.01
			c0.1,0.6,0.21,1.31,0.32,2.07v0.01c0.23,1.6,0.45,3.42,0.51,4.87v0.01c0.04,1,0.01,1.83-0.14,2.3
			c-2.53,7.79-11.79,15.8-18.45,17.9c-1.31-2.31-1.7-6.59-1.09-11.92c0.11-0.96,0.25-1.96,0.43-2.99c0.32-1.88,0.71-3.6,1.1-5.11
			c0.14-0.49,0.27-0.96,0.4-1.41c0.11-0.34,0.58-1.42,1.14-2.67v-0.01c0.01,0,0.01-0.01,0.01-0.01c0.56-1.26,1.21-2.69,1.67-3.7
			c-0.49-0.01-0.99-0.01-1.49-0.01c-0.09,0-0.19,0-0.29,0.01h-0.01c-0.01,0-0.01-0.01-0.01-0.01c-0.01,0-0.01,0.01-0.01,0.01
			c-0.18-0.01-0.37,0-0.55,0c-0.17,0-0.35,0-0.52,0.01c-0.11,0.17-0.22,0.37-0.32,0.58c-0.43,0.87-0.82,2.04-1.19,3.3
			c-0.36,1.26-0.69,2.64-0.97,3.91c-0.47,2.17-0.79,4.07-0.91,4.77c-0.25,1.49-0.58,3.83-0.69,6.38c-0.16,3.81,0.19,8.07,2.07,10.59
			l0.4,0.53l0.64-0.17c7.31-1.92,17.63-10.61,20.49-19.39c0.18-0.57,0.39-1.44,0.53-2.48C98.34,122.17,98.41,119.32,97.54,117.18z"
			/>
		<path class="st115" d="M74.92,118.41c-0.08,0.75-0.82,2.74-1.98,5.49c-1.36,3.24-3.31,7.55-5.42,12.15
			c-3.62,7.87-7.75,16.59-10.37,22.27c-0.24-0.09-0.47-0.19-0.7-0.28c-0.17-0.07-0.33-0.13-0.49-0.2c-0.1-0.04-0.19-0.08-0.3-0.12
			c-0.01-0.01-0.03-0.01-0.04-0.02c-0.06-0.02-0.12-0.04-0.17-0.07c-0.05-0.02-0.11-0.04-0.16-0.07c-0.07-0.03-0.13-0.05-0.19-0.08
			c0.34-6.61,0.83-13.72,1.48-19.73v-0.02c0.38-3.57,0.82-6.75,1.33-9.21c0-0.02,0-0.04,0.01-0.07c0.52-2.59,1.11-4.36,1.76-4.89
			c0.57-0.46,2.22-1.13,4.24-1.82c4.42-1.52,10.61-3.21,10.98-3.31C74.92,118.41,74.92,118.41,74.92,118.41z"/>
		<g>
			<g>
				<g>
					<path class="st115" d="M103.79,125.31c-0.43-2.33-0.91-4.63-1.46-6.9c0,0,2.25,0.52,5.41,1.31c0.1,0.02,0.19,0.04,0.3,0.07
						c0.42,0.1,0.84,0.21,1.29,0.32c0.87,0.22,1.79,0.46,2.74,0.69c1.2,0.33,2.44,0.65,3.67,0.99c1.94,0.53,3.84,1.08,5.55,1.62
						c2.88,0.9,5.18,1.75,6.04,2.38c0.07,0.05,0.14,0.11,0.21,0.17c2.09,1.71,2.74,5.03,2.66,8.99c-0.01,0.71-0.05,1.45-0.11,2.2
						c-0.35,4.65-1.46,9.86-2.27,14.28c-0.5,0.32-1,0.63-1.5,0.94c-0.66,0.4-1.34,0.8-2.01,1.18c-0.01,0.01-0.02,0.01-0.04,0.02
						c-0.4,0.23-0.82,0.46-1.23,0.69c-0.3,0.17-0.61,0.33-0.94,0.49c-0.03,0.01-0.07,0.04-0.1,0.05c-1.49,0.78-3,1.52-4.55,2.2
						c-0.17,0.08-0.35,0.16-0.53,0.24c-0.06,0.03-0.14,0.06-0.2,0.09c-0.08,0.04-0.16,0.07-0.24,0.1c-0.18,0.08-0.36,0.16-0.54,0.23
						c-0.53,0.22-1.05,0.43-1.58,0.64c-0.08,0.04-0.17,0.07-0.25,0.1c-0.22,0.08-0.44,0.17-0.66,0.25
						c-0.04,0.01-0.07,0.03-0.11,0.04c-0.04,0.02-0.09,0.04-0.13,0.05c-0.2,0.09-0.42,0.16-0.63,0.24c-0.14,0.05-0.27,0.1-0.42,0.15
						c-0.09,0.04-0.19,0.07-0.29,0.11c-0.08,0.03-0.17,0.06-0.25,0.09c-0.45,0.16-0.9,0.31-1.35,0.46c-0.63,0.2-1.26,0.4-1.88,0.59
						c-0.01,0-0.01,0.01-0.02,0.01c-0.08,0.03-0.15,0.04-0.23,0.07c-0.14,0.04-0.27,0.08-0.41,0.12c-0.05,0.01-0.1,0.03-0.15,0.04
						c-0.3,0.09-0.59,0.17-0.89,0.25c0.01-7.81-0.3-15.46-1.07-22.87C105.15,133.69,104.57,129.45,103.79,125.31z"/>
					<path class="st112" d="M107.7,160.59c-0.05,0.01-0.1,0.03-0.15,0.04c-0.3,0.09-0.59,0.17-0.89,0.25
						c-0.06,0.01-0.14,0.04-0.2,0.05c-0.29-7.45-0.83-21.59-0.87-22.92v-0.09C106.62,143.74,107.3,151.77,107.7,160.59z"/>
				</g>
				<g>
					<path class="st112" d="M134.24,146.85c-0.01,0-0.01,0.01-0.02,0.01c-1.39,1.11-2.82,2.17-4.27,3.16
						c-0.23,0.16-0.47,0.32-0.71,0.47c-0.48,0.33-0.96,0.64-1.44,0.95c-0.5,0.32-1,0.63-1.5,0.94c-0.66,0.4-1.34,0.8-2.01,1.18
						c-0.01,0.01-0.02,0.01-0.04,0.02c-0.4,0.23-0.82,0.46-1.23,0.69c-0.3,0.17-0.61,0.33-0.94,0.49c-0.03,0.01-0.07,0.04-0.1,0.05
						c-1.49,0.78-3,1.52-4.55,2.2c-0.17,0.08-0.35,0.16-0.53,0.24c-0.06,0.03-0.14,0.06-0.2,0.09c-0.08,0.04-0.16,0.07-0.24,0.1
						c-0.18,0.08-0.36,0.16-0.54,0.23c-0.53,0.22-1.05,0.43-1.58,0.64c1.65-6.71,3.33-13.16,4.91-18.49
						c1.41-4.74,2.73-8.58,3.87-10.89v-0.01c1.34-2.72,2.9-3.6,4.41-2.95C130.67,127.33,133.66,135.24,134.24,146.85z"/>
					<path class="st116" d="M119.24,139.82c0,0-1.98,13.48-2.79,17.62c-0.18,0.08-0.36,0.16-0.54,0.23
						c-0.53,0.22-1.05,0.43-1.58,0.64C115.98,151.6,117.66,145.14,119.24,139.82z"/>
				</g>
			</g>
		</g>
		<g>
			<g>
				<path class="st61" d="M95.75,117.23l-1.21,4.38c-0.28-0.6-4.34-2.13-4.77-2.66c-1.09-1.34,1.59-4.54-0.24-4.49
					c-0.14,0-0.26,0.02-0.38,0.04l-7.83,2.91c-0.39,0.33-0.94,1.28-1.52,2.76l-0.62,0.02l-0.09-3.04l-0.1-3.43l-0.03-0.96
					l-0.01-0.34l-0.04-1.33l-0.01-0.51l-0.54-18.61l-0.25-8.33l17.18-0.5l0.01,0.6l0.17,5.85l0.01,0.51l0.16,5.33l0.23,8.04
					l0.01,0.23L95.75,117.23z"/>
				<g>
					<path class="st62" d="M95.65,99.99c-2.89,7.11-11.02,14.32-16.67,13.71l-0.03-0.96l-0.01-0.34l-0.04-1.33l0.04-0.02l3.46-17.9
						l13.08-3.08l0.16,5.33L95.65,99.99z"/>
				</g>
				<path class="st61" d="M95.43,116.82c-1.34-1.64-5.6-3.43-7.55-2.99l-8.85,2.44c-0.94,2.53-6.24,21.98-1.86,27.82
					C86.81,141.57,102.68,125.68,95.43,116.82z"/>
			</g>
			<g>
				<g>
					<path class="st117" d="M63.67,97.46c-2.98,0.4-5.78-2.06-6.24-5.48c-0.46-3.43,1.58-6.54,4.56-6.94l0.09,0.67
						c-2.6,0.35-4.39,3.12-3.98,6.18c0.41,3.05,2.87,5.25,5.47,4.9c2.61-0.35,4.39-3.12,3.98-6.18c-0.25-1.85-1.68-3.76-3.14-4.62
						l0.55-0.48c1.63,0.96,2.99,2.95,3.26,5.01C68.7,93.94,66.65,97.05,63.67,97.46z"/>
					<path class="st117" d="M62.96,85.23c0.06,0.43-0.24,0.82-0.67,0.88c-0.43,0.06-0.83-0.24-0.88-0.67
						c-0.06-0.43,0.24-0.82,0.67-0.88C62.51,84.5,62.9,84.8,62.96,85.23z"/>
				</g>
				<g>
					<path class="st61" d="M99.36,52.45c-3.31-3.68-22.05-8.05-29.03,0.52c-5.96,7.31-5.98,17.47-8.54,26.54
						c-4.32,15.35,9.76,31.43,14.24,31.03c7.8-0.7,17.97-7.45,21.34-13.33c2.51-4.38,1.49-9.29,3.01-14.19
						C103.49,73.05,106.69,60.6,99.36,52.45z"/>
					<g>
						<g>
							<g>
								<path class="st62" d="M73.74,83.5c-0.89,0.6-1.75,1.04-0.89,2.28c1.2,1.74,3.87,1.55,4.96,1.4
									c-0.64-0.18-3.48-1.12-4.26-1.91C73.01,84.72,76.67,81.5,73.74,83.5z"/>
							</g>
						</g>
					</g>
					<g>
						<path class="st7" d="M67.83,91.44l-0.13,0c0.06,0.16,4.81,5.28,6.15,7.69c0.95,1.7,2.43,3.75,4.71,3.55
							c5.75-0.5,6.78-10.61,8.15-12.85C85.29,92.15,70.95,91.81,67.83,91.44z"/>
						<path class="st118" d="M80.2,97.92c-0.46-0.25-1.4-0.14-1.89-0.02c-0.95,0.24-1.95,0.67-2.71,1.3
							c-0.3,0.25-1.03,1.14-0.97,1.57c0.06,0.43,0.84,0.87,1.13,1.12c0.71,0.6,1.57,0.74,2.5,0.73c1.57-0.02,2.5-0.66,3.4-1.92
							c0.52-0.74,0.91-1.55,1.51-2.22l2.64-4.84C83.66,93.61,80.2,95.58,80.2,97.92z"/>
						<path class="st2" d="M69.42,90.86c0.45,0.92,1.22,1.8,1.91,2.42c0.84,0.75,1.8,1.05,2.85,1.17c0.65,0.07,1.32,0.07,2.02,0.06
							c1.72-0.02,3.53-0.36,5.04-1.02c1.06-0.47,1.27-1.4,1.55-2.34L69.42,90.86z"/>
						<path class="st24" d="M87.94,88.34c-0.26,0.4-1.94,1.23-4.5,1.93h-0.01c-0.49,0.13-1.01,0.25-1.56,0.37
							c-0.55,0.12-1.13,0.22-1.73,0.32c-0.26,0.04-0.52,0.08-0.79,0.11c-0.34,0.04-0.69,0.08-1.04,0.12
							c-1.13,0.11-2.34,0.17-3.58,0.13c-0.14,0-0.3,0-0.45-0.01c-1.5-0.04-3.31-0.14-4.76-0.24h-0.01
							c-0.14-0.01-0.29-0.01-0.43-0.02c-0.25-0.01-0.49-0.03-0.71-0.05c-0.01,0-0.01,0-0.01,0c-0.03,0-0.06-0.01-0.09-0.01
							c-0.25-0.01-0.49-0.03-0.69-0.05c-0.43-0.02-0.69-0.04-0.69-0.04s0.26,0.32,0.69,0.86c0.01,0.01,0.01,0.01,0.01,0.01
							c0.17,0.22,0.38,0.46,0.6,0.74l0.01,0.01c0.35,0.43,0.74,0.94,1.16,1.46c1.59,2.01,3.46,4.44,4,5.42
							c0.51,0.93,2.09,3.78,4.79,3.83c0.14,0.01,0.29-0.01,0.43-0.01h0.07c0.51-0.03,1-0.13,1.47-0.29c0.14-0.05,0.27-0.09,0.4-0.16
							h0.01c0.4-0.16,0.76-0.36,1.11-0.61c1.34-0.92,2.4-2.35,3.26-3.95V98.2c1.08-2.02,1.82-4.31,2.29-6.17
							c0.1-0.38,0.18-0.73,0.26-1.06C87.81,89.41,87.95,88.34,87.94,88.34C87.95,88.34,87.95,88.34,87.94,88.34z M85.58,91.81
							c-0.03,0.19-0.06,0.4-0.1,0.62c-0.06,0.38-0.14,0.79-0.26,1.24v0.01c-0.14,0.63-0.35,1.31-0.61,2.01v0.01
							c-0.06,0.14-0.11,0.29-0.17,0.43v0.01c-0.46,1.12-1.09,2.26-1.96,3.29c-0.01,0.01-0.01,0.01-0.01,0.01l-0.01,0.01
							c-0.45,0.52-0.95,1-1.55,1.43c-0.02,0.02-0.05,0.04-0.08,0.06c-0.22,0.17-0.45,0.32-0.69,0.45c-0.45,0.28-0.96,0.52-1.49,0.72
							h-0.01c-0.04,0.01-0.08,0.03-0.12,0.04c-1.26,0.45-2.44-0.48-3.56-2.2c0,0,0-0.01-0.01-0.01c-0.22-0.32-0.43-0.69-0.64-1.07
							c-0.95-1.72-3.53-4.7-5.06-6.46c-0.11-0.12-0.2-0.23-0.3-0.33c0.09,0.01,0.17,0.01,0.26,0.02c0.33,0.03,0.69,0.05,1.06,0.07
							h0.01c1.29,0.09,2.83,0.17,4.43,0.2h0.3c1.21,0.01,2.31-0.03,3.34-0.11c0.63-0.05,1.23-0.12,1.79-0.19
							c0.32-0.04,0.64-0.09,0.93-0.14c0.57-0.09,1.09-0.19,1.56-0.29c0.4-0.09,0.77-0.17,1.1-0.26c0.88-0.23,1.55-0.45,1.99-0.6
							C85.69,90.9,85.66,91.27,85.58,91.81z"/>
						<g>
							<path class="st62" d="M67.88,91.02l-0.15-0.05C67.77,91,67.82,91.01,67.88,91.02z"/>
							<path class="st24" d="M76.24,89.16c-0.55,0.39-1.22,0.98-1.88,1.16c-0.65,0.18-1.34-0.25-1.91-0.55
								c-1-0.54-1.02-0.63-1.94,0.02c-0.57,0.41-1.86,1.38-2.64,1.24l2.68,0.81c0.13,0.21,1.61,0.03,2.04,0.04
								c0.91,0.02,1.82,0.04,2.73,0.06c1.05,0.02,2.08-0.05,3.12-0.07c0.75-0.01,7.98-0.65,9.51-3.53
								C86.14,88.3,81.78,91.83,76.24,89.16z"/>
						</g>
					</g>
					<path class="st119" d="M65.44,66.09l-0.25,0.33c1-1.16,5.83-1.61,6.65-0.22C72.94,60.42,66.82,64,65.44,66.09z"/>
					<g>
						<path class="st2" d="M95.35,80.3c-0.69-3.5-3.5-8.85-9.72-4.21c-1.98,1.16-3.61,2.83-3.98,3.22
							c-0.03,0.03-0.05,0.05-0.06,0.07c-0.02,0.01-0.02,0.02-0.02,0.02c0.11,0.05,0.22,0.1,0.33,0.15c0.47,0.21,0.94,0.41,1.41,0.6
							c0.35,0.14,0.7,0.28,1.05,0.41c0.12,0.05,0.24,0.09,0.35,0.13c0.12,0.04,0.24,0.09,0.35,0.13c0.14,0.05,0.29,0.1,0.43,0.15
							l0.5,0.17c0.28,0.09,0.55,0.18,0.84,0.26c0.06,0.02,0.11,0.03,0.17,0.05c0.17,0.05,0.33,0.1,0.5,0.14
							c0.02,0.01,0.03,0.01,0.05,0.01c0.15,0.04,0.31,0.08,0.46,0.12c0.1,0.03,0.2,0.05,0.3,0.07c0.11,0.03,0.21,0.05,0.32,0.07
							c0.13,0.03,0.26,0.06,0.4,0.09c0.14,0.03,0.29,0.06,0.44,0.09c0.02,0,0.05,0.01,0.07,0.01c0.06,0.01,0.12,0.02,0.18,0.03
							c0.12,0.02,0.24,0.04,0.36,0.06c0.24,0.04,0.49,0.07,0.74,0.11c0.12,0.02,0.25,0.03,0.37,0.04c0.12,0.01,0.25,0.02,0.37,0.03
							c0.11,0.01,0.22,0.02,0.33,0.02c0.03,0,0.05,0,0.08,0c0.24,0.01,0.47,0.03,0.71,0.03c0.52,0.02,1.03,0.01,1.56-0.02
							c0.21-0.02,0.42-0.03,0.63-0.05h0.01c0.21-0.02,0.42-0.04,0.63-0.07c0-0.06,0.01-0.12,0.01-0.18
							C95.56,81.47,95.51,80.88,95.35,80.3z"/>
						<g>
							<g>
								<path class="st22" d="M90.87,78.18c-0.01,2.28-1.26,4.13-2.79,4.12c-1.53-0.01-2.76-1.87-2.75-4.15
									c0.01-2.28,1.26-4.13,2.79-4.12C89.65,74.04,90.88,75.89,90.87,78.18z"/>
								<path class="st23" d="M89.88,78.02c-0.01,1.59-0.81,2.88-1.8,2.87c-0.99,0-1.78-1.3-1.77-2.89c0.01-1.59,0.81-2.88,1.8-2.87
									C89.1,75.13,89.89,76.43,89.88,78.02z"/>
								<path class="st2" d="M91.63,76.56l-3.12,0.57c0,0,2.29,1.4,2.94,0.98C91.78,77.9,91.63,76.56,91.63,76.56z"/>
							</g>
							<path class="st113" d="M95.51,82.25c0.04-0.47-0.01-0.81-0.16-1.6c-0.69-3.51-3.5-8.85-9.72-4.21
								c-1.97,1.47-3.84,2.77-4.06,2.96c-0.02,0.01,0,0,0,0s4.94-10.96,11.68-8.23C96.63,72.53,96.69,79.42,95.51,82.25z"/>
							<path class="st62" d="M95.51,82.25c0.04-0.47-0.01-1.16-0.16-1.95c-0.69-3.5-3.5-8.85-9.72-4.21
								c-1.97,1.47-3.82,3.09-4.04,3.29c-0.02,0.01-0.02,0.02-0.02,0.02s4.94-11.31,11.68-8.58C96.63,72.18,96.69,79.42,95.51,82.25
								z"/>
							<path class="st62" d="M94.88,82.32c-5.81,2.05-10.87-0.89-12.97-2.78c0.47,0.21,0.94,0.41,1.41,0.6
								c0.35,0.14,0.7,0.28,1.05,0.41c0.12,0.05,0.24,0.09,0.35,0.13c0.12,0.04,0.24,0.09,0.35,0.13c0.14,0.05,0.29,0.1,0.43,0.15
								l0.5,0.17c0.28,0.09,0.55,0.18,0.84,0.26c0.06,0.02,0.11,0.03,0.17,0.05c0.17,0.05,0.33,0.1,0.5,0.14
								c0.02,0.01,0.03,0.01,0.05,0.01c0.15,0.04,0.31,0.08,0.46,0.12c0.1,0.03,0.2,0.05,0.3,0.07c0.11,0.03,0.21,0.05,0.32,0.07
								c0.13,0.03,0.26,0.06,0.4,0.09c0.14,0.03,0.29,0.06,0.44,0.09c0.02,0,0.05,0.01,0.07,0.01c0.06,0.01,0.12,0.02,0.18,0.03
								c0.12,0.02,0.24,0.04,0.36,0.06c0.24,0.04,0.49,0.07,0.74,0.11c0.12,0.02,0.25,0.03,0.37,0.04c0.12,0.01,0.25,0.02,0.37,0.03
								c0.11,0.01,0.22,0.02,0.33,0.02c0.03,0,0.05,0,0.08,0c0.24,0.01,0.47,0.03,0.71,0.03c0.52,0.02,1.03,0.01,1.56-0.02
								C94.45,82.36,94.67,82.34,94.88,82.32z"/>
						</g>
					</g>
					<g>
						<path class="st2" d="M63.5,75.97c1.48-2.59,4.42-8.13,7.72-2.85c1.14,1.43,2.5,5.21,2.67,5.62c0.01,0.03,0.02,0.05,0.03,0.07
							c0.01,0.02,0.01,0.02,0.01,0.02c-0.1,0.01-0.19,0.02-0.29,0.03c-0.4,0.04-0.81,0.08-1.21,0.11c-0.3,0.02-0.6,0.04-0.89,0.05
							c-0.1,0.01-0.2,0.01-0.3,0.01c-0.1,0-0.2,0.01-0.3,0.01c-0.12,0-0.24,0.01-0.36,0.01l-0.42,0c-0.23,0-0.46,0-0.69-0.01
							c-0.05,0-0.09,0-0.14,0c-0.14,0-0.27-0.01-0.41-0.02c-0.01,0-0.02,0-0.04,0c-0.13-0.01-0.25-0.01-0.37-0.02
							c-0.08,0-0.16-0.01-0.24-0.02c-0.09-0.01-0.17-0.02-0.26-0.03c-0.1-0.01-0.21-0.02-0.32-0.03c-0.11-0.01-0.23-0.03-0.35-0.04
							c-0.02,0-0.04-0.01-0.06-0.01c-0.05-0.01-0.1-0.01-0.15-0.02c-0.09-0.01-0.19-0.03-0.28-0.05c-0.19-0.03-0.38-0.07-0.57-0.11
							c-0.1-0.02-0.19-0.04-0.28-0.06c-0.09-0.02-0.19-0.05-0.28-0.07c-0.08-0.02-0.16-0.04-0.25-0.07c-0.02,0-0.04-0.01-0.06-0.02
							c-0.18-0.05-0.36-0.1-0.54-0.16c-0.39-0.12-0.76-0.26-1.15-0.42c-0.15-0.07-0.3-0.13-0.45-0.21l-0.01,0
							c-0.15-0.07-0.3-0.14-0.44-0.22c0.01-0.05,0.02-0.09,0.04-0.14C63.02,76.84,63.22,76.39,63.5,75.97z"/>
						<g>
							<path class="st22" d="M69.93,75.17c-0.01,2.28-1.26,4.13-2.79,4.12c-1.53-0.01-2.76-1.87-2.75-4.15
								c0.01-2.28,1.26-4.13,2.79-4.12C68.71,71.03,69.94,72.89,69.93,75.17z"/>
							<path class="st23" d="M68.95,75.01c-0.01,1.59-0.81,2.88-1.8,2.87c-0.99-0.01-1.78-1.3-1.77-2.89
								c0.01-1.59,0.81-2.87,1.8-2.87C68.16,72.13,68.95,73.42,68.95,75.01z"/>
							<path class="st2" d="M70.7,73.55l-3.12,0.57c0,0,2.29,1.4,2.94,0.98C70.85,74.89,70.7,73.55,70.7,73.55z"/>
						</g>
						<path class="st113" d="M62.84,77.47c0.1-0.38,0.33-0.56,0.66-1.14c1.48-2.59,4.38-7.54,8.35-0.81c1,1.7,1.94,3.01,2.04,3.23
							c0.01,0.01-0.01-0.08-0.01-0.08s-0.46-9.69-6.2-9.29C64.81,69.58,62.75,74.92,62.84,77.47z"/>
						<path class="st62" d="M62.84,77.47c0.1-0.38,0.33-0.91,0.66-1.5c1.48-2.59,4.38-7.55,8.35-0.81c1,1.71,1.96,3.44,2.07,3.65
							c0.01,0.02,0.01,0.02,0.01,0.02s-0.51-10.22-6.24-9.82C64.81,69.22,62.75,74.92,62.84,77.47z"/>
						<path class="st62" d="M63.29,77.69c3.72,3.13,8.27,2.12,10.35,1.17c-0.4,0.04-0.81,0.08-1.21,0.11
							c-0.3,0.02-0.6,0.04-0.89,0.05c-0.1,0.01-0.2,0.01-0.3,0.01c-0.1,0-0.2,0.01-0.3,0.01c-0.12,0-0.24,0.01-0.36,0.01l-0.42,0
							c-0.23,0-0.46,0-0.69-0.01c-0.05,0-0.09,0-0.14,0c-0.14,0-0.27-0.01-0.41-0.02c-0.01,0-0.02,0-0.04,0
							c-0.13-0.01-0.25-0.01-0.37-0.02c-0.08,0-0.16-0.01-0.24-0.02c-0.09-0.01-0.17-0.02-0.26-0.03c-0.1-0.01-0.21-0.02-0.32-0.03
							c-0.11-0.01-0.23-0.03-0.35-0.04c-0.02,0-0.04-0.01-0.06-0.01c-0.05-0.01-0.1-0.01-0.15-0.02c-0.09-0.01-0.19-0.03-0.28-0.05
							c-0.19-0.03-0.38-0.07-0.57-0.11c-0.1-0.02-0.19-0.04-0.28-0.06c-0.09-0.02-0.19-0.05-0.28-0.07
							c-0.08-0.02-0.16-0.04-0.25-0.07c-0.02,0-0.04-0.01-0.06-0.02c-0.18-0.05-0.36-0.1-0.54-0.16c-0.39-0.12-0.76-0.26-1.15-0.42
							C63.59,77.83,63.44,77.76,63.29,77.69z"/>
					</g>
					<g>
						<path class="st113" d="M115.06,126.3c0.46-2.95,0.93-6.13,1.27-9.01c0.61-5.24,1.43-13.74,0.57-16.39
							c-0.8,4.83-1.73,9.56-2.99,14.33c-0.98,3.68-2.44,7.32-4.11,10.75c-0.05,0.1-0.09,0.2-0.14,0.3c-0.87-0.1-1.73-0.23-2.56-0.38
							c0.33-3.11,0.79-6.44,1.87-9.12c-1.21,2.72-2.29,6.11-4.16,8.71c-0.11-0.02-0.22-0.04-0.33-0.06
							c-3.39-0.59-16.19-2.42-18.78-4.75c1.9-2.52,20.35-51.37,4-57.98c1.95,3.82,5.9,7.73,4.57,18.14
							C90.7,62.42,68.21,57.21,67.36,51.68C67,49.31,75.9,38.02,90.14,40.24c35.4,5.51,35.02,41.14,35.95,49.16
							C129.43,118.11,122.69,125.21,115.06,126.3z"/>
						<g>
							<g>
								<g>
									<path class="st120" d="M118.74,72.3c0.52-2.37-0.78-5.29-1.62-7.44c-0.94-2.41-2.34-4.67-3.85-6.78
										c-1.6-2.22-3.34-3.99-5.53-5.68c-1.05-0.82-1.97-1.45-3.21-1.96c-1.03-0.43-2.38-0.75-3.38-1.19
										c1.97,1.01,4.27,3.23,4.77,5.35c-1.35-1.2-2.95-1.98-4.7-2.4c1.24,0.37,2.28,2.58,2.77,3.65c0.41,0.88,0.55,1.81,0.73,2.73
										c-0.71-1.63-3.06-3.12-4.51-4.12c-0.8-0.56-1.67-0.98-2.56-1.35c-0.66-0.27-1.47-0.32-2.12-0.58
										c1.75,0.92,3.31,3.52,4.07,5.15c-1.9-1.95-6.65-3.52-9.35-3.17c1.88,0.48,4.49,2.78,5.01,4.66
										c0.14-0.5-0.02-0.99-0.27-1.42c0.97,0.7,2.48,1.78,2.71,2.87c-0.02-1.46-1.09-2.66-1.69-3.67l-0.14-0.43
										c2.59,1.46,4.02,4.87,5.19,7.61c1.16,2.73,1.47,5.46,1.66,8.27c0.79-1.88,1.2-4.55,0.73-6.53
										c0.85,1.81,1.51,3.28,1.74,5.35c0.29,2.6,0.66,5.23,0.55,7.83c1.2-1.62,1.47-4.74,1.64-6.73c0.12-1.42,0.02-2.71-0.15-4.12
										c-0.08-0.7,0-1.56-0.31-2.19c0.97,1.55,1.87,2.93,2.14,4.8c0.24,1.61,0.37,3.38,0.45,5c1.18-1.94,1.4-4.31,1.32-6.52
										c2.05,2.09,1.34,5.91,1.98,8.45c1.03-2.11,0.96-4.95,0.75-7.26c-0.2-2.27-1.11-4.51-1.22-6.75
										c1.83,1.32,2.55,4.46,3.3,6.47c0.6,1.61,1.03,3.77,0.99,5.49c0.27-1.8,0.51-3.4,0.19-5.19c-0.28-1.56-1.36-3.69-1.26-5.22
										C117.16,67.24,118.44,69.74,118.74,72.3z"/>
								</g>
							</g>
						</g>
					</g>
				</g>
			</g>
		</g>
	</g>
</g>
</svg>
