<?xml version="1.0" encoding="utf-8"?>
<!-- Generator: Adobe Illustrator 27.2.0, SVG Export Plug-In . SVG Version: 6.00 Build 0)  -->
<svg version="1.1" id="Layer_1" xmlns="http://www.w3.org/2000/svg" xmlns:xlink="http://www.w3.org/1999/xlink" x="0px" y="0px"
	 viewBox="0 0 171.51 171.51" style="enable-background:new 0 0 171.51 171.51;" xml:space="preserve">
<style type="text/css">
	.st0{fill:#F7F2DA;}
	.st1{fill:#FBA479;}
	.st2{fill:#FFFFFF;}
	.st3{fill:#E1DFEA;}
	.st4{fill:#261411;}
	.st5{fill:#60312B;}
	.st6{fill:#EF7950;}
	.st7{fill:#60281F;}
	.st8{fill:#E8E6E6;}
	.st9{fill:#3A2827;}
	.st10{fill:#CCCCCC;}
	.st11{fill:#595857;}
	.st12{fill:#F28C5F;}
	.st13{fill:#E26939;}
	.st14{fill:#56413D;}
	.st15{fill:#44322E;}
	.st16{fill:#873421;}
	.st17{fill:#EA6CA0;}
	.st18{fill:#DB5290;}
	.st19{fill:#F48656;}
	.st20{fill:#82112F;}
	.st21{fill:#D85039;}
	.st22{fill:#574984;}
	.st23{fill:#291C51;}
	.st24{fill:#FC5135;}
	.st25{fill:#FFCC7B;}
	.st26{fill:#E8A749;}
	.st27{fill:#6D4A44;}
	.st28{fill:#D1E3E8;}
	.st29{fill:#FCFBFA;}
	.st30{fill:#4C4C4B;}
	.st31{fill:#686868;}
	.st32{fill:#FFB884;}
	.st33{fill:#EF9C62;}
	.st34{fill:#874410;}
	.st35{fill:#6D340D;}
	.st36{fill:#E89258;}
	.st37{fill:#3A2E26;}
	.st38{fill:#4C3F35;}
	.st39{opacity:0.1;}
	.st40{fill:#60120F;}
	.st41{fill:#F4F0ED;}
	.st42{fill:#E0312D;}
	.st43{fill:#F42F2F;}
	.st44{fill:#D31111;}
	.st45{fill:#DB9B19;}
	.st46{fill:#AF740B;}
	.st47{fill:#CC2121;}
	.st48{fill:#F74B4B;}
	.st49{fill:#FCF9E8;}
	.st50{opacity:0.5;fill:#827571;}
	.st51{fill:#665D5C;}
	.st52{fill:#4F4746;}
	.st53{fill:#5E3B2F;}
	.st54{fill:#492E27;}
	.st55{opacity:0.4;}
	.st56{fill:#443A36;}
	.st57{fill:#51415E;}
	.st58{fill:#066FB7;}
	.st59{fill:#066396;}
	.st60{fill:#0D8FD6;}
	.st61{fill:#FEAC74;}
	.st62{fill:#E3784C;}
	.st63{fill:#580801;}
	.st64{fill:#440502;}
	.st65{fill:#00ABB2;}
	.st66{fill:#008C8C;}
	.st67{fill:#914E34;}
	.st68{fill:#5B2E1D;}
	.st69{fill:#6A3221;}
	.st70{fill:#FAFAFC;}
	.st71{fill:#2B3B3F;}
	.st72{fill:#3F565B;}
	.st73{fill:#EF7348;}
	.st74{fill:#6F3D26;}
	.st75{fill:#BBBEBF;}
	.st76{fill:#D3D3D3;}
	.st77{fill:#939A9E;}
	.st78{fill:#F79C5E;}
	.st79{fill:#E07832;}
	.st80{fill:#604135;}
	.st81{fill:#EFEAE8;}
	.st82{fill:#4F3229;}
	.st83{fill:#1A3D3A;}
	.st84{fill:#E8E8E8;}
	.st85{fill:#0C83C4;}
	.st86{fill:#1B96EA;}
	.st87{fill:#B50F0F;}
	.st88{opacity:0.4;fill:#E89258;}
	.st89{fill:#26ACF7;}
	.st90{fill:#F45347;}
	.st91{fill:#FF3939;}
	.st92{fill:#686766;}
	.st93{fill:#5E5D5B;}
	.st94{fill:#424140;}
	.st95{fill:#E7E1CB;}
	.st96{fill:#D6CFBA;}
	.st97{fill:#CE5C37;}
	.st98{fill:#B74D30;}
	.st99{fill:#1B313D;}
	.st100{fill:#36474F;}
	.st101{fill:#29526D;}
	.st102{fill:#FCBD88;}
	.st103{fill:#FCA265;}
	.st104{fill:#496B7A;}
	.st105{fill:#B76049;}
	.st106{fill:#EDEDED;}
	.st107{fill:#7C7979;}
	.st108{fill:#EFE6E8;}
	.st109{fill:#B20D28;}
	.st110{fill:#346682;}
	.st111{fill:#AA0E28;}
	.st112{fill:#FF5050;}
	.st113{fill:#781A0E;}
	.st114{fill:#560904;}
	.st115{fill:#FF0B40;}
	.st116{fill:#BC0000;}
	.st117{fill:#FFD731;}
	.st118{fill:#EA6453;}
	.st119{fill:#602618;}
	.st120{fill:#A14F2A;}
	.st121{fill:#3A4E66;}
	.st122{fill:#EAE9EE;}
	.st123{opacity:0.3;fill:#3A4E66;}
	.st124{fill:#5E2701;}
	.st125{fill:#773000;}
	.st126{fill:#EA2F4A;}
	.st127{fill:#C41234;}
	.st128{fill:#F7F0F1;}
	.st129{fill:#F7A76F;}
	.st130{fill:#B24800;}
	.st131{fill:#8C3B03;}
	.st132{fill:#567391;}
	.st133{fill:#FF7271;}
	.st134{fill:#F75E5E;}
	.st135{fill:#700F28;}
	.st136{fill:#9E1533;}
	.st137{fill:#871231;}
	.st138{fill:#211B3A;}
	.st139{fill:#2E2951;}
	.st140{fill:#F28670;}
	.st141{fill:#F46060;}
	.st142{fill:#EBBF44;}
	.st143{fill:#E0A91E;}
	.st144{fill:#FFA992;}
	.st145{fill:#2C363F;}
	.st146{fill:#1D262D;}
	.st147{fill-rule:evenodd;clip-rule:evenodd;fill:#FFF5F5;}
	.st148{opacity:0.2;}
	.st149{fill:#7C4949;}
	.st150{fill:#F9AE7A;}
	.st151{fill:#FFF5F5;}
	.st152{fill:#C92727;}
	.st153{fill:#4C1B05;}
	.st154{fill:#592009;}
	.st155{opacity:0.4;fill:#592009;}
	.st156{fill:#3F1307;}
	.st157{fill:#664472;}
	.st158{fill:#473051;}
	.st159{fill:#352020;}
	.st160{opacity:0.3;fill:#7C4949;}
</style>
<g>
	<path class="st0" d="M151.68,127.41c-4.17,6.61-9.18,12.36-14.78,17.24c-0.35,0.3-0.71,0.61-1.06,0.9
		c-0.27,0.22-0.54,0.45-0.82,0.67c-0.27,0.22-0.53,0.43-0.8,0.64c-1.39,1.11-2.82,2.17-4.27,3.16c-0.23,0.16-0.47,0.32-0.71,0.47
		c-0.97,0.66-1.95,1.29-2.95,1.89c-0.68,0.41-1.36,0.82-2.05,1.21c-0.4,0.23-0.82,0.46-1.23,0.69c-0.3,0.17-0.61,0.33-0.94,0.49
		c-0.03,0.01-0.06,0.04-0.1,0.05c-1.49,0.78-3,1.52-4.55,2.2c-0.17,0.08-0.35,0.16-0.53,0.24c-0.06,0.03-0.14,0.06-0.2,0.09
		c-0.26,0.12-0.52,0.22-0.78,0.33c-0.61,0.25-1.21,0.5-1.83,0.74c-0.26,0.09-0.51,0.2-0.77,0.29c-0.04,0.02-0.09,0.04-0.13,0.05
		c-0.2,0.09-0.42,0.16-0.63,0.24c-0.14,0.05-0.27,0.1-0.42,0.15c-0.09,0.04-0.19,0.07-0.29,0.11c-0.08,0.03-0.17,0.06-0.25,0.09
		c-0.45,0.16-0.9,0.31-1.35,0.46c-0.63,0.2-1.26,0.4-1.88,0.59c-0.01,0-0.01,0.01-0.02,0.01c-0.08,0.03-0.15,0.04-0.23,0.07
		c-0.19,0.06-0.38,0.11-0.56,0.17c-0.51,0.14-1.02,0.29-1.54,0.43c-0.48,0.13-0.97,0.25-1.45,0.38c-0.1,0.02-0.2,0.05-0.3,0.07
		c-0.08,0.02-0.15,0.04-0.23,0.06c-0.45,0.11-0.92,0.22-1.37,0.32c-0.59,0.13-1.19,0.26-1.78,0.38c-0.01,0-0.03,0.01-0.04,0.01
		c-0.07,0.01-0.15,0.03-0.22,0.04c-2.72,0.53-5.46,0.91-8.22,1.14c-0.48,0.05-0.94,0.08-1.42,0.11c-0.47,0.04-0.94,0.07-1.41,0.08
		c-0.75,0.05-1.49,0.07-2.25,0.08c-0.16,0.01-0.32,0.01-0.47,0.01c-0.21,0.01-0.42,0.01-0.63,0.01c-0.17,0.01-0.33,0.01-0.51,0.01
		c-0.33,0-0.67-0.01-1-0.01c-1.86-0.02-3.71-0.12-5.56-0.27c-0.22-0.02-0.44-0.04-0.66-0.07c-2.39-0.22-4.77-0.55-7.15-1
		c-0.18-0.04-0.37-0.07-0.56-0.11c-0.17-0.03-0.33-0.06-0.5-0.09c-0.06-0.01-0.12-0.04-0.18-0.04c-0.28-0.06-0.56-0.12-0.85-0.18
		c-0.08-0.01-0.16-0.04-0.24-0.05c-0.33-0.07-0.66-0.14-0.99-0.22c-2.8-0.65-5.59-1.47-8.34-2.45c-0.2-0.07-0.4-0.14-0.6-0.22
		c-0.29-0.1-0.57-0.21-0.85-0.32c-0.86-0.33-1.72-0.66-2.57-1.03c-0.01-0.01-0.03-0.01-0.04-0.02c-0.06-0.02-0.12-0.04-0.17-0.07
		c-0.37-0.14-0.73-0.3-1.1-0.47c-0.1-0.04-0.19-0.09-0.29-0.14c-0.24-0.11-0.48-0.21-0.71-0.33c-0.22-0.09-0.43-0.19-0.64-0.29
		c-0.17-0.07-0.33-0.15-0.5-0.22c-0.35-0.17-0.69-0.34-1.03-0.51c-0.28-0.14-0.56-0.29-0.84-0.43c-0.05-0.02-0.11-0.05-0.16-0.08
		c-0.32-0.16-0.65-0.34-0.97-0.51c-0.03-0.01-0.07-0.03-0.09-0.05c-0.05-0.02-0.09-0.05-0.14-0.08c-0.34-0.17-0.67-0.35-1-0.53
		c-0.2-0.11-0.39-0.22-0.58-0.33c-0.45-0.25-0.9-0.51-1.35-0.78c-0.19-0.12-0.38-0.22-0.57-0.35c-0.01-0.01-0.02-0.01-0.03-0.02
		c-0.07-0.03-0.12-0.06-0.19-0.11c-0.27-0.17-0.55-0.33-0.82-0.5c-0.12-0.07-0.23-0.14-0.35-0.22c-0.12-0.07-0.24-0.15-0.35-0.22
		c-0.24-0.15-0.48-0.31-0.71-0.46c-0.04-0.03-0.09-0.07-0.14-0.09c-0.04-0.02-0.07-0.05-0.11-0.07c-0.04-0.03-0.08-0.05-0.12-0.08
		l-0.06-0.04c-0.01-0.01-0.02-0.01-0.03-0.01c-0.21-0.13-0.4-0.26-0.6-0.41c-0.25-0.15-0.49-0.32-0.73-0.49
		c-0.01-0.01-0.04-0.02-0.05-0.04c-0.03-0.01-0.06-0.04-0.09-0.06c-0.11-0.08-0.21-0.15-0.31-0.22c-0.1-0.07-0.2-0.14-0.3-0.2
		c-0.16-0.12-0.32-0.22-0.47-0.33c-0.02-0.01-0.04-0.03-0.05-0.04c-0.61-0.43-1.2-0.87-1.78-1.33c-0.38-0.29-0.76-0.58-1.13-0.87
		c-0.45-0.36-0.9-0.73-1.34-1.1c-0.06-0.06-0.14-0.12-0.21-0.17c-0.62-0.51-1.23-1.05-1.83-1.6c-0.48-0.42-0.95-0.85-1.41-1.29
		c-0.71-0.66-1.42-1.34-2.09-2.03c-0.49-0.49-0.97-1-1.44-1.5c-0.01-0.01-0.03-0.02-0.04-0.04c-0.72-0.77-1.42-1.55-2.09-2.34
		c-0.15-0.16-0.29-0.32-0.43-0.48c-1.17-1.39-2.3-2.82-3.37-4.28c-0.6-0.82-1.18-1.65-1.75-2.5c-0.1-0.14-0.19-0.29-0.3-0.43
		c-0.16-0.24-0.32-0.48-0.48-0.73c-0.01-0.03-0.02-0.04-0.04-0.07c-0.87-1.34-1.7-2.7-2.47-4.09c-0.09-0.15-0.19-0.32-0.27-0.5
		c-0.55-0.96-1.05-1.94-1.55-2.93c-0.32-0.66-0.64-1.3-0.95-1.96c-1.06-2.3-2.01-4.64-2.85-7.03c-0.38-1.1-0.75-2.21-1.08-3.34
		c-0.03-0.09-0.06-0.17-0.08-0.27c-0.07-0.23-0.14-0.45-0.21-0.69c-0.18-0.63-0.35-1.26-0.52-1.89C5.04,85.28,7.82,63.09,19.83,44.1
		C42.84,7.68,91.01-3.18,127.41,19.83C163.83,42.83,174.69,91,151.68,127.41z"/>
	<g>
		<g>
			<path class="st1" d="M117.43,157.02c-0.17,0.08-0.35,0.16-0.53,0.24c-0.06,0.03-0.14,0.06-0.2,0.09
				c-0.26,0.12-0.52,0.22-0.78,0.33c-0.61,0.25-1.21,0.5-1.83,0.74c-0.26,0.09-0.51,0.2-0.77,0.29c-0.04,0.02-0.09,0.04-0.13,0.05
				c-0.2,0.09-0.42,0.16-0.63,0.24c-0.14,0.05-0.27,0.1-0.42,0.15c-0.09,0.04-0.19,0.07-0.29,0.11c-0.08,0.03-0.17,0.06-0.25,0.09
				c-0.45,0.16-0.9,0.31-1.35,0.46c-0.63,0.2-1.26,0.4-1.88,0.59c-0.01,0-0.01,0.01-0.02,0.01c-0.08,0.03-0.15,0.04-0.23,0.07
				c-0.19,0.06-0.38,0.11-0.56,0.17c-0.51,0.14-1.02,0.29-1.54,0.43c-0.48,0.13-0.97,0.25-1.45,0.38c-0.1,0.02-0.2,0.05-0.3,0.07
				c-0.08,0.02-0.15,0.04-0.23,0.06c-0.45,0.11-0.92,0.22-1.37,0.32c-0.03-0.51-0.05-1.03-0.07-1.55c-0.09-2.15-0.17-4.33-0.22-6.52
				c-0.05-1.94-0.09-3.89-0.1-5.87l2.06-0.83l6.56-2.66l2.01-0.82l2.51-1.01c0.14,0.87,1.63,5.08,1.75,5.97
				C117.39,150.52,117.46,153.48,117.43,157.02z"/>
		</g>
		<g>
			<path class="st65" d="M124.25,153.59c-0.4,0.23-0.82,0.46-1.23,0.69c-0.3,0.17-0.61,0.33-0.94,0.49
				c-0.03,0.01-0.06,0.04-0.1,0.05c-1.49,0.78-3,1.52-4.55,2.2c-0.17,0.08-0.35,0.16-0.53,0.24c-0.06,0.03-0.14,0.06-0.2,0.09
				c-0.26,0.12-0.52,0.22-0.78,0.33c-0.61,0.25-1.21,0.5-1.83,0.74c-0.26,0.09-0.51,0.2-0.77,0.29c-0.04,0.02-0.09,0.04-0.13,0.05
				c-0.2,0.09-0.42,0.16-0.63,0.24c-0.14,0.05-0.27,0.1-0.42,0.15c-0.09,0.04-0.19,0.07-0.29,0.11c-0.08,0.03-0.17,0.06-0.25,0.09
				c-0.45,0.16-0.9,0.31-1.35,0.46c-0.63,0.2-1.26,0.4-1.88,0.59c-0.01,0-0.01,0.01-0.02,0.01c-0.08,0.03-0.15,0.04-0.23,0.07
				c-0.19,0.06-0.38,0.11-0.56,0.17c-0.51,0.14-1.02,0.29-1.54,0.43c-0.48,0.13-0.97,0.25-1.45,0.38c-0.1,0.02-0.2,0.05-0.3,0.07
				c-0.08,0.02-0.15,0.04-0.23,0.06c-0.45,0.11-0.92,0.22-1.37,0.32c-0.59,0.13-1.19,0.26-1.78,0.38c-0.01,0-0.03,0.01-0.04,0.01
				c-0.07,0.01-0.15,0.03-0.22,0.04c-0.11-0.42-0.22-0.86-0.34-1.32c-0.41-1.7-0.84-3.64-1.24-5.71c-1.34-6.87-2.43-15.23-2.3-21.55
				c0.06-2.79,0.35-5.18,0.97-6.87l7.02-4.78c0.81-0.2,1.7,0.06,2.64,0.68c0.59,0.4,1.21,0.94,1.83,1.61c0.3,0.31,0.58,0.64,0.88,1
				c0.66,0.79,1.33,1.7,1.99,2.69c0.45,0.66,0.9,1.37,1.34,2.11c2.27,3.73,4.53,8.32,6.53,12.81
				C121.62,146.78,123.11,150.5,124.25,153.59z"/>
			<path class="st66" d="M115.91,157.67c-0.61,0.25-1.21,0.5-1.83,0.74c-0.26,0.09-0.51,0.2-0.77,0.29
				c-0.04,0.02-0.09,0.04-0.13,0.05c-0.2,0.09-0.42,0.16-0.63,0.24c-0.14,0.05-0.27,0.1-0.42,0.15c-0.09,0.04-0.19,0.07-0.29,0.11
				c-0.08,0.03-0.17,0.06-0.25,0.09c-0.45,0.16-0.9,0.31-1.35,0.46c-0.63,0.2-1.26,0.4-1.88,0.59c-0.01,0-0.01,0.01-0.02,0.01
				c-0.08,0.03-0.15,0.04-0.23,0.07c-0.19,0.06-0.38,0.11-0.56,0.17c-0.51,0.14-1.02,0.29-1.54,0.43c-0.48,0.13-0.97,0.25-1.45,0.38
				c-0.1,0.02-0.2,0.05-0.3,0.07c-0.03-0.63-0.05-1.25-0.06-1.87c-0.06-2.2-0.08-4.4-0.05-6.61c0.03-1.97,0.09-3.94,0.17-5.91
				c0.07-1.81,0.17-3.62,0.29-5.44c0.4-6.38,1.7-12.64,2.75-18.91c0.59,0.4,1.21,0.94,1.83,1.61c0.3,0.31,0.58,0.64,0.88,1
				c0.04,0.3,0.07,0.61,0.12,0.93c0.17,1.32,0.36,2.7,0.56,4.09c0,0,0,0,0,0.01c0.76,5.1,1.67,10.28,2.07,12.81
				c0.02,0.14,0.04,0.29,0.07,0.43C113.67,148.42,114.68,153.07,115.91,157.67z"/>
		</g>
		<path class="st65" d="M68.03,161.72c-2.8-0.65-5.59-1.47-8.34-2.45c-0.2-0.07-0.4-0.14-0.6-0.22c-0.29-0.1-0.57-0.21-0.85-0.32
			c-0.86-0.33-1.72-0.66-2.57-1.03c-0.01-0.01-0.03-0.01-0.04-0.02c-0.06-0.02-0.12-0.04-0.17-0.07c-0.37-0.14-0.73-0.3-1.1-0.47
			c-0.1-0.04-0.19-0.09-0.29-0.14c-0.24-0.11-0.48-0.21-0.71-0.33c-0.22-0.09-0.43-0.19-0.64-0.29c-0.09-0.25-0.19-0.51-0.27-0.76
			c-0.21-0.58-0.42-1.16-0.62-1.73c-0.43-1.18-0.82-2.33-1.21-3.45c-0.17-0.51-0.34-1.01-0.51-1.51c-0.17-0.53-0.35-1.05-0.51-1.57
			c-0.3-0.95-0.59-1.86-0.84-2.76c-0.06-0.22-0.13-0.44-0.19-0.66c-1.08-3.77-1.72-7.03-1.72-9.6c0.01-0.12,0.03-0.22,0.04-0.34
			c0.51-5.13-1.85-7.86-0.1-11.47c0.22-0.44,0.48-0.89,0.83-1.36c2.44-3.33,17.9-4.33,23.16-4.78c0.58-0.04,1.03-0.09,1.34-0.12
			c0.13-0.01,0.25-0.03,0.38-0.05c7.75-0.96,10.69-0.48,17.74,0.02c0.31,0.02,0.63,0.04,0.95,0.06c0.5,0.04,1.03,0.07,1.57,0.1
			c8.47,0.51,11.58,1,16.3,7.73c0.05,0.08,0.11,0.15,0.15,0.22c0.45,0.66,0.77,1.24,1,1.93c0.33,0.98,0.48,2.17,0.56,4.09
			c0,0,0,0,0,0.01c0.1,2.72,0.04,6.92,0.13,14.06c0.01,0.71,0.01,1.44,0.03,2.22c0.04,1.95-0.06,4.31-0.21,6.89
			c-0.06,1.08-0.14,2.18-0.22,3.31c-0.07,0.96-0.14,1.94-0.22,2.92c-0.63,0.2-1.26,0.4-1.88,0.59c-0.01,0-0.01,0.01-0.02,0.01
			c-0.08,0.03-0.15,0.04-0.23,0.07c-0.19,0.06-0.38,0.11-0.56,0.17c-0.51,0.14-1.02,0.29-1.54,0.43c-0.48,0.13-0.97,0.25-1.45,0.38
			c-0.1,0.02-0.2,0.05-0.3,0.07c-0.08,0.02-0.15,0.04-0.23,0.06c-0.45,0.11-0.92,0.22-1.37,0.32c-0.59,0.13-1.19,0.26-1.78,0.38
			c-0.01,0-0.03,0.01-0.04,0.01c-0.07,0.01-0.15,0.03-0.22,0.04c-2.72,0.53-5.46,0.91-8.22,1.14c-0.48,0.05-0.94,0.08-1.42,0.11
			c-0.47,0.04-0.94,0.07-1.41,0.08c-0.75,0.05-1.49,0.07-2.25,0.08c-0.16,0.01-0.32,0.01-0.47,0.01c-0.21,0.01-0.42,0.01-0.63,0.01
			c-0.17,0.01-0.33,0.01-0.51,0.01c-0.33,0-0.67-0.01-1-0.01c-1.86-0.02-3.71-0.12-5.56-0.27c-0.22-0.02-0.44-0.04-0.66-0.07
			c-2.39-0.22-4.77-0.55-7.15-1c-0.18-0.04-0.37-0.07-0.56-0.11c-0.17-0.03-0.33-0.06-0.5-0.09c-0.06-0.01-0.12-0.04-0.18-0.04
			c-0.28-0.06-0.56-0.12-0.85-0.18c-0.08-0.01-0.16-0.04-0.24-0.05C68.69,161.87,68.36,161.8,68.03,161.72z"/>
		<g>
			<path class="st1" d="M51.41,139.14c-0.61,0.76-1.16,1.96-1.7,2.96c-0.28,0.53-0.67,1.16-1.15,1.86c-0.95,1.39-2.25,3.1-3.81,5
				c-0.53,0.66-1.1,1.34-1.7,2.04c-0.04-0.03-0.09-0.07-0.14-0.09c-0.04-0.02-0.07-0.05-0.11-0.07c-0.04-0.03-0.08-0.05-0.12-0.08
				l-0.06-0.04c-0.01-0.01-0.02-0.01-0.03-0.01c-0.21-0.13-0.4-0.26-0.6-0.41c-0.25-0.15-0.49-0.32-0.73-0.49
				c-0.01-0.01-0.04-0.02-0.05-0.04c-0.03-0.01-0.06-0.04-0.09-0.06c-0.11-0.08-0.21-0.15-0.31-0.22c-0.1-0.07-0.2-0.14-0.3-0.2
				c-0.16-0.12-0.32-0.22-0.47-0.33c-0.02-0.01-0.04-0.03-0.05-0.04c-0.61-0.43-1.2-0.87-1.78-1.33c-0.38-0.29-0.76-0.58-1.13-0.87
				c-0.45-0.36-0.9-0.73-1.34-1.1c-0.06-0.06-0.14-0.12-0.21-0.17c-0.62-0.51-1.23-1.05-1.83-1.6c-0.48-0.42-0.95-0.85-1.41-1.29
				c-0.71-0.66-1.42-1.34-2.09-2.03c4.95-5.33,9.2-9.92,11.06-12.81l5.61,6.33L51.41,139.14z"/>
		</g>
		<path class="st65" d="M57.79,135.57c-2.22,3.76-5.18,7.93-8.2,11.81c-1.39,1.79-2.79,3.52-4.14,5.13
			c-0.07-0.03-0.12-0.06-0.19-0.11c-0.27-0.17-0.55-0.33-0.82-0.5c-0.12-0.07-0.23-0.14-0.35-0.22c-0.12-0.07-0.24-0.15-0.35-0.22
			c-0.24-0.15-0.48-0.31-0.71-0.46c-0.04-0.03-0.09-0.07-0.14-0.09c-0.04-0.02-0.07-0.05-0.11-0.07c-0.04-0.03-0.08-0.05-0.12-0.08
			l-0.06-0.04c-0.01-0.01-0.02-0.01-0.03-0.01c-0.21-0.13-0.4-0.26-0.6-0.41c-0.25-0.15-0.49-0.32-0.73-0.49
			c-0.01-0.01-0.04-0.02-0.05-0.04c-0.03-0.01-0.06-0.04-0.09-0.06c-0.11-0.08-0.21-0.15-0.31-0.22c-0.1-0.07-0.2-0.14-0.3-0.2
			c-0.16-0.12-0.32-0.22-0.47-0.33c-0.02-0.01-0.04-0.03-0.05-0.04c-0.61-0.43-1.2-0.87-1.78-1.33c-0.38-0.29-0.76-0.58-1.13-0.87
			c-0.45-0.36-0.9-0.73-1.34-1.1c-0.06-0.06-0.14-0.12-0.21-0.17c-0.62-0.51-1.23-1.05-1.83-1.6c-0.48-0.42-0.95-0.85-1.41-1.29
			c-0.71-0.66-1.42-1.34-2.09-2.03c-0.49-0.49-0.97-1-1.44-1.5c-0.01-0.01-0.03-0.02-0.04-0.04c-0.72-0.77-1.42-1.55-2.09-2.34
			c5.67-4.83,13.71-10.79,20.14-14.07c2.49-1.26,4.74-2.14,6.51-2.38l7.53,3.93C62.49,125.94,60.86,130.37,57.79,135.57z"/>
		<path class="st66" d="M54.85,155.41c0.19,0.74,0.38,1.47,0.6,2.2c-0.37-0.14-0.73-0.3-1.1-0.47c-0.1-0.04-0.19-0.09-0.29-0.14
			c-0.24-0.11-0.48-0.21-0.71-0.33c-0.22-0.09-0.43-0.19-0.64-0.29c-0.09-0.25-0.19-0.51-0.27-0.76c-0.21-0.58-0.42-1.16-0.62-1.73
			c-0.43-1.18-0.82-2.33-1.21-3.45c-0.17-0.51-0.34-1.01-0.51-1.51c-0.17-0.53-0.35-1.05-0.51-1.57c-1.39,1.79-2.79,3.52-4.14,5.13
			c-0.07-0.03-0.12-0.06-0.19-0.11c-0.27-0.17-0.55-0.33-0.82-0.5c-0.12-0.07-0.23-0.14-0.35-0.22c-0.12-0.07-0.24-0.15-0.35-0.22
			c-0.24-0.15-0.48-0.31-0.71-0.46c-0.04-0.03-0.09-0.07-0.14-0.09c-0.04-0.02-0.07-0.05-0.11-0.07c0.12-0.11,0.24-0.22,0.35-0.32
			c0.54-0.51,1.08-1.02,1.6-1.55c1.39-1.39,2.71-2.86,4-4.34c0.73-0.84,1.45-1.67,2.17-2.5c2.29-2.63,4.22-5.07,5.19-8.51
			c0.38-1.34,1.02-3.55,1.08-5.41c0.32,1.88,0.69,3.74,0.69,5.72c0,0.56-0.03,1.11-0.08,1.65c-0.14,1.67-0.52,3.26-1.1,4.85
			c-0.77,2.15-2.07,4.23-2.66,6.36c-0.1,0.38-0.17,0.75-0.21,1.14c2.58-0.61,6.32-3.37,8.25-4.8C59.39,146.6,56.25,151,54.85,155.41
			z"/>
		<path class="st66" d="M110.7,153.56c-0.06,1.08-0.14,2.18-0.22,3.31c-0.07,0.96-0.14,1.94-0.22,2.92c-0.63,0.2-1.26,0.4-1.88,0.59
			c-0.01,0-0.01,0.01-0.02,0.01c-0.08,0.03-0.15,0.04-0.23,0.07c-0.19,0.06-0.38,0.11-0.56,0.17c-0.51,0.14-1.02,0.29-1.54,0.43
			c-0.48,0.13-0.97,0.25-1.45,0.38c0-1.04,0.04-1.79,0.14-2.19c-0.12,0.13-0.3,0.26-0.51,0.39c-0.4,0.24-0.95,0.47-1.61,0.7
			c-0.66,0.22-1.45,0.45-2.32,0.66c-6.99,1.7-19.35,2.73-19.34,1.65c3.69-1.27,11.45-4.48,18.1-7.37c1.16-0.51,2.27-1,3.34-1.47
			c0.62-0.27,1.21-0.54,1.78-0.79c3.62-1.63,6.19-2.87,6.33-3.13C110.39,151.01,110.48,152.26,110.7,153.56z"/>
		<g>
			<path class="st2" d="M94.35,128.19c-1.24,3.12-4.18,3.3-6.94,2.79c-4.23-0.8-8.28-4.24-10.91-6.97c-2.89-3.01-4.83-5.92-5.73-7.6
				c0.58-0.05,1.03-0.09,1.33-0.13c8.38-1.07,11.19-0.49,19.07,0.04c0.18,0.44,0.36,0.93,0.57,1.47
				C92.99,120.93,95.61,125,94.35,128.19z"/>
			<g>
				<g>
					<path class="st1" d="M87.37,129.49c-4.46-1.03-11.18-7.03-14.85-13.07c-0.4-0.65,1.07-9.2,2.56-17.33
						c1.3-7.11,2.62-13.9,2.73-14.82c0.01-0.04,0.01-0.07,0.01-0.09L79,85.04l10.13,7.44c0,0,0.06,2.13,0.15,5.12
						c0.21,6.8,0.62,18.09,1.02,19.02c0.01,0.03,0.03,0.06,0.04,0.08c0.75,1.72,1.59,3.43,2.18,5.07
						C94.68,127.82,91.65,130.47,87.37,129.49z"/>
					<path class="st6" d="M89.99,113.99c-2.49-0.6-14.8-9.3-13.38-23.14c1.3-7.11,1.09-5.67,1.2-6.59c0.01-0.03,0.01-0.06,0.01-0.09
						L79,85.04l4.78,7.44l5.5,5.12C89.49,104.41,89.98,113.96,89.99,113.99z"/>
				</g>
				<path class="st67" d="M78.19,81.35c-0.05,0.4-0.11,0.79-0.18,1.19c0.1-0.63,0.13-1.35,0.06-2.1
					C78.11,80.76,78.15,81.06,78.19,81.35z"/>
				<g>
					<path class="st68" d="M103.3,56.37l-6.69,2.61c4.36,3.59,8.18,9.76,9.08,15.43C106.25,68.43,106.45,61.72,103.3,56.37z"/>
					<path class="st1" d="M97.77,56.8c-0.13,0.2-3.53,0.19-4.47,0.28c-2.28,0.23-4.55,0.67-6.84,1.14
						c-4.45,0.91-9.35,1.9-11.87,6.03c-2.15,3.52-1.5,7.69-1.19,11.55c0.34,4.22,1.01,8.55,1.67,12.69
						c1.15,7.18,3.45,10.83,7.84,16.48c7.54,9.69,18.15,7.02,19.81,1.52c1.44-4.78,3.91-11.4,4.08-16.52
						C107.85,59.1,97.77,56.8,97.77,56.8z"/>
					<path class="st69" d="M86.79,70.89c-0.14-0.01-1.94,0.37-1.94,0.37l-0.59,1.52l-0.33-1.24c0,0-6.08,2.48-7.54,4.35
						c0,0,0.18,1.08,0.48,0.88c1.22-0.81,8.22-2.75,10.09-2.9C86.81,72.85,86.78,71.93,86.79,70.89z"/>
					<path class="st69" d="M95.18,65.74c0.12-0.01,1.57,0.46,1.57,0.46l0.44,1.54l0.3-1.22c0,0,4.89,2.74,6.03,4.67
						c0,0-0.17,1.07-0.41,0.86c-0.97-0.86-6.63-3.11-8.14-3.33C95.12,67.7,95.16,66.79,95.18,65.74z"/>
					<g>
						<path class="st6" d="M90.53,83.76c-1.86-1.37-2.85-3.88-5.41-4.06c-3.21-0.22-3.45,3.15-4.05,5.38c0.25-1-0.4-2.4-0.32-3.41
							c0.09-1.24,0.29-2.37,1.98-3.25C86.02,76.71,90.01,82.83,90.53,83.76z"/>
						<path class="st19" d="M90.34,83.84l-1.67-0.23c-2.51,0.26-4.75,0.59-7.08,1.34c0.61-1.71,1.29-3.94,4-3.99
							C87.93,80.92,88.8,82.87,90.34,83.84z"/>
						<path class="st19" d="M90.59,83.88l-0.07-0.01c0.02-0.02,0.03-0.03,0.05-0.05C90.58,83.85,90.59,83.87,90.59,83.88z"/>
						<path class="st19" d="M90.34,83.84l0.18,0.02c-0.02,0.02-0.03,0.04-0.05,0.06c-0.43,0.46-0.91,0.94-1.43,1.39
							c-0.71,0.62-1.51,1.18-2.36,1.51c-0.07,0.03-0.13,0.05-0.2,0.07c-0.06,0.02-0.12,0.04-0.18,0.06c-0.01,0-0.01,0-0.01,0
							c-1.73,0.52-4-0.93-4.87-1.56c-0.19-0.14-0.32-0.24-0.35-0.26c-0.01-0.01-0.01-0.01-0.01-0.01c0-0.01,0.01-0.03,0.01-0.04
							c0,0.01-0.01,0.03-0.01,0.04c0.18-0.06,0.35-0.12,0.53-0.18c0.61-1.71,1.29-3.94,4-3.99C87.93,80.92,88.8,82.87,90.34,83.84z"
							/>
						<path class="st19" d="M90.59,83.8c-0.01,0.01-0.01,0.01-0.02,0.02c-0.01-0.02-0.02-0.03-0.03-0.06
							C90.55,83.78,90.57,83.79,90.59,83.8z"/>
						<path class="st70" d="M90.48,83.93c-0.23,0.28-0.46,0.59-0.71,0.91c-0.22,0.19-0.46,0.38-0.7,0.57
							c-0.74,0.57-1.55,1.09-2.4,1.42c-0.07,0.03-0.13,0.05-0.2,0.07c-0.06,0.02-0.12,0.04-0.18,0.06c-0.01,0-0.01,0-0.01,0
							c-1.83,0.58-4.05-0.95-4.7-1.43c-0.06-0.05-0.12-0.09-0.18-0.13c0.06-0.15,0.11-0.3,0.17-0.45c0.61-1.71,1.29-3.94,4-3.99
							c2.34-0.04,3.21,1.9,4.75,2.88C90.39,83.87,90.43,83.9,90.48,83.93C90.48,83.93,90.48,83.93,90.48,83.93z"/>
						<g>
							<g>
								<path class="st71" d="M86.99,84.01c0.17,0.6,0.33,1.96,0.36,2.5c-0.77,0.83-1.84,0.92-2.78,0.76
									c-0.61-0.61-1.1-1.29-1.43-2.43c-0.62-2.1-0.25-3.98,0.81-4.22C85.01,80.4,86.37,81.91,86.99,84.01z"/>
								<path class="st72" d="M85.73,83.33c0.34,1.22,0.11,2.29-0.51,2.41c-0.62,0.11-1.4-0.78-1.73-1.99
									c-0.34-1.22-0.11-2.29,0.51-2.41C84.62,81.23,85.39,82.12,85.73,83.33z"/>
							</g>
							<path class="st70" d="M85.93,80.94l-1.38,1.65c0,0,2.02,0.59,2.22-0.01C86.9,82.21,85.93,80.94,85.93,80.94z"/>
						</g>
						<path class="st73" d="M90.59,83.8c-0.04,0.04-0.07,0.09-0.11,0.13c-0.23,0.28-0.46,0.59-0.71,0.91
							c-0.95,1.23-2.08,2.62-3.38,3.05c-2.11,0.69-5.14-2.55-5.33-2.75c0.04,0.03,0.16,0.13,0.35,0.26
							c0.05,0.04,0.12,0.08,0.18,0.13c0.98,0.67,3.08,1.91,4.7,1.43c0,0,0-0.01,0.01,0c0.06-0.02,0.12-0.04,0.18-0.06
							c0.06-0.02,0.13-0.05,0.2-0.07c0.85-0.33,1.65-0.89,2.36-1.51c0.52-0.45,1-0.94,1.43-1.39C90.51,83.88,90.55,83.84,90.59,83.8
							z"/>
						<path class="st73" d="M90.57,83.82c-0.02,0.02-0.03,0.03-0.05,0.05l-0.18-0.02c-1.54-0.98-2.41-2.92-4.75-2.88
							c-2.71,0.05-3.39,2.28-4,3.99c-0.18,0.06-0.35,0.11-0.53,0.18c0-0.01,0.01-0.03,0.01-0.04c0.61-2.23,0.84-5.6,4.05-5.38
							c2.56,0.18,3.54,2.68,5.41,4.06C90.55,83.79,90.56,83.8,90.57,83.82z"/>
					</g>
					<g>
						<path class="st6" d="M97.94,82.69c0.96-1.99,0.87-4.68,2.77-5.84c2.38-1.46,3.69,1.55,4.9,3.37c-0.53-0.82-0.5-2.37-0.9-3.27
							c-0.49-1.1-1.02-2.07-2.6-2.22C99.02,74.43,98.03,81.62,97.94,82.69z"/>
						<path class="st19" d="M98.12,82.69l1.2-0.86c2.01-0.74,3.83-1.31,5.86-1.53c-1.04-1.33-2.31-3.12-4.39-2.11
							C98.97,79.06,98.97,81.19,98.12,82.69z"/>
						<path class="st19" d="M97.94,82.82l0.05-0.04c-0.02-0.01-0.03-0.02-0.05-0.03C97.94,82.79,97.93,82.81,97.94,82.82z"/>
						<path class="st19" d="M98.12,82.69l-0.13,0.09c0.02,0.01,0.04,0.02,0.06,0.03c0.48,0.25,1.01,0.51,1.56,0.72
							c0.75,0.29,1.55,0.5,2.31,0.47c0.06,0,0.12,0,0.17-0.01c0.05,0,0.1-0.01,0.15-0.02c0,0,0.01,0,0.01,0
							c1.49-0.2,2.74-2.42,3.2-3.34c0.1-0.2,0.16-0.34,0.18-0.38c0-0.01,0-0.01,0-0.01c-0.01-0.01-0.02-0.02-0.02-0.04
							c0.01,0.01,0.01,0.02,0.02,0.04c-0.16,0.01-0.31,0.03-0.46,0.04c-1.04-1.33-2.31-3.12-4.39-2.11
							C98.97,79.06,98.97,81.19,98.12,82.69z"/>
						<path class="st19" d="M97.92,82.74c0.01,0,0.01,0.01,0.02,0.01c0-0.02,0-0.04,0-0.07C97.94,82.71,97.93,82.73,97.92,82.74z"/>
						<path class="st70" d="M98.04,82.82c0.27,0.17,0.55,0.36,0.84,0.56c0.24,0.09,0.48,0.17,0.72,0.25
							c0.75,0.24,1.55,0.4,2.31,0.37c0.06,0,0.12-0.01,0.17-0.01c0.05,0,0.1-0.01,0.15-0.01c0.01,0,0.01,0,0.01,0
							c1.59-0.18,2.77-2.46,3.11-3.15c0.03-0.07,0.06-0.13,0.09-0.19c-0.09-0.11-0.18-0.23-0.28-0.35
							c-1.04-1.33-2.31-3.12-4.39-2.11c-1.8,0.87-1.81,3.01-2.66,4.51c-0.02,0.04-0.05,0.08-0.07,0.12
							C98.04,82.82,98.04,82.82,98.04,82.82z"/>
						<g>
							<g>
								<path class="st71" d="M100.03,81.84c0.12,0.61,0.6,1.9,0.81,2.38c1.02,0.39,1.95-0.03,2.67-0.6
									c0.24-0.82,0.34-1.65,0.12-2.81c-0.42-2.15-1.56-3.65-2.56-3.37C100.08,77.72,99.61,79.69,100.03,81.84z"/>
								<path class="st72" d="M100.6,80.89c0.26,1.23,0.93,2.08,1.5,1.9c0.57-0.18,0.82-1.33,0.56-2.56
									c-0.26-1.23-0.93-2.09-1.5-1.9C100.59,78.51,100.34,79.66,100.6,80.89z"/>
							</g>
							<path class="st70" d="M99.55,78.63l1.89,0.83c0,0-1.43,1.45-1.86,1.01C99.3,80.2,99.55,78.63,99.55,78.63z"/>
						</g>
						<path class="st73" d="M97.92,82.74c0.04,0.03,0.08,0.05,0.12,0.08c0.27,0.17,0.55,0.36,0.84,0.56c1.14,0.76,2.47,1.6,3.6,1.49
							c1.84-0.18,3.07-4.35,3.15-4.61c-0.02,0.04-0.08,0.18-0.18,0.38c-0.03,0.06-0.06,0.12-0.09,0.19c-0.52,1-1.71,2.96-3.11,3.15
							c0,0-0.01,0-0.01,0c-0.05,0.01-0.1,0.01-0.15,0.02c-0.06,0-0.12,0.01-0.17,0.01c-0.76,0.03-1.56-0.18-2.31-0.47
							c-0.55-0.22-1.08-0.47-1.56-0.72C98,82.79,97.96,82.77,97.92,82.74z"/>
						<path class="st73" d="M97.94,82.76c0.02,0.01,0.03,0.02,0.05,0.03l0.13-0.09c0.85-1.5,0.86-3.63,2.66-4.51
							c2.09-1.01,3.35,0.78,4.39,2.11c0.15-0.02,0.31-0.03,0.46-0.04c-0.01-0.01-0.02-0.02-0.02-0.04c-1.21-1.82-2.52-4.83-4.9-3.37
							c-1.89,1.17-1.81,3.85-2.77,5.84C97.94,82.72,97.94,82.74,97.94,82.76z"/>
					</g>
					<g>
						<g>
							<path class="st6" d="M103.72,74.33c-0.95-1.65-4.46-2.34-6.05,0.42c-1.44,2.5-0.95,6.21-0.14,9.21
								c0.05,0.22,0.13,0.51,0.25,0.89c1.05,3.18,0.39,9.45-4.87,9.05c1.82,0.82,7.42,0.82,7.79-0.07c0.84-2.07-0.96-6.71-2.2-9.02
								C95.13,72.65,103.12,73.28,103.72,74.33z"/>
						</g>
					</g>
					<g>
						<g>
							<path class="st7" d="M101.32,99.59c-1.41,2-2.41,4.38-4.83,5.19c-2.31,0.78-4.48,0.05-6.4-1.37c-2-1.48-5.39-9.22-5.23-10.5
								c0,0,0.74,0.75,1.99,1.76c2.64,2.13,7.56,5.43,12.56,5.19C100.05,99.84,100.69,99.75,101.32,99.59z"/>
							<path class="st70" d="M99.41,99.87c-0.58,1.11-1.47,2.25-2.2,2.51c-0.55,0.19-1.21,0.21-1.94,0.08
								c-3.34-0.58-7.97-4.1-8.5-6.37c-0.08-0.35-0.01-0.94,0.09-1.41c0.34,0.27,0.71,0.56,1.11,0.86
								C90.75,97.59,95.05,100.07,99.41,99.87z"/>
							<path class="st8" d="M95.26,102.45c-3.34-0.58-7.97-4.1-8.5-6.37c-0.08-0.35-0.01-0.94,0.09-1.41
								c0.34,0.27,0.71,0.56,1.11,0.86c0.05,0.75,0.22,1.47,0.69,2.13c0.84,1.16,2.05,1.86,3.12,2.75
								C92.81,101.27,94,101.96,95.26,102.45z"/>
							<path class="st6" d="M101.24,99.23c-0.59,0.14-1.21,0.23-1.85,0.26c-0.09,0.01-0.2,0.01-0.3,0.01c-0.33,0.01-0.66,0-1-0.02
								c-2.2-0.16-4.35-0.97-6.24-1.94c-0.04-0.02-0.09-0.04-0.13-0.07c-0.53-0.28-1.04-0.58-1.52-0.87
								c-0.33-0.21-0.66-0.42-0.97-0.63c-0.43-0.29-0.83-0.58-1.19-0.85c-0.35-0.26-0.67-0.51-0.95-0.74
								c-1.21-0.97-1.95-1.72-1.96-1.73l-0.53-0.55l-0.1,0.77c-0.01,0.07-0.01,0.17,0,0.27c0.02,0.25,0.09,0.59,0.2,0.99
								c0.28,0.99,0.81,2.35,1.45,3.74c0.04,0.07,0.06,0.14,0.1,0.21c0.27,0.58,0.56,1.17,0.87,1.74c0.68,1.27,1.4,2.43,2.06,3.21
								c0.1,0.12,0.21,0.23,0.3,0.33c0.01,0.01,0.01,0.01,0.02,0.01c0.13,0.14,0.26,0.25,0.38,0.34c1.27,0.95,2.56,1.52,3.83,1.7
								c0.14,0.02,0.29,0.04,0.43,0.05c0.83,0.06,1.66-0.05,2.47-0.32c1.12-0.38,1.96-1.07,2.65-1.88c0.58-0.67,1.06-1.43,1.53-2.17
								c0.27-0.43,0.55-0.87,0.84-1.28l0.58-0.82L101.24,99.23z M100.16,100.69c-0.32,0.5-0.63,1-0.97,1.45
								c-0.74,1.03-1.59,1.88-2.82,2.3c-0.98,0.33-1.99,0.38-3,0.16c-1-0.22-2.02-0.71-3.05-1.47c-0.27-0.2-0.56-0.52-0.87-0.93
								c-0.01,0-0.01-0.01-0.01-0.01s0,0-0.01,0c0-0.01,0-0.01,0-0.01c-0.53-0.7-1.1-1.66-1.65-2.69c-0.16-0.31-0.32-0.62-0.48-0.94
								c-0.74-1.5-1.38-3.05-1.75-4.15c-0.04-0.12-0.08-0.24-0.12-0.35c-0.01-0.03-0.01-0.06-0.02-0.09c0.2,0.18,0.43,0.38,0.7,0.61
								c0.15,0.13,0.32,0.27,0.49,0.41c0.05,0.04,0.11,0.08,0.16,0.13c0.37,0.29,0.78,0.61,1.25,0.94c0.38,0.27,0.79,0.56,1.23,0.85
								c0.44,0.28,0.9,0.56,1.39,0.84c0.12,0.06,0.23,0.13,0.35,0.19c2.07,1.14,4.52,2.11,7.04,2.3c0.36,0.03,0.72,0.04,1.08,0.03
								h0.08c0.08-0.01,0.16-0.01,0.23-0.01c0.37-0.01,0.73-0.04,1.09-0.1C100.39,100.32,100.28,100.5,100.16,100.69z"/>
						</g>
						<path class="st6" d="M98.77,107.22c-3.36-2.29-8.49,1.4-8.49,1.4c0.27-0.33,5.87-0.87,7.46-0.15c0.24,0.11,0.39,0.34,0.62,0.4
							C98.46,108.36,99.17,107.5,98.77,107.22z"/>
					</g>
					<g>
						<path class="st74" d="M100.71,60.38c0,0-19.25-2.3-25.04,7.52c-3.1,5.27-2.01,13.36-0.33,18.75c0,0.02,0.01,0.06,0.02,0.09
							c0.1,0.3,0.19,0.59,0.29,0.87c0.39,1.13,0.8,2.12,1.18,2.87c-0.96-0.02-1.93-0.17-2.89-0.43c-5.57-1.53-10.98-6.8-14.32-11.08
							c-2.13-2.74-2.98-4.8-2.36-8.27c0.62-3.56,0.12-21.4,40.39-29.31l0.05-0.01c2.07,1.04,3.66,2.11,4.87,3.2
							C110.65,51.85,101.73,59.75,100.71,60.38z"/>
						<path class="st68" d="M100.71,60.38c0,0-19.25-2.3-25.04,7.52c-3.1,5.27-2.01,13.36-0.33,18.75c0,0.02,0.01,0.06,0.02,0.09
							c0.1,0.3,0.19,0.59,0.29,0.87c0.39,1.13,0.8,2.12,1.18,2.87c-0.96-0.02-1.93-0.17-2.89-0.43l-1.2-0.75
							c-0.53-2.68-1.12-4.88-2.9-6.97c-1.56-1.83-3.64-4.56-3.68-7.1c1.21-0.54,2.68,1.14,3.33-0.21c0.34-0.71-0.63-3.34-0.65-4.23
							c-0.02-1.86,0.18-3.9,0.73-5.68c0.46-1.48,0.92-4.01,2.21-5.01c1.44-1.12,1.22,0.61,2.84,0.36c1.29-0.2,3.22-1.62,4.54-2.16
							c4.09-1.67,8.83-1.97,13.07-3.26c3.46-1.06,7.36-3.42,7.95-7.28c0.42-2.69-0.84-4.71-2.52-6.38l0.05-0.01
							c2.07,1.04,3.66,2.11,4.87,3.2C110.65,51.85,101.73,59.75,100.71,60.38z"/>
					</g>
					<g>
						<path class="st1" d="M77.12,92.4l-1.97-4.56c-0.68-2.05-4.52-3.49-5.84-1.43c-1.46,2.29-0.15,5.22,1.12,7.24
							c0.78,1.25,2.84,4.05,4.67,3.74C76.77,97.11,77.64,93.72,77.12,92.4z"/>
						<path class="st73" d="M75.74,92.76c-0.7,1.63-4.33-1.26-1.02-2.3c-0.18-1.52-1.15-2.91-2.63-3.39
							c-1.45-0.48-3.23,0.96-2.08,2.44c0.26-2.91,3.45-2.08,3.98,0.27c-1.84,0.25-3.01,1.98-1.81,3.49c1.15,1.46,3.01,1.09,3.7-0.55
							L75.74,92.76z"/>
					</g>
				</g>
			</g>
		</g>
	</g>
</g>
</svg>
