<?xml version="1.0" encoding="utf-8"?>
<!-- Generator: Adobe Illustrator 27.2.0, SVG Export Plug-In . SVG Version: 6.00 Build 0)  -->
<svg version="1.1" id="Layer_1" xmlns="http://www.w3.org/2000/svg" xmlns:xlink="http://www.w3.org/1999/xlink" x="0px" y="0px"
	 viewBox="0 0 171.51 171.51" style="enable-background:new 0 0 171.51 171.51;" xml:space="preserve">
<style type="text/css">
	.st0{fill:#F7F2DA;}
	.st1{fill:#FBA479;}
	.st2{fill:#FFFFFF;}
	.st3{fill:#E1DFEA;}
	.st4{fill:#261411;}
	.st5{fill:#60312B;}
	.st6{fill:#EF7950;}
	.st7{fill:#60281F;}
	.st8{fill:#E8E6E6;}
	.st9{fill:#3A2827;}
	.st10{fill:#CCCCCC;}
	.st11{fill:#595857;}
	.st12{fill:#F28C5F;}
	.st13{fill:#E26939;}
	.st14{fill:#56413D;}
	.st15{fill:#44322E;}
	.st16{fill:#873421;}
	.st17{fill:#EA6CA0;}
	.st18{fill:#DB5290;}
	.st19{fill:#F48656;}
	.st20{fill:#82112F;}
	.st21{fill:#D85039;}
	.st22{fill:#574984;}
	.st23{fill:#291C51;}
	.st24{fill:#FC5135;}
	.st25{fill:#FFCC7B;}
	.st26{fill:#E8A749;}
	.st27{fill:#6D4A44;}
	.st28{fill:#D1E3E8;}
	.st29{fill:#FCFBFA;}
	.st30{fill:#4C4C4B;}
	.st31{fill:#686868;}
	.st32{fill:#FFB884;}
	.st33{fill:#EF9C62;}
	.st34{fill:#874410;}
	.st35{fill:#6D340D;}
	.st36{fill:#E89258;}
	.st37{fill:#3A2E26;}
	.st38{fill:#4C3F35;}
	.st39{opacity:0.1;}
	.st40{fill:#60120F;}
	.st41{fill:#F4F0ED;}
	.st42{fill:#E0312D;}
	.st43{fill:#F42F2F;}
	.st44{fill:#D31111;}
	.st45{fill:#DB9B19;}
	.st46{fill:#AF740B;}
	.st47{fill:#CC2121;}
	.st48{fill:#F74B4B;}
	.st49{fill:#FCF9E8;}
	.st50{opacity:0.5;fill:#827571;}
	.st51{fill:#665D5C;}
	.st52{fill:#4F4746;}
	.st53{fill:#5E3B2F;}
	.st54{fill:#492E27;}
	.st55{opacity:0.4;}
	.st56{fill:#443A36;}
	.st57{fill:#51415E;}
	.st58{fill:#066FB7;}
	.st59{fill:#066396;}
	.st60{fill:#0D8FD6;}
	.st61{fill:#FEAC74;}
	.st62{fill:#E3784C;}
	.st63{fill:#580801;}
	.st64{fill:#440502;}
	.st65{fill:#00ABB2;}
	.st66{fill:#008C8C;}
	.st67{fill:#914E34;}
	.st68{fill:#5B2E1D;}
	.st69{fill:#6A3221;}
	.st70{fill:#FAFAFC;}
	.st71{fill:#2B3B3F;}
	.st72{fill:#3F565B;}
	.st73{fill:#EF7348;}
	.st74{fill:#6F3D26;}
	.st75{fill:#BBBEBF;}
	.st76{fill:#D3D3D3;}
	.st77{fill:#939A9E;}
	.st78{fill:#F79C5E;}
	.st79{fill:#E07832;}
	.st80{fill:#604135;}
	.st81{fill:#EFEAE8;}
	.st82{fill:#4F3229;}
	.st83{fill:#1A3D3A;}
	.st84{fill:#E8E8E8;}
	.st85{fill:#0C83C4;}
	.st86{fill:#1B96EA;}
	.st87{fill:#B50F0F;}
	.st88{opacity:0.4;fill:#E89258;}
	.st89{fill:#26ACF7;}
	.st90{fill:#F45347;}
	.st91{fill:#FF3939;}
	.st92{fill:#686766;}
	.st93{fill:#5E5D5B;}
	.st94{fill:#424140;}
	.st95{fill:#E7E1CB;}
	.st96{fill:#D6CFBA;}
	.st97{fill:#CE5C37;}
	.st98{fill:#B74D30;}
	.st99{fill:#1B313D;}
	.st100{fill:#36474F;}
	.st101{fill:#29526D;}
	.st102{fill:#FCBD88;}
	.st103{fill:#FCA265;}
	.st104{fill:#496B7A;}
	.st105{fill:#B76049;}
	.st106{fill:#EDEDED;}
	.st107{fill:#7C7979;}
	.st108{fill:#EFE6E8;}
	.st109{fill:#B20D28;}
	.st110{fill:#346682;}
	.st111{fill:#AA0E28;}
	.st112{fill:#FF5050;}
	.st113{fill:#781A0E;}
	.st114{fill:#560904;}
	.st115{fill:#FF0B40;}
	.st116{fill:#BC0000;}
	.st117{fill:#FFD731;}
	.st118{fill:#EA6453;}
	.st119{fill:#602618;}
	.st120{fill:#A14F2A;}
	.st121{fill:#3A4E66;}
	.st122{fill:#EAE9EE;}
	.st123{opacity:0.3;fill:#3A4E66;}
	.st124{fill:#5E2701;}
	.st125{fill:#773000;}
	.st126{fill:#EA2F4A;}
	.st127{fill:#C41234;}
	.st128{fill:#F7F0F1;}
	.st129{fill:#F7A76F;}
	.st130{fill:#B24800;}
	.st131{fill:#8C3B03;}
	.st132{fill:#567391;}
	.st133{fill:#FF7271;}
	.st134{fill:#F75E5E;}
	.st135{fill:#700F28;}
	.st136{fill:#9E1533;}
	.st137{fill:#871231;}
	.st138{fill:#211B3A;}
	.st139{fill:#2E2951;}
	.st140{fill:#F28670;}
	.st141{fill:#F46060;}
	.st142{fill:#EBBF44;}
	.st143{fill:#E0A91E;}
	.st144{fill:#FFA992;}
	.st145{fill:#2C363F;}
	.st146{fill:#1D262D;}
	.st147{fill-rule:evenodd;clip-rule:evenodd;fill:#FFF5F5;}
	.st148{opacity:0.2;}
	.st149{fill:#7C4949;}
	.st150{fill:#F9AE7A;}
	.st151{fill:#FFF5F5;}
	.st152{fill:#C92727;}
	.st153{fill:#4C1B05;}
	.st154{fill:#592009;}
	.st155{opacity:0.4;fill:#592009;}
	.st156{fill:#3F1307;}
	.st157{fill:#664472;}
	.st158{fill:#473051;}
	.st159{fill:#352020;}
	.st160{opacity:0.3;fill:#7C4949;}
</style>
<g>
	<path class="st0" d="M151.68,127.41c-2.33,3.68-4.9,7.09-7.7,10.23c-0.04,0.05-0.09,0.09-0.13,0.14c-2.03,2.27-4.17,4.4-6.42,6.4
		c-0.17,0.15-0.35,0.31-0.53,0.46c-0.35,0.3-0.71,0.61-1.06,0.9c-0.27,0.22-0.54,0.45-0.82,0.67c-0.26,0.21-0.52,0.42-0.78,0.63
		c-0.01,0-0.01,0.01-0.02,0.01c-0.38,0.3-0.76,0.6-1.15,0.9c-0.49,0.38-0.99,0.75-1.49,1.12c-0.53,0.39-1.08,0.77-1.62,1.15
		c-0.23,0.16-0.47,0.32-0.71,0.47c-0.48,0.32-0.96,0.64-1.44,0.95c-0.36,0.23-0.72,0.45-1.09,0.69c-0.14,0.08-0.27,0.17-0.41,0.25
		c-0.23,0.14-0.47,0.28-0.7,0.41c-0.03,0.02-0.05,0.04-0.08,0.05c-0.4,0.25-0.82,0.49-1.23,0.72c-0.01,0.01-0.02,0.01-0.04,0.02
		c-0.4,0.23-0.82,0.46-1.23,0.69c-0.3,0.17-0.61,0.33-0.94,0.49c-0.03,0.01-0.07,0.04-0.1,0.05c-0.9,0.47-1.8,0.92-2.72,1.35
		c-0.38,0.19-0.76,0.36-1.14,0.53c0,0,0,0-0.01,0c-0.22,0.11-0.45,0.21-0.69,0.31c-0.17,0.08-0.35,0.16-0.53,0.24
		c-0.07,0.03-0.14,0.06-0.2,0.09c-0.08,0.04-0.16,0.07-0.24,0.1c-0.18,0.08-0.36,0.16-0.54,0.23c-0.4,0.16-0.79,0.32-1.18,0.48
		c-0.13,0.05-0.26,0.1-0.4,0.15c-0.08,0.04-0.17,0.07-0.25,0.1c-0.22,0.08-0.44,0.17-0.66,0.25c-0.04,0.01-0.07,0.03-0.11,0.04
		c-0.04,0.02-0.09,0.04-0.13,0.05c-0.2,0.09-0.42,0.16-0.63,0.24c-0.14,0.05-0.27,0.1-0.42,0.15c-0.05,0.02-0.09,0.04-0.14,0.06
		c-0.04,0.01-0.09,0.04-0.14,0.05c-0.08,0.03-0.17,0.06-0.25,0.09c-0.45,0.16-0.9,0.31-1.35,0.46c-0.2,0.06-0.41,0.13-0.61,0.2
		c-0.43,0.13-0.84,0.26-1.27,0.39c-0.01,0-0.01,0.01-0.02,0.01c-0.08,0.03-0.15,0.04-0.23,0.07c-0.14,0.04-0.27,0.08-0.41,0.12
		c-0.05,0.01-0.1,0.03-0.15,0.04c-0.3,0.09-0.59,0.17-0.89,0.25c-0.06,0.01-0.14,0.04-0.2,0.05c-0.14,0.04-0.3,0.08-0.45,0.12
		c-0.15,0.04-0.3,0.08-0.45,0.12c-0.17,0.04-0.33,0.09-0.5,0.13c-0.17,0.04-0.34,0.09-0.51,0.13c-0.1,0.02-0.2,0.05-0.3,0.07
		c-0.08,0.02-0.15,0.04-0.23,0.06c-0.46,0.11-0.92,0.22-1.37,0.32c-0.18,0.04-0.36,0.08-0.55,0.12c-0.41,0.09-0.82,0.18-1.23,0.26
		c-0.01,0-0.03,0.01-0.04,0.01c-0.07,0.01-0.15,0.03-0.22,0.04c-0.63,0.12-1.26,0.24-1.89,0.34c-0.99,0.17-1.99,0.32-2.98,0.44
		c-0.15,0.02-0.3,0.04-0.45,0.06c-0.25,0.04-0.51,0.07-0.76,0.09c-0.44,0.05-0.87,0.09-1.31,0.13c-0.27,0.03-0.55,0.06-0.82,0.08
		c-0.48,0.05-0.94,0.08-1.42,0.11c-0.47,0.04-0.94,0.06-1.41,0.08c-0.5,0.04-1,0.05-1.49,0.06c-0.25,0.01-0.51,0.01-0.76,0.02
		c-0.01,0-0.01,0-0.01,0c-0.15,0.01-0.31,0.01-0.45,0.01c-0.04,0-0.07,0.01-0.11,0.01c-0.17,0.01-0.35,0.01-0.52,0
		c-0.17,0.01-0.33,0.01-0.51,0.01c-0.2,0-0.4,0-0.61-0.01c-0.13,0-0.27-0.01-0.4-0.01c-0.25,0-0.51-0.01-0.77-0.01
		c-0.42-0.01-0.84-0.02-1.26-0.04c-1.07-0.04-2.14-0.1-3.2-0.19c-0.12-0.01-0.22-0.01-0.34-0.02c-0.04-0.01-0.08-0.01-0.12-0.01
		c-0.18-0.02-0.36-0.04-0.53-0.06c-0.3-0.03-0.6-0.06-0.9-0.09c-1.23-0.12-2.45-0.27-3.67-0.46c-0.28-0.04-0.56-0.09-0.84-0.13
		c-0.58-0.1-1.16-0.2-1.74-0.31c-0.18-0.04-0.37-0.07-0.56-0.11c-0.17-0.03-0.33-0.06-0.5-0.09c-0.06-0.01-0.12-0.04-0.18-0.04
		c-0.28-0.06-0.56-0.12-0.85-0.18c-0.08-0.01-0.16-0.04-0.24-0.05c-0.33-0.07-0.65-0.14-0.98-0.22h-0.01
		c-1.21-0.28-2.41-0.59-3.61-0.93c-0.12-0.04-0.24-0.07-0.35-0.1c-0.09-0.02-0.17-0.05-0.26-0.08c-0.57-0.17-1.14-0.34-1.71-0.52
		c-0.58-0.19-1.16-0.38-1.73-0.58c-0.22-0.08-0.45-0.16-0.68-0.24c-0.2-0.07-0.4-0.14-0.6-0.22c-0.29-0.1-0.57-0.21-0.85-0.32
		c-0.36-0.14-0.72-0.27-1.08-0.42c-0.24-0.09-0.47-0.19-0.7-0.28c-0.17-0.07-0.33-0.13-0.49-0.2c-0.1-0.04-0.19-0.08-0.3-0.12
		c-0.01-0.01-0.03-0.01-0.04-0.02c-0.06-0.02-0.12-0.04-0.17-0.07c-0.05-0.02-0.11-0.04-0.16-0.07c-0.07-0.03-0.13-0.05-0.19-0.08
		c-0.07-0.03-0.13-0.06-0.2-0.09c-0.18-0.07-0.36-0.15-0.54-0.24c-0.1-0.04-0.19-0.09-0.29-0.14c-0.24-0.11-0.48-0.21-0.71-0.33
		c-0.22-0.09-0.43-0.19-0.64-0.29c-0.17-0.07-0.33-0.15-0.5-0.22c-0.35-0.17-0.69-0.34-1.03-0.51c-0.28-0.14-0.56-0.29-0.84-0.43
		c-0.05-0.02-0.11-0.05-0.16-0.08c-0.32-0.16-0.65-0.34-0.97-0.51c-0.03-0.01-0.06-0.03-0.09-0.05c-0.05-0.02-0.09-0.05-0.14-0.08
		c-0.34-0.17-0.67-0.35-1-0.53c-0.16-0.09-0.31-0.17-0.47-0.27c-0.04-0.02-0.08-0.04-0.12-0.07c-0.2-0.12-0.4-0.23-0.61-0.35
		c-0.04-0.01-0.09-0.04-0.14-0.08c-0.2-0.11-0.4-0.22-0.61-0.35c-0.19-0.12-0.38-0.22-0.57-0.35c-0.01-0.01-0.02-0.01-0.03-0.02
		c-0.06-0.03-0.12-0.06-0.19-0.11c-0.09-0.06-0.19-0.12-0.28-0.17c-0.12-0.07-0.24-0.14-0.35-0.22c-0.07-0.04-0.12-0.07-0.18-0.11
		c-0.12-0.07-0.23-0.14-0.35-0.22s-0.24-0.15-0.35-0.22c-0.24-0.15-0.48-0.31-0.71-0.46c-0.04-0.03-0.09-0.07-0.14-0.09
		c-0.04-0.02-0.07-0.05-0.11-0.07c-0.04-0.03-0.08-0.05-0.12-0.08l-0.06-0.04c-0.01-0.01-0.02-0.01-0.03-0.01
		c-0.21-0.13-0.4-0.26-0.6-0.41c-0.25-0.15-0.49-0.32-0.73-0.49c-0.01-0.01-0.04-0.02-0.05-0.04c-0.03-0.01-0.06-0.04-0.09-0.06
		c-0.11-0.08-0.21-0.15-0.31-0.22c-0.1-0.07-0.2-0.14-0.3-0.2c-0.16-0.12-0.32-0.22-0.47-0.33c-0.02-0.01-0.04-0.03-0.05-0.04
		c-0.61-0.43-1.2-0.87-1.78-1.33c-0.38-0.29-0.76-0.58-1.13-0.87c-0.45-0.36-0.9-0.73-1.34-1.1c-0.06-0.06-0.14-0.12-0.21-0.17
		c-0.55-0.45-1.09-0.92-1.61-1.4c-0.07-0.06-0.14-0.13-0.22-0.19c-0.48-0.42-0.95-0.85-1.41-1.29c-0.14-0.12-0.27-0.25-0.4-0.38
		c-0.36-0.33-0.71-0.67-1.05-1.02c-0.22-0.2-0.43-0.41-0.64-0.63l-0.01-0.01c-0.43-0.43-0.84-0.87-1.26-1.31
		c-0.07-0.06-0.13-0.13-0.19-0.19c-0.01-0.01-0.03-0.02-0.04-0.04c-0.25-0.27-0.51-0.53-0.74-0.81c-0.46-0.51-0.91-1.01-1.34-1.53
		c-0.15-0.16-0.29-0.32-0.43-0.48c-1.17-1.39-2.3-2.82-3.37-4.28c-0.6-0.82-1.18-1.65-1.75-2.5c-0.1-0.14-0.19-0.29-0.3-0.43
		c-0.16-0.24-0.32-0.48-0.48-0.73c-0.01-0.03-0.02-0.04-0.04-0.06c-0.87-1.34-1.7-2.7-2.47-4.09c-0.09-0.15-0.19-0.32-0.27-0.5
		c-0.55-0.96-1.05-1.94-1.55-2.93c-0.33-0.66-0.64-1.3-0.95-1.96c-1.06-2.3-2.01-4.64-2.85-7.03c-0.38-1.1-0.75-2.21-1.08-3.34
		c-0.03-0.09-0.06-0.17-0.08-0.27c-0.07-0.23-0.14-0.45-0.21-0.69c-0.18-0.63-0.35-1.26-0.52-1.89C5.04,85.28,7.82,63.09,19.83,44.1
		C42.84,7.68,91.01-3.18,127.41,19.83C163.83,42.83,174.69,91,151.68,127.41z"/>
	<g>
		<g>
			<path class="st99" d="M112.13,159.14c-0.05,0.02-0.09,0.04-0.14,0.06c0.27-0.42,0.56-0.77,0.84-1.05c0.27-0.25,1-0.53,2.12-0.81
				c0.84-0.2,1.91-0.42,3.16-0.64c-0.22,0.11-0.45,0.21-0.69,0.31c-0.17,0.08-0.35,0.16-0.53,0.24c-0.07,0.03-0.14,0.06-0.2,0.09
				c-0.08,0.04-0.16,0.07-0.24,0.1c-0.18,0.08-0.36,0.16-0.54,0.23c-0.4,0.16-0.79,0.32-1.18,0.48c-0.13,0.05-0.26,0.1-0.4,0.15
				c-0.08,0.04-0.17,0.07-0.25,0.1c-0.22,0.08-0.44,0.17-0.66,0.25c-0.04,0.01-0.07,0.03-0.11,0.04c-0.04,0.02-0.09,0.04-0.13,0.05
				c-0.2,0.09-0.42,0.16-0.63,0.24C112.42,159.04,112.28,159.09,112.13,159.14z"/>
			<path class="st100" d="M126,148.75c1.75,0.01,3.62,0.06,5.58,0.12c-0.53,0.39-1.08,0.77-1.62,1.15
				c-0.23,0.16-0.47,0.32-0.71,0.47c-0.48,0.32-0.96,0.64-1.44,0.95c-0.36,0.23-0.72,0.45-1.09,0.69c-0.35-0.01-0.71-0.01-1.05-0.02
				c-3.26-0.07-6.39-0.01-9.26,0.17c-1.29,0.09-2.53,0.2-3.72,0.35c0.36-0.63,0.17-2.47,0.56-2.85c0.4-0.38,1.87-0.66,4.12-0.82
				C119.56,148.78,122.53,148.72,126,148.75z"/>
		</g>
		<g>
			<path class="st101" d="M60.37,159.51c-0.22-0.08-0.45-0.16-0.68-0.24c-0.2-0.07-0.4-0.14-0.6-0.22c-0.29-0.1-0.57-0.21-0.85-0.32
				c-0.36-0.14-0.72-0.27-1.08-0.42c-0.24-0.09-0.47-0.19-0.7-0.28c-0.17-0.07-0.33-0.13-0.49-0.2c-0.1-0.04-0.19-0.08-0.3-0.12
				c-0.01-0.01-0.03-0.01-0.04-0.02c-0.06-0.02-0.12-0.04-0.17-0.07c-0.05-0.02-0.11-0.04-0.16-0.07c-0.07-0.03-0.13-0.05-0.19-0.08
				c-0.07-0.03-0.13-0.06-0.2-0.09c-0.18-0.07-0.36-0.15-0.54-0.24c-0.1-0.04-0.19-0.09-0.29-0.14c-0.24-0.11-0.48-0.21-0.71-0.33
				c-0.22-0.09-0.43-0.19-0.64-0.29c-0.17-0.07-0.33-0.15-0.5-0.22c-0.35-0.17-0.69-0.34-1.03-0.51c-0.28-0.14-0.56-0.29-0.84-0.43
				c-0.05-0.02-0.11-0.05-0.16-0.08c-0.32-0.16-0.65-0.34-0.97-0.51c-0.03-0.01-0.06-0.03-0.09-0.05c-0.05-0.02-0.09-0.05-0.14-0.08
				c-0.34-0.17-0.67-0.35-1-0.53c-0.16-0.09-0.31-0.17-0.47-0.27c-0.04-0.02-0.08-0.04-0.12-0.07c-0.2-0.12-0.4-0.23-0.61-0.35
				c-0.04-0.01-0.09-0.04-0.14-0.08c-0.2-0.11-0.4-0.22-0.61-0.35c-0.19-0.12-0.38-0.22-0.57-0.35c-0.01-0.01-0.02-0.01-0.03-0.02
				c-0.06-0.03-0.12-0.06-0.19-0.11c-0.09-0.06-0.19-0.12-0.28-0.17c-0.12-0.07-0.24-0.14-0.35-0.22c-0.07-0.04-0.12-0.07-0.18-0.11
				c-0.12-0.07-0.23-0.14-0.35-0.22s-0.24-0.15-0.35-0.22c-0.24-0.15-0.48-0.31-0.71-0.46c-0.04-0.03-0.09-0.07-0.14-0.09
				c-0.04-0.02-0.07-0.05-0.11-0.07c-0.04-0.03-0.08-0.05-0.12-0.08l-0.06-0.04c-0.01-0.01-0.02-0.01-0.03-0.01
				c-0.21-0.13-0.4-0.26-0.6-0.41c-0.25-0.15-0.49-0.32-0.73-0.49c-0.01-0.01-0.04-0.02-0.05-0.04c-0.03-0.01-0.06-0.04-0.09-0.06
				c-0.11-0.08-0.21-0.15-0.31-0.22c-0.1-0.07-0.2-0.14-0.3-0.2c-0.16-0.12-0.32-0.22-0.47-0.33c-0.02-0.01-0.04-0.03-0.05-0.04
				c-0.61-0.43-1.2-0.87-1.78-1.33c-0.38-0.29-0.76-0.58-1.13-0.87c-0.45-0.36-0.9-0.73-1.34-1.1c-0.06-0.06-0.14-0.12-0.21-0.17
				c-0.55-0.45-1.09-0.92-1.61-1.4c2.33-5.99,4.82-10.3,7.26-10.68c6.55-1.02,11.65,4.07,14.64,9.38c0.48,0.86,0.91,1.73,1.27,2.57
				c0.5,1.15,0.9,2.25,1.17,3.27C59.24,152.16,60.01,155.94,60.37,159.51z"/>
			<g>
				<path class="st102" d="M71.71,119.79l18.32-5.68c5.2-1.75,11.31,3.39,11.62,8.37c0.62,9.73-18.45,16-18.45,16
					S66.99,126.26,71.71,119.79z"/>
				<g>
					<path class="st102" d="M71.85,91.84l-0.03,5.87l-0.11,22.46l-0.02,4.48l28.49-6.23c0,0-0.3-5.81-0.97-13.92
						c-0.36-4.39-0.84-9.45-1.43-14.62c-0.31-2.75-0.66-5.52-1.04-8.25C95.8,74.96,71.85,91.84,71.85,91.84z"/>
					<path class="st103" d="M71.82,97.71l-0.11,22.46c12.55,3.15,23.04-8.89,27.49-15.68c-0.36-4.39-0.84-9.45-1.43-14.62
						l-17.37,5.59L71.82,97.71z"/>
				</g>
			</g>
			<g>
				<g>
					<path class="st102" d="M66.34,74.23c-1.1-2-5.19-2.51-6.83-0.95c-1.83,1.73,1.02,11.3,3.14,11.38
						C67.55,84.83,66.34,74.23,66.34,74.23z"/>
					<path class="st103" d="M65.67,79.21c0.1-0.71,0.2-1.5,0.2-2.21c0-0.38-0.08-0.8-0.13-1.17c-0.02-0.2-0.07-0.46-0.14-0.6
						c-0.59-1.32-2.1-1.41-3.16-1.56c-0.44-0.06-1.19-0.16-1.59,0.05c-0.31,0.16-0.48,0.63-0.67,0.91c0.89-0.84,2.77-0.31,3.67,0.33
						c0.94,0.67,1.2,2.46,0.81,3.52c-0.9-0.13-1.75,0.85-1.68,1.7c0.07,0.85,1.72,1.39,2.01,0.58
						C63.58,80.41,64.82,79.3,65.67,79.21z"/>
				</g>
				<path class="st4" d="M72.09,50.76c-0.66-0.38-2.96-2.86-3.53-2.09c-3.26,4.42-3.09,26.1-3.34,30.92
					c2.29-6.68,8.18-21.18,10.3-27.84L72.09,50.76z"/>
				<path class="st102" d="M102.78,93.44c-0.33-11.92-0.28-25.59-0.6-37.05c0,0-10.11-7.27-11.73-7.86
					c-1.02-0.37-2.07-0.65-3.15-0.82c-1.09-0.01-2.17,0.08-3.24,0.28c-1.7,0.32-12.88,5.78-12.88,5.78
					c-2.24,11.25-5.43,23.32-8.23,34.9c-1.93,8-0.28,10.99,2.22,15.49c3.1,5.57,5.51,10.62,11.85,11.33
					c8.82,0.55,18.19-6.79,22.08-10.9C102.57,100.9,102.91,98.29,102.78,93.44z"/>
				<path class="st4" d="M88.29,68.95c0.5-0.05,1.44-0.09,1.44-0.09l0.84,1.29c0,0,0.41-1.22,0.67-1.22
					c6.95,0.15,7.69,3.92,7.69,3.92c-1.76-0.59-7.15-1.06-11.35-0.68C87.69,70.75,87.81,70.41,88.29,68.95z"/>
				<g>
					<g>
						<g>
							<g>
								<g>
									<path class="st103" d="M76.77,87.81c-0.76-0.16-1.5,0.08-1.74,0.89c-0.4,1.41,1.91,2.25,2.94,2.79
										c1.94,1.03,4.87,1.22,6.79,0.12C79.29,91.62,76.77,87.81,76.77,87.81z"/>
								</g>
							</g>
						</g>
						<path class="st103" d="M75.38,69.89c0,0,4.39,11.15,1.11,18.88C78.69,86.42,81.36,78.96,75.38,69.89z"/>
					</g>
					<g>
						<g>
							<path class="st2" d="M77.1,78.83c0,0-0.03-0.02-0.1-0.07c-0.06-0.05-0.18-0.09-0.3-0.15c-0.13-0.05-0.29-0.12-0.48-0.18
								c-0.19-0.06-0.41-0.13-0.64-0.19c-0.24-0.07-0.5-0.12-0.77-0.19c-0.28-0.06-0.57-0.12-0.87-0.18
								c-0.3-0.06-0.61-0.1-0.93-0.15c-0.32-0.05-0.64-0.08-0.96-0.12c-0.32-0.02-0.65-0.07-0.97-0.07
								c-0.32-0.01-0.64-0.05-0.94-0.04c-0.3,0-0.6-0.01-0.88,0c-0.28,0.01-0.55,0-0.79,0.02c-0.24,0.02-0.47,0.03-0.67,0.04
								c-0.2,0.02-0.38,0.04-0.52,0.05c-0.15,0.01-0.27,0.02-0.35,0.02c0-0.01-0.01-0.02-0.01-0.03c-0.03-0.05-0.06-0.1-0.08-0.15
								c0,0,0-0.01-0.01-0.01c0-0.01,0.01-0.01,0.01-0.02c0.78-2.5,3.18-4.18,6.09-3.95C75.56,73.67,76.62,75.74,77.1,78.83z"/>
							<g>
								<g>
									<path class="st104" d="M74.66,75.6c0,0.07,0,0.13,0,0.19c-0.02,0.56-0.14,1.09-0.34,1.55c-0.08,0.2-0.18,0.38-0.28,0.55
										c-0.03,0-0.06-0.01-0.09-0.02c-0.3-0.06-0.61-0.1-0.93-0.15c-0.32-0.05-0.64-0.08-0.96-0.12
										c-0.32-0.02-0.65-0.07-0.97-0.07c-0.28-0.01-0.56-0.04-0.83-0.04c-0.08-0.19-0.15-0.39-0.2-0.6
										c-0.11-0.41-0.15-0.85-0.13-1.31c0.08-1.86,1.21-3.32,2.51-3.25c0.96,0.04,1.75,0.89,2.08,2.07
										C74.61,74.77,74.66,75.18,74.66,75.6z"/>
									<path class="st4" d="M70.99,75.63c-0.04,1.02,0.5,1.87,1.22,1.9c0.72,0.03,1.34-0.77,1.38-1.79
										c0.04-1.02-0.5-1.87-1.22-1.9C71.65,73.81,71.03,74.61,70.99,75.63z"/>
								</g>
								<path class="st2" d="M72.9,74.98l2.09-0.76c0,0,0.47,1.09,0.21,1.31C74.76,75.9,72.9,74.98,72.9,74.98z"/>
							</g>
							<path class="st27" d="M77.1,78.83c-0.89-2.49-1.81-5.08-4.19-5.27c-2.88-0.23-5.25,1.41-6.06,3.87l-0.02,0
								c0.02-0.14,0.05-0.28,0.08-0.42c0.85-2.39,3.19-3.98,6.02-3.75c2.38,0.18,2.99,2.07,3.88,4.55L77.1,78.83z"/>
							<path class="st103" d="M72.5,71.03c-2.47-0.21-4.53,1.58-5.44,5.31c0,0,0,0.01-0.01,0.01c-0.08,0.33-0.15,0.66-0.2,0.99
								c-0.01,0.02-0.01,0.05-0.01,0.08c0.78-2.5,3.17-4.3,6.08-4.07c2.64,0.21,3.11,2.6,4.19,5.49l0.06-0.01
								C77.1,74.2,75.18,71.26,72.5,71.03z"/>
							<path class="st103" d="M77.1,78.83c0,0-0.03-0.02-0.1-0.07c-0.06-0.05-0.18-0.09-0.3-0.15c-0.13-0.05-0.29-0.12-0.48-0.18
								c-0.19-0.06-0.41-0.13-0.64-0.19c-0.24-0.07-0.5-0.12-0.77-0.19c-0.25-0.05-0.51-0.11-0.78-0.16c-0.03,0-0.06-0.01-0.09-0.02
								c-0.3-0.06-0.61-0.1-0.93-0.15c-0.32-0.05-0.64-0.08-0.96-0.12c-0.32-0.02-0.65-0.07-0.97-0.07
								c-0.28-0.01-0.56-0.04-0.83-0.04c-0.03,0-0.07,0-0.11,0c-0.3,0-0.6-0.01-0.88,0c-0.28,0.01-0.55,0-0.79,0.02
								c-0.24,0.02-0.47,0.03-0.67,0.04c-0.2,0.02-0.38,0.04-0.52,0.05c-0.15,0.01-0.27,0.02-0.35,0.02
								c-0.08,0.01-0.11,0.01-0.11,0.01s0.03-0.02,0.1-0.04c0.07-0.03,0.19-0.07,0.33-0.13c0.14-0.05,0.31-0.11,0.5-0.17
								c0.2-0.05,0.42-0.11,0.67-0.17c0.25-0.07,0.52-0.1,0.8-0.15c0.26-0.04,0.54-0.07,0.83-0.09c0.03,0,0.06,0,0.08,0
								c0.32-0.03,0.65-0.03,0.98-0.02c0.05,0,0.1,0,0.15,0c0.28,0.01,0.57,0.04,0.86,0.05c0.33,0.05,0.67,0.09,1,0.15l0,0
								c0.33,0.06,0.65,0.13,0.96,0.22c0.08,0.02,0.16,0.04,0.24,0.06c0.22,0.07,0.43,0.15,0.64,0.21c0.27,0.1,0.53,0.2,0.76,0.32
								c0.23,0.1,0.44,0.21,0.61,0.32c0.18,0.1,0.33,0.21,0.45,0.3c0.12,0.1,0.21,0.17,0.25,0.24C77.08,78.8,77.1,78.83,77.1,78.83z
								"/>
						</g>
					</g>
					<g>
						<g>
							<path class="st2" d="M86.63,80.29c0,0,0.04-0.01,0.11-0.04c0.07-0.04,0.19-0.04,0.33-0.07c0.14-0.02,0.31-0.04,0.51-0.05
								c0.2-0.01,0.43-0.02,0.67-0.02c0.25-0.01,0.51,0.01,0.79,0.01c0.29,0.02,0.58,0.03,0.88,0.06c0.3,0.02,0.62,0.07,0.94,0.1
								c0.32,0.03,0.64,0.09,0.96,0.14c0.32,0.06,0.64,0.1,0.95,0.18c0.31,0.07,0.63,0.12,0.92,0.21c0.29,0.08,0.58,0.14,0.85,0.23
								c0.27,0.09,0.53,0.15,0.76,0.23c0.23,0.08,0.45,0.15,0.64,0.21c0.19,0.07,0.36,0.13,0.49,0.18c0.14,0.05,0.25,0.09,0.33,0.11
								c0.01-0.01,0.01-0.02,0.02-0.03c0.04-0.04,0.08-0.08,0.11-0.13c0,0,0.01-0.01,0.01-0.01c0-0.01,0-0.02,0-0.02
								c-0.1-2.62-1.99-4.86-4.86-5.39C89.46,75.7,87.9,77.43,86.63,80.29z"/>
							<g>
								<g>
									<path class="st104" d="M89.83,77.81c-0.02,0.06-0.03,0.12-0.05,0.19c-0.12,0.55-0.15,1.09-0.08,1.58
										c0.03,0.21,0.07,0.41,0.13,0.6c0.03,0,0.06,0.01,0.09,0.01c0.3,0.02,0.62,0.07,0.94,0.1c0.32,0.03,0.64,0.09,0.96,0.14
										c0.32,0.06,0.64,0.1,0.95,0.18c0.28,0.07,0.55,0.11,0.81,0.18c0.13-0.16,0.25-0.34,0.35-0.53
										c0.21-0.37,0.37-0.78,0.47-1.23c0.41-1.82-0.3-3.52-1.58-3.8c-0.94-0.21-1.93,0.41-2.54,1.46
										C90.1,77.02,89.94,77.39,89.83,77.81z"/>
									<path class="st4" d="M93.37,78.78c-0.22,1-0.97,1.68-1.67,1.52c-0.7-0.16-1.09-1.09-0.87-2.08
										c0.22-0.99,0.97-1.67,1.67-1.52C93.21,76.86,93.6,77.79,93.37,78.78z"/>
								</g>
								<path class="st2" d="M91.7,77.66l-1.82-1.27c0,0-0.74,0.93-0.54,1.21C89.66,78.07,91.7,77.66,91.7,77.66z"/>
							</g>
							<path class="st27" d="M86.63,80.29c1.5-2.17,3.07-4.44,5.42-4c2.84,0.53,4.71,2.73,4.85,5.31l0.02,0
								c0.01-0.14,0.02-0.28,0.03-0.43c-0.2-2.53-2.05-4.67-4.84-5.18c-2.35-0.44-3.42,1.22-4.93,3.39L86.63,80.29z"/>
							<path class="st103" d="M96.99,80.49c0.09-3.83-1.44-6.1-3.88-6.54c-2.65-0.48-5.26,1.86-6.53,6.32l0.06,0.02
								c1.79-2.5,2.87-4.7,5.47-4.21c2.87,0.53,4.71,2.89,4.82,5.5c0-0.03,0.01-0.05,0.01-0.08c0.03-0.33,0.05-0.66,0.06-1
								C96.99,80.5,96.99,80.49,96.99,80.49z"/>
							<path class="st103" d="M86.63,80.29c0,0,0.04-0.01,0.11-0.04c0.07-0.04,0.19-0.04,0.33-0.07c0.14-0.02,0.31-0.04,0.51-0.05
								c0.2-0.01,0.43-0.02,0.67-0.02c0.25-0.01,0.51,0.01,0.79,0.01c0.26,0.02,0.52,0.03,0.79,0.05c0.03,0,0.06,0.01,0.09,0.01
								c0.3,0.02,0.62,0.07,0.94,0.1c0.32,0.03,0.64,0.09,0.96,0.14c0.32,0.06,0.64,0.1,0.95,0.18c0.28,0.07,0.55,0.11,0.81,0.18
								c0.03,0.01,0.07,0.02,0.1,0.03c0.29,0.08,0.58,0.14,0.85,0.23c0.27,0.09,0.53,0.15,0.76,0.23c0.23,0.08,0.45,0.15,0.64,0.21
								c0.19,0.07,0.36,0.13,0.49,0.18c0.14,0.05,0.25,0.09,0.33,0.11c0.07,0.03,0.11,0.04,0.11,0.04s-0.03-0.02-0.09-0.07
								c-0.06-0.04-0.16-0.12-0.29-0.21c-0.12-0.08-0.27-0.19-0.44-0.3c-0.18-0.1-0.38-0.22-0.6-0.34
								c-0.22-0.13-0.47-0.23-0.74-0.35c-0.24-0.11-0.5-0.21-0.78-0.3c-0.03-0.01-0.05-0.02-0.08-0.03c-0.3-0.11-0.62-0.2-0.94-0.28
								c-0.05-0.01-0.1-0.03-0.15-0.04c-0.28-0.07-0.56-0.11-0.84-0.17c-0.33-0.04-0.67-0.09-1-0.12l0,0
								c-0.33-0.03-0.66-0.04-0.98-0.04c-0.09,0-0.17,0-0.25,0c-0.23,0.01-0.46,0.03-0.67,0.04c-0.29,0.03-0.56,0.06-0.81,0.11
								c-0.25,0.04-0.48,0.09-0.68,0.15c-0.2,0.05-0.37,0.12-0.51,0.17c-0.14,0.07-0.25,0.11-0.31,0.17
								C86.67,80.27,86.63,80.29,86.63,80.29z"/>
						</g>
					</g>
					<g>
						<path class="st103" d="M86.39,107.9c0,0-0.02-0.03-0.06-0.09c-0.04-0.05-0.09-0.14-0.18-0.23c-0.17-0.2-0.42-0.45-0.78-0.72
							c-0.35-0.26-0.8-0.51-1.31-0.71c-0.51-0.2-1.09-0.34-1.68-0.4c-0.29-0.02-0.59-0.04-0.88-0.02c-0.29,0.01-0.58,0.05-0.85,0.11
							c-0.55,0.11-1.05,0.31-1.43,0.57c-0.19,0.12-0.35,0.27-0.48,0.41c-0.13,0.14-0.22,0.27-0.28,0.39
							c-0.06,0.12-0.1,0.21-0.12,0.28c-0.02,0.07-0.03,0.1-0.03,0.1s0.03-0.02,0.08-0.06c0.05-0.05,0.13-0.1,0.23-0.16
							c0.1-0.06,0.23-0.13,0.37-0.19c0.15-0.06,0.31-0.12,0.5-0.16c0.74-0.19,1.76-0.23,2.78-0.13c0.25,0.03,0.51,0.06,0.76,0.1
							c0.25,0.04,0.5,0.09,0.74,0.13c0.24,0.05,0.47,0.1,0.69,0.16c0.22,0.06,0.43,0.12,0.62,0.18c0.19,0.06,0.37,0.11,0.53,0.17
							c0.16,0.06,0.3,0.11,0.41,0.15C86.25,107.85,86.39,107.9,86.39,107.9z"/>
						<g>
							<path class="st105" d="M73.64,96.4c-0.25,1.7,0.43,4.2,1.16,6.67c3.89,1.48,14.01,2.4,18.36-9.4
								C83.5,97.07,75.71,96.29,73.64,96.4z"/>
							<path class="st103" d="M94.49,92.46c-0.11-0.35-0.78-0.36-1.23-0.47c0.82,1.79,0.33,8.37,0.33,8.37
								C94.1,99.96,94.8,93.47,94.49,92.46z"/>
							<g>
								<path class="st2" d="M90.69,94.79c-0.11,1.99-0.9,3.51-1.81,6.02c-0.07,0.08-0.16,0.15-0.25,0.23
									c-0.13,0.1-0.28,0.21-0.45,0.31c-0.01,0-0.01,0-0.02,0.01c-0.09,0.06-0.2,0.11-0.3,0.17c-1.19,0.66-2.95,1.2-4.81,1.57
									c-0.23,0.04-0.45,0.09-0.68,0.13c-3.25,0.58-6.61,0.63-7.56-0.15c-0.28-0.24-0.55-0.54-0.78-0.9
									c-0.43-0.64-0.77-1.43-1.04-2.18c-0.5-1.38-0.73-2.63-0.73-2.63L88.4,95.1L90.69,94.79z"/>
								<path class="st106" d="M90.69,94.79c-0.11,1.99-0.9,3.51-1.81,6.02c-0.07,0.08-0.16,0.15-0.25,0.23
									c-0.13,0.1-0.28,0.21-0.45,0.31c-0.01,0-0.01,0-0.02,0.01c-1.16,0.71-3.08,1.31-5.11,1.74c-0.23,0.04-0.45,0.09-0.68,0.13
									c-3.49,0.65-7.09,0.74-7.56-0.15c-0.12-0.24-0.43-0.55-0.78-0.9c-0.43-0.64-0.77-1.43-1.04-2.18
									c2.23,0.4,5.74,0.83,7.73,0.53c1.96-0.29,6.65-0.06,7.68-5.42L90.69,94.79z"/>
							</g>
							<path class="st103" d="M93.48,92.76l-0.39,0.14c-2.97,1.05-6.07,1.81-9.23,2.25c-1.31,0.18-2.53,0.3-3.65,0.37
								c-0.01,0-0.01,0-0.01,0c-2.16,0.14-3.92,0.13-5.13,0.11c-1.95-0.03-2.91,1.08-3.25,1.58c-0.1,0.15-0.14,0.25-0.14,0.25
								s0.04,0.26,0.14,0.67v0.01c0,0.01,0,0.01,0,0.01c0.53,2.17,2.74,8.54,10.04,6.43c3.72-0.52,8.74-2.74,11.54-10.34l0.21-0.58
								v-0.01l0.4-1.05L93.48,92.76z M73.55,97.25h0.02c0.01,0,0.01-0.01,0.01-0.01c0.56-0.03,1.23-0.07,1.52-0.06
								c1.86,0.02,4.97,0.06,8.84-0.48c1.43-0.19,2.84-0.46,4.25-0.79c0.82-0.2,1.64-0.4,2.45-0.64c0.53-0.15,1.06-0.31,1.59-0.48
								c-0.76,1.62-1.63,2.94-2.58,4l-0.01,0.01c-2.5,2.81-5.47,3.87-7.87,4.21c-2.79,0.39-5.97-0.25-7.34-1.21
								c-0.24-0.16-0.42-0.33-0.53-0.51c-0.26-0.39-0.47-0.81-0.63-1.24c-0.32-0.84-0.48-1.75-0.48-2.59v-0.17
								C72.91,97.28,73.21,97.26,73.55,97.25z"/>
						</g>
					</g>
				</g>
				<g>
					<path class="st4" d="M107.04,49.82c-0.43-0.99-11.55-11.85-42.31-9.78c-2.96,0.2,1.65,8.2,1.65,8.2
						c1.99,5.72,12.12,8.81,13.01,8.79c0.72-0.01,15.65-2.47,16.38-2.62c7.94,7.32,6.41,32.74,7,33.47
						C102.97,85.02,111.48,59.93,107.04,49.82z"/>
					<path class="st107" d="M67.6,41.91c1.9,2.01,5.3,3.67,7.8,5.05c2.86,1.59,5.6,2.02,8.84,2.39c4.5,0.51,12.61-3.01,14.33,2.5
						c0,0-3.91,1.49-17.85,2.71c-4.25,0.37-10-4.93-12.53-8.24c1.25,0.6,2.94,0.6,3.96,1.48C70.5,46.56,68.36,43.87,67.6,41.91z"/>
				</g>
				<g>
					<path class="st102" d="M104.6,79.03c1.95-1.55,6.27-0.34,7.27,1.92c1.11,2.51-5.78,10.94-7.94,10.13
						C98.92,89.19,104.6,79.03,104.6,79.03z"/>
					<path class="st103" d="M103.17,84.32c0.2-0.75,0.42-1.59,0.73-2.31c0.16-0.38,0.42-0.77,0.62-1.13
						c0.11-0.19,0.27-0.43,0.39-0.54c1.15-1.08,2.71-0.54,3.83-0.24c0.46,0.12,1.27,0.34,1.57,0.72c0.25,0.3,0.22,0.84,0.29,1.19
						c-0.55-1.22-2.66-1.48-3.84-1.21c-1.23,0.28-2.24,1.97-2.29,3.2c0.96,0.24,1.4,1.59,0.97,2.41c-0.43,0.82-2.31,0.68-2.27-0.26
						C104.77,86.41,103.99,84.77,103.17,84.32z"/>
				</g>
				<path class="st4" d="M78.78,67.88c-0.48-0.16-1.38-0.4-1.38-0.4l-1.1,1.08c0,0-0.13-1.29-0.39-1.34
					c-6.81-1.39-8.37,2.12-8.37,2.12c1.85-0.19,7.21,0.55,11.22,1.85C78.97,69.77,78.94,69.41,78.78,67.88z"/>
			</g>
			<path class="st101" d="M136.92,131.45c-1.57,3.94-2.77,9.67-3.85,16.3c-0.49,0.38-0.99,0.75-1.49,1.12
				c-0.53,0.39-1.08,0.77-1.62,1.15c-0.23,0.16-0.47,0.32-0.71,0.47c-0.48,0.32-0.96,0.64-1.44,0.95c-0.36,0.23-0.72,0.45-1.09,0.69
				c-0.14,0.08-0.27,0.17-0.41,0.25c-0.23,0.14-0.47,0.28-0.7,0.41c-0.03,0.02-0.05,0.04-0.08,0.05c-0.4,0.25-0.82,0.49-1.23,0.72
				c-0.01,0.01-0.02,0.01-0.04,0.02c-0.4,0.23-0.82,0.46-1.23,0.69c-0.3,0.17-0.61,0.33-0.94,0.49c-0.03,0.01-0.07,0.04-0.1,0.05
				c-0.9,0.47-1.8,0.92-2.72,1.35c-0.38,0.19-0.76,0.36-1.14,0.53c0,0,0,0-0.01,0c-0.22,0.11-0.45,0.21-0.69,0.31
				c-0.17,0.08-0.35,0.16-0.53,0.24c-0.07,0.03-0.14,0.06-0.2,0.09c-0.08,0.04-0.16,0.07-0.24,0.1c-0.18,0.08-0.36,0.16-0.54,0.23
				c-0.4,0.16-0.79,0.32-1.18,0.48c-0.13,0.05-0.26,0.1-0.4,0.15c-0.08,0.04-0.17,0.07-0.25,0.1c-0.22,0.08-0.44,0.17-0.66,0.25
				c-0.04,0.01-0.07,0.03-0.11,0.04c-0.04,0.02-0.09,0.04-0.13,0.05c-0.2,0.09-0.42,0.16-0.63,0.24c-0.14,0.05-0.27,0.1-0.42,0.15
				c-0.05,0.02-0.09,0.04-0.14,0.06c-0.04,0.01-0.09,0.04-0.14,0.05c-0.08,0.03-0.17,0.06-0.25,0.09c-0.45,0.16-0.9,0.31-1.35,0.46
				c-0.2,0.06-0.41,0.13-0.61,0.2c-0.43,0.13-0.84,0.26-1.27,0.39c-0.01,0-0.01,0.01-0.02,0.01c-0.08,0.03-0.15,0.04-0.23,0.07
				c-0.14,0.04-0.27,0.08-0.41,0.12c-0.05,0.01-0.1,0.03-0.15,0.04c-0.3,0.09-0.59,0.17-0.89,0.25c-0.06,0.01-0.14,0.04-0.2,0.05
				c-0.14,0.04-0.3,0.08-0.45,0.12c-0.15,0.04-0.3,0.08-0.45,0.12c-0.17,0.04-0.33,0.09-0.5,0.13l3.9-14.78l-7.54-9.22l7.54-10.73
				l0.94-4.88l0.04-0.22c1.55,0.67,3.13,1.28,4.72,1.86C121.72,125.9,129.09,127.83,136.92,131.45z"/>
			<path class="st108" d="M112.68,148.73L109.64,160c-0.43,0.13-0.84,0.26-1.27,0.39c-0.01,0-0.01,0.01-0.02,0.01
				c-0.08,0.03-0.15,0.04-0.23,0.07c-0.14,0.04-0.27,0.08-0.41,0.12c-0.05,0.01-0.1,0.03-0.15,0.04c-0.3,0.09-0.59,0.17-0.89,0.25
				c-0.06,0.01-0.14,0.04-0.2,0.05c-0.14,0.04-0.3,0.08-0.45,0.12c-0.15,0.04-0.3,0.08-0.45,0.12c-0.17,0.04-0.33,0.09-0.5,0.13
				c-0.17,0.04-0.34,0.09-0.51,0.13c-0.1,0.02-0.2,0.05-0.3,0.07c-0.08,0.02-0.15,0.04-0.23,0.06c-0.46,0.11-0.92,0.22-1.37,0.32
				c-0.18,0.04-0.36,0.08-0.55,0.12c-0.41,0.09-0.82,0.18-1.23,0.26c-0.01,0-0.03,0.01-0.04,0.01c-0.07,0.01-0.15,0.03-0.22,0.04
				c-0.63,0.12-1.26,0.24-1.89,0.34c-0.99,0.17-1.99,0.32-2.98,0.44c-0.15,0.02-0.3,0.04-0.45,0.06c-0.25,0.04-0.51,0.07-0.76,0.09
				c-0.44,0.05-0.87,0.09-1.31,0.13c-0.27,0.03-0.55,0.06-0.82,0.08c-0.48,0.05-0.94,0.08-1.42,0.11c-0.47,0.04-0.94,0.06-1.41,0.08
				c-0.5,0.04-1,0.05-1.49,0.06c-0.25,0.01-0.51,0.01-0.76,0.02c-0.01,0-0.01,0-0.01,0c-0.15,0.01-0.31,0.01-0.45,0.01
				c-0.04,0-0.07,0.01-0.11,0.01c-0.17,0.01-0.35,0.01-0.52,0c-0.17,0.01-0.33,0.01-0.51,0.01c-0.2,0-0.4,0-0.61-0.01
				c-0.13,0-0.27-0.01-0.4-0.01c-0.25,0-0.51-0.01-0.77-0.01c-0.42-0.01-0.84-0.02-1.26-0.04c-1.07-0.04-2.14-0.1-3.2-0.19
				c-0.12-0.01-0.22-0.01-0.34-0.02c-0.04-0.01-0.08-0.01-0.12-0.01c0.55-7.58,1.16-14.43,1.83-20.04c0.1-0.86,0.2-1.69,0.31-2.49
				c0.06-0.46,0.12-0.92,0.18-1.36l0.01-0.05c0.11-0.79,0.22-1.54,0.33-2.25c0.28-1.78,0.56-3.34,0.86-4.64
				c0.06-0.27,0.12-0.52,0.18-0.77c0.16-0.64,0.32-1.2,0.48-1.68c0.01-0.01,0.04-0.02,0.07-0.04h0.01c0,0,0.01-0.01,0.01-0.01
				c0.78-0.39,5.91-3.03,9.53-6.11c1.82-1.55,3.29-3.34,4.4-4.96c0.6-0.86,1.09-1.67,1.49-2.38c0.66-1.17,1.07-2.05,1.21-2.36v-0.01
				c0.02-0.06,0.04-0.09,0.04-0.11c0-0.01,0.01-0.01,0.01-0.01l1.69,4.82l8.23,2.67l0.91,0.3c0.22,0.14,0.46,0.28,0.7,0.43
				l-1.96,3.56l-7.73,11.33L112.68,148.73z"/>
			<path class="st101" d="M47.4,153.65c-0.2-0.12-0.4-0.23-0.61-0.35c-0.04-0.01-0.09-0.04-0.14-0.08c-0.2-0.11-0.4-0.22-0.61-0.35
				c-0.19-0.12-0.38-0.22-0.57-0.35c-0.01-0.01-0.02-0.01-0.03-0.02c-0.06-0.03-0.12-0.06-0.19-0.11c-0.09-0.06-0.19-0.12-0.28-0.17
				c-0.12-0.07-0.24-0.14-0.35-0.22c-0.82-7.68-1.87-14.3-3.44-18.67c3.88-1.99,12.41-5.78,17.03-7.79
				c1.57-0.68,2.68-1.16,3.02-1.29c0.03-0.01,0.06-0.02,0.09-0.04l4.41,8.01l2.64,4.78l-0.61,0.77l-2.79,3.49L60.39,147l-0.91,1.13
				l2.61,11.95c-0.58-0.19-1.16-0.38-1.73-0.58c-0.22-0.08-0.45-0.16-0.68-0.24c-0.2-0.07-0.4-0.14-0.6-0.22
				c-0.29-0.1-0.57-0.21-0.85-0.32c-0.36-0.14-0.72-0.27-1.08-0.42c-0.24-0.09-0.47-0.19-0.7-0.28c-0.17-0.07-0.33-0.13-0.49-0.2
				c-0.1-0.04-0.19-0.08-0.3-0.12c-0.01-0.01-0.03-0.01-0.04-0.02c-0.06-0.02-0.12-0.04-0.17-0.07c-0.05-0.02-0.11-0.04-0.16-0.07
				c-0.07-0.03-0.13-0.05-0.19-0.08c-0.07-0.03-0.13-0.06-0.2-0.09c-0.18-0.07-0.36-0.15-0.54-0.24c-0.1-0.04-0.19-0.09-0.29-0.14
				c-0.24-0.11-0.48-0.21-0.71-0.33c-0.22-0.09-0.43-0.19-0.64-0.29c-0.17-0.07-0.33-0.15-0.5-0.22c-0.35-0.17-0.69-0.34-1.03-0.51
				c-0.28-0.14-0.56-0.29-0.84-0.43c-0.05-0.02-0.11-0.05-0.16-0.08c-0.32-0.16-0.65-0.34-0.97-0.51c-0.03-0.01-0.06-0.03-0.09-0.05
				c-0.05-0.02-0.09-0.05-0.14-0.08c-0.34-0.17-0.67-0.35-1-0.53c-0.16-0.09-0.31-0.17-0.47-0.27
				C47.48,153.69,47.43,153.67,47.4,153.65z"/>
			<path class="st108" d="M83.94,163.72c-0.42-0.01-0.84-0.02-1.26-0.04c-1.07-0.04-2.14-0.1-3.2-0.19
				c-0.12-0.01-0.22-0.01-0.34-0.02c-0.04-0.01-0.08-0.01-0.12-0.01c-0.18-0.02-0.36-0.04-0.53-0.06c-0.3-0.03-0.6-0.06-0.9-0.09
				c-1.23-0.12-2.45-0.27-3.67-0.46c-0.28-0.04-0.56-0.09-0.84-0.13c-0.58-0.1-1.16-0.2-1.74-0.31c-0.18-0.04-0.37-0.07-0.56-0.11
				c-0.17-0.03-0.33-0.06-0.5-0.09c-0.06-0.01-0.12-0.04-0.18-0.04c-0.28-0.06-0.56-0.12-0.85-0.18c-0.08-0.01-0.16-0.04-0.24-0.05
				c-0.33-0.07-0.65-0.14-0.98-0.22h-0.01c-1.21-0.28-2.41-0.59-3.61-0.93c-0.12-0.04-0.24-0.07-0.35-0.1
				c-0.09-0.02-0.17-0.05-0.26-0.08c-0.57-0.17-1.14-0.34-1.71-0.52c-0.58-0.19-1.16-0.38-1.73-0.58c-0.22-0.08-0.45-0.16-0.68-0.24
				c-0.2-0.07-0.4-0.14-0.6-0.22c-0.29-0.1-0.57-0.21-0.85-0.32c-0.36-0.14-0.72-0.27-1.08-0.42c-0.24-0.09-0.47-0.19-0.7-0.28
				c-0.17-0.07-0.33-0.13-0.49-0.2c-0.1-0.04-0.19-0.08-0.3-0.12l-2.82-9.86c0-0.01,0-0.01,0-0.01l-0.09-0.32l0.02-0.01l4.32-2.2
				l7.87-4.02l3.27-1.67l0.16-0.08l-0.11-0.29l-0.53-1.46l-2.02-5.55l-2.53-6.95c3.86-1.39,3.59-1.81,3.7-2.77
				c1.24-0.27,3.96-0.9,3.96-0.9l0.19-1.19l0.2,0.17l0.46,0.4l3.36,2.92l7.16,6.22l0.05,0.04c0.06,0.17,0.12,0.36,0.17,0.56
				c0.09,0.34,0.19,0.71,0.27,1.12c0.34,1.59,0.61,3.64,0.8,6.08c0.01,0.14,0.02,0.28,0.04,0.42c0.03,0.38,0.06,0.77,0.09,1.16
				c0.04,0.65,0.08,1.33,0.12,2.04c0.04,0.85,0.08,1.74,0.11,2.66C84.07,149.74,84.07,156.39,83.94,163.72z"/>
			<path class="st109" d="M82.69,163.68c-1.07-0.04-2.14-0.1-3.2-0.19l1.55-19.89l0.2-2.63l0.11-1.41l0.01-0.05h4.08l0.16,1.44
				l0.23,2.15l2.25,20.59c-0.25,0.01-0.51,0.01-0.76,0.02c-0.01,0-0.01,0-0.01,0c-0.15,0.01-0.31,0.01-0.45,0.01
				c-0.04,0-0.07,0.01-0.11,0.01c-0.17,0.01-0.35,0.01-0.52,0c-0.17,0.01-0.33,0.01-0.51,0.01c-0.2,0-0.4,0-0.61-0.01
				c-0.13,0-0.27-0.01-0.4-0.01c-0.25,0-0.51-0.01-0.77-0.01C83.52,163.72,83.11,163.7,82.69,163.68z"/>
			<g>
				<path class="st109" d="M74.89,130.13h18.74c0.01,0.04,0.02,0.07,0.02,0.11c0,0.78-1.1,4.13-1.71,5.63
					c-1.54,3.81-7.2,9.15-9.67,8.55c-2.4-0.59-8.99-11.81-8.61-14.18C73.75,130.25,74.24,130.21,74.89,130.13z"/>
			</g>
			<path class="st2" d="M83.2,130.17l15.46,11.12l0.35,0.25l2.66-22.52l-1.69-4.82c0,0,0,0-0.01,0.01
				c-0.13,0.21-2.41,3.66-7.97,8.95C87.45,127.49,83.34,130.08,83.2,130.17z"/>
			<path class="st2" d="M67.95,141.54l4.16-3.1l10.34-7.71l0.75-0.56c0,0-4.6-3.8-7.3-7.02c-3.05-3.63-4.05-7.57-4.05-7.57
				l-0.79,4.83l-0.2,1.19l-2.57,17.63l-0.06,0.37L67.95,141.54z"/>
			<path class="st110" d="M118.91,143.45c0,0-0.61,2.14-1.57,5.51c-0.29,1-0.61,2.12-0.95,3.32c-0.44,1.56-0.92,3.26-1.44,5.06
				c-0.07,0.27-0.15,0.54-0.22,0.82c-0.13,0.05-0.26,0.1-0.4,0.15c-0.08,0.04-0.17,0.07-0.25,0.1c-0.22,0.08-0.44,0.17-0.66,0.25
				c-0.04,0.01-0.07,0.03-0.11,0.04c-0.04,0.02-0.09,0.04-0.13,0.05c-0.2,0.09-0.42,0.16-0.63,0.24c-0.14,0.05-0.27,0.1-0.42,0.15
				c-0.05,0.02-0.09,0.04-0.14,0.06c-0.04,0.01-0.09,0.04-0.14,0.05c-0.08,0.03-0.17,0.06-0.25,0.09c-0.45,0.16-0.9,0.31-1.35,0.46
				c-0.2,0.06-0.41,0.13-0.61,0.2c-0.43,0.13-0.84,0.26-1.27,0.39c-0.01,0-0.01,0.01-0.02,0.01c-0.08,0.03-0.15,0.04-0.23,0.07
				c-0.14,0.04-0.27,0.08-0.41,0.12c-0.05,0.01-0.1,0.03-0.15,0.04c-0.3,0.09-0.59,0.17-0.89,0.25c-0.06,0.01-0.14,0.04-0.2,0.05
				c-0.14,0.04-0.3,0.08-0.45,0.12c-0.15,0.04-0.3,0.08-0.45,0.12c-0.17,0.04-0.33,0.09-0.5,0.13c-0.17,0.04-0.34,0.09-0.51,0.13
				c-0.1,0.02-0.2,0.05-0.3,0.07c-0.08,0.02-0.15,0.04-0.23,0.06c-0.46,0.11-0.92,0.22-1.37,0.32c-0.18,0.04-0.36,0.08-0.55,0.12
				c-0.41,0.09-0.82,0.18-1.23,0.26c-0.01,0-0.03,0.01-0.04,0.01c-0.07,0.01-0.15,0.03-0.22,0.04c-0.63,0.12-1.26,0.24-1.89,0.34
				c-0.99,0.17-1.99,0.32-2.98,0.44l2.94-21.8l1.95-14.47l0.79-5.81l0.27-2c0,0,3.47,0,7.58,1.66c1.39,0.56,5.44,2.57,5.44,2.57
				s-0.01,0.02-0.03,0.07c-0.19,0.5-1.42,3.6-3.43,6.9c-2.88,4.71-6.23,7.66-6.23,7.66s2.54,2.32,5.73,3.8
				C114.6,143.47,118.91,143.45,118.91,143.45z"/>
			<path class="st110" d="M59.09,159.05c-0.29-0.1-0.57-0.21-0.85-0.32c-0.36-0.14-0.72-0.27-1.08-0.42
				c-0.24-0.09-0.47-0.19-0.7-0.28c-0.17-0.07-0.33-0.13-0.49-0.2c-0.1-0.04-0.19-0.08-0.3-0.12c-0.01-0.01-0.03-0.01-0.04-0.02
				c-0.06-0.02-0.12-0.04-0.17-0.07c-0.05-0.02-0.11-0.04-0.16-0.07c-0.07-0.03-0.13-0.05-0.19-0.08c-0.07-0.03-0.13-0.06-0.2-0.09
				c-0.79-3.68-1.5-7-2.05-9.54c0-0.01,0-0.01,0-0.01c-0.02-0.12-0.05-0.22-0.07-0.34c-0.61-2.84-0.99-4.59-0.99-4.59
				s1.74,0.12,4.04-0.19c1.31-0.17,2.79-0.48,4.23-1.05c3.29-1.26,5.98-3.42,5.98-3.42s-3.16-3.16-5.72-8.04
				c-0.92-1.75-1.86-4.04-2.1-4.66c-0.04-0.1-0.06-0.16-0.06-0.16s1.39-0.53,3.08-1.13c0.03-0.01,0.06-0.02,0.09-0.04
				c1.84-0.66,4.02-1.39,5.21-1.64c0.09-0.02,0.22-0.05,0.36-0.07c1.24-0.27,3.96-0.9,3.96-0.9l0.03,0.39l0.14,1.93l1.08,14.52
				l1.82,24.41c-0.28-0.04-0.56-0.09-0.84-0.13c-0.58-0.1-1.16-0.2-1.74-0.31c-0.18-0.04-0.37-0.07-0.56-0.11
				c-0.17-0.03-0.33-0.06-0.5-0.09c-0.06-0.01-0.12-0.04-0.18-0.04c-0.28-0.06-0.56-0.12-0.85-0.18c-0.08-0.01-0.16-0.04-0.24-0.05
				c-0.33-0.07-0.65-0.14-0.98-0.22h-0.01c-1.21-0.28-2.41-0.59-3.61-0.93c-0.12-0.04-0.24-0.07-0.35-0.1
				c-0.09-0.02-0.17-0.05-0.26-0.08c-0.57-0.17-1.14-0.34-1.71-0.52c-0.58-0.19-1.16-0.38-1.73-0.58c-0.22-0.08-0.45-0.16-0.68-0.24
				C59.49,159.2,59.28,159.12,59.09,159.05z"/>
			<g>
				<g>
					<path class="st111" d="M86.84,138.29l0.46-0.5C87.18,137.99,87.02,138.15,86.84,138.29z"/>
					<path class="st111" d="M78.04,135.09c0.85-0.42,4.01-2.06,4.6-2.53c0.11,1.6,0.02,3.89,0.85,5.33c0.63,1.08,4.45,0.64,5.42-0.1
						c0,0-3.67,5.72-7.78,3.12C79.62,139.97,77.82,136.95,78.04,135.09z"/>
				</g>
			</g>
			<path class="st101" d="M143.98,137.64c-0.04,0.05-0.09,0.09-0.13,0.14c-2.03,2.27-4.17,4.4-6.42,6.4
				c-0.17,0.15-0.35,0.31-0.53,0.46c-0.35,0.3-0.71,0.61-1.06,0.9c-0.27,0.22-0.54,0.45-0.82,0.67c-0.26,0.21-0.52,0.42-0.78,0.63
				c-0.01,0-0.01,0.01-0.02,0.01c-0.38,0.3-0.76,0.6-1.15,0.9c-0.49,0.38-0.99,0.75-1.49,1.12c-0.53,0.39-1.08,0.77-1.62,1.15
				c-0.23,0.16-0.47,0.32-0.71,0.47c-0.48,0.32-0.96,0.64-1.44,0.95c-0.36,0.23-0.72,0.45-1.09,0.69c-0.14,0.08-0.27,0.17-0.41,0.25
				c-0.23,0.14-0.47,0.28-0.7,0.41c0.01-0.23,0.04-0.45,0.06-0.69c0.1-1.13,0.21-2.26,0.34-3.36c0.9-7.84,2.48-14.65,5.05-16.2
				c2.02-1.21,4.03-1.5,5.88-1.1C139.93,132.09,142.5,134.52,143.98,137.64z"/>
		</g>
	</g>
</g>
</svg>
