<?xml version="1.0" encoding="utf-8"?>
<!-- Generator: Adobe Illustrator 27.2.0, SVG Export Plug-In . SVG Version: 6.00 Build 0)  -->
<svg version="1.1" id="Layer_1" xmlns="http://www.w3.org/2000/svg" xmlns:xlink="http://www.w3.org/1999/xlink" x="0px" y="0px"
	 viewBox="0 0 171.51 171.51" style="enable-background:new 0 0 171.51 171.51;" xml:space="preserve">
<style type="text/css">
	.st0{fill:#F7F2DA;}
	.st1{fill:#FBA479;}
	.st2{fill:#FFFFFF;}
	.st3{fill:#E1DFEA;}
	.st4{fill:#261411;}
	.st5{fill:#60312B;}
	.st6{fill:#EF7950;}
	.st7{fill:#60281F;}
	.st8{fill:#E8E6E6;}
	.st9{fill:#3A2827;}
	.st10{fill:#CCCCCC;}
	.st11{fill:#595857;}
	.st12{fill:#F28C5F;}
	.st13{fill:#E26939;}
	.st14{fill:#56413D;}
	.st15{fill:#44322E;}
	.st16{fill:#873421;}
	.st17{fill:#EA6CA0;}
	.st18{fill:#DB5290;}
	.st19{fill:#F48656;}
	.st20{fill:#82112F;}
	.st21{fill:#D85039;}
	.st22{fill:#574984;}
	.st23{fill:#291C51;}
	.st24{fill:#FC5135;}
	.st25{fill:#FFCC7B;}
	.st26{fill:#E8A749;}
	.st27{fill:#6D4A44;}
	.st28{fill:#D1E3E8;}
	.st29{fill:#FCFBFA;}
	.st30{fill:#4C4C4B;}
	.st31{fill:#686868;}
	.st32{fill:#FFB884;}
	.st33{fill:#EF9C62;}
	.st34{fill:#874410;}
	.st35{fill:#6D340D;}
	.st36{fill:#E89258;}
	.st37{fill:#3A2E26;}
	.st38{fill:#4C3F35;}
	.st39{opacity:0.1;}
	.st40{fill:#60120F;}
	.st41{fill:#F4F0ED;}
	.st42{fill:#E0312D;}
	.st43{fill:#F42F2F;}
	.st44{fill:#D31111;}
	.st45{fill:#DB9B19;}
	.st46{fill:#AF740B;}
	.st47{fill:#CC2121;}
	.st48{fill:#F74B4B;}
	.st49{fill:#FCF9E8;}
	.st50{opacity:0.5;fill:#827571;}
	.st51{fill:#665D5C;}
	.st52{fill:#4F4746;}
	.st53{fill:#5E3B2F;}
	.st54{fill:#492E27;}
	.st55{opacity:0.4;}
	.st56{fill:#443A36;}
	.st57{fill:#51415E;}
	.st58{fill:#066FB7;}
	.st59{fill:#066396;}
	.st60{fill:#0D8FD6;}
	.st61{fill:#FEAC74;}
	.st62{fill:#E3784C;}
	.st63{fill:#580801;}
	.st64{fill:#440502;}
	.st65{fill:#00ABB2;}
	.st66{fill:#008C8C;}
	.st67{fill:#914E34;}
	.st68{fill:#5B2E1D;}
	.st69{fill:#6A3221;}
	.st70{fill:#FAFAFC;}
	.st71{fill:#2B3B3F;}
	.st72{fill:#3F565B;}
	.st73{fill:#EF7348;}
	.st74{fill:#6F3D26;}
	.st75{fill:#BBBEBF;}
	.st76{fill:#D3D3D3;}
	.st77{fill:#939A9E;}
	.st78{fill:#F79C5E;}
	.st79{fill:#E07832;}
	.st80{fill:#604135;}
	.st81{fill:#EFEAE8;}
	.st82{fill:#4F3229;}
	.st83{fill:#1A3D3A;}
	.st84{fill:#E8E8E8;}
	.st85{fill:#0C83C4;}
	.st86{fill:#1B96EA;}
	.st87{fill:#B50F0F;}
	.st88{opacity:0.4;fill:#E89258;}
	.st89{fill:#26ACF7;}
	.st90{fill:#F45347;}
	.st91{fill:#FF3939;}
	.st92{fill:#686766;}
	.st93{fill:#5E5D5B;}
	.st94{fill:#424140;}
	.st95{fill:#E7E1CB;}
	.st96{fill:#D6CFBA;}
	.st97{fill:#CE5C37;}
	.st98{fill:#B74D30;}
	.st99{fill:#1B313D;}
	.st100{fill:#36474F;}
	.st101{fill:#29526D;}
	.st102{fill:#FCBD88;}
	.st103{fill:#FCA265;}
	.st104{fill:#496B7A;}
	.st105{fill:#B76049;}
	.st106{fill:#EDEDED;}
	.st107{fill:#7C7979;}
	.st108{fill:#EFE6E8;}
	.st109{fill:#B20D28;}
	.st110{fill:#346682;}
	.st111{fill:#AA0E28;}
	.st112{fill:#FF5050;}
	.st113{fill:#781A0E;}
	.st114{fill:#560904;}
	.st115{fill:#FF0B40;}
	.st116{fill:#BC0000;}
	.st117{fill:#FFD731;}
	.st118{fill:#EA6453;}
	.st119{fill:#602618;}
	.st120{fill:#A14F2A;}
	.st121{fill:#3A4E66;}
	.st122{fill:#EAE9EE;}
	.st123{opacity:0.3;fill:#3A4E66;}
	.st124{fill:#5E2701;}
	.st125{fill:#773000;}
	.st126{fill:#EA2F4A;}
	.st127{fill:#C41234;}
	.st128{fill:#F7F0F1;}
	.st129{fill:#F7A76F;}
	.st130{fill:#B24800;}
	.st131{fill:#8C3B03;}
	.st132{fill:#567391;}
	.st133{fill:#FF7271;}
	.st134{fill:#F75E5E;}
	.st135{fill:#700F28;}
	.st136{fill:#9E1533;}
	.st137{fill:#871231;}
	.st138{fill:#211B3A;}
	.st139{fill:#2E2951;}
	.st140{fill:#F28670;}
	.st141{fill:#F46060;}
	.st142{fill:#EBBF44;}
	.st143{fill:#E0A91E;}
	.st144{fill:#FFA992;}
	.st145{fill:#2C363F;}
	.st146{fill:#1D262D;}
	.st147{fill-rule:evenodd;clip-rule:evenodd;fill:#FFF5F5;}
	.st148{opacity:0.2;}
	.st149{fill:#7C4949;}
	.st150{fill:#F9AE7A;}
	.st151{fill:#FFF5F5;}
	.st152{fill:#C92727;}
	.st153{fill:#4C1B05;}
	.st154{fill:#592009;}
	.st155{opacity:0.4;fill:#592009;}
	.st156{fill:#3F1307;}
	.st157{fill:#664472;}
	.st158{fill:#473051;}
	.st159{fill:#352020;}
	.st160{opacity:0.3;fill:#7C4949;}
</style>
<g>
	<path class="st0" d="M163.74,85.75c0,22.31-9.37,42.42-24.37,56.63c-2.07,1.96-4.24,3.8-6.51,5.51c-0.38,0.3-0.75,0.58-1.13,0.85
		c-1.1,0.82-2.24,1.6-3.39,2.35c-0.17,0.12-0.35,0.23-0.53,0.34c-0.14,0.09-0.28,0.19-0.43,0.27c-1.85,1.17-3.75,2.26-5.7,3.27
		c-2.69,1.41-5.47,2.65-8.34,3.73c-0.27,0.1-0.53,0.2-0.81,0.3c-6.59,2.41-13.59,3.96-20.87,4.5c-0.03,0.01-0.06,0.01-0.1,0.01
		c-1.17,0.09-2.35,0.15-3.53,0.18c-0.22,0.01-0.44,0.01-0.66,0.01c-0.09,0.01-0.17,0.01-0.26,0.01c-0.45,0.01-0.91,0.01-1.36,0.01
		c-0.57,0-1.13-0.01-1.7-0.03h-0.07c-0.25,0-0.51,0-0.76-0.02c-0.35,0-0.7-0.01-1.05-0.04c-1.21-0.05-2.4-0.13-3.59-0.25
		c-5.61-0.51-11.06-1.61-16.25-3.25c-1.74-0.55-3.46-1.16-5.14-1.82c-2.9-1.14-5.71-2.45-8.43-3.91c-1.78-0.96-3.52-1.99-5.21-3.08
		c-3.12-2.01-6.08-4.23-8.87-6.65c-0.07-0.07-0.14-0.12-0.21-0.19c-0.18-0.16-0.36-0.31-0.54-0.48c-0.49-0.43-0.97-0.87-1.45-1.32
		C17.27,128.47,7.77,108.23,7.77,85.75c0-43.07,34.91-77.99,77.99-77.99S163.74,42.68,163.74,85.75z"/>
	<g>
		<g>
			<path class="st28" d="M127.81,151.44c-0.14,0.09-0.28,0.19-0.43,0.27l0.35-0.4C127.76,151.36,127.79,151.39,127.81,151.44z"/>
			<path class="st29" d="M128.34,151.1c-0.17,0.12-0.35,0.23-0.53,0.34c-0.14,0.09-0.28,0.19-0.43,0.27
				c-1.85,1.17-3.75,2.26-5.7,3.27c-2.69,1.41-5.47,2.65-8.34,3.73c-0.27,0.1-0.53,0.2-0.81,0.3c-6.59,2.41-13.59,3.96-20.87,4.5
				c-0.03,0.01-0.06,0.01-0.1,0.01c-1.17,0.09-2.35,0.15-3.53,0.18c-0.22,0.01-0.44,0.01-0.66,0.01c-0.09,0.01-0.17,0.01-0.26,0.01
				c-0.45,0.01-0.91,0.01-1.36,0.01c-0.57,0-1.13-0.01-1.7-0.03h-0.07c-0.25,0-0.51,0-0.76-0.02c-0.35,0-0.7-0.01-1.05-0.04
				c-1.21-0.05-2.4-0.13-3.59-0.25c-5.61-0.51-11.06-1.61-16.25-3.25c-1.74-0.55-3.46-1.16-5.14-1.82c-2.9-1.14-5.71-2.45-8.43-3.91
				c-1.78-0.96-3.52-1.99-5.21-3.08c-3.12-2.01-6.08-4.23-8.87-6.65c-0.07-0.07-0.14-0.12-0.21-0.19c0.67-0.58,1.35-1.16,2.02-1.72
				c0.01-0.01,0.01-0.01,0.02-0.02c1.24-1.03,14.95-6.23,22.14-9.08c0.27-0.11,0.54-0.22,0.79-0.32c0.09-0.04,0.17-0.07,0.25-0.1
				h0.01c1.6-0.65,2.73-1.13,3.13-1.34c0.62-0.35,1.36-0.66,2.18-0.94h0.01c2.88-1.02,6.7-1.68,9.46-2.06h0.01
				c0.78-0.1,1.47-0.19,2.03-0.25h0.01c0.94-0.11,1.52-0.16,1.52-0.16s10.12,0.53,14.67,2.92c0.06,0.03,0.12,0.06,0.17,0.09
				c0.14,0.08,0.35,0.19,0.61,0.31h0.01c1.03,0.5,2.91,1.32,5.23,2.32h0.01c1.28,0.56,2.68,1.16,4.15,1.79h0.01
				c0.06,0.03,0.12,0.06,0.18,0.08c0.01,0,0.01,0,0.01,0.01c0.51,0.22,1.03,0.45,1.56,0.67h0.01c6.18,2.66,13.03,5.65,16.02,7.3
				c0.01,0,0.01,0.01,0.01,0.01c0.63,0.35,1.08,0.63,1.32,0.84c0.58,0.51,1.15,1.03,1.72,1.55c1.08,1,2.12,2.01,3.1,3.04
				C127.35,149.98,127.85,150.54,128.34,151.1z"/>
			<path class="st28" d="M78.63,135.09c13.58-1.71,27.1,1.4,38.92,8.17c3.23,1.85,6.32,3.92,9.27,6.17
				c-0.97-1.03-2.02-2.05-3.1-3.04c-0.56-0.52-1.14-1.03-1.72-1.54c-6.07-3.94-12.68-7.12-19.67-9.04
				c-7.72-2.12-15.77-2.69-23.71-1.69C78.02,134.2,78.01,135.17,78.63,135.09z"/>
			<path class="st28" d="M88.04,163.7c-0.22,0.01-0.44,0.01-0.66,0.01c-0.09,0.01-0.17,0.01-0.26,0.01
				c0.01-5.58-0.07-11.16-0.34-16.72c-0.03-0.66-0.06-1.31-0.1-1.97c-0.05-0.87-0.11-1.73-0.2-2.59c-0.04-0.34-0.07-0.67-0.12-1
				c-0.06-0.43-0.12-0.87-0.2-1.3c-0.11-0.61,0.82-0.87,0.94-0.26c0.12,0.66,0.22,1.31,0.3,1.98c0.01,0.09,0.03,0.18,0.03,0.27
				c0.13,1.03,0.21,2.06,0.27,3.09c0.11,1.77,0.15,3.55,0.2,5.31c0.06,1.88,0.09,3.78,0.12,5.67v0.02
				C88.04,158.71,88.04,161.21,88.04,163.7z"/>
			<g>
				<g>
					<path class="st30" d="M85.82,144.63c0.02-0.82-0.01-1.41-0.09-1.7l0.75-0.48l0.67-0.43l0.24-0.15l1.45-0.93l0.04-0.03
						l0.09-0.06c0.12,0.58,0.22,1.18,0.33,1.83c0.11,0.64,0.21,1.32,0.32,2.03c0.75,5.07,1.39,11.67,1.94,18.82
						c-1.17,0.09-2.35,0.15-3.53,0.18c-0.22,0.01-0.44,0.01-0.66,0.01c-0.09,0.01-0.17,0.01-0.26,0.01
						c-0.45,0.01-0.91,0.01-1.36,0.01c-0.57,0-1.13-0.01-1.7-0.03C85.06,155.11,85.78,147.91,85.82,144.63z"/>
					<path class="st31" d="M91.67,163.52c-0.03,0.01-0.06,0.01-0.1,0.01c-1.17,0.09-2.35,0.15-3.53,0.18
						c-0.22,0.01-0.44,0.01-0.66,0.01c0.22-2.61,0.44-5.13,0.63-7.5v-0.02c0.35-4.33,0.61-8.15,0.76-11.12
						c0.04-0.92,0.08-1.76,0.1-2.51c0.01-0.63,0.01-1.19,0.01-1.68c-0.01-0.48-0.02-0.89-0.04-1.21l0.14-0.09
						c0.19,0.95,0.36,1.99,0.53,3.11c0.09,0.61,0.19,1.24,0.28,1.9C90.51,149.81,91.13,156.42,91.67,163.52z"/>
				</g>
				<g>
					<path class="st31" d="M81.7,136.96c0,2.96,2.72,8.27,6.08,8.27c1.41,0,2.71-0.94,3.74-2.25c1.42-1.8,2.33-4.31,2.33-6.03
						c0-2.96-2.72-5.36-6.08-5.36c-0.78,0-1.52,0.13-2.21,0.37C83.31,132.74,81.7,134.68,81.7,136.96z"/>
					<g>
						<path class="st30" d="M81.7,136.96c0,2.96,2.72,8.27,6.08,8.27c1.41,0,2.71-0.94,3.74-2.25c-0.18-0.02-0.34-0.04-0.47-0.05
							c-1.24-0.16-3.89-0.47-4.74-1.53c-0.77-0.95-0.73-3.29-0.81-4.41c-0.11-1.69-0.07-3.36,0.06-5.04
							C83.31,132.74,81.7,134.68,81.7,136.96z"/>
					</g>
				</g>
			</g>
			<path class="st29" d="M59.35,133.25l-0.7,0.43l-6.85,4.22l-0.25,0.99l-2.44,9.75c0.01,0.53,0,1.05-0.02,1.58
				c-0.04,1.39-0.15,2.8-0.32,4.21c-1.78-0.96-3.52-1.99-5.21-3.08c-3.12-2.01-6.08-4.23-8.87-6.65c-0.07-0.07-0.14-0.12-0.21-0.19
				c-0.18-0.16-0.36-0.31-0.54-0.48c-0.49-0.43-0.97-0.87-1.45-1.32C40.85,137.01,49.96,133.23,59.35,133.25z"/>
			<path class="st28" d="M65.41,137.95c-0.72-0.03-1.44-0.06-2.17-0.06c-0.15-0.01-0.29-0.01-0.44-0.01h-0.01
				c-3.78-0.02-7.54,0.32-11.24,1c-3.16,0.58-6.26,1.42-9.31,2.51c-2.59,0.92-5.11,2.04-7.56,3.3c-0.07-0.07-0.14-0.12-0.21-0.19
				c-0.18-0.16-0.36-0.31-0.54-0.48c0.84-0.43,1.7-0.85,2.56-1.24c4.89-2.27,10.02-3.92,15.31-4.89c3.34-0.61,6.75-0.95,10.2-0.97
				c0.14-0.01,0.27-0.01,0.41-0.01c1,0,1.99,0.02,3,0.07C66.03,137.02,66.03,137.98,65.41,137.95z"/>
			<g>
				<g>
					<g>
						<path class="st32" d="M81.28,141c3.03-4.15,6.9-7.02,6.9-7.02s3.2,2.8,5.8,6.9c3.69-0.73,5.99-2.27,5.2-4.91
							c-0.45-1.52-0.95-4.17-1.42-7.38c-0.19-1.27-0.37-2.62-0.54-4.03c-1.38-11.3-2.42-26.01-2.42-26.01l-28.28-0.81
							c0,0,0.13,1.62,0.21,4.22c0.07,2.05,0.11,4.72,0.04,7.69c-0.21,8.7,0.98,18.11-3.2,24C61.9,135.99,73.17,140.07,81.28,141z"/>
						<path class="st33" d="M66.76,109.65c5.15,6.22,14.08,13.1,19.65,14.15c2.01,0.38,8.65-1.74,10.41-2.7
							c-1.38-11.3-2.02-22.56-2.02-22.56H70.07l-3.34,3.41C66.79,104.02,66.83,106.68,66.76,109.65z"/>
					</g>
					<g>
						<path class="st32" d="M109.6,73.54c-1.17-0.46-2.53,0.15-3.75,0.5c-1.3,0.37-3.21,0.93-3.29,2.52
							c-0.06,1.25,0.48,2.77,0.65,4.04l1.75,7.79c0.6,0.18,2.42-0.06,2.96-0.52c0.71-0.61,2.55-8.26,2.74-11.27
							C110.75,75.21,111.08,74.13,109.6,73.54z"/>
						<path class="st33" d="M109.38,75.2c-0.42-1.01-1.63-0.44-2.5-0.21c-0.86,0.22-2.4,0.45-2.97,1.26
							c-0.56,0.8,0.03,2.88,0.24,3.89c2.17-0.94,2.64,2.55,0.67,2.63l0.09,0.64c0.12,0.85,0.34,1.89,0.67,2.42
							c-0.09-0.67-0.51-1.95-0.14-2.52c0.35-0.56,1.34-0.57,1.78-1.12c1.13-1.43-0.75-2.59-2.08-2.74
							c-0.02-0.48-0.28-1.62-0.09-2.04c0.22-0.48,1.22-0.76,1.72-0.99c0.75-0.36,1.21-0.77,1.71-0.15c0.33,0.42,0.29,1.26,0.36,1.78
							C109.11,77.36,109.67,75.88,109.38,75.2z"/>
					</g>
					<path class="st32" d="M66.13,69.29c-1.19-3.42-1.45-7.6,0.74-11.08c0.13-0.2,0.46-0.53,0.97-0.94
						c2.17-1.76,7.52-5.11,13.37-7.23l0-0.03c0.03,0,0.05,0,0.08,0.01c0.03-0.01,0.05-0.02,0.08-0.03l0,0.03
						c6.2,0.48,12.25,2.29,14.81,3.4c0.6,0.26,1.01,0.48,1.19,0.64c3.04,2.77,3.91,6.87,3.67,10.48
						c-0.35,5.44,9.38,24.82,8.07,33.97c-0.4,2.82-7.05,10.4-10.94,18.58c-0.83,1.75-5.36,2.93-7.34,3.28
						c-0.03,0-6.56,0.15-7.94-1.2c-7.63-7.43-14.36-12.37-15.5-14.99C63.71,95.71,67.91,74.44,66.13,69.29z"/>
					<g>
						<path class="st34" d="M64.97,73.93c0.62,3.13,2.41,8.86,2.95,9.27c1.13-5.3,2.56-27.53,8.74-22.83
							c4.3,3.28,8.27,10.31,14.39,7.97c2.15-0.82,2.53-2.01,4.35-4.52c4.76-6.56,5.38,5.48,9.05,13.15c0,0,0.34-2.14,0.81-4.73
							c0.57-3.15,1.34-6.98,1.9-8.48c1.51-3.99,3.82-5.76,3.62-10.06c-0.56-12.19-3.85-13.57-15.87-16.44
							c2.05,9.89-16.7,6.32-21.04,8.12c-6.2,2.56-10.12,4.73-12.08,9.41C59.96,59.17,63.72,67.62,64.97,73.93z"/>
						<path class="st35" d="M67.92,83.2c1.13-5.3,2.56-27.53,8.74-22.83c4.3,3.28,8.27,10.31,14.39,7.97
							c2.15-0.82,2.53-2.01,4.35-4.52c4.76-6.56,5.38,5.48,9.05,13.15c0,0,0.34-2.14,0.81-4.73c-2.04-3.91-1.72-12.74-7.17-13.81
							c-2.68-0.53-4.31,1.23-6.68,2.23c-1.82,0.77-4.41,0.49-6.09-0.45c-2.36-1.33-4.71-2.84-6.95-4.37
							c-2.86-1.94-5.35-3.2-8.11-0.48c-2.36,2.32-2.98,6.35-3.57,9.53C66.3,66.97,67.38,82.79,67.92,83.2z"/>
					</g>
					<g>
						<path class="st32" d="M60.29,74.99c1.09-0.62,2.53-0.2,3.78-0.03c1.34,0.19,3.31,0.47,3.61,2.04
							c0.24,1.23-0.09,2.81-0.09,4.09l-0.64,7.96c-0.57,0.26-2.41,0.28-3-0.11c-0.79-0.51-3.67-7.83-4.28-10.78
							C59.39,76.8,58.91,75.78,60.29,74.99z"/>
						<path class="st33" d="M60.74,76.6c0.27-1.05,1.55-0.66,2.45-0.56c0.89,0.1,2.44,0.11,3.12,0.83c0.66,0.71,0.37,2.86,0.3,3.89
							c-2.27-0.62-2.26,2.89-0.3,2.7v0.65c0,0.86-0.07,1.92-0.32,2.49c0-0.67,0.23-2-0.21-2.52c-0.43-0.51-1.41-0.38-1.91-0.86
							c-1.32-1.26,0.38-2.67,1.67-3c-0.04-0.47,0.06-1.64-0.19-2.03c-0.29-0.45-1.31-0.58-1.84-0.75c-0.79-0.25-1.31-0.6-1.71,0.08
							c-0.27,0.46-0.11,1.29-0.11,1.81C61.31,78.71,60.56,77.32,60.74,76.6z"/>
					</g>
					<g>
						<path class="st36" d="M94.54,78.92c0.39-0.28,5.29,0.1,7.11,0.45c0.54,0.1,1.15,0.12,1.43,0.64c0.28,0.51,0.63,1.53,0.75,2.07
							c0.05,0.22,0,0.92,0,0.92c-2.16-0.47-5.3-1.27-7.57-0.72c-0.99,0.24-2.68,2.43-2.84,2.47C93.44,84.57,94.14,79.21,94.54,78.92
							z"/>
						<g>
							<path class="st2" d="M103.17,84.69c0,0-0.95,1.71-4.54,1.71c-3.59,0-4.53-1.71-4.53-1.71s-0.37,0.18-0.47,0.06
								c-0.1-0.12,0.38-0.4,0.43-0.78c0.05-0.38,0.84-3.34,1.76-3.62c0.91-0.28,6.61-0.27,7.47,1
								C104.15,82.63,103.17,84.69,103.17,84.69z"/>
							<path class="st36" d="M103.84,82.48c-0.02-0.43-0.14-0.87-0.39-1.24c-0.04-0.06-0.08-0.11-0.13-0.15
								c-0.07-0.07-0.14-0.13-0.22-0.18c-0.09-0.06-0.18-0.12-0.28-0.17c-0.12-0.06-0.24-0.11-0.37-0.16
								c-0.09-0.03-0.19-0.06-0.29-0.09c-0.46-0.14-0.99-0.24-1.52-0.31c-0.14-0.02-0.29-0.04-0.43-0.06
								C99.15,80.01,98.17,80,97.82,80c-0.95,0-1.74,0.07-2.06,0.16c-0.8,0.25-1.44,2.04-1.73,3.08c-0.1,0.37-0.16,0.64-0.17,0.71
								c-0.01,0.14-0.14,0.29-0.25,0.41c-0.07,0.07-0.13,0.15-0.17,0.25l-0.01,0.01v0.01c0,0,0,0,0,0.01
								c-0.01,0.07-0.01,0.11-0.01,0.12c0,0.04,0.01,0.08,0.05,0.12c0.04,0.05,0.13,0.12,0.27,0.12c0.09,0,0.2-0.03,0.29-0.05
								c0.32,0.43,1.52,1.66,4.61,1.66c3.66,0,4.67-1.74,4.71-1.81c0.01-0.03,0.12-0.27,0.24-0.61c0.09-0.26,0.17-0.58,0.22-0.94
								v-0.03c0.01-0.06,0.01-0.14,0.01-0.2h0.01c0,0,0.01-0.12,0.01-0.27c0-0.01,0-0.04,0.01-0.06v-0.16
								C103.85,82.51,103.85,82.5,103.84,82.48z M103.44,82.92C103.44,82.92,103.44,82.92,103.44,82.92
								c-0.02,0.27-0.07,0.53-0.13,0.77c-0.13,0.53-0.31,0.91-0.32,0.92c0,0-0.95,1.6-4.35,1.6c-3.42,0-4.35-1.6-4.36-1.61
								l-0.09-0.17l-0.17,0.08c0.11-0.14,0.22-0.3,0.25-0.51c0.01-0.04,0.01-0.09,0.03-0.16c0.05-0.23,0.15-0.6,0.29-1
								c0.32-0.96,0.83-2.15,1.3-2.3c0.22-0.07,0.92-0.14,1.94-0.14c0.2,0,0.41,0,0.62,0.01h0.01c0.72,0.02,1.45,0.07,2.13,0.17
								c1.24,0.17,2.25,0.46,2.55,0.89C103.42,81.88,103.47,82.42,103.44,82.92z"/>
							<g>
								<g>
									<path class="st37" d="M96.72,82.86c0,1.44,1.17,2.6,2.6,2.6c1.44,0,2.6-1.17,2.6-2.6c0-1.44-1.17-2.6-2.6-2.6
										C97.89,80.26,96.72,81.42,96.72,82.86z"/>
								</g>
								<path class="st38" d="M99.15,82.86c0,0.6,0.49,1.09,1.09,1.09c0.6,0,1.09-0.49,1.09-1.09c0-0.6-0.49-1.09-1.09-1.09
									C99.64,81.77,99.15,82.26,99.15,82.86z"/>
								<path class="st2" d="M98.78,82.86c0,0.2,0.16,0.37,0.37,0.37c0.2,0,0.37-0.16,0.37-0.37c0-0.2-0.16-0.37-0.37-0.37
									C98.95,82.5,98.78,82.66,98.78,82.86z"/>
							</g>
							<path class="st39" d="M94.04,83.24c0.15-0.13,0.33-0.26,0.54-0.4c0.93-0.63,2.41-1.3,4.46-1.3c2.41,0,3.66,1.23,4.27,2.15
								c0.11,0.18,0.21,0.34,0.28,0.49c0.24-0.74,0.5-2.01-0.13-2.93c-0.8-1.18-4.83-1.24-5.64-1.24c-0.95,0-1.74,0.06-2.06,0.16
								C94.96,80.41,94.33,82.2,94.04,83.24z"/>
						</g>
					</g>
					<g>
						<path class="st36" d="M81.32,79.96c-0.39-0.28-5.29,0.1-7.11,0.45c-0.54,0.1-1.15,0.12-1.43,0.64
							c-0.28,0.51-0.63,1.53-0.75,2.07c-0.05,0.22,0,0.92,0,0.92c2.16-0.47,5.3-1.28,7.57-0.72c0.99,0.24,2.68,2.43,2.84,2.47
							C82.41,85.6,81.72,80.25,81.32,79.96z"/>
						<g>
							<path class="st2" d="M72.68,85.72c0,0,0.95,1.71,4.54,1.71c3.59,0,4.53-1.71,4.53-1.71s0.37,0.18,0.47,0.06
								c0.1-0.12-0.38-0.4-0.43-0.78c-0.05-0.38-0.84-3.34-1.76-3.62c-0.91-0.28-6.61-0.27-7.47,1
								C71.7,83.67,72.68,85.72,72.68,85.72z"/>
							<path class="st36" d="M82.42,85.66C82.42,85.65,82.42,85.65,82.42,85.66v-0.01l-0.01-0.01c-0.04-0.09-0.1-0.17-0.17-0.25
								c-0.11-0.12-0.24-0.27-0.25-0.41c-0.01-0.07-0.07-0.34-0.17-0.71c-0.29-1.03-0.92-2.83-1.73-3.08
								c-0.32-0.1-1.1-0.16-2.06-0.16c-0.8,0-4.84,0.06-5.63,1.23c-0.14,0.2-0.23,0.42-0.3,0.65c-0.01,0.05-0.03,0.11-0.04,0.17
								c-0.01,0.06-0.02,0.12-0.03,0.17c-0.01,0.06-0.02,0.12-0.02,0.17c-0.01,0.06-0.01,0.12-0.01,0.17c0,0.12,0,0.24,0.01,0.32
								c0.01,0.07,0.01,0.12,0.01,0.12h0.01c0.01,0.11,0.02,0.22,0.04,0.32c0.01,0.09,0.03,0.17,0.04,0.25
								c0.04,0.22,0.1,0.42,0.16,0.59c0.12,0.35,0.22,0.58,0.24,0.61c0.04,0.07,1.05,1.82,4.71,1.82c3.08,0,4.28-1.23,4.61-1.67
								c0.08,0.03,0.19,0.06,0.28,0.06c0.14,0,0.22-0.07,0.27-0.12c0.04-0.04,0.05-0.08,0.05-0.13
								C82.43,85.77,82.43,85.73,82.42,85.66z M81.58,85.62c-0.01,0.01-0.95,1.61-4.36,1.61c-3.41,0-4.35-1.6-4.35-1.6
								c-0.01-0.01-0.19-0.39-0.32-0.92c-0.06-0.23-0.11-0.49-0.13-0.77c-0.04-0.5,0.02-1.03,0.31-1.46c0.45-0.66,2.64-1,4.69-1.05
								c0,0,0.01,0,0.01,0c0.2-0.01,0.41-0.01,0.61-0.01c0.54,0,0.99,0.02,1.33,0.05c0.3,0.03,0.51,0.06,0.61,0.09
								c0.47,0.14,0.98,1.33,1.3,2.29c0.14,0.41,0.24,0.78,0.29,1.01c0.01,0.07,0.02,0.12,0.03,0.15c0.02,0.2,0.14,0.37,0.25,0.51
								l-0.17-0.09L81.58,85.62z"/>
							<g>
								<g>
									<path class="st37" d="M80.94,83.88c0,1.44-1.17,2.6-2.6,2.6c-1.44,0-2.6-1.17-2.6-2.6c0-1.44,1.17-2.6,2.6-2.6
										C79.78,81.28,80.94,82.44,80.94,83.88z"/>
								</g>
								<path class="st38" d="M80.09,83.88c0,0.6-0.49,1.09-1.09,1.09c-0.6,0-1.09-0.49-1.09-1.09c0-0.6,0.49-1.09,1.09-1.09
									C79.6,82.79,80.09,83.28,80.09,83.88z"/>
								<path class="st2" d="M78.34,83.95c0,0.2-0.16,0.37-0.37,0.37c-0.2,0-0.37-0.16-0.37-0.37c0-0.2,0.16-0.37,0.37-0.37
									C78.18,83.58,78.34,83.75,78.34,83.95z"/>
							</g>
							<path class="st39" d="M81.82,84.27c-0.15-0.13-0.33-0.26-0.54-0.4c-0.93-0.63-2.41-1.3-4.46-1.3c-2.41,0-3.66,1.23-4.27,2.15
								c-0.11,0.18-0.21,0.34-0.28,0.49c-0.24-0.74-0.5-2.01,0.13-2.93c0.8-1.18,4.83-1.24,5.64-1.24c0.95,0,1.74,0.06,2.06,0.16
								C80.9,81.44,81.53,83.24,81.82,84.27z"/>
						</g>
					</g>
					<g>
						<path class="st34" d="M92.77,78.42c2.36-1.05,8.02-0.99,9.71-0.95c0.31,0.01,0.49,0.02,0.49,0.02
							c-0.21-0.34-0.48-1.71-0.89-2.16c-0.45-0.5-1.48-0.77-2.15-0.98c-1.87-0.62-4-1.13-5.9-1.47c-0.54,1.04-0.72,2.22-0.88,3.38
							C93.05,76.99,92.95,77.73,92.77,78.42z"/>
						<g>
							<g>
								<path class="st35" d="M92.77,78.42c2.36-1.05,8.02-0.99,9.71-0.95c-0.62-0.19-1.23-0.33-1.64-0.44
									c-1.14-0.29-2.59-0.89-3.77-0.85c-0.11-0.45-0.14-0.91-0.25-1.35c-0.39,0.45-0.72,0.95-1.06,1.44
									c-0.05-0.48-0.13-1.01-0.4-1.35c-0.37,0.49-0.65,1.02-0.92,1.57c0-0.11-0.08-0.35-0.09-0.49c-0.38-0.01-0.79,0.09-1.2,0.25
									C93.05,76.99,92.95,77.73,92.77,78.42z"/>
							</g>
						</g>
					</g>
					<g>
						<path class="st34" d="M82.18,76.15c-2.36-1.05-8.02-0.99-9.71-0.94c-0.31,0.01-0.49,0.02-0.49,0.02
							c0.21-0.34,0.48-1.71,0.89-2.16c0.45-0.5,1.48-0.77,2.15-0.98c1.87-0.62,4-1.13,5.9-1.47c0.54,1.04,0.72,2.22,0.88,3.38
							C81.9,74.72,82,75.46,82.18,76.15z"/>
						<g>
							<g>
								<path class="st35" d="M82.18,76.15c-2.36-1.05-8.02-0.99-9.71-0.94c0.62-0.19,1.23-0.33,1.64-0.44
									c1.14-0.29,2.59-0.89,3.77-0.85c0.11-0.45,0.14-0.91,0.25-1.35c0.39,0.45,0.72,0.95,1.06,1.44c0.05-0.48,0.13-1.01,0.4-1.35
									c0.37,0.49,0.65,1.02,0.92,1.57c0-0.11,0.08-0.35,0.09-0.49c0.38-0.01,0.79,0.09,1.2,0.25C81.9,74.72,82,75.46,82.18,76.15z
									"/>
							</g>
						</g>
					</g>
					<path class="st33" d="M86.11,99c2.09,0.04,11.52,3.42,6.95-4.24c-1-1.68-1.78-8.46-1.59-10.59c0.13-1.45-0.08-3.03,0.22-4.43
						c0,0,0.35,8.3,1.74,11.74c0.72,1.78,1.48,3.54,2.35,5.26c0.44,0.88,0.64,1.11,0.24,2.03c-1.34,3.02-6.21,3.66-8.5,1.73
						c-0.39,0.35-0.94,0.57-1.43,0.81C85.52,100.72,85.71,99.64,86.11,99z"/>
					<path class="st33" d="M85.15,113.19c1.08,0.4,2.16,0.7,3.28,0.79c0.89,0.15,1.8,0.16,2.74-0.1c0.01,0,0.02-0.01,0.03-0.01
						c-0.33,0.48-0.8,0.94-1.33,1.32c-0.54,0.16-1.1,0.25-1.37,0.28c-0.96,0.12-1.78-0.22-2.49-0.78
						C85.71,114.19,85.42,113.7,85.15,113.19z"/>
					<g>
						<path class="st40" d="M76.88,101.72c0.84,0.72,1.45,1.67,1.99,2.74c0.49,0.98,0.88,2.01,1.3,3.02
							c0.54,1.29,1.43,1.84,2.47,2.15c1.38,0.14,2.75,0.42,4.11,0.65c1.75,0.29,3.82,0.98,5.59,0.42c1.15-0.74,1.88-2.25,2.76-3.37
							c0.83-1.06,1.98-2.3,3.31-2.85c-3.68-0.09-7.18-0.46-8.47-0.63c-3.7-0.48-7.29-0.95-10.95-1.71
							C78.38,102.01,77.62,101.9,76.88,101.72z"/>
						<g>
							<g>
								<path class="st2" d="M75.66,100.32c1.09,0.88,2.08,2.98,2.63,4.09c0.01,0.03,0.03,0.06,0.04,0.08v0
									c0.12,0.25,0.24,0.51,0.35,0.77c0.25,0.07,0.52,0.58,0.76,1.02c0.17,0.32,0.34,0.6,0.49,0.64c1.21,0.36,2.15,0.54,3.4,0.77
									c2.63,0.5,4.74,0.87,7.42,0.81c1.37-0.03,2.66-0.9,3.75-1.94l0,0c0.75-0.72,1.41-1.52,1.94-2.19
									c0.1-0.12,0.19-0.23,0.27-0.34c-0.45-0.01-0.9-0.04-1.35-0.07c-3.93-0.07-8-0.75-11.76-1.29c-1.42-0.2-2.83-0.45-4.23-0.77
									C78.26,101.7,76.8,100.56,75.66,100.32z"/>
							</g>
							<path class="st41" d="M91.17,107.31c0.78-0.19,4.62-2.28,5.24-3.09l0.05,0.14c-0.54,0.67-1.19,1.47-1.94,2.19l0,0
								c-1.09,1.04-2.38,1.91-3.75,1.94c-2.67,0.07-4.79-0.31-7.42-0.81c-1.25-0.23-2.19-0.4-3.4-0.77
								c-0.15-0.05-0.32-0.33-0.49-0.64c-0.25-0.44-0.51-0.95-0.76-1.02c-0.11-0.26-0.23-0.52-0.35-0.77
								C80.36,105.16,90.26,107.54,91.17,107.31z"/>
							<path class="st33" d="M100.27,103.38c-0.31-0.3-0.66-0.47-1.05-0.58c0.12,0.11,0.22,0.22,0.35,0.32
								c0.23,0.22,0.07,0.64-0.22,0.69c-0.84,0.17-1.73,0.22-2.61,0.21c-0.45-0.01-0.9-0.04-1.35-0.07
								c-0.06-0.01-0.12-0.01-0.17-0.01c-0.02,0-0.04,0-0.05-0.01c-17-1.46-18.36-4.07-18.93-4.54c0.28-0.35,0.91-0.52,1.29-0.65
								c-0.75,0.04-1.63-0.17-2.15,0.61c-0.35,0.51-0.19,1.24,0.02,1.73c-0.01-0.32,0.1-0.57,0.27-0.75
								c1.09,0.88,2.08,2.98,2.63,4.09c0.01,0.03,0.03,0.06,0.04,0.09c0.12,0.25,0.24,0.51,0.35,0.77c0.19,0.43,0.37,0.87,0.56,1.31
								c0.33,0.78,0.69,1.56,1.13,2.3c0.4,0.64,0.94,0.74,1.75,1c1.03,0.42,3.67,0.87,6.67,1.26c1.8,0.33,3.65,0.69,4.74-0.67
								c0.53-0.67,1.19-1.56,1.94-2.45c0.02-0.02,0.04-0.05,0.06-0.07c1.42-1.68,3.15-3.31,4.98-3.4c0.08,0.02,0.14,0.06,0.21,0.11
								C100.7,104.18,100.56,103.74,100.27,103.38z M98.04,104.65c-0.12,0.07-0.25,0.14-0.36,0.21c-0.07,0.04-0.14,0.09-0.22,0.14
								c-0.32,0.22-0.63,0.47-0.92,0.74c-0.13,0.12-0.26,0.25-0.38,0.38c-0.12,0.12-0.23,0.24-0.34,0.36
								c-0.13,0.14-0.25,0.28-0.37,0.43c-0.01,0.01-0.02,0.01-0.03,0.03c-0.01,0.01-0.02,0.02-0.03,0.04
								c-0.11,0.12-0.21,0.25-0.3,0.37c-0.88,1.12-1.62,2.62-2.77,3.36c-1.76,0.56-3.83-0.13-5.58-0.42
								c-1.36-0.23-2.73-0.51-4.11-0.65c-1.04-0.3-1.94-0.86-2.48-2.14c-0.08-0.19-0.15-0.37-0.22-0.56h-0.01v-0.01
								c-0.3-0.75-0.6-1.49-0.95-2.22c-0.04-0.08-0.07-0.16-0.12-0.24c-0.42-0.83-0.91-1.78-1.48-2.62v-0.01
								c-0.16-0.25-0.33-0.48-0.51-0.7c0.43,0.32,2.33,0.93,4.9,1.54c0.02,0.01,0.04,0.01,0.06,0.01c3.86,0.92,9.22,1.86,13.38,1.95
								h0.05c0.24,0.01,0.47,0.01,0.69,0.01c0.09,0,0.19,0,0.28-0.01c0.78-0.01,1.51-0.06,2.16-0.15
								C98.28,104.53,98.16,104.59,98.04,104.65z"/>
						</g>
					</g>
				</g>
				<path class="st28" d="M59.36,133.64c0,0,19.94,25.16,19.54,19.73c-0.26-3.56,0.28-9.5,2.38-12.37c3.03-4.15,6.9-7.02,6.9-7.02
					l-19.54-7.22l-2.09-0.99L59.36,133.64z"/>
				<path class="st2" d="M59.36,133.25c0,0,18.79,23.09,18.39,17.66c-0.26-3.56,1.43-7.04,3.53-9.9c3.03-4.15,6.9-7.02,6.9-7.02
					l-19.54-8.91l-2.09-0.99L59.36,133.25z"/>
				<path class="st28" d="M88.18,133.98c0,0,2.74,2.19,5.68,7.55c1.47,2.69,2.11,7.72,3.36,10.73c0.78,1.88,7.08-14.73,7.08-14.73
					l-6.51-7.44l-0.02,0.01L88.18,133.98z"/>
				<path class="st2" d="M88.18,133.98c0,0,3.2,2.8,5.8,6.9c1.64,2.59,3.04,5.69,3.24,8.94c0.24,3.9,7.51-13.31,7.51-13.31
					l-6.95-7.94l-0.02,0.01L88.18,133.98z"/>
			</g>
		</g>
	</g>
</g>
</svg>
