<?xml version="1.0" encoding="utf-8"?>
<!-- Generator: Adobe Illustrator 27.2.0, SVG Export Plug-In . SVG Version: 6.00 Build 0)  -->
<svg version="1.1" id="Layer_1" xmlns="http://www.w3.org/2000/svg" xmlns:xlink="http://www.w3.org/1999/xlink" x="0px" y="0px"
	 viewBox="0 0 171.51 171.51" style="enable-background:new 0 0 171.51 171.51;" xml:space="preserve">
<style type="text/css">
	.st0{fill:#F7F2DA;}
	.st1{fill:#FBA479;}
	.st2{fill:#FFFFFF;}
	.st3{fill:#E1DFEA;}
	.st4{fill:#261411;}
	.st5{fill:#60312B;}
	.st6{fill:#EF7950;}
	.st7{fill:#60281F;}
	.st8{fill:#E8E6E6;}
	.st9{fill:#3A2827;}
	.st10{fill:#CCCCCC;}
	.st11{fill:#595857;}
	.st12{fill:#F28C5F;}
	.st13{fill:#E26939;}
	.st14{fill:#56413D;}
	.st15{fill:#44322E;}
	.st16{fill:#873421;}
	.st17{fill:#EA6CA0;}
	.st18{fill:#DB5290;}
	.st19{fill:#F48656;}
	.st20{fill:#82112F;}
	.st21{fill:#D85039;}
	.st22{fill:#574984;}
	.st23{fill:#291C51;}
	.st24{fill:#FC5135;}
	.st25{fill:#FFCC7B;}
	.st26{fill:#E8A749;}
	.st27{fill:#6D4A44;}
	.st28{fill:#D1E3E8;}
	.st29{fill:#FCFBFA;}
	.st30{fill:#4C4C4B;}
	.st31{fill:#686868;}
	.st32{fill:#FFB884;}
	.st33{fill:#EF9C62;}
	.st34{fill:#874410;}
	.st35{fill:#6D340D;}
	.st36{fill:#E89258;}
	.st37{fill:#3A2E26;}
	.st38{fill:#4C3F35;}
	.st39{opacity:0.1;}
	.st40{fill:#60120F;}
	.st41{fill:#F4F0ED;}
	.st42{fill:#E0312D;}
	.st43{fill:#F42F2F;}
	.st44{fill:#D31111;}
	.st45{fill:#DB9B19;}
	.st46{fill:#AF740B;}
	.st47{fill:#CC2121;}
	.st48{fill:#F74B4B;}
	.st49{fill:#FCF9E8;}
	.st50{opacity:0.5;fill:#827571;}
	.st51{fill:#665D5C;}
	.st52{fill:#4F4746;}
	.st53{fill:#5E3B2F;}
	.st54{fill:#492E27;}
	.st55{opacity:0.4;}
	.st56{fill:#443A36;}
	.st57{fill:#51415E;}
	.st58{fill:#066FB7;}
	.st59{fill:#066396;}
	.st60{fill:#0D8FD6;}
	.st61{fill:#FEAC74;}
	.st62{fill:#E3784C;}
	.st63{fill:#580801;}
	.st64{fill:#440502;}
	.st65{fill:#00ABB2;}
	.st66{fill:#008C8C;}
	.st67{fill:#914E34;}
	.st68{fill:#5B2E1D;}
	.st69{fill:#6A3221;}
	.st70{fill:#FAFAFC;}
	.st71{fill:#2B3B3F;}
	.st72{fill:#3F565B;}
	.st73{fill:#EF7348;}
	.st74{fill:#6F3D26;}
	.st75{fill:#BBBEBF;}
	.st76{fill:#D3D3D3;}
	.st77{fill:#939A9E;}
	.st78{fill:#F79C5E;}
	.st79{fill:#E07832;}
	.st80{fill:#604135;}
	.st81{fill:#EFEAE8;}
	.st82{fill:#4F3229;}
	.st83{fill:#1A3D3A;}
	.st84{fill:#E8E8E8;}
	.st85{fill:#0C83C4;}
	.st86{fill:#1B96EA;}
	.st87{fill:#B50F0F;}
	.st88{opacity:0.4;fill:#E89258;}
	.st89{fill:#26ACF7;}
	.st90{fill:#F45347;}
	.st91{fill:#FF3939;}
	.st92{fill:#686766;}
	.st93{fill:#5E5D5B;}
	.st94{fill:#424140;}
	.st95{fill:#E7E1CB;}
	.st96{fill:#D6CFBA;}
	.st97{fill:#CE5C37;}
	.st98{fill:#B74D30;}
	.st99{fill:#1B313D;}
	.st100{fill:#36474F;}
	.st101{fill:#29526D;}
	.st102{fill:#FCBD88;}
	.st103{fill:#FCA265;}
	.st104{fill:#496B7A;}
	.st105{fill:#B76049;}
	.st106{fill:#EDEDED;}
	.st107{fill:#7C7979;}
	.st108{fill:#EFE6E8;}
	.st109{fill:#B20D28;}
	.st110{fill:#346682;}
	.st111{fill:#AA0E28;}
	.st112{fill:#FF5050;}
	.st113{fill:#781A0E;}
	.st114{fill:#560904;}
	.st115{fill:#FF0B40;}
	.st116{fill:#BC0000;}
	.st117{fill:#FFD731;}
	.st118{fill:#EA6453;}
	.st119{fill:#602618;}
	.st120{fill:#A14F2A;}
	.st121{fill:#3A4E66;}
	.st122{fill:#EAE9EE;}
	.st123{opacity:0.3;fill:#3A4E66;}
	.st124{fill:#5E2701;}
	.st125{fill:#773000;}
	.st126{fill:#EA2F4A;}
	.st127{fill:#C41234;}
	.st128{fill:#F7F0F1;}
	.st129{fill:#F7A76F;}
	.st130{fill:#B24800;}
	.st131{fill:#8C3B03;}
	.st132{fill:#567391;}
	.st133{fill:#FF7271;}
	.st134{fill:#F75E5E;}
	.st135{fill:#700F28;}
	.st136{fill:#9E1533;}
	.st137{fill:#871231;}
	.st138{fill:#211B3A;}
	.st139{fill:#2E2951;}
	.st140{fill:#F28670;}
	.st141{fill:#F46060;}
	.st142{fill:#EBBF44;}
	.st143{fill:#E0A91E;}
	.st144{fill:#FFA992;}
	.st145{fill:#2C363F;}
	.st146{fill:#1D262D;}
	.st147{fill-rule:evenodd;clip-rule:evenodd;fill:#FFF5F5;}
	.st148{opacity:0.2;}
	.st149{fill:#7C4949;}
	.st150{fill:#F9AE7A;}
	.st151{fill:#FFF5F5;}
	.st152{fill:#C92727;}
	.st153{fill:#4C1B05;}
	.st154{fill:#592009;}
	.st155{opacity:0.4;fill:#592009;}
	.st156{fill:#3F1307;}
	.st157{fill:#664472;}
	.st158{fill:#473051;}
	.st159{fill:#352020;}
	.st160{opacity:0.3;fill:#7C4949;}
</style>
<g>
	<path class="st0" d="M151.68,127.41c-4.17,6.61-9.18,12.36-14.78,17.24c-0.62,0.53-1.24,1.06-1.88,1.57
		c-0.27,0.22-0.53,0.43-0.8,0.64c-1.39,1.11-2.82,2.17-4.27,3.16c-1.2,0.82-2.42,1.61-3.65,2.36c-1.08,0.66-2.17,1.29-3.29,1.89
		c-0.3,0.17-0.61,0.33-0.94,0.49c-0.03,0.01-0.06,0.04-0.1,0.05c-1.66,0.87-3.36,1.69-5.08,2.43c-1.18,0.52-2.38,1-3.58,1.44
		c-0.25,0.11-0.51,0.19-0.76,0.29c-0.14,0.05-0.27,0.1-0.42,0.15c-0.09,0.04-0.19,0.07-0.29,0.11c-1.16,0.41-2.33,0.79-3.5,1.15
		c-0.08,0.03-0.15,0.04-0.23,0.07c-2.4,0.71-4.83,1.31-7.29,1.81c-2.79,0.55-5.61,0.95-8.44,1.18c-0.48,0.05-0.94,0.08-1.42,0.11
		c-0.47,0.04-0.94,0.07-1.41,0.08c-0.75,0.05-1.49,0.07-2.25,0.08c-0.16,0.01-0.32,0.01-0.47,0.01c-0.21,0.01-0.42,0.01-0.63,0.01
		c-0.17,0.01-0.33,0.01-0.51,0.01c-0.33,0-0.67-0.01-1-0.01c-1.86-0.02-3.71-0.12-5.56-0.27c-0.22-0.02-0.44-0.04-0.66-0.07
		c-2.39-0.22-4.77-0.55-7.15-1c-0.18-0.04-0.37-0.07-0.56-0.11c-0.17-0.03-0.33-0.06-0.5-0.09c-0.06-0.01-0.12-0.04-0.18-0.04
		c-0.28-0.06-0.56-0.12-0.85-0.18c-3.22-0.69-6.41-1.6-9.57-2.72c-0.48-0.17-0.97-0.35-1.45-0.53c-0.86-0.33-1.72-0.66-2.57-1.03
		c-0.01-0.01-0.03-0.01-0.04-0.02c-0.43-0.17-0.84-0.35-1.27-0.54c-0.1-0.04-0.19-0.09-0.29-0.14c-0.62-0.27-1.23-0.56-1.85-0.84
		c-0.63-0.31-1.25-0.61-1.87-0.94c-0.05-0.02-0.11-0.05-0.16-0.08c-0.32-0.16-0.65-0.34-0.97-0.51c-0.03-0.01-0.06-0.03-0.09-0.05
		c-0.05-0.02-0.09-0.05-0.14-0.08c-0.34-0.17-0.67-0.35-1-0.53c-0.19-0.11-0.39-0.22-0.58-0.33c-0.45-0.25-0.9-0.51-1.35-0.78
		c-0.19-0.12-0.38-0.22-0.57-0.35c-0.07-0.04-0.14-0.08-0.22-0.13c-0.27-0.17-0.55-0.33-0.82-0.5c-0.12-0.07-0.23-0.14-0.35-0.22
		c-0.4-0.25-0.81-0.51-1.2-0.78c-0.07-0.05-0.15-0.1-0.22-0.15l-0.07-0.04c-0.01-0.01-0.02-0.01-0.03-0.01
		c-0.21-0.13-0.4-0.26-0.6-0.41c-0.27-0.17-0.53-0.34-0.78-0.53c-0.03-0.01-0.06-0.04-0.09-0.06c-0.11-0.08-0.21-0.15-0.31-0.22
		c-0.26-0.18-0.51-0.35-0.77-0.53c-0.02-0.01-0.04-0.03-0.05-0.04c-0.61-0.43-1.2-0.87-1.78-1.33c-0.38-0.29-0.76-0.58-1.13-0.87
		c-0.45-0.36-0.9-0.73-1.34-1.1c-0.07-0.06-0.14-0.12-0.21-0.17c-0.62-0.51-1.23-1.05-1.83-1.6c-0.48-0.42-0.95-0.85-1.41-1.29
		c-1.23-1.14-2.4-2.32-3.54-3.53c-0.01-0.01-0.03-0.02-0.04-0.04c-0.87-0.92-1.7-1.86-2.51-2.82c-1.17-1.39-2.3-2.82-3.37-4.28
		c-0.87-1.2-1.73-2.42-2.53-3.66c-0.01-0.03-0.02-0.04-0.04-0.07c-0.87-1.34-1.7-2.7-2.47-4.09c-0.09-0.15-0.19-0.32-0.27-0.5
		c-0.55-0.96-1.05-1.94-1.55-2.93c-0.33-0.66-0.64-1.3-0.95-1.96c-1.06-2.3-2.01-4.64-2.85-7.03c-0.38-1.1-0.75-2.21-1.08-3.34
		c-0.03-0.09-0.06-0.17-0.08-0.27c-0.06-0.23-0.14-0.45-0.21-0.69c-0.18-0.63-0.35-1.26-0.52-1.89
		c-5.25-20.15-2.47-42.35,9.54-61.34C42.84,7.68,91.01-3.18,127.41,19.83C163.83,42.83,174.69,91,151.68,127.41z"/>
	<g>
		<g>
			<g>
				<path class="st10" d="M126.3,152.39c-1.08,0.66-2.17,1.29-3.29,1.89c-0.3,0.17-0.61,0.33-0.94,0.49
					c-0.03,0.01-0.06,0.04-0.1,0.05c-1.66,0.87-3.36,1.69-5.08,2.43c-1.18,0.52-2.38,1-3.58,1.44c-0.25,0.11-0.51,0.19-0.76,0.29
					c-0.14,0.05-0.27,0.1-0.42,0.15c-0.09,0.04-0.19,0.07-0.29,0.11c-1.16,0.41-2.33,0.79-3.5,1.15c-0.08,0.03-0.15,0.04-0.23,0.07
					c-2.4,0.71-4.83,1.31-7.29,1.81c-2.79,0.55-5.61,0.95-8.44,1.18c-0.48,0.05-0.94,0.08-1.42,0.11c-0.47,0.04-0.94,0.07-1.41,0.08
					c-0.75,0.05-1.49,0.07-2.25,0.08c-0.16,0.01-0.32,0.01-0.47,0.01c-0.21,0.01-0.42,0.01-0.63,0.01
					c-0.17,0.01-0.33,0.01-0.51,0.01c-0.33,0-0.67-0.01-1-0.01c-1.86-0.02-3.71-0.12-5.56-0.27c-0.22-0.02-0.44-0.04-0.66-0.07
					c-2.39-0.22-4.77-0.55-7.15-1c-0.18-0.04-0.37-0.07-0.56-0.11c-0.17-0.03-0.33-0.06-0.5-0.09c-0.06-0.01-0.12-0.04-0.18-0.04
					c-0.28-0.06-0.56-0.12-0.85-0.18c-3.22-0.69-6.41-1.6-9.57-2.72c-0.48-0.17-0.97-0.35-1.45-0.53c-0.86-0.33-1.72-0.66-2.57-1.03
					c-0.01-0.01-0.03-0.01-0.04-0.02c-0.43-0.17-0.84-0.35-1.27-0.54c-0.1-0.04-0.19-0.09-0.29-0.14c-0.62-0.27-1.23-0.56-1.85-0.84
					c-0.63-0.31-1.25-0.61-1.87-0.94c-0.05-0.02-0.11-0.05-0.16-0.08c-0.32-0.16-0.65-0.34-0.97-0.51
					c-0.03-0.01-0.06-0.03-0.09-0.05c-0.05-0.02-0.09-0.05-0.14-0.08c-0.34-0.17-0.67-0.35-1-0.53c-0.19-0.11-0.39-0.22-0.58-0.33
					c-0.45-0.25-0.9-0.51-1.35-0.78c-0.19-0.12-0.38-0.22-0.57-0.35c-0.07-0.04-0.14-0.08-0.22-0.13c-0.27-0.17-0.55-0.33-0.82-0.5
					c-0.12-0.07-0.23-0.14-0.35-0.22c-0.4-0.25-0.81-0.51-1.2-0.78c0.01-0.24,0.04-0.46,0.05-0.69c0.07-0.87,0.17-1.66,0.29-2.39
					c7.42-3.47,15.54-10.63,23.4-14.03c0.64-0.28,1.29-0.53,1.92-0.76c0.54-0.2,1.08-0.36,1.61-0.51l14.25-3.37
					c5.24-0.9,9.78-1.16,13.94-0.9c0.01,0,0.01,0,0.01,0c1.62,0.1,3.19,0.28,4.72,0.53c7.6,1.26,13.05,3.3,21.1,7.15
					c0.01,0.01,0.03,0.01,0.04,0.01c0.25,0.12,0.51,0.25,0.77,0.37c0.03,0.02,0.07,0.04,0.09,0.06
					C126.18,137.22,126.54,143.25,126.3,152.39z"/>
			</g>
			<g>
				<path class="st11" d="M103.09,128.8c-2.68,11.92-16.49,30-21.43,33.03c-1.07,0.66-2.12,1.21-3.17,1.58
					c-2.39-0.22-4.77-0.55-7.15-1c-0.18-0.04-0.37-0.07-0.56-0.11c-4.58-4.35-6.4-18.77-4.15-28.51c0.64-0.28,1.29-0.53,1.92-0.76
					c0.54-0.2,1.08-0.36,1.61-0.51l14.25-3.37c5.24-0.9,9.78-1.16,13.94-0.9c0.01,0,0.01,0,0.01,0
					C100,128.36,101.56,128.54,103.09,128.8z"/>
				<g>
					<g>
						<path class="st12" d="M75.1,160.61c-11.64-0.26-4.94-43.23-4.61-45.26c1.22-7.4-1.47-19.86-1.47-19.86l27.52,0.62
							c0,0-2.89,10.99-2.47,18.48c0.15,2.62,0.31,14.11,5.77,13.94C101.57,128.48,86.74,160.87,75.1,160.61z"/>
						<path class="st13" d="M94.07,114.59c-2.77,1.57-5.82,2.76-9.01,3.65c-1.4,0.39-2.75,0.6-4.06,0.67
							c-1.31-0.12-2.65-0.4-4.03-0.85c-2.25-0.74-4.43-1.64-6.48-2.71c1.22-7.4-1.47-19.86-1.47-19.86l27.52,0.62
							C96.54,96.11,93.65,107.1,94.07,114.59z"/>
					</g>
					<path class="st12" d="M103.5,91.54c-0.08-12.19-1.12-24.52-1.2-36.25c0,0-10.17-7.65-11.82-8.29c-1.03-0.4-2.11-0.71-3.2-0.91
						c-1.11-0.03-2.22,0.04-3.32,0.22c-1.75,0.29-13.3,5.63-13.3,5.63c-2.53,11.45-6.54,23.61-9.17,35.51
						c-1.07,4.85-0.55,10.31,2.23,14.68c3.11,4.88,7.69,8.23,12.83,10.61c1.19,0.55,2.37,0.92,3.53,1.14
						c1.18,0.03,2.41-0.08,3.69-0.37c5.52-1.25,10.71-3.56,14.77-7.68C102.19,102.13,103.53,96.51,103.5,91.54z"/>
					<g>
						<path class="st13" d="M77.53,79.15c-0.14,0.03-0.28,0.05-0.42,0.08c-0.14,0.02-0.27,0.05-0.41,0.07
							c-0.12,0.02-0.24,0.04-0.36,0.05c-0.1,0.01-0.19,0.02-0.29,0.03c-0.1,0.01-0.21,0.02-0.3,0.03c-0.2,0.02-0.39,0.03-0.58,0.04
							c-0.24,0.02-0.48,0.02-0.71,0.02c-0.12,0-0.23,0-0.34,0c-0.11,0-0.22,0-0.33-0.01c-0.02,0-0.04,0-0.06,0
							c-0.29-0.02-0.58-0.04-0.85-0.07c-0.01,0-0.02,0-0.03,0c-0.2-0.03-0.39-0.06-0.58-0.09c-0.28-0.05-0.55-0.11-0.81-0.18
							c-0.08-0.02-0.17-0.05-0.25-0.07c-0.08-0.03-0.16-0.05-0.24-0.08c-0.24-0.08-0.47-0.17-0.69-0.26
							c-0.07-0.03-0.14-0.06-0.21-0.1c-0.07-0.03-0.14-0.07-0.21-0.1c-0.07-0.03-0.13-0.07-0.2-0.1c-0.06-0.04-0.13-0.07-0.19-0.11
							c-0.21-0.12-0.41-0.25-0.6-0.38c-0.04-0.02-0.07-0.05-0.1-0.07c-0.05-0.04-0.11-0.08-0.16-0.12c-0.11-0.08-0.2-0.16-0.3-0.24
							c-0.09-0.08-0.18-0.16-0.27-0.24c-0.05-0.04-0.08-0.08-0.12-0.12c-0.04-0.04-0.08-0.08-0.12-0.12
							c-0.07-0.07-0.14-0.15-0.2-0.22c-0.01-0.01-0.01-0.01-0.02-0.02c-0.11-0.12-0.2-0.24-0.29-0.35
							c-0.06-0.08-0.12-0.15-0.17-0.23c-0.05-0.07-0.1-0.15-0.15-0.21c-0.05-0.07-0.09-0.14-0.13-0.2
							c-0.02-0.03-0.04-0.06-0.05-0.09c-0.25-0.43-0.35-0.72-0.35-0.72c1.85-2.12,4.86-5.24,8.11-3.33
							C77.14,73.11,76.25,76.15,77.53,79.15z"/>
						<path class="st13" d="M74.44,72.89c-3.25-1.91-6.12-0.08-7.97,2.05c0,0,0.25,8.95,11.07,4.21
							C76.25,76.15,77.01,74.39,74.44,72.89z"/>
						<path class="st2" d="M77.53,79.15c-0.14,0.03-0.28,0.05-0.42,0.08c-0.14,0.02-0.27,0.05-0.41,0.07
							c-0.12,0.02-0.24,0.04-0.36,0.05c-0.1,0.01-0.19,0.02-0.29,0.03c-0.1,0.01-0.21,0.02-0.3,0.03c-0.2,0.02-0.39,0.03-0.58,0.04
							c-0.15,0.01-0.3,0.02-0.45,0.02c-0.09,0-0.17,0-0.25,0c-0.12,0-0.23,0-0.34,0c-0.11,0-0.22,0-0.33-0.01c-0.02,0-0.04,0-0.06,0
							c-0.29-0.02-0.58-0.04-0.85-0.07c-0.01,0-0.02,0-0.03,0c-0.2-0.03-0.39-0.06-0.58-0.09c-0.28-0.05-0.55-0.11-0.81-0.18
							c-0.08-0.02-0.17-0.05-0.25-0.07c-0.08-0.03-0.16-0.05-0.24-0.08c-0.24-0.08-0.47-0.17-0.69-0.26
							c-0.07-0.03-0.14-0.06-0.21-0.1c-0.05-0.02-0.1-0.04-0.14-0.07c-0.02-0.01-0.04-0.02-0.06-0.03c-0.07-0.03-0.13-0.07-0.2-0.1
							c-0.06-0.04-0.13-0.07-0.19-0.11c-0.21-0.12-0.41-0.25-0.6-0.38c-0.04-0.02-0.07-0.05-0.1-0.07
							c-0.05-0.04-0.11-0.08-0.16-0.12c-0.11-0.08-0.2-0.16-0.3-0.24c-0.09-0.08-0.18-0.16-0.27-0.24
							c-0.05-0.04-0.08-0.08-0.12-0.12c-0.04-0.04-0.08-0.08-0.12-0.12c-0.07-0.07-0.14-0.15-0.2-0.22
							c-0.01-0.01-0.01-0.01-0.02-0.02c-0.1-0.12-0.2-0.24-0.29-0.35c-0.06-0.08-0.12-0.15-0.17-0.23c-0.05-0.07-0.1-0.15-0.15-0.21
							c-0.05-0.07-0.09-0.14-0.13-0.2c-0.02-0.03-0.04-0.06-0.05-0.09c-0.25-0.43-0.35-0.72-0.35-0.72
							c1.85-2.12,4.86-5.24,8.11-3.33C77.14,73.11,76.25,76.15,77.53,79.15z"/>
						<g>
							<path class="st14" d="M74.69,75.07c-0.31,2.21-1.87,3.81-3.49,3.58c-1.61-0.23-2.67-2.2-2.35-4.41
								c0.31-2.21,1.87-3.81,3.49-3.58C73.95,70.9,75,72.87,74.69,75.07z"/>
							<path class="st15" d="M73.37,74.39c-0.17,1.19-1.04,2.05-1.95,1.92c-0.91-0.13-1.51-1.2-1.34-2.39
								c0.17-1.19,1.04-2.05,1.95-1.92C72.94,72.13,73.54,73.2,73.37,74.39z"/>
							<path class="st2" d="M69.27,71.3c0.09-0.41,1.49-0.78,1.49-0.78l0.5,3.42C71.26,73.94,69.09,72.11,69.27,71.3z"/>
						</g>
						<path class="st13" d="M77.53,79.15c-1.28-2.99-0.39-6.04-2.96-7.54c-3.25-1.91-6.26,1.21-8.11,3.33
							c1.56-3.62,5.07-10.67,8.32-8.77C77.36,67.68,78.04,74.36,77.53,79.15z"/>
					</g>
					<g>
						<path class="st13" d="M87.98,79.02c0.12,0.08,0.24,0.15,0.36,0.23c0.12,0.07,0.24,0.14,0.35,0.21
							c0.11,0.06,0.21,0.12,0.31,0.18c0.09,0.05,0.17,0.09,0.25,0.14c0.09,0.05,0.18,0.1,0.27,0.14c0.18,0.09,0.35,0.18,0.52,0.26
							c0.22,0.1,0.44,0.2,0.65,0.28c0.11,0.04,0.21,0.08,0.32,0.12c0.1,0.04,0.21,0.08,0.31,0.11c0.02,0.01,0.04,0.01,0.06,0.02
							c0.28,0.09,0.55,0.18,0.82,0.25c0.01,0,0.02,0,0.03,0.01c0.19,0.05,0.39,0.09,0.57,0.13c0.28,0.06,0.55,0.1,0.82,0.13
							c0.09,0.01,0.18,0.02,0.26,0.02c0.09,0.01,0.17,0.01,0.26,0.02c0.25,0.01,0.5,0.02,0.74,0.01c0.08,0,0.16-0.01,0.23-0.01
							c0.07,0,0.15-0.01,0.23-0.02c0.07,0,0.15-0.01,0.22-0.02c0.07-0.01,0.15-0.02,0.22-0.03c0.24-0.04,0.47-0.08,0.69-0.14
							c0.04-0.01,0.08-0.02,0.12-0.03c0.06-0.02,0.13-0.03,0.19-0.05c0.13-0.03,0.25-0.07,0.36-0.12c0.12-0.04,0.23-0.08,0.34-0.13
							c0.06-0.02,0.11-0.04,0.16-0.07c0.06-0.02,0.11-0.05,0.16-0.07c0.09-0.04,0.18-0.09,0.27-0.13c0.01,0,0.02-0.01,0.02-0.01
							c0.14-0.07,0.27-0.15,0.4-0.22c0.09-0.05,0.16-0.1,0.24-0.15c0.08-0.05,0.15-0.1,0.21-0.14c0.07-0.05,0.13-0.1,0.19-0.14
							c0.03-0.02,0.06-0.04,0.08-0.07c0.39-0.31,0.59-0.54,0.59-0.54c-0.94-2.65-2.59-6.66-6.31-6.08
							C90.57,73.55,90.28,76.71,87.98,79.02z"/>
						<path class="st13" d="M93.17,74.34c3.73-0.57,5.72,2.18,6.66,4.84c0,0-3.53,8.23-11.84-0.16
							C90.27,76.71,90.22,74.79,93.17,74.34z"/>
						<path class="st2" d="M87.98,79.02c0.12,0.08,0.24,0.15,0.36,0.23c0.12,0.07,0.24,0.14,0.35,0.21
							c0.11,0.06,0.21,0.12,0.31,0.18c0.09,0.05,0.17,0.09,0.25,0.14c0.09,0.05,0.18,0.1,0.27,0.14c0.18,0.09,0.35,0.18,0.52,0.26
							c0.14,0.07,0.28,0.13,0.41,0.19c0.08,0.03,0.16,0.07,0.23,0.1c0.11,0.04,0.21,0.08,0.32,0.12c0.1,0.04,0.21,0.08,0.31,0.11
							c0.02,0.01,0.04,0.01,0.06,0.02c0.28,0.09,0.55,0.18,0.82,0.25c0.01,0,0.02,0,0.03,0.01c0.19,0.05,0.39,0.09,0.57,0.13
							c0.28,0.06,0.55,0.1,0.82,0.13c0.09,0.01,0.18,0.02,0.26,0.02c0.09,0.01,0.17,0.01,0.26,0.02c0.25,0.01,0.5,0.02,0.74,0.01
							c0.08,0,0.16-0.01,0.23-0.01c0.05,0,0.11-0.01,0.16-0.01c0.02,0,0.05,0,0.07-0.01c0.07,0,0.15-0.01,0.22-0.02
							c0.07-0.01,0.15-0.02,0.22-0.03c0.24-0.04,0.47-0.08,0.69-0.14c0.04-0.01,0.08-0.02,0.12-0.03c0.06-0.02,0.13-0.03,0.19-0.05
							c0.13-0.03,0.25-0.07,0.36-0.12c0.12-0.04,0.23-0.08,0.34-0.13c0.06-0.02,0.11-0.04,0.16-0.07c0.06-0.02,0.11-0.05,0.16-0.07
							c0.1-0.04,0.18-0.09,0.27-0.13c0.01,0,0.02-0.01,0.02-0.01c0.14-0.07,0.27-0.14,0.4-0.22c0.09-0.05,0.16-0.1,0.24-0.15
							c0.08-0.05,0.15-0.1,0.21-0.14c0.07-0.05,0.13-0.1,0.19-0.14c0.03-0.02,0.06-0.04,0.08-0.07c0.39-0.31,0.59-0.54,0.59-0.54
							c-0.94-2.65-2.59-6.66-6.31-6.08C90.57,73.55,90.28,76.71,87.98,79.02z"/>
						<g>
							<path class="st14" d="M92.13,76.28c-0.52,2.17,0.34,4.23,1.92,4.61c1.58,0.38,3.29-1.06,3.81-3.23
								c0.52-2.17-0.34-4.23-1.92-4.61C94.35,72.67,92.65,74.12,92.13,76.28z"/>
							<path class="st15" d="M93.6,76.13c-0.28,1.17,0.21,2.29,1.11,2.51c0.89,0.22,1.85-0.56,2.13-1.73
								c0.28-1.17-0.21-2.29-1.11-2.51C94.84,74.19,93.88,74.96,93.6,76.13z"/>
							<path class="st2" d="M98.56,74.77c0.06-0.41-1.1-1.27-1.1-1.27l-1.72,3C95.73,76.49,98.43,75.59,98.56,74.77z"/>
						</g>
						<path class="st13" d="M87.98,79.02c2.29-2.31,2.59-5.47,5.53-5.92c3.72-0.58,5.38,3.43,6.31,6.08
							c-0.11-3.94-0.78-11.79-4.51-11.21C92.37,68.42,89.27,74.38,87.98,79.02z"/>
					</g>
					<g>
						<path class="st16" d="M95.47,93.18c-2.01,3.22-9.56,10.03-15.22,9.6c-4.37-0.33-9.5-7.65-11.16-10.2
							c1.7,0.29,4.77,0.55,6.3,0.66C77.09,93.37,90.91,94.38,95.47,93.18z"/>
						<g>
							<path class="st2" d="M90.48,97.29c-0.49,0.85-1.17,1.75-1.93,2.42c-0.2,0.18-0.4,0.36-0.6,0.55c-0.5,0.45-1,0.92-1.53,1.36
								c-2.07,1.08-4.22,1.74-6.19,1.59c-1.85-0.14-3.79-1.43-5.57-3.1l-0.11-0.32c-0.2-0.23-0.35-0.49-0.47-0.77
								c-0.32-0.72-0.43-1.55-0.68-2.27C74.43,96.84,89.74,97.23,90.48,97.29z"/>
							<g>
								<path class="st2" d="M93.42,93.1c-0.8,1.72-1.78,3.8-3.05,4.47c-0.29,0.15-1.81,0.27-3.82,0.32
									c-4.53,0.12-11.6-0.11-12.92-1.12c-1.02-0.79-1.84-2.42-2.45-3.99c-0.05-0.12-0.09-0.24-0.14-0.36
									c0.17,0.02,0.35,0.04,0.54,0.06c0.66,0.07,1.39,0.14,2.19,0.21C79.65,93.2,88.67,93.62,93.42,93.1z"/>
								<path class="st8" d="M90.38,97.57c-1.01,0.3-15.42,0.21-16.74-0.8c-1.02-0.79-1.84-2.42-2.45-3.99l0.4-0.3
									c0.66,0.07,1.39,0.14,2.19,0.21c0.13,0.97,0.37,1.99,0.65,2.86c0.15,0.46,0.12,0.46,0.48,0.66
									C75.46,96.51,88.71,97.43,90.38,97.57z"/>
							</g>
						</g>
						<path class="st13" d="M78.51,93.45C78.51,93.45,78.51,93.46,78.51,93.45l0.03,0.01C78.53,93.45,78.52,93.45,78.51,93.45z
							 M78.51,93.45C78.51,93.45,78.51,93.46,78.51,93.45l0.03,0.01C78.53,93.45,78.52,93.45,78.51,93.45z M95.89,92.61L95.89,92.61
							c-0.56,0.22-1.41,0.38-2.47,0.49c-0.19,0.02-0.39,0.04-0.6,0.06c-0.05,0-0.09,0.01-0.15,0.01c-0.05,0.01-0.1,0.01-0.15,0.01
							c-0.11,0.01-0.22,0.01-0.33,0.02c-0.16,0.01-0.32,0.02-0.49,0.03c-0.02,0.01-0.04,0.01-0.07,0.01h-0.08
							c-0.05,0.01-0.1,0.01-0.15,0.01c-0.04,0-0.08,0.01-0.12,0.01s-0.09,0.01-0.14,0.01h-0.04c-0.02,0-0.04,0.01-0.07,0.01
							c-0.04,0-0.07,0-0.12,0.01h-0.1c-0.12,0-0.25,0.01-0.38,0.01c-0.15,0.01-0.3,0.01-0.45,0.01h-0.01
							c-0.12,0.01-0.25,0.01-0.38,0.01c-0.06,0-0.14,0.01-0.2,0.01h-0.3c-0.09,0.01-0.17,0.01-0.26,0.01H88.2
							c-0.01,0-0.02,0-0.03,0.01c-0.01,0-0.02-0.01-0.04,0H87.6c-0.13,0-0.25,0-0.38-0.01h-0.27c-0.16,0.01-0.32,0.01-0.48,0h-0.01
							c-0.17-0.01-0.34-0.01-0.51-0.01c-0.09,0-0.17-0.01-0.25-0.01c-0.25,0-0.51-0.01-0.77-0.01c-0.21,0-0.42-0.01-0.63-0.01
							c-0.17-0.01-0.35-0.01-0.52-0.01c-0.14-0.01-0.28-0.01-0.43-0.01c-0.13-0.01-0.26-0.01-0.4-0.01c-0.09,0-0.17-0.01-0.25-0.01
							c-0.21-0.01-0.42-0.02-0.64-0.03c-0.07,0-0.15,0-0.22-0.01c-0.05,0-0.1-0.01-0.15-0.01h-0.07c-0.22-0.01-0.43-0.02-0.64-0.03
							c-0.15-0.01-0.3-0.01-0.45-0.02c-0.12-0.01-0.22-0.01-0.34-0.02c-0.27-0.01-0.54-0.03-0.82-0.04
							c-0.35-0.02-0.7-0.04-1.04-0.06c-0.28-0.01-0.56-0.04-0.83-0.05c-0.05,0-0.1-0.01-0.15-0.01c-0.09-0.01-0.18-0.01-0.27-0.02
							c-0.09,0-0.17-0.01-0.27-0.02h-0.06c-0.22-0.01-0.44-0.03-0.66-0.05h-0.01c-0.01,0-0.01,0-0.01,0s-0.01,0-0.01,0
							c-0.01-0.01-0.01-0.01-0.02-0.01c-0.08,0-0.17-0.01-0.25-0.01c-0.05-0.01-0.09-0.01-0.14-0.01c-0.05,0-0.09-0.01-0.14-0.01
							c-0.17-0.01-0.35-0.02-0.51-0.04c-0.17-0.01-0.33-0.03-0.5-0.04c-0.25-0.01-0.48-0.04-0.71-0.06h-0.01
							c-0.16-0.01-0.31-0.03-0.46-0.04c-0.05,0-0.09-0.01-0.14-0.01c-0.09-0.01-0.17-0.01-0.25-0.03c-0.02,0-0.04-0.01-0.07-0.01
							c-0.01,0-0.04,0-0.05-0.01c-0.03,0-0.05,0-0.08-0.01c-0.03,0-0.06,0-0.09-0.01h-0.07c-0.06-0.01-0.13-0.01-0.2-0.02
							c-0.18-0.02-0.36-0.04-0.54-0.05c-0.07-0.01-0.15-0.02-0.23-0.03c-0.19-0.01-0.36-0.04-0.53-0.06
							c-1.6-0.19-2.66-0.35-2.87-0.49c0,0,0.96,1.6,2.45,3.6c0.09,0.12,0.18,0.25,0.27,0.36c1.05,1.39,2.35,2.91,3.74,4.21
							c0.22,0.21,0.45,0.41,0.67,0.61c0.12,0.09,0.23,0.2,0.35,0.28c0.19,0.15,0.38,0.3,0.56,0.44c0.16,0.12,0.32,0.23,0.48,0.34
							c0.09,0.07,0.17,0.12,0.26,0.17c0.97,0.63,1.95,1.07,2.91,1.21c0.12,0.02,0.23,0.04,0.35,0.04c0.21,0.01,0.43,0.02,0.65,0.02
							h0.06c0.02,0,0.04,0,0.07-0.01c0.2,0,0.4-0.01,0.61-0.04c0.18-0.01,0.36-0.04,0.55-0.07c0.01,0,0.01,0,0.01,0
							c0.12-0.01,0.23-0.04,0.35-0.07c0.15-0.02,0.3-0.06,0.45-0.09c0.21-0.05,0.41-0.1,0.61-0.17c0.05-0.01,0.09-0.03,0.14-0.04
							c0.19-0.06,0.38-0.12,0.57-0.19c0.02-0.01,0.04-0.01,0.06-0.02c0.18-0.07,0.37-0.14,0.55-0.21c0.32-0.13,0.64-0.27,0.95-0.43
							c0.19-0.09,0.38-0.18,0.57-0.28c2.77-1.44,5.41-3.6,7.27-5.56c0.41-0.43,0.78-0.84,1.1-1.24c0.35-0.41,0.64-0.8,0.87-1.16
							c0.21-0.31,0.38-0.59,0.49-0.85c0.07-0.14,0.12-0.27,0.17-0.4C96.2,92.47,96.07,92.55,95.89,92.61z M95.19,93.59
							c-0.01,0.01-0.01,0.01-0.01,0.02c-0.05,0.08-0.11,0.16-0.17,0.24c-0.04,0.07-0.1,0.13-0.14,0.19
							c-0.43,0.56-0.96,1.16-1.57,1.8c-0.01,0.01-0.03,0.03-0.04,0.04c-0.05,0.05-0.09,0.09-0.14,0.14H93.1
							c-0.12,0.12-0.23,0.24-0.35,0.36c-0.01,0.01-0.01,0.01-0.02,0.02c-0.03,0.02-0.05,0.04-0.08,0.07
							c-0.07,0.07-0.14,0.13-0.2,0.2c-0.14,0.13-0.29,0.27-0.43,0.4c-0.27,0.25-0.57,0.51-0.87,0.76c-0.04,0.03-0.07,0.06-0.1,0.09
							c-0.14,0.12-0.28,0.23-0.42,0.35c-0.17,0.14-0.32,0.26-0.49,0.39c-0.01,0.01-0.01,0.01-0.01,0.01
							c-0.32,0.25-0.64,0.49-0.97,0.72c-0.06,0.04-0.12,0.09-0.19,0.13c-0.17,0.12-0.34,0.24-0.51,0.35
							c-0.07,0.05-0.14,0.09-0.22,0.14c-0.01,0-0.01,0.01-0.01,0.01c-0.04,0.03-0.08,0.06-0.13,0.08c-0.01,0-0.01,0.01-0.01,0.01
							c0,0.01-0.01,0.01-0.01,0.01c0,0.01-0.01,0.01-0.01,0.01c0,0.01-0.01,0.01-0.01,0.01s0,0,0,0.01c-0.01,0-0.01,0.01-0.01,0.01
							c-0.05,0.04-0.11,0.06-0.15,0.09c-0.09,0.06-0.17,0.11-0.26,0.16c-0.25,0.16-0.51,0.31-0.77,0.45
							c-0.09,0.06-0.18,0.1-0.27,0.15c-0.05,0.03-0.1,0.06-0.14,0.08c-0.19,0.1-0.39,0.2-0.59,0.3c-0.14,0.07-0.29,0.14-0.44,0.21
							c-0.01,0.01-0.02,0.01-0.03,0.01c-0.04,0.02-0.08,0.04-0.12,0.06c-0.14,0.07-0.29,0.13-0.44,0.19
							c-0.14,0.06-0.27,0.11-0.41,0.17c-0.27,0.1-0.54,0.2-0.82,0.28c-0.09,0.03-0.17,0.05-0.27,0.08
							c-0.02,0.01-0.04,0.01-0.06,0.02c-0.16,0.04-0.32,0.09-0.48,0.12c-0.13,0.03-0.26,0.06-0.4,0.09
							c-0.08,0.01-0.15,0.03-0.23,0.04c-0.25,0.04-0.49,0.07-0.73,0.09c-0.01,0.01-0.03,0.01-0.04,0.01c-0.38,0.03-0.76,0.03-1.13,0
							c-0.12-0.01-0.25-0.02-0.38-0.04c-0.11-0.01-0.21-0.04-0.32-0.07c-0.02,0-0.05-0.01-0.07-0.01c-0.06-0.01-0.11-0.03-0.16-0.04
							c-0.01,0-0.02-0.01-0.03-0.01c-0.06-0.02-0.13-0.04-0.2-0.06c-0.07-0.01-0.13-0.04-0.19-0.07h-0.01
							c-0.04-0.02-0.09-0.04-0.14-0.05c-0.01,0-0.01-0.01-0.01-0.01c-0.01-0.01-0.02-0.01-0.03-0.01c-0.01,0-0.01-0.01-0.01-0.01
							c-0.01-0.01-0.01-0.01-0.01-0.01c-0.09-0.04-0.19-0.08-0.29-0.12c-0.2-0.09-0.39-0.19-0.58-0.29
							c-0.09-0.06-0.2-0.11-0.29-0.17c-0.06-0.04-0.11-0.07-0.16-0.09c-0.11-0.06-0.22-0.14-0.33-0.22
							c-0.11-0.07-0.22-0.14-0.32-0.22c-0.12-0.08-0.22-0.16-0.33-0.25c-0.11-0.08-0.22-0.17-0.33-0.25
							c-0.14-0.12-0.27-0.23-0.41-0.35c-0.04-0.02-0.07-0.05-0.11-0.09c-0.04-0.03-0.07-0.06-0.1-0.09
							c-0.16-0.14-0.32-0.29-0.48-0.43c-0.12-0.11-0.22-0.21-0.33-0.32c-0.02-0.01-0.04-0.03-0.05-0.04
							c-0.18-0.18-0.37-0.36-0.54-0.55c-0.01,0-0.01,0-0.01-0.01c0,0,0,0-0.01,0c-0.06-0.07-0.12-0.13-0.18-0.19
							c-0.13-0.13-0.26-0.27-0.38-0.41c-0.07-0.07-0.12-0.14-0.19-0.21c-0.31-0.34-0.61-0.69-0.9-1.04
							c-0.17-0.21-0.34-0.41-0.5-0.61c-0.17-0.2-0.32-0.4-0.48-0.6c-0.07-0.1-0.14-0.2-0.22-0.3c-0.04-0.06-0.09-0.13-0.14-0.19
							c-0.07-0.08-0.12-0.15-0.18-0.23c-0.46-0.62-0.87-1.21-1.21-1.7c-0.07-0.1-0.14-0.2-0.2-0.3c-0.13-0.19-0.25-0.37-0.35-0.53
							c0.4,0.06,0.86,0.13,1.36,0.19c0.11,0.01,0.22,0.03,0.33,0.04c0.07,0.01,0.14,0.01,0.22,0.02c0.07,0.01,0.14,0.02,0.22,0.03
							c0.07,0.01,0.14,0.01,0.21,0.02c0.04,0.01,0.08,0.01,0.12,0.01c0.11,0.01,0.21,0.02,0.32,0.04c0.22,0.02,0.46,0.04,0.69,0.07
							c0.06,0.01,0.13,0.01,0.19,0.01c0.07,0.01,0.14,0.01,0.21,0.02c0.14,0.01,0.29,0.03,0.43,0.04c0.04,0,0.09,0.01,0.13,0.01
							h0.02c0.1,0.01,0.2,0.02,0.3,0.03c0,0,0,0,0.01,0c0.05,0.01,0.1,0.01,0.15,0.01c0.02,0,0.04,0,0.07,0.01
							c0.11,0.01,0.22,0.01,0.32,0.02c0.38,0.04,0.71,0.07,1,0.09c0.07,0,0.15,0.01,0.25,0.01c0.01,0,0.01,0,0.01,0
							c0.01,0,0.01,0,0.01,0c0.03,0.01,0.06,0.01,0.1,0.01c0.08,0,0.17,0.01,0.27,0.01c0.13,0.01,0.28,0.02,0.44,0.03
							c0.08,0.01,0.17,0.01,0.27,0.02c0.06,0.01,0.13,0.01,0.2,0.01h0.08c0.08,0.01,0.17,0.01,0.26,0.02
							c0.23,0.01,0.48,0.03,0.74,0.04c0.12,0.01,0.23,0.01,0.35,0.02c0.01,0.01,0.04,0.01,0.05,0.01h0.08c0,0,0,0,0.01,0
							c0,0,0,0.01,0.01,0.01h0.12c0.17,0.01,0.34,0.02,0.52,0.03c0.06,0.01,0.12,0.01,0.17,0.01c0.14,0.01,0.28,0.01,0.43,0.02
							c0.19,0.01,0.4,0.02,0.6,0.03c0.2,0.01,0.4,0.02,0.61,0.03h0.01c0.05,0.01,0.1,0.01,0.15,0.01c0.06,0.01,0.14,0.01,0.21,0.01
							c0.2,0.01,0.41,0.01,0.62,0.02c0.04,0.01,0.09,0.01,0.14,0.01c0.11,0.01,0.22,0.01,0.32,0.01h0.01
							c0.55,0.02,1.12,0.04,1.68,0.06c0.1,0,0.2,0.01,0.3,0.01c0.04,0,0.07,0,0.1,0.01c0.16,0,0.33,0.01,0.5,0.01
							c0.28,0,0.56,0.01,0.85,0.01c0.12,0,0.23,0,0.35,0.01c0.24,0,0.47,0.01,0.7,0.01h1.05c0.12,0,0.23,0.01,0.35,0
							c0.22,0,0.44,0,0.66-0.01h0.5c0.17-0.01,0.35-0.01,0.53-0.01h0.08c0.04-0.01,0.09-0.01,0.14-0.01
							c0.14-0.01,0.27-0.01,0.4-0.01c0.34-0.01,0.66-0.03,0.98-0.04c0.25-0.01,0.49-0.03,0.72-0.05h0.07
							c0.04-0.01,0.07-0.01,0.1-0.01c0.07-0.01,0.13-0.01,0.2-0.02c0.15-0.01,0.3-0.02,0.43-0.04c0.01-0.01,0.02-0.01,0.03,0
							c0.01-0.01,0.01-0.01,0.01,0c0.01,0,0.01,0,0.01,0s0-0.01,0.01-0.01l0.06-0.01c0.26-0.02,0.51-0.05,0.76-0.09
							c0.06-0.01,0.14-0.01,0.2-0.03c0.14-0.02,0.27-0.04,0.4-0.06c0.12-0.02,0.25-0.05,0.37-0.07c0.05-0.01,0.09-0.02,0.14-0.03
							c0.11-0.02,0.21-0.04,0.3-0.07c0.01,0,0.03-0.01,0.04-0.01c0.01-0.01,0.03-0.01,0.04-0.01v0.01
							c-0.02,0.04-0.05,0.08-0.08,0.12c0,0.01-0.01,0.01-0.01,0.01c-0.03,0.05-0.07,0.09-0.1,0.15
							C95.26,93.51,95.23,93.55,95.19,93.59L95.19,93.59C95.2,93.59,95.2,93.59,95.19,93.59z M78.51,93.45
							C78.51,93.45,78.51,93.46,78.51,93.45l0.03,0.01C78.53,93.45,78.52,93.45,78.51,93.45z M78.51,93.45
							C78.51,93.45,78.51,93.46,78.51,93.45l0.03,0.01C78.53,93.45,78.52,93.45,78.51,93.45z"/>
					</g>
					<path class="st13" d="M84.88,105.98c-2.83-2.46-8.53,0.01-8.53,0.01c1.26-0.27,7.02,0.61,7.97,1.11
						C84.48,106.8,85.19,106.26,84.88,105.98z"/>
					<path class="st15" d="M80.56,59.13c-0.44-0.07-1.29-0.14-1.29-0.14l-1.24,1.48c0,0,0.07-1.43-0.18-1.43
						c-6.46,0.01-8.52,4.36-8.52,4.36c1.84-0.65,3.72-1.03,5.51-1.04c2.46-0.01,3.84,0.56,4.9,1.81
						C80.17,62.52,80.48,60.83,80.56,59.13z"/>
					<path class="st15" d="M90.1,62.87c0.45,0.03,1.29,0.13,1.29,0.13l0.9,1.71c0,0,0.24-1.41,0.48-1.36
						c6.32,1.36,7.41,6.05,7.41,6.05c-1.67-1.02-3.42-1.79-5.17-2.17c-2.41-0.53-3.87-0.26-5.18,0.74
						C89.78,66.27,89.82,64.56,90.1,62.87z"/>
					<g>
						<path class="st12" d="M64.42,74.04c-1.09-2.07-5.25-2.67-6.96-1.12c-1.9,1.73,0.8,11.58,2.96,11.7
							C65.43,84.91,64.42,74.04,64.42,74.04z"/>
						<path class="st13" d="M63.63,79.12c0.12-0.72,0.24-1.53,0.25-2.26c0.01-0.39-0.06-0.82-0.1-1.2
							c-0.02-0.21-0.07-0.47-0.13-0.61c-0.58-1.36-2.12-1.49-3.19-1.66c-0.45-0.07-1.22-0.18-1.62,0.02
							c-0.32,0.16-0.51,0.64-0.7,0.91c0.93-0.84,2.84-0.26,3.75,0.42c0.95,0.71,1.18,2.54,0.75,3.62c-0.92-0.16-1.81,0.83-1.75,1.7
							c0.05,0.87,1.73,1.46,2.05,0.64C61.47,80.31,62.76,79.2,63.63,79.12z"/>
					</g>
					<g>
						<path class="st12" d="M103.41,77.76c1.5-1.79,5.69-1.52,7.04,0.37c1.5,2.09-3.21,11.15-5.35,10.82
							C100.14,88.18,103.41,77.76,103.41,77.76z"/>
						<path class="st13" d="M103.12,82.89c0.03-0.73,0.08-1.54,0.23-2.26c0.08-0.38,0.23-0.79,0.35-1.15
							c0.06-0.2,0.17-0.45,0.25-0.57c0.85-1.21,2.38-1.01,3.47-0.95c0.45,0.02,1.23,0.07,1.58,0.36c0.28,0.23,0.36,0.73,0.5,1.04
							c-0.73-1.02-2.72-0.85-3.75-0.37c-1.07,0.49-1.68,2.24-1.49,3.38c0.93,0.04,1.59,1.19,1.36,2.03
							c-0.24,0.84-1.99,1.07-2.13,0.19C104.98,84.51,103.95,83.15,103.12,82.89z"/>
					</g>
					<path class="st15" d="M107.22,51.75c-1.02-2.11-8.73-15.8-12.05-8.95c-0.89-10.07-19.93-9.67-14.8-3.4
						c-3.98-0.26-13.14,0.18-8.54,4.67c0.62,0.6-1.61-0.73-4.29,0.82c-11.59,6.68-0.33,20.59,0.67,17.82
						c0.87-2.42,2.71-5.43,2.85-8.01c4.27,0.78,8.8-1.43,10.8-5.13c-0.08,0.69,0.24,9.89,10.38,4.49c1.43,2.66,2.92,5.34,5.64,6.54
						c1.72,0.76,2.97,0.59,3.81-0.68c0.83,3.15,0.96,8.67,1.12,11.6C103.19,69.74,112.5,62.68,107.22,51.75z"/>
					<g>
						<path class="st15" d="M67.24,91.53c1.06-0.87,7.75,1.12,9.79,1.57c1.16,0.25,2.97,0.84,4.14,0.42
							c1.15-0.41,1.05-1.89,1.14-2.9C82.31,90.62,66.84,88.09,67.24,91.53z"/>
						<path class="st15" d="M96.68,94.03c-0.91-1.02-7.83-0.13-9.92-0.02c-1.19,0.07-3.07,0.35-4.15-0.25
							c-1.07-0.59-0.74-2.03-0.66-3.05C81.94,90.71,97.61,90.69,96.68,94.03z"/>
					</g>
					<g>
						<path class="st13" d="M77.66,87.46c-1.1,0.09-2.01,0.7-2.01,1.89c0.01,2.08,3.49,2.29,5.11,2.63c3.05,0.63,7.1-0.27,9.27-2.53
							C82.6,91.62,77.66,87.46,77.66,87.46z"/>
						<path class="st13" d="M75.56,67.13c0,0,5.04,10.61,1.64,22.71c0.91,0.59,2.62,0.31,3.55,0.84
							C82.57,85.34,78.24,70.26,75.56,67.13z"/>
					</g>
				</g>
			</g>
		</g>
		<g>
			<path class="st10" d="M134.22,146.86c-1.39,1.11-2.82,2.17-4.27,3.16c-1.2,0.82-2.42,1.61-3.65,2.36
				c-1.08,0.66-2.17,1.29-3.29,1.89c-0.3,0.17-0.61,0.33-0.94,0.49c-0.03,0.01-0.06,0.04-0.1,0.05c-1.66,0.87-3.36,1.69-5.08,2.43
				c-1.18,0.52-2.38,1-3.58,1.44c-0.25,0.11-0.51,0.19-0.76,0.29c-0.14,0.05-0.27,0.1-0.42,0.15c-0.09,0.04-0.19,0.07-0.29,0.11
				c0.1-0.53,0.2-1.05,0.31-1.56c2.82-13.84,6.79-23.67,12.04-21.74c0.01,0.01,0.03,0.01,0.04,0.01c0.25,0.09,0.51,0.22,0.77,0.37
				c0.03,0.02,0.07,0.04,0.09,0.06C129.11,138.75,132.09,142.37,134.22,146.86z"/>
			<g>
				<g>
					<path class="st11" d="M112.13,159.14c-0.09,0.04-0.19,0.07-0.29,0.11c0.1-0.53,0.2-1.05,0.31-1.56
						C112.16,158.01,112.16,158.5,112.13,159.14z"/>
				</g>
			</g>
		</g>
	</g>
</g>
</svg>
