<?xml version="1.0" encoding="utf-8"?>
<!-- Generator: Adobe Illustrator 27.2.0, SVG Export Plug-In . SVG Version: 6.00 Build 0)  -->
<svg version="1.1" id="Layer_1" xmlns="http://www.w3.org/2000/svg" xmlns:xlink="http://www.w3.org/1999/xlink" x="0px" y="0px"
	 viewBox="0 0 171.51 171.51" style="enable-background:new 0 0 171.51 171.51;" xml:space="preserve">
<style type="text/css">
	.st0{fill:#F7F2DA;}
	.st1{fill:#FBA479;}
	.st2{fill:#FFFFFF;}
	.st3{fill:#E1DFEA;}
	.st4{fill:#261411;}
	.st5{fill:#60312B;}
	.st6{fill:#EF7950;}
	.st7{fill:#60281F;}
	.st8{fill:#E8E6E6;}
	.st9{fill:#3A2827;}
	.st10{fill:#CCCCCC;}
	.st11{fill:#595857;}
	.st12{fill:#F28C5F;}
	.st13{fill:#E26939;}
	.st14{fill:#56413D;}
	.st15{fill:#44322E;}
	.st16{fill:#873421;}
	.st17{fill:#EA6CA0;}
	.st18{fill:#DB5290;}
	.st19{fill:#F48656;}
	.st20{fill:#82112F;}
	.st21{fill:#D85039;}
	.st22{fill:#574984;}
	.st23{fill:#291C51;}
	.st24{fill:#FC5135;}
	.st25{fill:#FFCC7B;}
	.st26{fill:#E8A749;}
	.st27{fill:#6D4A44;}
	.st28{fill:#D1E3E8;}
	.st29{fill:#FCFBFA;}
	.st30{fill:#4C4C4B;}
	.st31{fill:#686868;}
	.st32{fill:#FFB884;}
	.st33{fill:#EF9C62;}
	.st34{fill:#874410;}
	.st35{fill:#6D340D;}
	.st36{fill:#E89258;}
	.st37{fill:#3A2E26;}
	.st38{fill:#4C3F35;}
	.st39{opacity:0.1;}
	.st40{fill:#60120F;}
	.st41{fill:#F4F0ED;}
	.st42{fill:#E0312D;}
	.st43{fill:#F42F2F;}
	.st44{fill:#D31111;}
	.st45{fill:#DB9B19;}
	.st46{fill:#AF740B;}
	.st47{fill:#CC2121;}
	.st48{fill:#F74B4B;}
	.st49{fill:#FCF9E8;}
	.st50{opacity:0.5;fill:#827571;}
	.st51{fill:#665D5C;}
	.st52{fill:#4F4746;}
	.st53{fill:#5E3B2F;}
	.st54{fill:#492E27;}
	.st55{opacity:0.4;}
	.st56{fill:#443A36;}
	.st57{fill:#51415E;}
	.st58{fill:#066FB7;}
	.st59{fill:#066396;}
	.st60{fill:#0D8FD6;}
	.st61{fill:#FEAC74;}
	.st62{fill:#E3784C;}
	.st63{fill:#580801;}
	.st64{fill:#440502;}
	.st65{fill:#00ABB2;}
	.st66{fill:#008C8C;}
	.st67{fill:#914E34;}
	.st68{fill:#5B2E1D;}
	.st69{fill:#6A3221;}
	.st70{fill:#FAFAFC;}
	.st71{fill:#2B3B3F;}
	.st72{fill:#3F565B;}
	.st73{fill:#EF7348;}
	.st74{fill:#6F3D26;}
	.st75{fill:#BBBEBF;}
	.st76{fill:#D3D3D3;}
	.st77{fill:#939A9E;}
	.st78{fill:#F79C5E;}
	.st79{fill:#E07832;}
	.st80{fill:#604135;}
	.st81{fill:#EFEAE8;}
	.st82{fill:#4F3229;}
	.st83{fill:#1A3D3A;}
	.st84{fill:#E8E8E8;}
	.st85{fill:#0C83C4;}
	.st86{fill:#1B96EA;}
	.st87{fill:#B50F0F;}
	.st88{opacity:0.4;fill:#E89258;}
	.st89{fill:#26ACF7;}
	.st90{fill:#F45347;}
	.st91{fill:#FF3939;}
	.st92{fill:#686766;}
	.st93{fill:#5E5D5B;}
	.st94{fill:#424140;}
	.st95{fill:#E7E1CB;}
	.st96{fill:#D6CFBA;}
	.st97{fill:#CE5C37;}
	.st98{fill:#B74D30;}
	.st99{fill:#1B313D;}
	.st100{fill:#36474F;}
	.st101{fill:#29526D;}
	.st102{fill:#FCBD88;}
	.st103{fill:#FCA265;}
	.st104{fill:#496B7A;}
	.st105{fill:#B76049;}
	.st106{fill:#EDEDED;}
	.st107{fill:#7C7979;}
	.st108{fill:#EFE6E8;}
	.st109{fill:#B20D28;}
	.st110{fill:#346682;}
	.st111{fill:#AA0E28;}
	.st112{fill:#FF5050;}
	.st113{fill:#781A0E;}
	.st114{fill:#560904;}
	.st115{fill:#FF0B40;}
	.st116{fill:#BC0000;}
	.st117{fill:#FFD731;}
	.st118{fill:#EA6453;}
	.st119{fill:#602618;}
	.st120{fill:#A14F2A;}
	.st121{fill:#3A4E66;}
	.st122{fill:#EAE9EE;}
	.st123{opacity:0.3;fill:#3A4E66;}
	.st124{fill:#5E2701;}
	.st125{fill:#773000;}
	.st126{fill:#EA2F4A;}
	.st127{fill:#C41234;}
	.st128{fill:#F7F0F1;}
	.st129{fill:#F7A76F;}
	.st130{fill:#B24800;}
	.st131{fill:#8C3B03;}
	.st132{fill:#567391;}
	.st133{fill:#FF7271;}
	.st134{fill:#F75E5E;}
	.st135{fill:#700F28;}
	.st136{fill:#9E1533;}
	.st137{fill:#871231;}
	.st138{fill:#211B3A;}
	.st139{fill:#2E2951;}
	.st140{fill:#F28670;}
	.st141{fill:#F46060;}
	.st142{fill:#EBBF44;}
	.st143{fill:#E0A91E;}
	.st144{fill:#FFA992;}
	.st145{fill:#2C363F;}
	.st146{fill:#1D262D;}
	.st147{fill-rule:evenodd;clip-rule:evenodd;fill:#FFF5F5;}
	.st148{opacity:0.2;}
	.st149{fill:#7C4949;}
	.st150{fill:#F9AE7A;}
	.st151{fill:#FFF5F5;}
	.st152{fill:#C92727;}
	.st153{fill:#4C1B05;}
	.st154{fill:#592009;}
	.st155{opacity:0.4;fill:#592009;}
	.st156{fill:#3F1307;}
	.st157{fill:#664472;}
	.st158{fill:#473051;}
	.st159{fill:#352020;}
	.st160{opacity:0.3;fill:#7C4949;}
</style>
<g>
	<path class="st0" d="M151.68,127.41c-2.36,3.73-4.98,7.19-7.83,10.38c-2.03,2.27-4.17,4.4-6.42,6.4c-0.17,0.15-0.35,0.31-0.53,0.46
		c-0.35,0.3-0.71,0.61-1.06,0.9c-0.27,0.22-0.54,0.45-0.82,0.67c-0.26,0.21-0.52,0.42-0.78,0.63c-0.01,0-0.01,0.01-0.02,0.01
		c-1.39,1.11-2.82,2.17-4.27,3.16c-0.23,0.16-0.47,0.32-0.71,0.47c-0.48,0.32-0.96,0.64-1.44,0.95c-0.5,0.32-1,0.63-1.5,0.94
		c-0.26,0.16-0.52,0.31-0.78,0.46c-0.4,0.25-0.82,0.49-1.23,0.72c-0.01,0.01-0.02,0.01-0.04,0.02c-0.4,0.23-0.82,0.46-1.23,0.69
		c-0.3,0.17-0.61,0.33-0.94,0.49c-0.03,0.01-0.07,0.04-0.1,0.05c-0.9,0.47-1.8,0.92-2.71,1.35c-0.61,0.3-1.22,0.58-1.83,0.84
		c-0.17,0.08-0.35,0.16-0.53,0.24c-0.06,0.03-0.14,0.06-0.2,0.09c-0.08,0.04-0.16,0.07-0.24,0.1c-0.18,0.08-0.36,0.16-0.54,0.23
		c-0.53,0.22-1.05,0.43-1.58,0.64c-0.08,0.04-0.17,0.07-0.25,0.1c-0.22,0.08-0.44,0.17-0.66,0.25c-0.04,0.01-0.07,0.03-0.11,0.04
		c-0.04,0.02-0.09,0.04-0.13,0.05c-0.2,0.09-0.42,0.16-0.63,0.24c-0.14,0.05-0.27,0.1-0.42,0.15c-0.09,0.04-0.19,0.07-0.29,0.11
		c-0.08,0.03-0.17,0.06-0.25,0.09c-0.45,0.16-0.9,0.31-1.35,0.46c-0.63,0.2-1.26,0.4-1.88,0.59c-0.01,0-0.01,0.01-0.02,0.01
		c-0.08,0.03-0.15,0.04-0.23,0.07c-0.14,0.04-0.27,0.08-0.41,0.12c-0.05,0.01-0.1,0.03-0.15,0.04c-0.3,0.09-0.59,0.17-0.89,0.25
		c-0.06,0.01-0.14,0.04-0.2,0.05c-0.14,0.04-0.3,0.08-0.45,0.12c-0.15,0.04-0.3,0.08-0.45,0.12c-0.33,0.09-0.67,0.17-1,0.26
		c-0.1,0.02-0.2,0.05-0.3,0.07c-0.08,0.02-0.15,0.04-0.23,0.06c-0.46,0.11-0.92,0.22-1.37,0.32c-0.18,0.04-0.36,0.08-0.55,0.12
		c-0.41,0.09-0.82,0.18-1.23,0.26c-0.01,0-0.03,0.01-0.04,0.01c-0.07,0.01-0.15,0.03-0.22,0.04c-0.63,0.12-1.26,0.24-1.89,0.34
		c-1.14,0.19-2.28,0.36-3.43,0.5c-0.25,0.04-0.51,0.06-0.76,0.09c-0.44,0.05-0.87,0.09-1.31,0.13c-0.27,0.03-0.55,0.06-0.82,0.08
		c-0.48,0.05-0.94,0.08-1.42,0.11c-0.47,0.04-0.94,0.07-1.41,0.08c-0.75,0.05-1.49,0.07-2.25,0.08c-0.01,0-0.01,0-0.01,0
		c-0.15,0.01-0.31,0.01-0.45,0.01c-0.04,0-0.07,0.01-0.11,0.01c-0.17,0.01-0.35,0.01-0.52,0c-0.17,0.01-0.33,0.01-0.51,0.01
		c-0.2,0-0.4,0-0.61-0.01c-0.13,0-0.27-0.01-0.4-0.01c-0.67-0.01-1.35-0.02-2.02-0.06c-1.18-0.04-2.36-0.12-3.54-0.21
		c-0.22-0.02-0.44-0.04-0.66-0.06c-0.3-0.03-0.6-0.06-0.9-0.09c-1.51-0.14-3.01-0.35-4.51-0.59c-0.58-0.1-1.16-0.2-1.74-0.31
		c-0.18-0.04-0.37-0.07-0.56-0.11c-0.17-0.03-0.33-0.06-0.5-0.09c-0.06-0.01-0.12-0.04-0.18-0.04c-0.28-0.06-0.56-0.12-0.85-0.18
		c-0.08-0.01-0.16-0.04-0.24-0.05c-0.33-0.07-0.65-0.14-0.98-0.22h-0.01c-1.21-0.28-2.41-0.59-3.61-0.93
		c-0.12-0.04-0.24-0.07-0.35-0.1c-0.09-0.02-0.17-0.05-0.26-0.08c-1.38-0.4-2.75-0.84-4.12-1.34c-0.2-0.07-0.4-0.14-0.6-0.22
		c-0.29-0.1-0.57-0.21-0.85-0.32c-0.36-0.14-0.72-0.27-1.08-0.42c-0.24-0.09-0.47-0.19-0.7-0.28c-0.17-0.06-0.33-0.13-0.49-0.2
		c-0.1-0.04-0.19-0.08-0.3-0.12c-0.01-0.01-0.03-0.01-0.04-0.02c-0.06-0.02-0.12-0.04-0.17-0.07c-0.05-0.02-0.11-0.04-0.16-0.07
		c-0.07-0.03-0.13-0.05-0.19-0.08c-0.25-0.1-0.49-0.21-0.74-0.33c-0.1-0.04-0.19-0.09-0.29-0.14c-0.24-0.11-0.48-0.21-0.71-0.32
		c-0.22-0.09-0.43-0.19-0.64-0.29c-0.17-0.07-0.33-0.15-0.5-0.22c-0.35-0.17-0.69-0.34-1.03-0.51c-0.28-0.14-0.56-0.29-0.84-0.43
		c-0.05-0.02-0.11-0.05-0.16-0.08c-0.32-0.16-0.65-0.34-0.97-0.51c-0.03-0.01-0.06-0.03-0.09-0.05c-0.05-0.02-0.09-0.05-0.14-0.08
		c-0.34-0.17-0.67-0.35-1-0.53c-0.16-0.09-0.31-0.17-0.47-0.27c-0.04-0.02-0.08-0.04-0.12-0.07c-0.2-0.12-0.4-0.23-0.61-0.35
		c-0.04-0.01-0.09-0.04-0.14-0.08c-0.2-0.11-0.4-0.22-0.61-0.35c-0.19-0.12-0.38-0.22-0.57-0.35c-0.01-0.01-0.02-0.01-0.03-0.02
		c-0.06-0.03-0.12-0.07-0.19-0.11c-0.09-0.06-0.19-0.12-0.28-0.17c-0.18-0.11-0.36-0.22-0.53-0.32c-0.12-0.07-0.23-0.14-0.35-0.22
		c-0.12-0.07-0.24-0.15-0.35-0.22c-0.24-0.15-0.48-0.31-0.71-0.46c-0.04-0.03-0.09-0.06-0.14-0.09c-0.04-0.02-0.07-0.05-0.11-0.07
		c-0.04-0.03-0.08-0.05-0.12-0.08l-0.07-0.04c-0.01-0.01-0.02-0.01-0.03-0.01c-0.21-0.13-0.4-0.26-0.6-0.41
		c-0.25-0.15-0.49-0.32-0.73-0.49c-0.01-0.01-0.04-0.02-0.05-0.04c-0.03-0.01-0.06-0.04-0.09-0.06c-0.11-0.08-0.21-0.15-0.31-0.22
		c-0.1-0.07-0.2-0.14-0.3-0.2c-0.16-0.12-0.32-0.22-0.47-0.33c-0.02-0.01-0.04-0.03-0.05-0.04c-0.61-0.43-1.2-0.87-1.78-1.33
		c-0.38-0.29-0.76-0.58-1.13-0.87c-0.45-0.36-0.9-0.73-1.34-1.1c-0.06-0.06-0.14-0.12-0.21-0.17c-0.62-0.51-1.23-1.05-1.83-1.6
		c-0.48-0.42-0.95-0.85-1.41-1.29c-0.14-0.12-0.27-0.25-0.4-0.38c-0.36-0.33-0.71-0.67-1.05-1.02c-0.22-0.2-0.43-0.41-0.64-0.63
		l-0.01-0.01c-0.43-0.43-0.84-0.87-1.26-1.31c-0.07-0.07-0.13-0.13-0.19-0.19c-0.01-0.01-0.03-0.02-0.04-0.04
		c-0.25-0.27-0.51-0.53-0.74-0.81c-0.46-0.51-0.91-1.01-1.34-1.53c-0.15-0.16-0.29-0.32-0.43-0.48c-1.17-1.39-2.3-2.82-3.37-4.28
		c-0.6-0.82-1.18-1.65-1.75-2.5c-0.1-0.14-0.2-0.29-0.3-0.43c-0.16-0.24-0.32-0.48-0.48-0.73c-0.01-0.03-0.02-0.04-0.04-0.07
		c-0.87-1.34-1.7-2.7-2.47-4.09c-0.09-0.15-0.19-0.32-0.27-0.5c-0.55-0.96-1.05-1.94-1.55-2.93c-0.32-0.66-0.64-1.3-0.95-1.96
		c-1.06-2.3-2.01-4.64-2.85-7.03c-0.38-1.1-0.75-2.21-1.08-3.34c-0.03-0.09-0.06-0.17-0.08-0.27c-0.07-0.23-0.14-0.45-0.21-0.69
		c-0.18-0.63-0.35-1.26-0.52-1.89C5.04,85.28,7.82,63.09,19.83,44.1C42.84,7.68,91.01-3.18,127.41,19.83
		C163.83,42.83,174.69,91,151.68,127.41z"/>
	<g>
		<path class="st1" d="M57.18,136.33l-10.43,16.75l-0.09,0.14c-0.2-0.11-0.4-0.22-0.61-0.35c-0.19-0.12-0.38-0.22-0.57-0.35
			c-0.01-0.01-0.02-0.01-0.03-0.02c-0.06-0.03-0.12-0.07-0.19-0.11c-0.09-0.06-0.19-0.12-0.28-0.17c-0.18-0.11-0.36-0.22-0.53-0.32
			c-0.12-0.07-0.23-0.14-0.35-0.22c-0.12-0.07-0.24-0.15-0.35-0.22c-0.24-0.15-0.48-0.31-0.71-0.46c-0.04-0.03-0.09-0.06-0.14-0.09
			c-0.04-0.02-0.07-0.05-0.11-0.07c-0.04-0.03-0.08-0.05-0.12-0.08l-0.07-0.04c-0.01-0.01-0.02-0.01-0.03-0.01
			c-0.21-0.13-0.4-0.26-0.6-0.41c-0.25-0.15-0.49-0.32-0.73-0.49c-0.01-0.01-0.04-0.02-0.05-0.04c-0.03-0.01-0.06-0.04-0.09-0.06
			c-0.11-0.08-0.21-0.15-0.31-0.22c-0.1-0.07-0.2-0.14-0.3-0.2c-0.16-0.12-0.32-0.22-0.47-0.33c-0.02-0.01-0.04-0.03-0.05-0.04
			c-0.61-0.43-1.2-0.87-1.78-1.33c-0.38-0.29-0.76-0.58-1.13-0.87c-0.45-0.36-0.9-0.73-1.34-1.1c-0.06-0.06-0.14-0.12-0.21-0.17
			c-0.62-0.51-1.23-1.05-1.83-1.6c-0.48-0.42-0.95-0.85-1.41-1.29c-0.14-0.12-0.27-0.25-0.4-0.38c-0.36-0.33-0.71-0.67-1.05-1.02
			c-0.22-0.2-0.43-0.41-0.64-0.63l-0.01-0.01c-0.43-0.43-0.84-0.87-1.26-1.31c-0.07-0.07-0.13-0.13-0.19-0.19
			c-0.01-0.01-0.03-0.02-0.04-0.04c-0.25-0.27-0.51-0.53-0.74-0.81c0.35-0.21,0.69-0.41,1.05-0.61c0.46-0.26,0.92-0.51,1.39-0.74
			c0.51-0.26,1.03-0.5,1.55-0.73c2.22-0.97,4.51-1.71,6.87-2.16c0.09-0.01,0.17-0.03,0.26-0.05c2.9-0.52,5.89-0.62,8.94-0.22
			c0.14,0.02,0.28,0.04,0.43,0.06c0.03,0.01,0.06,0.01,0.09,0.02c0.12,0.01,0.25,0.04,0.37,0.05c0.44,0.07,0.88,0.16,1.32,0.25
			c0.13,0.03,0.27,0.06,0.4,0.09c0.13,0.03,0.27,0.06,0.4,0.09C53.07,134.67,55.12,135.38,57.18,136.33z"/>
		<path class="st1" d="M137.43,144.18c-0.17,0.15-0.35,0.31-0.53,0.46c-0.35,0.3-0.71,0.61-1.06,0.9c-0.27,0.22-0.54,0.45-0.82,0.67
			c-0.26,0.21-0.52,0.42-0.78,0.63c-0.01,0-0.01,0.01-0.02,0.01c-1.39,1.11-2.82,2.17-4.27,3.16c-0.23,0.16-0.47,0.32-0.71,0.47
			c-0.48,0.32-0.96,0.64-1.44,0.95c-0.5,0.32-1,0.63-1.5,0.94c-0.26,0.16-0.52,0.31-0.78,0.46c-0.4,0.25-0.82,0.49-1.23,0.72
			c-0.01,0.01-0.02,0.01-0.04,0.02c-0.4,0.23-0.82,0.46-1.23,0.69c-0.3,0.17-0.61,0.33-0.94,0.49c-0.03,0.01-0.07,0.04-0.1,0.05
			c-0.9,0.47-1.8,0.92-2.71,1.35c-0.61,0.3-1.22,0.58-1.83,0.84c-0.17,0.08-0.35,0.16-0.53,0.24c-0.06,0.03-0.14,0.06-0.2,0.09
			c-0.08,0.04-0.16,0.07-0.24,0.1c-0.18,0.08-0.36,0.16-0.54,0.23c-0.53,0.22-1.05,0.43-1.58,0.64c-0.08,0.04-0.17,0.07-0.25,0.1
			c-0.22,0.08-0.44,0.17-0.66,0.25c-0.04,0.01-0.07,0.03-0.11,0.04c-0.04,0.02-0.09,0.04-0.13,0.05c-0.2,0.09-0.42,0.16-0.63,0.24
			c-0.14,0.05-0.27,0.1-0.42,0.15c-0.09,0.04-0.19,0.07-0.29,0.11c-0.08,0.03-0.17,0.06-0.25,0.09c-0.45,0.16-0.9,0.31-1.35,0.46
			c-0.63,0.2-1.26,0.4-1.88,0.59c-0.01,0-0.01,0.01-0.02,0.01c-0.08,0.03-0.15,0.04-0.23,0.07c-0.14,0.04-0.27,0.08-0.41,0.12
			c-0.05,0.01-0.1,0.03-0.15,0.04c-0.3,0.09-0.59,0.17-0.89,0.25c-0.06,0.01-0.14,0.04-0.2,0.05c-0.14,0.04-0.3,0.08-0.45,0.12
			c-0.15,0.04-0.3,0.08-0.45,0.12c-0.33,0.09-0.67,0.17-1,0.26c-0.1,0.02-0.2,0.05-0.3,0.07c-0.08,0.02-0.15,0.04-0.23,0.06
			c-0.46,0.11-0.92,0.22-1.37,0.32c-0.18,0.04-0.36,0.08-0.55,0.12c-0.41,0.09-0.82,0.18-1.23,0.26c-0.01,0-0.03,0.01-0.04,0.01
			c-0.07,0.01-0.15,0.03-0.22,0.04c-0.63,0.12-1.26,0.24-1.89,0.34c-1.14,0.19-2.28,0.36-3.43,0.5c-0.25,0.04-0.51,0.06-0.76,0.09
			c-0.44,0.05-0.87,0.09-1.31,0.13c-0.27,0.03-0.55,0.06-0.82,0.08c-0.48,0.05-0.94,0.08-1.42,0.11c-0.47,0.04-0.94,0.07-1.41,0.08
			c-0.75,0.05-1.49,0.07-2.25,0.08c-0.01,0-0.01,0-0.01,0c-0.15,0.01-0.31,0.01-0.45,0.01c-0.04,0-0.07,0.01-0.11,0.01
			c-0.17,0.01-0.35,0.01-0.52,0c-0.17,0.01-0.33,0.01-0.51,0.01c-0.2,0-0.4,0-0.61-0.01c-0.13,0-0.27-0.01-0.4-0.01
			c-0.67-0.01-1.35-0.02-2.02-0.06c-1.18-0.04-2.36-0.12-3.54-0.21c-0.22-0.02-0.44-0.04-0.66-0.06c-0.3-0.03-0.6-0.06-0.9-0.09
			c-1.51-0.14-3.01-0.35-4.51-0.59c-0.58-0.1-1.16-0.2-1.74-0.31c-0.18-0.04-0.37-0.07-0.56-0.11c-0.17-0.03-0.33-0.06-0.5-0.09
			c-0.06-0.01-0.12-0.04-0.18-0.04c-0.28-0.06-0.56-0.12-0.85-0.18c-0.08-0.01-0.16-0.04-0.24-0.05c-0.33-0.07-0.65-0.14-0.98-0.22
			h-0.01c-1.21-0.28-2.41-0.59-3.61-0.93c-0.12-0.04-0.24-0.07-0.35-0.1c-0.09-0.02-0.17-0.05-0.26-0.08
			c-1.38-0.4-2.75-0.84-4.12-1.34c-0.2-0.07-0.4-0.14-0.6-0.22c-0.29-0.1-0.57-0.21-0.85-0.32c-0.36-0.14-0.72-0.27-1.08-0.42
			c-0.24-0.09-0.47-0.19-0.7-0.28c-0.17-0.06-0.33-0.13-0.49-0.2c-0.1-0.04-0.19-0.08-0.3-0.12c-0.01-0.01-0.03-0.01-0.04-0.02
			c-0.06-0.02-0.12-0.04-0.17-0.07c-0.05-0.02-0.11-0.04-0.16-0.07c-0.07-0.03-0.13-0.05-0.19-0.08c-0.25-0.1-0.49-0.21-0.74-0.33
			c-0.1-0.04-0.19-0.09-0.29-0.14c-0.24-0.11-0.48-0.21-0.71-0.32c-0.22-0.09-0.43-0.19-0.64-0.29c-0.17-0.07-0.33-0.15-0.5-0.22
			c-0.35-0.17-0.69-0.34-1.03-0.51c-0.28-0.14-0.56-0.29-0.84-0.43c-0.05-0.02-0.11-0.05-0.16-0.08c-0.32-0.16-0.65-0.34-0.97-0.51
			c-0.03-0.01-0.06-0.03-0.09-0.05c-0.05-0.02-0.09-0.05-0.14-0.08c-0.34-0.17-0.67-0.35-1-0.53c-0.16-0.09-0.31-0.17-0.47-0.27
			c-0.04-0.02-0.08-0.04-0.12-0.07c-0.2-0.12-0.4-0.23-0.61-0.35c-0.04-0.01-0.09-0.04-0.14-0.08c-0.2-0.11-0.4-0.22-0.61-0.35
			c-0.19-0.12-0.38-0.22-0.57-0.35c-0.01-0.01-0.02-0.01-0.03-0.02c-0.06-0.03-0.12-0.07-0.19-0.11c-0.09-0.06-0.19-0.12-0.28-0.17
			c-0.18-0.11-0.36-0.22-0.53-0.32c-0.12-0.07-0.23-0.14-0.35-0.22c-0.12-0.07-0.24-0.15-0.35-0.22c-0.24-0.15-0.48-0.31-0.71-0.46
			c-0.04-0.03-0.09-0.06-0.14-0.09c-0.04-0.02-0.07-0.05-0.11-0.07c-0.04-0.03-0.08-0.05-0.12-0.08l-0.07-0.04
			c-0.01-0.01-0.02-0.01-0.03-0.01c-0.21-0.13-0.4-0.26-0.6-0.41c-0.25-0.15-0.49-0.32-0.73-0.49c-0.01-0.01-0.04-0.02-0.05-0.04
			c-0.03-0.01-0.06-0.04-0.09-0.06c-0.11-0.08-0.21-0.15-0.31-0.22c-0.1-0.07-0.2-0.14-0.3-0.2c-0.16-0.12-0.32-0.22-0.47-0.33
			c-0.02-0.01-0.04-0.03-0.05-0.04c-0.61-0.43-1.2-0.87-1.78-1.33c-0.38-0.29-0.76-0.58-1.13-0.87c-0.45-0.36-0.9-0.73-1.34-1.1
			c-0.06-0.06-0.14-0.12-0.21-0.17c-0.62-0.51-1.23-1.05-1.83-1.6c-0.48-0.42-0.95-0.85-1.41-1.29c-0.14-0.12-0.27-0.25-0.4-0.38
			c1.78-3,4.19-5.75,6.93-8.24c0.04-0.04,0.08-0.07,0.12-0.11c1.04-0.94,2.13-1.84,3.25-2.71c0.09-0.07,0.19-0.15,0.29-0.22
			c0.09-0.08,0.19-0.15,0.29-0.22c0.85-0.64,1.72-1.27,2.59-1.88c1.13-0.78,2.27-1.53,3.42-2.25c5.6-3.52,11.23-6.28,15.17-8.36
			c0.69-0.37,1.34-0.71,1.91-1.04c0.42-0.23,0.8-0.45,1.15-0.66c0.18-0.11,0.35-0.22,0.51-0.32c0.17-0.11,0.33-0.22,0.48-0.32
			c0.02,0,0.05,0.01,0.07,0.01c0.79,0.1,1.65,0.24,2.52,0.41l0.44,0.46l0.45,0.47l2.46,2.58l2.08,2.17l0.25,0.27l0.26,0.27
			l6.77,7.09l0.07-0.13l5.68-10.86l2.51-4.79c0.35,0.45,1.22,0.94,2.51,1.48c1.79,0.74,4.37,1.59,7.39,2.6
			c4.2,1.42,9.24,3.14,14.23,5.36c0.02,0.01,0.05,0.02,0.07,0.04c3.67,1.63,7.29,3.54,10.51,5.78c0.06,0.04,0.12,0.09,0.18,0.13
			c0.02,0.01,0.04,0.03,0.06,0.04C132.01,133.08,136.28,137.96,137.43,144.18z"/>
		<g>
			<g>
				<path class="st2" d="M126.55,129.15c-0.01,0.01-0.02,0.04-0.04,0.05c-0.73,1.05-1.38,2.21-1.96,3.45
					c-3.45,7.23-4.69,17.11-5.29,23.52c-0.61,0.3-1.22,0.58-1.83,0.84c-0.17,0.08-0.35,0.16-0.53,0.24
					c-0.06,0.03-0.14,0.06-0.2,0.09c-0.08,0.04-0.16,0.07-0.24,0.1c-0.18,0.08-0.36,0.16-0.54,0.23c-0.53,0.22-1.05,0.43-1.58,0.64
					c-0.08,0.04-0.17,0.07-0.25,0.1c-0.22,0.08-0.44,0.17-0.66,0.25c-0.04,0.01-0.07,0.03-0.11,0.04c-0.04,0.02-0.09,0.04-0.13,0.05
					c-0.2,0.09-0.42,0.16-0.63,0.24c-0.14,0.05-0.27,0.1-0.42,0.15c-0.09,0.04-0.19,0.07-0.29,0.11c-0.08,0.03-0.17,0.06-0.25,0.09
					c-0.45,0.16-0.9,0.31-1.35,0.46c-0.63,0.2-1.26,0.4-1.88,0.59c-0.01,0-0.01,0.01-0.02,0.01c-0.08,0.03-0.15,0.04-0.23,0.07
					c-0.14,0.04-0.27,0.08-0.41,0.12c-0.05,0.01-0.1,0.03-0.15,0.04c-0.3,0.09-0.59,0.17-0.89,0.25c-0.06,0.01-0.14,0.04-0.2,0.05
					c-0.14,0.04-0.3,0.08-0.45,0.12c-0.15,0.04-0.3,0.08-0.45,0.12c-0.33,0.09-0.67,0.17-1,0.26c-0.1,0.02-0.2,0.05-0.3,0.07
					c-0.08,0.02-0.15,0.04-0.23,0.06c-0.46,0.11-0.92,0.22-1.37,0.32c-0.18,0.04-0.36,0.08-0.55,0.12
					c-0.41,0.09-0.82,0.18-1.23,0.26c-0.01,0-0.03,0.01-0.04,0.01c-0.07,0.01-0.15,0.03-0.22,0.04c-0.63,0.12-1.26,0.24-1.89,0.34
					c-1.14,0.19-2.28,0.36-3.43,0.5c-0.25,0.04-0.51,0.06-0.76,0.09c-0.44,0.05-0.87,0.09-1.31,0.13c-0.27,0.03-0.55,0.06-0.82,0.08
					c-0.48,0.05-0.94,0.08-1.42,0.11c-0.47,0.04-0.94,0.07-1.41,0.08c-0.75,0.05-1.49,0.07-2.25,0.08c-0.01,0-0.01,0-0.01,0
					c-0.15,0.01-0.31,0.01-0.45,0.01c-0.04,0-0.07,0.01-0.11,0.01c-0.17,0.01-0.35,0.01-0.52,0c-0.17,0.01-0.33,0.01-0.51,0.01
					c-0.2,0-0.4,0-0.61-0.01c-0.13,0-0.27-0.01-0.4-0.01c-0.67-0.01-1.35-0.02-2.02-0.06c-1.18-0.04-2.36-0.12-3.54-0.21
					c-0.22-0.02-0.44-0.04-0.66-0.06c-0.3-0.03-0.6-0.06-0.9-0.09c-1.51-0.14-3.01-0.35-4.51-0.59c-0.58-0.1-1.16-0.2-1.74-0.31
					c-0.18-0.04-0.37-0.07-0.56-0.11c-0.17-0.03-0.33-0.06-0.5-0.09c-0.06-0.01-0.12-0.04-0.18-0.04c-0.28-0.06-0.56-0.12-0.85-0.18
					c-0.08-0.01-0.16-0.04-0.24-0.05c-0.33-0.07-0.65-0.14-0.98-0.22h-0.01c-1.21-0.28-2.41-0.59-3.61-0.93
					c-0.12-0.04-0.24-0.07-0.35-0.1c-0.09-0.02-0.17-0.05-0.26-0.08c-1.38-0.4-2.75-0.84-4.12-1.34c-0.2-0.07-0.4-0.14-0.6-0.22
					c-0.29-0.1-0.57-0.21-0.85-0.32c-0.36-0.14-0.72-0.27-1.08-0.42c-0.24-0.09-0.47-0.19-0.7-0.28c-0.17-0.06-0.33-0.13-0.49-0.2
					c-0.1-0.04-0.19-0.08-0.3-0.12c-0.01-0.01-0.03-0.01-0.04-0.02c-0.06-0.02-0.12-0.04-0.17-0.07c-0.05-0.02-0.11-0.04-0.16-0.07
					c-0.07-0.03-0.13-0.05-0.19-0.08c-0.25-0.1-0.49-0.21-0.74-0.33c-0.1-0.04-0.19-0.09-0.29-0.14c-0.24-0.11-0.48-0.21-0.71-0.32
					c-0.22-0.09-0.43-0.19-0.64-0.29c-0.17-0.07-0.33-0.15-0.5-0.22c-0.35-0.17-0.69-0.34-1.03-0.51c-0.28-0.14-0.56-0.29-0.84-0.43
					c-0.05-0.02-0.11-0.05-0.16-0.08c-0.32-0.16-0.65-0.34-0.97-0.51c-0.03-0.01-0.06-0.03-0.09-0.05
					c-0.05-0.02-0.09-0.05-0.14-0.08c-0.34-0.17-0.67-0.35-1-0.53c-0.16-0.09-0.31-0.17-0.47-0.27c-0.04-0.02-0.08-0.04-0.12-0.07
					c-0.2-0.12-0.4-0.23-0.61-0.35c-0.01-0.07-0.03-0.15-0.05-0.22c-0.04-0.21-0.09-0.42-0.14-0.64c-1.5-6.35-3.82-13.65-7.51-18.57
					c-0.02-0.02-0.04-0.04-0.05-0.07c3.01-2.71,6.42-5.13,9.83-7.28c6.62,9,19.49,14.8,34.02,14.17
					c14.71-0.64,27.16-7.7,32.88-17.44c0.01-0.01,0.01-0.02,0.02-0.04c3.7,1.65,7.36,3.57,10.61,5.83
					C126.45,129.08,126.5,129.11,126.55,129.15z"/>
				<path class="st3" d="M85.67,148.57c-0.23,2.6-0.23,8.71-0.56,15.18c0.2,0.01,0.4,0.01,0.61,0.01c0.17,0,0.34-0.01,0.51-0.01
					c0.17,0.01,0.35,0.01,0.52,0c0.04,0,0.07-0.01,0.11-0.01c0.14,0.01,0.3,0,0.45-0.01C86.37,157.45,85.79,151.4,85.67,148.57z"/>
			</g>
		</g>
		<g>
			<path class="st1" d="M129.25,150.5c-0.48,0.32-0.96,0.64-1.44,0.95c-0.5,0.32-1,0.63-1.5,0.94c-0.26,0.16-0.52,0.31-0.78,0.46
				l-0.97-20.2l-0.19-3.83c0.65,0.05,1.29,0.12,1.91,0.2c0.04,0.01,0.08,0.01,0.12,0.01c7.19,0.99,12.99,4.16,17.45,8.74
				c-2.03,2.27-4.17,4.4-6.42,6.4c-0.17,0.15-0.35,0.31-0.53,0.46c-0.35,0.3-0.71,0.61-1.06,0.9c-0.27,0.22-0.54,0.45-0.82,0.67
				c-0.26,0.21-0.52,0.42-0.78,0.63c-0.01,0-0.01,0.01-0.02,0.01c-1.39,1.11-2.82,2.17-4.27,3.16
				C129.72,150.18,129.49,150.34,129.25,150.5z"/>
		</g>
		<g>
			<path class="st1" d="M60.28,88.91c3.3-11.57,8.62-23.96,11.79-35.1c0,0,11.7-4.58,13.44-4.76c1.09-0.11,2.19-0.12,3.28-0.02
				c1.07,0.26,2.11,0.62,3.1,1.08c1.58,0.73,11.16,8.87,11.16,8.87c-0.62,11.56-0.03,24.18-0.67,36.19
				c-0.26,4.9-1.72,10.58-6.01,13.37c-6.17,4.02-6.19,10.73-14.67,9.32c-12.46-2.08-15.79-13.07-18.56-18.06
				C60.66,95.34,58.94,93.63,60.28,88.91z"/>
			<path class="st4" d="M82.37,70.96c-0.52-0.32-1.5-0.86-1.5-0.86l-1.66,0.98c0,0,0.27-1.56-0.02-1.7
				c-7.6-3.52-10.59,0.22-10.59,0.22c2.25,0.28,4.51,0.88,6.62,1.85c2.9,1.34,4.44,2.72,5.53,4.7
				C81.45,74.52,82.05,72.81,82.37,70.96z"/>
			<path class="st4" d="M88.88,71.86c0.58-0.17,1.68-0.42,1.68-0.42l1.33,1.39c0,0,0.17-1.58,0.48-1.63
				c8.27-1.31,10.13,3.1,10.13,3.1c-2.24-0.34-4.58-0.39-6.88-0.03c-3.16,0.49-5.01,1.4-6.6,3.01
				C88.79,75.54,88.68,73.74,88.88,71.86z"/>
			<g>
				<path class="st2" d="M69.15,77.49c0,0,0,0.01,0.01,0.01c0.03,0.09,0.06,0.18,0.09,0.27c1.23,2.87,8.24,4.26,10.56,3.03
					c-0.15-3.19-1.21-6.12-4.67-5.88c-3.14,0.21-4.74,0.2-5.98,2.55C69.16,77.48,69.15,77.48,69.15,77.49z"/>
				<g>
					<g>
						<path class="st5" d="M76.77,78.65c-0.33,1.55-1.37,2.7-2.51,2.94c-0.29,0.06-0.59,0.06-0.89,0c-1.46-0.32-2.31-2.16-1.89-4.11
							c0.42-1.95,1.94-3.26,3.4-2.94c1.33,0.29,2.15,1.84,1.98,3.58C76.83,78.3,76.81,78.47,76.77,78.65z"/>
						<path class="st4" d="M76.77,78.65c-0.33,1.55-1.37,2.7-2.51,2.94c-0.36-0.51-0.5-1.25-0.33-2.03
							c0.27-1.25,1.24-2.09,2.18-1.89c0.29,0.06,0.54,0.22,0.75,0.45C76.83,78.3,76.81,78.47,76.77,78.65z"/>
					</g>
					<path class="st2" d="M77.85,78.4l-2.46,0.38c0,0,1.79,1.24,2.81,1.41C78.13,79.59,78.01,78.99,77.85,78.4z"/>
				</g>
				<path class="st6" d="M69.25,77.77c0.49,1.4,3.12,7.39,10.59,3.28c0.74-2.17,0.3-8.47-5.6-9.02c-4.23-0.4-4.94,5.06-5.05,5.37
					c-0.01,0.02-0.02,0.05-0.02,0.07c1.24-2.34,4.16-2.43,5.92-2.12c3.48,0.62,4.08,2.33,4.73,5.45
					C77.49,82.03,70.48,80.64,69.25,77.77z"/>
			</g>
			<g>
				<path class="st2" d="M100.1,82C100.09,82.01,100.09,82.01,100.1,82c-0.05,0.09-0.11,0.16-0.16,0.23
					c-1.87,2.31-8.64,1.75-10.44,0.03c0.96-2.88,2.69-5.28,5.79-4.17c2.81,1.01,4.28,1.41,4.81,3.88C100.09,81.99,100.1,82,100.1,82
					z"/>
				<g>
					<g>
						<path class="st5" d="M94.68,84.32c-0.2,0.05-0.41,0.07-0.62,0.06c-1.42-0.08-2.47-1.68-2.35-3.57
							c0.12-1.89,1.38-3.35,2.8-3.27c1.38,0.08,2.41,1.58,2.36,3.39c0,0.06,0,0.12-0.01,0.18C96.75,82.72,95.83,84.02,94.68,84.32z"
							/>
						<path class="st4" d="M94.68,84.32c-0.46-0.41-0.74-1.13-0.69-1.93c0.08-1.21,0.88-2.15,1.8-2.1c0.43,0.03,0.81,0.27,1.08,0.65
							c0,0.06,0,0.12-0.01,0.18C96.75,82.72,95.83,84.02,94.68,84.32z"/>
					</g>
					<path class="st2" d="M97.94,80.98l-2.23,0.35c0,0,1.13,0.78,2.07,1.16C97.84,81.98,97.89,81.48,97.94,80.98z"/>
				</g>
				<path class="st6" d="M99.93,82.24c-0.81,1.15-4.77,5.95-10.53,0.25c-0.12-2.18,1.92-7.82,7.46-6.8c3.97,0.73,3.2,5.9,3.23,6.22
					c0,0.02,0,0.05,0,0.07c-0.53-2.47-2.61-3.31-4.29-3.48c-3.35-0.34-4.91,1.08-6.31,3.77C91.29,83.99,98.06,84.54,99.93,82.24z"/>
			</g>
			<g>
				<g>
					<g>
						<g>
							<path class="st6" d="M88.49,89.68c0.78,0.04,1.45,0.45,1.48,1.3c0.04,1.48-2.43,1.72-3.57,2c-2.16,0.53-5.06-0.02-6.67-1.57
								C85.07,92.77,88.49,89.68,88.49,89.68z"/>
						</g>
					</g>
				</g>
				<path class="st6" d="M91.27,76.15c0,0-3.62,8.91-3.03,15.08C86.59,88.75,86.34,80.87,91.27,76.15z"/>
			</g>
			<path class="st4" d="M69.89,50.65c0.67-0.86,15.15-12.32,40.98-6.04c2.91,0.71-4.55,10.88-4.55,10.88
				c-3.38,5.1-15.82,5.71-16.69,5.48c-0.7-0.19-11.47-8.28-12.14-8.62c-6.92,8.94-13.61,27.67-14.37,28.24
				C63.64,77.73,63.02,59.42,69.89,50.65z"/>
			<g>
				<g>
					<path class="st1" d="M102.01,81.11c1.32-1.89,5.47-1.96,6.95-0.22c1.65,1.94-2.25,11.23-4.37,11.08
						C99.65,91.62,102.01,81.11,102.01,81.11z"/>
					<path class="st6" d="M102.14,86.18c-0.02-0.72-0.04-1.53,0.04-2.24c0.04-0.38,0.17-0.79,0.25-1.16c0.05-0.2,0.12-0.45,0.2-0.59
						c0.74-1.26,2.26-1.19,3.33-1.22c0.45-0.01,1.22-0.03,1.59,0.22c0.3,0.2,0.42,0.69,0.57,0.98c-0.8-0.94-2.75-0.61-3.72-0.06
						c-1.02,0.57-1.47,2.34-1.19,3.45c0.92-0.04,1.66,1.04,1.5,1.88c-0.16,0.84-1.87,1.21-2.08,0.36
						C104.11,87.61,102.99,86.36,102.14,86.18z"/>
				</g>
				<g>
					<path class="st1" d="M66.12,75.05c-0.89-2.35-5.26-3.53-7.29-2.09c-2.26,1.61-0.63,12.48,1.66,12.88
						C65.81,86.79,66.12,75.05,66.12,75.05z"/>
					<path class="st6" d="M64.63,80.37c0.22-0.75,0.45-1.6,0.56-2.38c0.06-0.42,0.04-0.88,0.04-1.3c0-0.22-0.01-0.51-0.06-0.67
						c-0.44-1.53-2.07-1.86-3.2-2.19c-0.47-0.13-1.28-0.35-1.74-0.19c-0.37,0.13-0.62,0.62-0.87,0.89c1.1-0.78,3.07,0.09,3.95,0.93
						c0.92,0.88,0.93,2.87,0.34,3.96c-0.96-0.28-2.04,0.65-2.09,1.59c-0.05,0.93,1.66,1.78,2.1,0.94
						C62.17,81.36,63.68,80.34,64.63,80.37z"/>
				</g>
			</g>
			<path class="st4" d="M103.03,57.71c0.74-0.2,3.12-4.46,3.47-3.56c0.42,1.05-2.71,22.86-3.67,27.63
				c-0.57-7.11-2.88-16.24-3.3-23.28L103.03,57.71z"/>
			<g>
				<path class="st4" d="M105.62,113.08c-1.16,2.68-11.33,11.79-19.4,15.95c-0.89,0.46-1.74,0.85-2.56,1.18
					c-0.31,0.12-0.61,0.23-0.91,0.33c-1.44,0.48-2.73,0.7-3.78,0.55c-1-0.14-2.18-0.68-3.47-1.52c-0.27-0.17-0.55-0.36-0.83-0.57
					c-0.65-0.47-1.32-0.99-2-1.58c-7.11-6.05-15.71-17.82-16.25-21.88c-1.03-7.68,8.24-27.63,8.24-27.63
					c-0.41,2.94-1.59,19.8,4.28,28.55c1.7,2.54,4,4.4,7.09,5.03c1.83,0.38,3.53-0.39,4.6-2.04c0-0.03,0.01-0.07,0.01-0.1
					c0.08-0.98,0.17-1.95,0.29-2.92c0.04-0.35,0.09-0.7,0.14-1.05l2.55,0.35c-0.04,0.3-0.08,0.59-0.12,0.89
					c-0.15,0.99-0.32,1.98-0.52,2.97c-0.01,0.04-0.01,0.07-0.02,0.11c0.58,1.86,2,3.05,3.86,3.19c3.24,0.24,5.82-1.11,7.86-3.37
					c6.74-7.46,7.74-24.84,8.15-27.75C102.83,81.78,108.71,105.97,105.62,113.08z"/>
			</g>
			<g>
				<g>
					<path class="st7" d="M70.79,95.59c1.41,2.44,7.31,8.05,12.32,8.51c3.87,0.35,9.16-3.91,10.89-5.42
						c-1.53-0.03-4.25-0.27-5.6-0.39C86.89,98.16,74.66,97,70.79,95.59z"/>
					<g>
						<g>
							<path class="st2" d="M92.31,98.32c-0.05,0.08-0.1,0.15-0.16,0.23c-0.09,0.12-0.18,0.24-0.27,0.37
								c-0.66,0.86-1.45,1.66-2.31,2.01c-0.04,0.01-0.07,0.03-0.11,0.04c-1.48,0.43-7.49-0.33-11.35-0.99
								c-1.54-0.27-2.74-0.51-3.18-0.67c-0.01,0-0.01,0-0.02-0.01c-0.05-0.02-0.1-0.04-0.12-0.05c-1.04-0.62-1.68-2.16-2.19-3.43
								c4.12,0.98,12.07,1.89,17.29,2.33c0.7,0.06,1.35,0.11,1.94,0.15C91.99,98.3,92.15,98.31,92.31,98.32z"/>
							<path class="st8" d="M92.15,98.54c-0.09,0.12-0.18,0.24-0.27,0.37c-0.65,0.86-1.43,1.69-2.31,2.01
								c-0.04,0.01-0.07,0.03-0.11,0.04c-1.48,0.43-7.49-0.33-11.35-0.99c-1.54-0.27-2.74-0.51-3.18-0.67c-0.01,0-0.01,0-0.02-0.01
								c-0.05-0.02-0.09-0.04-0.12-0.05c1.48,0.12,13.21,1.26,13.72,1.13c0.34-0.09,0.31-0.09,0.5-0.38
								c0.34-0.55,0.66-1.21,0.88-1.85c0.7,0.06,1.35,0.11,1.94,0.15L92.15,98.54z"/>
						</g>
					</g>
					<path class="st6" d="M92.1,98.59C92.1,98.59,92.1,98.59,92.1,98.59L92.1,98.59L92.1,98.59L92.1,98.59z M92.1,98.59
						C92.1,98.59,92.1,98.59,92.1,98.59L92.1,98.59L92.1,98.59L92.1,98.59z M94.41,98.4L94.41,98.4c-0.45,0.01-1.18-0.02-2.11-0.08
						c-0.15-0.01-0.3-0.02-0.46-0.03c-0.01,0-0.01,0-0.01,0s0,0-0.01,0c-0.13-0.01-0.26-0.01-0.4-0.03c-0.03,0-0.06-0.01-0.09-0.01
						c-0.04,0-0.09-0.01-0.12-0.01c-0.04,0-0.09-0.01-0.13-0.01c-0.11-0.01-0.22-0.02-0.34-0.03c-0.12-0.01-0.23-0.01-0.35-0.03
						h-0.03c-0.16-0.01-0.32-0.02-0.49-0.04h-0.01c-0.08-0.01-0.16-0.01-0.25-0.02c-0.17-0.01-0.33-0.03-0.51-0.04
						c-0.08-0.01-0.17-0.01-0.25-0.02c-0.17-0.01-0.35-0.03-0.53-0.04c-0.35-0.04-0.72-0.07-1.08-0.11c-0.01,0.01-0.01,0-0.02,0
						c-0.24-0.02-0.48-0.05-0.73-0.07c-0.04-0.01-0.07-0.01-0.11-0.01c-0.07-0.01-0.15-0.01-0.22-0.02h-0.05
						c-0.02-0.01-0.04-0.01-0.06-0.01c-0.02-0.01-0.04-0.01-0.06-0.01c-0.15-0.01-0.3-0.03-0.45-0.05
						c-0.19-0.01-0.38-0.04-0.58-0.06c-0.2-0.02-0.39-0.04-0.59-0.07c-0.06-0.01-0.12-0.01-0.18-0.02c-0.06-0.01-0.13-0.01-0.2-0.02
						c-0.06-0.01-0.14-0.01-0.2-0.02c-0.33-0.04-0.65-0.07-0.97-0.12c0,0-0.01,0-0.01,0c-0.06-0.01-0.14-0.01-0.2-0.02
						c-0.05-0.01-0.09-0.01-0.14-0.02c-0.11-0.01-0.21-0.02-0.32-0.04c-0.01,0-0.02,0-0.03-0.01h-0.01c-0.02,0-0.04,0-0.06-0.01
						c-0.03,0-0.05-0.01-0.08-0.01c-0.18-0.02-0.37-0.04-0.55-0.07c-0.06,0-0.12-0.01-0.17-0.02c-0.01,0-0.01,0-0.01,0
						c-0.05,0-0.11-0.01-0.17-0.01c-0.07-0.01-0.14-0.02-0.22-0.03c-0.11-0.01-0.21-0.03-0.32-0.04c-0.04-0.01-0.08-0.01-0.12-0.01
						c-0.06-0.01-0.12-0.01-0.18-0.03c-0.22-0.03-0.25-0.03-0.29-0.04c-0.1-0.01-0.2-0.02-0.3-0.04c-0.1-0.01-0.19-0.03-0.29-0.04
						c-0.15-0.02-0.3-0.04-0.45-0.06c-0.3-0.04-0.58-0.09-0.87-0.13c-0.13-0.02-0.25-0.04-0.38-0.06c-0.09-0.01-0.19-0.03-0.29-0.04
						c-0.09-0.01-0.18-0.02-0.27-0.04c-0.09-0.01-0.18-0.02-0.27-0.04c-0.18-0.03-0.35-0.06-0.53-0.09
						c-0.17-0.03-0.34-0.06-0.51-0.09c-0.04-0.01-0.07-0.01-0.12-0.02c-0.04-0.01-0.08-0.01-0.12-0.02
						c-0.03-0.01-0.06-0.01-0.09-0.01c-0.01,0-0.02,0-0.04-0.01c-0.05-0.01-0.11-0.01-0.17-0.02c-0.17-0.03-0.32-0.06-0.49-0.09
						h-0.01c-0.08-0.01-0.16-0.03-0.24-0.04c-0.08-0.01-0.16-0.03-0.23-0.04l-0.2-0.04c-0.06-0.01-0.13-0.03-0.19-0.04
						c-0.01,0-0.01-0.01-0.02-0.01c-0.01-0.01-0.03-0.01-0.05-0.01c-0.02,0-0.04-0.01-0.07-0.01l-0.19-0.04
						c-0.06-0.01-0.12-0.02-0.19-0.04c-0.28-0.06-0.56-0.12-0.81-0.18c-0.97-0.23-1.73-0.46-2.19-0.7c-0.12-0.05-0.2-0.11-0.28-0.17
						c0.01,0.06,0.04,0.12,0.06,0.19v0.01c0.09,0.23,0.24,0.52,0.45,0.84c0.58,0.9,1.6,2.09,2.91,3.3h0.01
						c0.09,0.09,0.18,0.17,0.27,0.25c0.12,0.12,0.25,0.22,0.38,0.33c1.09,0.94,2.33,1.86,3.63,2.63c1.62,0.96,3.36,1.68,5.04,1.87
						c0.07,0.01,0.14,0.02,0.22,0.03c0.19,0.01,0.39,0.03,0.59,0.02c0,0,0,0,0.01,0c0.79-0.01,1.62-0.19,2.47-0.46
						c0.72-0.24,1.44-0.56,2.15-0.92c0.56-0.28,1.12-0.6,1.65-0.93c0.22-0.14,0.43-0.27,0.64-0.41h0.01
						c1.99-1.31,3.56-2.69,4.07-3.16c0.09-0.08,0.14-0.14,0.17-0.16C94.8,98.39,94.64,98.4,94.41,98.4z M93.72,98.93
						c-0.19,0.17-0.43,0.36-0.68,0.56c-0.01,0.01-0.04,0.03-0.05,0.04c-0.08,0.06-0.16,0.12-0.24,0.19
						c-0.06,0.05-0.13,0.11-0.2,0.16c-0.02,0.01-0.04,0.03-0.06,0.04c-0.03,0.02-0.05,0.04-0.07,0.06
						c-0.07,0.06-0.15,0.12-0.22,0.17c-0.02,0.01-0.04,0.02-0.05,0.04c-0.06,0.04-0.12,0.09-0.18,0.14
						c-0.08,0.06-0.16,0.12-0.25,0.18c-0.08,0.06-0.17,0.12-0.25,0.18c-0.08,0.07-0.17,0.12-0.25,0.18
						c-0.04,0.04-0.09,0.06-0.13,0.1c-0.02,0.01-0.04,0.03-0.06,0.04c-0.01,0-0.01,0.01-0.01,0.01c-0.01,0.01-0.04,0.02-0.05,0.04
						c-0.09,0.06-0.18,0.12-0.27,0.18c-0.06,0.04-0.12,0.08-0.18,0.12c-0.09,0.07-0.19,0.12-0.28,0.19c0,0.01-0.01,0.01-0.01,0.01
						c-0.03,0.01-0.06,0.04-0.09,0.05c-0.12,0.08-0.24,0.15-0.36,0.22c-0.17,0.11-0.33,0.21-0.51,0.32
						c-0.24,0.14-0.48,0.27-0.71,0.4c0,0,0,0-0.01,0c-0.03,0.01-0.06,0.03-0.09,0.05c-0.07,0.04-0.13,0.07-0.2,0.11
						c-0.04,0.02-0.09,0.04-0.14,0.06c-0.06,0.03-0.12,0.06-0.17,0.09c-0.01,0.01-0.03,0.01-0.04,0.02
						c-0.11,0.05-0.21,0.1-0.32,0.15c-0.11,0.05-0.22,0.1-0.33,0.15c-0.19,0.08-0.38,0.16-0.56,0.23c-0.01,0.01-0.02,0.01-0.03,0.01
						c-0.19,0.07-0.38,0.14-0.56,0.2c-0.01,0.01-0.01,0.01-0.01,0.01c-0.02,0.01-0.04,0.01-0.07,0.02
						c-0.01,0.01-0.03,0.01-0.04,0.01c-0.01,0-0.02,0.01-0.03,0.01c-0.08,0.03-0.15,0.05-0.23,0.07c-0.1,0.03-0.19,0.06-0.3,0.09
						c-0.1,0.03-0.19,0.05-0.29,0.07c-0.04,0.01-0.07,0.01-0.1,0.02c-0.12,0.03-0.25,0.05-0.37,0.07c-0.01,0.01-0.02,0.01-0.03,0.01
						c-0.03,0-0.05,0.01-0.08,0.01c-0.12,0.02-0.25,0.04-0.38,0.05c-0.09,0.01-0.17,0.02-0.26,0.02h-0.01
						c-0.04,0-0.07,0.01-0.1,0.01c-0.03,0-0.07,0.01-0.1,0.01v-0.01c-0.03,0.01-0.06,0.01-0.09,0.01c-0.07,0-0.14,0-0.22-0.01
						c-0.1,0-0.2-0.01-0.3-0.01c-0.11-0.01-0.22-0.02-0.33-0.04c-0.09-0.01-0.19-0.03-0.29-0.04c-0.01-0.01-0.03-0.01-0.04-0.01
						c-0.07-0.01-0.14-0.03-0.22-0.04c-0.02-0.01-0.05-0.01-0.07-0.01c-0.05-0.01-0.09-0.02-0.14-0.03
						c-0.08-0.02-0.15-0.04-0.22-0.06c-0.07-0.02-0.15-0.04-0.22-0.06c-0.09-0.02-0.17-0.04-0.25-0.07
						c-0.07-0.02-0.14-0.04-0.2-0.07c-0.02-0.01-0.04-0.01-0.06-0.02c-0.04-0.01-0.09-0.03-0.14-0.04
						c-0.03-0.01-0.05-0.01-0.08-0.02c-0.04-0.01-0.09-0.03-0.13-0.05c-0.01-0.01-0.03-0.01-0.04-0.01
						c-0.07-0.03-0.15-0.06-0.22-0.09c-0.09-0.04-0.18-0.07-0.27-0.1c-0.12-0.05-0.22-0.09-0.33-0.14
						c-0.09-0.04-0.17-0.07-0.25-0.12c-0.02-0.01-0.04-0.01-0.05-0.02c-0.23-0.1-0.45-0.22-0.69-0.34c-0.06-0.04-0.13-0.07-0.2-0.11
						c-0.05-0.02-0.09-0.05-0.14-0.07c-0.06-0.04-0.14-0.08-0.2-0.12c-0.03-0.02-0.07-0.04-0.09-0.06
						c-0.07-0.04-0.14-0.08-0.22-0.12c-0.02-0.01-0.04-0.03-0.07-0.04c-0.09-0.06-0.19-0.12-0.28-0.17
						c-0.01-0.01-0.03-0.01-0.04-0.03c-0.07-0.04-0.12-0.07-0.19-0.12c-0.01-0.01-0.03-0.02-0.04-0.03c-0.05-0.04-0.1-0.06-0.15-0.1
						c-0.02-0.01-0.05-0.03-0.07-0.05c-0.08-0.04-0.16-0.09-0.23-0.14c-0.1-0.07-0.19-0.14-0.3-0.21c-0.05-0.04-0.1-0.07-0.15-0.11
						c-0.06-0.04-0.11-0.08-0.17-0.12c-0.03-0.02-0.06-0.04-0.09-0.06c-0.07-0.04-0.12-0.09-0.19-0.14
						c-0.11-0.08-0.22-0.16-0.32-0.25c-0.33-0.25-0.65-0.51-0.96-0.77c-0.06-0.05-0.12-0.1-0.17-0.15
						c-0.04-0.04-0.09-0.07-0.13-0.12l-0.01,0.01c-0.02-0.01-0.04-0.04-0.06-0.06c-0.12-0.1-0.23-0.2-0.34-0.3
						c-0.01-0.01-0.03-0.02-0.04-0.03c0-0.01-0.01-0.01-0.01-0.01s-0.01,0-0.01-0.01c-0.25-0.22-0.48-0.44-0.71-0.66
						c-0.12-0.12-0.24-0.24-0.35-0.35c-0.01-0.01-0.02-0.01-0.03-0.02c-0.04-0.05-0.09-0.09-0.14-0.14
						c-0.06-0.05-0.11-0.11-0.16-0.17c-0.05-0.05-0.1-0.11-0.15-0.16c-0.1-0.11-0.2-0.22-0.29-0.33c-0.05-0.05-0.1-0.1-0.14-0.16
						c-0.18-0.21-0.35-0.41-0.5-0.61c-0.08-0.09-0.15-0.19-0.22-0.28c-0.04-0.04-0.07-0.09-0.1-0.14c-0.01-0.01-0.02-0.03-0.03-0.04
						c-0.02-0.02-0.04-0.04-0.05-0.06c-0.01-0.01-0.01-0.02-0.01-0.03c-0.04-0.05-0.06-0.09-0.09-0.13
						c-0.03-0.04-0.06-0.09-0.08-0.13c-0.03-0.04-0.04-0.07-0.06-0.1c-0.03-0.04-0.05-0.07-0.07-0.12c-0.01,0-0.01-0.01-0.01-0.01
						c0.05,0.01,0.09,0.04,0.14,0.05c0.01,0,0.02,0.01,0.04,0.01c0.07,0.02,0.13,0.04,0.19,0.07c0.05,0.01,0.1,0.03,0.15,0.04
						c0.01,0.01,0.04,0.01,0.06,0.02c0.14,0.04,0.3,0.09,0.45,0.13c0.08,0.02,0.17,0.04,0.25,0.06c0.17,0.04,0.33,0.09,0.51,0.13
						c0.04,0.01,0.09,0.02,0.13,0.03h0.01c0.14,0.04,0.27,0.06,0.41,0.09c0.09,0.02,0.19,0.04,0.28,0.06
						c0.04,0.01,0.09,0.01,0.12,0.02h0.01c0.01,0.01,0.02,0.01,0.04,0.01c0.06,0.01,0.12,0.03,0.17,0.04
						c0.09,0.02,0.19,0.04,0.28,0.06c0.09,0.02,0.19,0.04,0.28,0.05c0.05,0.01,0.1,0.02,0.16,0.04c0.03,0.01,0.06,0.01,0.09,0.01
						c0.01,0,0.01,0,0.01,0c0.01,0,0.03,0.01,0.04,0.01c0.11,0.02,0.21,0.04,0.32,0.07c0.11,0.02,0.22,0.04,0.33,0.06
						c0.12,0.01,0.22,0.04,0.33,0.06c0.12,0.02,0.25,0.04,0.38,0.07c0.13,0.02,0.26,0.04,0.39,0.06c0.19,0.04,0.38,0.06,0.58,0.09
						c0.06,0.01,0.14,0.02,0.21,0.04c0.13,0.02,0.27,0.04,0.4,0.06c0.14,0.02,0.27,0.04,0.4,0.06c0.27,0.04,0.54,0.08,0.82,0.12
						c0.33,0.04,0.65,0.09,0.97,0.13c0.4,0.05,0.79,0.11,1.18,0.15c0.07,0.01,0.14,0.02,0.22,0.03c0.09,0.01,0.19,0.02,0.29,0.04
						c0.16,0.02,0.32,0.04,0.48,0.06c0.08,0.01,0.17,0.02,0.25,0.04c0.02,0,0.04,0,0.06,0.01c0.17,0.02,0.35,0.04,0.51,0.06
						c0.13,0.01,0.25,0.03,0.37,0.04c0.12,0.01,0.24,0.03,0.36,0.04c0.1,0.01,0.21,0.02,0.31,0.04l0.04,0.01
						c0.14,0.01,0.3,0.03,0.44,0.04c0.04,0.01,0.07,0.01,0.1,0.01h0.03c0.07,0.01,0.14,0.01,0.21,0.02c0.03,0.01,0.07,0.01,0.1,0.01
						c0.03,0,0.07,0,0.1,0.01c0.06,0.01,0.12,0.01,0.17,0.02c0.11,0.01,0.22,0.02,0.32,0.04c0.17,0.02,0.34,0.04,0.5,0.05
						c0.09,0.01,0.17,0.01,0.25,0.02l0.13,0.02h0.02c0.03,0,0.06,0.01,0.09,0.01c0.04,0.01,0.07,0.01,0.1,0.01
						c0.04,0.01,0.09,0.01,0.13,0.01h0.03c0.12,0.01,0.25,0.03,0.35,0.04c0.01,0.01,0.02,0.01,0.04,0.01c0.01,0,0.01,0,0.01,0
						c0.07,0.01,0.14,0.01,0.2,0.02c0.49,0.05,0.87,0.09,1.1,0.11c0.02,0,0.04,0,0.07,0.01h0.06c0.08,0.01,0.17,0.02,0.27,0.03
						c0.28,0.02,0.61,0.05,0.96,0.08c0.04,0.01,0.09,0.01,0.14,0.01h0.01c0.06,0.01,0.12,0.01,0.17,0.01
						c0.2,0.01,0.4,0.04,0.61,0.05c0.25,0.02,0.51,0.04,0.77,0.06c0.06,0.01,0.12,0.01,0.17,0.01h0.02
						c0.13,0.01,0.26,0.02,0.39,0.03c0.03,0,0.06,0,0.09,0.01c0.03,0,0.06,0,0.09,0.01h0.01v-0.01c0.04,0,0.07,0.01,0.1,0.01
						c0.03,0.01,0.06,0.01,0.09,0.01c0.06,0.01,0.13,0.01,0.19,0.01c0.06,0,0.12,0.01,0.19,0.01h0.02c0.14,0.01,0.27,0.01,0.4,0.02
						c0.07,0.01,0.13,0.01,0.19,0.01c0.06,0,0.12,0,0.19,0.01c0.07,0,0.14,0,0.22,0.01c0.11,0,0.21,0,0.3,0.01
						C93.92,98.76,93.82,98.84,93.72,98.93z M92.1,98.59C92.1,98.59,92.1,98.59,92.1,98.59L92.1,98.59L92.1,98.59L92.1,98.59z"/>
				</g>
				<g>
					<path class="st4" d="M81.76,93.55c0,0-2.71-4.54-8.09-0.04c-1,0.84-2.39,1.58-3.71,1.64c-1.92,0.09-3.03-1.9-3.9-3.26
						c-2.58,4.22,3.49,10.17,13.23,5.95c1.19-0.52,1.96,0.64,3.08,0.95C83.2,97.19,83,95.58,81.76,93.55z"/>
					<path class="st4" d="M84.06,93.87c0,0,3.84-3.63,7.79,2.17c0.73,1.08,1.86,2.18,3.12,2.59c1.83,0.61,3.43-1,4.64-2.08
						c1.33,4.76-6.14,8.83-14.36,2.11c-1.01-0.82-2.06,0.08-3.22,0.08C81.69,96.98,82.32,95.48,84.06,93.87z"/>
				</g>
			</g>
			<path class="st9" d="M98.55,51.45c0.9-1.09,2.11-1.96,3.07-2.97c-1.66,1.15-11.45,3.09-12.02,3.27c0.86-0.71,1.76-1.41,2.64-2.07
				c-2.75,0.96-13.21,1.75-13.21,1.75c1.1,0.99,9.54,7.11,11.11,7.57c2.16,0.64,14.7-2.78,18.18-10.56
				C107.02,48.76,100.16,50.84,98.55,51.45z"/>
			<path class="st4" d="M65.96,115.36c-0.42,3.98,0.62,8.14,1.73,11.88c0.54-0.87,1.18-1.67,1.95-2.28
				c0.22,3.38,1.79,6.75,2.89,9.89c0.57-0.73,1.06-1.58,1.62-2.29c0.01,2.08,3.57,7.51,3.58,7.5c0.01,0.01,4.91-4.24,5.49-6.24
				c0.35,0.84,0.58,1.79,0.94,2.65c1.92-2.72,4.35-5.53,5.48-8.72c0.58,0.8,0.97,1.74,1.25,2.72c2.09-3.29,4.22-7.01,4.91-10.95
				L65.96,115.36z"/>
			<path class="st9" d="M90.26,126.39c-0.25-0.88-0.61-1.73-1.13-2.45c-0.64,1.81-1.75,3.49-2.91,5.09
				c-0.68,0.94-1.38,1.85-2.01,2.75c-0.21-0.51-0.37-1.05-0.55-1.58c-0.09-0.27-0.19-0.55-0.29-0.81c-0.09,0.32-0.31,0.71-0.61,1.14
				c-1.35,1.91-4.31,4.47-4.32,4.47c-0.01,0-2.13-3.23-2.92-5.44c-0.18-0.51-0.29-0.96-0.29-1.31c-0.18,0.24-0.36,0.49-0.53,0.74
				c-0.3,0.44-0.6,0.9-0.93,1.32c-0.33-0.94-0.71-1.91-1.07-2.9c-0.72-1.95-1.39-3.97-1.52-5.99c-0.69,0.55-1.27,1.27-1.75,2.05
				c-0.94-3.15-2.51-12.14-0.46-17.01c1.7,2.54,4,4.4,7.09,5.03c1.83,0.38,3.53-0.39,4.6-2.04c0-0.03,0.01-0.07,0.01-0.1
				c0.08-0.98,0.17-1.95,0.29-2.92c0.04-0.35,0.09-0.7,0.14-1.05l2.55,0.35c-0.04,0.3-0.08,0.59-0.12,0.89
				c-0.15,0.99-0.32,1.98-0.52,2.97c-0.01,0.04-0.01,0.07-0.02,0.11c0.58,1.86,2,3.05,3.86,3.19c3.24,0.24,5.82-1.11,7.86-3.37
				C94.54,116.52,91.97,123.7,90.26,126.39z"/>
		</g>
	</g>
</g>
</svg>
