<?xml version="1.0" encoding="utf-8"?>
<!-- Generator: Adobe Illustrator 27.2.0, SVG Export Plug-In . SVG Version: 6.00 Build 0)  -->
<svg version="1.1" id="Layer_1" xmlns="http://www.w3.org/2000/svg" xmlns:xlink="http://www.w3.org/1999/xlink" x="0px" y="0px"
	 viewBox="0 0 171.51 171.51" style="enable-background:new 0 0 171.51 171.51;" xml:space="preserve">
<style type="text/css">
	.st0{fill:#F7F2DA;}
	.st1{fill:#FBA479;}
	.st2{fill:#FFFFFF;}
	.st3{fill:#E1DFEA;}
	.st4{fill:#261411;}
	.st5{fill:#60312B;}
	.st6{fill:#EF7950;}
	.st7{fill:#60281F;}
	.st8{fill:#E8E6E6;}
	.st9{fill:#3A2827;}
	.st10{fill:#CCCCCC;}
	.st11{fill:#595857;}
	.st12{fill:#F28C5F;}
	.st13{fill:#E26939;}
	.st14{fill:#56413D;}
	.st15{fill:#44322E;}
	.st16{fill:#873421;}
	.st17{fill:#EA6CA0;}
	.st18{fill:#DB5290;}
	.st19{fill:#F48656;}
	.st20{fill:#82112F;}
	.st21{fill:#D85039;}
	.st22{fill:#574984;}
	.st23{fill:#291C51;}
	.st24{fill:#FC5135;}
	.st25{fill:#FFCC7B;}
	.st26{fill:#E8A749;}
	.st27{fill:#6D4A44;}
	.st28{fill:#D1E3E8;}
	.st29{fill:#FCFBFA;}
	.st30{fill:#4C4C4B;}
	.st31{fill:#686868;}
	.st32{fill:#FFB884;}
	.st33{fill:#EF9C62;}
	.st34{fill:#874410;}
	.st35{fill:#6D340D;}
	.st36{fill:#E89258;}
	.st37{fill:#3A2E26;}
	.st38{fill:#4C3F35;}
	.st39{opacity:0.1;}
	.st40{fill:#60120F;}
	.st41{fill:#F4F0ED;}
	.st42{fill:#E0312D;}
	.st43{fill:#F42F2F;}
	.st44{fill:#D31111;}
	.st45{fill:#DB9B19;}
	.st46{fill:#AF740B;}
	.st47{fill:#CC2121;}
	.st48{fill:#F74B4B;}
	.st49{fill:#FCF9E8;}
	.st50{opacity:0.5;fill:#827571;}
	.st51{fill:#665D5C;}
	.st52{fill:#4F4746;}
	.st53{fill:#5E3B2F;}
	.st54{fill:#492E27;}
	.st55{opacity:0.4;}
	.st56{fill:#443A36;}
	.st57{fill:#51415E;}
	.st58{fill:#066FB7;}
	.st59{fill:#066396;}
	.st60{fill:#0D8FD6;}
	.st61{fill:#FEAC74;}
	.st62{fill:#E3784C;}
	.st63{fill:#580801;}
	.st64{fill:#440502;}
	.st65{fill:#00ABB2;}
	.st66{fill:#008C8C;}
	.st67{fill:#914E34;}
	.st68{fill:#5B2E1D;}
	.st69{fill:#6A3221;}
	.st70{fill:#FAFAFC;}
	.st71{fill:#2B3B3F;}
	.st72{fill:#3F565B;}
	.st73{fill:#EF7348;}
	.st74{fill:#6F3D26;}
	.st75{fill:#BBBEBF;}
	.st76{fill:#D3D3D3;}
	.st77{fill:#939A9E;}
	.st78{fill:#F79C5E;}
	.st79{fill:#E07832;}
	.st80{fill:#604135;}
	.st81{fill:#EFEAE8;}
	.st82{fill:#4F3229;}
	.st83{fill:#1A3D3A;}
	.st84{fill:#E8E8E8;}
	.st85{fill:#0C83C4;}
	.st86{fill:#1B96EA;}
	.st87{fill:#B50F0F;}
	.st88{opacity:0.4;fill:#E89258;}
	.st89{fill:#26ACF7;}
	.st90{fill:#F45347;}
	.st91{fill:#FF3939;}
	.st92{fill:#686766;}
	.st93{fill:#5E5D5B;}
	.st94{fill:#424140;}
	.st95{fill:#E7E1CB;}
	.st96{fill:#D6CFBA;}
	.st97{fill:#CE5C37;}
	.st98{fill:#B74D30;}
	.st99{fill:#1B313D;}
	.st100{fill:#36474F;}
	.st101{fill:#29526D;}
	.st102{fill:#FCBD88;}
	.st103{fill:#FCA265;}
	.st104{fill:#496B7A;}
	.st105{fill:#B76049;}
	.st106{fill:#EDEDED;}
	.st107{fill:#7C7979;}
	.st108{fill:#EFE6E8;}
	.st109{fill:#B20D28;}
	.st110{fill:#346682;}
	.st111{fill:#AA0E28;}
	.st112{fill:#FF5050;}
	.st113{fill:#781A0E;}
	.st114{fill:#560904;}
	.st115{fill:#FF0B40;}
	.st116{fill:#BC0000;}
	.st117{fill:#FFD731;}
	.st118{fill:#EA6453;}
	.st119{fill:#602618;}
	.st120{fill:#A14F2A;}
	.st121{fill:#3A4E66;}
	.st122{fill:#EAE9EE;}
	.st123{opacity:0.3;fill:#3A4E66;}
	.st124{fill:#5E2701;}
	.st125{fill:#773000;}
	.st126{fill:#EA2F4A;}
	.st127{fill:#C41234;}
	.st128{fill:#F7F0F1;}
	.st129{fill:#F7A76F;}
	.st130{fill:#B24800;}
	.st131{fill:#8C3B03;}
	.st132{fill:#567391;}
	.st133{fill:#FF7271;}
	.st134{fill:#F75E5E;}
	.st135{fill:#700F28;}
	.st136{fill:#9E1533;}
	.st137{fill:#871231;}
	.st138{fill:#211B3A;}
	.st139{fill:#2E2951;}
	.st140{fill:#F28670;}
	.st141{fill:#F46060;}
	.st142{fill:#EBBF44;}
	.st143{fill:#E0A91E;}
	.st144{fill:#FFA992;}
	.st145{fill:#2C363F;}
	.st146{fill:#1D262D;}
	.st147{fill-rule:evenodd;clip-rule:evenodd;fill:#FFF5F5;}
	.st148{opacity:0.2;}
	.st149{fill:#7C4949;}
	.st150{fill:#F9AE7A;}
	.st151{fill:#FFF5F5;}
	.st152{fill:#C92727;}
	.st153{fill:#4C1B05;}
	.st154{fill:#592009;}
	.st155{opacity:0.4;fill:#592009;}
	.st156{fill:#3F1307;}
	.st157{fill:#664472;}
	.st158{fill:#473051;}
	.st159{fill:#352020;}
	.st160{opacity:0.3;fill:#7C4949;}
</style>
<g>
	<path class="st0" d="M151.68,127.41c-4.17,6.61-9.18,12.36-14.78,17.24c-0.62,0.53-1.24,1.06-1.88,1.57
		c-1.65,1.34-3.34,2.61-5.07,3.81c-2.25,1.54-4.56,2.96-6.94,4.25c-0.3,0.17-0.61,0.33-0.94,0.49c-0.03,0.01-0.06,0.04-0.1,0.05
		c-1.66,0.87-3.36,1.69-5.08,2.43c-1.18,0.52-2.38,1-3.58,1.44c-0.25,0.11-0.51,0.19-0.76,0.29c-1.39,0.52-2.79,0.98-4.21,1.41
		c-0.08,0.03-0.15,0.04-0.23,0.07c-2.4,0.71-4.83,1.31-7.29,1.81c-2.79,0.55-5.61,0.95-8.44,1.18c-0.48,0.05-0.94,0.08-1.42,0.11
		c-0.47,0.04-0.94,0.06-1.41,0.08c-0.75,0.05-1.49,0.07-2.25,0.08c-0.16,0.01-0.32,0.01-0.47,0.01c-0.21,0.01-0.42,0.01-0.63,0.01
		c-0.17,0.01-0.33,0.01-0.51,0.01c-0.33,0-0.67-0.01-1-0.01c-1.86-0.02-3.71-0.12-5.56-0.27c-2.61-0.22-5.21-0.57-7.81-1.06
		c-0.35-0.07-0.7-0.14-1.05-0.19c-0.06-0.01-0.12-0.04-0.18-0.04c-0.28-0.06-0.56-0.12-0.85-0.18c-3.22-0.69-6.41-1.6-9.57-2.72
		c-1.35-0.48-2.69-1-4.02-1.56c-0.01-0.01-0.03-0.01-0.04-0.02c-0.43-0.17-0.84-0.35-1.27-0.54c-0.1-0.04-0.19-0.09-0.29-0.14
		c-0.62-0.27-1.23-0.56-1.85-0.84c-0.63-0.31-1.25-0.61-1.87-0.94c-0.05-0.02-0.11-0.05-0.16-0.08c-0.32-0.16-0.65-0.34-0.97-0.51
		c-0.03-0.01-0.07-0.03-0.09-0.05c-0.05-0.02-0.09-0.05-0.14-0.08c-0.34-0.17-0.67-0.35-1-0.53c-0.19-0.11-0.39-0.22-0.58-0.33
		c-0.45-0.25-0.9-0.51-1.35-0.78c-0.19-0.12-0.38-0.22-0.57-0.35c-0.07-0.04-0.14-0.08-0.22-0.13c-0.27-0.17-0.55-0.33-0.82-0.5
		c-0.12-0.07-0.23-0.14-0.35-0.22c-0.48-0.3-0.96-0.61-1.42-0.93l-0.07-0.04c-0.22-0.13-0.43-0.27-0.63-0.43
		c-0.27-0.17-0.53-0.34-0.78-0.53c-0.03-0.01-0.06-0.04-0.09-0.06c-0.11-0.08-0.21-0.15-0.31-0.22c-0.26-0.18-0.51-0.35-0.77-0.53
		c-0.02-0.01-0.04-0.03-0.05-0.04c-0.61-0.43-1.2-0.87-1.78-1.33c-0.38-0.29-0.76-0.58-1.13-0.87c-0.45-0.36-0.9-0.73-1.34-1.1
		c-0.06-0.06-0.14-0.12-0.21-0.17c-0.62-0.51-1.23-1.05-1.83-1.6c-0.48-0.42-0.95-0.85-1.41-1.29c-1.23-1.14-2.4-2.32-3.54-3.53
		c-0.01-0.01-0.03-0.02-0.04-0.04c-0.87-0.92-1.7-1.86-2.51-2.82c-1.17-1.39-2.3-2.82-3.37-4.28c-0.87-1.2-1.73-2.42-2.53-3.66
		c-0.01-0.03-0.02-0.04-0.04-0.07c-0.87-1.34-1.7-2.7-2.47-4.09c-0.09-0.15-0.19-0.32-0.27-0.5c-0.55-0.96-1.05-1.94-1.55-2.93
		c-0.32-0.66-0.64-1.3-0.95-1.96c-1.06-2.3-2.01-4.64-2.85-7.03c-0.38-1.1-0.75-2.21-1.08-3.34c-0.03-0.09-0.06-0.17-0.08-0.27
		c-0.06-0.23-0.14-0.45-0.21-0.69c-0.18-0.63-0.35-1.26-0.52-1.89c-5.25-20.15-2.47-42.35,9.54-61.34
		C42.84,7.68,91.01-3.18,127.41,19.83C163.83,42.83,174.69,91,151.68,127.41z"/>
	<g>
		<g>
			<g>
				<g>
					<path class="st142" d="M68.61,136.3c-0.09,4.35-3.17,12.52-8.92,22.97c-1.35-0.48-2.69-1-4.02-1.56
						c-0.01-0.01-0.03-0.01-0.04-0.02c-0.43-0.17-0.84-0.35-1.27-0.54c-0.1-0.04-0.19-0.09-0.29-0.14
						c-0.62-0.27-1.23-0.56-1.85-0.84c-0.63-0.31-1.25-0.61-1.87-0.94c-0.05-0.02-0.11-0.05-0.16-0.08
						c-0.32-0.16-0.65-0.34-0.97-0.51c-0.03-0.01-0.07-0.03-0.09-0.05c-0.05-0.02-0.09-0.05-0.14-0.08c-0.34-0.17-0.67-0.35-1-0.53
						c-0.19-0.11-0.39-0.22-0.58-0.33c-0.45-0.25-0.9-0.51-1.35-0.78c-0.19-0.12-0.38-0.22-0.57-0.35
						c-0.07-0.04-0.14-0.08-0.22-0.13c-0.27-0.17-0.55-0.33-0.82-0.5c-0.64-0.46-1.26-0.91-1.86-1.38c-0.39-0.3-0.79-0.61-1.18-0.91
						c0.02-0.06,0.03-0.13,0.05-0.19c0.3-1.31,0.54-2.65,0.76-4.01c0.4-2.56,0.94-5,1.78-7.21c0.61-1.6,1.34-5.88,7.21-7.03
						c1.76-0.35,3.99-0.41,6.82-0.04l4.34,2.12L68.61,136.3z"/>
				</g>
				<g>
					<path class="st143" d="M68.61,136.3c-0.09,4.35-3.17,12.52-8.92,22.97c-1.35-0.48-2.69-1-4.02-1.56
						c-0.01-0.01-0.03-0.01-0.04-0.02c1.06-2.13,2.04-4.3,2.94-6.49c1.96-4.77,3.81-10.22,3.9-15.44c0.02-0.66,0-1.53-0.09-2.51
						L68.61,136.3z"/>
				</g>
			</g>
		</g>
		<path class="st142" d="M122.69,151.95c-0.07,0.31-0.13,0.63-0.19,0.95c-0.13,0.62-0.27,1.24-0.42,1.87
			c-0.03,0.01-0.06,0.04-0.1,0.05c-1.66,0.87-3.36,1.69-5.08,2.43c-1.18,0.52-2.38,1-3.58,1.44c-0.25,0.11-0.51,0.19-0.76,0.29
			c-1.39,0.52-2.79,0.98-4.21,1.41c-0.08,0.03-0.15,0.04-0.23,0.07c-2.4,0.71-4.83,1.31-7.29,1.81c-2.79,0.55-5.61,0.95-8.44,1.18
			c-0.48,0.05-0.94,0.08-1.42,0.11c-0.47,0.04-0.94,0.06-1.41,0.08c-0.75,0.05-1.49,0.07-2.25,0.08c-0.16,0.01-0.32,0.01-0.47,0.01
			c-0.21,0.01-0.42,0.01-0.63,0.01c-0.17,0.01-0.33,0.01-0.51,0.01c-0.33,0-0.67-0.01-1-0.01c-1.86-0.02-3.71-0.12-5.56-0.27
			c-2.61-0.22-5.21-0.57-7.81-1.06c-0.35-0.07-0.7-0.14-1.05-0.19c-0.06-0.01-0.12-0.04-0.18-0.04c-0.28-0.06-0.56-0.12-0.85-0.18
			c-3.22-0.69-6.41-1.6-9.57-2.72c-1.35-0.48-2.69-1-4.02-1.56c-0.01-0.01-0.03-0.01-0.04-0.02c-0.43-0.17-0.84-0.35-1.27-0.54
			c-0.1-0.04-0.19-0.09-0.29-0.14c-0.62-0.27-1.23-0.56-1.85-0.84c0.8-8.66,0.27-16.85-1.91-24.2c-0.08-0.25,0.25-0.53,0.9-0.81
			c2.75-1.2,11.36-2.64,21.5-3.81c1.42-0.16,2.86-0.32,4.33-0.47c0.51-0.05,1-0.1,1.51-0.14c5.23-0.52,10.63-0.94,15.68-1.22
			c0.32-0.01,0.65-0.03,0.97-0.05h0.01c2.11-0.1,4.14-0.17,6.07-0.22c0.69-0.02,1.37-0.04,2.04-0.04c2.84-0.04,5.39,0.01,7.51,0.16
			c0,0,0,0,0.01,0c2.2,0.16,3.94,0.41,5.05,0.8c0.13,0.04,0.26,0.09,0.38,0.14h0.02C124.21,129.4,125.07,139.89,122.69,151.95z"/>
		<path class="st143" d="M103.02,127.93c-1.3-4.85-6.65-3.29-9.54-4.93l-13.25,1.47c-3.52,1.67-7.31,0.52-8.3,4.58
			c-1.22,4.99-0.48,23.75,2.03,31.75C87.63,154.41,104.2,132.32,103.02,127.93z"/>
		<g>
			<g>
				<path class="st142" d="M135.02,146.22c-1.65,1.34-3.34,2.61-5.07,3.81c-2.25,1.54-4.56,2.96-6.94,4.25
					c-0.3,0.17-0.61,0.33-0.94,0.49c-0.03,0.01-0.06,0.04-0.1,0.05c-1.66,0.87-3.36,1.69-5.08,2.43c-0.61-0.7-1.25-1.38-1.9-2.07
					c-1.8-1.88-3.42-3.78-4.67-5.78c-2.51-3.99-3.56-18.27-1.7-23.63l0.01-0.01c0,0,3.78,0.04,7.61,0.54h0.02
					c2.56,0.34,5.14,0.89,6.61,1.77C125.98,129.94,130.35,136.36,135.02,146.22z"/>
			</g>
		</g>
	</g>
	<polygon class="st144" points="94.36,126.04 77.95,130.37 75.99,122.95 70.84,103.42 68.74,95.47 85.15,91.15 85.3,91.72 
		88.25,102.88 	"/>
	<path class="st140" d="M89,106.63c-0.29,10.29-8.61,18.5-12.25,20.08l-5.15-19.53l14.46-11.71L89,106.63z"/>
	<g>
		<g>
			<path class="st117" d="M58.91,109.26c-2.96,0.22-5.57-2.36-5.83-5.76c-0.26-3.4,1.94-6.35,4.89-6.58l0.05,0.67
				c-2.59,0.2-4.51,2.82-4.28,5.86c0.23,3.03,2.52,5.34,5.11,5.15c2.59-0.2,4.51-2.82,4.28-5.86c-0.14-1.84-1.44-3.81-2.83-4.73
				l0.57-0.44c1.56,1.04,2.77,3.08,2.93,5.12C64.06,106.09,61.86,109.04,58.91,109.26z"/>
			<path class="st117" d="M58.91,97.17c0.03,0.43-0.29,0.8-0.71,0.83c-0.43,0.03-0.8-0.29-0.83-0.71c-0.03-0.43,0.29-0.8,0.71-0.83
				C58.51,96.42,58.88,96.74,58.91,97.17z"/>
		</g>
		<path class="st144" d="M92.72,63.18c-3.6-3.3-22.43-5.81-28.48,3.27c-5.16,7.75-4.21,17.73-5.86,26.89
			c-2.79,15.49,12.58,29.96,16.94,29.13c7.6-1.43,16.95-9.03,19.7-15.13c2.05-4.54,0.58-9.27,1.61-14.22
			C98.74,83.02,100.7,70.48,92.72,63.18z"/>
		<g>
			<path class="st140" d="M88.42,81.62c-6.88-2.04-10.65,9.54-10.65,9.54c4.56,1.52,9.16,2.59,13.97,1.48
				C92.62,89.74,91.87,82.64,88.42,81.62z"/>
			<path class="st140" d="M87.98,84.83c-4.04-2.19-10.19,6.2-10.19,6.2c2.1,1.7,7.94,4.66,13.97,1.42
				C91.8,89.52,91.15,86.56,87.98,84.83z"/>
			<path class="st2" d="M91.73,92.64c-1.99,0.46-3.95,0.55-5.88,0.39c-1.37-0.12-2.72-0.36-4.07-0.69
				c-1.34-0.32-2.68-0.73-4.01-1.17c0,0,1.58-2.12,3.68-3.64c1.34-0.97,2.88-1.69,4.38-1.48c0.35,0.05,0.7,0.15,1.04,0.32
				C90.06,87.9,91.72,90.12,91.73,92.64z"/>
			<g>
				<path class="st23" d="M87.25,89.64c-0.03,1.41-0.58,2.65-1.4,3.38c-1.37-0.12-2.72-0.36-4.07-0.69
					c-0.49-0.75-0.78-1.74-0.76-2.82c0.02-0.72,0.17-1.41,0.42-1.99c1.34-0.97,2.88-1.69,4.38-1.48
					C86.7,86.8,87.28,88.13,87.25,89.64z"/>
				<path class="st22" d="M85.92,89.61c-0.03,1.65-1.06,2.96-2.3,2.94c-1.23-0.02-2.21-1.38-2.17-3.03c0.03-1.65,1.06-2.96,2.3-2.94
					C84.98,86.61,85.95,87.97,85.92,89.61z"/>
				<path class="st2" d="M87.87,87.58l-3.31,0.95c0,0,2.62,1.27,3.28,0.75C88.17,89.01,87.87,87.58,87.87,87.58z"/>
			</g>
		</g>
		<g>
			<path class="st140" d="M64.82,81.27c5.52-1.8,4.94,9.36,4.94,9.36c-3.65,1.19-7.17,1.94-10.1,0.59
				C60.01,88.39,62.11,82.16,64.82,81.27z"/>
			<path class="st140" d="M64.85,83.96c3.51-1.87,4.94,6.54,4.94,6.54c-2.02,1.51-7.02,3.99-10.09,0.54
				C60.65,88.22,62.09,85.42,64.85,83.96z"/>
			<path class="st2" d="M69.76,90.63c-1.27,0.41-2.52,0.77-3.73,1.01c-0.62,0.12-1.23,0.21-1.83,0.26
				c-0.54,0.04-1.07,0.06-1.59,0.02c-0.33-0.02-0.66-0.06-0.98-0.11c-0.68-0.11-1.34-0.31-1.97-0.6c0.39-1.12,0.93-2.2,1.66-3.17
				c0.77-1.01,1.76-1.9,3.04-2.57c0.11-0.06,0.23-0.12,0.35-0.18C68.16,83.66,69.76,90.63,69.76,90.63z"/>
			<g>
				<path class="st23" d="M66.51,89.97c-0.08,0.62-0.25,1.19-0.49,1.67c-0.62,0.12-1.23,0.21-1.83,0.26
					c-0.54,0.04-1.07,0.06-1.59,0.02c-0.33-0.02-0.66-0.06-0.98-0.11c-0.41-0.82-0.6-1.88-0.46-2.98c0.04-0.27,0.09-0.53,0.16-0.78
					c0.77-1.01,1.76-1.9,3.04-2.57C65.82,85.81,66.78,87.81,66.51,89.97z"/>
				<path class="st22" d="M65.39,89.55c0,0.06-0.01,0.11-0.02,0.17c-0.12,0.99-0.58,1.79-1.18,2.18c-0.54,0.04-1.07,0.06-1.59,0.02
					c-0.77-0.5-1.24-1.72-1.07-3.01c0.2-1.55,1.21-2.63,2.27-2.41c0.77,0.17,1.35,0.98,1.53,2.01
					C65.4,88.84,65.42,89.19,65.39,89.55z"/>
				<path class="st2" d="M66.79,87.07l-2.75,0.33c0,0,1.98,1.52,2.56,1.16C66.89,88.38,66.79,87.07,66.79,87.07z"/>
			</g>
		</g>
		<g>
			<g>
				<path class="st140" d="M70.5,96.12c-0.81,0.68-1.62,1.18-0.66,2.33c1.35,1.6,3.95,1.16,5.01,0.9c-0.65-0.11-3.53-0.77-4.37-1.48
					C69.9,97.38,73.19,93.87,70.5,96.12z"/>
			</g>
		</g>
		<g>
			<path class="st140" d="M67.33,106.54l-0.2-0.04C67.2,106.52,67.26,106.53,67.33,106.54z"/>
		</g>
		<g>
			<path class="st140" d="M67.74,106.69l-0.22,0.03C67.52,106.79,67.62,106.75,67.74,106.69z"/>
		</g>
		<g>
			<path class="st21" d="M66.8,104.81l-0.12,0.01c0.07,0.14,4.8,4.35,6.22,6.4c1,1.45,2.52,3.17,4.56,2.79
				c5.14-0.95,5.19-10.16,6.22-12.3C82.61,103.93,69.64,104.87,66.8,104.81z"/>
			<path class="st118" d="M78.52,109.57c-0.44-0.18-1.28,0-1.71,0.15c-0.84,0.3-1.7,0.77-2.33,1.41c-0.25,0.25-0.83,1.12-0.74,1.5
				c0.09,0.39,0.83,0.71,1.12,0.91c0.69,0.48,1.48,0.53,2.32,0.44c1.41-0.16,2.2-0.81,2.9-2.03c0.41-0.71,0.69-1.48,1.16-2.13
				l1.96-4.6C81.26,105.38,78.32,107.46,78.52,109.57z"/>
			<path class="st2" d="M68.18,104.15c0.48,0.79,1.26,1.52,1.93,2.02c1.33,0.98,2.85,0.86,4.5,0.68c1.55-0.17,3.15-0.63,4.46-1.37
				c0.92-0.52,1.02-1.37,1.2-2.25L68.18,104.15z"/>
			<path class="st24" d="M84.66,100.29c0,0.01-0.01,0.01-0.01,0.01c-0.32,0.47-2.31,1.62-5.25,2.56c-0.69,0.22-1.44,0.43-2.23,0.61
				c-0.01,0-0.01,0-0.02,0c-0.01,0-0.01,0-0.01,0c-0.01,0-0.01,0.01-0.02,0.01h-0.01c-0.4,0.09-0.82,0.17-1.24,0.25
				c-0.9,0.17-1.86,0.3-2.85,0.37c-0.12,0.01-0.26,0.02-0.4,0.03c-0.49,0.04-1.02,0.06-1.55,0.09c-0.94,0.04-1.91,0.09-2.75,0.12
				H68.3c-0.38,0.01-0.73,0.02-1.05,0.03h-0.01c-0.8,0.03-1.32,0.04-1.32,0.04s5.53,5.57,6.58,7.1c0.09,0.14,0.22,0.31,0.37,0.52
				l0.01,0.01c0.1,0.14,0.22,0.29,0.35,0.45c0.83,0.99,2.19,2.2,3.94,2.07c0.12,0,0.25-0.03,0.39-0.05c1.03-0.14,1.9-0.58,2.65-1.21
				c4.15-3.51,4.48-13.02,4.48-13.02C84.67,100.26,84.67,100.27,84.66,100.29z M82.17,107.62c-0.31,1.04-0.79,2.12-1.48,3.11
				c0,0.01-0.01,0.01-0.01,0.01l-0.01,0.01c-0.38,0.53-0.8,1.03-1.33,1.49c-0.56,0.5-1.22,0.94-1.98,1.3
				c-1.09,0.52-2.24-0.22-3.41-1.68c-0.22-0.28-0.44-0.58-0.67-0.91c-0.18-0.27-0.42-0.57-0.7-0.9c-0.11-0.13-0.22-0.27-0.35-0.4
				c-1.33-1.49-3.25-3.31-4.38-4.36c0.36-0.01,0.77-0.01,1.21-0.02h0.01c0.67-0.02,1.43-0.06,2.22-0.1
				c0.58-0.03,1.18-0.07,1.78-0.12l0.27-0.03c0.35-0.03,0.69-0.06,1.02-0.1c1.7-0.19,3.17-0.49,4.4-0.81
				c0.51-0.14,0.95-0.27,1.37-0.4h0.01c1.26-0.4,2.18-0.79,2.7-1.04c-0.03,0.17,0.01,1.21-0.19,2.63v0.01
				c-0.09,0.7-0.25,1.49-0.5,2.3C82.18,107.61,82.17,107.62,82.17,107.62z"/>
			<g>
				<path class="st140" d="M66.81,104.43l-0.14-0.03C66.71,104.42,66.75,104.42,66.81,104.43z"/>
				<path class="st24" d="M74.19,102.02c-0.46,0.4-1.02,0.99-1.59,1.21c-0.57,0.22-1.23-0.1-1.77-0.33
					c-0.95-0.4-0.97-0.48-1.75,0.19c-0.48,0.42-1.56,1.41-2.27,1.35l2.49,0.49c0.13,0.18,1.46-0.11,1.84-0.14
					c0.82-0.06,1.64-0.12,2.47-0.19c0.95-0.07,1.87-0.22,2.81-0.33c0.68-0.08,7.14-1.28,8.27-4.01
					C83.03,100.38,79.42,103.94,74.19,102.02z"/>
			</g>
		</g>
		<path class="st145" d="M61.25,79.61l-0.21,0.35c0.87-1.24,5.58-2.14,6.51-0.85C68.07,73.33,62.41,77.43,61.25,79.61z"/>
		<path class="st145" d="M91.82,77.49l0.2,0.41c-0.87-1.48-6.69-3.79-8.13-2.8C84.33,69.24,90.76,74.99,91.82,77.49z"/>
		<g>
			<path class="st145" d="M121.18,79.49c-0.05,0.49-0.21,1.11-0.44,1.8c-0.71,2.06-2.08,4.68-3.02,5.71
				c3.32,2.73-2.81,7.74-4.92,11.39c-6.23,10.8-17.33,0.15-17.12-1.57c0.48-3.94,0.91-8.1,1.31-12.15
				c0.72-7.2-4.52-16.43-13.65-16.77c-4.27-0.16-3.76-0.11-8.01-0.01c-4.04,0.1-8.12-0.33-11.19,2.43c-0.54,0.49-1.36,1.1-1.51,1.45
				l-2.7,9.14l-0.19,0.64c-0.19-0.33-0.39-0.66-0.6-1c-1.89-3.06-4.5-6.52-5.98-9.93c-1.29-2.96-1.73-5.89-0.11-8.5
				c1.77-2.86,6.17-3.19,6.63-4.85c0.54-1.96,0.19-7.37,1.33-9c1.41-2.01,4.61-0.4,7.28,1.26c-0.37-6.66,6.17-7.78,13.32-4.5
				c1.74,0.8,3.77-2.62,5.24-1.74c4.25,2.53,7.32-0.99,8.99-0.87c2.36,0.17,3.16,0.73,5.14,1.82c1.56,0.86,6.39,1.23,8.09,1.85
				c3.1,1.12,7.69,5.64,6.08,9.34c4.01,0.53,5.68,5.68,2.29,8.06c1.44,0.56,2.93,4.95,3.02,6.45c0.12,2-2.71,2.39-3.06,4.06
				C117.03,75.78,121.39,77.41,121.18,79.49z"/>
			<path class="st146" d="M117.72,86.99c3.32,2.73-2.81,7.74-4.92,11.39c-6.23,10.8-17.33,0.15-17.12-1.57
				c0.48-3.94,0.91-8.1,1.31-12.15c0.72-7.2-4.52-16.43-13.65-16.77c-4.27-0.16-3.76-0.11-8.01-0.01c-4.04,0.1-8.12-0.33-11.19,2.43
				c-0.54,0.49-1.36,1.1-1.51,1.45l-2.7,9.14c0.02-0.12-0.29-0.23-0.79-0.37c-1.89-3.06-4.5-6.52-5.98-9.93
				c0.41-1.34,1.06-2.86,2.01-4.6c1.35,1.61,4.37,4.29,6.74,2.84c2.13-1.3-0.06-5.64,0.61-7.77c0.77,0.62,3.39,5.72,4.84,3.83
				c0.76-1-0.53-4.34-0.63-5.5c-0.12-1.36-0.65-3.58-0.03-4.82c2.16,2.39,2.68,7.64,6.08,8.69c6.37,1.95,3.43-9.31,4.31-11.87
				c1.98,1.91,2.75,11.69,6.03,11.46c2.52-0.18,2.46-5.79,3.12-7.6c0.68-1.83,2.66-5.35,4.76-5.58c0.55,1.93-1.78,4.1-2.04,6.17
				c-0.21,1.7-0.8,5.55,0.33,7.08c1.03,1.39,3.29,1.54,4.68,0.78c2.29-1.26,2.8-4.45,3.83-6.61c1.26,2.54,0.81,5.46-0.28,7.99
				c-0.75,1.73-2.68,4.5-0.41,5.66c2.59,1.31,6.18-0.79,8.07-2.55c1.53-1.43,3.17-3.13,3.96-5.14c0.6-1.53,0.47-3.15,1.6-4.43
				c1.18,2.71-1.53,7.91-3.17,9.93c-1.92,2.36-3.99,4.9-6.73,6.25c2.24,3.67,8.86,5.91,12.61,2.78c-0.76,0.94-2.3,2.1-3.49,2.24
				c0.93,2.33,5,1.92,6.98,1.97c1.16,0.03,2.49-0.15,3.79-0.53C120.03,83.35,118.66,85.96,117.72,86.99z"/>
		</g>
		<g>
			<g>
				<path class="st144" d="M102.91,90.35c-1.74-0.74-4.03,0.54-5.16,1.68c-1.65,1.66-3.69,7.69-1.89,9.17
					c2.88,2.37,8.18-2.77,8.81-6.28C104.93,93.45,104.49,91.02,102.91,90.35z"/>
				<path class="st140" d="M103.89,93.49c-0.6-4.17-6.41-2.21-6.58,1.21c1.26-0.7,2.18,1.13,1.77,2.16
					c-0.45,1.15-2.08,1.33-2.69,0.24c0.06,1.87,2.76,1.53,3.64,0.47c1.09-1.32,0.33-3.53-1.33-3.93c1.15-2.26,5.04-1.79,5.07,0.89
					L103.89,93.49z"/>
			</g>
			<g>
				<path class="st117" d="M99.25,111.86c-2.96,0.22-5.57-2.36-5.83-5.77c-0.26-3.4,1.94-6.35,4.89-6.58l0.05,0.67
					c-2.59,0.2-4.51,2.82-4.28,5.86c0.23,3.03,2.52,5.34,5.11,5.15c2.59-0.2,4.51-2.82,4.28-5.86c-0.14-1.84-1.44-3.81-2.83-4.73
					l0.57-0.44c1.56,1.04,2.77,3.08,2.93,5.12C104.4,108.69,102.21,111.64,99.25,111.86z"/>
				<path class="st117" d="M99.26,99.77c0.03,0.43-0.29,0.8-0.71,0.83c-0.43,0.03-0.8-0.29-0.83-0.71c-0.03-0.43,0.29-0.8,0.71-0.83
					C98.85,99.02,99.22,99.34,99.26,99.77z"/>
			</g>
		</g>
	</g>
	<path class="st144" d="M93.36,123.26c-1.78-1.37-5.66-2.37-7.57-1.44l-7.05,4.66c-2.39,2.55-3.16,22.41-2.87,27.9
		C80.46,149.09,102.97,130.66,93.36,123.26z"/>
</g>
</svg>
