<?xml version="1.0" encoding="utf-8"?>
<!-- Generator: Adobe Illustrator 27.2.0, SVG Export Plug-In . SVG Version: 6.00 Build 0)  -->
<svg version="1.1" id="Layer_1" xmlns="http://www.w3.org/2000/svg" xmlns:xlink="http://www.w3.org/1999/xlink" x="0px" y="0px"
	 viewBox="0 0 171.51 171.51" style="enable-background:new 0 0 171.51 171.51;" xml:space="preserve">
<style type="text/css">
	.st0{fill:#F7F2DA;}
	.st1{fill:#FBA479;}
	.st2{fill:#FFFFFF;}
	.st3{fill:#E1DFEA;}
	.st4{fill:#261411;}
	.st5{fill:#60312B;}
	.st6{fill:#EF7950;}
	.st7{fill:#60281F;}
	.st8{fill:#E8E6E6;}
	.st9{fill:#3A2827;}
	.st10{fill:#CCCCCC;}
	.st11{fill:#595857;}
	.st12{fill:#F28C5F;}
	.st13{fill:#E26939;}
	.st14{fill:#56413D;}
	.st15{fill:#44322E;}
	.st16{fill:#873421;}
	.st17{fill:#EA6CA0;}
	.st18{fill:#DB5290;}
	.st19{fill:#F48656;}
	.st20{fill:#82112F;}
	.st21{fill:#D85039;}
	.st22{fill:#574984;}
	.st23{fill:#291C51;}
	.st24{fill:#FC5135;}
	.st25{fill:#FFCC7B;}
	.st26{fill:#E8A749;}
	.st27{fill:#6D4A44;}
	.st28{fill:#D1E3E8;}
	.st29{fill:#FCFBFA;}
	.st30{fill:#4C4C4B;}
	.st31{fill:#686868;}
	.st32{fill:#FFB884;}
	.st33{fill:#EF9C62;}
	.st34{fill:#874410;}
	.st35{fill:#6D340D;}
	.st36{fill:#E89258;}
	.st37{fill:#3A2E26;}
	.st38{fill:#4C3F35;}
	.st39{opacity:0.1;}
	.st40{fill:#60120F;}
	.st41{fill:#F4F0ED;}
	.st42{fill:#E0312D;}
	.st43{fill:#F42F2F;}
	.st44{fill:#D31111;}
	.st45{fill:#DB9B19;}
	.st46{fill:#AF740B;}
	.st47{fill:#CC2121;}
	.st48{fill:#F74B4B;}
	.st49{fill:#FCF9E8;}
	.st50{opacity:0.5;fill:#827571;}
	.st51{fill:#665D5C;}
	.st52{fill:#4F4746;}
	.st53{fill:#5E3B2F;}
	.st54{fill:#492E27;}
	.st55{opacity:0.4;}
	.st56{fill:#443A36;}
	.st57{fill:#51415E;}
	.st58{fill:#066FB7;}
	.st59{fill:#066396;}
	.st60{fill:#0D8FD6;}
	.st61{fill:#FEAC74;}
	.st62{fill:#E3784C;}
	.st63{fill:#580801;}
	.st64{fill:#440502;}
	.st65{fill:#00ABB2;}
	.st66{fill:#008C8C;}
	.st67{fill:#914E34;}
	.st68{fill:#5B2E1D;}
	.st69{fill:#6A3221;}
	.st70{fill:#FAFAFC;}
	.st71{fill:#2B3B3F;}
	.st72{fill:#3F565B;}
	.st73{fill:#EF7348;}
	.st74{fill:#6F3D26;}
	.st75{fill:#BBBEBF;}
	.st76{fill:#D3D3D3;}
	.st77{fill:#939A9E;}
	.st78{fill:#F79C5E;}
	.st79{fill:#E07832;}
	.st80{fill:#604135;}
	.st81{fill:#EFEAE8;}
	.st82{fill:#4F3229;}
	.st83{fill:#1A3D3A;}
	.st84{fill:#E8E8E8;}
	.st85{fill:#0C83C4;}
	.st86{fill:#1B96EA;}
	.st87{fill:#B50F0F;}
	.st88{opacity:0.4;fill:#E89258;}
	.st89{fill:#26ACF7;}
	.st90{fill:#F45347;}
	.st91{fill:#FF3939;}
	.st92{fill:#686766;}
	.st93{fill:#5E5D5B;}
	.st94{fill:#424140;}
	.st95{fill:#E7E1CB;}
	.st96{fill:#D6CFBA;}
	.st97{fill:#CE5C37;}
	.st98{fill:#B74D30;}
	.st99{fill:#1B313D;}
	.st100{fill:#36474F;}
	.st101{fill:#29526D;}
	.st102{fill:#FCBD88;}
	.st103{fill:#FCA265;}
	.st104{fill:#496B7A;}
	.st105{fill:#B76049;}
	.st106{fill:#EDEDED;}
	.st107{fill:#7C7979;}
	.st108{fill:#EFE6E8;}
	.st109{fill:#B20D28;}
	.st110{fill:#346682;}
	.st111{fill:#AA0E28;}
	.st112{fill:#FF5050;}
	.st113{fill:#781A0E;}
	.st114{fill:#560904;}
	.st115{fill:#FF0B40;}
	.st116{fill:#BC0000;}
	.st117{fill:#FFD731;}
	.st118{fill:#EA6453;}
	.st119{fill:#602618;}
	.st120{fill:#A14F2A;}
	.st121{fill:#3A4E66;}
	.st122{fill:#EAE9EE;}
	.st123{opacity:0.3;fill:#3A4E66;}
	.st124{fill:#5E2701;}
	.st125{fill:#773000;}
	.st126{fill:#EA2F4A;}
	.st127{fill:#C41234;}
	.st128{fill:#F7F0F1;}
	.st129{fill:#F7A76F;}
	.st130{fill:#B24800;}
	.st131{fill:#8C3B03;}
	.st132{fill:#567391;}
	.st133{fill:#FF7271;}
	.st134{fill:#F75E5E;}
	.st135{fill:#700F28;}
	.st136{fill:#9E1533;}
	.st137{fill:#871231;}
	.st138{fill:#211B3A;}
	.st139{fill:#2E2951;}
	.st140{fill:#F28670;}
	.st141{fill:#F46060;}
	.st142{fill:#EBBF44;}
	.st143{fill:#E0A91E;}
	.st144{fill:#FFA992;}
	.st145{fill:#2C363F;}
	.st146{fill:#1D262D;}
	.st147{fill-rule:evenodd;clip-rule:evenodd;fill:#FFF5F5;}
	.st148{opacity:0.2;}
	.st149{fill:#7C4949;}
	.st150{fill:#F9AE7A;}
	.st151{fill:#FFF5F5;}
	.st152{fill:#C92727;}
	.st153{fill:#4C1B05;}
	.st154{fill:#592009;}
	.st155{opacity:0.4;fill:#592009;}
	.st156{fill:#3F1307;}
	.st157{fill:#664472;}
	.st158{fill:#473051;}
	.st159{fill:#352020;}
	.st160{opacity:0.3;fill:#7C4949;}
</style>
<g>
	<path class="st0" d="M161.86,102.77c-4.26,19.05-15.15,34.9-29.69,45.66c-2.08,1.54-4.22,2.97-6.45,4.3
		c-2.44,1.46-4.96,2.78-7.55,3.96c-0.43,0.21-0.86,0.4-1.29,0.58c-0.43,0.19-0.87,0.38-1.3,0.55c-0.69,0.3-1.39,0.56-2.09,0.83
		c-0.15,0.06-0.3,0.12-0.44,0.17c-0.19,0.08-0.39,0.15-0.59,0.22c-0.15,0.07-0.31,0.12-0.47,0.18c-0.32,0.12-0.64,0.22-0.95,0.32
		c-1.75,0.61-3.53,1.15-5.32,1.62c-2.53,0.67-5.1,1.22-7.7,1.63c-0.35,0.06-0.71,0.11-1.06,0.17c-0.06,0.01-0.13,0.01-0.19,0.02
		c-0.28,0.04-0.56,0.08-0.86,0.12c-4.66,0.61-9.42,0.81-14.24,0.54c-0.48-0.01-0.95-0.04-1.43-0.09c-1.53-0.11-3.06-0.27-4.59-0.47
		c-0.36-0.04-0.72-0.1-1.08-0.15c-0.03,0-0.07-0.01-0.1-0.01c-0.06-0.01-0.11-0.01-0.16-0.03c-0.38-0.05-0.75-0.11-1.13-0.17
		c-0.73-0.12-1.46-0.25-2.2-0.4c-0.22-0.04-0.43-0.08-0.65-0.13c-0.09-0.01-0.17-0.03-0.25-0.05c-0.45-0.09-0.89-0.18-1.34-0.28
		c-0.56-0.12-1.1-0.25-1.65-0.4l-0.07-0.02c-0.25-0.05-0.49-0.11-0.74-0.19c-0.3-0.07-0.61-0.14-0.91-0.23
		c-0.04-0.01-0.07-0.02-0.1-0.03c-0.13-0.04-0.25-0.07-0.37-0.11c-0.3-0.08-0.61-0.16-0.9-0.25c-0.02,0-0.04-0.01-0.06-0.02
		c-0.72-0.2-1.43-0.42-2.12-0.65c-1.01-0.32-2.01-0.66-3-1.03c-0.08-0.03-0.17-0.06-0.25-0.09c-0.76-0.27-1.52-0.57-2.26-0.88
		c-0.59-0.24-1.18-0.48-1.76-0.74c-1.55-0.66-3.05-1.37-4.52-2.13c-0.01-0.01-0.04-0.01-0.05-0.03c-1.13-0.58-2.22-1.18-3.31-1.81
		c-1.57-0.92-3.12-1.88-4.62-2.9c-1.23-0.84-2.43-1.7-3.61-2.6c-0.02-0.02-0.04-0.03-0.06-0.04c-1.26-0.97-2.51-1.98-3.7-3.02
		c-0.14-0.12-0.29-0.25-0.43-0.38c-0.84-0.71-1.65-1.47-2.44-2.24c-0.53-0.51-1.04-1.01-1.55-1.52c-1.78-1.81-3.47-3.69-5.05-5.65
		c-0.74-0.91-1.45-1.83-2.14-2.77c-0.06-0.07-0.12-0.14-0.17-0.22c-0.14-0.2-0.28-0.38-0.43-0.58c-0.38-0.53-0.76-1.07-1.13-1.6
		C9.6,112.51,4.74,90.67,9.65,68.74c9.39-42.03,51.09-68.49,93.12-59.1C144.8,19.04,171.26,60.73,161.86,102.77z"/>
	<g>
		<g>
			<g>
				<path class="st133" d="M132.17,148.43c-2.08,1.54-4.22,2.97-6.45,4.3c-2.44,1.46-4.96,2.78-7.55,3.96
					c-0.43,0.21-0.86,0.4-1.29,0.58c-0.43,0.19-0.87,0.38-1.3,0.55c-0.69,0.3-1.39,0.56-2.09,0.83c-0.15,0.06-0.3,0.12-0.44,0.17
					c-0.19,0.08-0.39,0.15-0.59,0.22c-0.15,0.07-0.31,0.12-0.47,0.18c-0.32,0.12-0.64,0.22-0.95,0.32
					c-0.56-0.22-1.11-0.43-1.65-0.66c-3.31-1.36-6.15-2.73-8.25-4.14c-0.25-0.17-0.52-0.31-0.8-0.42c-2.27-0.89-5.48-0.17-7.08-1.86
					l6.21-23.24l0.04-0.18c0.01,0,0.01,0,0.01,0c0.66,0.09,1.34,0.21,2.03,0.36c0.13,0.03,0.25,0.07,0.39,0.09h0.01
					C110.91,131.75,122.32,140.45,132.17,148.43z"/>
				<path class="st133" d="M92.3,151.42c0.31,0.34,0.63,0.69,0.96,1.04l-0.05,1.35C92.89,153.02,92.62,152.21,92.3,151.42z"/>
			</g>
			<path class="st134" d="M115.58,157.81c-0.69,0.3-1.39,0.56-2.09,0.83c-0.15,0.06-0.3,0.12-0.44,0.17
				c-0.19,0.08-0.39,0.15-0.59,0.22c-0.15,0.07-0.31,0.12-0.47,0.18c-0.32,0.12-0.64,0.22-0.95,0.32c-0.56-0.22-1.11-0.43-1.65-0.66
				c-3.31-1.36-6.15-2.73-8.25-4.14c-0.25-0.17-0.52-0.31-0.8-0.42c-2.49-3.41-3.39-7.24-3.6-11.44
				c5.66,12.82,13.35,13.54,15.92,14.15c0.1,0.02,0.22,0.05,0.33,0.08C113.84,157.31,114.7,157.55,115.58,157.81z"/>
		</g>
	</g>
	<path class="st133" d="M113.5,158.64c-0.15,0.06-0.3,0.12-0.44,0.17c-0.19,0.08-0.39,0.15-0.59,0.22
		c-0.15,0.07-0.31,0.12-0.47,0.18c-0.32,0.12-0.64,0.22-0.95,0.32c-1.75,0.61-3.53,1.15-5.32,1.62c-2.53,0.67-5.1,1.22-7.7,1.63
		c-0.35,0.06-0.71,0.11-1.06,0.17c-0.06,0.01-0.13,0.01-0.19,0.02c-0.28,0.04-0.56,0.08-0.86,0.12c-4.66,0.61-9.42,0.81-14.24,0.54
		c-0.48-0.01-0.95-0.04-1.43-0.09c-1.53-0.11-3.06-0.27-4.59-0.47c-0.36-0.04-0.72-0.1-1.08-0.15c-0.03,0-0.07-0.01-0.1-0.01
		c-0.06-0.01-0.11-0.01-0.16-0.03c-0.38-0.05-0.75-0.11-1.13-0.17c-0.73-0.12-1.46-0.25-2.2-0.4c-0.22-0.04-0.43-0.08-0.65-0.13
		c-0.09-0.01-0.17-0.03-0.25-0.05c-0.45-0.09-0.89-0.18-1.34-0.28c-0.56-0.12-1.1-0.25-1.65-0.4l-0.07-0.02
		c-0.25-0.05-0.49-0.11-0.74-0.19c-0.3-0.07-0.61-0.14-0.91-0.23c-0.04-0.01-0.07-0.02-0.1-0.03c-0.13-0.04-0.25-0.07-0.37-0.11
		c-0.3-0.08-0.61-0.16-0.9-0.25c-0.02,0-0.04-0.01-0.06-0.02c-0.72-0.2-1.43-0.42-2.12-0.65c-1.01-0.32-2.01-0.66-3-1.03
		c-0.08-0.03-0.17-0.06-0.25-0.09c-0.76-0.27-1.52-0.57-2.26-0.88c-0.59-0.24-1.18-0.48-1.76-0.74c-1.55-0.66-3.05-1.37-4.52-2.13
		c-0.01,0.01-0.04,0.03-0.06,0.04c0.01-0.02,0.01-0.05,0.01-0.07c0-0.01-0.01-0.02,0-0.03c-0.07-7.07-0.36-12.33-0.97-14.01
		c-1.65-4.61,1.41-8.74,6.87-11.84c0.01,0.01,0.01,0.01,0.01,0c1.65-0.93,3.52-1.77,5.54-2.49h0.01c3.6-1.29,7.68-2.22,11.91-2.73
		c1.6-0.19,3.2-0.31,4.82-0.38h0.01c4.01-0.15,8.04,0.11,11.78,0.87c0.05,0.01,0.09,0.01,0.14,0.02c2.93,0.61,5.68,1.49,8.13,2.72
		c1.26,0.63,2.36,1.36,3.33,2.2c0.14,0.12,0.28,0.23,0.41,0.37l0.01,0.01c6.87,6.23,6.89,17.16,10.74,26.59
		c0.09,0.25,0.19,0.49,0.28,0.74C113.19,157.63,113.35,158.14,113.5,158.64z"/>
	<g>
		<path class="st1" d="M72.27,131.81c-1.53-4.11,0.61-9.24,4.25-10.02l3.84-21.68l12.53,5.71l-3.14,17.74
			c1.36,5.05,0.83,8.26,0.88,12.78C90.74,148.02,74.21,137.03,72.27,131.81z"/>
		<path class="st19" d="M92.88,105.83l-2.79,15.77c-3.48-1.64-7.41-4.86-9.66-7.47c-0.78-0.9-1.46-1.87-2.04-2.9l1.97-11.11
			L92.88,105.83z"/>
	</g>
	<g>
		<path class="st135" d="M107.34,56.54c-0.94-4.14-4.22-11.5-19.35-7.73l4.46,10.67c1.83-2.56,7.07-4.36,9.03-0.6
			c0.56,1.07,0.77,2.37,0.45,3.57c-0.3,1.09-1.39,1.96,0.46,1.93C106.21,64.32,108.07,59.76,107.34,56.54z"/>
		<g>
			<path class="st136" d="M82.69,104.37c-0.22,0.95-0.63,1.96-1.16,2.94c-0.88,1.61-2.11,3.12-3.42,4.07
				c-1.74,1.26-3.91,2.44-6.09,2.84c-0.39,0.07-0.79,0.12-1.18,0.13c-1.26,0.06-2.51-0.15-3.75-0.45c-0.95-0.23-1.9-0.52-2.83-0.79
				c-2.87-0.83-4.95-2.85-6.78-5.04c-4.87,2.96-13.33-1.21-10.64-7.88c1.12-2.78-0.8-6.51,2.94-10.87c1.17-1.36,2.89-2.79,5.42-4.26
				c-3.42-2.12-1.59-6.12,0.43-8.52c1.49-1.78,4.39-2.66,6.53-3.38c1.54-0.52,2.97-0.24,4.43-0.42l7.15,4.44
				c-0.09,0.04-0.21-0.14-0.17,0.06c1.28,1.5,2.8,2.66,3.83,4.36c2.07,3.4,4.02,6.02,4.79,10.04c0.46,2.4,0.36,4.73,0.38,7.15
				C82.58,100.61,83.11,102.59,82.69,104.37z"/>
			<polygon class="st117" points="106.84,91.38 106.89,92.88 105.68,93.76 107.12,94.18 107.59,95.6 108.43,94.37 109.93,94.36 
				109.01,93.17 109.47,91.75 108.06,92.25 			"/>
			<path class="st135" d="M81.52,107.31c-0.88,1.61-2.11,3.12-3.42,4.07c-2.06,1.49-4.7,2.86-7.27,2.98
				c-1.26,0.06-2.51-0.15-3.75-0.45c-0.78-1.69-0.73-3.8-1.53-5.47c-0.2-0.42-0.47-0.97-0.87-1.23c-0.75-0.49-0.89-0.08-1.51,0.35
				c-1.23,0.84-2.72-0.06-3.14-1.42c-0.51-1.61,0.27-4.74,2.43-4.21c-1.68-2.02-2.06-4.51-1.55-7.1c0.31-1.58,1.43-3.39,1.05-5.03
				c-0.1-0.43-0.61-1.52-1.14-1.59c-0.4-0.05-0.86,0.46-0.83,0.82c-1.02-0.45-1.49-1.46-1.24-2.64c0.33-1.54,1.81-2.29,3.24-2.5
				c-1.28-0.82-2.6-1.75-2.71-3.46c-0.07-1.2,0.49-4.4,1.9-4.81c1.08-0.31,0.58,0.47,0.46,1.04c-0.17,0.8,0.04,1.78,0.54,2.44
				c1.08,1.44,5.5,3.34,7.02,1.75l0.46,0.41c-0.47,0.25,0.21,0.78,0.45,1.03c1.11,1.22,2.19,2.6,3.06,4.01
				c1.8,2.93,2.64,6.44,3.76,9.64c0.61,1.77,1.41,3.45,2.27,5.11c0.7,1.37,1.76,2.66,2.14,4.18
				C81.5,105.9,81.55,106.61,81.52,107.31z"/>
			<g>
				<g>
					<path class="st136" d="M94.45,72.42c-0.01-0.03-0.01-0.06-0.02-0.09C94.31,72.31,94.38,72.36,94.45,72.42z"/>
					<path class="st137" d="M115.53,97.73c-0.24,0.43-0.49,0.84-0.77,1.21c-3.94,5.39-11.69,5.2-17.68,4.71
						c0.04-6.12-0.24-12.4-0.87-18.61c-0.43-4.26-1.01-8.49-1.76-12.62c0.04,0.03,0.08,0.06,0.1,0.09l4.03-11.36
						c1.95-0.25,5.68,1.4,7.11,3.13c2.25,2.72,2.78,6.72,1.27,9.91c4.7,1.15,7.42,7.81,4.94,11.99c1.83,0.12,3.35,3.11,3.89,4.63
						C116.55,92.98,116.66,95.67,115.53,97.73z"/>
				</g>
				<path class="st135" d="M114.76,98.94c-3.94,5.39-11.69,5.2-17.68,4.71c0.04-6.12-0.24-12.4-0.87-18.61l3.27-21.18
					c2.37,0.1,3.93,2.58,4.43,4.67c0.2,0.85,0.21,1.71,0.44,2.54c0.28,1.06,1.08,1.29,1.28-0.02c0.89,1.6-0.52,3.94-0.06,5.52
					c0.54,1.88,2.88,2.34,4.49,2.49c1.09,2.2-1.84,3.92-2.57,5.59c-0.45,1.03,0.48,2.24,1.34,2.98c0.93,0.8,2.17,0.66,3.32,0.75
					c0.21,1.12-0.64,1.2-1.1,1.96c-0.69,1.13-0.11,3.68,0.22,4.91c0.4,1.54,1.5,3.07,3.05,3.56
					C114.46,98.88,114.61,98.91,114.76,98.94z"/>
			</g>
			<path class="st1" d="M73.89,63.61c3.26-3.24,20.85-6.31,26.88,2c5.14,7.08,4.63,16.5,6.52,25.04
				c3.2,14.45-10.69,28.62-14.82,28.01c-7.19-1.06-16.26-7.84-19.08-13.47c-2.1-4.19-0.9-8.69-2.05-13.3
				C68.99,82.48,66.67,70.77,73.89,63.61z"/>
			<g>
				<path class="st19" d="M78.07,80.82c6.39-2.17,10.37,8.56,10.37,8.56c-4.23,1.61-8.51,2.78-13.07,1.91
					C74.42,88.61,74.86,81.91,78.07,80.82z"/>
				<path class="st19" d="M78.6,83.82c3.71-2.21,9.81,5.44,9.81,5.44c-1.91,1.68-7.28,4.67-13.08,1.86
					C75.19,88.37,75.68,85.56,78.6,83.82z"/>
				<path class="st2" d="M75.37,91.3c1.89,0.36,3.73,0.37,5.54,0.14c1.28-0.16,2.54-0.44,3.8-0.8c1.25-0.35,2.49-0.78,3.73-1.25
					c0,0-1.56-1.94-3.59-3.29c-1.29-0.86-2.77-1.48-4.17-1.22c-0.33,0.06-0.65,0.17-0.96,0.34C76.76,86.78,75.28,88.93,75.37,91.3z"
					/>
				<g>
					<path class="st138" d="M78.33,88.06c0.08,1.33,0.65,2.47,1.44,3.13c2.21,0.06,2.21,0.06,3.8-0.8c0.44-0.72,0.67-1.67,0.61-2.68
						c-0.04-0.68-0.21-1.31-0.47-1.86c-1.29-0.86-2.47-1.29-3.86-1.04C79.04,85.55,78.25,86.64,78.33,88.06z"/>
					<path class="st139" d="M79.58,87.98c0.09,1.55,1.11,2.74,2.27,2.67c1.16-0.07,2.02-1.38,1.93-2.93
						c-0.09-1.55-1.11-2.75-2.27-2.67C80.35,85.12,79.49,86.44,79.58,87.98z"/>
					<path class="st2" d="M78.2,86.83l2.62,0.08c0,0-2.41,1.29-3.05,0.83C77.44,87.5,78.2,86.83,78.2,86.83z"/>
				</g>
			</g>
			<g>
				<path class="st19" d="M100.93,79.58c-5.25-1.49-4.29,8.98-4.29,8.98c3.47,0.98,6.81,1.56,9.51,0.17
					C105.71,86.08,103.5,80.31,100.93,79.58z"/>
				<path class="st19" d="M101,82.1c-3.37-1.62-4.39,6.33-4.39,6.33c1.95,1.34,6.74,3.49,9.5,0.12
					C105.1,85.95,103.65,83.37,101,82.1z"/>
				<path class="st2" d="M96.64,88.55c1.21,0.34,2.4,0.63,3.55,0.81c0.59,0.09,1.16,0.15,1.73,0.18c0.51,0.02,1.01,0.01,1.5-0.04
					c0.31-0.03,0.62-0.08,0.92-0.14c0.63-0.13,1.25-0.34,1.82-0.63c-0.41-1.04-0.96-2.03-1.68-2.91c-0.76-0.92-1.73-1.72-2.95-2.3
					c-0.11-0.06-0.22-0.11-0.34-0.15C97.88,81.95,96.64,88.55,96.64,88.55z"/>
				<g>
					<path class="st138" d="M98.53,87.56c0.1,0.58,0.28,1.11,0.53,1.55c0.59,0.09,1.16,0.15,1.73,0.18c0.51,0.02,1.01,0.01,1.5-0.04
						c0.31-0.03,0.62-0.08,0.92-0.14c0.36-0.78,0.49-1.79,0.32-2.82c-0.04-0.25-0.1-0.5-0.18-0.73c-0.67-1.6-1.73-1.72-2.95-2.3
						C99.03,83.63,98.2,85.54,98.53,87.56z"/>
					<path class="st139" d="M99.57,87.12c0.01,0.05,0.01,0.1,0.02,0.16c0.15,0.93,0.62,1.66,1.19,2c0.51,0.02,1.01,0.01,1.5-0.04
						c0.71-0.5,1.1-1.66,0.9-2.87c-0.24-1.45-1.24-2.43-2.23-2.18c-0.72,0.19-1.23,0.97-1.36,1.95
						C99.54,86.45,99.53,86.79,99.57,87.12z"/>
					<path class="st2" d="M98.16,84.84l2.6,0.21c0,0-1.81,1.5-2.36,1.19C98.11,86.08,98.16,84.84,98.16,84.84z"/>
				</g>
			</g>
			<g>
				<g>
					<g>
						<path class="st19" d="M96.01,93.72c0.79,0.61,1.57,1.05,0.7,2.16c-1.21,1.55-3.67,1.24-4.67,1.03
							c0.6-0.13,3.28-0.86,4.05-1.55C96.62,94.88,93.39,91.71,96.01,93.72z"/>
					</g>
				</g>
			</g>
			<g>
				<path class="st140" d="M99.38,103.39l0.19-0.05C99.5,103.36,99.44,103.38,99.38,103.39z"/>
			</g>
			<g>
				<path class="st140" d="M99,103.55l0.2,0.02C99.21,103.63,99.12,103.6,99,103.55z"/>
			</g>
			<g>
				<g>
					<path class="st140" d="M97.34,102.23l0.09-0.02C97.4,102.22,97.38,102.23,97.34,102.23z"/>
				</g>
			</g>
			<path class="st20" d="M104.08,77.86l0.21,0.32c-0.86-1.13-5.32-1.8-6.15-0.55C97.43,72.22,102.91,75.85,104.08,77.86z"/>
			<path class="st20" d="M75.28,77.02l-0.17,0.39c0.76-1.42,6.14-3.81,7.53-2.94C82,68.99,76.18,74.63,75.28,77.02z"/>
			<g>
				<g>
					<path class="st1" d="M65.34,89.52c1.61-0.76,3.81,0.36,4.91,1.38c1.61,1.5,3.75,7.08,2.12,8.54c-2.61,2.33-7.79-2.29-8.52-5.57
						C63.56,92.51,63.89,90.21,65.34,89.52z"/>
					<path class="st19" d="M64.54,92.51c0.41-3.94,5.94-2.32,6.23,0.89c-1.21-0.61-2,1.14-1.58,2.1c0.47,1.06,2,1.17,2.54,0.13
						c0.01,1.76-2.54,1.54-3.4,0.58c-1.08-1.2-0.45-3.3,1.1-3.74c-1.17-2.08-4.8-1.49-4.73,1.03L64.54,92.51z"/>
				</g>
				<polygon class="st117" points="70.55,96.95 71.16,98.31 72.63,98.58 71.53,99.59 71.73,101.07 70.43,100.33 69.08,100.97 
					69.39,99.51 68.35,98.43 69.84,98.27 				"/>
			</g>
			<path class="st19" d="M81.2,100.71l0.41-1.1c0.25-0.66,0.54-1.32,0.81-1.97c-1.95,0.55-4.28,3.43-4.29,5.47
				c0.37-0.88,1.15-1.95,2.05-2.4c1.81,2.75,7.65,3.88,11.01,3.99c2.99,0.1,7.83-0.69,10.18-3.57
				C94.57,105.72,82.3,101.85,81.2,100.71z"/>
			<path class="st19" d="M86.37,106.15c0.66,0.09,1.46,0.92,3.82,1.15c2.5-0.48,5.59-2.76,6.05-3.35
				C93.74,105.18,86.37,106.15,86.37,106.15z"/>
			<path class="st136" d="M102.08,63.51c-0.36,0.72-0.88,1.29-1.59,1.64c-1.39,0.68-4.81,0.37-5.77-0.82
				c-0.08,2.97-6.71,3.07-7.32,0.24c-1.71,3.46-4.56,5.76-8.54,6.1c-0.55,0.05-4.73-0.5-5.99-1.11l1.51,3.02
				c0.04,0.06,0.08,0.11,0.11,0.17c0.06,0.09,0.11,0.18,0.17,0.28c0.02,0.04,0.04,0.07,0.06,0.11c0.03,0.05,0.06,0.12,0.09,0.18
				c0.96,2.09,0.37,4.9-1.05,7.07c-1.35,2.06-3.46,3.55-5.73,3.31c-0.93-0.1-1.69-0.44-2.33-0.94c-1.02-0.8-1.7-2.01-2.17-3.3
				c-0.79-2.19-0.24-3.3,0.67-5.14c-1.88,1.3-8.36,5.71-9.5,3.5c-4.03-7.78-1.7-28.41,13.38-23.17c1.22-4.17,6.37-6.78,12.15-8.41
				c5.76-1.62,12.15-2.26,15.9-2.47c1.63-0.09,2.76-0.1,3.12-0.07c2.47,0.18,2.65,2.08,2.45,4.52c-0.11,1.33-0.32,2.82-0.34,4.29
				c-0.02,1.32,0.13,2.61,0.66,3.74C102.87,58.04,103.17,61.37,102.08,63.51z"/>
			<path class="st135" d="M102.08,63.51c-0.36,0.72-0.88,1.29-1.59,1.64c-1.39,0.68-4.8,0.37-5.77-0.82
				c-0.08,2.97-6.71,3.07-7.33,0.24c-1.71,3.46-4.56,5.76-8.54,6.1c-0.55,0.05-4.73-0.5-5.99-1.11l1.51,3.02
				c0.04,0.06,0.08,0.11,0.11,0.17c0.06,0.09,0.11,0.18,0.17,0.28c0.02,0.04,0.04,0.07,0.06,0.11c0.03,0.05,0.06,0.12,0.09,0.18
				c0.96,2.09,0.37,4.9-1.05,7.07c-1.35,2.06-3.46,3.55-5.73,3.31c-0.93-0.1-1.69-0.43-2.33-0.94c2.75-2.3,5.02-6.69,3.4-9.11
				c-1.46-2.19-7.22-3.73-6.31-7.13c1.02,0.07,1.91,0.64,2.92,0.68c0.03-1.28,0.38-4.83,2.17-3.96c1.07,0.52,3.66,4.66,3.66,4.66
				c2.6-0.66,5.72-0.55,7.22-3.52c0.78-1.55,0.62-3.17,0.01-4.74c-0.43-1.11-1.53-1.91-1.78-2.88c2.15-0.12,3.74,1.2,5.38,2.36
				c0.39-4.08,4.19-0.28,5.47,1.13c0.45-0.83,0.22-2.1,0.45-3.05c0.54,0.26,1.24,1.36,1.85,1.39c0.92,0.04,1.16-1.3,0.84-2.15
				c-0.32-0.87-1.92-1.31-1.79-2.43c0.13-1.14,1.32-1,2.29-1.02c5.27-0.13,7.9,4.6,7.85,9.4C100.07,62.57,101.17,62.95,102.08,63.51
				z"/>
			<path class="st135" d="M72.01,114.22c-0.39,0.07-1.23-1.04-1.62-1.02c-1.26,0.06-2.07,1-3.31,0.7c-0.95-0.23-1.9-0.52-2.83-0.79
				c-2.87-0.83-4.95-2.85-6.78-5.04c-4.87,2.96-13.33-1.21-10.64-7.88c1.12-2.78-0.8-6.51,2.94-10.87c-1,1.8-1.62,3.81-0.87,5.4
				c1.06-0.26,1.71-1.35,3.01-0.62c-1.28,0.88-1.75,2.32-1.68,3.82c0.07,1.65,0.93,2.73,2.53,3.28c1.31,0.45,2.05,0.09,2.85-0.79
				c0.68-0.75,1.64-1.76,2.77-1.54c0.19,0.92-1.08,1.61-1.36,2.46c-0.42,1.28,0.34,2.84,1.37,3.62c1.65,1.25,6.32,0.89,6.89-1.55
				l6.96,5.08c-0.17,0.56,0.14,1.71,0.13,2.44C72.39,112.04,72.23,113.14,72.01,114.22z"/>
		</g>
		<path class="st136" d="M106.83,60.08c-0.44,0.01-0.72-0.04-0.87-0.12c-0.5-0.28,0.19-0.98,0.41-1.81c0.33-1.2,0.12-2.49-0.44-3.56
			c-0.98-1.88-2.78-2.37-4.56-2.07c-1.79,0.3-3.56,1.39-4.47,2.67l-3.27-7.82l-1.19-2.84c1.32-0.33,2.55-0.57,3.69-0.74
			c11.99-1.77,14.8,4.69,15.66,8.47C112.52,55.47,110.66,60.02,106.83,60.08z"/>
		<path class="st135" d="M106.83,60.08c-0.44,0.01-0.72-0.04-0.87-0.12c0.37-0.71,0.99-1.51,1.27-2.07c1.01-2,0.31-3.86-0.68-5.9
			c-3.66-7.62-22.89-5.6-26.33-5.74c5.76-1.62,12.15-2.26,15.9-2.47c11.99-1.77,14.8,4.69,15.66,8.47
			C112.52,55.47,110.66,60.02,106.83,60.08z"/>
	</g>
	<path class="st141" d="M77.13,122.25c0,0-12.83-3.11-16.16,5.47c5.23-0.91,8.82,6.7,12.33,9.61c5.21,4.33,10.89,4.91,17.5,4.83
		C88.25,139.16,78.6,123.72,77.13,122.25z"/>
	<path class="st141" d="M90.66,122.4c0,0,9.65-1.2,11.34,7.39c-7.1-3.84-4.21,11.16-8.65,12.19c-2.35,0.55-4.64-0.05-5.33,0.17
		C92.78,139.14,88.7,123.1,90.66,122.4z"/>
	<g>
		<g>
			<path class="st133" d="M65.16,151.59c-0.69,0.95-1.87,1.35-3.14,1.66c-0.84,0.2-1.72,0.37-2.53,0.64
				c-0.39,0.13-0.77,0.28-1.12,0.47c-0.27,0.14-0.51,0.31-0.74,0.51c-0.51,0.45-1.08,0.91-1.69,1.36c-0.44,0.33-0.9,0.66-1.4,1
				c-1.54-0.66-3.04-1.38-4.52-2.13c-0.02,0.01-0.04,0.03-0.05,0.05c0-0.02,0-0.05,0-0.07c-1.12-0.58-2.22-1.18-3.31-1.81
				c-1.58-0.92-3.12-1.88-4.62-2.9c-1.23-0.84-2.44-1.7-3.61-2.6c-0.02-0.02-0.04-0.03-0.06-0.04c-1.26-0.97-2.5-1.98-3.7-3.02
				c-0.14-0.12-0.28-0.25-0.42-0.38c7.38-7.16,15.09-13.47,21.63-15.13c0.01,0,0.01,0,0.02,0L65.16,151.59z"/>
			<path class="st133" d="M65.97,150.44c-0.26,0.38-0.54,0.76-0.82,1.15l0.23,1.34C65.59,152.1,65.75,151.26,65.97,150.44z"/>
		</g>
		<path class="st134" d="M64.9,160.89c-0.3-0.08-0.6-0.16-0.9-0.25c-0.02,0-0.04-0.01-0.06-0.02c-0.72-0.2-1.42-0.41-2.12-0.64
			c-1.01-0.32-2.01-0.66-3-1.03c-0.03-0.14-0.06-0.28-0.08-0.42c-0.06,0.11-0.12,0.22-0.18,0.33c-0.76-0.28-1.51-0.58-2.26-0.88
			c-0.59-0.24-1.18-0.49-1.77-0.74c-1.54-0.66-3.04-1.38-4.52-2.13c5.33-4.36,9.32-8.77,10.42-12.56c0.29,3.53-3.72,9.76-5.24,14.13
			c0.25-0.14,0.49-0.29,0.74-0.43c1.21-0.71,2.47-1.5,3.55-2.34c0.95-0.74,1.76-1.54,2.26-2.38l0.32-0.63
			c-0.1,0.79-0.11,1.59-0.05,2.37C62.21,155.95,63.27,158.58,64.9,160.89z"/>
	</g>
</g>
</svg>
