<?xml version="1.0" encoding="utf-8"?>
<!-- Generator: Adobe Illustrator 27.2.0, SVG Export Plug-In . SVG Version: 6.00 Build 0)  -->
<svg version="1.1" id="Layer_1" xmlns="http://www.w3.org/2000/svg" xmlns:xlink="http://www.w3.org/1999/xlink" x="0px" y="0px"
	 viewBox="0 0 171.51 171.51" style="enable-background:new 0 0 171.51 171.51;" xml:space="preserve">
<style type="text/css">
	.st0{fill:#F7F2DA;}
	.st1{fill:#FBA479;}
	.st2{fill:#FFFFFF;}
	.st3{fill:#E1DFEA;}
	.st4{fill:#261411;}
	.st5{fill:#60312B;}
	.st6{fill:#EF7950;}
	.st7{fill:#60281F;}
	.st8{fill:#E8E6E6;}
	.st9{fill:#3A2827;}
	.st10{fill:#CCCCCC;}
	.st11{fill:#595857;}
	.st12{fill:#F28C5F;}
	.st13{fill:#E26939;}
	.st14{fill:#56413D;}
	.st15{fill:#44322E;}
	.st16{fill:#873421;}
	.st17{fill:#EA6CA0;}
	.st18{fill:#DB5290;}
	.st19{fill:#F48656;}
	.st20{fill:#82112F;}
	.st21{fill:#D85039;}
	.st22{fill:#574984;}
	.st23{fill:#291C51;}
	.st24{fill:#FC5135;}
	.st25{fill:#FFCC7B;}
	.st26{fill:#E8A749;}
	.st27{fill:#6D4A44;}
	.st28{fill:#D1E3E8;}
	.st29{fill:#FCFBFA;}
	.st30{fill:#4C4C4B;}
	.st31{fill:#686868;}
	.st32{fill:#FFB884;}
	.st33{fill:#EF9C62;}
	.st34{fill:#874410;}
	.st35{fill:#6D340D;}
	.st36{fill:#E89258;}
	.st37{fill:#3A2E26;}
	.st38{fill:#4C3F35;}
	.st39{opacity:0.1;}
	.st40{fill:#60120F;}
	.st41{fill:#F4F0ED;}
	.st42{fill:#E0312D;}
	.st43{fill:#F42F2F;}
	.st44{fill:#D31111;}
	.st45{fill:#DB9B19;}
	.st46{fill:#AF740B;}
	.st47{fill:#CC2121;}
	.st48{fill:#F74B4B;}
	.st49{fill:#FCF9E8;}
	.st50{opacity:0.5;fill:#827571;}
	.st51{fill:#665D5C;}
	.st52{fill:#4F4746;}
	.st53{fill:#5E3B2F;}
	.st54{fill:#492E27;}
	.st55{opacity:0.4;}
	.st56{fill:#443A36;}
	.st57{fill:#51415E;}
	.st58{fill:#066FB7;}
	.st59{fill:#066396;}
	.st60{fill:#0D8FD6;}
	.st61{fill:#FEAC74;}
	.st62{fill:#E3784C;}
	.st63{fill:#580801;}
	.st64{fill:#440502;}
	.st65{fill:#00ABB2;}
	.st66{fill:#008C8C;}
	.st67{fill:#914E34;}
	.st68{fill:#5B2E1D;}
	.st69{fill:#6A3221;}
	.st70{fill:#FAFAFC;}
	.st71{fill:#2B3B3F;}
	.st72{fill:#3F565B;}
	.st73{fill:#EF7348;}
	.st74{fill:#6F3D26;}
	.st75{fill:#BBBEBF;}
	.st76{fill:#D3D3D3;}
	.st77{fill:#939A9E;}
	.st78{fill:#F79C5E;}
	.st79{fill:#E07832;}
	.st80{fill:#604135;}
	.st81{fill:#EFEAE8;}
	.st82{fill:#4F3229;}
	.st83{fill:#1A3D3A;}
	.st84{fill:#E8E8E8;}
	.st85{fill:#0C83C4;}
	.st86{fill:#1B96EA;}
	.st87{fill:#B50F0F;}
	.st88{opacity:0.4;fill:#E89258;}
	.st89{fill:#26ACF7;}
	.st90{fill:#F45347;}
	.st91{fill:#FF3939;}
	.st92{fill:#686766;}
	.st93{fill:#5E5D5B;}
	.st94{fill:#424140;}
	.st95{fill:#E7E1CB;}
	.st96{fill:#D6CFBA;}
	.st97{fill:#CE5C37;}
	.st98{fill:#B74D30;}
	.st99{fill:#1B313D;}
	.st100{fill:#36474F;}
	.st101{fill:#29526D;}
	.st102{fill:#FCBD88;}
	.st103{fill:#FCA265;}
	.st104{fill:#496B7A;}
	.st105{fill:#B76049;}
	.st106{fill:#EDEDED;}
	.st107{fill:#7C7979;}
	.st108{fill:#EFE6E8;}
	.st109{fill:#B20D28;}
	.st110{fill:#346682;}
	.st111{fill:#AA0E28;}
	.st112{fill:#FF5050;}
	.st113{fill:#781A0E;}
	.st114{fill:#560904;}
	.st115{fill:#FF0B40;}
	.st116{fill:#BC0000;}
	.st117{fill:#FFD731;}
	.st118{fill:#EA6453;}
	.st119{fill:#602618;}
	.st120{fill:#A14F2A;}
	.st121{fill:#3A4E66;}
	.st122{fill:#EAE9EE;}
	.st123{opacity:0.3;fill:#3A4E66;}
	.st124{fill:#5E2701;}
	.st125{fill:#773000;}
	.st126{fill:#EA2F4A;}
	.st127{fill:#C41234;}
	.st128{fill:#F7F0F1;}
	.st129{fill:#F7A76F;}
	.st130{fill:#B24800;}
	.st131{fill:#8C3B03;}
	.st132{fill:#567391;}
	.st133{fill:#FF7271;}
	.st134{fill:#F75E5E;}
	.st135{fill:#700F28;}
	.st136{fill:#9E1533;}
	.st137{fill:#871231;}
	.st138{fill:#211B3A;}
	.st139{fill:#2E2951;}
	.st140{fill:#F28670;}
	.st141{fill:#F46060;}
	.st142{fill:#EBBF44;}
	.st143{fill:#E0A91E;}
	.st144{fill:#FFA992;}
	.st145{fill:#2C363F;}
	.st146{fill:#1D262D;}
	.st147{fill-rule:evenodd;clip-rule:evenodd;fill:#FFF5F5;}
	.st148{opacity:0.2;}
	.st149{fill:#7C4949;}
	.st150{fill:#F9AE7A;}
	.st151{fill:#FFF5F5;}
	.st152{fill:#C92727;}
	.st153{fill:#4C1B05;}
	.st154{fill:#592009;}
	.st155{opacity:0.4;fill:#592009;}
	.st156{fill:#3F1307;}
	.st157{fill:#664472;}
	.st158{fill:#473051;}
	.st159{fill:#352020;}
	.st160{opacity:0.3;fill:#7C4949;}
</style>
<g>
	<path class="st0" d="M163.74,85.11c0,22.31-9.37,42.42-24.37,56.63c-2.07,1.96-4.24,3.8-6.51,5.51c-0.38,0.3-0.75,0.58-1.13,0.85
		c-1.1,0.82-2.24,1.6-3.39,2.35c-0.17,0.12-0.35,0.23-0.53,0.34c-0.14,0.09-0.28,0.19-0.43,0.27c-1.85,1.17-3.75,2.26-5.7,3.27
		c-2.33,1.21-4.71,2.3-7.16,3.28c-0.33,0.13-0.66,0.26-1,0.39c-0.06,0.02-0.12,0.04-0.18,0.07c-0.27,0.1-0.53,0.2-0.81,0.3
		c-4.42,1.62-9.03,2.85-13.78,3.64c-0.47,0.09-0.94,0.16-1.42,0.22c-1.52,0.23-3.05,0.41-4.59,0.54c-0.36,0.04-0.73,0.06-1.09,0.09
		c-0.03,0.01-0.06,0.01-0.1,0.01c-0.06,0.01-0.11,0.01-0.17,0.01c-0.38,0.03-0.75,0.06-1.13,0.08c-0.74,0.04-1.48,0.07-2.23,0.09
		c-0.22,0.01-0.44,0.01-0.66,0.01c-0.09,0.01-0.17,0.01-0.26,0.01c-0.46,0.01-0.91,0.01-1.36,0.01c-0.57,0-1.13-0.01-1.7-0.03h-0.07
		c-0.25,0-0.51,0-0.76-0.02c-0.31,0-0.63-0.01-0.94-0.03c-0.04,0-0.07-0.01-0.11-0.01c-0.44-0.02-0.87-0.04-1.31-0.07
		c-0.02,0.01-0.04,0-0.06-0.01c-0.74-0.04-1.48-0.09-2.21-0.17c-1.96-0.17-3.9-0.43-5.81-0.75c-3.57-0.59-7.05-1.43-10.44-2.5
		c-1.74-0.55-3.46-1.16-5.14-1.82c-1.39-0.55-2.75-1.13-4.09-1.75c-0.02-0.01-0.04-0.02-0.07-0.03c-1.44-0.67-2.87-1.39-4.27-2.14
		c-1.14-0.61-2.27-1.26-3.37-1.94c-0.62-0.38-1.23-0.76-1.84-1.15c-2.13-1.37-4.19-2.85-6.17-4.42c-0.92-0.72-1.82-1.47-2.7-2.23
		c-0.07-0.07-0.14-0.12-0.21-0.19c-0.18-0.16-0.36-0.31-0.54-0.48c-0.49-0.43-0.97-0.87-1.45-1.32
		C17.27,127.83,7.77,107.58,7.77,85.11c0-43.07,34.91-77.99,77.99-77.99C128.83,7.13,163.74,42.04,163.74,85.11z"/>
	<g>
		<g>
			<path class="st121" d="M112.54,158.38c-4.42,1.62-9.03,2.85-13.78,3.64c-0.47,0.09-0.94,0.16-1.42,0.22
				c-2.12-12.7-2.66-23.72-1.39-26.57c0.14-0.3,0.3-0.61,0.51-0.95c2.63-4.22,10.67-10.25,12.15-3.97
				c1.26,5.34,2.69,16.06,4.91,27.26c-0.06,0.02-0.12,0.04-0.18,0.07C113.08,158.17,112.81,158.27,112.54,158.38z"/>
			<g>
				<g>
					<path class="st122" d="M91.4,162.89c-0.38,0.03-0.75,0.06-1.13,0.08c-0.74,0.04-1.48,0.07-2.23,0.09
						c-0.22,0.01-0.44,0.01-0.66,0.01c-0.09,0.01-0.17,0.01-0.26,0.01c-0.46,0.01-0.91,0.01-1.36,0.01c-0.57,0-1.13-0.01-1.7-0.03
						h-0.07c-0.25,0-0.51,0-0.76-0.02c-0.31,0-0.63-0.01-0.94-0.03c-0.04,0-0.07-0.01-0.11-0.01c-0.44-0.02-0.87-0.04-1.31-0.07
						c-2.48-13.81-4.77-26.57-6.3-34.81c-0.6-3.22-1.09-5.76-1.44-7.39c-0.04-0.22-0.09-0.43-0.13-0.61
						c0.1-0.03,0.19-0.06,0.29-0.08c0.09-0.03,0.17-0.05,0.25-0.07c1.54-0.44,2.66-0.76,3.17-0.92l4.33,1.17
						c-0.62-1.25,1.94,0.48,3.27,0.97c1,0.38,3.22,0.66,5.05,0.97c0.01,0,0.01,0,0.01,0c0.91,0.16,1.72,0.32,2.22,0.5
						c-0.02,1.58-0.06,3.94-0.09,6.9c-0.02,2.21-0.04,4.76-0.07,7.56C91.37,144.41,91.34,153.44,91.4,162.89z"/>
					<path class="st121" d="M44.91,150.67c-1.09-2.83-4.16-16.52-0.87-18.94c0.81-0.6,0.28-1.95,1.73-2.62
						c0.19-0.09,0.38-0.17,0.58-0.26c3.5-1.48,9.21-2.72,14.42-4.1c1.31-0.35,2.6-0.71,3.81-1.08c5.13-1.59,3.57-1.13,6.86-2.07
						c1.07,4.85,5.11,22.22,9.37,41.33c-0.74-0.04-1.48-0.09-2.21-0.17c-1.96-0.17-3.9-0.43-5.81-0.75
						c-3.57-0.59-7.05-1.43-10.44-2.5c-1.74-0.55-3.46-1.16-5.14-1.82c-1.39-0.55-2.75-1.13-4.09-1.75c0,0.02,0,0.04-0.01,0.07
						c-0.01-0.03-0.04-0.07-0.06-0.09c-1.44-0.67-2.87-1.39-4.27-2.14c-1.14-0.61-2.27-1.26-3.37-1.94
						C45.2,151.41,45.04,151.01,44.91,150.67z"/>
					<path class="st121" d="M97.34,162.24c-1.52,0.23-3.05,0.41-4.59,0.54c0.38-17.76,0.82-34.01,0.91-40.08
						c0.01,0.01,0.02,0.01,0.04,0.01c1.02,0.35,2.77,0.81,4.71,1.35c2,0.55,4.2,1.19,6.01,1.93c1.68,0.69,3.02,1.45,3.5,2.3
						c1.5,2.61,4.71,15.77,6.6,29.32c-0.33,0.13-0.66,0.26-1,0.39c-0.06,0.02-0.12,0.04-0.18,0.07c-0.27,0.1-0.53,0.2-0.81,0.3
						c-4.42,1.62-9.03,2.85-13.78,3.64C98.29,162.1,97.82,162.17,97.34,162.24z"/>
				</g>
				<path class="st123" d="M44.91,150.67c-1.09-2.83-4.16-16.52-0.87-18.94c0.81-0.6,1.99-1.24,3.44-1.91
					c-1.03,7.03,2.83,22.23,5.08,25.38c0.17,0.23,0.32,0.48,0.48,0.72c-1.44-0.67-2.87-1.39-4.27-2.14
					c-1.14-0.61-2.27-1.26-3.37-1.94C45.2,151.41,45.04,151.01,44.91,150.67z"/>
				<g>
					<g>
						<path class="st32" d="M73.14,121.7c0.74,6.47,3.83,15.43,10.92,17.26c2.85,0.74,6.87,0.57,7.81-2.89
							c1.01-3.69-0.76-7.34-1.68-10.95c-0.28-0.57-0.58-1.11-0.9-1.63l1.6-29.31l0.7-12.86l-15.66-0.86l-0.23,4.27l-0.75,13.64
							c0,0-0.52,12.54-0.91,16.71c-0.22,2.34-0.61,4.39-1.04,6.11C73.07,121.35,73.12,121.52,73.14,121.7z"/>
						<path class="st33" d="M75.03,98.77c0.77,3.88,1.74,7.28,3.7,10.57c2.75,3.83,6.55,7.04,10.88,8.22l1.28-23.37L75.7,84.75
							l-0.31-0.19c0.21,4.73-1.28,8.98-0.44,13.83C74.98,98.52,75,98.64,75.03,98.77z"/>
					</g>
					<g>
						<path class="st124" d="M113.5,92.53c-0.22-0.8-0.45-1.59-0.7-2.39c-0.76-2.52-1.01-5.09-1.41-7.69
							c-0.73-4.74-1.88-9.52-2.03-14.34c-0.17-5.28,0.1-10.89-2.74-15.66L101.21,64c0.41,1.21,0.21,2.8,0.06,4.02
							c-0.6,4.98-1.46,9.92-1.97,14.9c-0.5,4.9-1.01,9.79-1.5,14.69c-0.17,1.71-0.46,3.54-0.45,5.24c0.6,0,1.18-0.18,1.77-0.3
							c3.37-0.71,6.91-1.15,9.9-3.02c1.36-0.85,2.45-2.16,3.55-3.32c0.47-0.49,1.39-1.31,1.46-2.03
							C114.08,93.76,113.62,92.94,113.5,92.53z"/>
						<path class="st125" d="M101.17,64.08l0.04-0.09c-0.02-0.06-0.04-0.12-0.07-0.18C101.16,63.89,101.18,64,101.17,64.08z"/>
					</g>
					<path class="st32" d="M108.41,77.41c2.51,20.03-10.19,30.83-13.98,31.13c-8.8,0.69-27.16-12.09-23.11-29.25
						c1.08-4.59,2.22-7.84,2.41-11.21c0.15-2.76-3.47-19.51,12.24-23.31c16.52-3.99,21.63,14.45,20.51,18.44
						C103.26,74.66,107.41,69.47,108.41,77.41z"/>
					<g>
						<path class="st33" d="M96.83,72.21c0,0-1.88,6.84,3.22,13.03c-2.28,1.24-6.48,3.91-7.08,1.51c-0.87,3.44,5.83,1.8,8.82-1.11
							C99.27,84.6,95.9,75.63,96.83,72.21z"/>
						<path class="st33" d="M91.37,101.61c0,0,2.06,2.75,2.38,3.9c1.09-1.1,2.84-3.37,2.82-4.95
							C95.27,101.68,94.11,102.61,91.37,101.61z"/>
						<g>
							<path class="st126" d="M85.11,93.02l10.14-0.42l1.76-0.28l0.19-0.67l2.19,0.07c-2.1,2.16-0.33,8.53-3.47,9.59
								c-3.3,1.12-8.92-2.52-12.35-8.35L85.11,93.02z"/>
							<path class="st127" d="M85.11,93.02l10.14-0.42l1.76-0.28l0.19-0.67l2.19,0.07c-0.46,0.48-0.74,1.15-0.92,1.93
								c-0.27-0.05-0.74,0.05-0.9,1.35c-0.22,1.86,0.1,4.35-2.03,4.7c-2.13,0.36-7.05-0.93-10.37-4.95c0,0-0.18-0.03-0.44-0.02
								c-0.41-0.57-0.8-1.16-1.16-1.78L85.11,93.02z"/>
							<path class="st128" d="M97.8,92.44c-0.27,0.03-0.45,2.23-0.52,2.52c-0.41,1.66-0.19,3.47-1.61,3.85
								c-0.9,0.25-1.92,0.15-2.84,0.01c-3.02-0.46-6.21-2.86-8.7-5.77l3.66-0.47c0,0,4.9-0.07,7.85-0.11
								C96.85,92.45,97.72,92.44,97.8,92.44z"/>
							<path class="st2" d="M95.65,92.47c-0.04,0.28-0.06,0.5-0.08,0.58c-0.41,1.66-0.19,3.46-1.61,3.85
								c-0.89,0.25-1.92,0.15-2.84,0.01c-2.33-0.35-4.75-1.86-6.89-3.87l3.57-0.46C87.8,92.59,92.71,92.51,95.65,92.47z"/>
							<g>
								<path class="st126" d="M83.62,93.03c4.64,0.34,7.9-0.25,12.49-0.46c2.16-0.1,2.61,0.28,4.28-1.94c0,0-0.43,0.66-3,0.73
									c-2.57,0.07-5.48,0.18-5.48,0.18S86.97,91.9,83.62,93.03z"/>
							</g>
						</g>
						<g>
							<path class="st125" d="M89.1,70.93c-0.32-0.93-2.21-1.34-3-1.46c-2.37-0.36-5.66,1.25-7.6,2.44c1.89-0.66,4.67-1.17,6.5-1.14
								c1.61,0.03,2.2,0.97,3.19,1.05C88.94,71.88,89.35,71.65,89.1,70.93z"/>
						</g>
						<g>
							<path class="st125" d="M99.67,66.28c0.26-0.94,1.85-1.39,2.51-1.53c1.98-0.41,4.73,1.12,6.35,2.26
								c-1.58-0.62-3.9-1.07-5.43-0.99c-1.35,0.07-1.84,1.02-2.66,1.12C99.81,67.22,99.47,67.01,99.67,66.28z"/>
						</g>
						<g>
							<path class="st33" d="M89.59,79.37c-0.06-0.98-1.12-4.19-1.62-4.97c-0.93-1.46-2.86-1.93-4.56-1.48
								c-2.97,0.78-3.61,8-3.6,8.15c0.49-1.28,1.03-2.79,2.13-3.53c0.75-0.5,1.38-0.62,2.28-0.72c0.95-0.1,1.56,0.23,2.41,0.39
								c-0.01-0.05-0.03-0.12-0.02-0.18L89.59,79.37z"/>
							<g>
								<path class="st2" d="M88.8,79.63c-0.01-0.06-0.02-0.12-0.04-0.19c-0.01-0.08-0.03-0.16-0.05-0.24
									c-0.03-0.12-0.06-0.23-0.09-0.35c-0.02-0.1-0.05-0.19-0.08-0.3c-0.03-0.11-0.06-0.22-0.09-0.32c-0.01,0-0.01-0.01-0.01-0.01
									c-0.11-0.33-0.23-0.66-0.39-0.97c0-0.01-0.01-0.01-0.01-0.01c-0.07-0.16-0.16-0.3-0.24-0.42c-0.61-0.85-1.4-0.92-2.68-1.04
									c-0.4-0.04-1.05,0.36-1.75,0.93c-0.13,0.1-0.27,0.22-0.4,0.33c-0.02,0.02-0.05,0.04-0.07,0.06
									c-0.63,0.56-1.26,1.2-1.75,1.74c-0.19,0.22-0.38,0.43-0.52,0.61c-0.01,0.01-0.01,0.01-0.01,0.01l-0.01,0.01
									c-0.18,0.22-0.3,0.39-0.35,0.49c-0.01,0.01-0.01,0.04-0.02,0.05c0.05,0.02,0.11,0.04,0.17,0.05h0.01
									c0.02,0.01,0.04,0.01,0.07,0.02c0.06,0.01,0.13,0.03,0.19,0.04v0.01c0.09,0.02,0.17,0.04,0.27,0.05
									c0.9,0.16,1.92,0.19,2.85,0.15c0.05,0,0.09-0.01,0.14-0.01c0.34-0.01,0.66-0.03,0.96-0.06c0.12-0.01,0.25-0.02,0.36-0.03
									c0.22-0.02,0.43-0.04,0.63-0.07c0.25-0.02,0.5-0.06,0.73-0.09c0.71-0.1,1.32-0.22,1.74-0.32c0.03-0.01,0.05-0.01,0.08-0.02
									c0.14-0.04,0.26-0.06,0.35-0.09h0.01C88.81,79.65,88.81,79.64,88.8,79.63z M88.8,79.63c-0.01-0.06-0.02-0.12-0.04-0.19
									c-0.01-0.08-0.03-0.16-0.05-0.24c-0.03-0.12-0.06-0.23-0.09-0.35c-0.02-0.1-0.05-0.19-0.08-0.3
									c-0.03-0.11-0.06-0.22-0.09-0.32c-0.01,0-0.01-0.01-0.01-0.01c-0.11-0.33-0.23-0.66-0.39-0.97c0-0.01-0.01-0.01-0.01-0.01
									c-0.07-0.16-0.16-0.3-0.24-0.42c-0.58-0.9-1.29-1.11-2.58-1.23c-1.21-0.12-2.17,0.66-3.16,1.48
									c-0.12,0.1-0.39,0.35-0.66,0.74l-0.02,0.02c-0.01,0.01-0.03,0.04-0.04,0.06c-0.01,0.01-0.01,0.01-0.01,0.02
									c-0.02,0.02-0.04,0.05-0.05,0.08c-0.04,0.07-0.08,0.14-0.12,0.21c-0.03,0.05-0.06,0.1-0.09,0.17
									c-0.02,0.04-0.04,0.09-0.07,0.14L81,78.51C81,78.52,81,78.53,80.99,78.54c-0.01,0.04-0.04,0.08-0.04,0.12l-0.16,0.38
									c-0.17,0.37-0.39,0.54-0.51,0.92c-0.01,0.01-0.01,0.04-0.02,0.05c0.05,0.02,0.11,0.04,0.17,0.05h0.01
									c0.02,0.01,0.04,0.01,0.07,0.02c0.06,0.01,0.13,0.03,0.19,0.04v0.01c0.09,0.02,0.17,0.04,0.27,0.05
									c0.9,0.16,1.92,0.19,2.85,0.15c0.05,0,0.09-0.01,0.14-0.01c0.34-0.01,0.66-0.03,0.96-0.06c0.12-0.01,0.25-0.02,0.36-0.03
									c0.22-0.02,0.43-0.04,0.63-0.07c0.25-0.02,0.5-0.06,0.73-0.09c0.71-0.1,1.32-0.22,1.74-0.32c0.03-0.01,0.05-0.01,0.08-0.02
									c0.14-0.04,0.26-0.06,0.35-0.09h0.01C88.81,79.65,88.81,79.64,88.8,79.63z"/>
								<g>
									<g>
										<g>
											<g>
												<path class="st37" d="M86.22,78.45c0.02,1.1-0.76,2.01-1.73,2.03c-0.97,0.02-1.77-0.85-1.79-1.95
													c-0.02-1.1,0.76-2.01,1.73-2.03C85.4,76.47,86.2,77.35,86.22,78.45z"/>
											</g>
										</g>
										<path class="st38" d="M86.04,78.33c0.01,0.46-0.32,0.84-0.72,0.85c-0.41,0.01-0.74-0.36-0.75-0.82
											c-0.01-0.46,0.32-0.84,0.72-0.85C85.69,77.51,86.03,77.87,86.04,78.33z"/>
										<path class="st2" d="M84.8,78.21c0,0.16-0.11,0.28-0.24,0.29c-0.14,0-0.25-0.12-0.25-0.28c0-0.15,0.11-0.28,0.24-0.29
											C84.69,77.93,84.8,78.05,84.8,78.21z"/>
									</g>
									<g>
										<path class="st36" d="M89.25,79.3c-0.03-0.09-0.06-0.18-0.1-0.27c-0.04-0.1-0.08-0.21-0.12-0.31
											c-0.09-0.2-0.19-0.4-0.3-0.6c-0.11-0.19-0.24-0.39-0.38-0.57c-0.09-0.11-0.18-0.21-0.27-0.3c0-0.01-0.01-0.01-0.01-0.01
											c-0.16-0.17-0.33-0.3-0.52-0.42c-0.09-0.06-0.18-0.11-0.27-0.15c-0.01-0.01-0.03-0.01-0.04-0.01
											c-0.11-0.05-0.23-0.09-0.35-0.13c-0.1-0.03-0.21-0.06-0.32-0.08c-0.05-0.01-0.1-0.01-0.16-0.03
											c-0.02,0-0.04-0.01-0.07-0.01c-0.08-0.01-0.16-0.02-0.24-0.03h-0.04c-0.15-0.01-0.3-0.02-0.47-0.02
											c-0.15,0-0.31,0.01-0.48,0.01c-0.17,0.01-0.35,0.03-0.51,0.05c-0.14,0.01-0.28,0.04-0.41,0.07
											c-0.17,0.03-0.32,0.07-0.48,0.12c-0.11,0.03-0.2,0.06-0.3,0.1c-0.02,0.01-0.05,0.01-0.07,0.02
											c-0.01,0.01-0.03,0.01-0.04,0.01c-0.08,0.03-0.15,0.05-0.22,0.09c-0.04,0.01-0.07,0.02-0.1,0.04
											c-0.07,0.03-0.13,0.06-0.19,0.09c-0.06,0.03-0.11,0.05-0.17,0.08c-0.28,0.14-0.53,0.29-0.78,0.46
											c-0.12,0.08-0.22,0.16-0.33,0.25c-0.02,0.01-0.04,0.04-0.06,0.06l-0.02,0.02c-0.01,0.01-0.03,0.04-0.04,0.06
											c-0.01,0.01-0.01,0.01-0.01,0.02c-0.02,0.02-0.04,0.05-0.05,0.08c-0.03,0.03-0.05,0.07-0.07,0.11
											c-0.01,0.03-0.04,0.06-0.05,0.1c-0.03,0.05-0.06,0.1-0.09,0.17c-0.02,0.04-0.04,0.09-0.07,0.14c0,0.01,0,0.01,0,0.01H81
											c0.01,0.01,0,0.01,0,0.01c-0.02,0.04-0.04,0.09-0.06,0.14l-0.16,0.38l-0.11,0.3c-0.01,0.04-0.03,0.08-0.04,0.12
											c-0.01,0.01-0.01,0.01-0.01,0.01l-0.01,0.01l-0.19,0.53c-0.01,0.02-0.01,0.04-0.01,0.06h-0.01
											c-0.01,0.02-0.01,0.04-0.01,0.06c-0.04,0.11-0.07,0.21-0.1,0.3c-0.01,0.02-0.01,0.05-0.02,0.07v0.01
											c-0.01,0.04-0.03,0.08-0.04,0.12c-0.01,0.04-0.02,0.06-0.03,0.09c-0.01,0.05-0.03,0.09-0.04,0.12
											c0,0.01-0.01,0.03-0.01,0.04c-0.01,0.01-0.01,0.01-0.01,0.01s0,0,0,0.01v0.01c0.16,0.02,0.33,0.04,0.51,0.05
											c0.01,0,0.01,0,0.01,0c0.67,0.04,1.45-0.01,2.26-0.09c0.54-0.06,1.1-0.14,1.65-0.23c0.66-0.12,1.31-0.25,1.91-0.38
											c0.73-0.17,1.37-0.34,1.87-0.48c0.03-0.01,0.05-0.01,0.08-0.02c0.13-0.04,0.25-0.08,0.35-0.12
											c0.09-0.03,0.18-0.06,0.25-0.08c0.01-0.01,0.02-0.01,0.03-0.01c0.1-0.04,0.17-0.07,0.22-0.09
											C89.29,79.39,89.27,79.35,89.25,79.3z M88.77,79.44c-0.4,0.13-1.08,0.33-1.94,0.53c-0.29,0.07-0.6,0.14-0.92,0.2
											c-0.25,0.06-0.51,0.11-0.77,0.16c-0.02,0-0.04,0.01-0.06,0.01c-0.23,0.04-0.47,0.09-0.73,0.12
											c-0.05,0.01-0.1,0.02-0.16,0.03c-0.93,0.15-1.98,0.27-2.9,0.27c-0.19,0-0.36-0.01-0.53-0.01h-0.01
											c-0.09-0.01-0.17-0.01-0.25-0.02v-0.01c0.06-0.19,0.12-0.39,0.19-0.59v-0.01c0.07-0.2,0.14-0.41,0.22-0.61
											c0.09-0.23,0.17-0.46,0.25-0.66c0.2-0.5,0.39-0.88,0.53-1c0.36-0.3,0.78-0.54,1.22-0.74c0.1-0.04,0.2-0.09,0.3-0.13
											c0.04-0.01,0.09-0.04,0.14-0.05c0.52-0.19,1.06-0.31,1.6-0.35h0.01c0.03,0,0.06-0.01,0.09-0.01c1.47-0.08,2.3,0.22,3,1.09
											c0.14,0.18,0.27,0.37,0.38,0.56c0,0.01,0,0.01,0.01,0.01c0.07,0.14,0.14,0.27,0.21,0.41c0.06,0.14,0.12,0.27,0.17,0.4
											c0.04,0.11,0.08,0.22,0.12,0.32h-0.01C88.9,79.39,88.84,79.41,88.77,79.44z"/>
										<path class="st39" d="M89.3,79.44c-0.04,0.02-0.17,0.08-0.25,0.11c-0.15-0.32-0.4-0.71-0.63-0.99
											c-0.71-0.88-1.47-1.21-3.12-1.12c-1.38,0.08-2.67,0.61-3.62,1.37c-0.31,0.25-0.72,1.32-1,2.14
											c-0.18-0.01-0.36-0.03-0.52-0.05c0,0,0.8-2.74,1.32-3.16c0.94-0.76,2.24-1.3,3.62-1.37c1.65-0.09,2.54,0.3,3.24,1.18
											C88.8,78.12,89.08,78.81,89.3,79.44z"/>
										<path class="st129" d="M89.6,79.37L89.6,79.37c-0.2-0.58-0.49-1.33-0.99-1.94c-0.79-0.98-1.88-2.16-3.56-2.07
											c-1.39,0.08-2.82,0.95-3.78,2.27c-0.35,0.47-1.08,2.34-1.33,3.06c-0.03,0.09-0.05,0.15-0.07,0.2l-0.05,0.17v0.01
											l0.24,0.03c1.13,0.15,2.64,0.02,3.95-0.18c0.43-0.06,0.83-0.13,1.21-0.2c1.98-0.37,3.83-0.89,4.25-1.13l0.17-0.09
											L89.6,79.37z M89.08,79.54c-0.01,0-0.01,0.01-0.03,0.01c-0.07,0.02-0.15,0.05-0.25,0.08c-0.1,0.04-0.22,0.07-0.35,0.12
											c-0.03,0.01-0.05,0.01-0.08,0.02c-0.5,0.14-1.14,0.32-1.87,0.48c-0.6,0.13-1.25,0.26-1.91,0.38
											c-0.55,0.09-1.11,0.17-1.65,0.23c-0.81,0.09-1.59,0.13-2.26,0.09c0,0,0,0-0.01,0c-0.18-0.01-0.35-0.02-0.51-0.05h-0.01
											v-0.01h0.01c0-0.01,0-0.01,0-0.01s0-0.01,0.01-0.01c0-0.01,0.01-0.02,0.01-0.04c0.01-0.03,0.02-0.07,0.04-0.12
											c0.01-0.02,0.01-0.05,0.03-0.09c0.01-0.04,0.02-0.07,0.04-0.12V80.5c0.01-0.02,0.01-0.05,0.02-0.07
											c0.03-0.09,0.07-0.19,0.1-0.3c0-0.02,0.01-0.04,0.01-0.06h0.01c0-0.01,0.01-0.04,0.01-0.06l0.19-0.53l0.01-0.01
											c-0.01-0.01,0-0.01,0.01-0.01c0.01-0.04,0.02-0.08,0.04-0.12l0.11-0.3l0.16-0.38c0.02-0.04,0.04-0.09,0.06-0.14
											c0,0,0.01-0.01,0-0.01h0.01c0,0,0,0,0-0.01c0.03-0.05,0.05-0.1,0.07-0.14c0.03-0.07,0.06-0.12,0.09-0.17
											c0.01-0.04,0.04-0.07,0.05-0.1c0.02-0.04,0.04-0.08,0.07-0.11c0.01-0.03,0.03-0.06,0.05-0.08c0-0.01,0.01-0.01,0.01-0.02
											c0.01-0.02,0.03-0.04,0.04-0.06l0.02-0.02c0.01-0.02,0.04-0.04,0.06-0.06c0.11-0.09,0.22-0.17,0.33-0.25
											c0.25-0.17,0.5-0.32,0.78-0.46c0.06-0.03,0.11-0.05,0.17-0.08c0.06-0.03,0.12-0.06,0.19-0.09
											c0.04-0.01,0.06-0.03,0.1-0.04c0.07-0.04,0.14-0.06,0.22-0.09c0.01-0.01,0.03-0.01,0.04-0.01
											c0.02-0.01,0.05-0.01,0.07-0.02c0.1-0.04,0.19-0.07,0.3-0.1c0.16-0.04,0.32-0.09,0.48-0.12c0.14-0.04,0.27-0.06,0.41-0.07
											c0.17-0.03,0.34-0.04,0.51-0.05c0.17-0.01,0.32-0.01,0.48-0.01c0.17,0,0.32,0.01,0.47,0.02h0.04
											c0.08,0.01,0.16,0.01,0.24,0.03c0.02,0,0.04,0.01,0.07,0.01c0.06,0.01,0.11,0.02,0.16,0.03c0.12,0.02,0.22,0.05,0.32,0.08
											c0.12,0.04,0.25,0.08,0.35,0.13c0.01,0,0.03,0.01,0.04,0.01c0.09,0.04,0.19,0.09,0.27,0.15c0.19,0.12,0.36,0.25,0.52,0.42
											c0,0,0.01-0.01,0.01,0.01c0.09,0.09,0.19,0.19,0.27,0.3c0.14,0.18,0.27,0.38,0.38,0.57c0.12,0.2,0.21,0.4,0.3,0.6
											c0.04,0.1,0.09,0.21,0.12,0.31c0.04,0.09,0.07,0.18,0.1,0.27c0.02,0.05,0.04,0.09,0.05,0.14
											C89.25,79.47,89.18,79.5,89.08,79.54z"/>
									</g>
								</g>
							</g>
						</g>
						<g>
							<path class="st33" d="M107.44,78.4c0.28-0.83-1.06-4.38-1.5-5.16c-0.82-1.47-2.3-2.69-3.73-2.16
								c-3.22,1.2-3.36,7.59-3.35,7.74c0.52-1.53,1.09-1.75,2.04-2.47c0.64-0.49,1.18-0.6,1.96-0.69c0.82-0.09,1.35,0.25,2.09,0.42
								c-0.01-0.05-0.02-0.12-0.02-0.18L107.44,78.4z"/>
							<g>
								<path class="st2" d="M106.79,77.83c-0.01-0.03-0.01-0.06-0.02-0.09c-0.12-0.44-0.27-0.93-0.53-1.36
									c-0.19-0.33-0.39-0.6-0.64-0.79c-0.01-0.01-0.01-0.01-0.01-0.01c-0.45-0.39-1.03-0.58-1.84-0.64
									c-0.91-0.06-1.87,0.17-2.66,0.66c-0.12,0.06-0.23,0.14-0.34,0.22c-0.04,0.03-0.09,0.08-0.14,0.15
									c-0.14,0.2-0.33,0.57-0.51,1c-0.03,0.06-0.06,0.12-0.09,0.2c-0.03,0.06-0.06,0.14-0.09,0.21c-0.17,0.39-0.32,0.79-0.45,1.16
									c0.01,0.01,0.02,0.01,0.04,0.01c0.06,0.02,0.12,0.03,0.17,0.04c0.01,0,0.02,0.01,0.03,0.01c0.04,0.01,0.07,0.01,0.11,0.01
									c0.19,0.04,0.39,0.07,0.59,0.09c0.53,0.06,1.1,0.07,1.65,0.06c0,0,0,0,0.01,0c0.2,0,0.4-0.01,0.6-0.01
									c0.28-0.01,0.56-0.03,0.82-0.05c0.01,0,0.01,0,0.01,0c0.53-0.04,1.03-0.09,1.48-0.16c0.87-0.12,1.55-0.25,1.86-0.34
									c0.01,0,0.01,0,0.01,0h0.01c0,0,0,0,0.01-0.01C106.85,78.06,106.82,77.95,106.79,77.83z M106.79,77.83
									c-0.01-0.03-0.01-0.06-0.02-0.09c-0.12-0.44-0.27-0.93-0.53-1.36c-0.19-0.33-0.39-0.6-0.64-0.79
									c-0.01-0.01-0.01-0.01-0.01-0.01c-0.45-0.39-1.03-0.58-1.84-0.64c-0.91-0.06-1.87,0.17-2.66,0.66
									c-0.12,0.06-0.23,0.14-0.34,0.22c-0.04,0.03-0.09,0.08-0.14,0.15c-0.14,0.2-0.33,0.57-0.51,1c-0.03,0.06-0.06,0.12-0.09,0.2
									c-0.03,0.06-0.06,0.14-0.09,0.21c-0.17,0.39-0.32,0.79-0.45,1.16c0.01,0.01,0.02,0.01,0.04,0.01
									c0.06,0.02,0.12,0.03,0.17,0.04c0.01,0,0.02,0.01,0.03,0.01c0.04,0.01,0.07,0.01,0.11,0.01c0.19,0.04,0.39,0.07,0.59,0.09
									c0.53,0.06,1.1,0.07,1.65,0.06c0,0,0,0,0.01,0c0.2,0,0.4-0.01,0.6-0.01c0.28-0.01,0.56-0.03,0.82-0.05c0.01,0,0.01,0,0.01,0
									c0.53-0.04,1.03-0.09,1.48-0.16c0.87-0.12,1.55-0.25,1.86-0.34c0.01,0,0.01,0,0.01,0h0.01c0,0,0,0,0.01-0.01
									C106.85,78.06,106.82,77.95,106.79,77.83z"/>
								<g>
									<g>
										<g>
											<g>
												<path class="st37" d="M104.12,77.01c0.03,1.08-0.58,1.95-1.36,1.96c-0.78,0.01-1.44-0.86-1.47-1.93
													c-0.03-1.08,0.58-1.95,1.36-1.96C103.43,75.07,104.09,75.93,104.12,77.01z"/>
											</g>
										</g>
										<path class="st38" d="M103.97,76.9c0.01,0.45-0.24,0.82-0.57,0.82c-0.33,0-0.6-0.36-0.61-0.81
											c-0.01-0.45,0.24-0.82,0.57-0.82C103.68,76.08,103.96,76.45,103.97,76.9z"/>
										<path class="st2" d="M102.98,76.76c0,0.15-0.08,0.28-0.19,0.28c-0.11,0-0.2-0.12-0.21-0.27c0-0.15,0.08-0.28,0.19-0.28
											C102.88,76.48,102.97,76.6,102.98,76.76z"/>
									</g>
									<path class="st36" d="M107.13,78.19c-0.01-0.04-0.02-0.08-0.03-0.12c-0.04-0.14-0.07-0.3-0.12-0.44
										c-0.05-0.15-0.1-0.31-0.16-0.46c-0.04-0.12-0.09-0.23-0.15-0.34c-0.05-0.12-0.11-0.22-0.17-0.32
										c-0.06-0.11-0.14-0.21-0.21-0.31c-0.07-0.09-0.15-0.19-0.23-0.27c-0.09-0.08-0.17-0.16-0.27-0.23
										c-0.06-0.05-0.13-0.09-0.2-0.13c-0.03-0.03-0.07-0.05-0.09-0.07c-0.03-0.01-0.06-0.03-0.09-0.04
										c-0.05-0.03-0.11-0.05-0.17-0.07c-0.08-0.04-0.17-0.07-0.27-0.1h-0.01c-0.12-0.04-0.27-0.07-0.41-0.1
										c-0.07-0.01-0.15-0.03-0.23-0.04c-0.08-0.01-0.16-0.02-0.24-0.03c-0.09-0.01-0.17-0.01-0.27-0.02
										c-0.11-0.01-0.22-0.01-0.32-0.01c-0.14,0-0.29,0.01-0.43,0.02c-0.04,0-0.07,0-0.1,0.01c-0.01-0.01-0.01,0-0.01,0
										c-0.08,0-0.16,0.01-0.24,0.03c-0.04,0-0.09,0.01-0.13,0.01c-0.09,0.01-0.17,0.04-0.26,0.06c-0.02,0.01-0.05,0.01-0.07,0.01
										c-0.09,0.02-0.17,0.05-0.25,0.07c-0.01,0-0.01,0-0.01,0c-0.02,0.01-0.05,0.01-0.07,0.02c-0.11,0.04-0.22,0.07-0.32,0.12
										c-0.15,0.06-0.3,0.12-0.43,0.19c-0.2,0.09-0.39,0.21-0.56,0.32c-0.01,0.01-0.01,0.01-0.02,0.01
										c-0.03,0.02-0.06,0.05-0.09,0.09c-0.03,0.02-0.06,0.06-0.09,0.09c-0.1,0.13-0.21,0.32-0.32,0.53
										c-0.09,0.16-0.17,0.34-0.26,0.52c0,0,0,0,0,0.01c-0.12,0.25-0.23,0.5-0.32,0.72c0,0.01,0,0.01,0,0.01
										c-0.02,0.05-0.04,0.1-0.06,0.15c-0.04,0.1-0.08,0.19-0.12,0.27c-0.04,0.1-0.07,0.19-0.1,0.25l-0.04,0.11
										c0.14,0.04,0.3,0.07,0.45,0.09c0.06,0.01,0.12,0.02,0.17,0.03c0.19,0.04,0.39,0.06,0.59,0.07
										c0.65,0.06,1.38,0.07,2.11,0.03c0.17,0,0.35-0.01,0.52-0.02c0.03,0,0.05,0,0.08-0.01c0.55-0.04,1.09-0.08,1.59-0.14
										c1-0.12,1.84-0.26,2.25-0.38c0.01,0,0.02-0.01,0.03-0.01c0.01,0,0.03-0.01,0.04-0.01c0.01,0,0.01-0.01,0.01-0.01
										c0.04-0.01,0.08-0.02,0.11-0.03c0.02-0.01,0.03-0.01,0.04-0.01v-0.01C107.14,78.27,107.14,78.23,107.13,78.19z
										 M104.98,78.55c-0.45,0.06-0.95,0.12-1.48,0.16h-0.06c-0.24,0.01-0.5,0.04-0.77,0.05c-0.18,0.01-0.36,0.01-0.55,0.02
										c-0.56,0.01-1.16,0.01-1.7-0.04c-0.21-0.02-0.41-0.05-0.61-0.08c-0.04-0.01-0.08-0.01-0.12-0.02
										c-0.07-0.01-0.14-0.02-0.21-0.04c0.01-0.02,0.01-0.04,0.03-0.07c0.12-0.32,0.27-0.66,0.42-1c0.01-0.03,0.03-0.06,0.04-0.09
										c0.1-0.22,0.2-0.43,0.3-0.62c0.19-0.37,0.37-0.65,0.49-0.73c0.11-0.07,0.22-0.14,0.34-0.21c0.19-0.11,0.39-0.2,0.6-0.28
										c0.51-0.19,1.04-0.31,1.57-0.33c0.17-0.01,0.33-0.01,0.5,0c1.26,0.07,1.96,0.44,2.48,1.3c0.21,0.36,0.36,0.76,0.48,1.13
										c0.02,0.07,0.04,0.14,0.06,0.21c0.02,0.09,0.04,0.17,0.06,0.26c0.01,0.01,0.01,0.04,0.01,0.05
										C106.55,78.31,105.86,78.44,104.98,78.55z"/>
									<path class="st39" d="M107.16,78.32c-0.04,0.02-0.15,0.05-0.23,0.07c-0.1-0.31-0.28-0.69-0.45-0.97
										c-0.53-0.87-1.15-1.26-2.58-1.34c-1.19-0.07-2.35,0.28-3.23,0.88c-0.29,0.19-0.73,1.13-1.05,1.85
										c-0.16-0.03-0.3-0.06-0.45-0.1c0,0,0.93-2.42,1.41-2.74c0.88-0.59,2.04-0.95,3.23-0.88c1.43,0.09,2.15,0.53,2.68,1.4
										C106.85,77.06,107.03,77.72,107.16,78.32z"/>
									<path class="st129" d="M107.42,78.29c-0.12-0.55-0.3-1.26-0.68-1.87c-0.59-0.98-1.42-2.16-2.87-2.25
										c-0.85-0.05-1.76,0.27-2.55,0.84c-0.32,0.24-0.63,0.52-0.9,0.84c-0.07,0.09-0.17,0.23-0.27,0.4
										c-0.27,0.43-0.59,1.08-0.84,1.6c-0.14,0.3-0.27,0.57-0.34,0.74c-0.01,0.04-0.03,0.06-0.04,0.09l-0.06,0.14v0.01l0.2,0.05
										c0.22,0.06,0.45,0.1,0.7,0.14c0.19,0.03,0.38,0.05,0.57,0.07c1.07,0.09,2.26,0.04,3.19-0.03c1.73-0.14,3.37-0.42,3.75-0.59
										l0.15-0.07L107.42,78.29z M107.16,78.32c-0.01,0.01-0.02,0.01-0.04,0.01c-0.03,0.01-0.07,0.02-0.11,0.03
										c-0.01,0-0.01,0.01-0.01,0.01c-0.01,0-0.02,0.01-0.04,0.01c-0.01,0-0.01,0.01-0.03,0.01c-0.4,0.12-1.24,0.26-2.25,0.38
										c-0.5,0.06-1.04,0.11-1.59,0.14c-0.03,0.01-0.05,0.01-0.08,0.01c-0.17,0.01-0.35,0.02-0.52,0.02
										c-0.73,0.04-1.46,0.03-2.11-0.03c-0.2-0.01-0.4-0.04-0.59-0.07c-0.06-0.01-0.12-0.01-0.17-0.03
										c-0.16-0.02-0.3-0.06-0.45-0.09l0.04-0.11c0.03-0.06,0.06-0.14,0.1-0.25c0.04-0.09,0.07-0.17,0.12-0.27
										c0.02-0.05,0.04-0.1,0.06-0.15c0,0,0,0,0-0.01c0.09-0.22,0.21-0.48,0.32-0.72c0-0.01,0-0.01,0-0.01
										c0.09-0.18,0.17-0.36,0.26-0.52c0.12-0.21,0.22-0.4,0.32-0.53c0.04-0.04,0.06-0.07,0.09-0.09
										c0.04-0.04,0.07-0.07,0.09-0.09c0.01-0.01,0.01-0.01,0.02-0.01c0.17-0.12,0.36-0.23,0.56-0.32
										c0.14-0.06,0.28-0.13,0.43-0.19c0.1-0.04,0.21-0.08,0.32-0.12c0.02-0.01,0.05-0.01,0.07-0.02c0,0,0,0,0.01,0
										c0.08-0.02,0.17-0.05,0.25-0.07c0.02-0.01,0.05-0.01,0.07-0.01c0.09-0.02,0.17-0.04,0.26-0.06
										c0.04-0.01,0.09-0.01,0.13-0.01c0.08-0.02,0.16-0.03,0.24-0.03c0,0,0-0.01,0.01,0c0.03-0.01,0.06-0.01,0.1-0.01
										c0.14-0.01,0.28-0.02,0.43-0.02c0.11,0,0.22,0,0.32,0.01c0.09,0.01,0.18,0.01,0.27,0.02c0.08,0.01,0.16,0.01,0.24,0.03
										c0.08,0.01,0.16,0.02,0.23,0.04c0.14,0.03,0.28,0.06,0.41,0.1h0.01c0.09,0.03,0.19,0.06,0.27,0.1
										c0.06,0.02,0.12,0.04,0.17,0.07c0.04,0.01,0.07,0.03,0.09,0.04c0.03,0.01,0.07,0.04,0.09,0.07
										c0.07,0.04,0.14,0.08,0.2,0.13c0.09,0.07,0.18,0.15,0.27,0.23c0.08,0.08,0.16,0.17,0.23,0.27
										c0.07,0.09,0.14,0.19,0.21,0.31c0.07,0.11,0.12,0.21,0.17,0.32c0.06,0.11,0.11,0.22,0.15,0.34
										c0.06,0.15,0.11,0.31,0.16,0.46c0.04,0.14,0.08,0.3,0.12,0.44c0.01,0.04,0.02,0.08,0.03,0.12
										C107.14,78.23,107.14,78.27,107.16,78.32L107.16,78.32z"/>
								</g>
							</g>
						</g>
					</g>
					<g>
						<path class="st130" d="M113.58,50.9c0,0.01-0.01,0.01-0.01,0.02c-2.05,4.54-3.6,10.72-8.39,8.81
							c-2.18-0.87-5.14-5.35-6.16-6.39c-1.35-1.37-5.94-4.89-5.94-4.89c-0.31,3.93-0.31,3.91-1.5,7.8
							c-1.32,4.31-2.88,8.13-6.34,11.11c-3.17,2.73-2.1,2.55-5.94,3.58c-3.21,0.86-14.16,6.78-11.63,10.18
							c2.03,2.73,1.13,1.06,3.27,4.31c4.3,6.53,7.11,18.04,11.5,23.47c-2.51,0.3-26.56-4.32-28.94-7.56
							c-0.44-0.22-0.75-0.78-0.97-1.59c-1.15-4.2,0.23-14.94,0.28-17.13c0.25-9.7,2.8-20.4,7.64-28.82
							c3.26-5.66,8.25-11.71,15.3-10.95c1.85,0.2,3.5,1.6,5.23,1.66c2.22,0.08,4.63-5.8,6.44-6.93c5.56-3.46,9.7-2.04,13.67-2.38
							c6.47-0.57,2.9,4.4,4.42,4.6c2.08,0.28,1.62,0.15,3.75,0.27C114.64,40.39,115.33,47.03,113.58,50.9z"/>
						<path class="st124" d="M113.57,50.92c-2.05,4.54-3.6,10.72-8.39,8.81c-2.18-0.87-5.14-5.35-6.16-6.39
							c-1.35-1.37-5.94-4.89-5.94-4.89c-0.31,3.93-0.31,3.91-1.5,7.8c-1.32,4.31-2.88,8.13-6.34,11.11
							c-3.17,2.73-2.1,2.55-5.94,3.58c-3.21,0.86-14.16,6.78-11.63,10.18c2.03,2.73,1.13,1.06,3.27,4.31
							c4.3,6.53,7.11,18.04,11.5,23.47c-2.51,0.3-26.56-4.32-28.94-7.56c-0.44-0.22-0.75-0.78-0.97-1.59
							c1.86,1.54,5.91,2.34,7.7,2.8c2.02,0.53,4.01,0.72,6.09,0.85c1.3,0.08,3.63,0.65,4.87-0.11c3.09-1.9-0.65-9.18-1.74-11.46
							c-1.41-2.96-2.51-5.72-3.49-8.84c-1.03-3.29-1.56-6.64-0.69-10.08c1.11-4.39,4.25-5.88,8.19-7.27
							c2.59-0.92,5.16-1.79,7.25-3.66c1.98-1.76,3.58-4.23,5.15-6.36c1.67-2.28,2.61-4.48,3.38-7.17c0.44-1.53,0.54-3.57,1.12-4.92
							c2.09,1.25,3.74,3.25,5.87,4.47c2.34,1.34,4.82,2.48,7.26,3.64C106.65,53.15,110.34,52.49,113.57,50.92z"/>
						<path class="st131" d="M112.52,44.71c-0.4-1.45-2.59-2.36-3.75-3.02c0.75,3.22-12.66,0.42-14.91-1.44c0,0,5.99,6.38,7.6,7.18
							c2.11,1.05,4.28,1.83,6.69,1.53C110.06,48.73,113.18,47.11,112.52,44.71z"/>
					</g>
					<g>
						<g>
							<path class="st32" d="M65.12,72.03c0.96-0.65,2.33-0.32,3.51-0.22c1.25,0.11,3.1,0.28,3.51,1.76
								c0.31,1.16,1.08,3.5,1.18,4.71c0,0,0.03,5.14-0.93,6.78c-0.3,0.5-2.21,0.39-2.79,0.05c-0.77-0.44-4.01-7.26-4.8-10.04
								C64.42,73.8,63.9,72.85,65.12,72.03z"/>
							<path class="st33" d="M65.62,73.01c0.2-0.73,1.4-0.53,2.24-0.5c0.83,0.02,2.27-0.05,2.94,0.41c0.65,0.45,0.5,1.92,0.49,2.62
								c-2.14-0.31-1.93,2.08-0.13,1.84l0.04,0.44c0.05,0.58,0.04,1.3-0.16,1.7c-0.04-0.46,0.11-1.37-0.33-1.7
								c-0.43-0.32-1.33-0.18-1.82-0.48c-1.29-0.79,0.21-1.83,1.39-2.12c-0.07-0.32-0.04-1.12-0.29-1.37
								c-0.29-0.29-1.25-0.33-1.75-0.41c-0.75-0.13-1.25-0.34-1.59,0.14c-0.23,0.33-0.04,0.88,0,1.24
								C66.26,74.41,65.48,73.51,65.62,73.01z"/>
						</g>
					</g>
				</g>
				<path class="st132" d="M75.97,131.57c1.65,8.04,3.94,19.38,6.31,31.45c-0.04,0-0.07-0.01-0.11-0.01
					c-0.44-0.02-0.87-0.04-1.31-0.07c0.09,0.48,0.17,0.96,0.26,1.44c-0.11-0.48-0.22-0.97-0.32-1.45c-0.74-0.04-1.48-0.09-2.21-0.17
					c-1.96-0.17-3.9-0.43-5.81-0.75c-4.74-12.87-8.82-22.64-10.19-22.96c1.23-2.35,5.41-3.14,7.41-4.95
					c-2.21-3.94-6.48-7.7-9.97-8.77c0.12-0.11,0.26-0.23,0.42-0.35c0.1-0.08,0.21-0.15,0.33-0.23c3.33-2.29,12.63-5.51,12.63-5.51
					c0.01,0.04,0.01,0.09,0.02,0.14c0,0,0,0,0,0.01c0.03,0.15,0.07,0.35,0.12,0.59c0.06,0.3,0.14,0.66,0.24,1.08
					C74.17,122.89,74.95,126.6,75.97,131.57z"/>
				<path class="st132" d="M103.36,137.85c-1.33,0.54-3,10.81-4.6,24.17c-0.47,0.09-0.94,0.16-1.42,0.22
					c-1.52,0.23-3.05,0.41-4.59,0.54c-0.36,0.04-0.73,0.06-1.09,0.09c-0.03,0.01-0.06,0.01-0.1,0.01c-0.06,0.01-0.11,0.01-0.17,0.01
					c-0.38,0.03-0.75,0.06-1.13,0.08c-0.31-8.83-0.58-17.23-0.76-24.16c-0.17-6.9-0.26-12.35-0.22-15.31
					c0.01-0.51,0.03-0.95,0.06-1.33c0.01-0.17,0.02-0.33,0.04-0.48c0.09-0.88,0.19-1.38,0.19-1.74c0,0,4.96,2.17,8.82,4.12
					c1.61,0.81,3.03,1.58,3.81,2.14c-0.69,0.34-1.34,0.7-1.94,1.1c-2.21,1.47-3.78,3.47-5.02,6.79c0.36,0.24,0.77,0.43,1.21,0.61
					C98.8,135.68,102.02,136.06,103.36,137.85z"/>
			</g>
			<g>
				<g>
					<path class="st121" d="M53.09,155.95c0,0.02,0,0.04-0.01,0.07c-0.01-0.03-0.04-0.07-0.06-0.09c-1.44-0.67-2.87-1.39-4.27-2.14
						c-1.14-0.61-2.27-1.26-3.37-1.94c-0.62-0.38-1.23-0.76-1.84-1.15c-2.13-1.37-4.19-2.85-6.17-4.42
						c1.76-7.96,3.51-13.62,4.85-15.16c1.11-1.29,2.59-2.08,4.11-2.27c3.1-0.39,6.4,1.7,7.29,7.26
						C54.2,139.68,53.88,146.88,53.09,155.95z"/>
				</g>
			</g>
		</g>
	</g>
</g>
</svg>
