<?xml version="1.0" encoding="utf-8"?>
<!-- Generator: Adobe Illustrator 27.2.0, SVG Export Plug-In . SVG Version: 6.00 Build 0)  -->
<svg version="1.1" id="Layer_1" xmlns="http://www.w3.org/2000/svg" xmlns:xlink="http://www.w3.org/1999/xlink" x="0px" y="0px"
	 viewBox="0 0 171.51 171.51" style="enable-background:new 0 0 171.51 171.51;" xml:space="preserve">
<style type="text/css">
	.st0{fill:#F7F2DA;}
	.st1{fill:#FBA479;}
	.st2{fill:#FFFFFF;}
	.st3{fill:#E1DFEA;}
	.st4{fill:#261411;}
	.st5{fill:#60312B;}
	.st6{fill:#EF7950;}
	.st7{fill:#60281F;}
	.st8{fill:#E8E6E6;}
	.st9{fill:#3A2827;}
	.st10{fill:#CCCCCC;}
	.st11{fill:#595857;}
	.st12{fill:#F28C5F;}
	.st13{fill:#E26939;}
	.st14{fill:#56413D;}
	.st15{fill:#44322E;}
	.st16{fill:#873421;}
	.st17{fill:#EA6CA0;}
	.st18{fill:#DB5290;}
	.st19{fill:#F48656;}
	.st20{fill:#82112F;}
	.st21{fill:#D85039;}
	.st22{fill:#574984;}
	.st23{fill:#291C51;}
	.st24{fill:#FC5135;}
	.st25{fill:#FFCC7B;}
	.st26{fill:#E8A749;}
	.st27{fill:#6D4A44;}
	.st28{fill:#D1E3E8;}
	.st29{fill:#FCFBFA;}
	.st30{fill:#4C4C4B;}
	.st31{fill:#686868;}
	.st32{fill:#FFB884;}
	.st33{fill:#EF9C62;}
	.st34{fill:#874410;}
	.st35{fill:#6D340D;}
	.st36{fill:#E89258;}
	.st37{fill:#3A2E26;}
	.st38{fill:#4C3F35;}
	.st39{opacity:0.1;}
	.st40{fill:#60120F;}
	.st41{fill:#F4F0ED;}
	.st42{fill:#E0312D;}
	.st43{fill:#F42F2F;}
	.st44{fill:#D31111;}
	.st45{fill:#DB9B19;}
	.st46{fill:#AF740B;}
	.st47{fill:#CC2121;}
	.st48{fill:#F74B4B;}
	.st49{fill:#FCF9E8;}
	.st50{opacity:0.5;fill:#827571;}
	.st51{fill:#665D5C;}
	.st52{fill:#4F4746;}
	.st53{fill:#5E3B2F;}
	.st54{fill:#492E27;}
	.st55{opacity:0.4;}
	.st56{fill:#443A36;}
	.st57{fill:#51415E;}
	.st58{fill:#066FB7;}
	.st59{fill:#066396;}
	.st60{fill:#0D8FD6;}
	.st61{fill:#FEAC74;}
	.st62{fill:#E3784C;}
	.st63{fill:#580801;}
	.st64{fill:#440502;}
	.st65{fill:#00ABB2;}
	.st66{fill:#008C8C;}
	.st67{fill:#914E34;}
	.st68{fill:#5B2E1D;}
	.st69{fill:#6A3221;}
	.st70{fill:#FAFAFC;}
	.st71{fill:#2B3B3F;}
	.st72{fill:#3F565B;}
	.st73{fill:#EF7348;}
	.st74{fill:#6F3D26;}
	.st75{fill:#BBBEBF;}
	.st76{fill:#D3D3D3;}
	.st77{fill:#939A9E;}
	.st78{fill:#F79C5E;}
	.st79{fill:#E07832;}
	.st80{fill:#604135;}
	.st81{fill:#EFEAE8;}
	.st82{fill:#4F3229;}
	.st83{fill:#1A3D3A;}
	.st84{fill:#E8E8E8;}
	.st85{fill:#0C83C4;}
	.st86{fill:#1B96EA;}
	.st87{fill:#B50F0F;}
	.st88{opacity:0.4;fill:#E89258;}
	.st89{fill:#26ACF7;}
	.st90{fill:#F45347;}
	.st91{fill:#FF3939;}
	.st92{fill:#686766;}
	.st93{fill:#5E5D5B;}
	.st94{fill:#424140;}
	.st95{fill:#E7E1CB;}
	.st96{fill:#D6CFBA;}
	.st97{fill:#CE5C37;}
	.st98{fill:#B74D30;}
	.st99{fill:#1B313D;}
	.st100{fill:#36474F;}
	.st101{fill:#29526D;}
	.st102{fill:#FCBD88;}
	.st103{fill:#FCA265;}
	.st104{fill:#496B7A;}
	.st105{fill:#B76049;}
	.st106{fill:#EDEDED;}
	.st107{fill:#7C7979;}
	.st108{fill:#EFE6E8;}
	.st109{fill:#B20D28;}
	.st110{fill:#346682;}
	.st111{fill:#AA0E28;}
	.st112{fill:#FF5050;}
	.st113{fill:#781A0E;}
	.st114{fill:#560904;}
	.st115{fill:#FF0B40;}
	.st116{fill:#BC0000;}
	.st117{fill:#FFD731;}
	.st118{fill:#EA6453;}
	.st119{fill:#602618;}
	.st120{fill:#A14F2A;}
	.st121{fill:#3A4E66;}
	.st122{fill:#EAE9EE;}
	.st123{opacity:0.3;fill:#3A4E66;}
	.st124{fill:#5E2701;}
	.st125{fill:#773000;}
	.st126{fill:#EA2F4A;}
	.st127{fill:#C41234;}
	.st128{fill:#F7F0F1;}
	.st129{fill:#F7A76F;}
	.st130{fill:#B24800;}
	.st131{fill:#8C3B03;}
	.st132{fill:#567391;}
	.st133{fill:#FF7271;}
	.st134{fill:#F75E5E;}
	.st135{fill:#700F28;}
	.st136{fill:#9E1533;}
	.st137{fill:#871231;}
	.st138{fill:#211B3A;}
	.st139{fill:#2E2951;}
	.st140{fill:#F28670;}
	.st141{fill:#F46060;}
	.st142{fill:#EBBF44;}
	.st143{fill:#E0A91E;}
	.st144{fill:#FFA992;}
	.st145{fill:#2C363F;}
	.st146{fill:#1D262D;}
	.st147{fill-rule:evenodd;clip-rule:evenodd;fill:#FFF5F5;}
	.st148{opacity:0.2;}
	.st149{fill:#7C4949;}
	.st150{fill:#F9AE7A;}
	.st151{fill:#FFF5F5;}
	.st152{fill:#C92727;}
	.st153{fill:#4C1B05;}
	.st154{fill:#592009;}
	.st155{opacity:0.4;fill:#592009;}
	.st156{fill:#3F1307;}
	.st157{fill:#664472;}
	.st158{fill:#473051;}
	.st159{fill:#352020;}
	.st160{opacity:0.3;fill:#7C4949;}
</style>
<g>
	<path class="st0" d="M151.68,127.41c-3.26,5.16-7.03,9.81-11.21,13.91c-1.16,1.15-2.35,2.26-3.57,3.32
		c-0.35,0.3-0.71,0.61-1.06,0.9c-0.27,0.22-0.54,0.45-0.82,0.67c-0.27,0.22-0.53,0.43-0.8,0.64c-1.39,1.11-2.82,2.17-4.27,3.16
		c-0.23,0.16-0.47,0.32-0.71,0.47c-0.69,0.47-1.39,0.92-2.1,1.36c-0.28,0.18-0.56,0.35-0.84,0.53c-0.68,0.41-1.36,0.82-2.05,1.21
		c-0.17,0.1-0.35,0.19-0.52,0.3c-0.24,0.13-0.48,0.26-0.71,0.39c-0.3,0.17-0.61,0.33-0.94,0.49c-0.03,0.01-0.06,0.04-0.1,0.05
		c-1.49,0.78-3,1.52-4.55,2.2c-0.17,0.08-0.35,0.16-0.53,0.24c-0.06,0.03-0.14,0.06-0.2,0.09c-0.26,0.12-0.52,0.22-0.78,0.33
		c-0.61,0.25-1.21,0.5-1.83,0.74c-0.22,0.08-0.44,0.17-0.66,0.25c-0.04,0.01-0.07,0.03-0.11,0.04c-0.04,0.02-0.09,0.04-0.13,0.05
		c-0.2,0.09-0.42,0.16-0.63,0.24c-0.14,0.05-0.27,0.1-0.42,0.15c-0.09,0.04-0.19,0.07-0.29,0.11c-0.08,0.03-0.17,0.06-0.25,0.09
		c-0.45,0.16-0.9,0.31-1.35,0.46c-0.63,0.2-1.26,0.4-1.88,0.59c-0.01,0-0.01,0.01-0.02,0.01c-0.08,0.03-0.15,0.04-0.23,0.07
		c-0.19,0.06-0.38,0.11-0.56,0.17c-0.51,0.14-1.02,0.29-1.54,0.43c-0.15,0.04-0.3,0.08-0.45,0.12c-0.33,0.09-0.67,0.17-1,0.26
		c-0.1,0.02-0.2,0.05-0.3,0.07c-0.08,0.02-0.15,0.04-0.23,0.06c-0.07,0.01-0.14,0.04-0.21,0.05c-0.39,0.09-0.78,0.18-1.16,0.27
		c-0.02,0.01-0.04,0.01-0.06,0.01c-0.16,0.04-0.32,0.07-0.49,0.1c-0.41,0.09-0.82,0.18-1.23,0.26c-0.01,0-0.03,0.01-0.04,0.01
		c-0.07,0.01-0.15,0.03-0.22,0.04c-0.63,0.12-1.26,0.24-1.89,0.34c-1.14,0.2-2.28,0.36-3.43,0.5c-0.25,0.04-0.51,0.06-0.76,0.09
		c-0.44,0.05-0.87,0.09-1.31,0.13c-0.27,0.03-0.55,0.06-0.82,0.08c-0.48,0.05-0.94,0.08-1.42,0.11c-0.47,0.04-0.94,0.06-1.41,0.08
		c-0.75,0.05-1.49,0.07-2.25,0.08c-0.16,0.01-0.32,0.01-0.47,0.01c-0.04,0-0.07,0.01-0.11,0.01c-0.17,0.01-0.35,0.01-0.52,0
		c-0.17,0.01-0.33,0.01-0.51,0.01c-0.33,0-0.67-0.01-1-0.01c-0.67-0.01-1.35-0.02-2.02-0.06c-1.18-0.04-2.36-0.12-3.54-0.21
		c-0.22-0.02-0.44-0.04-0.66-0.06c-0.3-0.03-0.6-0.06-0.9-0.09c-1.51-0.14-3.01-0.35-4.51-0.59c-0.58-0.1-1.16-0.2-1.74-0.31
		c-0.18-0.04-0.37-0.07-0.56-0.11c-0.17-0.03-0.33-0.06-0.5-0.09c-0.06-0.01-0.12-0.04-0.18-0.04c-0.28-0.06-0.56-0.12-0.85-0.18
		c-0.08-0.01-0.16-0.04-0.24-0.05c-0.33-0.07-0.65-0.14-0.98-0.22h-0.01c-1.21-0.28-2.41-0.59-3.61-0.93
		c-0.12-0.04-0.24-0.07-0.35-0.1c-1.11-0.32-2.22-0.67-3.32-1.05c-0.35-0.12-0.7-0.25-1.05-0.37c-0.2-0.07-0.4-0.14-0.6-0.22
		c-0.29-0.1-0.57-0.21-0.85-0.32c-0.86-0.32-1.72-0.66-2.57-1.03c-0.01-0.01-0.03-0.01-0.04-0.02c-0.06-0.02-0.12-0.04-0.17-0.07
		c-0.05-0.02-0.11-0.04-0.16-0.07c-0.31-0.12-0.62-0.26-0.94-0.4c-0.1-0.04-0.19-0.09-0.29-0.14c-0.24-0.11-0.48-0.21-0.71-0.32
		c-0.22-0.09-0.43-0.19-0.64-0.29c-0.17-0.07-0.33-0.15-0.5-0.22c-0.35-0.17-0.69-0.34-1.03-0.51c-0.28-0.14-0.56-0.29-0.84-0.43
		c-0.05-0.02-0.11-0.05-0.16-0.08c-0.22-0.1-0.43-0.22-0.64-0.33c-0.12-0.06-0.22-0.12-0.33-0.17c-0.03-0.01-0.07-0.03-0.09-0.05
		c-0.05-0.02-0.09-0.05-0.14-0.08c-0.34-0.17-0.67-0.35-1-0.53c-0.16-0.09-0.31-0.17-0.47-0.27c-0.04-0.02-0.08-0.04-0.12-0.07
		c-0.45-0.25-0.9-0.51-1.35-0.78c-0.19-0.12-0.38-0.22-0.57-0.35c-0.01-0.01-0.02-0.01-0.03-0.02c-0.06-0.03-0.12-0.07-0.19-0.11
		c-0.09-0.06-0.19-0.12-0.28-0.17c-0.18-0.11-0.36-0.22-0.53-0.32c-0.12-0.07-0.23-0.14-0.35-0.22c-0.12-0.07-0.24-0.15-0.35-0.22
		c-0.24-0.15-0.48-0.31-0.71-0.46c-0.04-0.03-0.09-0.06-0.14-0.09c-0.04-0.02-0.07-0.05-0.11-0.07c-0.04-0.03-0.08-0.05-0.12-0.08
		l-0.06-0.04c-0.01-0.01-0.02-0.01-0.03-0.01c-0.21-0.13-0.4-0.26-0.6-0.41c-0.25-0.15-0.49-0.32-0.73-0.49
		c-0.01-0.01-0.04-0.02-0.05-0.04c-0.03-0.01-0.06-0.04-0.09-0.06c-0.11-0.08-0.21-0.15-0.31-0.22c-0.04-0.02-0.07-0.05-0.1-0.07
		c-0.07-0.04-0.13-0.09-0.19-0.13c-0.16-0.12-0.32-0.22-0.47-0.33c-0.02-0.01-0.04-0.03-0.05-0.04c-0.61-0.43-1.2-0.87-1.78-1.33
		c-0.38-0.29-0.76-0.58-1.13-0.87c-0.45-0.36-0.9-0.73-1.34-1.1c-0.06-0.06-0.14-0.12-0.21-0.17c-0.62-0.51-1.23-1.05-1.83-1.6
		c-0.48-0.42-0.95-0.85-1.41-1.29c-0.71-0.66-1.42-1.34-2.09-2.03c-0.49-0.49-0.97-1-1.44-1.5c-0.01-0.01-0.03-0.02-0.04-0.04
		c-0.72-0.77-1.42-1.55-2.09-2.34c-0.15-0.16-0.29-0.32-0.43-0.48c-1.17-1.39-2.3-2.82-3.37-4.28c-0.6-0.82-1.18-1.65-1.75-2.5
		c-0.1-0.14-0.2-0.29-0.3-0.43c-0.16-0.24-0.32-0.48-0.48-0.73c-0.01-0.03-0.02-0.04-0.04-0.07c-0.87-1.34-1.7-2.7-2.47-4.09
		c-0.09-0.15-0.19-0.33-0.27-0.5c-0.55-0.96-1.05-1.94-1.55-2.93c-0.33-0.66-0.64-1.3-0.95-1.96c-1.06-2.3-2.01-4.64-2.85-7.03
		c-0.38-1.1-0.75-2.21-1.08-3.34c-0.03-0.09-0.06-0.17-0.08-0.27c-0.06-0.23-0.14-0.45-0.21-0.69c-0.18-0.63-0.35-1.26-0.52-1.89
		c-5.25-20.15-2.47-42.35,9.54-61.34C42.84,7.68,91.01-3.18,127.41,19.83C163.83,42.83,174.69,91,151.68,127.41z"/>
	<g>
		<path class="st92" d="M68.76,147.92c-2.58,3.94-5.26,7.86-8.02,11.72c-0.35-0.12-0.7-0.25-1.05-0.37c-0.2-0.07-0.4-0.14-0.6-0.22
			c-0.29-0.1-0.57-0.21-0.85-0.32c-0.86-0.32-1.72-0.66-2.57-1.03c-0.01-0.01-0.03-0.01-0.04-0.02c-0.06-0.02-0.12-0.04-0.17-0.07
			c-0.05-0.02-0.11-0.04-0.16-0.07c-0.31-0.12-0.62-0.26-0.94-0.4c-0.1-0.04-0.19-0.09-0.29-0.14c-0.24-0.11-0.48-0.21-0.71-0.32
			c-0.22-0.09-0.43-0.19-0.64-0.29c-0.17-0.07-0.33-0.15-0.5-0.22c-0.35-0.17-0.69-0.34-1.03-0.51c-0.28-0.14-0.56-0.29-0.84-0.43
			c-0.05-0.02-0.11-0.05-0.16-0.08c-0.22-0.1-0.43-0.22-0.64-0.33c-0.12-0.06-0.22-0.12-0.33-0.17c-0.03-0.01-0.07-0.03-0.09-0.05
			c-0.05-0.02-0.09-0.05-0.14-0.08c-0.34-0.17-0.67-0.35-1-0.53c-0.16-0.09-0.31-0.17-0.47-0.27c-0.04-0.02-0.08-0.04-0.12-0.07
			c-0.45-0.25-0.9-0.51-1.35-0.78c-0.19-0.12-0.38-0.22-0.57-0.35c-0.01-0.01-0.02-0.01-0.03-0.02c-0.06-0.03-0.12-0.07-0.19-0.11
			c-0.09-0.06-0.19-0.12-0.28-0.17c-0.18-0.11-0.36-0.22-0.53-0.32c-0.12-0.07-0.23-0.14-0.35-0.22c-0.12-0.07-0.24-0.15-0.35-0.22
			c-0.24-0.15-0.48-0.31-0.71-0.46c-0.04-0.03-0.09-0.06-0.14-0.09c-0.04-0.02-0.07-0.05-0.11-0.07c-0.04-0.03-0.08-0.05-0.12-0.08
			l-0.06-0.04c-0.01-0.01-0.02-0.01-0.03-0.01c-0.21-0.13-0.4-0.26-0.6-0.41c-0.25-0.15-0.49-0.32-0.73-0.49
			c-0.01-0.01-0.04-0.02-0.05-0.04c-0.03-0.01-0.06-0.04-0.09-0.06c-0.11-0.08-0.21-0.15-0.31-0.22c-0.04-0.02-0.07-0.05-0.1-0.07
			c3.43-5.55,6.46-10.15,8.64-12.74c0.31-0.36,1.18-1.12,2.2-1.99c1.88-1.57,4.28-3.52,4.86-4.15L68.76,147.92z"/>
		<g>
			<path class="st93" d="M132.06,131.11c-0.12,0.34-0.25,0.69-0.36,1.04c-1.73,5.05-3.21,11.71-4.5,19.42
				c-0.01,0.1-0.04,0.19-0.05,0.3c-0.28,0.18-0.56,0.35-0.84,0.53c-0.68,0.41-1.36,0.82-2.05,1.21c-0.17,0.1-0.35,0.19-0.52,0.3
				c-0.24,0.13-0.48,0.26-0.71,0.39c-0.3,0.17-0.61,0.33-0.94,0.49c-0.03,0.01-0.06,0.04-0.1,0.05c-1.49,0.78-3,1.52-4.55,2.2
				c-0.17,0.08-0.35,0.16-0.53,0.24c-0.06,0.03-0.14,0.06-0.2,0.09c-0.26,0.12-0.52,0.22-0.78,0.33c-0.61,0.25-1.21,0.5-1.83,0.74
				c-0.22,0.08-0.44,0.17-0.66,0.25c-0.04,0.01-0.07,0.03-0.11,0.04c-0.04,0.02-0.09,0.04-0.13,0.05c-0.2,0.09-0.42,0.16-0.63,0.24
				c-0.14,0.05-0.27,0.1-0.42,0.15c-0.09,0.04-0.19,0.07-0.29,0.11c-0.08,0.03-0.17,0.06-0.25,0.09c-0.45,0.16-0.9,0.31-1.35,0.46
				c-0.63,0.2-1.26,0.4-1.88,0.59c-0.01,0-0.01,0.01-0.02,0.01c-0.08,0.03-0.15,0.04-0.23,0.07c-0.19,0.06-0.38,0.11-0.56,0.17
				c-0.51,0.14-1.02,0.29-1.54,0.43c-0.15,0.04-0.3,0.08-0.45,0.12c-0.33,0.09-0.67,0.17-1,0.26c-0.1,0.02-0.2,0.05-0.3,0.07
				c-0.08,0.02-0.15,0.04-0.23,0.06c-0.07,0.01-0.14,0.04-0.21,0.05c-0.39,0.09-0.78,0.18-1.16,0.27c-0.02,0.01-0.04,0.01-0.06,0.01
				c-0.16,0.04-0.32,0.07-0.49,0.1c-0.41,0.09-0.82,0.18-1.23,0.26c-0.01,0-0.03,0.01-0.04,0.01c-0.07,0.01-0.15,0.03-0.22,0.04
				c-0.63,0.12-1.26,0.24-1.89,0.34c-1.14,0.2-2.28,0.36-3.43,0.5c-0.25,0.04-0.51,0.06-0.76,0.09c-0.44,0.05-0.87,0.09-1.31,0.13
				c-0.27,0.03-0.55,0.06-0.82,0.08c-0.48,0.05-0.94,0.08-1.42,0.11c-0.47,0.04-0.94,0.06-1.41,0.08c-0.75,0.05-1.49,0.07-2.25,0.08
				c-0.16,0.01-0.32,0.01-0.47,0.01c-0.04,0-0.07,0.01-0.11,0.01c-0.17,0.01-0.35,0.01-0.52,0c-0.17,0.01-0.33,0.01-0.51,0.01
				c-0.33,0-0.67-0.01-1-0.01c-0.67-0.01-1.35-0.02-2.02-0.06c-1.18-0.04-2.36-0.12-3.54-0.21c-0.22-0.02-0.44-0.04-0.66-0.06
				c-0.3-0.03-0.6-0.06-0.9-0.09c-1.51-0.14-3.01-0.35-4.51-0.59c-0.58-0.1-1.16-0.2-1.74-0.31c-0.18-0.04-0.37-0.07-0.56-0.11
				c-0.17-0.03-0.33-0.06-0.5-0.09c-0.06-0.01-0.12-0.04-0.18-0.04c-0.28-0.06-0.56-0.12-0.85-0.18c-0.08-0.01-0.16-0.04-0.24-0.05
				c-0.33-0.07-0.65-0.14-0.98-0.22h-0.01c-1.21-0.28-2.41-0.59-3.61-0.93c-0.12-0.04-0.24-0.07-0.35-0.1
				c-1.11-0.32-2.22-0.67-3.32-1.05c-0.35-0.12-0.7-0.25-1.05-0.37c-0.2-0.07-0.4-0.14-0.6-0.22c-0.29-0.1-0.57-0.21-0.85-0.32
				c-0.86-0.32-1.72-0.66-2.57-1.03c-0.01-0.01-0.03-0.01-0.04-0.02c-0.06-0.02-0.12-0.04-0.17-0.07c-0.05-0.02-0.11-0.04-0.16-0.07
				c-0.31-0.12-0.62-0.26-0.94-0.4c-0.1-0.04-0.19-0.09-0.29-0.14c-0.24-0.11-0.48-0.21-0.71-0.32c-0.22-0.09-0.43-0.19-0.64-0.29
				c-0.17-0.07-0.33-0.15-0.5-0.22c-0.35-0.17-0.69-0.34-1.03-0.51c-0.28-0.14-0.56-0.29-0.84-0.43c-0.05-0.02-0.11-0.05-0.16-0.08
				c-0.22-0.1-0.43-0.22-0.64-0.33c0.19-7.61,0.79-14.44,1.67-19.04c0.07-0.37,0.18-0.74,0.32-1.12
				c1.89-4.9,10.01-10.12,21.31-13.03c1.85-0.48,3.79-0.9,5.81-1.23c0.66-0.11,1.31-0.22,1.99-0.31c0.84-0.12,1.69-0.22,2.55-0.32
				c0.49-0.05,0.98-0.1,1.48-0.14c3.21-0.28,6.56-0.37,9.99-0.23c0.66,0.03,1.34,0.07,2.01,0.11c1.26,0.09,2.51,0.2,3.78,0.35
				c0.29,0.03,0.57,0.07,0.86,0.1c0.29,0.04,0.58,0.07,0.87,0.12C112.04,121.45,122.33,124.84,132.06,131.11z"/>
			<path class="st94" d="M127.2,151.56c-0.01,0.1-0.04,0.19-0.05,0.3c-0.28,0.18-0.56,0.35-0.84,0.53
				c-0.68,0.41-1.36,0.82-2.05,1.21c-0.17,0.1-0.35,0.19-0.52,0.3c0.93-2.13,1.96-3.96,3.07-5L127.2,151.56z"/>
		</g>
		<g>
			<g>
				<path class="st94" d="M78.65,120.55l14.84-0.2c4.39-1.12,5.67-2.03,8.67,0.85c11.11,10.69-19.17,28.92-25.66,29.09
					C65.15,150.58,69.11,125.85,78.65,120.55z"/>
				<path class="st1" d="M78.65,120.55l15.44-3.56c4.39-1.12,9.09,3.53,9.03,7.69c-0.11,8.12-16.91,20.12-23.4,20.28
					C68.37,145.24,74.35,125.63,78.65,120.55z"/>
				<g>
					<path class="st1" d="M80.54,97.34l-2.22,27.24l23.84-3.38c0,0,0.41-16.19-0.49-30.78C101.33,84.83,80.54,97.34,80.54,97.34z"/>
					<path class="st6" d="M80.09,102.96l-1.3,15.92c9.45,4.34,19.04-8.06,21.56-12.24c3-4.98,1.71-10.09,1.71-10.09l-16.57,4.02
						L80.09,102.96z"/>
				</g>
			</g>
			<path class="st1" d="M107.56,92.68c-0.14-13.36,3.54-26.24-2.35-37.67c-1.88-3.65-11.7-8.52-13.59-9.25
				c-1.18-0.46-2.42-0.8-3.67-1.04c-1.27-0.05-2.55,0.01-3.8,0.19c-2,0.29-9.02,4.61-11.35,7c-4.68,4.81-4.96,9.82-6.81,22.29
				c-0.56,3.8-1.28,8.29-2.3,13.67c-1.57,8.24,1.85,14.92,6.72,21.29c2.51,3.29,1.19,6.33,6.23,6.87
				c11.09,0.68,18.44-6.07,23.08-10.52C103.88,101.53,107.61,98.13,107.56,92.68z"/>
			<path class="st6" d="M86.92,108.01c-2.8,0.14-7.03,0.65-8.87,2.78l0.16-2.72C80.85,107.19,84.1,107.84,86.92,108.01z"/>
			<path class="st4" d="M100.83,61.1c3.32,0.78,6.84,0.84,8.44-0.23c1.83-10.71-5.89-17.15-19.35-16.84
				c-3.05,0.07-47.86,0.41-24.52,17.5c5.7,4.17,16.92-1.95,22.81-4.77c2.16-1.03,3.5-1.97,5.34-1.49
				C95.73,55.41,99.55,59.18,100.83,61.1z"/>
			<g>
				<path class="st16" d="M91.97,95.25c-1.37,3.34-7.37,10.95-12.76,11.45c-4.16,0.39-10.15-5.66-12.12-7.78
					c1.65,0,4.57-0.25,6.02-0.39C74.74,98.37,87.88,97.1,91.97,95.25z"/>
				<g>
					<path class="st2" d="M87.94,99.9c-0.32,0.88-0.82,1.83-1.43,2.58c-0.16,0.2-0.32,0.4-0.48,0.61c-0.4,0.51-0.8,1.03-1.22,1.52
						c-1.78,1.34-3.69,2.31-5.56,2.48c-1.76,0.16-3.79-0.74-5.73-2.01l-0.15-0.28c-0.22-0.18-0.4-0.4-0.56-0.65
						c-0.41-0.62-0.66-1.39-1-2.02C72.8,102.06,87.24,99.97,87.94,99.9z"/>
					<g>
						<path class="st2" d="M90.03,95.5c-0.47,1.74-1.06,3.85-2.14,4.68c-0.25,0.19-1.65,0.54-3.54,0.92
							c-4.24,0.84-10.91,1.75-12.32,1.02c-1.09-0.57-2.12-1.97-2.94-3.35c-0.06-0.11-0.13-0.21-0.19-0.32
							c0.16-0.01,0.34-0.02,0.52-0.03c0.63-0.04,1.33-0.09,2.09-0.15C77.12,97.8,85.65,96.75,90.03,95.5z"/>
						<path class="st8" d="M87.89,100.19c-0.9,0.45-14.45,2.67-15.86,1.93c-1.09-0.57-2.12-1.97-2.94-3.35l0.33-0.35
							c0.63-0.04,1.33-0.09,2.09-0.15c0.28,0.89,0.67,1.81,1.07,2.58c0.22,0.41,0.18,0.41,0.56,0.54
							C73.71,101.58,86.3,100.32,87.89,100.19z"/>
					</g>
				</g>
				<path class="st13" d="M92.27,94.65c-0.25,0.15-0.58,0.3-0.99,0.45c-0.36,0.14-0.78,0.27-1.24,0.4h-0.01
					c-0.13,0.04-0.26,0.07-0.4,0.11c-0.13,0.04-0.27,0.07-0.42,0.11c-0.09,0.02-0.18,0.04-0.27,0.06c-0.08,0.02-0.16,0.04-0.24,0.06
					c-0.01,0.01-0.03,0.01-0.04,0.01c-0.06,0.01-0.14,0.04-0.21,0.05c-0.02,0.01-0.04,0.01-0.07,0.01
					c-0.02,0.01-0.05,0.01-0.07,0.01c-0.03,0.01-0.06,0.01-0.09,0.01c-0.02,0.01-0.04,0.01-0.06,0.01
					c-0.04,0.01-0.07,0.02-0.11,0.03c-0.06,0.01-0.12,0.02-0.17,0.04c-0.05,0.01-0.12,0.03-0.17,0.04
					c-0.04,0.01-0.09,0.02-0.13,0.03c-0.1,0.02-0.21,0.04-0.32,0.06c-0.02,0.01-0.05,0.01-0.07,0.01c-0.09,0.02-0.18,0.04-0.27,0.06
					c-0.03,0-0.06,0.01-0.09,0.01c-0.06,0.01-0.12,0.03-0.19,0.04c-0.06,0.01-0.11,0.02-0.17,0.04c-0.06,0.01-0.13,0.02-0.19,0.03
					c-0.09,0.02-0.19,0.04-0.28,0.06c-0.09,0.01-0.17,0.03-0.25,0.04c-0.01,0.01-0.03,0.01-0.04,0.01
					c-0.03,0.01-0.06,0.01-0.09,0.01c-0.04,0.01-0.06,0.01-0.1,0.02c-0.03,0.01-0.07,0.01-0.09,0.01c-0.03,0.01-0.05,0.01-0.07,0.01
					c-0.02,0.01-0.04,0.01-0.07,0.01c-0.01,0-0.01,0-0.01,0.01c-0.02,0-0.04,0.01-0.07,0.01c-0.02,0-0.05,0.01-0.07,0.01
					c-0.01,0.01-0.02,0.01-0.04,0.01c-0.08,0.01-0.17,0.04-0.25,0.04c-0.09,0.01-0.17,0.03-0.25,0.04
					c-0.05,0.01-0.11,0.02-0.16,0.03c-0.07,0.01-0.13,0.02-0.19,0.03c-0.17,0.03-0.32,0.06-0.5,0.09h-0.02
					c-0.07,0.01-0.13,0.02-0.19,0.03l-0.01,0.01c-0.04,0.01-0.07,0.01-0.11,0.01c-0.12,0.02-0.25,0.04-0.38,0.06
					c-0.07,0.01-0.15,0.02-0.23,0.04c-0.11,0.01-0.21,0.04-0.32,0.05c-0.14,0.02-0.27,0.04-0.41,0.06c-0.19,0.03-0.4,0.06-0.59,0.09
					c-0.09,0.01-0.17,0.02-0.26,0.04c-0.13,0.01-0.26,0.04-0.39,0.06c-0.05,0.01-0.09,0.01-0.14,0.01
					c-0.04,0.01-0.07,0.01-0.11,0.01c-0.12,0.02-0.25,0.04-0.38,0.05c-0.08,0.01-0.16,0.03-0.24,0.04c-0.19,0.03-0.4,0.05-0.6,0.08
					c-0.07,0.01-0.14,0.02-0.22,0.03c-0.04,0-0.09,0.01-0.14,0.01c-0.02,0.01-0.04,0.01-0.07,0.01c-0.2,0.03-0.4,0.05-0.61,0.08
					c0,0,0,0-0.01,0c-0.04,0.01-0.09,0.01-0.14,0.01c-0.19,0.02-0.4,0.05-0.6,0.07c-0.07,0.01-0.14,0.02-0.22,0.03
					c-0.06,0.01-0.12,0.01-0.17,0.02c-0.15,0.01-0.3,0.03-0.43,0.04c-0.12,0.01-0.23,0.03-0.35,0.04c-0.1,0.01-0.2,0.02-0.3,0.04
					c-0.1,0.01-0.2,0.02-0.3,0.03c-0.27,0.03-0.53,0.06-0.79,0.09c-0.04,0-0.09,0.01-0.13,0.01c-0.01,0.01-0.01,0.01-0.02,0.01
					c-0.14,0.01-0.29,0.03-0.43,0.04c-0.02,0-0.04,0-0.06,0.01c-0.02,0-0.04,0-0.07,0.01c-0.11,0.01-0.22,0.02-0.32,0.03
					c-0.11,0.01-0.2,0.02-0.3,0.03c-0.19,0.02-0.38,0.04-0.56,0.06c-0.32,0.03-0.65,0.06-0.96,0.09c-0.23,0.02-0.45,0.04-0.68,0.06
					c-0.09,0.01-0.19,0.01-0.28,0.02c-0.16,0.01-0.32,0.03-0.47,0.04c-0.04,0.01-0.09,0.01-0.12,0.01l-0.28,0.02
					c-0.06,0.01-0.13,0.01-0.19,0.01c-0.09,0.01-0.17,0.01-0.25,0.02c-0.09,0.01-0.17,0.01-0.26,0.01
					c-0.08,0.01-0.15,0.01-0.22,0.01c-0.09,0.01-0.18,0.01-0.27,0.01c-0.01,0-0.01,0-0.01,0c-0.07,0.01-0.16,0.01-0.23,0.02
					c-0.77,0.04-1.41,0.07-1.88,0.07c-0.48,0-0.79-0.03-0.9-0.07c0,0,0.92,1.07,2.34,2.46c0.17,0.17,0.36,0.35,0.55,0.53
					c0.1,0.1,0.21,0.2,0.32,0.3c1.21,1.13,2.66,2.35,4.18,3.35c0.07,0.04,0.13,0.08,0.19,0.12c0.13,0.08,0.25,0.16,0.38,0.24
					c0.05,0.03,0.1,0.06,0.15,0.09c0.13,0.08,0.25,0.14,0.37,0.22c0.02,0.01,0.04,0.01,0.05,0.02c0.09,0.06,0.19,0.11,0.29,0.16
					c0.09,0.06,0.19,0.11,0.29,0.15c0.15,0.08,0.3,0.15,0.46,0.22c0.11,0.05,0.22,0.1,0.34,0.15c0.29,0.12,0.58,0.23,0.86,0.32
					c0.2,0.06,0.41,0.12,0.61,0.17c0.17,0.04,0.33,0.07,0.49,0.09c0.13,0.02,0.25,0.04,0.38,0.04c0.14,0.01,0.27,0.02,0.41,0.02
					c0.15,0,0.3-0.01,0.45-0.02c0.17-0.01,0.33-0.04,0.51-0.06c0.05-0.01,0.11-0.01,0.17-0.03c0.1-0.02,0.2-0.04,0.31-0.06
					c0.1-0.02,0.21-0.05,0.32-0.08c0.09-0.03,0.19-0.06,0.29-0.09c0.01,0,0.01,0,0.01,0c0.05-0.02,0.11-0.04,0.16-0.06
					c0.05-0.01,0.1-0.04,0.15-0.05c0.01,0,0.02-0.01,0.03-0.01c0.09-0.04,0.19-0.07,0.28-0.11c0.08-0.03,0.16-0.06,0.25-0.09
					c0.12-0.05,0.23-0.11,0.35-0.16c0.03-0.01,0.06-0.03,0.09-0.04c0.08-0.04,0.16-0.08,0.24-0.12c0.12-0.07,0.25-0.13,0.38-0.2
					c0.24-0.12,0.46-0.26,0.69-0.4c0.01,0,0.01-0.01,0.01-0.01c0.1-0.06,0.21-0.13,0.32-0.2c0-0.01,0.01-0.01,0.02-0.01
					c0.11-0.08,0.22-0.15,0.32-0.22c0,0,0.01,0,0.01-0.01c0.1-0.06,0.18-0.12,0.27-0.19c0.13-0.09,0.27-0.2,0.4-0.3
					c0.28-0.21,0.56-0.43,0.84-0.67c1.59-1.32,3.03-2.91,4.19-4.43c0.32-0.43,0.63-0.86,0.91-1.27c0.17-0.25,0.33-0.49,0.48-0.73
					c0.12-0.21,0.25-0.42,0.36-0.62c0.26-0.43,0.47-0.85,0.64-1.23c0.04-0.07,0.06-0.14,0.09-0.22c0.1-0.24,0.17-0.46,0.23-0.66
					c0.04-0.15,0.07-0.28,0.09-0.4C92.54,94.47,92.42,94.55,92.27,94.65z M91.92,95.38c0,0.01,0,0.01-0.01,0.01l-0.06,0.16
					c-0.01,0.03-0.04,0.07-0.05,0.11l-0.02,0.03l-0.01,0.01c-0.01,0.01-0.01,0.03-0.01,0.04c-0.03,0.06-0.06,0.11-0.09,0.17
					c-0.01,0.01-0.01,0.02-0.01,0.03l-0.01,0.01c-0.06,0.13-0.14,0.27-0.22,0.41c-0.04,0.08-0.09,0.17-0.14,0.25
					c-0.04,0.08-0.09,0.15-0.13,0.23c-0.06,0.09-0.12,0.19-0.18,0.3c-0.08,0.13-0.17,0.27-0.26,0.41c-0.01,0.01-0.01,0.01-0.01,0.02
					c-0.11,0.17-0.23,0.35-0.35,0.53c-0.01,0.01-0.02,0.03-0.04,0.04c-0.04,0.05-0.07,0.1-0.11,0.16c-0.01,0.02-0.03,0.04-0.04,0.06
					c-0.07,0.08-0.12,0.17-0.19,0.25c-0.02,0.04-0.04,0.07-0.06,0.09c-0.07,0.1-0.14,0.2-0.22,0.3c-0.07,0.09-0.14,0.18-0.21,0.27
					c-0.04,0.06-0.09,0.12-0.13,0.17c-0.02,0.03-0.04,0.07-0.06,0.09c-0.03,0.03-0.06,0.07-0.08,0.1c-0.06,0.08-0.13,0.16-0.19,0.24
					c-0.09,0.12-0.19,0.24-0.29,0.35c-0.02,0.02-0.04,0.05-0.06,0.07c-0.02,0.01-0.03,0.03-0.04,0.05
					c-0.01,0.01-0.03,0.03-0.04,0.05c-0.1,0.12-0.21,0.24-0.32,0.36c-0.01,0.01-0.01,0.02-0.02,0.03c-0.13,0.15-0.26,0.3-0.4,0.45
					c0,0.01-0.01,0.01-0.01,0.01c-0.02,0.02-0.04,0.04-0.05,0.06c-0.07,0.07-0.14,0.14-0.21,0.22c-0.07,0.08-0.14,0.15-0.21,0.22
					c-0.07,0.07-0.14,0.14-0.21,0.22c-0.01,0.01-0.03,0.04-0.05,0.05c-0.02,0.02-0.04,0.04-0.07,0.07c-0.04,0.03-0.07,0.07-0.1,0.09
					c-0.08,0.09-0.17,0.17-0.25,0.25c-0.01,0.01-0.01,0.01-0.03,0.02c-0.05,0.06-0.1,0.11-0.16,0.16c-0.08,0.07-0.16,0.15-0.24,0.22
					c-0.02,0.02-0.04,0.04-0.06,0.05c-0.02,0.03-0.05,0.05-0.07,0.07c0,0-0.01,0-0.01,0.01L86.11,103
					c-0.04,0.04-0.09,0.08-0.13,0.12c-0.04,0.03-0.07,0.06-0.11,0.09c-0.01,0.01-0.04,0.04-0.06,0.05
					c-0.01,0.01-0.03,0.03-0.05,0.04c-0.06,0.05-0.12,0.1-0.18,0.16c-0.01,0.01-0.02,0.01-0.03,0.02c-0.14,0.13-0.3,0.25-0.44,0.38
					c-0.08,0.06-0.15,0.12-0.23,0.18c-0.04,0.04-0.08,0.06-0.12,0.09c-0.08,0.06-0.17,0.13-0.25,0.2c-0.25,0.19-0.51,0.37-0.76,0.54
					c-0.13,0.09-0.26,0.17-0.39,0.25c0,0-0.01,0.01-0.01,0.01c-0.12,0.07-0.22,0.14-0.34,0.21c-0.12,0.07-0.24,0.14-0.36,0.21
					c-0.12,0.07-0.24,0.13-0.36,0.19c-0.11,0.06-0.22,0.11-0.33,0.16c-0.01,0.01-0.04,0.02-0.05,0.03c-0.12,0.05-0.23,0.1-0.35,0.15
					c-0.12,0.05-0.23,0.1-0.35,0.14c-0.1,0.04-0.2,0.07-0.3,0.11c-0.02,0.01-0.04,0.01-0.07,0.02c-0.03,0.01-0.06,0.02-0.09,0.03
					c-0.19,0.06-0.38,0.12-0.57,0.16c-0.05,0.01-0.09,0.03-0.14,0.04c-0.04,0.01-0.09,0.02-0.14,0.03c-0.01,0-0.04,0.01-0.06,0.01
					c-0.01,0-0.01,0.01-0.02,0.01h-0.01c-0.04,0.01-0.07,0.01-0.11,0.02c-0.03,0.01-0.06,0.01-0.09,0.01
					c-0.06,0.01-0.12,0.01-0.18,0.02c-0.07,0.01-0.13,0.01-0.19,0.02c-0.07,0.01-0.13,0.01-0.19,0.01c-0.09,0.01-0.19,0.01-0.28,0
					c-0.07,0-0.14,0-0.2-0.01c-0.04-0.01-0.08-0.01-0.12-0.01c-0.03,0-0.06-0.01-0.09-0.01h-0.03c-0.07-0.01-0.15-0.01-0.22-0.03
					c-0.02,0-0.04-0.01-0.06-0.01c-0.12-0.01-0.23-0.04-0.35-0.06c-0.1-0.02-0.19-0.04-0.3-0.07c-0.06-0.02-0.12-0.04-0.17-0.06
					c-0.04-0.01-0.07-0.01-0.11-0.03c-0.01,0.01-0.01,0-0.01,0c-0.1-0.03-0.19-0.06-0.3-0.1c-0.02-0.01-0.05-0.01-0.07-0.02
					c-0.07-0.03-0.14-0.05-0.21-0.08c-0.12-0.04-0.24-0.09-0.36-0.14c-0.07-0.03-0.14-0.06-0.21-0.09c-0.09-0.04-0.19-0.09-0.3-0.14
					c-0.04-0.01-0.08-0.04-0.12-0.06c-0.12-0.06-0.25-0.13-0.38-0.2c-0.09-0.04-0.17-0.09-0.27-0.14c-0.07-0.04-0.14-0.08-0.22-0.13
					c-0.04-0.02-0.09-0.05-0.14-0.08c-0.01-0.01-0.03-0.02-0.04-0.03c-0.01,0-0.01-0.01-0.02-0.01c-0.05-0.04-0.11-0.07-0.16-0.09
					c-0.04-0.03-0.08-0.05-0.12-0.08c-0.12-0.08-0.25-0.15-0.37-0.24c-0.01,0-0.02-0.01-0.03-0.01c-0.12-0.08-0.24-0.16-0.36-0.25
					c-0.01-0.01-0.04-0.02-0.05-0.04c-0.02-0.01-0.04-0.02-0.07-0.04c-0.18-0.12-0.36-0.25-0.53-0.38c-0.01,0-0.01,0-0.01,0
					c0-0.01,0-0.01,0-0.01h-0.01c-0.06-0.05-0.14-0.1-0.2-0.15c-0.02-0.01-0.04-0.03-0.07-0.05c-0.06-0.04-0.11-0.08-0.17-0.12
					c-0.06-0.05-0.12-0.09-0.19-0.15h-0.01c-0.07-0.05-0.14-0.11-0.21-0.17c-0.01,0-0.01-0.01-0.01-0.01
					c-0.07-0.06-0.14-0.11-0.22-0.17c-0.11-0.09-0.22-0.18-0.33-0.27c-0.1-0.07-0.19-0.16-0.29-0.24c-0.06-0.05-0.12-0.09-0.17-0.14
					c-0.1-0.08-0.19-0.16-0.29-0.25c-0.09-0.08-0.19-0.17-0.28-0.25c-0.18-0.17-0.37-0.32-0.54-0.49c-0.09-0.08-0.17-0.16-0.25-0.24
					c-0.04-0.04-0.09-0.07-0.12-0.12c-0.01-0.01-0.03-0.03-0.04-0.04c-0.03-0.03-0.06-0.05-0.09-0.07
					c-0.04-0.04-0.08-0.08-0.12-0.12c-0.06-0.07-0.14-0.13-0.2-0.19c-0.13-0.12-0.25-0.25-0.38-0.37c-0.18-0.18-0.35-0.35-0.52-0.53
					c-0.11-0.11-0.22-0.22-0.31-0.32c-0.09-0.08-0.17-0.17-0.24-0.25c-0.07-0.06-0.12-0.13-0.17-0.19
					c-0.01-0.01-0.01-0.01-0.01-0.01c-0.01-0.01-0.02-0.02-0.03-0.03c-0.04-0.04-0.07-0.07-0.11-0.11
					c-0.01-0.01-0.01-0.01-0.02-0.03c-0.02-0.02-0.05-0.05-0.07-0.07v-0.01c0.05,0.01,0.1,0.01,0.14,0c0.11,0,0.23,0,0.36,0
					c0.06,0,0.11,0,0.17,0c0.06,0,0.12-0.01,0.19-0.01c0.14-0.01,0.3-0.01,0.45-0.02c0.05,0,0.1,0,0.16-0.01c0.05,0,0.1,0,0.16-0.01
					c0.07,0,0.14-0.01,0.2-0.01c0.07-0.01,0.14-0.01,0.21-0.01c0.07,0,0.14-0.01,0.2-0.01c0.03,0,0.06,0,0.08-0.01h0.04l0.3-0.02
					c0.22-0.01,0.44-0.03,0.66-0.04c0.13-0.01,0.26-0.02,0.39-0.03c0.14-0.01,0.27-0.02,0.4-0.03c0-0.01,0-0.01,0-0.01
					c0.04,0,0.09-0.01,0.14-0.01c0.09-0.01,0.17-0.01,0.25-0.02h0.04c0.05-0.01,0.1-0.01,0.15-0.01c0.02,0,0.04-0.01,0.06-0.01
					c0.11-0.01,0.21-0.01,0.31-0.03c0.18-0.01,0.35-0.03,0.51-0.04c0.15-0.01,0.3-0.02,0.43-0.04h0.02
					c0.03-0.01,0.07-0.01,0.11-0.01c0.02,0,0.04,0,0.07-0.01h0.07c0.01-0.01,0.02-0.01,0.04-0.01h0.01c0.01,0,0.04-0.01,0.06-0.01
					c0.08-0.01,0.16-0.01,0.25-0.02c0.19-0.02,0.43-0.05,0.69-0.07c0.06-0.01,0.12-0.01,0.17-0.02h0.04
					c0.09-0.01,0.18-0.02,0.27-0.03c0.14-0.01,0.29-0.03,0.44-0.05c0.09-0.01,0.17-0.01,0.27-0.03c0.12-0.01,0.25-0.03,0.38-0.04
					c0.02,0,0.05,0,0.07-0.01c0.01,0.01,0.01,0.01,0.01,0c0,0,0,0,0.01,0c0.01,0,0.04,0,0.05-0.01h0.06
					c0.09-0.01,0.17-0.02,0.26-0.03c0.07-0.01,0.14-0.02,0.22-0.03c0.06-0.01,0.12-0.01,0.17-0.02c0.13-0.01,0.26-0.03,0.4-0.04
					h0.01c0.14-0.01,0.29-0.04,0.44-0.05c0.19-0.02,0.38-0.05,0.58-0.07c0.04-0.01,0.09-0.01,0.13-0.01c0,0,0,0,0.01,0
					c0.04-0.01,0.07-0.01,0.1-0.01c0.01,0,0.03-0.01,0.04-0.01c0.08-0.01,0.17-0.02,0.25-0.03c0.17-0.02,0.35-0.04,0.53-0.06
					c0.03-0.01,0.05-0.01,0.07-0.01c0.02,0,0.04-0.01,0.05-0.01c0.11-0.01,0.21-0.02,0.32-0.04c0.12-0.01,0.23-0.03,0.35-0.05
					c0.13-0.01,0.25-0.03,0.38-0.05c0.12-0.01,0.24-0.03,0.35-0.04c0.17-0.02,0.35-0.05,0.53-0.07c0.06-0.01,0.12-0.02,0.19-0.03
					c0.01,0,0.02-0.01,0.04-0.01c0.2-0.03,0.41-0.06,0.61-0.09c0.17-0.02,0.35-0.05,0.52-0.08c0.09-0.01,0.19-0.02,0.29-0.04
					c0.03-0.01,0.07-0.01,0.09-0.01c0.08-0.01,0.15-0.02,0.23-0.03c0.17-0.03,0.35-0.06,0.53-0.09c0.04-0.01,0.09-0.01,0.14-0.02
					c0.04-0.01,0.07-0.01,0.12-0.02c0.04-0.01,0.08-0.01,0.12-0.02c0.12-0.01,0.25-0.04,0.38-0.06c0.12-0.02,0.25-0.04,0.37-0.06
					c0,0,0,0,0.01,0c0.1-0.01,0.21-0.04,0.32-0.06c0.01,0,0.04,0,0.05-0.01h0.01c0.3-0.05,0.6-0.11,0.9-0.17
					c0.01,0,0.04-0.01,0.05-0.01c0.03,0,0.06-0.01,0.08-0.01c0.1-0.01,0.19-0.04,0.3-0.06c0.04-0.01,0.08-0.01,0.12-0.02
					c0.02-0.01,0.05-0.01,0.08-0.01c0.02-0.01,0.04-0.01,0.07-0.01c0.06-0.01,0.13-0.03,0.19-0.04c0.11-0.01,0.21-0.04,0.31-0.06
					c0.01,0,0.03-0.01,0.04-0.01c0.3-0.07,0.58-0.13,0.86-0.2c0.11-0.02,0.21-0.04,0.31-0.07c0.12-0.03,0.25-0.06,0.37-0.09
					c0.06-0.01,0.11-0.03,0.15-0.04c0.22-0.06,0.43-0.11,0.64-0.17l0.05-0.01c0.12-0.04,0.25-0.07,0.36-0.1
					c0.12-0.04,0.23-0.07,0.34-0.1c0.01-0.01,0.04-0.01,0.06-0.02c0.04-0.01,0.09-0.03,0.13-0.04c0.12-0.04,0.25-0.08,0.36-0.12
					c0.12-0.04,0.23-0.08,0.33-0.12c0.04-0.01,0.09-0.04,0.13-0.05c0.09-0.03,0.17-0.06,0.25-0.1h0.01
					c0.01-0.01,0.01-0.01,0.02-0.01c0.01,0,0.03-0.01,0.04-0.01c0.01-0.01,0.03-0.01,0.04-0.01c0,0.01-0.01,0.03-0.01,0.04
					c0,0.01-0.01,0.01-0.01,0.02C91.94,95.33,91.93,95.35,91.92,95.38z"/>
			</g>
			<path class="st4" d="M109.16,81.71l-1.71-3.67c-1.49,0.12-3.01,0.72-4.59,0.83c-2.05,17.98-13.47,30.87-20.76,32.54
				c-0.48-1.29-1.72-2.16-1.78-3.57c-1.91,0.1-1.12,2.55-2.3,3.17c-1.07,0.56-11.86-7.14-13.83-11.94c-0.43,2.13,5,17.11,6.25,19.24
				c2.05,3.48,5.22,6.21,7.8,9.3c0.14-0.52,0.56-0.91,0.66-1.43c0.93,0.63,2.1,3.03,2.72,4.14c3.19-1.62,5.97-4.2,7.72-7.29
				c0.25,0.69,0.67,1.31,0.95,1.99C100.14,112.89,110.04,97.96,109.16,81.71z"/>
			<path class="st4" d="M76.44,94.81l-5.24-0.19c-3.41,1.93-7.73,4.96-11.15,7.38c2.63,0.1,14.52-2.14,17.25-2.95
				C77.32,97.72,77,95.99,76.44,94.81z"/>
			<path class="st4" d="M78.09,94.55l4.95-1.73c3.83,0.83,8.85,2.46,12.84,3.76c-2.49,0.87-14.51,2.24-17.36,2.27
				C78.11,97.58,77.9,95.84,78.09,94.55z"/>
			<g>
				<g>
					<g>
						<path class="st6" d="M80.31,93.77c-1.61-1.02-5.72-0.24-6.87-1.1c-0.91-0.68,2.61-14.98-2.35-20.2
							c3.12,6.58,0.2,18.07-1.62,22.2C73.07,95.71,77.4,95.04,80.31,93.77z"/>
					</g>
				</g>
			</g>
			<g>
				<g>
					<g>
						<path class="st6" d="M80.48,73.58c-1.05,1.8,0.89,6.46,1.39,8.05l2.28,0.57c-0.41-1.14-2.17-4.7-0.1-8.49
							c1.05-1.91,3.69-3.16,4.13-3.51C87.45,70.54,81.23,72.3,80.48,73.58z"/>
					</g>
					<path class="st2" d="M94.87,79.86c-0.01,0.01-0.02,0.03-0.02,0.05c-0.31,0.64-0.96,1.17-1.83,1.57
						c-1.43,0.67-3.43,1.02-5.39,1.09c-2.33,0.08-4.6-0.25-5.76-0.95c0.07-0.06,0.13-0.11,0.19-0.17c0.02-0.01,0.03-0.03,0.05-0.04
						c0.15-0.14,0.29-0.29,0.41-0.43c0.01-0.01,0.01-0.01,0.02-0.02c1.79-2.13,1.05-4.8,4.08-5.07c0.37-0.03,0.72-0.04,1.08-0.03
						c2.03,0.03,3.86,0.66,5.24,1.7c0.84,0.63,1.5,1.41,1.93,2.3C94.86,79.86,94.87,79.86,94.87,79.86z"/>
					<g>
						<g>
							<path class="st27" d="M84.37,78.9c-0.36,2.1,0.79,4.11,2.56,4.47c1.77,0.37,3.5-1.04,3.86-3.14c0.36-2.1-0.79-4.11-2.56-4.47
								C86.45,75.39,84.73,76.8,84.37,78.9z"/>
							<path class="st4" d="M84.79,78.7c-0.23,1.35,0.51,2.63,1.64,2.87c1.14,0.24,2.25-0.67,2.48-2.02
								c0.23-1.35-0.51-2.63-1.65-2.87C86.13,76.44,85.02,77.35,84.79,78.7z"/>
						</g>
						<path class="st2" d="M88.25,78.75l4.05,0.1c0,0,0.24,1.81-0.34,1.98C91,81.1,88.25,78.75,88.25,78.75z"/>
					</g>
					<path class="st27" d="M94.87,79.86c-0.43-0.89-1.14-1.32-1.97-1.95c-1.38-1.04-3.22-1.67-5.24-1.7
						c-0.36-0.01-0.35-0.02-0.71,0.01c-2.8,0.25-2.94,3.24-4.55,4.9c1.23-1.62,0.93-4.42,1.4-6.15c0.32-0.7,0.83-1.17,1.73-1.25
						c0.37-0.03,0.72-0.04,1.07-0.04c2.03,0.03,3.86,0.66,5.24,1.7c0.84,0.63,1.31,1.05,1.74,1.94
						C93.58,77.33,94.83,79.77,94.87,79.86z"/>
					<path class="st6" d="M94.86,79.85c-0.17-0.36-0.38-0.69-0.63-1.01c-0.36-0.48-0.8-0.91-1.3-1.29c-1.38-1.04-3.21-1.67-5.24-1.7
						c-0.36-0.01-0.71,0-1.08,0.03c-3.02,0.27-2.52,3.18-4.29,5.31c1.23-1.62,1-4.5,1.47-6.24c0.24-0.89,0.72-1.52,1.77-1.61
						c0.37-0.03,0.72-0.04,1.07-0.03c2.03,0.03,3.86,0.66,5.24,1.7c0.84,0.64,1.31,1.05,1.74,1.94
						C93.62,76.98,94.79,79.66,94.86,79.85z"/>
					<path class="st6" d="M94.87,79.86c0,0-0.44,1.54-1.93,2.31c-1.4,0.73-3.43,1.02-5.39,1.09c-2.33,0.08-4.52-0.94-5.68-1.64
						c1.16,0.7,3.43,1.03,5.76,0.95c1.96-0.07,3.96-0.43,5.39-1.09c0.87-0.41,1.52-0.93,1.83-1.58
						C94.85,79.89,94.86,79.87,94.87,79.86z"/>
					<path class="st6" d="M82.16,82.73l1.48,1.6c2.97,1.35,5.75,0.11,7.72-0.28C88.53,84.61,84.36,84.03,82.16,82.73z"/>
				</g>
				<g>
					<path class="st6" d="M72.09,82.04c0,0-0.92,2.14-1.52,2.55c-0.6,0.42-1.25,0.37-1.91,0.57c0.98,0.01,1.91,0.04,2.84-0.38
						c0.25-0.12,1.09-0.42,1.22-0.71C72.85,83.73,72.17,82.35,72.09,82.04z"/>
					<g>
						<g>
							<path class="st2" d="M64.27,81.55c0.01,0.01,0.01,0.03,0.02,0.05c0.24,0.61,0.69,1.08,1.25,1.43
								c0.93,0.56,2.18,0.78,3.37,0.73c1.42-0.07,2.77-0.54,3.41-1.3c-0.05-0.05-0.09-0.1-0.13-0.15c-0.01-0.01-0.02-0.02-0.03-0.04
								c-0.11-0.13-0.2-0.26-0.29-0.4c0-0.01-0.01-0.01-0.01-0.02c-1.28-1.98-1.07-4.64-2.93-4.71c-0.22-0.01-0.44,0-0.66,0.04
								c-1.23,0.16-2.29,0.89-3.03,2c-0.45,0.67-0.78,1.48-0.97,2.37C64.27,81.54,64.27,81.55,64.27,81.55z"/>
							<g>
								<g>
									<path class="st27" d="M65.97,80.61c-0.04,2.12,0.82,3.9,1.91,3.97c1.09,0.07,2.01-1.59,2.05-3.71
										c0.04-2.12-0.82-3.9-1.91-3.97C66.92,76.83,66.01,78.49,65.97,80.61z"/>
									<path class="st4" d="M67.26,80.88c-0.03,1.36,0.53,2.5,1.23,2.55c0.7,0.04,1.29-1.02,1.31-2.38
										c0.02-1.36-0.53-2.5-1.23-2.54C67.87,78.45,67.28,79.52,67.26,80.88z"/>
								</g>
								<path class="st2" d="M68.95,79.88l0.93-0.03c0,0,0.79,1.83,0.46,2.08C69.79,82.35,68.95,79.88,68.95,79.88z"/>
							</g>
							<path class="st27" d="M64.27,81.55c0.18-0.9,0.57-1.36,1.03-2.03c0.75-1.1,1.8-1.84,3.03-2c0.22-0.03,0.21-0.05,0.43-0.04
								c1.72,0.06,2.08,2.99,3.2,4.51c-0.89-1.51-0.96-4.27-1.4-5.94c-0.25-0.66-0.61-1.1-1.17-1.12c-0.23-0.01-0.44,0-0.66,0.03
								c-1.23,0.16-2.29,0.89-3.03,2c-0.46,0.68-0.7,1.11-0.89,2.01C64.83,78.99,64.28,81.46,64.27,81.55z"/>
							<path class="st6" d="M64.27,81.54c0.07-0.36,0.17-0.7,0.29-1.03c0.18-0.49,0.41-0.94,0.68-1.34c0.75-1.1,1.81-1.84,3.03-2
								c0.22-0.03,0.43-0.04,0.66-0.04c1.86,0.07,2.18,4.21,3.4,5.32c-0.51-1.87-1.33-4.73-1.76-6.4c-0.22-0.85-0.57-1.44-1.22-1.47
								c-0.22-0.01-0.44,0-0.66,0.03c-1.23,0.16-2.29,0.89-3.03,2c-0.46,0.68-0.7,1.11-0.89,2.01
								C64.77,78.65,64.3,81.35,64.27,81.54z"/>
							<path class="st6" d="M64.27,81.54c0,0,0.64,1.86,1.62,2.53c0.92,0.63,1.9,0.71,3.1,0.66c1.42-0.07,2.71-1.53,3.35-2.28
								c-0.64,0.76-1.99,1.23-3.41,1.3c-1.2,0.05-2.45-0.16-3.38-0.73c-0.57-0.34-1.01-0.82-1.25-1.43
								C64.28,81.58,64.27,81.56,64.27,81.54z"/>
						</g>
					</g>
				</g>
				<path class="st4" d="M80.29,69.2c0.53-0.14,1.53-0.33,1.53-0.33l1.68,1.62c0,0-0.26-1.71,0.03-1.74
					c7.75-0.81,10.95,2.46,10.95,2.46c-10.54-1.05-12.06,3.25-14.72,2.92C77.73,73.86,78.26,70.22,80.29,69.2z"/>
				<path class="st4" d="M70.75,70.73c-0.53-0.11-1.55-0.25-1.55-0.25l-1.59,1.7c0,0,0.17-1.72-0.12-1.73
					c-4.63-0.22-5.84,3.94-5.84,3.94c10.47-1.6,7.25,1.7,9.89,1.23C73.56,75.26,72.83,71.65,70.75,70.73z"/>
			</g>
			<g>
				<path class="st1" d="M106.2,74.74c1.91-2.09,6.99-1.51,8.51,0.85c1.7,2.62-4.53,13.33-7.1,12.81
					C101.64,87.18,106.2,74.74,106.2,74.74z"/>
				<path class="st6" d="M105.55,80.94c0.09-0.88,0.19-1.87,0.41-2.73c0.12-0.46,0.33-0.94,0.49-1.38c0.09-0.24,0.22-0.53,0.34-0.68
					c1.1-1.42,2.95-1.09,4.26-0.96c0.54,0.05,1.49,0.16,1.9,0.52c0.33,0.29,0.4,0.9,0.54,1.29c-0.83-1.27-3.25-1.18-4.53-0.67
					c-1.33,0.53-2.17,2.62-2,4.01c1.12,0.1,1.86,1.53,1.53,2.54c-0.33,1-2.48,1.18-2.6,0.11C107.72,83,106.55,81.3,105.55,80.94z"/>
			</g>
		</g>
		<g>
			<path class="st92" d="M140.48,141.32c-1.16,1.15-2.35,2.26-3.57,3.32c-0.35,0.3-0.71,0.61-1.06,0.9
				c-0.27,0.22-0.54,0.45-0.82,0.67c-0.27,0.22-0.53,0.43-0.8,0.64c-1.39,1.11-2.82,2.17-4.27,3.16c-0.23,0.16-0.47,0.32-0.71,0.47
				c-0.69,0.47-1.39,0.92-2.1,1.36c-0.28,0.18-0.56,0.35-0.84,0.53c-0.68,0.41-1.36,0.82-2.05,1.21c-0.17,0.1-0.35,0.19-0.52,0.3
				c-0.24,0.13-0.48,0.26-0.71,0.39c-0.3,0.17-0.61,0.33-0.94,0.49c-0.03,0.01-0.06,0.04-0.1,0.05c-1.49,0.78-3,1.52-4.55,2.2
				c-0.17,0.08-0.35,0.16-0.53,0.24c-0.06,0.03-0.14,0.06-0.2,0.09c-0.26,0.12-0.52,0.22-0.78,0.33c-0.61,0.25-1.21,0.5-1.83,0.74
				c-0.22,0.08-0.44,0.17-0.66,0.25c-0.04,0.01-0.07,0.03-0.11,0.04c-0.04,0.02-0.09,0.04-0.13,0.05c-0.2,0.09-0.42,0.16-0.63,0.24
				c-0.14,0.05-0.27,0.1-0.42,0.15c-0.09,0.04-0.19,0.07-0.29,0.11c-0.08,0.03-0.17,0.06-0.25,0.09c-0.45,0.16-0.9,0.31-1.35,0.46
				c-0.63,0.2-1.26,0.4-1.88,0.59c-0.01,0-0.01,0.01-0.02,0.01c-0.08,0.03-0.15,0.04-0.23,0.07c-0.19,0.06-0.38,0.11-0.56,0.17
				c-0.51,0.14-1.02,0.29-1.54,0.43c-0.15,0.04-0.3,0.08-0.45,0.12c-0.33,0.09-0.67,0.17-1,0.26c-0.1,0.02-0.2,0.05-0.3,0.07
				c-0.08,0.02-0.15,0.04-0.23,0.06c-0.07,0.01-0.14,0.04-0.21,0.05c-0.39,0.09-0.78,0.18-1.16,0.27c-0.02,0.01-0.04,0.01-0.06,0.01
				c1.03-2.07,2.09-4.07,3.18-6.01c7.47-13.34,16.04-23.27,24.52-23.74c0.48-0.03,0.95-0.03,1.4-0.01
				C136.95,132.44,139.57,136.15,140.48,141.32z"/>
			<g>
				<g>
					<g>
						<path class="st94" d="M105.77,155.9c-0.7,1.88-1.34,3.79-1.96,5.72c-0.39,0.09-0.78,0.18-1.16,0.27
							c-0.02,0.01-0.04,0.01-0.06,0.01C103.63,159.84,104.69,157.83,105.77,155.9z"/>
					</g>
				</g>
			</g>
		</g>
	</g>
</g>
</svg>
