<?xml version="1.0" encoding="utf-8"?>
<!-- Generator: Adobe Illustrator 27.2.0, SVG Export Plug-In . SVG Version: 6.00 Build 0)  -->
<svg version="1.1" id="Layer_1" xmlns="http://www.w3.org/2000/svg" xmlns:xlink="http://www.w3.org/1999/xlink" x="0px" y="0px"
	 viewBox="0 0 171.51 171.51" style="enable-background:new 0 0 171.51 171.51;" xml:space="preserve">
<style type="text/css">
	.st0{fill:#F7F2DA;}
	.st1{fill:#FBA479;}
	.st2{fill:#FFFFFF;}
	.st3{fill:#E1DFEA;}
	.st4{fill:#261411;}
	.st5{fill:#60312B;}
	.st6{fill:#EF7950;}
	.st7{fill:#60281F;}
	.st8{fill:#E8E6E6;}
	.st9{fill:#3A2827;}
	.st10{fill:#CCCCCC;}
	.st11{fill:#595857;}
	.st12{fill:#F28C5F;}
	.st13{fill:#E26939;}
	.st14{fill:#56413D;}
	.st15{fill:#44322E;}
	.st16{fill:#873421;}
	.st17{fill:#EA6CA0;}
	.st18{fill:#DB5290;}
	.st19{fill:#F48656;}
	.st20{fill:#82112F;}
	.st21{fill:#D85039;}
	.st22{fill:#574984;}
	.st23{fill:#291C51;}
	.st24{fill:#FC5135;}
	.st25{fill:#FFCC7B;}
	.st26{fill:#E8A749;}
	.st27{fill:#6D4A44;}
	.st28{fill:#D1E3E8;}
	.st29{fill:#FCFBFA;}
	.st30{fill:#4C4C4B;}
	.st31{fill:#686868;}
	.st32{fill:#FFB884;}
	.st33{fill:#EF9C62;}
	.st34{fill:#874410;}
	.st35{fill:#6D340D;}
	.st36{fill:#E89258;}
	.st37{fill:#3A2E26;}
	.st38{fill:#4C3F35;}
	.st39{opacity:0.1;}
	.st40{fill:#60120F;}
	.st41{fill:#F4F0ED;}
	.st42{fill:#E0312D;}
	.st43{fill:#F42F2F;}
	.st44{fill:#D31111;}
	.st45{fill:#DB9B19;}
	.st46{fill:#AF740B;}
	.st47{fill:#CC2121;}
	.st48{fill:#F74B4B;}
	.st49{fill:#FCF9E8;}
	.st50{opacity:0.5;fill:#827571;}
	.st51{fill:#665D5C;}
	.st52{fill:#4F4746;}
	.st53{fill:#5E3B2F;}
	.st54{fill:#492E27;}
	.st55{opacity:0.4;}
	.st56{fill:#443A36;}
	.st57{fill:#51415E;}
	.st58{fill:#066FB7;}
	.st59{fill:#066396;}
	.st60{fill:#0D8FD6;}
	.st61{fill:#FEAC74;}
	.st62{fill:#E3784C;}
	.st63{fill:#580801;}
	.st64{fill:#440502;}
	.st65{fill:#00ABB2;}
	.st66{fill:#008C8C;}
	.st67{fill:#914E34;}
	.st68{fill:#5B2E1D;}
	.st69{fill:#6A3221;}
	.st70{fill:#FAFAFC;}
	.st71{fill:#2B3B3F;}
	.st72{fill:#3F565B;}
	.st73{fill:#EF7348;}
	.st74{fill:#6F3D26;}
	.st75{fill:#BBBEBF;}
	.st76{fill:#D3D3D3;}
	.st77{fill:#939A9E;}
	.st78{fill:#F79C5E;}
	.st79{fill:#E07832;}
	.st80{fill:#604135;}
	.st81{fill:#EFEAE8;}
	.st82{fill:#4F3229;}
	.st83{fill:#1A3D3A;}
	.st84{fill:#E8E8E8;}
	.st85{fill:#0C83C4;}
	.st86{fill:#1B96EA;}
	.st87{fill:#B50F0F;}
	.st88{opacity:0.4;fill:#E89258;}
	.st89{fill:#26ACF7;}
	.st90{fill:#F45347;}
	.st91{fill:#FF3939;}
	.st92{fill:#686766;}
	.st93{fill:#5E5D5B;}
	.st94{fill:#424140;}
	.st95{fill:#E7E1CB;}
	.st96{fill:#D6CFBA;}
	.st97{fill:#CE5C37;}
	.st98{fill:#B74D30;}
	.st99{fill:#1B313D;}
	.st100{fill:#36474F;}
	.st101{fill:#29526D;}
	.st102{fill:#FCBD88;}
	.st103{fill:#FCA265;}
	.st104{fill:#496B7A;}
	.st105{fill:#B76049;}
	.st106{fill:#EDEDED;}
	.st107{fill:#7C7979;}
	.st108{fill:#EFE6E8;}
	.st109{fill:#B20D28;}
	.st110{fill:#346682;}
	.st111{fill:#AA0E28;}
	.st112{fill:#FF5050;}
	.st113{fill:#781A0E;}
	.st114{fill:#560904;}
	.st115{fill:#FF0B40;}
	.st116{fill:#BC0000;}
	.st117{fill:#FFD731;}
	.st118{fill:#EA6453;}
	.st119{fill:#602618;}
	.st120{fill:#A14F2A;}
	.st121{fill:#3A4E66;}
	.st122{fill:#EAE9EE;}
	.st123{opacity:0.3;fill:#3A4E66;}
	.st124{fill:#5E2701;}
	.st125{fill:#773000;}
	.st126{fill:#EA2F4A;}
	.st127{fill:#C41234;}
	.st128{fill:#F7F0F1;}
	.st129{fill:#F7A76F;}
	.st130{fill:#B24800;}
	.st131{fill:#8C3B03;}
	.st132{fill:#567391;}
	.st133{fill:#FF7271;}
	.st134{fill:#F75E5E;}
	.st135{fill:#700F28;}
	.st136{fill:#9E1533;}
	.st137{fill:#871231;}
	.st138{fill:#211B3A;}
	.st139{fill:#2E2951;}
	.st140{fill:#F28670;}
	.st141{fill:#F46060;}
	.st142{fill:#EBBF44;}
	.st143{fill:#E0A91E;}
	.st144{fill:#FFA992;}
	.st145{fill:#2C363F;}
	.st146{fill:#1D262D;}
	.st147{fill-rule:evenodd;clip-rule:evenodd;fill:#FFF5F5;}
	.st148{opacity:0.2;}
	.st149{fill:#7C4949;}
	.st150{fill:#F9AE7A;}
	.st151{fill:#FFF5F5;}
	.st152{fill:#C92727;}
	.st153{fill:#4C1B05;}
	.st154{fill:#592009;}
	.st155{opacity:0.4;fill:#592009;}
	.st156{fill:#3F1307;}
	.st157{fill:#664472;}
	.st158{fill:#473051;}
	.st159{fill:#352020;}
	.st160{opacity:0.3;fill:#7C4949;}
</style>
<g>
	<path class="st0" d="M148.74,131.74c-2.61,3.57-5.46,6.85-8.51,9.83c-2.18,2.14-4.46,4.12-6.84,5.95
		c-0.18,0.14-0.38,0.29-0.56,0.43c-0.38,0.28-0.74,0.56-1.12,0.83c-0.28,0.21-0.57,0.41-0.86,0.61c-0.27,0.19-0.55,0.38-0.82,0.58
		c-0.01,0-0.01,0.01-0.02,0.01c-1.26,0.87-2.54,1.7-3.84,2.49c-0.21,0.12-0.42,0.25-0.63,0.38c-0.24,0.14-0.49,0.29-0.74,0.42
		c-0.5,0.3-1,0.58-1.5,0.86c-0.52,0.28-1.04,0.56-1.57,0.83c-0.27,0.14-0.53,0.27-0.81,0.41c-0.42,0.22-0.85,0.43-1.28,0.64
		c-0.01,0.01-0.02,0.01-0.04,0.02c-0.42,0.2-0.85,0.4-1.28,0.6c-0.32,0.14-0.64,0.29-0.97,0.43c-0.03,0.01-0.07,0.04-0.1,0.04
		c-0.92,0.41-1.86,0.8-2.8,1.17c-0.62,0.25-1.26,0.49-1.88,0.71c-0.07,0.03-0.14,0.06-0.22,0.09c-0.11,0.04-0.22,0.08-0.32,0.12
		c-0.06,0.03-0.14,0.05-0.21,0.07c-0.08,0.04-0.16,0.06-0.25,0.09c-0.18,0.06-0.37,0.14-0.56,0.2c-0.37,0.12-0.74,0.25-1.12,0.37
		c-0.17,0.06-0.33,0.11-0.5,0.16c-0.08,0.03-0.17,0.06-0.25,0.09c-0.23,0.07-0.45,0.14-0.68,0.2c-0.04,0.01-0.07,0.02-0.11,0.04
		c-0.05,0.01-0.09,0.03-0.14,0.04c-0.21,0.07-0.43,0.13-0.64,0.19c-0.14,0.04-0.28,0.09-0.43,0.13c-0.09,0.03-0.19,0.06-0.3,0.09
		c-0.08,0.02-0.17,0.04-0.25,0.06c-0.25,0.07-0.49,0.14-0.74,0.2c-0.21,0.06-0.42,0.12-0.64,0.17c-0.64,0.16-1.28,0.32-1.92,0.46
		c-0.01,0-0.01,0.01-0.02,0.01c-0.08,0.02-0.15,0.03-0.23,0.06c-0.14,0.03-0.28,0.06-0.42,0.09c-0.05,0.01-0.1,0.02-0.16,0.03
		c-0.3,0.07-0.6,0.13-0.9,0.19c-0.06,0.01-0.14,0.03-0.2,0.04c-0.14,0.04-0.3,0.06-0.46,0.09c-0.15,0.04-0.3,0.06-0.45,0.09
		c-0.34,0.07-0.68,0.12-1.02,0.19c-0.1,0.01-0.2,0.04-0.31,0.06c-0.08,0.01-0.15,0.02-0.23,0.04c-0.46,0.08-0.93,0.16-1.39,0.24
		c-0.18,0.03-0.36,0.05-0.56,0.07c-0.41,0.07-0.83,0.13-1.25,0.18c-0.01,0-0.03,0.01-0.04,0c-0.07,0.01-0.15,0.02-0.22,0.03
		c-0.64,0.08-1.28,0.15-1.91,0.22c-1.15,0.12-2.3,0.2-3.45,0.27c-0.25,0.01-0.51,0.03-0.77,0.04c-0.44,0.02-0.87,0.04-1.32,0.04
		c-0.27,0.01-0.55,0.02-0.82,0.03c-0.48,0.01-0.95,0.01-1.42,0.01c-0.47,0.01-0.94,0.01-1.41-0.01c-0.75,0-1.49-0.04-2.25-0.07
		c-0.01,0-0.01,0-0.01,0c-0.15,0-0.31-0.01-0.45-0.02H81.5c-0.17-0.01-0.35-0.01-0.52-0.04c-0.17,0-0.33-0.01-0.51-0.02
		c-0.2-0.01-0.4-0.02-0.6-0.04c-0.13-0.01-0.27-0.03-0.4-0.04c-0.67-0.05-1.35-0.11-2.01-0.2c-1.18-0.12-2.35-0.27-3.52-0.45
		c-0.22-0.04-0.44-0.07-0.65-0.11c-0.3-0.04-0.6-0.09-0.89-0.15c-0.61-0.1-1.21-0.21-1.81-0.33c-0.89-0.17-1.77-0.35-2.65-0.56
		c-0.57-0.14-1.15-0.27-1.72-0.43c-0.17-0.04-0.36-0.09-0.55-0.14c-0.16-0.04-0.32-0.08-0.49-0.12c-0.05-0.01-0.12-0.04-0.17-0.05
		c-0.28-0.08-0.55-0.15-0.84-0.24c-0.08-0.02-0.16-0.05-0.24-0.07c-0.33-0.09-0.64-0.19-0.96-0.29h-0.01
		c-1.18-0.37-2.37-0.76-3.54-1.18c-0.12-0.04-0.24-0.09-0.35-0.12c-0.09-0.03-0.17-0.07-0.26-0.09c-1.34-0.5-2.69-1.03-4.01-1.61
		c-0.01,0-0.01-0.01-0.02-0.01c-0.19-0.09-0.38-0.17-0.56-0.25c-0.28-0.12-0.56-0.25-0.82-0.38c-0.35-0.16-0.69-0.31-1.03-0.48
		c-0.01,0-0.01-0.01-0.02-0.01c-0.23-0.12-0.46-0.22-0.68-0.33c-0.17-0.07-0.33-0.15-0.48-0.23c-0.1-0.05-0.19-0.09-0.29-0.14
		c-0.01-0.01-0.03-0.01-0.04-0.02c-0.06-0.03-0.11-0.06-0.17-0.09c-0.05-0.03-0.11-0.05-0.16-0.08c-0.06-0.03-0.12-0.06-0.19-0.09
		c-0.24-0.12-0.48-0.25-0.71-0.38c-0.1-0.05-0.19-0.1-0.28-0.16c-0.23-0.12-0.46-0.24-0.69-0.37c-0.21-0.11-0.42-0.22-0.62-0.33
		c-0.16-0.09-0.32-0.17-0.48-0.26c-0.33-0.19-0.66-0.38-0.99-0.57c-0.27-0.17-0.54-0.33-0.81-0.49c-0.05-0.02-0.11-0.06-0.16-0.09
		c-0.31-0.18-0.62-0.38-0.93-0.57c-0.03-0.01-0.06-0.04-0.09-0.06c-0.05-0.02-0.09-0.06-0.13-0.09c-0.33-0.19-0.65-0.4-0.97-0.6
		c-0.15-0.1-0.3-0.2-0.45-0.3c-0.04-0.02-0.08-0.04-0.12-0.07c-0.19-0.13-0.39-0.25-0.58-0.39c-0.04-0.02-0.09-0.05-0.14-0.09
		c-0.19-0.12-0.38-0.25-0.58-0.39c-0.18-0.13-0.37-0.25-0.55-0.38c-0.01-0.01-0.02-0.01-0.03-0.02c-0.06-0.04-0.12-0.08-0.17-0.12
		c-0.09-0.06-0.18-0.13-0.27-0.19c-0.17-0.12-0.35-0.24-0.51-0.36c-0.11-0.08-0.22-0.16-0.33-0.24c-0.12-0.08-0.23-0.17-0.34-0.25
		c-0.23-0.17-0.45-0.34-0.68-0.51c-0.04-0.04-0.09-0.07-0.13-0.11c-0.04-0.02-0.06-0.05-0.1-0.08c-0.04-0.03-0.08-0.05-0.11-0.09
		l-0.06-0.04c-0.01-0.01-0.02-0.01-0.03-0.02c-0.2-0.14-0.38-0.28-0.57-0.45c-0.24-0.17-0.47-0.35-0.69-0.54
		c-0.01-0.01-0.04-0.02-0.05-0.04c-0.02-0.01-0.05-0.05-0.08-0.07c-0.1-0.09-0.2-0.17-0.3-0.25c-0.09-0.08-0.2-0.15-0.28-0.22
		c-0.15-0.13-0.3-0.25-0.45-0.37c-0.02-0.01-0.03-0.03-0.04-0.04c-0.58-0.48-1.14-0.95-1.68-1.44c-0.37-0.32-0.72-0.63-1.08-0.95
		c-0.42-0.4-0.85-0.79-1.26-1.19c-0.06-0.06-0.13-0.12-0.2-0.19c-0.58-0.55-1.16-1.13-1.71-1.71c-0.45-0.45-0.89-0.92-1.32-1.39
		c-0.13-0.13-0.25-0.26-0.37-0.4c-0.34-0.36-0.66-0.72-0.98-1.09c-0.2-0.22-0.4-0.44-0.59-0.66l-0.01-0.01
		c-0.4-0.45-0.79-0.92-1.17-1.39c-0.06-0.07-0.12-0.14-0.17-0.2c-0.01-0.02-0.03-0.03-0.03-0.05c-0.24-0.28-0.47-0.56-0.69-0.85
		c-0.43-0.54-0.84-1.08-1.23-1.62c-0.14-0.17-0.27-0.35-0.39-0.51c-1.08-1.47-2.11-2.97-3.08-4.5c-0.55-0.87-1.08-1.73-1.59-2.61
		c-0.09-0.15-0.17-0.3-0.27-0.45c-0.14-0.25-0.28-0.51-0.43-0.77c-0.01-0.03-0.01-0.04-0.03-0.07c-0.77-1.39-1.51-2.81-2.19-4.25
		c-0.09-0.15-0.17-0.33-0.24-0.51c-0.48-1-0.92-2.01-1.34-3.03c-0.28-0.68-0.55-1.34-0.82-2.02c-0.91-2.37-1.7-4.77-2.38-7.2
		c-0.31-1.13-0.6-2.25-0.86-3.4c-0.02-0.09-0.04-0.18-0.06-0.27c-0.05-0.23-0.11-0.46-0.17-0.7c-0.14-0.64-0.27-1.29-0.39-1.93
		C5.25,79.87,9.52,57.91,22.77,39.76C48.17,4.97,96.97-2.62,131.75,22.77C166.53,48.18,174.14,96.96,148.74,131.74z"/>
	<g>
		<g>
			<g>
				<path class="st6" d="M70.75,159.04c-0.04,1.05-0.09,2.12-0.15,3.22c-0.89-0.17-1.77-0.35-2.65-0.56
					c-0.57-0.14-1.15-0.27-1.72-0.43c-0.17-0.04-0.36-0.09-0.55-0.14c-0.16-0.04-0.32-0.08-0.49-0.12
					c-0.05-0.01-0.12-0.04-0.17-0.05c-0.28-0.08-0.55-0.15-0.84-0.24c-0.08-0.02-0.16-0.05-0.24-0.07
					c-0.33-0.09-0.64-0.19-0.96-0.29h-0.01c-1.18-0.37-2.37-0.76-3.54-1.18c-0.12-0.04-0.24-0.09-0.35-0.12
					c-0.09-0.03-0.17-0.07-0.26-0.09c-1.34-0.5-2.69-1.03-4.01-1.61c-0.01,0-0.01-0.01-0.02-0.01c0.14-1.87,0.3-3.74,0.44-5.62
					c0.08-0.91,0.15-1.83,0.22-2.74c0.08-1.01,0.15-2.02,0.22-3.03l0.71-0.13l0.97-0.19l1.04-0.2l0.67-0.12l2.29-0.43l0.13-0.02
					l2.13-0.4l3.61-0.68l0.59-0.11c0.11,0,2.7-0.69,2.81-0.69c0.08,0.33,0.24,2.92,0.27,6.83
					C70.91,152.39,70.88,155.56,70.75,159.04z"/>
			</g>
			<g>
				<path class="st147" d="M72.73,145.57c0.28,0.61,0.35,1.34,0.16,2.07c-0.4,1.56-1.85,2.54-3.23,2.19
					c-0.53-0.14-0.97-0.45-1.3-0.88c-0.02,0.17-0.05,0.34-0.09,0.52c-0.4,1.56-1.85,2.54-3.23,2.19c-0.83-0.21-1.44-0.86-1.72-1.68
					c0,0.26-0.03,0.52-0.1,0.78c-0.4,1.57-1.85,2.55-3.23,2.19c-1.13-0.29-1.87-1.39-1.87-2.63c-0.61,1.09-1.78,1.69-2.91,1.4
					c-1.18-0.3-1.93-1.49-1.87-2.8c-0.55,0.32-1.19,0.44-1.82,0.28c-0.8-0.21-1.4-0.81-1.69-1.59c-0.21-0.57-0.25-1.22-0.08-1.88
					c0.18-0.69,0.56-1.27,1.05-1.67c-1.26-3.77-0.75-9.03,0.38-13.44c1.83-7.14,5.42-12.67,11.73-11.05
					c0.53,0.14,1.05,0.36,1.56,0.67c4.82,2.87,8.5,12.71,8.26,19.53c0.23-0.01,0.47,0.01,0.7,0.06c1.38,0.35,2.18,1.91,1.77,3.47
					C74.87,144.59,73.85,145.47,72.73,145.57z"/>
				<g class="st148">
					<g>
						<path class="st149" d="M72.73,145.57c0.28,0.61,0.35,1.34,0.16,2.07c-0.4,1.56-1.85,2.54-3.23,2.19
							c-0.53-0.14-0.97-0.45-1.3-0.88c-0.02,0.17-0.05,0.34-0.09,0.52c-0.4,1.56-1.85,2.54-3.23,2.19
							c-0.83-0.21-1.44-0.86-1.72-1.68c0,0.26-0.03,0.52-0.1,0.78c-0.4,1.57-1.85,2.55-3.23,2.19c-1.13-0.29-1.87-1.39-1.87-2.63
							c-0.61,1.09-1.78,1.69-2.91,1.4c-1.18-0.3-1.93-1.49-1.87-2.8c-0.55,0.32-1.19,0.44-1.82,0.28c-0.8-0.21-1.4-0.81-1.69-1.59
							c0.7,0.5,1.54,0.63,2.49-0.06c1.05,1.9,3.81,1.79,5.34,0.52c1.06,2.38,3.77,1.67,4.77-0.48c1.93,1.86,5.09-0.82,4.85-3.42
							c-0.11-1.12-0.69-2.33-1.53-2.95c-1.04-0.76-2.04-0.15-3.18-0.5c3.08-2.25,4.56-6.01,4.73-10.06
							c0.15-3.55-0.91-6.65-2.41-9.64c-0.09-0.17-0.23-0.45-0.41-0.79c4.82,2.87,8.5,12.71,8.26,19.53c0.23-0.01,0.47,0.01,0.7,0.06
							c1.38,0.35,2.18,1.91,1.77,3.47C74.87,144.59,73.85,145.47,72.73,145.57z"/>
					</g>
				</g>
			</g>
		</g>
		<g>
			<path class="st150" d="M118.53,132.09c-1.22,2.48-4.77,4.35-9.59,5.72c-1.71,0.49-3.59,0.91-5.57,1.28
				c-13.58,2.5-32.48,2.32-41.67,1.17c-3.03-0.38-5-0.87-5.39-1.39c0.35-0.84,0.72-1.69,1.09-2.54c0.09-0.21,0.19-0.42,0.28-0.63
				c0.44-0.99,0.9-1.96,1.37-2.92c0.1-0.2,0.19-0.4,0.29-0.59c0.1-0.19,0.19-0.39,0.29-0.58c0.1-0.19,0.19-0.38,0.29-0.57
				c0.8-1.54,1.62-2.98,2.43-4.24c0.09-0.13,0.17-0.26,0.26-0.39c0.22-0.33,0.45-0.65,0.67-0.95c0.05-0.07,0.1-0.14,0.15-0.21
				c0.05-0.07,0.1-0.14,0.15-0.2c0.05-0.07,0.1-0.13,0.15-0.19c0.05-0.06,0.1-0.13,0.15-0.19c0.05-0.06,0.1-0.12,0.15-0.19
				c0.1-0.12,0.2-0.24,0.3-0.35c0.05-0.06,0.1-0.11,0.15-0.17c0.11-0.12,0.22-0.24,0.33-0.35c0.08-0.08,0.17-0.16,0.24-0.23
				c0.06-0.05,0.12-0.11,0.17-0.16c0.05-0.04,0.1-0.09,0.15-0.13c0-0.01,0.01-0.01,0.01-0.01c0.08-0.06,0.15-0.12,0.23-0.18
				c0.07-0.05,0.13-0.1,0.2-0.15c0.19-0.13,0.72-0.39,1.55-0.74c5.04-2.12,20.84-7.47,33.57-6.34c0.11,0.01,0.23,0.02,0.34,0.03
				c0.37,0.03,0.73,0.08,1.09,0.12c0.15,0.02,0.29,0.04,0.44,0.06c0.14,0.02,0.29,0.04,0.43,0.07c0.13,0.02,0.25,0.04,0.38,0.06
				c0.09,0.01,0.17,0.03,0.26,0.05c0.07,0.01,0.14,0.03,0.21,0.04c0.14,0.03,0.28,0.05,0.42,0.08c0.07,0.01,0.15,0.03,0.22,0.05
				c0.12,0.03,0.24,0.05,0.36,0.08c0.12,0.03,0.24,0.06,0.36,0.09c0.61,0.15,1.21,0.32,1.79,0.51c0.11,0.04,0.21,0.07,0.32,0.11
				c0.19,0.07,0.38,0.13,0.57,0.2c0.19,0.07,0.37,0.15,0.56,0.22c0.07,0.03,0.13,0.06,0.2,0.08c0.01,0,0.01,0.01,0.02,0.01
				c0.12,0.05,0.24,0.1,0.35,0.16c0.21,0.09,0.42,0.19,0.62,0.29c0.1,0.05,0.2,0.1,0.3,0.16c0.29,0.15,0.57,0.31,0.85,0.47
				c0.09,0.06,0.19,0.11,0.28,0.17c0.36,0.22,0.7,0.46,1.04,0.71c0.1,0.08,0.2,0.15,0.3,0.23c0.1,0.08,0.21,0.16,0.31,0.24
				c0.1,0.08,0.2,0.17,0.3,0.26c0.08,0.07,0.16,0.13,0.23,0.2c0.01,0.01,0.03,0.02,0.04,0.03c0.12,0.11,0.24,0.23,0.36,0.35
				c0.08,0.07,0.15,0.15,0.23,0.23c0.09,0.1,0.18,0.19,0.27,0.29c0.09,0.1,0.18,0.19,0.26,0.3c0.09,0.1,0.17,0.19,0.25,0.3
				c0,0,0.01,0.01,0.01,0.02c0.08,0.1,0.16,0.2,0.24,0.31c0.07,0.09,0.14,0.18,0.21,0.27c0.17,0.23,0.34,0.47,0.5,0.72
				c0.08,0.11,0.15,0.23,0.22,0.35c0.08,0.13,0.16,0.27,0.24,0.41c0.06,0.11,0.12,0.21,0.17,0.32c0.07,0.12,0.13,0.25,0.19,0.38
				c0.05,0.11,0.11,0.22,0.16,0.34c0.01,0.03,0.03,0.06,0.04,0.09c0.11,0.25,0.22,0.5,0.32,0.76c0.05,0.14,0.11,0.28,0.16,0.42
				c0.05,0.14,0.1,0.28,0.15,0.43c0.05,0.14,0.09,0.29,0.14,0.44c0.05,0.15,0.09,0.3,0.13,0.44c0.04,0.15,0.08,0.3,0.12,0.46
				c0,0.02,0.01,0.04,0.01,0.06c0.19,0.75,0.33,1.55,0.44,2.38c0.02,0.15,0.04,0.31,0.06,0.46
				C118.47,131.33,118.51,131.71,118.53,132.09z"/>
			<path class="st150" d="M97.12,114.84l-0.64,4.49c-0.36-0.56-4.58-1.55-5.08-2.03c-1.26-1.19,0.99-4.7-0.82-4.42
				c-0.14,0.02-0.26,0.05-0.37,0.09l-7.4,3.89c-0.35,0.37-0.77,1.4-1.16,2.93l-0.61,0.1l-0.48-3l-0.54-3.38l-0.15-0.95l-0.05-0.34
				l-0.21-1.31l-0.08-0.51L76.6,92.03l-1.32-8.22l16.99-2.7l0.09,0.59l0.92,5.77l0.08,0.5l0.84,5.26l1.26,7.94l0.04,0.23
				L97.12,114.84z"/>
			<g>
				<path class="st151" d="M117.83,141.21L117.83,141.21c-0.08,0.45-0.17,0.92-0.27,1.38c-0.07,0.35-0.15,0.69-0.23,1.05
					c-0.13,0.54-0.25,1.08-0.35,1.6c-0.01,0.02-0.01,0.04-0.01,0.07c-0.08,0.35-0.15,0.7-0.22,1.05c-0.27,1.25-0.55,2.43-0.81,3.49
					c-0.33,1.36-0.64,2.55-0.92,3.51c-0.3,1.03-0.58,1.79-0.8,2.2c-0.64,1.17-1.26,2.34-1.86,3.51c-0.11,0.04-0.22,0.08-0.32,0.12
					c-0.06,0.03-0.14,0.05-0.21,0.07c-0.08,0.04-0.16,0.06-0.25,0.09c-0.18,0.06-0.37,0.14-0.56,0.2c-0.37,0.12-0.74,0.25-1.12,0.37
					c-0.17,0.06-0.33,0.11-0.5,0.16c-0.08,0.03-0.17,0.06-0.25,0.09c-0.23,0.07-0.45,0.14-0.68,0.2c-0.04,0.01-0.07,0.02-0.11,0.04
					c-0.05,0.01-0.09,0.03-0.14,0.04c-0.21,0.07-0.43,0.13-0.64,0.19c-0.14,0.04-0.28,0.09-0.43,0.13c-0.09,0.03-0.19,0.06-0.3,0.09
					c-0.08,0.02-0.17,0.04-0.25,0.06c-0.25,0.07-0.49,0.14-0.74,0.2c-0.21,0.06-0.42,0.12-0.64,0.17c-0.64,0.16-1.28,0.32-1.92,0.46
					c-0.01,0-0.01,0.01-0.02,0.01c-0.08,0.02-0.15,0.03-0.23,0.06c-0.14,0.03-0.28,0.06-0.42,0.09c-0.05,0.01-0.1,0.02-0.16,0.03
					c-0.3,0.07-0.6,0.13-0.9,0.19c-0.06,0.01-0.14,0.03-0.2,0.04c-0.14,0.04-0.3,0.06-0.46,0.09c-0.15,0.04-0.3,0.06-0.45,0.09
					c-0.34,0.07-0.68,0.12-1.02,0.19c-0.1,0.01-0.2,0.04-0.31,0.06c-0.08,0.01-0.15,0.02-0.23,0.04c-0.46,0.08-0.93,0.16-1.39,0.24
					c-0.18,0.03-0.36,0.05-0.56,0.07c-0.41,0.07-0.83,0.13-1.25,0.18c-0.01,0-0.03,0.01-0.04,0c-0.07,0.01-0.15,0.02-0.22,0.03
					c-0.64,0.08-1.28,0.15-1.91,0.22c-1.15,0.12-2.3,0.2-3.45,0.27c-0.25,0.01-0.51,0.03-0.77,0.04c-0.44,0.02-0.87,0.04-1.32,0.04
					c-0.27,0.01-0.55,0.02-0.82,0.03c-0.48,0.01-0.95,0.01-1.42,0.01c-0.47,0.01-0.94,0.01-1.41-0.01c-0.75,0-1.49-0.04-2.25-0.07
					c-0.01,0-0.01,0-0.01,0c-0.15,0-0.31-0.01-0.45-0.02H81.5c-0.17-0.01-0.35-0.01-0.52-0.04c-0.17,0-0.33-0.01-0.51-0.02
					c-0.2-0.01-0.4-0.02-0.6-0.04c-0.13-0.01-0.27-0.03-0.4-0.04c-0.67-0.05-1.35-0.11-2.01-0.2c-1.18-0.12-2.35-0.27-3.52-0.45
					c-0.22-0.04-0.44-0.07-0.65-0.11c-0.3-0.04-0.6-0.09-0.89-0.15c-0.61-0.1-1.21-0.21-1.81-0.33c-0.89-0.17-1.77-0.35-2.65-0.56
					c-0.57-0.14-1.15-0.27-1.72-0.43c-0.17-0.04-0.36-0.09-0.55-0.14c-0.16-0.04-0.32-0.08-0.49-0.12
					c-0.05-0.01-0.12-0.04-0.17-0.05c-0.28-0.08-0.55-0.15-0.84-0.24c-0.08-0.02-0.16-0.05-0.24-0.07
					c-0.33-0.09-0.64-0.19-0.96-0.29h-0.01c-1.18-0.37-2.37-0.76-3.54-1.18c-0.12-0.04-0.24-0.09-0.35-0.12
					c-0.09-0.03-0.17-0.07-0.26-0.09c-1.34-0.5-2.69-1.03-4.01-1.61c-0.01,0-0.01-0.01-0.02-0.01c-0.19-0.09-0.38-0.17-0.56-0.25
					c-0.28-0.12-0.56-0.25-0.82-0.38c-0.35-0.16-0.69-0.31-1.03-0.48c-0.53-1.47-0.89-2.79-0.93-3.93
					c-0.01-0.15,0.33-1.29,0.93-3.05c0.12-0.35,0.25-0.72,0.38-1.12c0.66-1.88,1.53-4.25,2.55-6.79c0.04-0.12,0.09-0.22,0.13-0.34
					c0.28-0.7,0.58-1.42,0.88-2.14c0.09,0.13,0.27,0.25,0.53,0.37c0.07,0.04,0.15,0.06,0.23,0.09c0.05,0.02,0.1,0.04,0.16,0.06
					c0.14,0.05,0.28,0.1,0.45,0.14c0.2,0.06,0.43,0.12,0.67,0.17c0.25,0.06,0.53,0.12,0.83,0.17c0.29,0.06,0.6,0.11,0.92,0.16
					c0.01,0.01,0.02,0.01,0.03,0.01c0.32,0.05,0.65,0.09,1,0.14c0.03,0.01,0.05,0.01,0.08,0.01c0,0,0,0,0.01,0
					c0.28,0.04,0.58,0.07,0.89,0.11c0.27,0.04,0.56,0.06,0.85,0.1c0.23,0.02,0.47,0.04,0.71,0.07c0.11,0.01,0.22,0.02,0.34,0.03
					h0.02c0.12,0.01,0.25,0.02,0.38,0.04c1.05,0.09,2.18,0.17,3.38,0.25c0.43,0.02,0.87,0.05,1.31,0.07
					c0.74,0.04,1.5,0.07,2.28,0.09c0.6,0.02,1.21,0.04,1.83,0.05c0.34,0.01,0.69,0.02,1.03,0.02c0.23,0.01,0.45,0.01,0.69,0.01
					c0.15,0,0.3,0.01,0.46,0.01c0.38,0.01,0.77,0.01,1.16,0.01c1.48,0.01,3,0.01,4.54-0.02c0.1,0,0.2-0.01,0.3-0.01h0.14
					c0.92-0.02,1.83-0.04,2.76-0.08c0.45-0.01,0.9-0.03,1.35-0.05h0.01c0.14-0.01,0.3-0.01,0.45-0.02c1-0.04,2-0.09,3-0.16
					c0.09,0,0.17-0.01,0.26-0.01c0.26-0.01,0.51-0.03,0.77-0.05c0.66-0.04,1.32-0.09,1.97-0.15c0.01,0.01,0.03,0,0.04,0
					c0.17-0.01,0.32-0.02,0.49-0.04c0.42-0.04,0.84-0.07,1.26-0.12c0.03,0,0.06-0.01,0.09-0.01c0.12-0.01,0.24-0.02,0.36-0.04
					c0.55-0.05,1.1-0.11,1.64-0.17c0.54-0.06,1.08-0.12,1.62-0.19c0.53-0.06,1.07-0.14,1.6-0.21c0.52-0.07,1.04-0.14,1.56-0.22
					c0.51-0.08,1.02-0.16,1.52-0.25c0.19-0.03,0.37-0.07,0.55-0.09c0.18-0.04,0.36-0.07,0.53-0.1c0.03,0,0.07-0.01,0.09-0.01
					c0.04-0.01,0.07-0.01,0.1-0.02c0.06-0.01,0.13-0.02,0.19-0.04c0.01,0,0.01,0,0.01,0c0.02-0.01,0.04-0.01,0.05-0.01
					c0.03-0.01,0.05-0.01,0.08-0.01c0.01,0,0.01,0,0.01,0h0.01c0.33-0.06,0.64-0.12,0.95-0.19c0.16-0.04,0.31-0.07,0.47-0.1
					c0.18-0.04,0.36-0.07,0.53-0.12c0.27-0.06,0.54-0.12,0.81-0.19c0.71-0.16,1.39-0.33,2.05-0.52c0.01-0.01,0.02-0.01,0.03-0.01
					c0.03-0.01,0.06-0.01,0.09-0.02h0.01c0.02-0.01,0.05-0.01,0.07-0.02c0,0,0,0,0.01,0c4.82-1.36,8.38-3.23,9.59-5.72
					C118.69,134.73,118.48,137.75,117.83,141.21z"/>
				<path class="st152" d="M116.98,145.24c-0.01,0.02-0.01,0.04-0.01,0.07c-0.08,0.35-0.15,0.7-0.22,1.05
					c-0.27,1.25-0.55,2.43-0.81,3.49c-0.33,1.36-0.64,2.55-0.92,3.51c-0.3,1.03-0.58,1.79-0.8,2.2c-0.64,1.17-1.26,2.34-1.86,3.51
					c-0.11,0.04-0.22,0.08-0.32,0.12c-0.06,0.03-0.14,0.05-0.21,0.07c-0.08,0.04-0.16,0.06-0.25,0.09c-0.18,0.06-0.37,0.14-0.56,0.2
					c-0.37,0.12-0.74,0.25-1.12,0.37c-0.17,0.06-0.33,0.11-0.5,0.16c-0.08,0.03-0.17,0.06-0.25,0.09c-0.23,0.07-0.45,0.14-0.68,0.2
					c-0.04,0.01-0.07,0.02-0.11,0.04c-0.05,0.01-0.09,0.03-0.14,0.04c-0.21,0.07-0.43,0.13-0.64,0.19
					c-0.14,0.04-0.28,0.09-0.43,0.13c-0.09,0.03-0.19,0.06-0.3,0.09c-0.08,0.02-0.17,0.04-0.25,0.06c-0.25,0.07-0.49,0.14-0.74,0.2
					c-0.21,0.06-0.42,0.12-0.64,0.17c-0.64,0.16-1.28,0.32-1.92,0.46c-0.01,0-0.01,0.01-0.02,0.01c-0.08,0.02-0.15,0.03-0.23,0.06
					c-0.14,0.03-0.28,0.06-0.42,0.09c-0.05,0.01-0.1,0.02-0.16,0.03c-0.3,0.07-0.6,0.13-0.9,0.19c-0.06,0.01-0.14,0.03-0.2,0.04
					c-0.14,0.04-0.3,0.06-0.46,0.09c-0.15,0.04-0.3,0.06-0.45,0.09c-0.34,0.07-0.68,0.12-1.02,0.19c-0.1,0.01-0.2,0.04-0.31,0.06
					c-0.08,0.01-0.15,0.02-0.23,0.04c-0.46,0.08-0.93,0.16-1.39,0.24c-0.18,0.03-0.36,0.05-0.56,0.07
					c-0.41,0.07-0.83,0.13-1.25,0.18c-0.01,0-0.03,0.01-0.04,0c-0.07,0.01-0.15,0.02-0.22,0.03c-0.64,0.08-1.28,0.15-1.91,0.22
					c-1.15,0.12-2.3,0.2-3.45,0.27c-0.25,0.01-0.51,0.03-0.77,0.04c-0.44,0.02-0.87,0.04-1.32,0.04c-0.27,0.01-0.55,0.02-0.82,0.03
					c-0.48,0.01-0.95,0.01-1.42,0.01c-0.47,0.01-0.94,0.01-1.41-0.01c-0.75,0-1.49-0.04-2.25-0.07c-0.01,0-0.01,0-0.01,0
					c-0.15,0-0.31-0.01-0.45-0.02H81.5c-0.17-0.01-0.35-0.01-0.52-0.04c-0.17,0-0.33-0.01-0.51-0.02c-0.2-0.01-0.4-0.02-0.6-0.04
					c-0.13-0.01-0.27-0.03-0.4-0.04c-0.67-0.05-1.35-0.11-2.01-0.2c-1.18-0.12-2.35-0.27-3.52-0.45c-0.22-0.04-0.44-0.07-0.65-0.11
					c-0.3-0.04-0.6-0.09-0.89-0.15c-0.61-0.1-1.21-0.21-1.81-0.33c-0.89-0.17-1.77-0.35-2.65-0.56c-0.57-0.14-1.15-0.27-1.72-0.43
					c-0.17-0.04-0.36-0.09-0.55-0.14c-0.16-0.04-0.32-0.08-0.49-0.12c-0.05-0.01-0.12-0.04-0.17-0.05
					c-0.28-0.08-0.55-0.15-0.84-0.24c-0.08-0.02-0.16-0.05-0.24-0.07c-0.33-0.09-0.64-0.19-0.96-0.29h-0.01
					c-1.18-0.37-2.37-0.76-3.54-1.18c-0.12-0.04-0.24-0.09-0.35-0.12c-0.09-0.03-0.17-0.07-0.26-0.09c-1.34-0.5-2.69-1.03-4.01-1.61
					c-0.01,0-0.01-0.01-0.02-0.01c-0.19-0.09-0.38-0.17-0.56-0.25c-0.28-0.12-0.56-0.25-0.82-0.38c-0.35-0.16-0.69-0.31-1.03-0.48
					c-0.53-1.47-0.89-2.79-0.93-3.93c-0.01-0.15,0.33-1.29,0.93-3.05c0.12-0.35,0.25-0.72,0.38-1.12c0.66-1.88,1.53-4.25,2.55-6.79
					c0.04-0.12,0.09-0.22,0.13-0.34c0.28-0.7,0.58-1.42,0.88-2.14c0.09,0.13,0.27,0.25,0.53,0.37c0.51,1.73,1.11,3.44,1.8,5.1
					c0.13,0.33,0.27,0.66,0.41,0.99c0.46,1.06,0.95,2.1,1.48,3.11c0.08,0.16,0.16,0.32,0.25,0.48c0.06,0.11,0.11,0.21,0.17,0.31
					c0.56,1.01,1.13,1.86,1.76,2.65c1.02,1.28,2.17,2.38,3.6,3.67c1.27,1.16,2.97,2.29,4.43,3.5c0.8,0.66,1.54,1.35,2.09,2.09
					c6.52-3.86,13.34-6.69,19.57-11.11c3.52-2.5,8.24-6.51,10.96-10.94c0.03-0.01,0.06-0.01,0.09-0.02c0.04-0.01,0.07-0.01,0.1-0.02
					c0.06-0.01,0.13-0.02,0.19-0.04c0.01,0,0.01,0,0.01,0c0.02-0.01,0.04-0.01,0.05-0.01c0.03-0.01,0.05-0.01,0.08-0.01
					c0.01,0,0.01,0,0.01,0h0.01c0.3-0.06,0.61-0.13,0.95-0.21c0.16-0.04,0.32-0.06,0.48-0.1c1.21-0.27,2.51-0.58,3.39-0.81
					c0.01,0,0.02-0.01,0.04-0.01c0.03-0.01,0.06-0.01,0.09-0.02h0.01c0.02-0.01,0.05-0.01,0.07-0.02c0,0,0,0,0.01,0
					c0.06,0.09,0.13,0.18,0.19,0.27C111.26,141.01,113.62,143.48,116.98,145.24z"/>
			</g>
			<path class="st2" d="M118.38,130.5c-0.11-0.84-0.25-1.63-0.44-2.38C118.13,128.87,118.28,129.66,118.38,130.5z"/>
			<g>
				<path class="st153" d="M80.22,75.89l-10.01,4.75c5.8,9.23,0.97,21.77-2.78,30.96c-2.61,6.41-5.8,11.94-7.72,19.14l3.05,1.22
					c3.33-9.42,10.29-17.01,14-21.62c3.72-4.63,6.12-10.5,6.79-16.44C84.12,88.72,83.44,80.17,80.22,75.89z"/>
				<g>
					<path class="st154" d="M63.73,140.84c0.34,2.76-0.46,5.8-1.57,8.26c-0.14-1.53-0.24-3.08-0.79-4.51
						c-0.36,3.32-1.65,6.2-3.1,9.1c-0.08-2.09-2.51-9.58-2.86-11.53c-0.14-0.8-0.21-1.54-0.22-2.25c-0.13-6.13,4.15-8.97,6.22-10.82
						l1.48,0.16l1.33,0.14C62.02,132.65,63.29,137.27,63.73,140.84z"/>
					<path class="st155" d="M61.63,134.98c-0.08,2.19,0.9,5.14,0.31,7.14c-0.16-1.2-1.12-2.66-1.81-3.69
						c0.1,1.8-0.15,3.41-0.35,5.15c-0.17-0.63-0.45-1.22-0.87-1.74c0.13,2.1-0.92,4.15-0.91,6.21c-0.36-2.92-2.38-5.23-2.8-8.13
						c-0.13-6.13,4.15-8.97,6.22-10.82l1.48,0.16c-0.18,0.63-0.34,1.26-0.5,1.79C62,132.33,61.67,133.65,61.63,134.98z"/>
				</g>
				<g>
					<path class="st156" d="M68.96,110.44c0,0-9.58,9.3-7.61,21.13C63.35,131.19,78.47,125.89,68.96,110.44z"/>
					<path class="st154" d="M70.43,108.36c0,0-9.58,9.3-7.61,21.13C64.82,129.11,79.94,123.81,70.43,108.36z"/>
				</g>
				<g>
					<g>
						<path class="st157" d="M53.74,128.34c0.35,0.14,0.71,0.29,1.05,0.41c-0.19,0.09-0.6-0.07-0.84,0.03
							c-0.22,0.09-0.77,2.4-0.53,3.17c0.11,0.36,0.11,0.37,0.4,0.43c0.65,0.15,5.24-0.6,6.39,0.26l0.48-2.33
							c-0.03-0.11-0.15-0.35-0.35-0.67c-0.72-1.14-2.56-3.24-5.37-3.7c-0.1-0.02-0.2-0.03-0.31-0.05
							C54.17,126.67,53.98,127.46,53.74,128.34z"/>
						<path class="st158" d="M53.74,128.34c0.35,0.14,0.71,0.29,1.05,0.41c-0.19,0.09-0.6-0.07-0.84,0.03
							c-0.22,0.09-0.77,2.4-0.53,3.17c0.11,0.36,0.11,0.37,0.4,0.43c0.65,0.15,5.24-0.6,6.39,0.26l0.48-2.33
							c-0.03-0.11-0.15-0.35-0.35-0.67c-0.83-0.72-1.89-1.24-2.85-1.59c0.63,0.51,1.18,1.27,1.66,1.91
							c-0.37-0.07-0.72-0.14-1.09-0.2c0.18,0.17,0.42,0.27,0.61,0.43c0.2,0.17,0.33,0.39,0.52,0.57c-0.27,0.22-0.64,0.26-0.98,0.33
							c-0.48,0.11-0.97,0.26-1.46,0.32c-0.74,0.1-1.58,0.08-2.26-0.28c-0.23-0.12-0.49-0.38-0.59-0.62
							c-0.11-0.24-0.17-1.05,0.08-1.26c0.17-0.14,0.89-0.08,1.13-0.08c0.4-0.01,0.81,0.07,1.19,0.07c-0.5-0.6-1.39-0.77-1.61-1.53
							c-0.18-0.61-0.01-1.22,0.29-1.78c-0.1-0.02-0.2-0.03-0.31-0.05C54.17,126.67,53.98,127.46,53.74,128.34z"/>
					</g>
					<g>
						<path class="st157" d="M61.84,133.12c-1.17,0.75-2.61,0.92-3.13-0.66c-0.25-0.78-0.29-1.92,0-2.87
							c0.21-0.66,0.58-1.23,1.15-1.51c0.83-0.41,2.59-0.48,3.76-0.12c0.63,0.19,1.1,0.5,1.17,0.96
							C64.99,130.17,62.57,132.65,61.84,133.12z"/>
						<path class="st158" d="M61.84,133.12c-1.17,0.75-2.61,0.92-3.13-0.66c-0.25-0.78-0.29-1.92,0-2.87
							c0.06,0.86,0.37,1.68,0.99,2.28c0.41-0.83,0.71-1.88,1.54-2.44c-0.36,0.84-0.44,1.53-0.42,2.43c0.99-0.55,1.74-1.11,2.35-2.12
							c0.3-0.49,0.49-1.04,0.48-1.62c0-0.04-0.01-0.1-0.02-0.17c0.63,0.19,1.1,0.5,1.17,0.96
							C64.99,130.17,62.57,132.65,61.84,133.12z"/>
					</g>
					<g>
						<path class="st157" d="M70.82,133.5c-0.4-0.14-0.82-0.29-1.2-0.46c0.09,0.22,0.56,0.4,0.68,0.66c0.12,0.25-1.18,2.6-1.96,3.07
							c-0.37,0.22-0.37,0.23-0.67,0.06c-0.66-0.37-3.96-4.49-5.59-4.64l1.37-2.32c0.11-0.07,0.39-0.19,0.8-0.3
							c1.47-0.41,4.63-0.78,7.35,0.95c0.1,0.06,0.2,0.13,0.29,0.2C71.73,131.77,71.28,132.58,70.82,133.5z"/>
						<path class="st158" d="M70.82,133.5c-0.4-0.14-0.82-0.29-1.2-0.46c0.09,0.22,0.56,0.4,0.68,0.66c0.12,0.25-1.18,2.6-1.96,3.07
							c-0.37,0.22-0.37,0.23-0.67,0.06c-0.66-0.37-3.96-4.49-5.59-4.64l1.37-2.32c0.11-0.07,0.39-0.19,0.8-0.3
							c1.25,0.03,2.54,0.39,3.62,0.83c-0.92-0.04-1.96,0.17-2.85,0.35c0.37,0.22,0.72,0.42,1.07,0.66c-0.29,0.01-0.55-0.09-0.85-0.1
							c-0.3-0.01-0.58,0.08-0.87,0.09c0.06,0.39,0.35,0.71,0.57,1.02c0.32,0.46,0.63,0.95,0.99,1.38c0.55,0.65,1.28,1.27,2.12,1.48
							c0.29,0.07,0.7,0.05,0.97-0.07c0.27-0.12,0.95-0.75,0.89-1.12c-0.03-0.24-0.7-0.74-0.89-0.92c-0.33-0.32-0.73-0.55-1.06-0.85
							c0.88-0.13,1.76,0.4,2.52-0.07c0.61-0.38,0.94-1.02,1.11-1.71c0.1,0.06,0.2,0.13,0.29,0.2
							C71.73,131.77,71.28,132.58,70.82,133.5z"/>
					</g>
				</g>
				<g>
					<path class="st156" d="M74.08,100.15c0,0-10.96,10.64-8.71,24.19C67.66,123.9,84.97,117.83,74.08,100.15z"/>
					<path class="st154" d="M75.76,97.76c0,0-10.96,10.64-8.71,24.19C69.33,121.51,86.65,115.44,75.76,97.76z"/>
				</g>
				<g>
					<path class="st156" d="M76.33,90.78c0,0-10.04,12.76-5.75,26.72C72.93,116.72,90.31,107.88,76.33,90.78z"/>
					<path class="st154" d="M77.76,88.03c0,0-10.04,12.76-5.75,26.72C74.35,113.96,91.73,105.12,77.76,88.03z"/>
				</g>
				<g>
					<path class="st156" d="M72.24,79.89c0,0-4.7,16.85,5.36,28.96C79.61,107.11,93.23,91.13,72.24,79.89z"/>
					<path class="st154" d="M72.52,76.56c0,0-4.7,16.85,5.36,28.96C79.89,103.78,93.51,87.8,72.52,76.56z"/>
				</g>
				<g>
					<path class="st156" d="M67.81,70.04c0,0-0.06,17.49,12.85,26.51C82.14,94.33,91.03,75.32,67.81,70.04z"/>
					<path class="st154" d="M67.2,66.75c0,0-0.06,17.49,12.85,26.51C81.52,91.05,90.42,72.03,67.2,66.75z"/>
				</g>
			</g>
			<g>
				<path class="st6" d="M94.81,97.78c-1.95,7.41-9.09,15.61-14.78,15.73l-0.15-0.95l-0.05-0.34l-0.21-1.31l0.04-0.02l-3.71-16.14
					l17.43-6.78l0.84,5.26L94.81,97.78z"/>
			</g>
			<path class="st150" d="M99.4,50.2c-3.46-3.54-22.37-7.14-29.01,1.7c-5.66,7.54-5.26,17.68-7.45,26.85
				c-3.69,15.5,11.04,30.99,15.51,30.41c7.77-1.02,17.66-8.17,20.8-14.18c2.33-4.48,1.11-9.34,2.43-14.29
				C104.37,70.6,107.06,58.03,99.4,50.2z"/>
			<g>
				<path class="st6" d="M68.95,90.69l-0.19-0.07C68.82,90.65,68.88,90.67,68.95,90.69z"/>
			</g>
			<g>
				<path class="st6" d="M69.34,90.91l-0.22,0C69.1,90.97,69.2,90.95,69.34,90.91z"/>
			</g>
			<g>
				<g>
					<g>
						<g>
							<path class="st6" d="M75.05,82.24c-0.86,0.64-1.71,1.11-0.8,2.32c1.27,1.69,3.94,1.39,5.02,1.19
								c-0.65-0.15-3.53-0.98-4.34-1.74C74.37,83.49,77.9,80.12,75.05,82.24z"/>
						</g>
					</g>
				</g>
				<g>
					<path class="st7" d="M68.95,88.87l-0.14-0.02c0.05,0.18,4.49,6.2,5.62,8.93c0.8,1.93,2.14,4.28,4.6,4.35
						c6.19,0.16,8.5-10.47,10.23-12.69C87.47,91.73,72.22,89.63,68.95,88.87z"/>
					<path class="st118" d="M81.35,97.25c-0.46-0.32-1.48-0.32-2.01-0.25c-1.04,0.14-2.16,0.48-3.05,1.06
						c-0.35,0.23-1.24,1.08-1.23,1.55c0.01,0.47,0.79,1.02,1.07,1.33c0.68,0.73,1.58,0.97,2.58,1.07c1.67,0.17,2.75-0.4,3.85-1.63
						c0.64-0.72,1.95-1.21,2.66-1.85l2.61-5.16C85.55,93.08,81.63,94.77,81.35,97.25z"/>
					<path class="st2" d="M70.71,88.44c0.36,1.04,1.08,2.07,1.74,2.81c0.8,0.9,1.79,1.34,2.9,1.59c0.68,0.15,1.4,0.23,2.15,0.31
						c1.83,0.18,3.8,0.05,5.49-0.48c1.19-0.37,1.52-1.33,1.94-2.31L70.71,88.44z"/>
					<path class="st24" d="M78.13,101.57c-0.15-0.04-0.3-0.09-0.43-0.15c0.07,0.16,0.14,0.32,0.19,0.48h0.01
						c0.09,0.02,0.19,0.04,0.29,0.06L78.13,101.57z M90.73,88.02c-0.41,0.45-3.02,1.33-6.72,1.69c-0.04,0-0.07,0.01-0.11,0.01
						c-0.06,0.01-0.12,0.01-0.18,0.01c-0.19,0.02-0.37,0.04-0.56,0.05c-0.17,0.01-0.34,0.02-0.51,0.03
						c-0.17,0.01-0.35,0.02-0.53,0.03c-0.17,0.01-0.32,0.01-0.5,0.01h-0.01c-0.12,0.01-0.22,0.01-0.34,0.01
						c-0.69,0.01-1.41,0-2.14-0.04h-0.01c-0.8-0.03-1.62-0.1-2.47-0.21c-0.11-0.01-0.22-0.02-0.34-0.04
						c-0.04-0.01-0.07-0.01-0.11-0.01c-0.12-0.01-0.24-0.04-0.36-0.06c-0.04-0.01-0.07-0.01-0.1-0.01
						c-0.69-0.09-1.44-0.21-2.18-0.33c-0.25-0.04-0.49-0.08-0.73-0.12c-0.44-0.07-0.88-0.15-1.3-0.22
						c-0.13-0.02-0.26-0.04-0.38-0.06c-0.12-0.02-0.24-0.04-0.35-0.07c-0.44-0.07-0.86-0.14-1.22-0.22c-0.01,0-0.01,0-0.01,0
						c-0.93-0.17-1.54-0.28-1.54-0.28s1.74,2.7,3.34,5.33v0.01c0,0,0,0.01,0.01,0.01c0.4,0.65,0.79,1.29,1.14,1.89v0.01
						c0.1,0.17,0.19,0.32,0.28,0.48c0,0.01,0.01,0.01,0.01,0.01v0.01c0.07,0.12,0.14,0.25,0.2,0.36c0.04,0.07,0.09,0.15,0.12,0.22
						c0.35,0.63,0.62,1.15,0.77,1.49c0.12,0.28,0.29,0.71,0.55,1.2c0.61,1.17,1.64,2.68,3.26,3.26c0.14,0.05,0.3,0.09,0.46,0.13
						c0.04,0.01,0.09,0.02,0.12,0.03c0.09,0.01,0.17,0.03,0.25,0.04c0.15,0.02,0.3,0.02,0.46,0.03c0.45,0.04,0.88,0.01,1.3-0.06
						c0.12-0.01,0.25-0.04,0.37-0.06c0.25-0.05,0.48-0.12,0.71-0.2c0.1-0.03,0.19-0.06,0.29-0.1c0.19-0.08,0.39-0.17,0.58-0.27h0.01
						c0.04-0.01,0.07-0.04,0.12-0.06c0.24-0.13,0.47-0.27,0.7-0.43h0.01c3.45-2.35,5.7-7.56,6.82-10.78
						c0.22-0.63,0.4-1.19,0.53-1.63c0.19-0.62,0.29-1.03,0.3-1.1C90.74,88.01,90.74,88.01,90.73,88.02z M83.56,99.15
						c-0.12,0.12-0.25,0.23-0.38,0.34c-0.03,0.02-0.06,0.04-0.08,0.07c-0.3,0.24-0.6,0.47-0.93,0.68c0,0,0,0-0.01,0
						c-0.17,0.11-0.34,0.21-0.51,0.31c-0.01,0.01-0.03,0.01-0.04,0.02c-0.05,0.03-0.1,0.06-0.15,0.09c-0.19,0.1-0.39,0.2-0.6,0.3
						c-0.56,0.26-1.16,0.46-1.82,0.61c-0.32,0.08-0.62,0.08-0.91,0.01c-0.15-0.04-0.3-0.09-0.43-0.15
						c-0.09-0.04-0.17-0.09-0.25-0.15c-0.71-0.45-1.34-1.32-1.93-2.48v-0.01c-0.09-0.16-0.17-0.33-0.25-0.51
						c-0.1-0.22-0.2-0.46-0.3-0.71c-0.27-0.66-0.74-1.5-1.27-2.4c-0.02-0.03-0.04-0.06-0.06-0.09c-0.27-0.46-0.58-0.93-0.88-1.41
						c-0.25-0.38-0.5-0.77-0.74-1.15c-0.27-0.41-0.55-0.82-0.8-1.19c-0.43-0.61-0.82-1.18-1.13-1.64c0.33,0.07,0.69,0.14,1.08,0.21
						c0.1,0.02,0.21,0.04,0.31,0.06h0.01c0.06,0.01,0.11,0.02,0.17,0.03c0.4,0.07,0.82,0.15,1.26,0.22
						c0.51,0.09,1.03,0.17,1.57,0.25c0.5,0.07,1.01,0.14,1.53,0.22c0.06,0.01,0.12,0.01,0.17,0.02c0.08,0.01,0.15,0.02,0.22,0.03
						c0.04,0.01,0.06,0.01,0.09,0.01c0.19,0.02,0.37,0.04,0.55,0.06c1.03,0.12,2.01,0.19,2.92,0.22c0.41,0.01,0.82,0.02,1.2,0.02
						c0.28,0.01,0.56,0.01,0.83,0c0.31-0.01,0.61-0.02,0.9-0.04h0.11c0.04,0,0.09-0.01,0.12-0.01c0.21-0.01,0.41-0.02,0.61-0.04
						c0.11-0.01,0.22-0.01,0.32-0.02c0.22-0.02,0.43-0.04,0.64-0.06c0.66-0.07,1.25-0.15,1.76-0.23h0.01
						c0.69-0.11,1.24-0.22,1.62-0.31c-0.04,0.1-0.12,0.48-0.27,1.06c-0.14,0.51-0.33,1.18-0.61,1.94c-0.28,0.79-0.66,1.65-1.13,2.53
						c-0.01,0-0.01,0.01-0.01,0.01c-0.62,1.13-1.44,2.27-2.49,3.26C83.57,99.14,83.56,99.14,83.56,99.15z M78.13,101.57
						c-0.15-0.04-0.3-0.09-0.43-0.15c0.07,0.16,0.14,0.32,0.19,0.48h0.01c0.09,0.02,0.19,0.04,0.29,0.06L78.13,101.57z"/>
					<g>
						<path class="st6" d="M69.05,88.43l-0.16-0.07C68.93,88.39,68.99,88.41,69.05,88.43z"/>
						<path class="st24" d="M78.18,87.46c-0.63,0.34-1.42,0.89-2.14,1.01c-0.71,0.11-1.4-0.42-1.97-0.82
							c-1.01-0.69-1.01-0.8-2.07-0.22c-0.66,0.36-2.15,1.25-2.96,1l2.75,1.18c0.11,0.24,1.72,0.23,2.17,0.29
							c0.97,0.13,1.93,0.26,2.9,0.39c1.12,0.15,2.22,0.2,3.33,0.3c0.8,0.08,8.58,0.27,10.56-2.61
							C88.83,87.74,83.77,90.96,78.18,87.46z"/>
					</g>
				</g>
				<path class="st119" d="M65.96,66.95l-0.23,0.34c0.95-1.2,5.77-1.85,6.64-0.49C73.22,60.99,67.26,64.81,65.96,66.95z"/>
				<path class="st119" d="M95.93,69.63l0.18,0.43c-0.8-1.54-6.56-4.21-8.07-3.29C88.81,60.87,95,67.04,95.93,69.63z"/>
				<g>
					<path class="st2" d="M96.53,78.16c-0.84-3.47-3.86-8.7-9.89-3.81c-1.94,1.24-3.49,2.97-3.85,3.38
						c-0.02,0.03-0.04,0.05-0.06,0.07c-0.02,0.01-0.02,0.02-0.02,0.02c0.11,0.04,0.23,0.09,0.34,0.13c0.48,0.19,0.96,0.37,1.43,0.54
						c0.36,0.13,0.71,0.25,1.07,0.37c0.12,0.04,0.24,0.08,0.36,0.12c0.12,0.04,0.24,0.08,0.36,0.11c0.15,0.05,0.29,0.09,0.44,0.14
						l0.51,0.15c0.28,0.08,0.56,0.16,0.85,0.23c0.06,0.01,0.11,0.03,0.17,0.04c0.17,0.04,0.34,0.08,0.51,0.12
						c0.02,0.01,0.03,0.01,0.05,0.01c0.16,0.04,0.31,0.07,0.47,0.1c0.1,0.02,0.2,0.04,0.3,0.06c0.11,0.02,0.22,0.04,0.32,0.06
						c0.13,0.02,0.27,0.05,0.4,0.07c0.14,0.02,0.29,0.05,0.44,0.07c0.02,0,0.05,0.01,0.07,0.01c0.06,0.01,0.12,0.02,0.18,0.02
						c0.12,0.02,0.24,0.03,0.36,0.05c0.25,0.03,0.49,0.05,0.74,0.08c0.13,0.01,0.25,0.02,0.37,0.03c0.12,0.01,0.25,0.01,0.37,0.02
						c0.11,0,0.22,0.01,0.33,0.01c0.03,0,0.05,0,0.08,0c0.24,0,0.48,0.01,0.71,0c0.52-0.01,1.03-0.04,1.56-0.09
						c0.21-0.02,0.42-0.05,0.63-0.08l0.01,0c0.21-0.03,0.42-0.06,0.62-0.1c0-0.06,0.01-0.12,0.01-0.18
						C96.79,79.33,96.71,78.74,96.53,78.16z"/>
					<g>
						<g>
							<path class="st22" d="M91.96,76.23c0.08,2.28-1.09,4.17-2.62,4.23c-1.53,0.05-2.84-1.75-2.92-4.03
								c-0.08-2.28,1.09-4.17,2.62-4.23C90.57,72.14,91.88,73.95,91.96,76.23z"/>
							<path class="st23" d="M90.97,76.11c0.06,1.59-0.7,2.91-1.68,2.94c-0.99,0.04-1.83-1.22-1.89-2.81
								c-0.06-1.59,0.7-2.9,1.68-2.94C90.06,73.26,90.91,74.52,90.97,76.11z"/>
							<path class="st2" d="M92.66,74.58l-3.1,0.7c0,0,2.34,1.3,2.98,0.86C92.86,75.92,92.66,74.58,92.66,74.58z"/>
						</g>
						<path class="st6" d="M96.77,80.11c0.02-0.47-0.05-1.16-0.24-1.94c-0.84-3.47-3.86-8.7-9.89-3.81
							c-1.91,1.55-3.69,3.25-3.91,3.45c-0.02,0.01-0.02,0.02-0.02,0.02s4.47-11.49,11.32-9.04C97.47,70.01,97.83,77.23,96.77,80.11z
							"/>
						<path class="st6" d="M96.14,80.2c-5.73,2.29-10.91-0.45-13.08-2.25c0.48,0.19,0.96,0.37,1.43,0.54
							c0.36,0.13,0.71,0.25,1.07,0.37c0.12,0.04,0.24,0.08,0.36,0.12c0.12,0.04,0.24,0.08,0.36,0.11c0.15,0.05,0.29,0.09,0.44,0.14
							l0.51,0.15c0.28,0.08,0.56,0.16,0.85,0.23c0.06,0.01,0.11,0.03,0.17,0.04c0.17,0.04,0.34,0.08,0.51,0.12
							c0.02,0.01,0.03,0.01,0.05,0.01c0.16,0.04,0.31,0.07,0.47,0.1c0.1,0.02,0.2,0.04,0.3,0.06c0.11,0.02,0.22,0.04,0.32,0.06
							c0.13,0.02,0.27,0.05,0.4,0.07c0.14,0.02,0.29,0.05,0.44,0.07c0.02,0,0.05,0.01,0.07,0.01c0.06,0.01,0.12,0.02,0.18,0.02
							c0.12,0.02,0.24,0.03,0.36,0.05c0.25,0.03,0.49,0.05,0.74,0.08c0.13,0.01,0.25,0.02,0.37,0.03c0.12,0.01,0.25,0.01,0.37,0.02
							c0.11,0,0.22,0.01,0.33,0.01c0.03,0,0.05,0,0.08,0c0.24,0,0.48,0.01,0.71,0c0.52-0.01,1.03-0.04,1.56-0.09
							C95.72,80.26,95.93,80.23,96.14,80.2z"/>
					</g>
				</g>
				<g>
					<path class="st2" d="M64.5,75.14c1.38-2.65,4.79-6.29,8.31-1.15c1.2,1.39,2.01,3.09,2.19,3.5c0.01,0.03,0.02,0.05,0.03,0.07
						c0.01,0.01,0.01,0.02,0.01,0.02c-0.09,0.01-0.19,0.03-0.28,0.04c-0.4,0.06-0.8,0.11-1.2,0.16c-0.3,0.03-0.59,0.07-0.89,0.09
						c-0.1,0.01-0.2,0.02-0.3,0.03c-0.1,0.01-0.2,0.01-0.29,0.02c-0.12,0.01-0.24,0.02-0.36,0.02l-0.42,0.02
						c-0.23,0.01-0.46,0.02-0.69,0.02c-0.05,0-0.09,0-0.14,0c-0.14,0-0.27,0-0.41,0c-0.01,0-0.02,0-0.04,0c-0.13,0-0.25,0-0.37-0.01
						c-0.08,0-0.16,0-0.24-0.01c-0.09,0-0.17-0.01-0.26-0.02c-0.1-0.01-0.21-0.01-0.32-0.02c-0.12-0.01-0.23-0.02-0.35-0.03
						c-0.02,0-0.04,0-0.06-0.01c-0.05-0.01-0.1-0.01-0.14-0.02c-0.1-0.01-0.19-0.02-0.29-0.04c-0.19-0.02-0.38-0.05-0.58-0.08
						c-0.1-0.02-0.19-0.03-0.29-0.05c-0.09-0.02-0.19-0.04-0.29-0.06c-0.08-0.02-0.17-0.04-0.25-0.06c-0.02,0-0.04-0.01-0.06-0.02
						c-0.18-0.04-0.36-0.09-0.54-0.14c-0.39-0.11-0.77-0.23-1.16-0.38c-0.15-0.06-0.31-0.12-0.46-0.19l-0.01,0
						c-0.15-0.06-0.3-0.13-0.45-0.2c0.01-0.05,0.02-0.1,0.03-0.14C64.06,76.03,64.24,75.57,64.5,75.14z"/>
					<g>
						<path class="st22" d="M70.9,74.08c0.08,2.28-1.09,4.17-2.62,4.23c-1.53,0.05-2.84-1.75-2.92-4.03
							c-0.08-2.28,1.09-4.17,2.63-4.23C69.51,69.99,70.82,71.8,70.9,74.08z"/>
						<path class="st23" d="M69.91,73.96c0.06,1.59-0.7,2.9-1.68,2.94c-0.99,0.03-1.83-1.22-1.89-2.81c-0.06-1.59,0.7-2.9,1.68-2.94
							C69.01,71.11,69.85,72.37,69.91,73.96z"/>
						<path class="st2" d="M71.6,72.43l-3.1,0.7c0,0,2.34,1.3,2.98,0.86C71.8,73.77,71.6,72.43,71.6,72.43z"/>
					</g>
					<path class="st6" d="M63.9,76.66c0.08-0.38,0.29-0.93,0.6-1.53c1.38-2.65,4.79-6.29,8.31-1.15c1.12,1.63,2.1,3.35,2.22,3.56
						c0.01,0.01,0.01,0.02,0.01,0.02s-0.92-10.19-6.64-9.55C65.54,68.34,63.71,74.12,63.9,76.66z"/>
					<path class="st6" d="M64.36,76.87c3.85,2.98,8.36,1.78,10.4,0.75c-0.4,0.06-0.8,0.11-1.2,0.16c-0.3,0.03-0.59,0.07-0.89,0.09
						c-0.1,0.01-0.2,0.02-0.3,0.03c-0.1,0.01-0.2,0.01-0.29,0.02c-0.12,0.01-0.24,0.02-0.36,0.02l-0.42,0.02
						c-0.23,0.01-0.46,0.02-0.69,0.02c-0.05,0-0.09,0-0.14,0c-0.14,0-0.27,0-0.41,0c-0.01,0-0.02,0-0.04,0c-0.13,0-0.25,0-0.37-0.01
						c-0.08,0-0.16,0-0.24-0.01c-0.09,0-0.17-0.01-0.26-0.02c-0.1-0.01-0.21-0.01-0.32-0.02c-0.12-0.01-0.23-0.02-0.35-0.03
						c-0.02,0-0.04,0-0.06-0.01c-0.05-0.01-0.1-0.01-0.14-0.02c-0.1-0.01-0.19-0.02-0.29-0.04c-0.19-0.02-0.38-0.05-0.58-0.08
						c-0.1-0.02-0.19-0.03-0.29-0.05c-0.09-0.02-0.19-0.04-0.29-0.06c-0.08-0.02-0.17-0.04-0.25-0.06c-0.02,0-0.04-0.01-0.06-0.02
						c-0.18-0.04-0.36-0.09-0.54-0.14c-0.39-0.11-0.77-0.23-1.16-0.38C64.67,76.99,64.51,76.93,64.36,76.87z"/>
				</g>
			</g>
			<path class="st150" d="M96.76,114.48c-1.54-1.45-6-2.68-7.88-1.99l-8.47,3.56c-0.61,2.63-3.29,16.98,1.81,22.21
				C91.46,134.52,105.09,122.33,96.76,114.48z"/>
			<g>
				<path class="st153" d="M110.4,74.37l-10.01,4.75c5.8,9.23,0.97,21.77-2.78,30.96c-2.61,6.41-5.8,11.94-7.72,19.14l3.04,1.22
					c3.33-9.42,10.29-17.01,14-21.63c3.72-4.63,6.12-10.5,6.79-16.44C114.3,87.21,113.62,78.66,110.4,74.37z"/>
				<g>
					<path class="st154" d="M93.91,139.33c0.34,2.76-0.46,5.8-1.57,8.26c-0.14-1.53-0.24-3.08-0.79-4.51
						c-0.37,3.32-1.65,6.2-3.1,9.1c-0.08-2.09-2.51-9.58-2.86-11.53c-0.14-0.79-0.21-1.54-0.22-2.25
						c-0.13-6.13,4.15-8.97,6.22-10.82l1.48,0.16l1.33,0.14C92.19,131.13,93.46,135.75,93.91,139.33z"/>
					<path class="st155" d="M91.8,133.47c-0.08,2.19,0.9,5.14,0.31,7.14c-0.16-1.2-1.12-2.66-1.81-3.69c0.1,1.8-0.15,3.41-0.35,5.15
						c-0.17-0.63-0.45-1.22-0.87-1.74c0.13,2.1-0.92,4.15-0.91,6.21c-0.36-2.92-2.38-5.23-2.8-8.13c-0.13-6.13,4.15-8.97,6.22-10.82
						l1.48,0.16c-0.18,0.63-0.34,1.26-0.5,1.79C92.18,130.82,91.85,132.13,91.8,133.47z"/>
				</g>
				<g>
					<path class="st156" d="M99.14,108.93c0,0-9.58,9.3-7.61,21.13C93.53,129.68,108.65,124.37,99.14,108.93z"/>
					<path class="st154" d="M100.6,106.84c0,0-9.58,9.3-7.61,21.13C94.99,127.59,110.12,122.29,100.6,106.84z"/>
				</g>
				<g>
					<g>
						<path class="st157" d="M83.92,126.82c0.35,0.14,0.71,0.29,1.05,0.41c-0.19,0.09-0.6-0.07-0.84,0.03
							c-0.22,0.09-0.77,2.4-0.53,3.17c0.11,0.36,0.11,0.37,0.4,0.43c0.65,0.15,5.24-0.6,6.39,0.26l0.48-2.33
							c-0.03-0.11-0.14-0.35-0.35-0.67c-0.72-1.13-2.56-3.24-5.37-3.7c-0.1-0.02-0.2-0.03-0.31-0.05
							C84.35,125.16,84.16,125.95,83.92,126.82z"/>
						<path class="st158" d="M83.92,126.82c0.35,0.14,0.71,0.29,1.05,0.41c-0.19,0.09-0.6-0.07-0.84,0.03
							c-0.22,0.09-0.77,2.4-0.53,3.17c0.11,0.36,0.11,0.37,0.4,0.43c0.65,0.15,5.24-0.6,6.39,0.26l0.48-2.33
							c-0.03-0.11-0.14-0.35-0.35-0.67c-0.83-0.72-1.89-1.24-2.85-1.59c0.63,0.51,1.18,1.27,1.66,1.91
							c-0.37-0.07-0.72-0.14-1.09-0.2c0.18,0.17,0.42,0.27,0.61,0.43c0.2,0.17,0.33,0.39,0.52,0.57c-0.27,0.22-0.64,0.26-0.98,0.33
							c-0.48,0.11-0.97,0.26-1.46,0.32c-0.74,0.1-1.58,0.08-2.26-0.28c-0.23-0.12-0.49-0.38-0.59-0.62
							c-0.11-0.24-0.17-1.05,0.08-1.26c0.17-0.14,0.89-0.08,1.13-0.08c0.4-0.01,0.81,0.07,1.19,0.07c-0.5-0.6-1.39-0.77-1.61-1.53
							c-0.18-0.61-0.01-1.22,0.29-1.78c-0.1-0.02-0.2-0.03-0.31-0.05C84.35,125.16,84.16,125.95,83.92,126.82z"/>
					</g>
					<g>
						<path class="st157" d="M92.01,131.6c-1.17,0.75-2.61,0.92-3.13-0.66c-0.26-0.78-0.29-1.92,0-2.87
							c0.21-0.66,0.57-1.23,1.15-1.51c0.83-0.41,2.59-0.48,3.76-0.12c0.63,0.19,1.1,0.51,1.17,0.96
							C95.17,128.66,92.75,131.13,92.01,131.6z"/>
						<path class="st158" d="M92.01,131.6c-1.17,0.75-2.61,0.92-3.13-0.66c-0.26-0.78-0.29-1.92,0-2.87
							c0.06,0.86,0.37,1.68,0.99,2.28c0.41-0.83,0.71-1.87,1.54-2.44c-0.36,0.84-0.44,1.53-0.42,2.43c0.99-0.55,1.74-1.11,2.35-2.12
							c0.3-0.49,0.49-1.04,0.48-1.62c0-0.04-0.01-0.1-0.02-0.17c0.63,0.19,1.1,0.51,1.17,0.96
							C95.17,128.66,92.75,131.13,92.01,131.6z"/>
					</g>
					<g>
						<path class="st157" d="M101,131.99c-0.4-0.14-0.82-0.3-1.2-0.46c0.09,0.22,0.56,0.4,0.68,0.66c0.12,0.25-1.18,2.6-1.96,3.07
							c-0.37,0.22-0.37,0.23-0.67,0.06c-0.66-0.37-3.96-4.49-5.59-4.64l1.37-2.32c0.11-0.07,0.39-0.19,0.8-0.3
							c1.48-0.41,4.63-0.78,7.35,0.95c0.1,0.06,0.2,0.13,0.29,0.2C101.91,130.25,101.46,131.06,101,131.99z"/>
						<path class="st158" d="M101,131.99c-0.4-0.14-0.82-0.3-1.2-0.46c0.09,0.22,0.56,0.4,0.68,0.66c0.12,0.25-1.18,2.6-1.96,3.07
							c-0.37,0.22-0.37,0.23-0.67,0.06c-0.66-0.37-3.96-4.49-5.59-4.64l1.37-2.32c0.11-0.07,0.39-0.19,0.8-0.3
							c1.25,0.03,2.54,0.39,3.62,0.83c-0.92-0.04-1.96,0.17-2.85,0.35c0.37,0.22,0.72,0.43,1.07,0.66c-0.29,0.01-0.55-0.09-0.85-0.1
							c-0.3-0.01-0.58,0.08-0.87,0.09c0.06,0.39,0.35,0.71,0.57,1.02c0.32,0.45,0.63,0.95,0.99,1.38c0.55,0.65,1.28,1.27,2.12,1.48
							c0.29,0.07,0.7,0.05,0.97-0.07c0.28-0.12,0.94-0.75,0.89-1.12c-0.03-0.24-0.7-0.74-0.89-0.92c-0.33-0.32-0.73-0.55-1.06-0.85
							c0.88-0.13,1.76,0.4,2.52-0.07c0.61-0.38,0.94-1.02,1.11-1.71c0.1,0.06,0.2,0.13,0.29,0.2
							C101.91,130.25,101.46,131.06,101,131.99z"/>
					</g>
				</g>
				<g>
					<path class="st156" d="M104.26,98.63c0,0-10.96,10.64-8.71,24.19C97.84,122.38,115.15,116.31,104.26,98.63z"/>
					<path class="st154" d="M105.93,96.24c0,0-10.96,10.64-8.71,24.19C99.51,120,116.82,113.93,105.93,96.24z"/>
				</g>
				<g>
					<path class="st156" d="M106.51,89.26c0,0-10.04,12.76-5.75,26.72C103.1,115.2,120.48,106.36,106.51,89.26z"/>
					<path class="st154" d="M107.93,86.51c0,0-10.04,12.76-5.75,26.72C104.53,112.45,121.91,103.61,107.93,86.51z"/>
				</g>
				<g>
					<path class="st156" d="M102.42,78.38c0,0-4.7,16.85,5.36,28.96C109.79,105.59,123.41,89.61,102.42,78.38z"/>
					<path class="st154" d="M102.7,75.05c0,0-4.7,16.85,5.36,28.96C110.07,102.26,123.69,86.28,102.7,75.05z"/>
				</g>
				<g>
					<path class="st156" d="M97.99,68.52c0,0-0.06,17.49,12.85,26.51C112.31,92.81,121.21,73.8,97.99,68.52z"/>
					<path class="st154" d="M97.38,65.24c0,0-0.06,17.49,12.85,26.51C111.7,89.53,120.6,70.51,97.38,65.24z"/>
				</g>
			</g>
			<g>
				<path class="st153" d="M108.41,58.46c-1.4-3.69-3.87-8.06-7.62-10.26c-8.77-5.15-19.87-3.46-27.8,2.03l4.39,4.7
					c-0.38,0.27-0.74-0.2-0.8,0.41c7.14,0.59,13.42,5.09,17.25,11.15c3.14,4.98,3.1,10.67,5.78,15.45c2.2,3.93,7.02,5.52,10.83,2.3
					c4.15-3.51,3.94-10.73,3.85-15.44C109.79,67.82,109.71,61.9,108.41,58.46z"/>
				<g>
					<g>
						<path class="st154" d="M98.69,70.06c-0.02,0.49-0.05,0.98-0.08,1.46C98.7,71.04,98.72,70.55,98.69,70.06z"/>
						<path class="st154" d="M98.27,52.98c1.8,0.11,3.29,0.52,4.59,1.9c-1.86-2.7-3.29-5.05-6.64-6.11
							c-3.25-1.02-6.69-0.71-10.06-0.93l-6.33,4.94c4.23,1.32,8.55,3,11.99,6.02c2.86,2.51,6.66,6.99,6.87,11.26
							c0.19-4.39-0.05-8.8-2.2-12.78c1.9,0.79,5.28,3.63,5.38,5.8C102.39,60.18,100.68,54.71,98.27,52.98z"/>
					</g>
				</g>
			</g>
			<g>
				<g>
					<path class="st150" d="M108.18,78.24c-1.73-0.84-4.11,0.32-5.32,1.4c-1.76,1.59-4.17,7.56-2.43,9.16
						c2.78,2.55,8.44-2.33,9.28-5.85C110.05,81.49,109.74,79,108.18,78.24z"/>
					<path class="st6" d="M109,81.47c-0.37-4.25-6.36-2.6-6.73,0.85c1.32-0.64,2.14,1.26,1.67,2.29c-0.52,1.13-2.18,1.23-2.74,0.09
						c-0.04,1.9,2.71,1.7,3.66,0.68c1.18-1.27,0.54-3.54-1.13-4.05c1.29-2.22,5.2-1.53,5.08,1.19L109,81.47z"/>
				</g>
			</g>
			<g>
				<path class="st153" d="M85.33,45.38c-5.64-3.27-19.31,0.09-26.96,11.76c-4.03,6.14-8.45,21.08-0.31,25.83
					c-2.15-9.3,7.62-18,15.23-19.45c-0.76,1.73-1.47,3.6-2.26,5.33C82.86,61.86,85.41,45.93,85.33,45.38z"/>
				<path class="st154" d="M82.95,46.39c0,0-12.19,0.04-19.06,10.04c2.54-2.56,7.19-3.49,10.67-3.49c-2.55,0.67-5.83,3.01-7.42,5.03
					c1.2-0.63,2.76-0.83,4.09-0.75c-0.74,0.17-1.15,1.55-1.72,2.3C70.37,58.96,79.66,61.95,82.95,46.39z"/>
			</g>
			<path class="st159" d="M108.94,137.81c-0.02,0.9-0.04,1.74-0.07,2.5l-5.6,0.24c0.03-0.49,0.06-0.98,0.09-1.47
				c0.26-4.28,0.42-8.61,1.27-12.78c0.53-2.6,1.87-6.78,4.07-8.85c0.07,0.03,0.13,0.06,0.2,0.08c0.01,0,0.01,0.01,0.02,0.01
				c0.12,0.05,0.24,0.1,0.35,0.16c0.21,0.09,0.42,0.19,0.62,0.29c0.1,0.05,0.2,0.1,0.3,0.16c0.29,0.15,0.57,0.31,0.85,0.47
				c0.09,0.06,0.19,0.11,0.28,0.17c0.36,0.22,0.7,0.46,1.04,0.71c0.1,0.08,0.2,0.15,0.3,0.23c0.1,0.08,0.21,0.16,0.31,0.24
				c0.1,0.08,0.2,0.17,0.3,0.26c0.08,0.07,0.16,0.13,0.23,0.2c0.01,0.01,0.03,0.02,0.04,0.03
				C109.38,124.14,109.08,132.07,108.94,137.81z"/>
			<path class="st160" d="M116.98,145.24c-0.01,0.02-0.01,0.04-0.01,0.07c-0.08,0.35-0.15,0.7-0.22,1.05
				c-0.27,1.25-0.55,2.43-0.81,3.49c-0.33,1.36-0.64,2.55-0.92,3.51c-0.3,1.03-0.58,1.79-0.8,2.2c-0.64,1.17-1.26,2.34-1.86,3.51
				c-0.11,0.04-0.22,0.08-0.32,0.12c-0.06,0.03-0.14,0.05-0.21,0.07c-0.08,0.04-0.16,0.06-0.25,0.09c-0.18,0.06-0.37,0.14-0.56,0.2
				c-0.37,0.12-0.74,0.25-1.12,0.37c-0.17,0.06-0.33,0.11-0.5,0.16c-0.08,0.03-0.17,0.06-0.25,0.09c-0.23,0.07-0.45,0.14-0.68,0.2
				c-0.04,0.01-0.07,0.02-0.11,0.04c-0.05,0.01-0.09,0.03-0.14,0.04c-0.21,0.07-0.43,0.13-0.64,0.19c-0.14,0.04-0.28,0.09-0.43,0.13
				c-0.09,0.03-0.19,0.06-0.3,0.09c-0.08,0.02-0.17,0.04-0.25,0.06c-0.25,0.07-0.49,0.14-0.74,0.2c0.63-1.91,1.19-3.81,1.69-5.65
				c0.55-2.03,0.51-3.91,0.2-5.73c-0.09-0.53-0.21-1.05-0.34-1.56c-0.54-2.13-1.36-4.2-1.94-6.35c0,0,0-0.01,0-0.01
				c-0.12-0.44-0.23-0.88-0.32-1.33c-0.12-0.56-0.21-1.11-0.27-1.68c-0.01-0.01-0.01-0.01-0.01-0.02c-0.11-0.97-0.13-1.96-0.04-3
				l0.69,0.37l3.21,1.72l0.01,0.01l0.19,0.1l0.2,0.11C111.26,141.01,113.62,143.48,116.98,145.24z"/>
		</g>
	</g>
	<g>
		<g>
			<path class="st150" d="M126.17,152.47c-0.21,0.12-0.42,0.25-0.63,0.38c-0.24,0.14-0.49,0.29-0.74,0.42c-0.5,0.3-1,0.58-1.5,0.86
				c-0.52,0.28-1.04,0.56-1.57,0.83c-0.27,0.14-0.53,0.27-0.81,0.41c-0.42,0.22-0.85,0.43-1.28,0.64c-0.01,0.01-0.02,0.01-0.04,0.02
				c-0.42,0.2-0.85,0.4-1.28,0.6c-0.32,0.14-0.64,0.29-0.97,0.43c-0.03,0.01-0.07,0.04-0.1,0.04c-0.92,0.41-1.86,0.8-2.8,1.17
				c-0.62,0.25-1.26,0.49-1.88,0.71c-0.07,0.03-0.14,0.06-0.22,0.09c-0.11,0.04-0.22,0.08-0.32,0.12c-0.06,0.03-0.14,0.05-0.21,0.07
				c-0.08,0.04-0.16,0.06-0.25,0.09c-0.18,0.06-0.37,0.14-0.56,0.2c-0.37,0.12-0.74,0.25-1.12,0.37c0.19-2.56,0.4-5.12,0.61-7.69
				c0.08-0.91,0.14-1.83,0.22-2.74c0.08-1.01,0.15-2.02,0.22-3.03l6.02-1.13l5.52-1.03l0.6-0.12c0.11,0,2.7-0.69,2.81-0.69
				c0.08,0.33,0.24,2.92,0.27,6.83C126.16,150.98,126.17,151.71,126.17,152.47z"/>
		</g>
		<g>
			<path class="st147" d="M128,146.05c0.28,0.61,0.35,1.34,0.16,2.07c-0.4,1.56-1.85,2.55-3.23,2.19c-0.53-0.14-0.97-0.45-1.3-0.88
				c-0.02,0.17-0.04,0.34-0.09,0.52c-0.4,1.56-1.85,2.54-3.23,2.19c-0.83-0.21-1.44-0.86-1.72-1.68c0,0.26-0.03,0.52-0.1,0.78
				c-0.4,1.57-1.85,2.55-3.23,2.19c-1.13-0.29-1.87-1.39-1.87-2.63c-0.61,1.09-1.78,1.69-2.91,1.4c-1.18-0.3-1.93-1.49-1.87-2.8
				c-0.55,0.32-1.19,0.44-1.82,0.28c-0.8-0.21-1.4-0.81-1.69-1.59c-0.21-0.57-0.25-1.22-0.08-1.88c0.18-0.69,0.56-1.27,1.05-1.67
				c-1.26-3.76-0.75-9.03,0.38-13.44c1.83-7.14,5.42-12.67,11.73-11.05c0.53,0.14,1.05,0.36,1.56,0.67
				c4.82,2.87,8.5,12.71,8.26,19.53c0.23-0.01,0.47,0,0.7,0.06c1.38,0.35,2.18,1.91,1.77,3.47
				C130.13,145.07,129.11,145.96,128,146.05z"/>
			<g class="st148">
				<g>
					<path class="st149" d="M128,146.05c0.28,0.61,0.35,1.34,0.16,2.07c-0.4,1.56-1.85,2.55-3.23,2.19
						c-0.53-0.14-0.97-0.45-1.3-0.88c-0.02,0.17-0.04,0.34-0.09,0.52c-0.4,1.56-1.85,2.54-3.23,2.19c-0.83-0.21-1.44-0.86-1.72-1.68
						c0,0.26-0.03,0.52-0.1,0.78c-0.4,1.57-1.85,2.55-3.23,2.19c-1.13-0.29-1.87-1.39-1.87-2.63c-0.61,1.09-1.78,1.69-2.91,1.4
						c-1.18-0.3-1.93-1.49-1.87-2.8c-0.55,0.32-1.19,0.44-1.82,0.28c-0.8-0.21-1.4-0.81-1.69-1.59c0.7,0.5,1.54,0.63,2.49-0.06
						c1.05,1.9,3.81,1.79,5.34,0.52c1.06,2.38,3.77,1.67,4.77-0.48c1.93,1.86,5.1-0.82,4.85-3.42c-0.11-1.12-0.69-2.33-1.53-2.95
						c-1.04-0.76-2.04-0.15-3.18-0.5c3.08-2.25,4.56-6.01,4.73-10.06c0.15-3.55-0.91-6.65-2.41-9.64c-0.09-0.17-0.23-0.45-0.41-0.79
						c4.82,2.87,8.5,12.71,8.26,19.53c0.23-0.01,0.47,0,0.7,0.06c1.38,0.35,2.18,1.91,1.77,3.47
						C130.13,145.07,129.11,145.96,128,146.05z"/>
				</g>
			</g>
		</g>
	</g>
</g>
</svg>
