<?xml version="1.0" encoding="utf-8"?>
<!-- Generator: Adobe Illustrator 27.2.0, SVG Export Plug-In . SVG Version: 6.00 Build 0)  -->
<svg version="1.1" id="Layer_1" xmlns="http://www.w3.org/2000/svg" xmlns:xlink="http://www.w3.org/1999/xlink" x="0px" y="0px"
	 viewBox="0 0 171.51 171.51" style="enable-background:new 0 0 171.51 171.51;" xml:space="preserve">
<style type="text/css">
	.st0{fill:#F7F2DA;}
	.st1{fill:#FBA479;}
	.st2{fill:#FFFFFF;}
	.st3{fill:#E1DFEA;}
	.st4{fill:#261411;}
	.st5{fill:#60312B;}
	.st6{fill:#EF7950;}
	.st7{fill:#60281F;}
	.st8{fill:#E8E6E6;}
	.st9{fill:#3A2827;}
	.st10{fill:#CCCCCC;}
	.st11{fill:#595857;}
	.st12{fill:#F28C5F;}
	.st13{fill:#E26939;}
	.st14{fill:#56413D;}
	.st15{fill:#44322E;}
	.st16{fill:#873421;}
	.st17{fill:#EA6CA0;}
	.st18{fill:#DB5290;}
	.st19{fill:#F48656;}
	.st20{fill:#82112F;}
	.st21{fill:#D85039;}
	.st22{fill:#574984;}
	.st23{fill:#291C51;}
	.st24{fill:#FC5135;}
	.st25{fill:#FFCC7B;}
	.st26{fill:#E8A749;}
	.st27{fill:#6D4A44;}
	.st28{fill:#D1E3E8;}
	.st29{fill:#FCFBFA;}
	.st30{fill:#4C4C4B;}
	.st31{fill:#686868;}
	.st32{fill:#FFB884;}
	.st33{fill:#EF9C62;}
	.st34{fill:#874410;}
	.st35{fill:#6D340D;}
	.st36{fill:#E89258;}
	.st37{fill:#3A2E26;}
	.st38{fill:#4C3F35;}
	.st39{opacity:0.1;}
	.st40{fill:#60120F;}
	.st41{fill:#F4F0ED;}
	.st42{fill:#E0312D;}
	.st43{fill:#F42F2F;}
	.st44{fill:#D31111;}
	.st45{fill:#DB9B19;}
	.st46{fill:#AF740B;}
	.st47{fill:#CC2121;}
	.st48{fill:#F74B4B;}
	.st49{fill:#FCF9E8;}
	.st50{opacity:0.5;fill:#827571;}
	.st51{fill:#665D5C;}
	.st52{fill:#4F4746;}
	.st53{fill:#5E3B2F;}
	.st54{fill:#492E27;}
	.st55{opacity:0.4;}
	.st56{fill:#443A36;}
	.st57{fill:#51415E;}
	.st58{fill:#066FB7;}
	.st59{fill:#066396;}
	.st60{fill:#0D8FD6;}
	.st61{fill:#FEAC74;}
	.st62{fill:#E3784C;}
	.st63{fill:#580801;}
	.st64{fill:#440502;}
	.st65{fill:#00ABB2;}
	.st66{fill:#008C8C;}
	.st67{fill:#914E34;}
	.st68{fill:#5B2E1D;}
	.st69{fill:#6A3221;}
	.st70{fill:#FAFAFC;}
	.st71{fill:#2B3B3F;}
	.st72{fill:#3F565B;}
	.st73{fill:#EF7348;}
	.st74{fill:#6F3D26;}
	.st75{fill:#BBBEBF;}
	.st76{fill:#D3D3D3;}
	.st77{fill:#939A9E;}
	.st78{fill:#F79C5E;}
	.st79{fill:#E07832;}
	.st80{fill:#604135;}
	.st81{fill:#EFEAE8;}
	.st82{fill:#4F3229;}
	.st83{fill:#1A3D3A;}
	.st84{fill:#E8E8E8;}
	.st85{fill:#0C83C4;}
	.st86{fill:#1B96EA;}
	.st87{fill:#B50F0F;}
	.st88{opacity:0.4;fill:#E89258;}
	.st89{fill:#26ACF7;}
	.st90{fill:#F45347;}
	.st91{fill:#FF3939;}
	.st92{fill:#686766;}
	.st93{fill:#5E5D5B;}
	.st94{fill:#424140;}
	.st95{fill:#E7E1CB;}
	.st96{fill:#D6CFBA;}
	.st97{fill:#CE5C37;}
	.st98{fill:#B74D30;}
	.st99{fill:#1B313D;}
	.st100{fill:#36474F;}
	.st101{fill:#29526D;}
	.st102{fill:#FCBD88;}
	.st103{fill:#FCA265;}
	.st104{fill:#496B7A;}
	.st105{fill:#B76049;}
	.st106{fill:#EDEDED;}
	.st107{fill:#7C7979;}
	.st108{fill:#EFE6E8;}
	.st109{fill:#B20D28;}
	.st110{fill:#346682;}
	.st111{fill:#AA0E28;}
	.st112{fill:#FF5050;}
	.st113{fill:#781A0E;}
	.st114{fill:#560904;}
	.st115{fill:#FF0B40;}
	.st116{fill:#BC0000;}
	.st117{fill:#FFD731;}
	.st118{fill:#EA6453;}
	.st119{fill:#602618;}
	.st120{fill:#A14F2A;}
	.st121{fill:#3A4E66;}
	.st122{fill:#EAE9EE;}
	.st123{opacity:0.3;fill:#3A4E66;}
	.st124{fill:#5E2701;}
	.st125{fill:#773000;}
	.st126{fill:#EA2F4A;}
	.st127{fill:#C41234;}
	.st128{fill:#F7F0F1;}
	.st129{fill:#F7A76F;}
	.st130{fill:#B24800;}
	.st131{fill:#8C3B03;}
	.st132{fill:#567391;}
	.st133{fill:#FF7271;}
	.st134{fill:#F75E5E;}
	.st135{fill:#700F28;}
	.st136{fill:#9E1533;}
	.st137{fill:#871231;}
	.st138{fill:#211B3A;}
	.st139{fill:#2E2951;}
	.st140{fill:#F28670;}
	.st141{fill:#F46060;}
	.st142{fill:#EBBF44;}
	.st143{fill:#E0A91E;}
	.st144{fill:#FFA992;}
	.st145{fill:#2C363F;}
	.st146{fill:#1D262D;}
	.st147{fill-rule:evenodd;clip-rule:evenodd;fill:#FFF5F5;}
	.st148{opacity:0.2;}
	.st149{fill:#7C4949;}
	.st150{fill:#F9AE7A;}
	.st151{fill:#FFF5F5;}
	.st152{fill:#C92727;}
	.st153{fill:#4C1B05;}
	.st154{fill:#592009;}
	.st155{opacity:0.4;fill:#592009;}
	.st156{fill:#3F1307;}
	.st157{fill:#664472;}
	.st158{fill:#473051;}
	.st159{fill:#352020;}
	.st160{opacity:0.3;fill:#7C4949;}
</style>
<g>
	<path class="st0" d="M163.74,85.75c0,22.31-9.37,42.42-24.37,56.63c-2.07,1.96-4.24,3.8-6.51,5.51c-0.38,0.3-0.75,0.58-1.13,0.85
		c-3.17,2.33-6.53,4.41-10.04,6.23c-2.69,1.41-5.47,2.65-8.34,3.73c-0.27,0.1-0.53,0.2-0.81,0.3c-8.35,3.05-17.37,4.72-26.78,4.72
		c-0.59,0-1.18-0.01-1.78-0.03c-0.25,0-0.51,0-0.76-0.02c-0.35,0-0.7-0.01-1.05-0.04c-1.21-0.05-2.4-0.13-3.59-0.25
		c-5.61-0.51-11.06-1.61-16.25-3.25c-1.74-0.55-3.46-1.16-5.14-1.82c-4.79-1.88-9.37-4.24-13.64-7
		C22.02,137.46,7.77,113.27,7.77,85.75c0-43.07,34.91-77.99,77.99-77.99S163.74,42.68,163.74,85.75z"/>
	<g>
		<g>
			<g>
				<path class="st75" d="M62.5,154.49c0,1.52-0.06,3.47-0.17,5.67c-1.74-0.55-3.46-1.16-5.14-1.82c-4.79-1.88-9.37-4.24-13.64-7
					c0.08-1.92,0.18-3.42,0.32-4.32c0.61-4.12,1.64-8.92,6.45-13.09c1.99-1.72,4.61-3.33,8.12-4.74l2.44,6.13
					c0.05,2.47,0.74,4.9,0.97,7.35C62.22,146.54,62.5,150.52,62.5,154.49z"/>
			</g>
		</g>
		<g>
			<path class="st76" d="M133.63,143.59c-0.12,0.59-0.24,1.19-0.35,1.8c-0.14,0.82-0.29,1.65-0.42,2.51
				c-0.38,0.3-0.75,0.58-1.13,0.85c-3.17,2.33-6.53,4.41-10.04,6.23c-2.69,1.41-5.47,2.65-8.34,3.73c-0.27,0.1-0.53,0.2-0.81,0.3
				c-8.35,3.05-17.37,4.72-26.78,4.72c-0.59,0-1.18-0.01-1.78-0.03c-0.25,0-0.51,0-0.76-0.02c-0.35,0-0.7-0.01-1.05-0.04
				c-1.21-0.05-2.4-0.13-3.59-0.25c-5.61-0.51-11.06-1.61-16.25-3.25c-1.74-0.55-3.46-1.16-5.14-1.82
				c-0.27-1.06-0.57-2.24-0.92-3.57c-0.86-3.24-6.9-17.68-6.02-20.66c0.01-0.06,0.04-0.12,0.07-0.18
				c1.24-2.48,14.05-9.47,24.31-14.75c1.39-0.71,2.74-1.41,4.01-2.04c0.4-0.2,0.79-0.4,1.16-0.58c0.23-0.12,0.45-0.23,0.67-0.34
				c0.06-0.03,0.11-0.06,0.16-0.08c4.13-2.08,6.98-3.46,6.98-3.46c0.24,0.32,1.08,0.76,2.34,1.27c1.59,0.64,3.85,1.39,6.43,2.19
				c0.41,0.12,0.83,0.25,1.26,0.38c2.15,0.65,4.47,1.31,6.77,1.96c0.23,0.06,0.46,0.12,0.69,0.19c0.26,0.07,0.52,0.14,0.78,0.22
				c5.31,1.47,10.31,2.77,12.69,3.39c0.27,0.07,0.51,0.14,0.7,0.19C138.16,127.5,134.57,138.96,133.63,143.59z"/>
			<g>
				<g>
					<g>
						<path class="st77" d="M84.12,138.63c0,0.03,0,0.07-0.01,0.09c-0.14,0.84-0.25,1.7-0.33,2.56c-0.22,2.26-0.27,4.56-0.35,6.81
							c-0.01,0.22-0.01,0.43-0.02,0.65c-0.14,4.5-0.18,9-0.19,13.5v1.44c-0.35,0-0.7-0.01-1.05-0.04c0-1.67,0.01-3.34,0.02-5.01
							c0.03-3.23,0.07-6.46,0.17-9.68c0.03-0.87,0.06-1.73,0.09-2.59c0.11-2.46,0.19-4.95,0.56-7.38c0.01-0.07,0.01-0.12,0.03-0.19
							c0.02-0.14,0.04-0.28,0.07-0.43c0.02-0.13,0.06-0.22,0.12-0.3c0.16-0.22,0.44-0.22,0.64-0.06l0.04,0.04
							c0.09,0.08,0.16,0.19,0.19,0.32C84.12,138.46,84.13,138.55,84.12,138.63z"/>
					</g>
					<g>
						<g>
							<path class="st77" d="M88.87,154.82c0,0.93-0.75,1.68-1.68,1.68c-0.93,0-1.68-0.75-1.68-1.68c0-0.93,0.75-1.68,1.68-1.68
								C88.11,153.14,88.87,153.89,88.87,154.82z"/>
						</g>
					</g>
				</g>
			</g>
			<path class="st77" d="M113.35,158.71c-0.27,0.1-0.53,0.2-0.81,0.3c0.14-3.62,0.37-6.61,0.75-8.59c0.44-2.28,4.48,1.65,8.4,4.55
				C118.99,156.39,116.21,157.63,113.35,158.71z"/>
			<path class="st77" d="M133.28,145.39c-0.14,0.82-0.29,1.65-0.42,2.51c-0.38,0.3-0.75,0.58-1.13,0.85
				C132.21,147.59,132.73,146.43,133.28,145.39z"/>
			<g>
				<g>
					<path class="st78" d="M98.64,129.85c0,0-0.8,4.37-1.66,6.62c-1.12,2.94-2.73,5.46-4.55,7.35c-0.43-0.39-0.86-0.75-1.31-1.09
						c-3.23-2.48-6.66-3.7-7.13-4.22c-0.4,0.47-3.02,0.2-5.81,1.37c-0.13-0.99-0.18-2.04-0.12-3.13c0.03-0.69,0.1-1.39,0.21-2.1
						c0.02-0.14,0.04-0.29,0.07-0.43c0.03-0.16,0.06-0.33,0.09-0.5c0.03-0.15,0.06-0.31,0.09-0.46c0.09-0.41,0.19-0.81,0.3-1.22
						c0.03-0.11,0.06-0.22,0.09-0.33c0.01-0.02,0.01-0.04,0.02-0.07c0.04-0.12,0.07-0.24,0.11-0.37c0.05-0.19,0.12-0.37,0.18-0.56
						c0.1-0.29,0.21-0.59,0.32-0.89c0.02-0.04,0.03-0.08,0.05-0.12c0.1-0.26,0.21-0.52,0.32-0.78c0.05-0.13,0.11-0.25,0.17-0.38
						c0.05-0.11,0.1-0.23,0.16-0.34c0.01-0.02,0.01-0.03,0.02-0.05c0.04-0.09,0.08-0.18,0.13-0.26c0.19-0.4,0.4-0.79,0.61-1.17
						c0.04-0.07,0.08-0.14,0.12-0.21c0.04-0.07,0.08-0.14,0.12-0.2l-0.97-12.71c-0.01-0.09-0.01-0.17-0.02-0.25l-1.44-18.93
						l-1.06-13.99l17.04-1.29l0.35,4.64l1.13,14.84v0l1.04,13.68l0.34,4.5L98.64,129.85z"/>
					<path class="st79" d="M79.56,129.82c-0.9,2.36-1.39,4.73-1.5,6.93c0.31-1.43,0.73-2.84,1.23-4.11c0.76-1.91,2.17-3.29,3-5.02
						c0.84-1.76-0.01-3.77,0.6-5.78c1.13-3.72,6.56-6.49,8.79-9.98c2.57-4.02,3.69-8.1,4.51-12.81c0.02-0.14,0.05-0.28,0.07-0.42
						c0.8-5.31-0.92-9.9-0.8-15.06l-0.33,0.21L78.81,94.42l2.43,31.89C80.6,127.39,80.04,128.57,79.56,129.82z"/>
					<path class="st33" d="M98.64,129.85c0,0-0.8,4.37-1.66,6.62c-1.12,2.94-2.73,5.46-4.55,7.35c-0.43-0.39-0.86-0.75-1.31-1.09
						c1.15-1.81,2.06-3.86,2.8-5.55c2.11-4.82,2.71-10.19,3.26-15.34c0.18-1.67,0.34-3.35,0.47-5.04L98.64,129.85z"/>
				</g>
				<g>
					<g>
						<g>
							<path class="st78" d="M59.45,69.71c0.78-1.05,2.22-0.87,3.41-0.94c1.27-0.08,3.15-0.19,3.95,1.72
								c0.63,1.5,0.87,3.59,1.29,5.21l2.09,10.25c-0.43,0.47-2.08,0.93-2.75,0.59c-0.88-0.45-5.95-9.06-7.49-12.65
								C59.24,72.23,58.46,71.04,59.45,69.71z"/>
							<path class="st79" d="M60.21,70.94c-0.01-1.02,1.24-0.97,2.08-1.09c0.83-0.12,2.23-0.49,3.02,0.01
								c0.77,0.48,1.02,2.49,1.2,3.44c-2.21-0.02-1.35,3.15,0.37,2.51l0.15,0.58c0.21,0.78,0.39,1.75,0.3,2.33
								c-0.16-0.61-0.27-1.86-0.79-2.23c-0.51-0.35-1.36,0-1.94-0.32c-1.49-0.83-0.29-2.51,0.8-3.12c-0.15-0.42-0.34-1.5-0.66-1.79
								c-0.37-0.34-1.32-0.21-1.84-0.23c-0.78-0.04-1.33-0.23-1.53,0.49c-0.14,0.48,0.21,1.19,0.34,1.66
								C61.23,72.71,60.21,71.64,60.21,70.94z"/>
						</g>
						<path class="st78" d="M64.08,79.3c0.5,11.29,9.95,21.92,9.76,22.36c-3.44,7.75,4.3,10.18,7.15,10.53
							c4.68,0.58,18.99-0.47,20.8-20.77c0.31-3.47-1.19-9.27-1.4-13.57c-0.01-0.21-0.02-0.41-0.02-0.63
							c-0.01-2.37,0.45-5.36,0.57-8.23c0.05-1.28,0.03-2.55-0.13-3.72c-0.2-1.43,0.25-7.43-0.92-13.73
							c-1.37-7.34-4.94-15.1-14.31-16.56c-9.81-1.53-15.53,5.37-18.48,12.79c-2.4,6.02-2.98,12.39-2.43,14.86
							c0.04,0.17,0.08,0.32,0.13,0.45C69.4,75.68,63.68,70.24,64.08,79.3z"/>
						<g>
							<path class="st79" d="M73.93,69.71c-0.3-0.25-3.82,0.31-5.11,0.72c-0.38,0.12-0.82,0.16-1,0.66
								c-0.18,0.49-0.37,1.46-0.43,1.96c-0.02,0.21,0.05,0.86,0.05,0.86c1.54-0.53,3.76-1.41,5.43-0.99
								c0.73,0.18,2.07,2.16,2.18,2.19C75.02,74.93,74.23,69.96,73.93,69.71z"/>
							<g>
								<path class="st2" d="M68,75.45c0,0,0.78,1.56,3.37,1.41c2.59-0.15,3.18-1.79,3.18-1.79s0.28,0.15,0.34,0.04
									c0.06-0.11-0.3-0.36-0.35-0.71c-0.06-0.35-0.79-3.08-1.46-3.31c-0.67-0.22-4.79,0.02-5.34,1.25
									C67.18,73.57,68,75.45,68,75.45z"/>
								<g>
									<g>
										<g>
											<path class="st37" d="M73.33,74.13c0.08,1.34-0.7,2.48-1.74,2.54c-1.04,0.06-1.94-0.98-2.02-2.32
												c-0.08-1.34,0.7-2.48,1.74-2.54C72.35,71.75,73.26,72.79,73.33,74.13z"/>
										</g>
									</g>
									<path class="st38" d="M71.84,74.35c0.03,0.56-0.29,1.04-0.73,1.06c-0.43,0.02-0.81-0.41-0.84-0.97
										c-0.03-0.56,0.29-1.04,0.73-1.06C71.43,73.36,71.81,73.79,71.84,74.35z"/>
									<path class="st2" d="M72.11,74.34c0.01,0.19-0.1,0.35-0.25,0.36c-0.15,0.01-0.27-0.14-0.29-0.33
										c-0.01-0.19,0.1-0.35,0.25-0.36C71.97,74,72.1,74.15,72.11,74.34z"/>
								</g>
								<path class="st36" d="M75.02,74.98L75.02,74.98c0-0.01-0.01-0.02-0.01-0.03c0-0.01-0.01-0.01-0.01-0.01
									c-0.03-0.07-0.08-0.14-0.12-0.2c-0.08-0.11-0.18-0.24-0.2-0.37c-0.01-0.07-0.07-0.32-0.17-0.66
									c-0.26-0.95-0.82-2.61-1.41-2.8c-0.23-0.08-0.81-0.1-1.49-0.06c-0.01,0-0.02,0-0.04,0.01h-0.04
									c-0.16,0.01-0.41,0.03-0.71,0.06c-0.04,0.01-0.09,0.01-0.14,0.01c-0.06,0.01-0.12,0.02-0.18,0.03
									c-0.07,0.01-0.14,0.02-0.22,0.04c-0.04,0.01-0.07,0.01-0.11,0.01c-0.04,0.01-0.08,0.01-0.12,0.02
									c-0.04,0.01-0.09,0.01-0.13,0.03c-0.03,0-0.06,0.01-0.09,0.01c-0.08,0.01-0.16,0.04-0.24,0.05
									c-0.08,0.02-0.16,0.04-0.24,0.06c-0.03,0.01-0.06,0.02-0.08,0.03c-0.07,0.01-0.14,0.04-0.21,0.06
									c-0.14,0.05-0.27,0.09-0.4,0.15c-0.05,0.01-0.1,0.04-0.14,0.06c-0.05,0.02-0.09,0.04-0.14,0.07
									c-0.29,0.15-0.53,0.32-0.68,0.54c-0.01,0.01-0.02,0.03-0.03,0.04c-0.01,0.02-0.02,0.04-0.03,0.06c-0.01,0-0.01,0-0.01,0.01
									c0,0.01-0.01,0.03-0.01,0.04c-0.01,0.02-0.02,0.05-0.04,0.08c-0.03,0.06-0.05,0.12-0.06,0.18
									c-0.02,0.07-0.04,0.14-0.06,0.22c0,0.01,0,0.01,0,0.01v0.01c0,0.01,0,0.01,0,0.01c-0.01,0.06-0.02,0.12-0.03,0.18
									c-0.01,0.04-0.01,0.07-0.01,0.1v0.03c-0.01,0.17-0.01,0.35-0.01,0.51c0,0.04,0.01,0.09,0.01,0.12c0,0.02,0,0.04,0.01,0.06
									v0.06c0.01,0.01,0.01,0.01,0.01,0.02v0.01c0,0.02,0.01,0.04,0.01,0.06c0.03,0.19,0.06,0.37,0.09,0.53
									c0.01,0.02,0.01,0.04,0.01,0.05c0.02,0.09,0.04,0.17,0.06,0.26c0.02,0.08,0.04,0.15,0.07,0.22c0,0.01,0,0.01,0,0.01v0.01
									c0.09,0.32,0.19,0.53,0.2,0.56c0.01,0.02,0.09,0.17,0.26,0.38l0.01,0.01c0.42,0.48,1.38,1.23,3.24,1.12
									c2.22-0.12,3.03-1.32,3.23-1.75c0.07,0.02,0.14,0.04,0.21,0.04c0.1-0.01,0.16-0.07,0.18-0.12c0.02-0.02,0.03-0.05,0.03-0.08
									v-0.02c0.01-0.01,0.01-0.01,0.01-0.01c0,0,0,0,0-0.01C75.05,75.06,75.04,75.02,75.02,74.98z M74.42,74.99
									c0,0.01-0.59,1.55-3.05,1.69c-0.38,0.02-0.71,0.01-1-0.04h-0.01c-0.68-0.09-1.17-0.32-1.52-0.56c0,0-0.01,0-0.01-0.01
									c-0.01,0-0.01-0.01-0.03-0.01c-0.48-0.34-0.66-0.69-0.66-0.69c-0.01-0.01-0.15-0.36-0.27-0.84V74.5
									c-0.06-0.22-0.11-0.45-0.14-0.69V73.8c-0.05-0.47-0.04-0.96,0.14-1.36c0.09-0.21,0.33-0.4,0.66-0.56
									c0.53-0.26,1.29-0.45,2.09-0.56c0.35-0.05,0.69-0.08,1.03-0.1c0.74-0.04,1.24-0.01,1.41,0.05c0.35,0.12,0.78,1.21,1.06,2.09
									c0.12,0.38,0.22,0.71,0.27,0.93c0.01,0.06,0.02,0.11,0.03,0.14c0.03,0.19,0.12,0.35,0.2,0.46l-0.12-0.07L74.42,74.99z"/>
								<path class="st39" d="M74.52,73.72c-0.12-0.11-0.26-0.23-0.41-0.35c-0.71-0.55-1.81-1.11-3.29-1.03
									c-1.74,0.1-2.58,1.3-2.97,2.18c-0.07,0.17-0.13,0.33-0.17,0.47c-0.21-0.68-0.47-1.85-0.06-2.74c0.51-1.14,3.42-1.36,4-1.39
									c0.69-0.04,1.26-0.02,1.5,0.06C73.7,71.11,74.26,72.76,74.52,73.72z"/>
							</g>
						</g>
						<g>
							<path class="st79" d="M87.44,69.59c0.31-0.28,4.42-0.16,5.96,0.08c0.45,0.07,0.97,0.06,1.23,0.53
								c0.26,0.47,0.61,1.4,0.74,1.9c0.05,0.21,0.05,0.86,0.05,0.86c-1.83-0.33-4.49-0.94-6.35-0.31c-0.81,0.27-2.11,2.4-2.24,2.44
								C86.83,74.91,87.12,69.88,87.44,69.59z"/>
							<g>
								<path class="st2" d="M94.95,74.56c0,0-0.7,1.65-3.69,1.82c-3,0.17-3.88-1.38-3.88-1.38s-0.3,0.19-0.39,0.08
									c-0.09-0.11,0.3-0.39,0.32-0.75c0.02-0.36,0.52-3.16,1.27-3.46c0.75-0.3,5.5-0.57,6.29,0.58
									C95.66,72.59,94.95,74.56,94.95,74.56z"/>
								<g>
									<g>
										<g>
											<path class="st37" d="M89.07,73.97c0.08,1.34,1.11,2.38,2.31,2.31c1.2-0.07,2.11-1.21,2.03-2.56
												c-0.08-1.34-1.11-2.38-2.31-2.31C89.9,71.48,88.99,72.62,89.07,73.97z"/>
										</g>
									</g>
									<path class="st38" d="M89.29,74c0.03,0.56,0.46,0.99,0.97,0.96c0.5-0.03,0.88-0.51,0.85-1.07
										c-0.03-0.56-0.46-0.99-0.97-0.96C89.63,72.96,89.25,73.44,89.29,74z"/>
									<path class="st2" d="M90.8,73.91c0.01,0.19,0.16,0.34,0.33,0.33c0.17-0.01,0.3-0.17,0.29-0.36
										c-0.01-0.19-0.16-0.34-0.33-0.33C90.91,73.56,90.78,73.72,90.8,73.91z"/>
								</g>
								<path class="st36" d="M95.4,72.63c0,0,0-0.01,0-0.01V72.6c0-0.04,0-0.06-0.01-0.1c0-0.01,0-0.02-0.01-0.04
									c-0.01-0.09-0.01-0.17-0.04-0.26c-0.01-0.09-0.04-0.19-0.06-0.29c-0.01-0.04-0.03-0.06-0.04-0.09
									c-0.03-0.08-0.06-0.16-0.09-0.23c0-0.01-0.01-0.02-0.01-0.04c-0.04-0.08-0.09-0.16-0.14-0.23
									c-0.02-0.04-0.05-0.06-0.08-0.09c-0.01-0.01-0.03-0.03-0.04-0.04c-0.01-0.01-0.01-0.02-0.02-0.03
									c-0.01-0.01-0.03-0.03-0.04-0.04c-0.03-0.02-0.04-0.04-0.07-0.05c-0.12-0.09-0.25-0.16-0.4-0.22
									c-0.03-0.01-0.07-0.03-0.1-0.04c-0.03-0.01-0.06-0.02-0.09-0.03c-0.07-0.03-0.15-0.05-0.24-0.08
									c-0.06-0.01-0.12-0.03-0.18-0.04c-0.06-0.01-0.12-0.03-0.18-0.04c-0.14-0.03-0.27-0.05-0.42-0.07
									c-0.06-0.01-0.12-0.02-0.18-0.03c-0.03,0-0.06-0.01-0.09-0.01c-0.03-0.01-0.06-0.01-0.09-0.01
									c-0.06-0.01-0.11-0.01-0.17-0.01c-0.14-0.01-0.29-0.02-0.43-0.03c-0.1-0.01-0.2-0.01-0.3-0.01
									c-0.04-0.01-0.07-0.01-0.11-0.01c-0.44-0.01-0.83-0.01-1.13,0.01c-0.09,0-0.16,0-0.22,0.01c-0.07,0-0.14,0.01-0.18,0.01
									c-0.1,0.01-0.19,0.01-0.29,0.02c-0.05,0-0.1,0.01-0.14,0.01c-0.04,0.01-0.09,0.01-0.13,0.01c-0.09,0.01-0.17,0.01-0.24,0.02
									c-0.02,0.01-0.05,0.01-0.07,0.01h-0.02c-0.09,0.01-0.18,0.02-0.26,0.04c-0.08,0.01-0.16,0.03-0.22,0.04
									c-0.02,0.01-0.04,0.01-0.06,0.01c-0.01,0-0.01,0-0.01,0c-0.01,0.01-0.02,0.01-0.04,0.01c-0.04,0.01-0.08,0.02-0.12,0.02
									c-0.04,0.01-0.08,0.03-0.12,0.04c-0.66,0.27-1.08,1.98-1.27,2.95c-0.07,0.35-0.1,0.61-0.1,0.67
									c-0.01,0.14-0.11,0.28-0.19,0.4c-0.04,0.07-0.1,0.14-0.13,0.23v0.01c-0.01,0.05-0.01,0.09-0.01,0.14
									c0.01,0.04,0.03,0.08,0.05,0.12c0.04,0.04,0.11,0.1,0.23,0.09c0.08-0.01,0.17-0.04,0.23-0.07c0.3,0.4,1.36,1.48,3.94,1.34
									c3.06-0.17,3.81-1.86,3.83-1.92c0.01-0.03,0.09-0.25,0.17-0.58c0.04-0.19,0.09-0.43,0.12-0.69
									c0.01-0.01,0.01-0.01,0.01-0.02c0.01-0.05,0.01-0.11,0.01-0.16c0.01-0.03,0.01-0.05,0.01-0.08
									c0.01-0.05,0.01-0.11,0.01-0.16v-0.07c0.01-0.03,0-0.05,0-0.08L95.4,72.63L95.4,72.63z M95.08,72.89
									c-0.01,0.25-0.03,0.5-0.06,0.71v0.01c-0.09,0.5-0.22,0.86-0.22,0.87c0,0-0.71,1.53-3.55,1.7c-0.3,0.02-0.58,0.02-0.84,0
									H90.4c-0.95-0.06-1.61-0.3-2.06-0.57c-0.01,0-0.01-0.01-0.01-0.01c-0.58-0.35-0.8-0.71-0.8-0.71l-0.09-0.15l-0.14,0.09
									c0.09-0.14,0.17-0.3,0.18-0.49c0-0.04,0.01-0.09,0.01-0.14c0.02-0.19,0.08-0.51,0.17-0.86c0-0.03,0.01-0.05,0.01-0.07
									c0-0.01,0.01-0.01,0.01-0.02v-0.01c0.01-0.04,0.02-0.07,0.03-0.11c0.01-0.04,0.01-0.07,0.02-0.1
									c0.01-0.01,0.01-0.01,0.01-0.02c0.22-0.87,0.55-1.81,0.9-1.96c0.19-0.07,0.75-0.17,1.61-0.22c0.19-0.01,0.4-0.02,0.59-0.03
									c1.69-0.04,3.49,0.17,3.89,0.77C95,71.93,95.08,72.41,95.08,72.89L95.08,72.89z"/>
								<path class="st39" d="M87.25,73.64c0.12-0.13,0.26-0.26,0.43-0.4c0.75-0.63,1.94-1.33,3.66-1.43
									c2.01-0.12,3.12,0.97,3.67,1.8c0.1,0.16,0.19,0.31,0.26,0.44c0.16-0.71,0.31-1.9-0.26-2.73c-0.73-1.06-4.1-0.93-4.77-0.89
									c-0.8,0.05-1.45,0.14-1.71,0.25C87.87,70.95,87.44,72.66,87.25,73.64z"/>
							</g>
						</g>
						<g>
							<g>
								<g>
									<path class="st80" d="M72.53,64.9c-1.48-1.13-5.25-1.42-6.38-1.49c-0.21-0.01-0.33-0.02-0.33-0.02
										c0.17-0.31,0.47-1.56,0.78-1.96c0.35-0.44,1.06-0.62,1.51-0.78c1.3-0.46,2.76-0.8,4.05-1.01c0.27,1,0.28,2.11,0.29,3.2
										C72.46,63.55,72.47,64.24,72.53,64.9z"/>
								</g>
							</g>
						</g>
						<g>
							<path class="st80" d="M87.34,65.8c2.17-1.08,7.45-1.24,9.04-1.26c0.29,0,0.46,0,0.46,0c-0.21-0.31-0.51-1.58-0.92-1.98
								c-0.44-0.45-1.42-0.66-2.04-0.84c-1.77-0.51-3.78-0.9-5.57-1.15c-0.46,0.99-0.58,2.1-0.69,3.19
								C87.55,64.46,87.48,65.15,87.34,65.8z"/>
						</g>
						<g>
							<path class="st40" d="M90.56,92.95c-0.2-0.73-0.31-1.57-0.39-2.36c1.21,0.71,2.44,3.15,2.45,4.86
								c-0.5-0.51-1.03-0.98-1.62-1.3c-2.73,4.11-6.96,6.41-12.45,5c-0.54-1.7-1.74-3.49-2.68-4.84
								C85.41,99.19,90.56,92.95,90.56,92.95z"/>
							<g>
								<g>
									<path class="st81" d="M76.27,94.48c0.23,0.25,0.46,0.5,0.67,0.76c0.03,0.03,0.05,0.06,0.08,0.1
										c0.43,0.52,0.82,1.06,1.19,1.65c0.18,0.3,0.35,0.59,0.52,0.87c0.02,0.03,0.02,0.09,0.06,0.1
										c7.01,0.87,9.92-2.33,10.27-3.25c0-0.05-0.01-0.1-0.03-0.13c-0.24-0.32-1.67,0.85-1.68,0.23c-1.18,0.55-2.7,0.99-4.54,0.99
										c-0.14,0-0.28,0-0.42-0.01c-1.1-0.04-2.23-0.24-3.38-0.59c-0.61-0.11-1.24-0.26-1.87-0.45
										C76.86,94.67,76.57,94.58,76.27,94.48z"/>
								</g>
								<g>
									<path class="st2" d="M77.15,94.75c0.02,0.02,0.04,0.05,0.06,0.07c0.43,0.52,0.82,1.06,1.19,1.65
										c0.18,0.3,0.35,0.59,0.52,0.87c0.02,0.03,0.02,0.09,0.06,0.1c6.22,0.77,9.22-1.66,10.06-2.86
										c-0.24-0.32-1.67,0.85-1.68,0.23c-1.18,0.55-2.7,0.99-4.54,0.99c-0.14,0-0.28,0-0.42-0.01c-1.1-0.04-2.23-0.24-3.38-0.59
										C78.4,95.09,77.78,94.94,77.15,94.75z"/>
								</g>
								<path class="st79" d="M92.94,95.45c-0.01-1.68-1.09-3.98-2.28-4.95c-0.12-0.09-0.23-0.18-0.35-0.25l-0.52-0.31l0.07,0.7
									c0.09,0.89,0.19,1.6,0.34,2.19c-0.17,0.18-0.5,0.49-0.97,0.85c-0.21,0.16-0.45,0.32-0.71,0.48
									c-0.22,0.14-0.46,0.29-0.72,0.43c-0.14,0.07-0.3,0.15-0.46,0.22c-0.07,0.03-0.14,0.06-0.22,0.09
									c-0.07,0.04-0.15,0.07-0.23,0.1c-0.02,0.01-0.04,0.02-0.07,0.03c-0.02,0.01-0.04,0.02-0.07,0.03
									c-0.04,0.01-0.07,0.02-0.11,0.04l-0.01,0.01c-0.04,0.01-0.08,0.03-0.12,0.04c-0.04,0.01-0.07,0.02-0.09,0.03
									c-0.01,0.01-0.01,0.01-0.03,0.01c-0.02,0.01-0.04,0.02-0.06,0.03c-0.07,0.02-0.13,0.04-0.19,0.06
									c-0.07,0.02-0.14,0.04-0.22,0.07c-0.02,0-0.04,0.01-0.07,0.01h-0.01c-0.06,0.02-0.1,0.04-0.16,0.05
									c-0.06,0.01-0.11,0.03-0.16,0.04c-0.07,0.02-0.14,0.04-0.22,0.06c-0.05,0.01-0.1,0.02-0.15,0.03
									c-0.04,0.01-0.1,0.02-0.15,0.04c-0.08,0.01-0.17,0.04-0.25,0.05c-0.02,0-0.04,0.01-0.07,0.01
									c-0.07,0.01-0.14,0.03-0.22,0.04c-0.07,0.01-0.15,0.02-0.22,0.04c-0.04,0-0.06,0.01-0.1,0.01
									c-0.06,0.01-0.12,0.01-0.17,0.02c-0.01,0-0.03,0-0.05,0.01c-0.01,0-0.01,0-0.01,0c-0.04,0-0.09,0.01-0.13,0.01
									c-0.04,0.01-0.09,0.01-0.13,0.01c-0.05,0-0.09,0.01-0.14,0.01c-0.01,0-0.02,0-0.03,0.01c-0.06,0-0.12,0-0.17,0.01h-0.17
									c-0.03,0.01-0.05,0.01-0.08,0.01h-0.21c-0.01,0-0.01,0-0.01,0h-0.03c-0.14,0-0.28-0.01-0.42-0.01
									c-0.12-0.01-0.25-0.01-0.37-0.02c-0.12-0.01-0.25-0.02-0.37-0.04c-0.12-0.01-0.25-0.02-0.37-0.04
									c-0.1-0.01-0.21-0.02-0.31-0.04h-0.04c-0.01-0.01-0.01-0.01-0.02-0.01h-0.01c-0.01,0-0.02,0-0.03-0.01
									c-0.02,0-0.04,0-0.06-0.01c-0.09-0.01-0.17-0.03-0.27-0.05c-0.06-0.01-0.12-0.02-0.18-0.04l-0.13-0.02
									c-0.04-0.01-0.08-0.02-0.12-0.03c-0.08-0.01-0.15-0.04-0.22-0.05c-0.01,0-0.03-0.01-0.04-0.01
									c-0.01-0.01-0.02-0.01-0.03-0.01c-0.01-0.01-0.02-0.01-0.04-0.01c-0.09-0.02-0.18-0.04-0.27-0.07
									c-0.01,0-0.03-0.01-0.04-0.01c-0.05-0.01-0.1-0.03-0.14-0.04c-0.01,0-0.01,0-0.01,0c-0.01,0-0.01-0.01-0.03-0.01
									c-0.1-0.03-0.2-0.06-0.3-0.09c-0.05-0.01-0.09-0.03-0.14-0.04h-0.01c-0.04-0.01-0.07-0.03-0.11-0.04h-0.01
									c-0.56-0.18-1.1-0.39-1.68-0.64c-0.35-0.16-0.71-0.32-1.08-0.51l-1.21-0.61l0.85,1.21c1.01,1.44,2.12,3.14,2.63,4.73
									l0.07,0.19l0.17,0.04c0.24,0.07,0.48,0.12,0.71,0.17h0.01c0.84,0.17,1.65,0.25,2.45,0.25c1.81,0.01,3.52-0.41,5.05-1.25
									c0.82-0.44,1.6-1,2.32-1.68c0.43-0.39,0.83-0.82,1.22-1.29c0.29-0.35,0.57-0.71,0.84-1.1c0.42,0.25,0.84,0.62,1.32,1.12
									l0.53,0.53L92.94,95.45z M91.13,93.81l-0.22-0.12l-0.15,0.22c-0.14,0.2-0.27,0.4-0.41,0.59c-0.45,0.63-0.95,1.19-1.46,1.69
									c-0.23,0.22-0.46,0.43-0.69,0.62c-1.88,1.57-4.09,2.38-6.53,2.38c-0.68,0-1.37-0.07-2.07-0.19
									c-0.15-0.03-0.3-0.06-0.44-0.09c-0.12-0.03-0.25-0.06-0.37-0.09c-0.42-1.22-1.13-2.46-1.9-3.62
									c0.02,0.01,0.04,0.01,0.05,0.02c0.01,0,0.01,0.01,0.01,0.01l0.01,0.01h0.01c0.28,0.11,0.55,0.22,0.82,0.32h0.01
									c0.01,0.01,0.02,0.01,0.04,0.01c0.38,0.14,0.73,0.27,1.1,0.38h0.01c1.33,0.4,2.62,0.59,3.88,0.59
									c2.13,0.01,3.85-0.54,5.13-1.19c0.01-0.01,0.03-0.01,0.04-0.02c0.25-0.13,0.48-0.25,0.69-0.39
									c0.04-0.02,0.07-0.05,0.12-0.08h0.01c0.09-0.06,0.19-0.12,0.27-0.17c0.3-0.21,0.58-0.41,0.8-0.6
									c0.22-0.19,0.41-0.35,0.55-0.49c0.22-0.22,0.35-0.36,0.37-0.39l0.14-0.17l-0.06-0.22c-0.12-0.4-0.2-0.85-0.28-1.4
									c0-0.01,0-0.03-0.01-0.04c0.01,0.01,0.01,0.01,0.01,0.01c0.71,0.74,1.36,2.03,1.61,3.17
									C91.83,94.25,91.49,94.01,91.13,93.81z"/>
							</g>
						</g>
						<path class="st79" d="M83.87,103.26c0,0-1.97,3.19-2.21,4.46c-1.29-1.08-3.41-3.39-3.53-5.1
							C79.64,103.72,80.99,104.61,83.87,103.26z"/>
						<g>
							<g>
								<path class="st78" d="M109.53,67.95c-0.95-0.97-2.49-0.64-3.78-0.59c-1.38,0.05-3.42,0.12-4.07,2.11
									c-0.51,1.56-0.54,3.66-0.83,5.31l-1.14,10.41c0.51,0.43,2.35,0.72,3.03,0.31c0.9-0.54,5.43-9.6,6.7-13.34
									C110.03,70.43,110.74,69.17,109.53,67.95z"/>
								<path class="st79" d="M108.85,69.25c-0.1-1.01-1.45-0.84-2.36-0.88c-0.9-0.04-2.46-0.26-3.25,0.31
									c-0.78,0.56-0.83,2.58-0.92,3.55c2.38-0.24,1.8,3-0.13,2.54l-0.1,0.6c-0.14,0.8-0.23,1.78-0.07,2.35
									c0.11-0.62,0.08-1.88,0.61-2.3c0.51-0.4,1.47-0.14,2.05-0.51c1.52-0.97,0.05-2.52-1.2-3.02c0.12-0.43,0.2-1.52,0.52-1.85
									c0.36-0.37,1.4-0.34,1.96-0.42c0.83-0.11,1.41-0.36,1.7,0.33c0.2,0.46-0.09,1.21-0.18,1.69
									C107.94,71.11,108.92,69.94,108.85,69.25z"/>
							</g>
						</g>
						<g>
							<g>
								<path class="st36" d="M77.78,87.19l-0.23-0.01C77.63,87.17,77.71,87.18,77.78,87.19z"/>
								<g>
									<path class="st79" d="M77.78,87.19l1.23,0.06c1.61,2.41,1.23,5.93,1.97,8.62c-0.69,0.28-1.63-0.29-2.38-0.28
										C79.18,94.64,79.03,87.45,77.78,87.19z"/>
								</g>
							</g>
						</g>
						<path class="st79" d="M73.93,69.71c0,0,4.86,5.7,2.92,15.8c3.39,0.28,9.11,1.38,8.56-2.05c2.88,3.93-6.03,5.64-11.16,3.61
							C76.97,73.91,73.23,71.13,73.93,69.71z"/>
						<path class="st80" d="M67.57,49.64c1.82,1.15,5.01,2.73,6.95,2.37c3.52-0.65,9.1-2.27,14.21-6c12.52-9.14,3.9,21.7,11.64,21.7
							c0.65,0.05-0.68,7.79,0.04,11.11c0.8,3.66,1.43,1.46,1.43,1.46s0.42-1.58,1.06-4.05c2.05-7.89,6.32-24.79,5.95-27.43
							c-0.79-5.59-8.49-7.44-12.87-11.35c-5.71-5.09-14.82-4.8-21.46-0.48c-1.9,1.23-7.25,1.42-10.28,3.64
							c-0.97,0.71-1.73,1.41-2.09,2.05C61.03,44.63,65.11,48.08,67.57,49.64z"/>
						<path class="st80" d="M69.72,40.64c1-0.96,1.94-1.88,2.27-2.6C72.61,36.72,68.9,40.94,69.72,40.64z"/>
						<path class="st80" d="M64.04,59.95c0.04,4.66,2,13.2,1.98,13.81c0.94-1.86,0.17-7.41,0.36-13.66
							c0.13-4.13,0.68-8.56,2.41-12.43c0.1-0.21,0.2-0.43,0.3-0.64l0.77-6.47c-0.06,0.04-0.11,0.06-0.15,0.08
							c-1.3,1.25-2.71,2.56-3.03,3.54c-0.25,0.79-0.55,2.02-0.85,3.46c-0.81,3.89-1.67,9.28-1.79,11.46
							C64.04,59.37,64.04,59.66,64.04,59.95z"/>
					</g>
					<g>
						<g>
							<path class="st82" d="M67.57,49.64c1.82,1.15,5.01,2.73,6.95,2.37c3.52-0.65,9.1-2.27,14.21-6
								c12.52-9.14,3.9,21.7,11.64,21.7c0.65,0.05-0.68,7.79,0.04,11.11c0.8,3.66,1.43,1.46,1.43,1.46s0.42-1.58,1.06-4.05
								c-1.49-2.8-1.24-10.08-0.88-11.64c-5.81,1.18-3.65-19.33-7.7-22.08c-2.54-1.72-5.44,1.31-7.64,2.46
								c-2.21,1.16-5.03,2.42-7.57,1.82c-3.8-0.9-7.33-3.18-10.96-4.57c-1.29-0.49-2.6-1.03-3.91-1.61
								c-0.97,0.71-1.73,1.41-2.09,2.05C61.03,44.63,65.11,48.08,67.57,49.64z"/>
							<path class="st82" d="M99.77,85.9c-0.01,0.02-0.01,0.03-0.03,0.05L99.77,85.9z"/>
						</g>
					</g>
				</g>
				<g>
					<g>
						<path class="st83" d="M89.51,139.02c-2.32-2-8.84-0.57-11.76-0.12c0,0,2,8.46,2.59,9.43c1.15,0.97,2.37,0.64,3.08,0.42
							C84.48,148.42,91.44,140.67,89.51,139.02z"/>
						<path class="st83" d="M82.17,163.65c-1.21-0.05-2.4-0.13-3.59-0.25c0.34-5.71,0.86-11.02,1.6-15.42
							c0.66-3.85,1.48-7,2.51-9.13c0.05-0.12,0.1-0.22,0.16-0.32l0.1,0.29l0.06,0.18l0.77,2.3l0.25,0.76
							c-0.3,0.87-0.44,3.22-0.45,6.61c-0.01,3.88,0.14,9.13,0.4,15.05c-0.25,0-0.51,0-0.76-0.02
							C82.87,163.69,82.52,163.68,82.17,163.65z"/>
					</g>
					<path class="st77" d="M104.81,117.88c-1.56,2.32-3.85,4.48-5.78,6.58c-0.87,0.95-5.7,5.6-5.44,6.28l-5.12,8.78
						c0.08-0.01,0.02-0.25,0.26-0.13c1.45,2.32,3.2,4.55,4.56,7.03c1.32,2.42,1.76,4.76,2.23,7.39
						C98.64,152.25,110.26,132.5,104.81,117.88z"/>
					<path class="st84" d="M105.44,130.91c-1.86,8.27-4.36,12.18-8.96,18.92c-0.81-2.47-2.33-4.44-4.05-6.01
						c-0.43-0.39-0.86-0.75-1.31-1.09c-3.23-2.48-6.66-3.7-7.13-4.22c-0.18-0.2-0.28-0.31-0.28-0.31c0.09-0.05,0.18-0.12,0.28-0.2
						c3.58-2.87,13.4-21.44,13.31-25.7c2.42,1.98,8.56,6.38,8.56,6.38S106.02,128.29,105.44,130.91z"/>
					<path class="st77" d="M81.91,138.95c0,0-1.2-8.92-1.28-9.8c0,0,0,0,0,0c-0.49-5.05-0.67-10.36-0.85-12.91
						c-0.01-0.09-0.01-0.17-0.02-0.25c-2.42,1.98-5.92,8.89-5.92,8.89s-3.49,14.28-1.5,22.78
						C75.74,139.96,81.91,138.95,81.91,138.95z"/>
					<path class="st84" d="M84.26,138.2c0,0-0.09,0.11-0.27,0.31c-0.4,0.47-3.02,0.2-5.81,1.37c-1.93,0.81-3.94,2.31-5.33,5.23
						c-2.04-8.48,1.78-25.94,1.78-25.94s3.2-3.85,5.62-5.83c0.01,0.08-0.15-0.37,0.02,0.25c0.66,2.48,0.36,7.86,0.85,12.91
						c0,0,0,0,0,0c0.09,0.88,0.18,1.76,0.29,2.61c0.52,4.14,1.32,7.72,2.58,8.87C84.08,138.08,84.17,138.15,84.26,138.2z"/>
				</g>
			</g>
			<g>
				<path class="st76" d="M139.37,142.39c-2.07,1.96-4.24,3.8-6.51,5.51c-0.38,0.3-0.75,0.58-1.13,0.85
					c-3.17,2.33-6.53,4.41-10.04,6.23c-2.69,1.41-5.47,2.65-8.34,3.73c-0.12-3.28-0.15-6.16-0.06-8.28
					c0.19-4.14,0.81-8.32,1.56-12.38c0.48-2.57,1.65-5.14,1.85-7.73l1.74-8.07c0.04,0.01,0.08,0.01,0.12,0.02
					c20.04,4.18,19.7,13.63,20.75,19.65C139.32,142.06,139.35,142.21,139.37,142.39z"/>
			</g>
		</g>
	</g>
</g>
</svg>
